<svg width="29489" height="24280" viewBox="0 0 29489 24280" fill="none" xmlns="http://www.w3.org/2000/svg">
<rect width="29489" height="24280" fill="white"/>
<path fill-rule="evenodd" clip-rule="evenodd" d="M16592.7 9197.53C16635.3 9204.52 16675.7 9218.16 16712.7 9237.36L16766.5 9163.25L16872.9 9240.59L16818 9316.17C16847.7 9347.01 16872.5 9382.55 16891.2 9421.57L16976.3 9393.9L17017 9519.03L16927.9 9547.99C16929.7 9563.73 16930.7 9579.74 16930.7 9595.98C16930.7 9623.15 16928 9649.69 16922.9 9675.36L17010.5 9703.84L16969.9 9828.97L16876.3 9798.56C16855.3 9834.64 16828.9 9867.19 16798.2 9895.06L16856 9974.69L16749.6 10052L16687.5 9966.56C16651.4 9982.23 16612.5 9992.78 16571.8 9997.28V10103H16440.3V9990.43C16401.8 9982.03 16365.4 9968.15 16332 9949.65L16266.5 10039.7L16160.1 9962.41L16228.6 9868.08C16203 9840.07 16181.4 9808.45 16164.5 9774.08L16056.7 9809.1L16016 9683.97L16126.5 9648.07C16124.3 9631.02 16123.2 9613.63 16123.2 9595.98C16123.2 9574.71 16124.8 9553.82 16128 9533.44L16022.5 9499.16L16063.1 9374.03L16169.2 9408.5C16187.7 9373.38 16211.1 9341.3 16238.7 9313.23L16177 9228.31L16283.4 9150.97L16344.8 9235.5C16380.8 9217.27 16419.9 9204.28 16461.2 9197.53V9100H16592.7V9197.53ZM16516.5 9347.76C16376.4 9347.76 16262.8 9461.36 16262.8 9601.5C16262.8 9741.64 16376.4 9855.25 16516.5 9855.25C16656.6 9855.25 16770.2 9741.64 16770.2 9601.5C16770.2 9461.36 16656.6 9347.76 16516.5 9347.76Z" fill="#A49FCC"/>
<path d="M17068.1 9377.44C17078.5 9374.81 17086.7 9374.91 17092.8 9377.74C17098.9 9380.41 17102.8 9385.48 17104.6 9392.96C17106.3 9400.27 17105.6 9407.11 17102.3 9413.48C17099.2 9419.65 17094.7 9424.58 17088.8 9428.28C17094.4 9431.88 17099.6 9435.66 17104.3 9439.64C17109.2 9443.58 17112.3 9448.19 17113.5 9453.49C17116 9463.92 17113.8 9472.99 17106.9 9480.71C17100 9488.27 17089.1 9493.81 17074.3 9497.32C17059.7 9500.79 17048.1 9500.52 17039.4 9496.49C17030.6 9492.31 17025.4 9486.57 17023.7 9479.25C17021.9 9471.78 17022.1 9464.58 17024.2 9457.66C17026.5 9450.7 17029.8 9446.72 17034 9445.73C17036.5 9445.13 17038.5 9445.64 17040 9447.25C17041.5 9448.71 17044.8 9453.36 17049.7 9461.22C17051.6 9464.08 17054.1 9466.61 17057.2 9468.82C17064.5 9473.84 17074.4 9474.87 17086.8 9471.91C17083.5 9466.44 17079.3 9462.1 17074.1 9458.9C17069 9455.5 17064 9452.25 17059 9449.17C17054 9446.08 17049.4 9442.65 17045.2 9438.87C17041 9434.94 17038.1 9429.86 17036.6 9423.64C17034 9412.43 17036 9402.32 17042.8 9393.32C17049.2 9385.21 17057.7 9379.92 17068.1 9377.44ZM17077.4 9420.86C17082 9412.69 17083.9 9406.58 17082.9 9402.53C17082.5 9400.67 17081.4 9399.2 17079.7 9398.13C17078 9396.87 17076 9396.53 17073.5 9397.12C17071 9397.72 17068.7 9398.6 17066.5 9399.78C17064.5 9400.92 17062.8 9401.81 17061.4 9402.45C17062.9 9408.37 17068.2 9414.51 17077.4 9420.86Z" fill="#D71D1D"/>
<path d="M16998.6 9463.26C17001.9 9477.42 17005.6 9484.04 17009.5 9483.12C17011.8 9482.57 17014.3 9480.4 17017 9476.63C17019.8 9472.86 17022.4 9468.86 17025 9464.62C17027.6 9460.23 17030 9456.22 17032.1 9452.6C17034.3 9448.94 17036 9446.98 17037.1 9446.72C17039.3 9446.2 17041 9448.59 17042.2 9453.88C17044.8 9464.78 17041.8 9476.68 17033.2 9489.57C17024.7 9502.43 17014.3 9510.34 17001.8 9513.3C16994.1 9515.3 16988 9513.21 16983.6 9507.03C16980.1 9502.1 16976.9 9493.64 16974.1 9481.65C16969.4 9508.25 16956.7 9524 16936.2 9528.87C16922.3 9532.16 16910.5 9531.36 16900.6 9526.47C16890.8 9521.38 16884.2 9511.37 16880.6 9496.42C16879.8 9492.84 16879.5 9482.96 16879.8 9466.78C16880.2 9450.41 16880.4 9437.04 16880.4 9426.68C16880.3 9416.17 16879.6 9408.03 16878.3 9402.27C16875.3 9389.66 16870.6 9384.11 16864.2 9385.62C16862 9386.14 16860.2 9387.24 16858.6 9388.93C16857.2 9390.59 16855.7 9392.33 16854.2 9394.18C16852.8 9395.99 16851.3 9397.73 16849.7 9399.42C16848.2 9401.11 16846.1 9402.25 16843.6 9402.84C16841.3 9403.4 16839.6 9401.57 16838.6 9397.37C16836.6 9388.81 16838.9 9380.86 16845.6 9373.53C16851.9 9366.11 16860.3 9361.15 16870.9 9358.64C16881.5 9356.12 16890.4 9358.6 16897.8 9366.06C16903.4 9371.48 16907.1 9378.24 16909 9386.33C16910.9 9394.27 16911.9 9402.26 16912 9410.3C16912.1 9418.17 16912 9426.32 16911.9 9434.74C16911.9 9443.13 16912 9451.65 16912.3 9460.3C16912.5 9468.81 16913.2 9475.7 16914.5 9481C16915.7 9486.13 16916.7 9489.5 16917.6 9491.1C16921.4 9497.44 16927.5 9499.6 16935.9 9497.61C16946.8 9495.02 16954.7 9485.92 16959.5 9470.3C16963.7 9457.15 16965.2 9442 16964 9424.83L16963 9413.99L16950.4 9365.41C16948.7 9358.25 16950.4 9351.59 16955.6 9345.44C16960.7 9339.3 16966.7 9335.49 16973.6 9334.02C16976.4 9333.35 16978.7 9335.03 16980.4 9339.05C16982.2 9342.91 16983.6 9347.33 16984.8 9352.31C16986 9357.29 16986.8 9362.19 16987.3 9367.01C16987.8 9371.67 16988.2 9377.15 16988.8 9383.45C16989.4 9389.55 16990 9396.15 16990.5 9403.26C16993.1 9432.4 16995.8 9452.4 16998.6 9463.26Z" fill="#D71D1D"/>
<path d="M16781.3 9506.69C16783.9 9506.06 16786.1 9509.33 16787.8 9516.49C16788.7 9520.38 16788.2 9525.52 16786.3 9531.9C16784.3 9538.12 16781.2 9544.2 16777 9550.13C16773 9555.86 16768.1 9560.96 16762.4 9565.44C16756.7 9569.91 16751 9572.83 16745.2 9574.2C16739.5 9575.56 16734.7 9575.54 16730.9 9574.14C16727.1 9572.74 16723.9 9570.39 16721.1 9567.1C16717.2 9562.43 16712.6 9552.91 16707.4 9538.52C16702.2 9523.99 16698 9513.96 16694.9 9508.45C16690.6 9508.64 16686.7 9507.93 16683 9506.33C16679.5 9504.54 16677.3 9501.94 16676.5 9498.51C16675.6 9494.93 16676.6 9491.99 16679.3 9489.7C16682.2 9487.36 16685.7 9485.72 16689.7 9484.76C16693.9 9483.76 16697.9 9483.89 16701.7 9485.13C16705.2 9480.52 16707.7 9475.48 16709.2 9470.03C16710.8 9464.38 16710.6 9457.43 16708.7 9449.18C16706.7 9440.78 16702.3 9434.75 16695.5 9431.1C16688.7 9427.44 16679.9 9426.91 16669 9429.5C16658.2 9432.05 16650.2 9434.86 16644.8 9437.94C16639.5 9441.02 16634.9 9444.07 16631.2 9447.09C16627.6 9450.08 16624.4 9452.81 16621.6 9455.3C16618.9 9457.75 16616.1 9459.31 16613.3 9459.98C16610.5 9460.64 16608.9 9460.12 16608.5 9458.41C16608 9456.54 16608.8 9453.23 16610.8 9448.48C16612.8 9443.73 16616.2 9438.65 16621 9433.23C16633.1 9419.68 16648.3 9410.82 16666.5 9406.65C16684.7 9402.33 16700.6 9402.19 16714 9406.23C16729.8 9411.03 16739.6 9421.53 16743.4 9437.72C16746.8 9451.07 16745.9 9463.04 16740.9 9473.61C16735.8 9484.18 16728.4 9492.67 16718.8 9499.08C16722.3 9503.66 16725.5 9508.74 16728.3 9514.33C16731.3 9519.87 16734.1 9524.97 16736.6 9529.62C16739.2 9534.27 16741.8 9538.02 16744.2 9540.89C16746.9 9543.71 16749.5 9544.83 16751.9 9544.24C16754.6 9543.61 16757.4 9541.39 16760.2 9537.58C16763.2 9533.58 16766.1 9529.37 16768.8 9524.94C16771.6 9520.51 16774 9516.48 16776.1 9512.86C16778.3 9509.04 16780 9506.99 16781.3 9506.69ZM16659.7 9446.74C16661.8 9446.26 16663.4 9448.66 16664.7 9453.95C16665.9 9459.25 16666.8 9464.3 16667.3 9469.12C16668 9478.48 16668.2 9487.31 16667.9 9495.62C16667.3 9518.12 16667.4 9531.16 16668.3 9534.74L16676.4 9569.07C16678.4 9577.47 16676.6 9583.99 16671 9588.62C16668.3 9590.72 16665.8 9592.73 16663.3 9594.64C16660.9 9596.51 16658 9597.85 16654.6 9598.67C16648.1 9600.22 16643 9593.52 16639.5 9578.58C16635.9 9563.48 16634.9 9543.65 16636.5 9519.11C16638 9494.56 16641.2 9475.39 16646 9461.59C16647 9458.89 16648.7 9455.94 16651 9452.74C16653.4 9449.55 16656.3 9447.55 16659.7 9446.74Z" fill="#D71D1D"/>
<path d="M16473.8 9518.49C16484.2 9515.86 16492.5 9515.96 16498.6 9518.78C16504.6 9521.46 16508.5 9526.53 16510.3 9534C16512 9541.32 16511.3 9548.16 16508 9554.52C16504.9 9560.69 16500.4 9565.63 16494.5 9569.32C16500.1 9572.92 16505.3 9576.71 16510 9580.68C16514.9 9584.62 16518 9589.24 16519.2 9594.53C16521.7 9604.96 16519.5 9614.04 16512.6 9621.76C16505.7 9629.32 16494.9 9634.85 16480.1 9638.36C16465.4 9641.84 16453.8 9641.56 16445.1 9637.54C16436.4 9633.36 16431.1 9627.61 16429.4 9620.3C16427.6 9612.82 16427.8 9605.63 16430 9598.7C16432.3 9591.75 16435.5 9587.77 16439.7 9586.77C16442.2 9586.18 16444.2 9586.69 16445.7 9588.3C16447.2 9589.75 16450.5 9594.41 16455.5 9602.27C16457.3 9605.12 16459.8 9607.66 16462.9 9609.87C16470.2 9614.88 16480.1 9615.91 16492.5 9612.96C16489.3 9607.49 16485 9603.15 16479.8 9599.94C16474.7 9596.54 16469.7 9593.3 16464.7 9590.21C16459.7 9587.13 16455.1 9583.7 16450.9 9579.92C16446.7 9575.99 16443.8 9570.91 16442.4 9564.68C16439.7 9553.47 16441.7 9543.37 16448.5 9534.37C16454.9 9526.26 16463.4 9520.96 16473.8 9518.49ZM16483.1 9561.91C16487.8 9553.74 16489.6 9547.63 16488.7 9543.58C16488.2 9541.71 16487.1 9540.24 16485.4 9539.18C16483.8 9537.91 16481.7 9537.58 16479.2 9538.17C16476.7 9538.76 16474.4 9539.65 16472.2 9540.82C16470.2 9541.96 16468.5 9542.85 16467.2 9543.5C16468.6 9549.41 16473.9 9555.55 16483.1 9561.91Z" fill="#D71D1D"/>
<path d="M16365.5 9622.15L16373.6 9650.31C16374.5 9654.04 16373.4 9657.85 16370.2 9661.74C16367 9665.62 16362 9668.35 16355.3 9669.94C16351.5 9670.86 16348.2 9669.49 16345.7 9665.81C16343.4 9662.09 16341.3 9656.34 16339.4 9648.56C16335.5 9632.21 16333.3 9619.26 16332.7 9609.71C16332.2 9599.96 16333.2 9589.77 16335.8 9579.13C16327 9573.98 16322 9568.91 16320.8 9563.93C16318.3 9553.5 16322.7 9546.95 16333.9 9544.29C16339.7 9542.93 16345.4 9544.76 16351.2 9549.8C16355.4 9553.26 16358.8 9557.63 16361.5 9562.9C16363.9 9563.16 16366.7 9562.91 16370 9562.13C16374.5 9561.06 16379.3 9558.34 16384.6 9553.98L16389.9 9549.5C16391.6 9548.13 16393.1 9547.27 16394.5 9546.94C16399 9545.87 16405.1 9551.41 16412.7 9563.57C16412.8 9569.98 16412.6 9576.18 16412.2 9582.2C16412 9588.17 16411.7 9595.38 16411.4 9603.84C16411.1 9612.3 16411.2 9617.95 16411.8 9620.78C16412.4 9623.43 16413.6 9624.55 16415.3 9624.14C16417.6 9623.59 16420.1 9621.43 16422.9 9617.66C16425.6 9613.89 16428.2 9609.88 16430.9 9605.64C16433.4 9601.25 16435.8 9597.24 16437.9 9593.62C16440.1 9589.96 16441.8 9588 16442.9 9587.74C16445.1 9587.23 16446.8 9589.61 16448 9594.91C16450.6 9605.65 16448.4 9617.36 16441.3 9630.04C16434.5 9642.69 16424.9 9650.38 16412.8 9653.1C16405.6 9654.8 16399.6 9653.2 16394.6 9648.29C16389.7 9643.38 16386.1 9636.82 16384 9628.6C16380.1 9612.26 16380.1 9595.9 16384 9579.53C16380.9 9581.74 16377.1 9583.37 16372.8 9584.4C16368.6 9585.4 16365.5 9585.96 16363.6 9586.1C16363.6 9592.34 16363.6 9598.67 16363.6 9605.07C16363.6 9611.32 16364.2 9617.02 16365.5 9622.15Z" fill="#D71D1D"/>
<path d="M16335.1 9612.59C16337.9 9611.93 16340.1 9615.18 16341.8 9622.34C16342.7 9626.23 16342.2 9631.37 16340.3 9637.75C16338.3 9643.97 16335.2 9650.05 16331.1 9655.97C16327 9661.71 16322.1 9666.81 16316.4 9671.28C16310.8 9675.75 16304.9 9678.71 16298.8 9680.15C16290.6 9682.11 16283.3 9676.18 16277.1 9662.37C16274.6 9670.03 16270.6 9676.81 16265.1 9682.72C16259.6 9688.47 16251.3 9692.66 16240.2 9695.29C16229.3 9697.87 16219.7 9696.54 16211.4 9691.27C16203.1 9686.01 16197.8 9678.46 16195.7 9668.62C16189.4 9642.15 16193.2 9619.2 16207.2 9599.77C16213.2 9591.62 16219.1 9585.77 16225 9582.23C16231.1 9578.65 16237.7 9576.02 16244.8 9574.32C16252 9572.62 16258.1 9572.48 16263.2 9573.9C16264.3 9568.87 16266.3 9566.02 16269.1 9565.35C16274.5 9564.06 16280.3 9565.25 16286.2 9568.93C16292.3 9572.42 16295.9 9576.27 16296.9 9580.47C16295.9 9586.12 16294.2 9593.03 16291.7 9601.19C16292.1 9608.65 16293.9 9618.83 16296.9 9631.76C16300 9644.68 16303.2 9650.75 16306.4 9649.97C16310.5 9649.01 16318.4 9638.59 16330.1 9618.7C16332.2 9614.93 16333.8 9612.89 16335.1 9612.59ZM16228.2 9652.76C16231 9664.75 16236.9 9669.69 16245.8 9667.59C16255.2 9665.18 16261.9 9658.25 16265.7 9646.81C16267.1 9642.87 16267.9 9638.24 16268.1 9632.92C16264 9615.49 16262 9600.17 16262.1 9586.98C16250.1 9592.47 16240.6 9601.14 16233.5 9613.01C16226.5 9624.88 16224.7 9638.13 16228.2 9652.76Z" fill="#D71D1D"/>
<path d="M16155.5 9686.53C16167.7 9683.65 16178.3 9676.03 16187.4 9663.68C16190.7 9659.11 16193.4 9655.02 16195.3 9651.44C16197.2 9647.7 16198.9 9645.66 16200.3 9645.33C16202.4 9644.81 16204.1 9646.73 16205.1 9651.09C16206.1 9655.45 16206.1 9660.63 16205.1 9666.63C16204 9672.48 16201.3 9678.62 16197.1 9685.05C16186.7 9700.83 16169.8 9711.5 16146.5 9717.04C16128 9721.44 16113.8 9717.74 16103.9 9705.94C16100.5 9701.82 16097.7 9695.41 16095.6 9686.69C16093.6 9677.97 16093.1 9668.53 16094.3 9658.38C16095.5 9648.07 16098.1 9638.83 16102.1 9630.65C16106.2 9622.43 16111.6 9615.57 16118.1 9610.06C16124.7 9604.39 16132.2 9600.56 16140.6 9598.57C16149.1 9596.53 16156.2 9597.08 16161.7 9600.22C16167.4 9603.31 16171 9608.21 16172.6 9614.9C16174.2 9621.59 16173.8 9627.53 16171.4 9632.7C16169.1 9637.68 16165.7 9642.27 16161.1 9646.49C16156.4 9650.55 16151.1 9654.52 16145.2 9658.41C16139.3 9662.1 16133.6 9666.09 16128 9670.37L16129.4 9676.21C16130.9 9681.77 16134.2 9685.19 16139.2 9686.45C16144.3 9687.72 16149.7 9687.74 16155.5 9686.53ZM16135.9 9621.62C16127.8 9623.54 16124.5 9634.29 16125.8 9653.87C16128.6 9650.91 16131.2 9648.25 16133.5 9645.87C16136.1 9643.45 16138.3 9641.21 16140.1 9639.13C16143.9 9634.6 16145.4 9630.14 16144.6 9625.74C16143.6 9621.85 16140.8 9620.48 16135.9 9621.62Z" fill="#D71D1D"/>
<path d="M15977.2 9639.57C15974.6 9656.3 15974.8 9671.28 15978 9684.52C15981.1 9697.59 15986 9706.62 15992.8 9711.59C15999.7 9716.52 16009.2 9717.57 16021.2 9714.72C16028.3 9713.02 16034 9708.96 16038.2 9702.53C16036.9 9689.35 16036.3 9680.54 16036.4 9676.08C16036.6 9665.17 16039.4 9659.08 16044.9 9657.78C16049.3 9656.75 16054.1 9658.8 16059.4 9663.95C16064.7 9668.94 16067.8 9673.56 16068.6 9677.8C16070.3 9684.81 16070.6 9698.47 16069.5 9718.79C16078.4 9707.95 16088.1 9692.76 16098.4 9673.21C16099.9 9670.39 16101.3 9668.82 16102.7 9668.49C16104.9 9667.97 16106.6 9670.28 16107.8 9675.42C16110.2 9685.38 16107.7 9697.22 16100.4 9710.95C16093.1 9724.53 16082 9736.62 16067.1 9747.23C16066.6 9750.48 16066.2 9753.53 16066.1 9756.36C16065.9 9759.19 16065.7 9762.62 16065.3 9766.65C16064.9 9770.68 16063.7 9775.25 16061.7 9780.35C16059.6 9785.6 16056.6 9790.34 16052.7 9794.56C16044.4 9803.77 16033.7 9809.91 16020.8 9812.98C16008 9816.01 15996.6 9815.68 15986.5 9811.99C15976.6 9808.42 15970.5 9801.65 15968.1 9791.69C15967 9786.86 15968.4 9782.34 15972.3 9778.11C15976.3 9773.89 15981.7 9769.73 15988.6 9765.62C15995.6 9761.67 16003.5 9757.72 16012.4 9753.79C16021.4 9749.87 16030.2 9745.7 16039.1 9741.31C16039.5 9737.43 16039.6 9733.86 16039.5 9730.6C16034.5 9736.71 16027.6 9740.82 16018.7 9742.93C16000.2 9747.32 15984.7 9746.96 15972.3 9741.85C15957.9 9735.89 15948.5 9723.5 15944 9704.66C15938.2 9680.06 15938.9 9655.23 15946.1 9630.17C15941.3 9626.7 15937.2 9622.91 15933.8 9618.79C15930.3 9614.52 15928.3 9611.14 15927.7 9608.65C15926.6 9604.29 15927.7 9601.82 15930.8 9601.23C15932.9 9600.75 15935.5 9601.44 15938.7 9603.31C15942 9605.17 15944.6 9606.77 15946.5 9608.12C15948.6 9609.42 15950.8 9610.55 15953 9611.51C15958.7 9599.32 15966.2 9588.73 15975.6 9579.76C15984.9 9570.79 15996.2 9564.76 16009.3 9561.65C16022.3 9558.55 16033.1 9558.54 16041.6 9561.63C16050 9564.72 16055.7 9572.26 16058.5 9584.25C16061.4 9596.23 16059.1 9607.31 16051.6 9617.46C16044.3 9627.58 16032.4 9634.6 16015.9 9638.52C16004.5 9641.21 15991.6 9641.56 15977.2 9639.57ZM15981.1 9621.86C15990.6 9623.56 16001.4 9622.97 16013.5 9620.09C16021 9618.32 16026.5 9614.87 16030 9609.75C16033.6 9604.64 16034.8 9599.74 16033.7 9595.07C16032.6 9590.24 16030.2 9587.11 16026.5 9585.67C16023 9584.04 16018.8 9583.81 16013.8 9584.99C15998.9 9588.54 15988 9600.83 15981.1 9621.86ZM16014 9795.61C16024.6 9793.1 16031.9 9782.96 16036.1 9765.2C16028.1 9769.41 16021.2 9772.84 16015.6 9775.49C16010 9778.14 16005.4 9780.37 16001.9 9782.19C15998.5 9783.98 15996.1 9785.54 15994.6 9786.88C15993.3 9788.18 15992.8 9789.69 15993.2 9791.4C15993.9 9794.36 15996.4 9796 16000.6 9796.32C16004.9 9796.76 16009.4 9796.53 16014 9795.61Z" fill="#D71D1D"/>
</svg>
