<?xml version="1.0" encoding="utf-8"?>
<!-- Generator: Adobe Illustrator 16.0.0, SVG Export Plug-In . SVG Version: 6.00 Build 0)  -->
<!DOCTYPE svg PUBLIC "-//W3C//DTD SVG 1.1//EN" "http://www.w3.org/Graphics/SVG/1.1/DTD/svg11.dtd">
<svg version="1.1" id="Layer_1" xmlns="http://www.w3.org/2000/svg" xmlns:xlink="http://www.w3.org/1999/xlink" x="0px" y="0px"
	 width="414.861px" height="102.88px" viewBox="0 0 414.861 102.88" enable-background="new 0 0 414.861 102.88"
	 xml:space="preserve">
<polyline id="border_3_" fill="none" stroke="#FFEBB3" stroke-width="4" stroke-miterlimit="10" points="363.866,100.88 2,100.88 
	2,2 412.861,2 412.861,100.88 382.866,100.88 "/>
<g id="happyhr">
	<g>
		<path fill="#FFEBB3" d="M336.575,23.093c-3.197,0-5.798,2.601-5.798,5.798v16.75h-16.75v-16.75c0-3.197-2.602-5.798-5.799-5.798
			s-5.798,2.601-5.798,5.798v45.097c0,3.198,2.601,5.799,5.798,5.799s5.799-2.601,5.799-5.799v-5.83
			c0-1.067-0.865-1.933-1.934-1.933c-1.067,0-1.933,0.865-1.933,1.933v5.83c0,1.066-0.866,1.934-1.933,1.934
			c-1.065,0-1.933-0.867-1.933-1.934V28.891c0-1.065,0.867-1.933,1.933-1.933c1.066,0,1.933,0.867,1.933,1.933v18.683
			c0,1.068,0.865,1.934,1.933,1.934h20.616c1.067,0,1.933-0.865,1.933-1.934V28.891c0-1.065,0.867-1.933,1.933-1.933
			c1.066,0,1.933,0.867,1.933,1.933v45.097c0,1.066-0.866,1.934-1.933,1.934c-1.065,0-1.933-0.867-1.933-1.934V55.305
			c0-1.067-0.865-1.933-1.933-1.933h-20.616c-1.067,0-1.933,0.865-1.933,1.933v3.511c0,1.068,0.865,1.934,1.933,1.934
			c1.068,0,1.934-0.865,1.934-1.934v-1.578h16.75v16.75c0,3.198,2.601,5.799,5.798,5.799s5.799-2.601,5.799-5.799V28.891
			C342.374,25.693,339.772,23.093,336.575,23.093z"/>
	</g>
	<g>
		<path fill="#FFEBB3" d="M56.677,23.093c-3.197,0-5.798,2.601-5.798,5.798v16.75h-16.75v-16.75c0-3.197-2.602-5.798-5.799-5.798
			s-5.798,2.601-5.798,5.798v45.097c0,3.198,2.601,5.799,5.798,5.799s5.799-2.601,5.799-5.799v-5.83
			c0-1.067-0.865-1.933-1.934-1.933c-1.067,0-1.933,0.865-1.933,1.933v5.83c0,1.066-0.866,1.934-1.933,1.934
			c-1.065,0-1.933-0.867-1.933-1.934V28.891c0-1.065,0.867-1.933,1.933-1.933c1.066,0,1.933,0.867,1.933,1.933v18.683
			c0,1.068,0.865,1.934,1.933,1.934h20.616c1.067,0,1.933-0.865,1.933-1.934V28.891c0-1.065,0.867-1.933,1.933-1.933
			c1.066,0,1.933,0.867,1.933,1.933v45.097c0,1.066-0.866,1.934-1.933,1.934c-1.065,0-1.933-0.867-1.933-1.934V55.305
			c0-1.067-0.865-1.933-1.933-1.933H32.195c-1.067,0-1.933,0.865-1.933,1.933v3.511c0,1.068,0.865,1.934,1.933,1.934
			c1.068,0,1.934-0.865,1.934-1.934v-1.578h16.75v16.75c0,3.198,2.601,5.799,5.798,5.799s5.799-2.601,5.799-5.799V28.891
			C62.476,25.693,59.874,23.093,56.677,23.093z"/>
	</g>
	<g>
		<g>
			<path fill="#FFEBB3" d="M116.647,59.616c-0.422-0.98-1.561-1.432-2.54-1.01s-1.433,1.56-1.01,2.54l5.205,12.079
				c0.204,0.474,0.212,0.999,0.021,1.479c-0.19,0.479-0.556,0.854-1.026,1.058c-0.979,0.421-2.121-0.034-2.545-1.012l-6.713-15.584
				c-0.305-0.709-1.003-1.168-1.775-1.168H87.931c-0.771,0-1.47,0.459-1.775,1.168l-6.719,15.582
				c-0.308,0.713-1.005,1.173-1.775,1.173c-0.258,0-0.523-0.056-0.766-0.159c-0.473-0.204-0.84-0.579-1.029-1.058
				c-0.191-0.479-0.185-1.005,0.02-1.479l7.705-17.878c0.003-0.007,0.006-0.014,0.01-0.021c0.003-0.008,0.006-0.017,0.01-0.023
				L95.321,28.13c0.309-0.712,1.006-1.172,1.775-1.172c0.771,0,1.469,0.46,1.775,1.171l10.533,24.437
				c0.424,0.98,1.562,1.433,2.541,1.01c0.98-0.422,1.432-1.56,1.01-2.54l-10.534-24.438c-0.92-2.13-3.01-3.505-5.325-3.505
				c-2.313,0-4.403,1.375-5.324,3.506L80.061,53.773c-0.003,0.008-0.007,0.015-0.009,0.021c-0.004,0.007-0.008,0.016-0.011,0.023
				l-7.705,17.878c-0.613,1.423-0.635,2.999-0.062,4.438c0.573,1.438,1.673,2.567,3.098,3.18c0.731,0.312,1.502,0.472,2.289,0.472
				c2.314,0,4.404-1.376,5.324-3.507l6.217-14.416h15.791l6.211,14.419c1.27,2.933,4.691,4.291,7.621,3.03
				c1.422-0.612,2.52-1.742,3.092-3.182c0.57-1.439,0.549-3.014-0.064-4.436L116.647,59.616z"/>
			<path fill="#FFEBB3" d="M93.487,47.029c-0.979-0.421-2.117,0.03-2.54,1.011l-1.462,3.396c-0.257,0.597-0.196,1.284,0.161,1.827
				c0.356,0.543,0.964,0.87,1.614,0.87h11.674c0.65,0,1.257-0.327,1.614-0.871c0.358-0.543,0.418-1.229,0.161-1.827l-5.838-13.542
				c-0.305-0.709-1.004-1.168-1.775-1.168s-1.469,0.459-1.774,1.168l-2.151,4.993c-0.423,0.979,0.029,2.117,1.01,2.539
				c0.979,0.423,2.117-0.028,2.54-1.01l0.376-0.874l2.9,6.727h-5.799l0.301-0.699C94.921,48.589,94.468,47.451,93.487,47.029z"/>
		</g>
	</g>
	<g>
		<path fill="#FFEBB3" d="M262.813,23.988c-2.698-1.706-6.285-0.901-8.001,1.797l-9.725,15.352l-9.728-15.354
			c-1.713-2.694-5.302-3.5-7.997-1.795c-1.31,0.827-2.218,2.116-2.558,3.629c-0.338,1.511-0.069,3.063,0.759,4.373l13.725,21.663
			v20.332c0,3.197,2.602,5.798,5.799,5.798s5.798-2.601,5.798-5.798v-9.232c0-1.067-0.865-1.933-1.933-1.933
			s-1.933,0.865-1.933,1.933v9.232c0,1.065-0.867,1.933-1.933,1.933c-1.066,0-1.933-0.867-1.933-1.933V53.092
			c0-0.366-0.104-0.725-0.301-1.034l-14.023-22.136c-0.276-0.437-0.366-0.955-0.253-1.459s0.415-0.933,0.851-1.208
			c0.899-0.567,2.098-0.3,2.668,0.599l11.358,17.93c0.354,0.559,0.97,0.898,1.633,0.898c0.662,0,1.278-0.34,1.633-0.898
			l11.355-17.927c0.573-0.9,1.77-1.171,2.672-0.602c0.899,0.569,1.168,1.766,0.598,2.666L247.32,52.058
			c-0.196,0.31-0.3,0.668-0.3,1.034v2.319c0,1.067,0.865,1.933,1.933,1.933s1.933-0.865,1.933-1.933v-1.759l13.727-21.665
			c0.827-1.308,1.096-2.86,0.757-4.371C265.029,26.104,264.122,24.814,262.813,23.988z"/>
	</g>
	<g>
		<g>
			<path fill="#FFEBB3" d="M147.104,34.689c1.067,0,1.933-0.865,1.933-1.933s-0.865-1.933-1.933-1.933h-3.531
				c-1.067,0-1.933,0.865-1.933,1.933v16.196c0,1.068,0.865,1.934,1.933,1.934h8.826c5.532,0,10.031-4.5,10.031-10.031
				c0-5.415-4.232-9.815-9.637-10.017c-1.069-0.033-1.964,0.792-2.003,1.858c-0.04,1.067,0.792,1.965,1.858,2.004
				c3.317,0.124,5.916,2.827,5.916,6.154c0,3.399-2.766,6.165-6.166,6.165h-6.894V34.689H147.104z"/>
			<path fill="#FFEBB3" d="M152.399,23.093h-12.691c-3.197,0-5.798,2.602-5.798,5.799v14.282c0,1.068,0.865,1.933,1.933,1.933
				s1.933-0.864,1.933-1.933V28.892c0-1.066,0.867-1.933,1.933-1.933h12.691c7.663,0,13.897,6.233,13.897,13.896
				c0,7.662-6.234,13.896-13.897,13.896h-8.826c-1.067,0-1.933,0.865-1.933,1.933v17.304c0,1.066-0.867,1.933-1.933,1.933
				s-1.933-0.866-1.933-1.933V52.516c0-1.067-0.865-1.933-1.933-1.933s-1.933,0.865-1.933,1.933v21.473
				c0,3.197,2.601,5.799,5.798,5.799s5.798-2.602,5.798-5.799V58.617h6.894c9.794,0,17.763-7.968,17.763-17.762
				S162.193,23.093,152.399,23.093z"/>
		</g>
	</g>
	<g>
		<g>
			<path fill="#FFEBB3" d="M194.904,34.689c1.067,0,1.933-0.865,1.933-1.933s-0.865-1.933-1.933-1.933h-3.531
				c-1.067,0-1.933,0.865-1.933,1.933v16.196c0,1.068,0.865,1.934,1.933,1.934h8.826c5.532,0,10.031-4.5,10.031-10.031
				c0-5.415-4.232-9.815-9.637-10.017c-1.069-0.033-1.964,0.792-2.003,1.858c-0.04,1.067,0.792,1.965,1.858,2.004
				c3.317,0.124,5.916,2.827,5.916,6.154c0,3.399-2.766,6.165-6.166,6.165h-6.894V34.689H194.904z"/>
			<path fill="#FFEBB3" d="M200.199,23.093h-12.691c-3.197,0-5.798,2.602-5.798,5.799v14.282c0,1.068,0.865,1.933,1.933,1.933
				s1.933-0.864,1.933-1.933V28.892c0-1.066,0.867-1.933,1.933-1.933h12.691c7.663,0,13.897,6.233,13.897,13.896
				c0,7.662-6.234,13.896-13.897,13.896h-8.826c-1.067,0-1.933,0.865-1.933,1.933v17.304c0,1.066-0.867,1.933-1.933,1.933
				s-1.933-0.866-1.933-1.933V52.516c0-1.067-0.865-1.933-1.933-1.933s-1.933,0.865-1.933,1.933v21.473
				c0,3.197,2.601,5.799,5.798,5.799s5.798-2.602,5.798-5.799V58.617h6.894c9.794,0,17.763-7.968,17.763-17.762
				S209.993,23.093,200.199,23.093z"/>
		</g>
	</g>
	<g>
		<g>
			<path fill="#FFEBB3" d="M374.16,47.021h-0.367c-1.068,0-1.933,0.865-1.933,1.933c0,1.068,0.864,1.934,1.933,1.934h0.367
				c5.531,0,10.031-4.5,10.031-10.031c0-5.532-4.5-10.031-10.031-10.031h-8.826c-1.067,0-1.933,0.865-1.933,1.933v16.196
				c0,1.068,0.865,1.934,1.933,1.934h2.841c1.067,0,1.933-0.865,1.933-1.934c0-1.067-0.865-1.933-1.933-1.933h-0.908V34.689h6.894
				c3.4,0,6.166,2.766,6.166,6.166C380.326,44.255,377.561,47.021,374.16,47.021z"/>
			<path fill="#FFEBB3" d="M391.922,40.855c0-9.794-7.968-17.763-17.762-17.763h-12.691c-3.197,0-5.799,2.602-5.799,5.799v16.802
				c0,1.067,0.865,1.933,1.933,1.933c1.068,0,1.933-0.865,1.933-1.933V28.892c0-1.066,0.867-1.933,1.934-1.933h12.691
				c7.662,0,13.896,6.233,13.896,13.896c0,7.337-5.736,13.429-13.059,13.866c-0.721,0.044-1.357,0.485-1.65,1.145
				c-0.293,0.66-0.194,1.428,0.256,1.992l11.926,14.921c0.665,0.832,0.528,2.054-0.298,2.717c-0.816,0.647-2.076,0.508-2.726-0.304
				l-15.662-19.604c-0.512-0.642-1.373-0.892-2.149-0.618c-0.774,0.271-1.293,1.003-1.293,1.824v17.194
				c0,1.066-0.867,1.933-1.933,1.933c-1.066,0-1.934-0.866-1.934-1.933V55.035c0-1.068-0.864-1.933-1.933-1.933
				c-1.067,0-1.933,0.864-1.933,1.933v18.953c0,3.197,2.602,5.799,5.799,5.799s5.798-2.602,5.798-5.799V62.31l12.219,15.294
				c1.107,1.388,2.759,2.184,4.531,2.184c1.325,0,2.576-0.437,3.626-1.27c2.493-2.001,2.9-5.658,0.906-8.151l-9.86-12.337
				C386.335,56.017,391.922,49.043,391.922,40.855z"/>
		</g>
	</g>
</g>
</svg>
