<?xml version="1.0" encoding="utf-8"?>
<!-- Generator: Adobe Illustrator 16.0.0, SVG Export Plug-In . SVG Version: 6.00 Build 0)  -->
<!DOCTYPE svg PUBLIC "-//W3C//DTD SVG 1.1//EN" "http://www.w3.org/Graphics/SVG/1.1/DTD/svg11.dtd">
<svg version="1.1" id="MenuLight" xmlns="http://www.w3.org/2000/svg" xmlns:xlink="http://www.w3.org/1999/xlink" x="0px" y="0px"
	 width="136.55px" height="266.176px" viewBox="0 0 136.55 266.176" enable-background="new 0 0 136.55 266.176"
	 xml:space="preserve">
<path id="Light" fill="#F9E073" d="M122.624,231.463c-12.689,21.309-33.671,20.204-33.671,20.204l-0.909,10.88
	c0,0.086-0.133,3.115-19.297,3.629c-19.396-0.52-19.412-3.621-19.412-3.629l-1.018-10.88c0,0-20.952,1.104-33.642-20.204
	C1.799,209.859-7.79,64.009,9.612,36.669c14.507-22.8,29.456-22.278,29.456-22.278v-11.4c8-3.366,28.5-2.977,28.5-2.977
	s19.5-0.389,28.5,2.977v11.4c0,0,16-0.522,30.504,22.278C143.971,64.009,135.501,209.859,122.624,231.463z"/>
    <filter id="glow" x="-30%" y="-30%" width="160%" height="160%">
<feGaussianBlur stdDeviation="10 10" result="glow"/>
<feMerge>
<feMergeNode in="glow"/>
<feMergeNode in="glow"/>
<feMergeNode in="glow"/>
</feMerge>
</filter>
<g id="Lines">
	<g>
		<path fill="#B29760" d="M49.37,250.789C25.633,182.384,26.897,122.328,32.139,83.993c5.68-41.548,17.133-67.266,17.248-67.521
			l0.911,0.411c-0.114,0.254-11.517,25.87-17.174,67.286c-5.22,38.218-6.475,98.092,17.191,166.292L49.37,250.789z"/>
	</g>
	<g>
		<path fill="#B29760" d="M88.055,250.578l-0.945-0.326c20.811-60.228,19.562-120.487,14.849-160.434
			c-5.106-43.283-15.261-72.684-15.363-72.976l0.944-0.33c0.102,0.293,10.292,29.797,15.412,73.188
			C107.677,129.751,108.928,190.173,88.055,250.578z"/>
	</g>
	<g>
		<path fill="#B29760" d="M70.225,29.817c-25.625,0-47.602-7.65-47.938-7.771l0.167-0.471c0.518,0.183,52.113,18.138,89.345-1.256
			l0.23,0.443C98.918,27.591,84.04,29.817,70.225,29.817z"/>
	</g>
	<g>
		<path fill="#B29760" d="M67.474,46.274c-7.666,0-14.701-0.624-20.793-1.496c-21.188-3.033-35.828-9.643-35.973-9.709l0.208-0.455
			c0.145,0.066,14.73,6.65,35.852,9.672c19.484,2.785,48.673,3.025,77.088-11.665l0.23,0.444
			C104.435,43.225,84.419,46.274,67.474,46.274z"/>
	</g>
	<g>
		<path fill="#B29760" d="M68.434,65.406c-8.626,0-16.564-0.774-23.447-1.855c-23.855-3.747-40.49-11.89-40.655-11.972l0.222-0.447
			c0.165,0.081,16.743,8.194,40.527,11.928c21.94,3.445,54.673,3.757,86.026-14.304l0.25,0.434
			C109.71,61.658,87.412,65.406,68.434,65.406z"/>
	</g>
	<g>
		<path fill="#B29760" d="M66.195,82.83c-9.433,0-17.904-0.86-25.098-2.044C17.262,76.862,1.932,68.628,1.779,68.545l0.239-0.439
			c0.151,0.082,15.423,8.283,39.18,12.19c21.919,3.606,55.755,4.188,92.464-13.509l0.217,0.451
			C109.091,79.188,85.607,82.83,66.195,82.83z"/>
	</g>
	<g>
		<path fill="#B29760" d="M68.433,101.776c-9.057,0-17.376-0.872-24.588-2.095C18.554,95.395,1.061,85.994,0.887,85.899l0.239-0.439
			c0.173,0.094,17.606,9.461,42.819,13.731c23.258,3.94,58.082,4.225,91.917-16.789l0.264,0.424
			C112.647,97.409,88.696,101.776,68.433,101.776z"/>
	</g>
	<g>
		<path fill="#B29760" d="M68.354,122.018c-8.019,0-16.163-0.733-24.363-2.198c-24.797-4.429-42.028-14.142-43.911-15.234
			l0.084-0.476L0,103.678h0.331c1.875,2,19.036,10.998,43.748,15.412c14.7,2.626,29.218,3.01,43.152,0.908
			c17.34-2.615,33.84-8.868,49.042-18.703l0.271,0.45c-15.262,9.873-31.828,16.227-49.238,18.853
			C81.093,121.534,74.764,122.018,68.354,122.018z"/>
	</g>
	<g>
		<path fill="#B29760" d="M69.291,143.111c-8.646,0-17.438-0.915-26.293-2.742c-25.317-5.223-42.595-16.253-42.767-16.364
			l0.271-0.42c0.171,0.11,17.384,11.097,42.615,16.299c14.812,3.054,29.449,3.548,43.503,1.463
			c17.566-2.603,34.269-9.26,49.647-19.784l0.283,0.412c-15.444,10.571-32.223,17.256-49.868,19.869
			C80.972,142.689,75.165,143.111,69.291,143.111z"/>
	</g>
	<g>
		<path fill="#B29760" d="M67.555,161.075c-8.896,0-17.815-1.007-26.665-3.016c-24.316-5.521-39.878-16.863-40.032-16.978
			l0.297-0.402c0.154,0.113,15.647,11.402,39.867,16.896c14.219,3.226,28.621,3.851,42.806,1.863
			c17.731-2.487,35.173-9.094,51.84-19.636l0.268,0.422c-16.732,10.583-34.245,17.215-52.052,19.711
			C78.466,160.695,73.014,161.075,67.555,161.075z"/>
	</g>
	<g>
		<path fill="#B29760" d="M66.564,178.132c-9.879,0-18.655-1.198-26.032-2.832c-23.662-5.242-38.4-15.976-38.546-16.083l0.297-0.402
			c0.146,0.107,14.814,10.786,38.38,16.002c21.743,4.812,55.726,5.824,94.145-16.687l0.252,0.432
			C109.521,173.524,85.928,178.132,66.564,178.132z"/>
	</g>
	<g>
		<path fill="#B29760" d="M65.917,195.706c-9.358,0-17.675-1.001-24.688-2.376c-22.994-4.508-37.273-13.895-37.415-13.989
			l0.277-0.416c0.141,0.094,14.354,9.434,37.256,13.919c21.134,4.139,54.2,4.872,91.723-15.137l0.234,0.441
			C108.091,191.594,84.874,195.706,65.917,195.706z"/>
	</g>
	<g>
		<path fill="#B29760" d="M67.864,213.687c-9.458,0-17.906-1.03-25.009-2.425c-22.324-4.386-36.552-13.226-36.693-13.314
			l0.267-0.424c0.14,0.089,14.305,8.887,36.544,13.251c20.517,4.027,52.306,4.995,87.22-13.261l0.232,0.443
			C107.458,209.966,85.837,213.687,67.864,213.687z"/>
	</g>
	<g>
		<path fill="#B29760" d="M68.556,232.13c-8.146,0-15.579-0.752-21.981-1.799C24.65,226.744,9.777,219.023,9.63,218.946l0.232-0.443
			c0.147,0.077,14.962,7.767,36.812,11.337c20.154,3.295,50.592,3.657,81.134-13.319l0.242,0.438
			C107.081,228.614,86.159,232.13,68.556,232.13z"/>
	</g>
	<g>
		<path fill="#B29760" d="M67.859,252.596c-8.451,0-15.776-1.096-21.727-2.52c-16.518-3.951-26.295-11.215-26.392-11.287l0.301-0.4
			c0.096,0.073,9.807,7.283,26.231,11.207c15.156,3.62,39.292,5.104,68.212-8.39l0.211,0.453
			C96.984,249.925,81.051,252.596,67.859,252.596z"/>
	</g>
	<g>
		<path fill="#B29760" d="M66.868,17.751c-16.806,0-27.708-3.074-27.87-3.121l0.139-0.48c0.243,0.07,24.655,6.946,56.878-0.004
			l0.105,0.488C85.288,16.972,75.328,17.751,66.868,17.751z"/>
	</g>
</g>
<path id="RoundMark" fill-rule="evenodd" clip-rule="evenodd" fill="#B20000" d="M120.494,134.338
	c-0.2,1.596-0.643,3.157-1.036,4.718c-1.958,7.74-5.523,14.563-11.519,19.981c-2.242,2.027-4.674,3.802-7.368,5.167
	c-5.375,2.72-10.923,5.008-16.862,6.186c-9.855,1.956-19.633,1.802-29.345-1.017c-4.469-1.299-8.704-3.09-12.799-5.258
	c-3.265-1.727-5.942-4.208-8.526-6.784c-6.61-6.586-11.712-14.136-14.53-23.116c-1.361-4.339-2-8.784-2.016-13.325
	c0.009-0.55,0.018-1.103,0.027-1.655c0.664-10.126,4.423-19.198,9.513-27.799c3.739-6.324,8.309-11.978,13.89-16.791
	c0.258-0.223,0.511-0.479,0.681-0.769c0.513-0.887,1.268-1.296,2.274-1.357c0.712-0.044,1.251-0.383,1.792-0.905
	c0.819-0.795,1.775-1.47,2.74-2.095c2.131-1.386,4.343-2.646,6.44-4.077c1.712-1.172,3.412-2.155,5.596-1.94
	c0.554,0.054,1.218-0.034,1.685-0.308c0.829-0.486,1.292-0.238,1.89,0.39c2.875,3.023,5.869,5.913,9.287,8.35
	c1.934,1.376,3.288,3.291,3.984,5.561c1.185,3.874,1.515,7.832,0.732,11.835c-0.164,0.837-0.461,1.688-0.877,2.433
	c-0.383,0.688-0.924,1.35-1.541,1.834c-2.347,1.842-6.906,2.008-9.352,0.312c-0.79-0.548-1.471-0.668-2.215-0.158
	c-2.565,1.758-5.474,2.797-8.395,3.645c-5.122,1.481-8.719,4.831-11.936,8.817c-7.884,9.769-7.512,21.404-4.766,27.935
	c2.611,6.212,6.794,10.052,12.75,12.511c7.486,3.093,15.318,4.328,23.349,4.28c4.588-0.028,8.999-1.371,13.356-2.71
	c2.818-0.867,5.499-2.08,8.051-3.579c4.36-2.564,6.368-5.07,8.459-12.153c2.923-9.887-2.043-18.588-3.925-22.634
	c-0.924-1.982-2.011-3.898-3.178-5.744c-2.147-3.394-4.946-6.09-8.702-7.707c-1.382-0.594-1.705-1.234-1.065-2.61
	c0.677-1.451,0.278-2.383-0.843-3.293c-0.485-0.393-0.908-0.896-1.259-1.42c-0.558-0.83-0.46-1.058,0.461-1.595
	c0.249-0.146,0.495-0.289,0.947-0.553c-0.5-0.436-0.923-0.783-1.324-1.154c-0.636-0.589-1.321-1.139-1.859-1.809
	c-0.565-0.697-0.407-1.055,0.402-1.422c0.314-0.142,0.715-0.208,0.925-0.445c0.849-0.965,1.692-0.502,2.466,0.014
	c0.709,0.471,1.324,1.084,2.044,1.687c0.457-0.654,0.074-1.08-0.242-1.414c-0.715-0.756-1.506-1.437-2.246-2.17
	c-0.922-0.91-0.909-0.969,0.125-1.838c0.744,0.396,1.407,0.995,2.128,1.08c2.077,0.24,3.543,1.436,4.773,2.9
	c1.278,1.524,2.895,2.466,4.631,3.268c0.567,0.264,1.196,0.482,1.813,0.535c1.068,0.098,1.826,0.573,2.461,1.415
	c0.447,0.589,0.986,1.145,1.579,1.584c9.038,6.68,13.972,15.833,16.144,26.662c0.146,0.736,0.334,1.47,0.4,2.219
	C120.912,122.105,120.999,130.296,120.494,134.338z"/>
<g id="Menu">
	<g>
		<path d="M49.91,123.5c0.029,0.003,0.043,0.002,0.072,0.005c1.827-5.008,2.749-7.448,4.593-12.689
			c1.835,0.09,2.753,0.133,4.587,0.207c-0.061,7.251-0.093,10.56-0.154,17.802c-1.405-0.071-2.109-0.111-3.511-0.207
			c0.041-4.935,0.062-7.267,0.103-12.088c-0.029-0.007-0.044-0.01-0.073-0.017c-1.772,4.733-2.659,7-4.417,11.757
			c-0.948-0.086-1.419-0.131-2.365-0.229c-1.69-5.078-2.539-7.456-4.251-12.304c-0.029,0.002-0.044,0.005-0.073,0.007
			c-0.016,4.7,0.052,6.956,0.037,11.793c-1.389-0.178-2.389-0.276-3.389-0.482c0-6.976,0-10.042,0-17.03
			c2,0.119,2.696,0.179,4.543,0.291C47.375,115.661,48.171,118.184,49.91,123.5z"/>
		<path d="M67.621,129.35c-1.946-0.021-3.459-0.681-4.542-1.937c-1.083-1.257-1.616-2.842-1.6-4.739
			c0.001-0.194,0.003-0.291,0.005-0.485c0.017-1.97,0.561-3.556,1.63-4.78c1.069-1.226,2.534-1.81,4.382-1.772
			c1.743,0.035,3.083,0.584,4.011,1.669c0.927,1.084,1.385,2.534,1.374,4.358c-0.004,0.731-0.007,1.097-0.012,1.829
			c-3.108,0.018-4.663,0.003-7.771-0.072c-0.015,0.029-0.022,0.045-0.037,0.074c0.05,0.902,0.315,1.641,0.797,2.214
			c0.481,0.573,1.199,0.871,2.156,0.882c0.788,0.009,1.458-0.068,2.009-0.23s1.123-0.41,1.712-0.745
			c0.375,0.877,0.562,1.318,0.938,2.198c-0.526,0.438-1.235,0.809-2.13,1.106C69.65,129.217,68.675,129.361,67.621,129.35z
			 M67.476,118.377c-0.706-0.012-1.252,0.22-1.637,0.701c-0.385,0.482-0.622,1.126-0.708,1.934c0.009,0.024,0.014,0.037,0.023,0.062
			c1.715,0.042,2.571,0.057,4.286,0.071c0.001-0.107,0.001-0.16,0.002-0.268c0.005-0.769-0.147-1.372-0.456-1.816
			C68.677,118.615,68.173,118.389,67.476,118.377z"/>
		<path d="M78.164,115.88c0.06,0.749,0.089,1.122,0.148,1.869c0.435-0.677,0.97-1.209,1.604-1.596s1.34-0.591,2.124-0.617
			c1.311-0.044,2.332,0.338,3.064,1.147c0.733,0.81,1.101,2.119,1.098,3.938c-0.005,3.174-0.008,4.759-0.013,7.973
			c-1.409,0.087-2.114,0.126-3.525,0.195c0.008-3.224,0.013-4.807,0.021-7.985c0.002-0.93-0.158-1.58-0.481-1.957
			c-0.323-0.376-0.807-0.554-1.456-0.533c-0.52,0.016-0.979,0.128-1.375,0.334c-0.397,0.207-0.726,0.485-0.983,0.837
			c-0.016,3.775-0.023,5.646-0.039,9.482c-1.408,0.046-2.111,0.063-3.521,0.09c0.028-5.326,0.041-7.88,0.069-13.135
			C76.206,115.913,76.858,115.904,78.164,115.88z"/>
		<path d="M96.735,125.841c-0.397,0.732-0.903,1.316-1.517,1.749c-0.612,0.432-1.324,0.683-2.138,0.752
			c-1.362,0.116-2.431-0.268-3.201-1.142c-0.771-0.874-1.155-2.291-1.153-4.237c0.003-3.001,0.004-4.494,0.007-7.499
			c1.392-0.084,2.088-0.13,3.478-0.235c-0.001,3.008-0.001,4.502-0.002,7.506c0,1.131,0.155,1.895,0.462,2.288
			c0.308,0.394,0.783,0.562,1.429,0.507c0.557-0.048,1.034-0.18,1.432-0.396c0.396-0.216,0.724-0.51,0.978-0.884
			c-0.001-3.762,0.04-5.63,0.038-9.389c1.393-0.133,2.521-0.205,3.521-0.36c0,5.171,0,7.736,0,12.929
			c-1,0.122-1.77,0.18-2.922,0.292C96.998,126.968,96.882,126.593,96.735,125.841z"/>
	</g>
</g>
</svg>
