<?xml version="1.0" encoding="UTF-8"?>
<svg width="1200pt" height="1200pt" version="1.1" viewBox="0 0 1200 1200" xmlns="http://www.w3.org/2000/svg">
 <path d="m885.35 1014.6-100-100-70.703 70.703 100 100zm-400-29.297-70.703-70.703-100 100 70.703 70.703zm64.648 164.65h100v-150h-100zm-64.648-935.35-100-100-70.703 70.703 100 100zm400-29.297-70.703-70.703-100 100 70.703 70.703zm-335.35 14.648h100v-150h-100zm-50 500h-250c-55.148 0-100-44.852-100-100s44.852-100 100-100h250v-100h-250c-110.3 0-200 89.699-200 200s89.699 200 200 200h250zm650-100c0-110.3-89.699-200-200-200h-250v100h250c55.148 0 100 44.852 100 100s-44.852 100-100 100h-250v100h250c110.3 0 200-89.699 200-200zm-800 50h500v-100h-500z" fill="#00adff" fill-rule="evenodd"/>
</svg>
