<?xml version="1.0" encoding="UTF-8"?>
<svg width="512pt" height="512pt" version="1.1" viewBox="0 0 512 512" xmlns="http://www.w3.org/2000/svg">
 <path d="m71.996 196.68-45.66 45.66c-1.5 1.5-2.3398 3.5391-2.3398 5.6602v144c0 10.602 4.2188 20.781 11.719 28.281s17.68 11.719 28.281 11.719h8v40c0 10.602 4.2188 20.781 11.719 28.281s17.68 11.719 28.281 11.719h288c10.602 0 20.781-4.2188 28.281-11.719 6.6797-6.6797 10.762-15.48 11.559-24.82l45.801-45.801c1.5195-1.5 2.3594-3.5391 2.3594-5.6602v-144c0-22.078-17.922-40-40-40h-8v-144c0-2.1211-0.83984-4.1602-2.3398-5.6602l-88.004-88.004c-1.5-1.5-3.5391-2.3398-5.6602-2.3398h-232c-10.602 0-20.781 4.2188-28.281 11.719s-11.719 17.68-11.719 28.281zm16 235.32v40c0 6.3594 2.5195 12.48 7.0391 16.961 4.4805 4.5195 10.602 7.0391 16.961 7.0391h288c6.3594 0 12.48-2.5195 16.961-7.0391 4.5195-4.4805 7.0391-10.602 7.0391-16.961v-40zm352 20.68 20.68-20.68h-20.68zm-400-196.68v136c0 6.3594 2.5195 12.48 7.0391 16.961 4.4805 4.5195 10.602 7.0391 16.961 7.0391h408v-136c0-13.262-10.738-24-24-24zm160 48c0-17.68-14.32-32-32-32h-16c-17.68 0-32 14.32-32 32v64c0 17.68 14.32 32 32 32h16c17.68 0 32-14.32 32-32 0-4.4219-3.5781-8-8-8s-8 3.5781-8 8c0 8.8398-7.1602 16-16 16h-16c-8.8398 0-16-7.1602-16-16v-64c0-8.8398 7.1602-16 16-16h16c8.8398 0 16 7.1602 16 16 0 4.4219 3.5781 8 8 8s8-3.5781 8-8zm192 0c0-17.68-14.32-32-32-32h-16c-17.68 0-32 14.32-32 32v8c0 17.68 14.32 32 32 32h16c8.8398 0 16 7.1602 16 16v8c0 8.8398-7.1602 16-16 16h-16.02c-4.2383 0-8.3008-1.6797-11.301-4.6797s-4.6797-7.0586-4.6797-11.301c0-4.4219-3.5781-8-8-8s-8 3.5781-8 8c0 8.4805 3.3594 16.621 9.3594 22.621s14.141 9.3594 22.621 9.3594h16.02c17.68 0 32-14.32 32-32v-8c0-17.68-14.32-32-32-32h-16c-8.8398 0-16-7.1602-16-16v-8c0-8.8398 7.1602-16 16-16h16c8.8398 0 16 7.1602 16 16 0 4.4219 3.5781 8 8 8s8-3.5781 8-8zm-96 0c0-17.68-14.32-32-32-32h-16c-17.68 0-32 14.32-32 32v8c0 17.68 14.32 32 32 32h16c8.8398 0 16 7.1602 16 16v8c0 8.8398-7.1602 16-16 16h-16.02c-4.2383 0-8.3008-1.6797-11.301-4.6797s-4.6797-7.0586-4.6797-11.301c0-4.4219-3.5781-8-8-8s-8 3.5781-8 8c0 8.4805 3.3594 16.621 9.3594 22.621s14.141 9.3594 22.621 9.3594h16.02c17.68 0 32-14.32 32-32v-8c0-17.68-14.32-32-32-32h-16c-8.8398 0-16-7.1602-16-16v-8c0-8.8398 7.1602-16 16-16h16c8.8398 0 16 7.1602 16 16 0 4.4219 3.5781 8 8 8s8-3.5781 8-8zm40-288h-224c-6.3594 0-12.48 2.5195-16.961 7.0391-4.5195 4.4805-7.0391 10.602-7.0391 16.961v200h336v-136h-48c-10.602 0-20.781-4.2188-28.281-11.719s-11.719-17.68-11.719-28.281zm-284.68 224h20.68v-20.68zm180.68-152c-7.0781 0-12 3.2188-15.52 8.7188-2.4414 3.8008-4.1211 9.0195-5.4219 14.922-1.5391 6.9805-2.6016 15.078-5.0391 22.02-1.6797 4.8008-3.8789 9.1602-8.6406 10.801-3.2188 1.1016-5.3789 4.1406-5.3984 7.5586 0 3.3984 2.1602 6.4414 5.3789 7.5586 4.6992 1.6406 6.8789 5.9805 8.582 10.801 2.4414 6.9414 3.5 15.039 5.0586 22.039 1.3203 5.8984 3 11.121 5.4609 14.922 3.5586 5.4414 8.4609 8.6602 15.539 8.6602 4.4219 0 8-3.5781 8-8s-3.5781-8-8-8c-1.6406 0-2.2188-1.4219-2.8984-2.9219-1.8789-4.1211-2.8203-9.7383-3.9609-15.539-1.3789-7.1016-2.9609-14.441-5.7188-20.602-1.5-3.3203-3.3203-6.3203-5.5586-8.8984 2.2812-2.5781 4.1211-5.6016 5.6406-8.9609 2.7812-6.1602 4.3594-13.52 5.7188-20.641 1.1211-5.8008 2.0391-11.422 3.9219-15.559 0.66016-1.4609 1.2383-2.8789 2.8594-2.8789 4.4219 0 8-3.5781 8-8s-3.5781-8-8-8zm48 16c1.6211 0 2.1992 1.4219 2.8789 2.8984 1.8789 4.1406 2.8008 9.7383 3.9219 15.559 1.3594 7.1016 2.9414 14.48 5.7188 20.641 1.5195 3.3594 3.3594 6.3789 5.6406 8.9609-2.2383 2.5586-4.0781 5.5586-5.5586 8.8984-2.7617 6.1602-4.3398 13.52-5.7188 20.602-1.1406 5.8008-2.0781 11.422-3.9609 15.539-0.69922 1.4805-1.2812 2.8984-2.9219 2.8984-4.4219 0-8 3.5781-8 8 0 4.4219 3.5781 8 8 8 7.0781 0 11.98-3.2188 15.52-8.6992 2.4609-3.8008 4.1602-9.0195 5.4609-14.922 1.5586-6.9805 2.6406-15.102 5.0586-22.039 1.6797-4.8008 3.8789-9.1602 8.582-10.801 3.2188-1.1211 5.3789-4.1602 5.3789-7.5586 0-3.4219-2.1602-6.4414-5.3984-7.5586-4.7617-1.6406-6.9609-5.9805-8.6406-10.801-2.4414-6.9414-3.5-15.039-5.0391-22.02-1.3008-5.8984-2.9805-11.121-5.4219-14.922-3.5-5.4609-8.418-8.6797-15.5-8.6797-4.4219 0-8 3.5781-8 8 0 4.4219 3.5781 8 8 8zm71.996-76.684v36.68c0 6.3594 2.5195 12.48 7.0391 16.961 4.4805 4.5195 10.602 7.0391 16.961 7.0391h36.68z" fill="#ee7a45" fill-rule="evenodd"/>
</svg>
