<?xml version="1.0" encoding="UTF-8"?>
<svg width="512pt" height="512pt" version="1.1" viewBox="0 0 512 512" xmlns="http://www.w3.org/2000/svg">
 <path d="m71.996 56.004v96c0 9.6992 7.2188 19.781 21.879 28-6.0195 3.3789-10.82 6.9609-14.262 10.621-5.1602 5.5195-7.6211 11.422-7.6211 17.379v96c0 9.6992 7.2188 19.781 21.879 28-6.0195 3.3789-10.82 6.9609-14.262 10.621-5.1602 5.5195-7.6211 11.422-7.6211 17.379v96c0 10.141 7.8984 20.699 23.941 29.121 30 15.801 90.418 26.879 160.06 26.879 69.641 0 130.06-11.082 160.06-26.879 16.039-8.418 23.941-18.98 23.941-29.121v-96c0-5.9609-2.4609-11.859-7.6211-17.359-3.4414-3.6797-8.2188-7.2617-14.262-10.641 14.66-8.2188 21.879-18.301 21.879-28v-96c0-5.9609-2.4609-11.859-7.6211-17.359-3.4414-3.6797-8.2188-7.2617-14.262-10.641 14.66-8.2188 21.879-18.301 21.879-28v-96c0-10.141-7.8984-20.699-23.941-29.121-30-15.801-90.418-26.879-160.06-26.879-69.641 0-130.06 11.082-160.06 26.879-16.039 8.418-23.941 18.98-23.941 29.121zm16 328.34v71.66c0 2.1602 1.2188 4.1406 3.0391 6.1602 2.8203 3.1211 7.0391 6.0195 12.34 8.8008 28.602 15.039 86.262 25.039 152.62 25.039s124.02-10 152.62-25.039c5.3008-2.7812 9.5-5.6797 12.34-8.8008 1.8203-2.0195 3.0391-4 3.0391-6.1602v-23.66c-2.3789 1.6602-5.0195 3.2617-7.9414 4.7812-30 15.801-90.418 26.879-160.06 26.879-4.4219 0-8-3.5781-8-8s3.5781-8 8-8c66.359 0 124.02-10 152.62-25.039 5.3008-2.7812 9.5-5.6797 12.34-8.8008 1.8203-2.0195 3.0391-4 3.0391-6.1602v-23.66c-2.3789 1.6602-5.0195 3.2617-7.9414 4.7812-30 15.801-90.418 26.879-160.06 26.879-69.641 0-130.06-11.082-160.06-26.879-2.9219-1.5195-5.5586-3.1211-7.9414-4.7812zm78.762 73.117c2.9414 0.46094 5.918 0.89844 8.9609 1.3203 4.3789 0.60156 8.418-2.4609 9.0195-6.8398 0.60156-4.3789-2.4609-8.418-6.8398-9.0195-2.9414-0.39844-5.8203-0.83984-8.6406-1.2812-4.3594-0.67969-8.4609 2.3008-9.1602 6.6602-0.67969 4.3594 2.3008 8.4609 6.6602 9.1602zm-45.121-10.102c2.9219 0.89844 5.9414 1.7812 9.1016 2.6211 4.2617 1.1406 8.6406-1.3984 9.8008-5.6602 1.1406-4.2812-1.3984-8.6602-5.6602-9.8008-2.9414-0.78125-5.7812-1.6016-8.5-2.4414-4.2188-1.3008-8.6992 1.0586-10 5.2812-1.3008 4.2188 1.0586 8.6992 5.2812 10zm-8.4414-106.82c-8.3008 3.3398-14.961 6.9414-19.602 10.859-3.3203 2.8008-5.6016 5.4805-5.6016 8.6016 0 2.1602 1.2188 4.1406 3.0391 6.1602 2.8203 3.1211 7.0391 6.0195 12.34 8.8008 28.602 15.039 86.262 25.039 152.62 25.039 66.359 0 124.02-10 152.62-25.039 5.3008-2.7812 9.5-5.6797 12.34-8.8008 1.8203-2.0195 3.0391-4 3.0391-6.1602 0-3.1211-2.2812-5.8008-5.6016-8.6016-4.6406-3.9219-11.301-7.5195-19.602-10.859-32.941 11.738-84.66 19.461-142.8 19.461-58.145 0-109.86-7.7188-142.8-19.461zm-25.199-108.2v71.66c0 2.1602 1.2188 4.1406 3.0391 6.1602 2.8203 3.1211 7.0391 6.0195 12.34 8.8008 28.602 15.039 86.262 25.039 152.62 25.039s124.02-10 152.62-25.039c5.3008-2.7812 9.5-5.6797 12.34-8.8008 1.8203-2.0195 3.0391-4 3.0391-6.1602v-23.66c-2.3789 1.6602-5.0195 3.2617-7.9414 4.7812-30 15.801-90.418 26.879-160.06 26.879-4.4219 0-8-3.5781-8-8s3.5781-8 8-8c66.359 0 124.02-10 152.62-25.039 5.3008-2.7812 9.5-5.6797 12.34-8.8008 1.8203-2.0195 3.0391-4 3.0391-6.1602v-23.66c-2.3789 1.6602-5.0195 3.2617-7.9414 4.7812-30 15.801-90.418 26.879-160.06 26.879-69.641 0-130.06-11.082-160.06-26.879-2.9219-1.5195-5.5586-3.1211-7.9414-4.7812zm78.762 73.117c2.9414 0.46094 5.918 0.89844 8.9609 1.3203 4.3789 0.60156 8.418-2.4609 9.0195-6.8398 0.60156-4.3789-2.4609-8.418-6.8398-9.0195-2.9414-0.39844-5.8203-0.83984-8.6406-1.2812-4.3594-0.67969-8.4609 2.3008-9.1602 6.6602-0.67969 4.3594 2.3008 8.4609 6.6602 9.1602zm-45.121-10.102c2.9219 0.89844 5.9414 1.7812 9.1016 2.6211 4.2617 1.1406 8.6406-1.3984 9.8008-5.6602 1.1406-4.2812-1.3984-8.6602-5.6602-9.8008-2.9414-0.78125-5.7812-1.6016-8.5-2.4414-4.2188-1.3008-8.6992 1.0586-10 5.2812-1.3008 4.2188 1.0586 8.6992 5.2812 10zm-8.4414-106.82c-8.3008 3.3398-14.961 6.9414-19.602 10.859-3.3203 2.8008-5.6016 5.4805-5.6016 8.6016 0 2.1602 1.2188 4.1406 3.0391 6.1602 2.8203 3.1211 7.0391 6.0195 12.34 8.8008 28.602 15.039 86.262 25.039 152.62 25.039 66.359 0 124.02-10 152.62-25.039 5.3008-2.7812 9.5-5.6797 12.34-8.8008 1.8203-2.0195 3.0391-4 3.0391-6.1602 0-3.1211-2.2812-5.8008-5.6016-8.6016-4.6406-3.9219-11.301-7.5195-19.602-10.859-32.941 11.738-84.66 19.461-142.8 19.461-58.145 0-109.86-7.7188-142.8-19.461zm-25.199-108.2v71.66c0 2.1602 1.2188 4.1406 3.0391 6.1602 2.8203 3.1211 7.0391 6.0195 12.34 8.8008 28.602 15.039 86.262 25.039 152.62 25.039s124.02-10 152.62-25.039c5.3008-2.7812 9.5-5.6797 12.34-8.8008 1.8203-2.0195 3.0391-4 3.0391-6.1602v-23.66c-2.3789 1.6602-5.0195 3.2617-7.9414 4.7812-30 15.801-90.418 26.879-160.06 26.879-4.4219 0-8-3.5781-8-8s3.5781-8 8-8c66.359 0 124.02-10 152.62-25.039 5.3008-2.7812 9.5-5.6797 12.34-8.8008 1.8203-2.0195 3.0391-4 3.0391-6.1602v-23.66c-2.3789 1.6602-5.0195 3.2617-7.9414 4.7812-30 15.801-90.418 26.879-160.06 26.879-69.641 0-130.06-11.082-160.06-26.879-2.9219-1.5195-5.5586-3.1211-7.9414-4.7812zm78.762 73.117c2.9414 0.46094 5.918 0.89844 8.9609 1.3203 4.3789 0.60156 8.418-2.4609 9.0195-6.8398 0.60156-4.3789-2.4609-8.418-6.8398-9.0195-2.9414-0.39844-5.8203-0.83984-8.6406-1.2812-4.3594-0.67969-8.4609 2.3008-9.1602 6.6602-0.67969 4.3594 2.3008 8.4609 6.6602 9.1602zm-45.121-10.102c2.9219 0.89844 5.9414 1.7812 9.1016 2.6211 4.2617 1.1406 8.6406-1.3984 9.8008-5.6602 1.1406-4.2812-1.3984-8.6602-5.6602-9.8008-2.9414-0.78125-5.7812-1.6016-8.5-2.4414-4.2188-1.3008-8.6992 1.0586-10 5.2812-1.3008 4.2188 1.0586 8.6992 5.2812 10zm134.36-127.36c66.359 0 124.02 10 152.62 25.039 5.3008 2.7812 9.5 5.6797 12.34 8.8008 1.8203 2.0195 3.0391 4 3.0391 6.1602 0 2.1602-1.2188 4.1406-3.0391 6.1602-2.8398 3.1211-7.0391 6.0195-12.34 8.8008-28.602 15.039-86.262 25.039-152.62 25.039s-124.02-10-152.62-25.039c-5.3008-2.7812-9.5-5.6797-12.34-8.8008-1.8203-2.0195-3.0391-4-3.0391-6.1602 0-2.1602 1.2188-4.1406 3.0391-6.1602 2.8398-3.1211 7.0391-6.0195 12.34-8.8008 28.602-15.039 86.262-25.039 152.62-25.039z" fill="#ee7a45" fill-rule="evenodd"/>
</svg>
