<?xml version="1.0" encoding="UTF-8"?>
<svg width="512pt" height="512pt" version="1.1" viewBox="0 0 512 512" xmlns="http://www.w3.org/2000/svg">
 <path d="m344.16 435.1c0.67969 7.1406 3.7617 14.078 9.2188 19.52 12.48 12.48 32.762 12.48 45.238 0l5.3789-5.3594 53.383 53.359c12.48 12.48 32.762 12.48 45.238 0 12.48-12.48 12.48-32.762 0-45.238l-53.359-53.383 5.3594-5.3789c12.48-12.48 12.48-32.762 0-45.238-5.4609-5.4609-12.379-8.5391-19.52-9.2188 18.422-33.262 28.898-71.5 28.898-112.16 0-128.04-103.96-232-232-232s-232 103.96-232 232 103.96 232 232 232c40.66 0 78.898-10.48 112.16-28.898zm93.777-19.781-22.641 22.641 53.383 53.359c6.2422 6.2422 16.379 6.2422 22.621 0 6.2422-6.2422 6.2422-16.379 0-22.621zm-205.94-399.32c119.22 0 216 96.777 216 216 0 119.22-96.777 216-216 216-119.22 0-216-96.777-216-216 0-119.22 96.777-216 216-216zm155.32 427.32 56.004-56.004c6.2422-6.2422 6.2422-16.379 0-22.621-5.1992-5.2188-13.141-6.0781-19.238-2.6016-16.559 24.359-37.602 45.441-61.977 61.977-3.4805 6.1016-2.6211 14.039 2.6016 19.238 6.2422 6.2422 16.379 6.2422 22.621 0zm-155.32-411.32c-110.38 0-200 89.621-200 200 0 110.38 89.621 200 200 200 110.38 0 200-89.621 200-200 0-110.38-89.621-200-200-200zm0 16c101.56 0 184 82.441 184 184 0 101.56-82.441 184-184 184-101.56 0-184-82.441-184-184 0-101.56 82.441-184 184-184zm-39.199 88.02c-6.1992 6.0781-10.98 13.559-13.84 21.961-6.0586 3.7383-11.039 9.0586-14.379 15.398l-21.281-10.641-7.3984-51.84c-0.62109-4.3789-4.6797-7.418-9.0391-6.8008-4.3789 0.62109-7.418 4.6797-6.8008 9.0391l8 56.004c0.35938 2.6016 2 4.8594 4.3398 6.0195l27.68 13.84c-0.039063 1-0.078125 2-0.078125 3v25.441l-33.559 6.7188c-1.1797 0.23828-2.2812 0.71875-3.2383 1.4414l-32 24c-3.5391 2.6406-4.2383 7.6602-1.6016 11.199 2.6406 3.5391 7.6602 4.2383 11.199 1.6016l30.559-22.922 28.641-5.7188v37.66c0 1.1992 0.039062 2.3984 0.078125 3.6016l-27.66 13.84c-1.8984 0.94141-3.3398 2.6016-4.0195 4.6211l-16 48c-1.3984 4.1797 0.87891 8.7188 5.0586 10.121 4.1797 1.3984 8.7188-0.87891 10.121-5.0586l14.961-44.859 20.379-10.199c6.9609 23.32 25.738 41.922 50.281 48.059 9.6211 2.3984 16.859 4.2188 16.859 4.2188 1.2812 0.32031 2.6016 0.32031 3.8789 0 0 0 7.2383-1.8008 16.859-4.2188 24.539-6.1406 43.32-24.762 50.281-48.059l20.379 10.199 14.961 44.859c1.3984 4.1992 5.9414 6.4609 10.121 5.0586 4.1992-1.3984 6.4609-5.9414 5.0586-10.121l-16-48c-0.67969-2.0195-2.1211-3.6797-4.0195-4.6211l-27.66-13.84c0.039062-1.1992 0.078125-2.3984 0.078125-3.6016v-37.66l28.641 5.7188 30.559 22.922c3.5391 2.6406 8.5586 1.9414 11.199-1.6016 2.6406-3.5391 1.9414-8.5586-1.6016-11.199l-32-24c-0.96094-0.71875-2.0586-1.1992-3.2383-1.4414l-33.559-6.7188v-25.441c0-1-0.039063-2-0.12109-3l27.68-13.84c2.3594-1.1602 3.9805-3.4219 4.3398-6.0195l8-56.004c0.62109-4.3594-2.4219-8.418-6.8008-9.0391-4.3594-0.62109-8.418 2.4219-9.0391 6.8008l-7.3984 51.84-21.281 10.641c-3.3203-6.3398-8.3008-11.66-14.359-15.418-2.8594-8.3789-7.6406-15.879-13.82-21.941 0.51953-2.6016 0.80078-5.2812 0.80078-8.0195 0-22.078-17.922-40-40-40s-40 17.922-40 40c0 2.7383 0.28125 5.4219 0.80078 8.0195zm47.199 189.74 6.9219-1.7383c24.141-6.0391 41.078-27.719 41.078-52.598v-79.422c0-13.262-10.738-24-24-24h-64c-13.262 0-24 10.738-24 24v79.422c0 24.879 16.941 46.559 41.078 52.598l6.9219 1.7383v-101.76c0-4.4219 3.5781-8 8-8s8 3.5781 8 8zm24-173.76c-7.3008-9.7188-18.922-16-32-16s-24.699 6.2812-32 16zm-8.1406-26.68c-1.3398-11.98-11.52-21.32-23.859-21.32s-22.52 9.3398-23.859 21.32c7.2383-3.3984 15.34-5.3203 23.859-5.3203 8.5195 0 16.621 1.9219 23.859 5.3203z" fill="#ee7a45" fill-rule="evenodd"/>
</svg>
