<?xml version="1.0" encoding="UTF-8"?>
<svg width="512pt" height="512pt" version="1.1" viewBox="0 0 512 512" xmlns="http://www.w3.org/2000/svg">
 <path d="m71.996 196.68-45.66 45.66c-1.5 1.5-2.3398 3.5391-2.3398 5.6602v144c0 10.602 4.2188 20.781 11.719 28.281s17.68 11.719 28.281 11.719h8v40c0 10.602 4.2188 20.781 11.719 28.281s17.68 11.719 28.281 11.719h288c10.602 0 20.781-4.2188 28.281-11.719 6.6797-6.6797 10.762-15.48 11.559-24.82l45.801-45.801c1.5195-1.5 2.3594-3.5391 2.3594-5.6602v-144c0-22.078-17.922-40-40-40h-8v-144c0-2.1211-0.83984-4.1602-2.3398-5.6602l-88.004-88.004c-1.5-1.5-3.5391-2.3398-5.6602-2.3398h-232c-10.602 0-20.781 4.2188-28.281 11.719s-11.719 17.68-11.719 28.281zm16 235.32v40c0 6.3594 2.5195 12.48 7.0391 16.961 4.4805 4.5195 10.602 7.0391 16.961 7.0391h288c6.3594 0 12.48-2.5195 16.961-7.0391 4.5195-4.4805 7.0391-10.602 7.0391-16.961v-40zm352 20.68 20.68-20.68h-20.68zm-400-196.68v136c0 6.3594 2.5195 12.48 7.0391 16.961 4.4805 4.5195 10.602 7.0391 16.961 7.0391h408v-136c0-13.262-10.738-24-24-24zm304 32v96c0 4.4219 3.5781 8 8 8h48c4.4219 0 8-3.5781 8-8s-3.5781-8-8-8h-40v-88.004c0-4.4219-3.5781-8-8-8s-8 3.5781-8 8zm-64 96v-51.883l8.5195 22.68c1.1602 3.1211 4.1406 5.1992 7.4805 5.1992s6.3203-2.0781 7.4805-5.1992l8.5195-22.68v51.883c0 4.4219 3.5781 8 8 8s8-3.5781 8-8v-96c0-3.8594-2.7617-7.1797-6.582-7.8789-3.8008-0.67969-7.5586 1.4414-8.9219 5.0586l-16.5 44.039-16.52-44.02c-1.3398-3.6406-5.1016-5.7617-8.8984-5.0781-3.8203 0.69922-6.582 4.0195-6.582 7.8789v96c0 4.4219 3.5781 8 8 8 4.4219 0 8-3.5781 8-8zm-71.996-88.004v88.004c0 4.4219 3.5781 8 8 8s8-3.5781 8-8v-88.004h16c4.4219 0 8-3.5781 8-8s-3.5781-8-8-8h-48c-4.4219 0-8 3.5781-8 8s3.5781 8 8 8zm-56.004 32h-32v-40c0-4.4219-3.5781-8-8-8s-8 3.5781-8 8v96c0 4.4219 3.5781 8 8 8s8-3.5781 8-8v-40h32v40c0 4.4219 3.5781 8 8 8s8-3.5781 8-8v-96c0-4.4219-3.5781-8-8-8s-8 3.5781-8 8zm184-312h-224c-6.3594 0-12.48 2.5195-16.961 7.0391-4.5195 4.4805-7.0391 10.602-7.0391 16.961v200h336v-136h-48c-10.602 0-20.781-4.2188-28.281-11.719s-11.719-17.68-11.719-28.281zm-284.68 224h20.68v-20.68zm213-146.2-32 112c-1.1992 4.2383 1.2617 8.6797 5.5 9.8984 4.2383 1.1992 8.6797-1.2617 9.8984-5.5l32-112c1.1992-4.2383-1.2617-8.6797-5.5-9.8984-4.2383-1.1992-8.6797 1.2617-9.8984 5.5zm-50.66 92.539-34.34-34.34 34.34-34.34c3.1211-3.1211 3.1211-8.1992 0-11.32s-8.1992-3.1211-11.32 0l-40 40c-3.1211 3.1211-3.1211 8.1992 0 11.32l40 40c3.1211 3.1211 8.1992 3.1211 11.32 0 3.1211-3.1211 3.1211-8.1992 0-11.32zm96 11.32 40-40c3.1211-3.1211 3.1211-8.1992 0-11.32l-40-40c-3.1211-3.1211-8.1992-3.1211-11.32 0s-3.1211 8.1992 0 11.32l34.34 34.34-34.34 34.34c-3.1211 3.1211-3.1211 8.1992 0 11.32 3.1211 3.1211 8.1992 3.1211 11.32 0zm42.34-170.34v36.68c0 6.3594 2.5195 12.48 7.0391 16.961 4.4805 4.5195 10.602 7.0391 16.961 7.0391h36.68z" fill="#ee7a45" fill-rule="evenodd"/>
</svg>
