<?xml version="1.0" encoding="UTF-8"?>
<svg width="512pt" height="512pt" version="1.1" viewBox="0 0 512 512" xmlns="http://www.w3.org/2000/svg">
 <path d="m71.996 196.68-45.66 45.66c-1.5 1.5-2.3398 3.5391-2.3398 5.6602v144c0 10.602 4.2188 20.781 11.719 28.281s17.68 11.719 28.281 11.719h8v40c0 10.602 4.2188 20.781 11.719 28.281s17.68 11.719 28.281 11.719h288c10.602 0 20.781-4.2188 28.281-11.719 6.6797-6.6797 10.762-15.48 11.559-24.82l45.801-45.801c1.5195-1.5 2.3594-3.5391 2.3594-5.6602v-144c0-22.078-17.922-40-40-40h-8v-144c0-2.1211-0.83984-4.1602-2.3398-5.6602l-88.004-88.004c-1.5-1.5-3.5391-2.3398-5.6602-2.3398h-232c-10.602 0-20.781 4.2188-28.281 11.719s-11.719 17.68-11.719 28.281zm16 235.32v40c0 6.3594 2.5195 12.48 7.0391 16.961 4.4805 4.5195 10.602 7.0391 16.961 7.0391h288c6.3594 0 12.48-2.5195 16.961-7.0391 4.5195-4.4805 7.0391-10.602 7.0391-16.961v-40zm352 20.68 20.68-20.68h-20.68zm-400-196.68v136c0 6.3594 2.5195 12.48 7.0391 16.961 4.4805 4.5195 10.602 7.0391 16.961 7.0391h408v-136c0-13.262-10.738-24-24-24zm312 48c0-17.68-14.32-32-32-32h-16c-17.68 0-32 14.32-32 32v8c0 17.68 14.32 32 32 32h16c8.8398 0 16 7.1602 16 16v8c0 8.8398-7.1602 16-16 16h-16c-8.8398 0-16-7.1602-16-16 0-4.4219-3.5781-8-8-8s-8 3.5781-8 8c0 17.68 14.32 32 32 32h16c17.68 0 32-14.32 32-32v-8c0-17.68-14.32-32-32-32h-16c-8.8398 0-16-7.1602-16-16v-8c0-8.8398 7.1602-16 16-16h16c8.8398 0 16 7.1602 16 16 0 4.4219 3.5781 8 8 8s8-3.5781 8-8zm-128-24v88.004c0 8.8398-7.1602 16-16 16h-16c-8.8398 0-16-7.1602-16-16v-16c0-4.4219-3.5781-8-8-8s-8 3.5781-8 8v16c0 17.68 14.32 32 32 32h16c17.68 0 32-14.32 32-32v-88.004c0-4.4219-3.5781-8-8-8s-8 3.5781-8 8zm112-264h-224c-6.3594 0-12.48 2.5195-16.961 7.0391-4.5195 4.4805-7.0391 10.602-7.0391 16.961v200h336v-136h-48c-10.602 0-20.781-4.2188-28.281-11.719s-11.719-17.68-11.719-28.281zm-284.68 224h20.68v-20.68zm213-146.2-32 112c-1.1992 4.2383 1.2617 8.6797 5.5 9.8984 4.2383 1.1992 8.6797-1.2617 9.8984-5.5l32-112c1.1992-4.2383-1.2617-8.6797-5.5-9.8984-4.2383-1.1992-8.6797 1.2617-9.8984 5.5zm-50.66 92.539-34.34-34.34 34.34-34.34c3.1211-3.1211 3.1211-8.1992 0-11.32s-8.1992-3.1211-11.32 0l-40 40c-3.1211 3.1211-3.1211 8.1992 0 11.32l40 40c3.1211 3.1211 8.1992 3.1211 11.32 0s3.1211-8.1992 0-11.32zm96 11.32 40-40c3.1211-3.1211 3.1211-8.1992 0-11.32l-40-40c-3.1211-3.1211-8.1992-3.1211-11.32 0s-3.1211 8.1992 0 11.32l34.34 34.34-34.34 34.34c-3.1211 3.1211-3.1211 8.1992 0 11.32s8.1992 3.1211 11.32 0zm42.34-170.34v36.68c0 6.3594 2.5195 12.48 7.0391 16.961 4.4805 4.5195 10.602 7.0391 16.961 7.0391h36.68z" fill="#ee7a45" fill-rule="evenodd"/>
</svg>
