<?xml version="1.0" encoding="UTF-8"?>
<svg width="512pt" height="512pt" version="1.1" viewBox="0 0 512 512" xmlns="http://www.w3.org/2000/svg">
 <path d="m491.52 369.66h-72.703v-92.16c0-3.0703-1.0234-5.1211-3.0703-7.168-2.0469-2.0469-4.0977-3.0703-7.168-3.0703h-84.992l-57.344-57.344-0.003907-15.363c46.078-5.1211 81.922-44.031 81.922-91.137 0-51.199-40.961-92.16-92.16-92.16s-92.16 40.961-92.16 92.16c0 47.105 35.84 87.039 81.922 91.137v16.383l-57.344 57.344h-84.992c-3.0703 0-5.1211 1.0234-7.168 3.0703-2.0469 2.0469-3.0703 4.0977-3.0703 7.168v92.16l-72.707 0.003906c-6.1445 0-10.238 4.0977-10.238 10.238l-0.003907 110.59c0 6.1445 4.0977 10.238 10.238 10.238h164.86c6.1445 0 10.238-4.0977 10.238-10.238l0.007813-111.62c0-6.1445-4.0977-10.238-10.238-10.238h-71.68v-80.895h74.754l60.414 60.414c2.0469 2.0469 4.0977 3.0703 7.168 3.0703 3.0703 0 5.1211-1.0234 7.168-3.0703l60.414-60.414h74.754v80.895h-72.703c-6.1445 0-10.238 4.0977-10.238 10.238l-0.007813 111.62c0 6.1445 4.0977 10.238 10.238 10.238l165.89 0.003907c6.1445 0 10.238-4.0977 10.238-10.238l0.003907-111.62c0-6.1406-4.0977-10.238-10.242-10.238zm-316.41 20.48v91.137h-144.39v-91.137zm9.2148-287.75c0-39.938 31.742-71.68 71.68-71.68s71.68 31.742 71.68 71.68-31.742 71.68-71.68 71.68-71.68-31.742-71.68-71.68zm72.703 224.26-49.152-49.152 49.152-49.152 49.152 49.152zm224.26 154.62h-144.39v-91.137h144.39z" fill="#ee7a45"/>
 <path d="m221.18 93.184h71.68c6.1445 0 10.238-4.0977 10.238-10.238 0-6.1445-4.0977-10.238-10.238-10.238h-71.68c-6.1445 0-10.238 4.0977-10.238 10.238 0 6.1445 4.0938 10.238 10.238 10.238z" fill="#ee7a45"/>
 <path d="m303.11 121.86c0-6.1445-4.0977-10.238-10.238-10.238h-71.68c-6.1445 0-10.238 4.0977-10.238 10.238 0 6.1445 4.0977 10.238 10.238 10.238h71.68c5.1172 0.003906 10.238-5.1172 10.238-10.238z" fill="#ee7a45"/>
</svg>
