<?xml version="1.0" encoding="UTF-8"?>
<svg width="512pt" height="512pt" version="1.1" viewBox="0 0 512 512" xmlns="http://www.w3.org/2000/svg">
 <path d="m256 24c-103.02 0-190.44 67.301-220.68 160.28-19.879 2.3008-35.32 19.199-35.32 39.719v64c0 20.52 15.441 37.422 35.32 39.719 30.238 92.98 117.66 160.28 220.68 160.28 103.02 0 190.44-67.301 220.68-160.28 19.879-2.3008 35.32-19.199 35.32-39.719v-64c0-20.52-15.441-37.422-35.32-39.719-30.238-92.98-117.66-160.28-220.68-160.28zm-8 368.04c-33.039 0.32031-64.758 2.6992-94.32 6.7812 7.5391 22.762 16.84 42.98 27.559 59.879 20.918 7.7188 43.379 12.32 66.781 13.16zm16 0v79.82c23.398-0.85938 45.84-5.4414 66.781-13.16 10.699-16.879 20-37.102 27.559-59.879-29.578-4.0781-61.301-6.4609-94.34-6.7812zm110.34 9.1992c-5.4805 16.922-11.859 32.559-19.02 46.602 20.059-10.398 38.281-23.879 54.043-39.781-11.219-2.5391-22.922-4.8203-35.02-6.8008zm-236.68 0c-12.102 1.9805-23.801 4.2617-35.02 6.8008 15.762 15.922 34 29.379 54.043 39.781-7.1602-14.039-13.559-29.66-19.02-46.582zm322.02-73.242h-68.84c-2.8398 20.34-6.8398 39.699-11.879 57.777 14.879 2.4805 29.16 5.4219 42.719 8.7188 16.359-19.539 29.32-42.02 38-66.52zm-338.54 0h-68.816c8.6797 24.5 21.641 46.961 38 66.52 13.559-3.3203 27.84-6.2422 42.719-8.7188-5.0391-18.102-9.0586-37.461-11.898-57.801zm126.86 48.039v-48.039h-110.7c2.8008 19.48 6.7188 38.039 11.621 55.32 30.98-4.3984 64.316-6.9609 99.082-7.2812zm126.7-48.039h-110.7v48.039c34.762 0.33984 68.102 2.8789 99.082 7.2812 4.8789-17.301 8.8203-35.84 11.621-55.32zm97.301-128h-432c-13.262 0-24 10.738-24 24v64c0 13.262 10.738 24 24 24h432c13.262 0 24-10.738 24-24v-64c0-13.262-10.738-24-24-24zm-399.48 26.801 24 64c1.1211 2.9805 3.8789 5.0195 7.0781 5.1797 3.1797 0.16016 6.1602-1.5586 7.5586-4.4219l16.84-33.68 16.84 33.68c1.4219 2.8398 4.3984 4.5781 7.5586 4.4219 3.1797-0.16016 5.9609-2.1992 7.0781-5.1797l24-64c1.5586-4.1406-0.53906-8.7617-4.6797-10.301-4.1406-1.5586-8.7617 0.53906-10.301 4.6797l-17.559 46.82-15.801-31.602c-1.3398-2.6797-4.1016-4.3984-7.1406-4.3984-3.0391 0-5.8008 1.7188-7.1602 4.4219l-15.801 31.602-17.559-46.82c-1.5391-4.1406-6.1602-6.2422-10.301-4.6797-4.1406 1.5391-6.2422 6.1602-4.6797 10.301zm128 0 24 64c1.1211 2.9805 3.8789 5.0195 7.0781 5.1797 3.1797 0.16016 6.1602-1.5586 7.5586-4.4219l16.84-33.68 16.84 33.68c1.4219 2.8398 4.3984 4.5781 7.5586 4.4219 3.1797-0.16016 5.9609-2.1992 7.0781-5.1797l24-64c1.5586-4.1406-0.53906-8.7617-4.6797-10.301-4.1406-1.5586-8.7617 0.53906-10.301 4.6797l-17.559 46.82-15.801-31.602c-1.3398-2.6797-4.1016-4.3984-7.1406-4.3984-3.0391 0-5.8008 1.7188-7.1602 4.4219l-15.801 31.602-17.559-46.82c-1.5391-4.1406-6.1602-6.2422-10.301-4.6797-4.1406 1.5391-6.2422 6.1602-4.6797 10.301zm128 0 24 64c1.1211 2.9805 3.8789 5.0195 7.0781 5.1797 3.1797 0.16016 6.1602-1.5586 7.5586-4.4219l16.84-33.68 16.84 33.68c1.4219 2.8398 4.3984 4.5781 7.5586 4.4219 3.1797-0.16016 5.9609-2.1992 7.0781-5.1797l24-64c1.5586-4.1406-0.53906-8.7617-4.6797-10.301-4.1406-1.5586-8.7617 0.53906-10.301 4.6797l-17.559 46.82-15.801-31.602c-1.3398-2.6797-4.1016-4.3984-7.1406-4.3984-3.0391 0-5.8008 1.7188-7.1602 4.4219l-15.801 31.602-17.559-46.82c-1.5391-4.1406-6.1602-6.2422-10.301-4.6797-4.1406 1.5391-6.2422 6.1602-4.6797 10.301zm-238.22-109.32c-16.359 19.559-29.32 42.02-37.98 66.52h68.84c2.8398-20.34 6.8398-39.699 11.879-57.777-14.879-2.4805-29.16-5.4219-42.719-8.7188zm58.617 11.18c-4.8789 17.301-8.8008 35.859-11.621 55.344h110.7v-48.039c-34.762-0.33984-68.102-2.8789-99.082-7.2812zm214.14 0c-30.98 4.4219-64.301 6.9609-99.062 7.3008v48.039h110.7c-2.8008-19.48-6.7188-38.039-11.621-55.32zm58.617-11.18c-13.559 3.3203-27.84 6.2422-42.719 8.7188 5.0195 18.078 9.0391 37.441 11.879 57.777h68.84c-8.6602-24.48-21.621-46.941-37.98-66.5zm-157.68-77.336v79.82c33.039-0.32031 64.758-2.6992 94.32-6.7812-7.5391-22.762-16.84-42.98-27.539-59.859-20.941-7.7383-43.379-12.32-66.781-13.18zm-16 0c-23.398 0.85938-45.84 5.4414-66.781 13.16-10.699 16.879-20 37.102-27.559 59.879 29.559 4.0781 61.281 6.4414 94.32 6.7812zm107.32 24.039c7.1602 14.039 13.559 29.66 19.02 46.602 12.102-1.9805 23.801-4.2617 35.02-6.8008-15.762-15.941-33.98-29.398-54.043-39.801zm-198.64 0c-20.059 10.398-38.281 23.879-54.043 39.781 11.219 2.5391 22.922 4.8203 35.02 6.8008 5.4805-16.922 11.859-32.559 19.02-46.602z" fill="#ee7a45" fill-rule="evenodd"/>
</svg>
