<?xml version="1.0" encoding="utf-8"?>
<!-- Generator: Adobe Illustrator 16.0.0, SVG Export Plug-In . SVG Version: 6.00 Build 0)  -->
<!DOCTYPE svg PUBLIC "-//W3C//DTD SVG 1.1//EN" "http://www.w3.org/Graphics/SVG/1.1/DTD/svg11.dtd">
<svg version="1.1" id="Layer_1" xmlns="http://www.w3.org/2000/svg" xmlns:xlink="http://www.w3.org/1999/xlink" x="0px" y="0px"
	 width="887.914px" height="99.91px" viewBox="0 0 887.914 99.91" enable-background="new 0 0 887.914 99.91" xml:space="preserve">
<g id="irisR">
	<path id="irisfillR" d="M843.331,7.824c-15.313-0.016-54.755,12.268-40,62.667c12.003,41,70.503,35,80.334,7.333
		C894.186,48.218,886.758,7.868,843.331,7.824z"/>
	<g id="eyeshineR">
		<path fill="#FFFFFF" d="M823.998,37.157c0,0,9.334-2,10.667,0s2.667,14.486,0,16.576c-2.667,2.09-14,6.757-14,6.757
			S817.331,43.157,823.998,37.157z"/>
		<path fill="#FFFFFF" d="M836.205,66.49c0,0,3.793,4,3.793,8.667s-4.001,10-8.667,6S827.079,70.49,836.205,66.49z"/>
	</g>
</g>
<g id="irisL_1_">
	<path id="irisfillL" d="M59.334,0.49c-10.68-1.582-53-2.332-59,47.834s70.531,72.21,89.457,24.203
		C108.334,25.49,72.834,2.49,59.334,0.49z"/>
	<g id="eyeshineL">
		<path fill="#FFFFFF" d="M21.332,38.49c0,0,13.941-0.667,12.304,2.667c-1.637,3.334,1.467,16.667-6.085,19.333
			c-7.552,2.666-12.219,0-12.219,0S14.665,43.823,21.332,38.49z"/>
		<path fill="#FFFFFF" d="M28.665,69.157c0,0,6.209,4.667,7.104,8s-3.104,10-7.104,7.333S20.665,71.157,28.665,69.157z"/>
	</g>
</g>
</svg>
