<?xml version="1.0" encoding="UTF-8" standalone="no"?>
<!DOCTYPE svg PUBLIC "-//W3C//DTD SVG 20010904//EN" "http://www.w3.org/TR/2001/REC-SVG-20010904/DTD/svg10.dtd">
<svg xmlns="http://www.w3.org/2000/svg" width="6in" height="4in" viewBox="0 0 3000 2000" role="img" aria-labelledby="title desc">
      <title id="title">Blue whale</title>
      <desc id="desc">Minimalist cartoon of a blue whale in two tones of blue, drawn by Alvaro Montoro</desc>
      <g stroke="black" stroke-width="0">
            <path id="background" d="M0,0 3000,0 3000,2000 0,2000" fill="#6ce" />
            <path id="fin-back" fill="#346" d="M 1498,1428 C 1509,1455 1541,1527 1547,1568 1575,1591 1612,1578 1623,1574 1580,1499 1518,1427 1518,1427 1518,1427 1503,1428 1498,1428" />
            <path id="body-front" fill="#def" d="M 934,1065 C 989,1065 1033,1065 1074,1065 1145,1070 1262,1106 1319,1287 1324,1294 1352,1398 1363,1419 1057,1436 944,1201 934,1065" />
            <path id="body-lines" fill="none" stroke="#6ce" stroke-width="10"  d="M 996,1047 C 1020,1148 1123,1341 1363,1358 1360,1333 1346,1291 1346,1291 1300,1277 1136,1228 1065,1033" />
            <path id="body-bottom" fill="#def"  d="M 1494,1419 C 1566,1421 1683,1373 1735,1317 1683,1343 1519,1362 1464,1358 1471,1368 1492,1406 1494,1418" />
            <path id="back" fill="#346" d="M 1754,659 C 1795,776 1728,960 1500,960 1272,960 1084,960 1020,960 956,960 933,1005 934,1053 971,1053 953,1053 1046,1053 1139,1053 1281,1078 1354,1352 1427,1626 1539,1622 1551,1619 1529,1498 1458,1365 1448,1349 1523,1349 1716,1347 1828,1255 1940,1163 2025,915 1839,643 1988,630 2017,492 1997,447 1829,477 1789,496 1773,596 1710,491 1597,516 1495,535 1508,631 1622,710 1753,658" />
            <circle id="eye" cx="1278" cy="1106" r="15" fill="#def" />
      </g>
</svg>
