<?xml version="1.0" encoding="UTF-8"?>
<svg id="Layer_1" xmlns="http://www.w3.org/2000/svg" version="1.1" viewBox="0 0 2000 2000">
  <!-- Generator: Adobe Illustrator 29.4.0, SVG Export Plug-In . SVG Version: 2.1.0 Build 152)  -->
  <defs>
    <style>
      .st0 {
        fill: none;
      }

      .st1 {
        fill: #418b64;
      }

      .st2 {
        fill: #f36d22;
      }

      .st3 {
        fill: #fafdfd;
      }

      .st4 {
        fill: #af744e;
        opacity: .6;
      }

      .st4, .st5, .st6 {
        isolation: isolate;
      }

      .st7 {
        fill: #e05f26;
      }

      .st8 {
        fill: #ddb47c;
      }

      .st9 {
        fill: #d2a36f;
      }

      .st10 {
        fill: #be775c;
      }

      .st5 {
        fill: #4d854d;
        opacity: .6;
      }

      .st11 {
        fill: #98ba55;
      }

      .st12 {
        fill: #d05127;
      }

      .st13 {
        fill: #f7931e;
      }

      .st6 {
        fill: #246454;
        opacity: .4;
      }

      .st14 {
        fill: #f9a77e;
      }

      .st15 {
        fill: #d1a274;
      }

      .st16 {
        fill: #549e44;
      }

      .st17 {
        fill: #67c187;
      }

      .st18 {
        fill: #f04933;
      }
    </style>
  </defs>
  <rect id="no-idea" class="st0" width="2000" height="2000"/>
  <g id="all">
    <path id="back-hand" class="st14" d="M626.7,1328.3c-1.6,4.9-503.8-25.8-626.7-34.6v-425.3c170,66.5,419.6,270.9,505.2,316.3,90.2,47.9,121.5,22.1,121.5,22.1,0,0,1.8,116,0,121.5Z"/>
    <path id="bag" class="st9" d="M1626.2,1708.9s-224.5,34.5-491.3,35.1c-266.9.6-293.3-53.4-441.3-16.4-25.4,6.3-53.1,10.5-81.7,13.1-137.6,12.3-293.5-13.1-293.5-13.1,176-169.2,185.9-735.9,185.3-885.6,0-23.3-.4-36.5-.4-36.5l888,11.2,105.2,1.3s.4,12.9,1.5,36.1c3.9,81.1,16.4,287.7,50.3,503.5,43.7,277.4,77.8,351.3,77.8,351.3h0Z"/>
    <path id="bag-shadow" class="st4" d="M1626.2,1708.9s-224.5,34.5-491.3,35.1c-266.9.6-293.3-53.4-441.3-16.4-25.4,6.3-53.1,10.5-81.7,13.1,101.1-246.2,328.3-35.7,571.3-105.1,243-69.4,64.9-242.9,144.7-394.7,70.4-133.8,65.5-370.1,63.3-424.2l105.2,1.3s.4,12.9,1.5,36.1c3.9,81.1,16.4,287.7,50.3,503.5,43.7,277.4,77.8,351.3,77.8,351.3h0Z"/>
    <g id="veggies">
      <g>
        <path class="st1" d="M1045.2,723.2l-39.2,2-24.9,1.2-169.4,8.6s-186.1-504.2-131-608.2c1.9-3.6,4-6.6,6.5-9.2.3-.3.5-.6.8-.8,74.3-76.8,153.9,6.7,209.6,95.8,55.8,89.4,147.6,510.6,147.6,510.6h0Z"/>
        <path class="st6" d="M1006.1,725.2l-24.9,1.2c-53.3-193.3-93.2-484.1-195.8-583.9-30-29.2-73.6-24.4-104.7-15.7,1.9-3.6,4-6.6,6.5-9.2.3-.3.5-.6.8-.8,251.9-95.8,315.9,562.7,315.9,562.7,0,0,.9,19.7,2.1,45.7h0Z"/>
      </g>
      <path class="st11" d="M971.4,422.5s19.5-71.1,73.8-92.3c54.4-21.2,72.3-41.2,94.6-102.5,22.3-61.2,163.5-62.5,183.5,6.2,20,68.7,10,100,56.2,127.5,46.2,27.5,29.2,61.1,29.2,61.1l-310.5,247.4s-144.9-27.2-143.7-32.2,16.8-215.1,16.8-215.1h0Z"/>
      <path class="st5" d="M1109.9,615.6s36.9-53.1,24.1-100.3c-12.8-47.2-67.1-92.4-44-104.5s56.8,95.4,70.1,74.3,19.3-123.6-4.8-166.8c-24.1-43.2,8.5-44.2,27.9,29.1,19.3,73.3,11.1,69.3,30.3,11,19.2-58.3,81.4-100.1,84.5-67.1,3.1,33-72.3,59.1-69.3,105.3,3,46.2,65.3,6,44.2,41.2-21.1,35.2-77.9-2.9-81.7,69.3-3.7,72.3-46.3,147.4-81.3,108.3h0Z"/>
      <path class="st17" d="M571.8,570s-48.4-78.9-22.1-108.9c26.2-30,32.1,4.7,22.1,20.6-9.9,15.9,17.1,88.6,55.9,71.5,38.8-17.1-21.7,33.5-29.2,35.3s-26.6-18.6-26.6-18.6Z"/>
      <path class="st18" d="M491.6,669.8s-11-64.4,80.2-99.8c0,0,31.7,20.5,55.9-16.8,0,0,42.8-35.4,108-11.2,65.2,24.2,81.9,116.3,74.5,166.2,0,0-378.2,52.1-318.5-38.4h0Z"/>
      <path class="st16" d="M1029.8,628.4s11.7-108.3,49.5-105.8,10.3,18.1-7.2,38.4c-17.5,20.3-42.3,67.4-42.3,67.4Z"/>
      <path class="st16" d="M1417.8,455.5s58.9-164.1,104.6-146.3c31.7,12.4-69.4,124.1-62.6,122.9,6.8-1.1,102.4-159.4,166.2-138.9,63.7,20.5-155.9,148-155.9,148,0,0,135.1-72.3,149.9-50.4,23.1,34-165.3,89.8-165.3,89.8"/>
      <path class="st2" d="M1467.7,570.7l-129.8,137.6-220.2,14.9-7.8-84.3s6-7.5,16.2-19.8c2.5-3,5.3-6.4,8.4-9.9,9.5-11.2,21.4-24.9,34.8-39.7,2.1-2.3,4.2-4.6,6.4-7,8.9-9.7,18.3-19.7,28.1-29.8,2.9-3,5.9-6,8.9-9,8.9-9,18.1-17.9,27.3-26.6,1.7-1.6,3.3-3.1,5-4.7,12.1-11.1,24.3-21.7,36.4-31.2,2.9-2.2,5.7-4.4,8.6-6.6,17-12.7,33.4-23,48.5-29.5,1.6-.7,3.2-1.3,4.7-1.9,5.8-2.2,11.3-3.8,16.6-4.6,86.6-14.1,132.6,76,107.8,152h0Z"/>
      <path class="st7" d="M1148.1,708.2s231.7-191.9,322.3-147.2l-24,87.4s-249.8,91.5-256.8,90.9c-7-.6-41.5-31-41.5-31h0Z"/>
      <path class="st16" d="M1461.9,609.8s59.3-165.2,104.6-146.3c31.1,13-69.4,124.1-62.6,122.9,6.8-1.1,102.4-159.4,166.2-138.9,63.7,20.5-155.9,148-155.9,148,0,0,132.5-73.1,146.8-56.9,27.2,30.7-162.2,96.3-162.2,96.3"/>
      <path class="st13" d="M1522.4,680.6s-23.8,56.2-48.1,72.1c-24.3,15.9-314.2-44.5-314.2-44.5,2.4-.3,36.6-27.7,82.4-58.8,1.8-1.2,3.6-2.5,5.5-3.7,12.5-8.4,25.8-17,39.5-25.4,2.6-1.6,5.2-3.2,7.8-4.7,10.8-6.4,21.7-12.7,32.7-18.5,1.3-.7,2.6-1.4,3.9-2,11.7-6.1,23.3-11.6,34.7-16.4,2.4-1,4.8-2,7.2-2.9,10.8-4.3,21.3-7.8,31.3-10.3,1.6-.4,3.2-.8,4.8-1.2,4.7-1,9.2-1.9,13.7-2.4,97.2-12.4,99,118.8,99,118.8h0Z"/>
      <g>
        <path class="st12" d="M1433.6,618.8c-4.3,10.5-20-29.5-28.6-53.3,1.6-.4,3.2-.8,4.8-1.2,11.4,17.6,27.6,45.1,23.7,54.5h0Z"/>
        <path class="st12" d="M1390.2,618.8c-3.6,8.7-15-17.4-23.7-40.1,2.4-1,4.8-2,7.2-2.9,9.9,16.4,19.6,35.5,16.5,43h0Z"/>
        <path class="st12" d="M1357,651.9c-4.4,10.7-20.7-31-29.1-54.8,1.3-.7,2.6-1.4,3.9-2,11.4,17.4,29.2,47,25.2,56.8h0Z"/>
        <path class="st12" d="M1307.8,651.9c-3.1,7.6-12.3-11.4-20.4-31.6,2.6-1.6,5.2-3.2,7.8-4.7,8.3,14.6,15.3,29.8,12.6,36.3h0Z"/>
        <path class="st12" d="M1268.1,694.5c-3.8,9.3-16.8-21.4-25.6-45.1,1.8-1.2,3.6-2.5,5.5-3.7,10.9,17.3,23.6,40.4,20.1,48.8Z"/>
      </g>
      <path class="st12" d="M1379,487.8c-4.1,13.2-28.2-35.7-40.5-62.6,1.6-.7,3.2-1.3,4.7-1.9,15.3,19.3,39.5,52.5,35.8,64.6h0Z"/>
      <path class="st12" d="M1308.9,496.6c-2.9,9.3-15.8-12.3-27.4-35.4,2.9-2.2,5.7-4.4,8.6-6.6,11.4,16.5,21.4,33.9,18.9,41.9h0Z"/>
      <path class="st12" d="M1277,552c-3.7,12-24.1-27.5-37-55,1.7-1.6,3.3-3.1,5-4.7,15.2,19.6,35.4,48.6,31.9,59.7Z"/>
      <path class="st12" d="M1222.8,552c-2.2,7.1-10.2-3.7-19-19.4,2.9-3,5.9-6,8.9-9,7.1,11.8,11.9,22.6,10.1,28.4Z"/>
      <path class="st12" d="M1200.9,613.3c-3.2,10.5-19.1-18.1-31.7-43.9,2.1-2.3,4.2-4.6,6.4-7,13.8,18.7,28.2,41.4,25.3,50.9h0Z"/>
      <path class="st12" d="M1141.5,632.3c-1.9,6.1-8.1-1.1-15.4-13.2,2.5-3,5.3-6.4,8.4-9.9,5.4,9.7,8.6,18.2,7,23.1h0Z"/>
      <path class="st18" d="M888.3,708.2s-12.6-119.6,115.7-112.2c0,0,27.7,5,25.8,32.3,0,0,46.6-23,80.1,10.5,33.5,33.5,29.8,68.8,29.8,68.8l-251.4.5h0Z"/>
    </g>
    <path id="bag-top" class="st15" d="M491.6,669.8s-45.4,21.6-28.1,92.9,114.5,54,427.9,51.9c313.4-2.2,605.1,3.4,605.1,3.4,0,0,51.9-7.7,51.9-57.4s-25.9-80-25.9-80c0,0,17.3,32.4-157.8,28.1-95.9-2.4-363.5-.1-580.6-.5-179.2-.3-326.7,1.7-292.5-38.4h0Z"/>
    <path id="bag-highlight" class="st8" d="M1498,854.1c-1,.2-1.5.3-1.5.3,0,0-291.8-5.5-605.1-3.4-220.2,1.5-333.7,10.5-387.7-9,0-23.3-.4-36.5-.4-36.5l993.2,12.6s.4,12.9,1.5,36.1h0Z"/>
    <path id="unknown" class="st1" d="M1013.9,850.5c-.2,0-.5-1.5-.8-4.3.7,2.8,1,4.3.8,4.3Z"/>
    <g id="recycle">
      <g>
        <path class="st3" d="M1126.7,1107.1c-14.3,26.2-28.6,52.5-43.2,78.6-1.3,2.3-5.4,4.2-8.3,4.2-31.9.3-63.8.2-95.7.2-.5-1.8-1-3.6-1.6-5.4,9.1-6.9,18.2-13.7,29-21.9-25.5-34.3-30.7-82.2-76.5-102.8,23.2,0,46.4-.1,69.6,0,6,0,12.2,2.6,18,1.6,36-6.1,57,11.6,70.3,42.7,1.8,4.3,4.7,8.1,8.1,14,9-5.1,17.7-10,26.4-14.9,1.3,1.2,2.6,2.4,3.9,3.6h0Z"/>
        <path class="st3" d="M917.9,1216.3c-28.5-19.5-55.3-37.8-82.9-56.7,17.4-26.8,32.8-51.9,49.7-75.9,8.3-11.8,19.1-19.3,36.2-13.9,20.2,6.3,31.2,19.9,42.8,36.6,15.1,21.8.2,34.8-8.7,50.1-11.3,19.5-23.8,38.4-37,59.8h0Z"/>
      </g>
      <g>
        <path class="st3" d="M1040.6,1455.3c-16.1-25.2-32.2-50.4-48-75.8-1.4-2.2-1.1-6.8.3-9.3,15.2-28.1,30.7-56,46-83.9,1.8.4,3.7.8,5.5,1.2,1.6,11.3,3.2,22.6,5.2,36,42.4-5.7,86.8,12.8,127-17.4-11.2,20.3-22.3,40.7-33.7,60.9-2.9,5.2-8.2,9.5-10.1,14.9-12.1,34.4-37.7,44.3-71.3,40.9-4.6-.5-9.3.2-16.2.4.1,10.3.2,20.3.3,30.3-1.7.6-3.4,1.1-5.1,1.7h0Z"/>
        <path class="st3" d="M1045.8,1219.8c30.8-15.6,59.8-30.2,89.7-45.2,15.1,28.2,29.6,53.8,42.5,80.2,6.3,12.9,7.7,26-5.3,38.4-15.3,14.6-32.5,17.7-52.7,19.8-26.4,2.7-30.6-16.7-39.7-31.8-11.6-19.4-22.2-39.4-34.4-61.3h0Z"/>
      </g>
      <g>
        <path class="st3" d="M777.3,1211.8c29.8-1.9,59.7-3.9,89.5-5.4,2.6-.1,6.5,2.3,8,4.7,17.3,26.8,34.2,53.9,51.2,80.8-1.2,1.4-2.5,2.8-3.7,4.2-10.7-4-21.3-8.1-34-12.8-15.4,39.9-53.1,69.8-46.1,119.6-12.4-19.6-24.8-39.2-37-58.9-3.2-5.1-4.3-11.7-8.2-16.1-24.3-27.2-20.6-54.4-1.4-82.2,2.6-3.8,4.3-8.2,7.5-14.3-9.1-4.9-17.9-9.6-26.7-14.4.3-1.8.6-3.5,1-5.2h0Z"/>
        <path class="st3" d="M981,1330.1c-1.3,34.5-2.5,66.9-3.7,100.3-32-.4-61.4,0-90.7-1.5-14.3-.7-26.5-5.8-31.1-23.2-5.4-20.4.2-37,8.1-55.7,10.4-24.4,29.4-18.7,47-19.4,22.6-.8,45.2-.4,70.3-.6h0Z"/>
      </g>
    </g>
    <g id="hand">
      <path class="st14" d="M1225.4,1818.5h0s70.2,8.3,70.2,45.4-509.8,123.8-782.3-86.7C337.9,1618,109.6,1562,0,1543.5v-476.7c107.1,63.9,402.7,229.2,548.4,200.6,258.5-50.8,594-29.3,639,63.7,36.2,74.9-29.4,89.1-196.6,54-167.2-35.1-220.6,39-220.6,39,0,0,43.4,20.8,137.8,97.2s291.5-4.4,346-20c81-23.3,173.7,44.8,18.8,108.8,0,0,72.2,0,74.3,43.3.8,16-26.9,37-69.2,57.1,5.2-2.2,51.7-11.1,77.8,35.8,8.4,15.1-43.5,47.4-130.5,72.2Z"/>
      <path class="st10" d="M1272.9,1610s-169,68.8-293.4,44.1c0,0,130.4,35.4,293.4-44.1Z"/>
      <path class="st10" d="M1277.8,1710.6s-112.9,44.7-288.3,21.8c0,0,149.7,39.3,288.3-21.8Z"/>
      <path class="st10" d="M1225.4,1818.5s-177.7,38.5-326.4,0c0,0,135.3,54.7,326.4,0Z"/>
      <path id="arm-line" class="st10" d="M0,1049.9s329.3,190.8,478.4,218.8c0,0-175.6-13.7-478.4-201.9v-16.9h0Z"/>
    </g>
  </g>
</svg>