<?xml version="1.0" encoding="UTF-8" standalone="no"?>
<!DOCTYPE svg PUBLIC "-//W3C//DTD SVG 1.1//EN" "http://www.w3.org/Graphics/SVG/1.1/DTD/svg11.dtd">
<svg xmlns="http://www.w3.org/2000/svg" version="1.1" viewBox="0.00 0.00 1414.00 2222.00">
<g stroke-width="2.00" fill="none" stroke-linecap="butt">
<path stroke="#555e63" vector-effect="non-scaling-stroke" d="
  M 625.53 1345.57
  C 625.50 1346.04 625.24 1347.03 625.48 1347.82
  A 0.07 0.06 -51.7 0 0 625.61 1347.80
  Q 627.53 1330.45 630.62 1321.02
  Q 633.53 1312.15 636.66 1305.88
  Q 638.91 1301.35 643.22 1296.47
  C 647.34 1291.80 654.81 1290.35 660.72 1290.41
  C 721.58 1291.06 775.78 1290.34 840.51 1289.31
  Q 975.61 1287.18 996.71 1286.79
  A 0.71 0.70 84.7 0 1 997.41 1287.38
  C 1002.04 1316.12 1013.32 1343.91 1032.77 1365.53
  C 1053.55 1388.63 1085.03 1404.60 1115.40 1412.10
  Q 1125.97 1414.71 1131.37 1415.86
  Q 1137.53 1417.17 1139.28 1422.98
  C 1141.34 1429.83 1141.54 1437.89 1141.74 1444.75
  Q 1142.51 1470.65 1142.85 1474.30
  C 1143.79 1484.61 1144.91 1495.70 1151.21 1503.68
  C 1154.29 1507.59 1159.83 1508.95 1164.17 1505.97
  C 1170.60 1501.56 1173.60 1492.29 1174.94 1484.69
  Q 1177.38 1470.90 1177.42 1455.24
  C 1177.46 1435.43 1176.68 1413.41 1177.36 1395.58
  Q 1178.01 1378.52 1178.69 1359.02
  A 3.55 3.53 -26.7 0 1 1179.32 1357.14
  Q 1183.19 1351.56 1184.69 1349.23
  C 1208.48 1312.22 1220.81 1263.22 1200.75 1221.79
  A 0.55 0.54 -37.0 0 1 1200.84 1221.20
  C 1222.44 1197.58 1238.37 1167.67 1249.50 1137.67
  Q 1277.30 1062.75 1274.31 982.00
  C 1273.08 948.90 1266.68 913.51 1252.01 883.99
  A 1.54 1.53 74.0 0 0 1250.51 883.15
  L 1228.70 885.09
  A 1.38 1.38 0.0 0 0 1227.52 886.93
  Q 1237.86 915.92 1243.38 944.32
  C 1259.13 1025.35 1248.40 1118.16 1199.45 1186.94
  Q 1193.17 1195.76 1188.21 1201.31
  A 0.44 0.44 0.0 0 1 1187.54 1201.30
  C 1172.84 1183.62 1153.66 1170.12 1133.14 1159.83
  C 1103.35 1144.90 1070.67 1135.20 1038.05 1128.91
  C 986.25 1118.92 931.40 1115.17 878.75 1113.45
  Q 797.18 1110.80 703.00 1112.00
  Q 692.87 1112.12 679.94 1112.71
  A 1.84 1.79 -35.1 0 1 679.19 1112.59
  Q 676.46 1111.54 675.23 1113.48
  Q 670.27 1121.31 669.05 1125.70
  Q 668.34 1128.25 666.68 1131.06
  Q 664.82 1134.22 662.36 1140.88
  C 662.14 1141.45 661.69 1141.66 661.41 1142.19
  Q 658.58 1147.46 655.79 1154.01
  Q 653.54 1159.28 650.13 1165.76
  Q 640.53 1183.97 627.03 1205.85
  Q 624.86 1209.36 620.02 1216.78
  Q 618.29 1219.44 617.30 1220.60
  Q 615.38 1222.88 614.45 1224.37
  Q 612.76 1227.09 610.31 1229.30
  Q 606.72 1232.55 602.28 1235.98
  Q 597.96 1239.31 594.26 1239.77
  Q 589.94 1240.30 585.43 1238.29
  Q 584.09 1237.69 583.69 1237.03
  Q 583.08 1236.03 582.28 1235.40
  Q 578.26 1232.26 577.91 1226.21
  Q 577.89 1225.88 577.54 1225.57
  A 0.95 0.94 16.9 0 1 577.23 1225.00
  C 576.60 1220.51 575.35 1215.58 575.03 1210.75
  Q 574.00 1195.25 574.54 1185.00
  Q 576.17 1154.05 576.77 1138.75
  C 577.35 1123.84 577.35 1111.30 577.91 1098.09
  Q 579.76 1054.27 580.96 1032.50
  Q 584.11 975.69 590.19 915.00
  C 591.34 903.58 591.51 894.77 582.66 887.10
  C 575.50 880.89 565.56 876.78 555.98 873.23
  Q 514.91 858.00 470.24 867.46
  Q 463.43 868.90 458.85 870.23
  Q 428.47 879.04 403.07 897.46
  Q 396.74 902.05 392.94 903.79
  Q 375.64 911.72 359.26 913.84
  Q 328.89 917.79 291.14 917.61
  Q 278.46 917.55 266.58 915.54
  C 247.98 912.39 231.32 907.98 213.96 902.59
  A 0.70 0.69 16.9 0 0 213.08 903.05
  Q 204.62 931.35 183.28 950.84
  A 0.48 0.48 0.0 0 0 183.29 951.55
  C 207.68 973.53 237.10 989.21 267.98 1001.51
  Q 296.52 1012.87 326.18 1021.36
  A 4.51 4.50 41.3 0 0 329.19 1021.17
  Q 340.03 1016.49 347.31 1007.10
  Q 349.72 1003.99 350.97 1002.55
  A 3.55 3.44 -56.8 0 1 355.06 1001.63
  C 359.33 1003.58 355.31 1009.25 353.32 1011.81
  Q 347.44 1019.40 339.26 1024.27
  A 0.47 0.46 34.1 0 0 339.43 1025.13
  Q 346.70 1026.31 355.75 1029.03
  Q 358.37 1029.81 361.09 1030.25
  Q 364.66 1030.81 366.50 1031.32
  Q 371.10 1032.59 374.62 1032.78
  C 379.74 1033.07 387.47 1033.91 393.76 1034.98
  Q 457.17 1045.70 521.42 1045.64
  A 0.19 0.19 0.0 0 1 521.61 1045.84
  Q 518.36 1120.12 516.94 1159.75
  Q 516.75 1164.94 516.37 1168.26
  Q 511.13 1213.14 512.84 1257.49
  Q 513.70 1279.67 516.74 1299.74
  Q 517.60 1305.42 520.89 1321.30
  Q 521.31 1323.30 521.57 1324.16
  Q 522.22 1326.32 522.11 1327.10
  A 0.38 0.37 14.8 0 0 522.35 1327.50
  Q 522.61 1327.61 522.65 1327.81
  Q 524.08 1333.83 524.43 1334.97
  Q 528.44 1347.99 534.66 1359.85
  Q 545.02 1379.57 564.15 1390.58
  C 572.85 1395.59 581.70 1399.32 584.71 1409.31
  Q 586.75 1416.10 587.30 1424.26
  Q 588.39 1440.37 589.12 1452.71
  Q 589.79 1463.89 591.89 1475.26
  C 593.39 1483.33 596.36 1492.90 601.99 1499.39
  Q 606.16 1504.19 610.86 1504.47
  Q 616.16 1504.79 619.78 1499.72
  C 624.39 1493.26 625.62 1482.92 625.83 1475.21
  Q 626.31 1457.07 623.73 1434.01
  C 622.68 1424.64 622.01 1411.63 622.38 1400.66
  Q 622.80 1388.55 623.13 1376.57
  Q 623.16 1375.46 623.52 1372.31
  Q 623.97 1368.23 623.97 1368.06
  Q 623.97 1367.13 624.11 1361.53
  Q 624.14 1360.23 624.80 1355.11
  Q 625.40 1350.40 625.64 1345.67
  A 0.27 0.06 -89.4 0 0 625.53 1345.57"
/>
<path stroke="#555e63" vector-effect="non-scaling-stroke" d="
  M 205.12 899.76
  Q 192.12 895.29 179.50 891.51
  C 171.16 889.01 146.94 881.69 146.31 897.39
  C 145.91 907.39 151.18 916.59 157.32 924.47
  Q 165.08 934.41 176.29 945.19
  A 0.54 0.53 -41.9 0 0 176.99 945.22
  Q 180.67 942.30 184.70 937.70
  Q 199.08 921.29 205.31 900.13
  A 0.30 0.30 0.0 0 0 205.12 899.76"
/>
<path stroke="#555e63" vector-effect="non-scaling-stroke" d="
  M 659.98 1128.84
  Q 660.12 1128.80 660.21 1128.75
  A 0.03 0.03 0.0 0 0 660.24 1128.72
  Q 664.76 1117.81 664.94 1116.84
  Q 665.20 1115.43 668.08 1108.93
  Q 669.49 1105.78 670.71 1100.66
  A 0.57 0.56 -7.3 0 1 671.00 1100.29
  Q 671.41 1100.08 671.58 1099.50
  Q 672.52 1096.12 674.04 1091.58
  C 684.49 1060.36 689.30 1027.49 688.78 995.24
  C 688.51 978.69 683.55 963.51 671.62 951.90
  C 653.77 934.55 628.54 921.97 609.78 905.79
  Q 603.17 900.09 600.55 898.05
  A 2.75 2.59 41.4 0 0 597.02 898.17
  Q 595.64 899.54 595.44 901.94
  Q 590.34 961.74 587.01 1005.51
  C 582.55 1064.19 581.12 1121.18 580.33 1180.25
  Q 580.11 1196.17 581.61 1210.11
  Q 582.49 1218.36 585.05 1224.90
  A 3.22 3.20 -73.9 0 0 585.44 1225.61
  C 587.94 1228.93 591.12 1232.04 595.66 1230.58
  Q 597.17 1230.09 598.47 1229.87
  A 2.65 2.59 -65.7 0 0 599.49 1229.47
  Q 605.95 1225.19 609.83 1220.60
  Q 612.39 1217.57 615.58 1213.45
  Q 618.12 1210.15 620.66 1205.81
  Q 624.03 1200.05 628.32 1192.85
  Q 630.49 1189.20 631.81 1186.53
  Q 633.49 1183.11 635.31 1180.22
  Q 636.95 1177.62 640.33 1170.65
  Q 640.45 1170.38 649.20 1152.96
  Q 651.90 1147.58 654.32 1141.70
  Q 656.93 1135.34 659.51 1130.46
  Q 659.72 1130.05 659.87 1128.97
  A 0.18 0.16 87.6 0 1 659.98 1128.84"
/>
<path stroke="#555e63" vector-effect="non-scaling-stroke" d="
  M 912.71 1305.83
  A 0.65 0.65 0.0 0 0 912.04 1306.42
  Q 911.53 1310.98 912.17 1315.76
  C 917.83 1358.54 946.30 1388.56 983.10 1408.69
  Q 990.69 1412.84 1006.12 1420.93
  C 1014.56 1425.35 1020.22 1429.93 1021.03 1439.77
  C 1022.36 1456.08 1021.58 1479.09 1029.65 1496.21
  C 1031.48 1500.09 1034.48 1504.77 1037.66 1506.33
  C 1050.51 1512.62 1054.21 1490.79 1055.38 1483.16
  Q 1059.89 1453.87 1060.05 1428.83
  C 1060.13 1416.93 1057.85 1406.17 1047.40 1399.07
  Q 1024.58 1383.56 1010.43 1360.31
  Q 1001.35 1345.40 997.09 1335.24
  C 993.17 1325.90 992.14 1316.20 988.87 1306.62
  A 0.96 0.95 -10.7 0 0 987.91 1305.97
  C 963.12 1307.46 938.84 1306.67 912.71 1305.83"
/>
<path stroke="#555e63" vector-effect="non-scaling-stroke" d="
  M 637.33 1340.47
  Q 637.26 1340.44 637.22 1340.34
  A 0.11 0.04 -81.8 0 0 637.14 1340.48
  Q 637.22 1341.13 636.79 1343.27
  Q 627.60 1389.09 632.85 1437.44
  Q 634.10 1448.92 636.34 1458.92
  C 637.75 1465.24 639.88 1472.92 644.27 1477.70
  C 648.19 1481.98 653.36 1480.48 656.09 1476.04
  C 661.15 1467.79 663.09 1456.60 663.66 1446.94
  Q 664.88 1426.57 668.62 1405.85
  Q 674.15 1375.25 681.75 1344.53
  C 684.33 1334.09 687.93 1322.90 691.75 1313.43
  A 0.78 0.78 0.0 0 0 691.04 1312.36
  L 646.25 1311.84
  A 0.69 0.68 8.9 0 0 645.58 1312.32
  L 639.10 1332.62
  A 0.60 0.07 -83.7 0 1 639.08 1332.71
  L 637.38 1340.42
  A 0.06 0.03 -70.7 0 1 637.33 1340.47"
/>
<path stroke="#555e63" vector-effect="non-scaling-stroke" d="
  M 475.38 887.12
  Q 474.68 886.27 474.28 886.30
  Q 474.16 886.30 471.26 885.38
  A 0.02 0.02 0.0 0 1 471.27 885.35
  Q 471.54 885.40 471.64 885.36
  A 0.19 0.18 48.9 0 0 471.66 885.02
  Q 470.28 884.27 469.75 884.19
  Q 467.69 883.86 463.27 884.04
  Q 454.61 884.39 448.73 891.23
  A 0.07 0.06 -40.3 0 0 448.72 891.29
  Q 448.73 891.30 448.74 891.31
  A 0.04 0.04 0.0 0 0 448.81 891.33
  Q 453.49 887.36 458.97 887.86
  Q 464.29 888.33 467.36 891.44
  C 474.83 898.99 471.57 910.53 461.71 913.85
  Q 457.16 915.38 453.35 913.64
  Q 444.49 909.58 444.63 899.64
  C 442.32 907.97 445.31 915.47 451.77 920.96
  Q 454.97 923.68 459.12 924.72
  C 475.68 928.87 489.62 913.85 484.15 897.56
  Q 483.44 895.44 481.88 893.16
  C 480.09 890.54 478.92 888.50 475.78 887.40
  A 0.87 0.85 79.3 0 1 475.38 887.12"
/>
<path stroke="#555e63" vector-effect="non-scaling-stroke" d="
  M 444.79 898.67
  Q 444.78 898.96 444.89 899.06
  Q 445.04 898.79 445.02 898.57
  A 0.15 0.10 -57.9 0 0 444.79 898.67"
/>
</g>
<path fill="#aabbc6" d="
  M 1414.00 0.00
  L 1414.00 2222.00
  L 0.00 2222.00
  L 0.00 0.00
  L 1414.00 0.00
  Z
  M 625.53 1345.57
  C 625.50 1346.04 625.24 1347.03 625.48 1347.82
  A 0.07 0.06 -51.7 0 0 625.61 1347.80
  Q 627.53 1330.45 630.62 1321.02
  Q 633.53 1312.15 636.66 1305.88
  Q 638.91 1301.35 643.22 1296.47
  C 647.34 1291.80 654.81 1290.35 660.72 1290.41
  C 721.58 1291.06 775.78 1290.34 840.51 1289.31
  Q 975.61 1287.18 996.71 1286.79
  A 0.71 0.70 84.7 0 1 997.41 1287.38
  C 1002.04 1316.12 1013.32 1343.91 1032.77 1365.53
  C 1053.55 1388.63 1085.03 1404.60 1115.40 1412.10
  Q 1125.97 1414.71 1131.37 1415.86
  Q 1137.53 1417.17 1139.28 1422.98
  C 1141.34 1429.83 1141.54 1437.89 1141.74 1444.75
  Q 1142.51 1470.65 1142.85 1474.30
  C 1143.79 1484.61 1144.91 1495.70 1151.21 1503.68
  C 1154.29 1507.59 1159.83 1508.95 1164.17 1505.97
  C 1170.60 1501.56 1173.60 1492.29 1174.94 1484.69
  Q 1177.38 1470.90 1177.42 1455.24
  C 1177.46 1435.43 1176.68 1413.41 1177.36 1395.58
  Q 1178.01 1378.52 1178.69 1359.02
  A 3.55 3.53 -26.7 0 1 1179.32 1357.14
  Q 1183.19 1351.56 1184.69 1349.23
  C 1208.48 1312.22 1220.81 1263.22 1200.75 1221.79
  A 0.55 0.54 -37.0 0 1 1200.84 1221.20
  C 1222.44 1197.58 1238.37 1167.67 1249.50 1137.67
  Q 1277.30 1062.75 1274.31 982.00
  C 1273.08 948.90 1266.68 913.51 1252.01 883.99
  A 1.54 1.53 74.0 0 0 1250.51 883.15
  L 1228.70 885.09
  A 1.38 1.38 0.0 0 0 1227.52 886.93
  Q 1237.86 915.92 1243.38 944.32
  C 1259.13 1025.35 1248.40 1118.16 1199.45 1186.94
  Q 1193.17 1195.76 1188.21 1201.31
  A 0.44 0.44 0.0 0 1 1187.54 1201.30
  C 1172.84 1183.62 1153.66 1170.12 1133.14 1159.83
  C 1103.35 1144.90 1070.67 1135.20 1038.05 1128.91
  C 986.25 1118.92 931.40 1115.17 878.75 1113.45
  Q 797.18 1110.80 703.00 1112.00
  Q 692.87 1112.12 679.94 1112.71
  A 1.84 1.79 -35.1 0 1 679.19 1112.59
  Q 676.46 1111.54 675.23 1113.48
  Q 670.27 1121.31 669.05 1125.70
  Q 668.34 1128.25 666.68 1131.06
  Q 664.82 1134.22 662.36 1140.88
  C 662.14 1141.45 661.69 1141.66 661.41 1142.19
  Q 658.58 1147.46 655.79 1154.01
  Q 653.54 1159.28 650.13 1165.76
  Q 640.53 1183.97 627.03 1205.85
  Q 624.86 1209.36 620.02 1216.78
  Q 618.29 1219.44 617.30 1220.60
  Q 615.38 1222.88 614.45 1224.37
  Q 612.76 1227.09 610.31 1229.30
  Q 606.72 1232.55 602.28 1235.98
  Q 597.96 1239.31 594.26 1239.77
  Q 589.94 1240.30 585.43 1238.29
  Q 584.09 1237.69 583.69 1237.03
  Q 583.08 1236.03 582.28 1235.40
  Q 578.26 1232.26 577.91 1226.21
  Q 577.89 1225.88 577.54 1225.57
  A 0.95 0.94 16.9 0 1 577.23 1225.00
  C 576.60 1220.51 575.35 1215.58 575.03 1210.75
  Q 574.00 1195.25 574.54 1185.00
  Q 576.17 1154.05 576.77 1138.75
  C 577.35 1123.84 577.35 1111.30 577.91 1098.09
  Q 579.76 1054.27 580.96 1032.50
  Q 584.11 975.69 590.19 915.00
  C 591.34 903.58 591.51 894.77 582.66 887.10
  C 575.50 880.89 565.56 876.78 555.98 873.23
  Q 514.91 858.00 470.24 867.46
  Q 463.43 868.90 458.85 870.23
  Q 428.47 879.04 403.07 897.46
  Q 396.74 902.05 392.94 903.79
  Q 375.64 911.72 359.26 913.84
  Q 328.89 917.79 291.14 917.61
  Q 278.46 917.55 266.58 915.54
  C 247.98 912.39 231.32 907.98 213.96 902.59
  A 0.70 0.69 16.9 0 0 213.08 903.05
  Q 204.62 931.35 183.28 950.84
  A 0.48 0.48 0.0 0 0 183.29 951.55
  C 207.68 973.53 237.10 989.21 267.98 1001.51
  Q 296.52 1012.87 326.18 1021.36
  A 4.51 4.50 41.3 0 0 329.19 1021.17
  Q 340.03 1016.49 347.31 1007.10
  Q 349.72 1003.99 350.97 1002.55
  A 3.55 3.44 -56.8 0 1 355.06 1001.63
  C 359.33 1003.58 355.31 1009.25 353.32 1011.81
  Q 347.44 1019.40 339.26 1024.27
  A 0.47 0.46 34.1 0 0 339.43 1025.13
  Q 346.70 1026.31 355.75 1029.03
  Q 358.37 1029.81 361.09 1030.25
  Q 364.66 1030.81 366.50 1031.32
  Q 371.10 1032.59 374.62 1032.78
  C 379.74 1033.07 387.47 1033.91 393.76 1034.98
  Q 457.17 1045.70 521.42 1045.64
  A 0.19 0.19 0.0 0 1 521.61 1045.84
  Q 518.36 1120.12 516.94 1159.75
  Q 516.75 1164.94 516.37 1168.26
  Q 511.13 1213.14 512.84 1257.49
  Q 513.70 1279.67 516.74 1299.74
  Q 517.60 1305.42 520.89 1321.30
  Q 521.31 1323.30 521.57 1324.16
  Q 522.22 1326.32 522.11 1327.10
  A 0.38 0.37 14.8 0 0 522.35 1327.50
  Q 522.61 1327.61 522.65 1327.81
  Q 524.08 1333.83 524.43 1334.97
  Q 528.44 1347.99 534.66 1359.85
  Q 545.02 1379.57 564.15 1390.58
  C 572.85 1395.59 581.70 1399.32 584.71 1409.31
  Q 586.75 1416.10 587.30 1424.26
  Q 588.39 1440.37 589.12 1452.71
  Q 589.79 1463.89 591.89 1475.26
  C 593.39 1483.33 596.36 1492.90 601.99 1499.39
  Q 606.16 1504.19 610.86 1504.47
  Q 616.16 1504.79 619.78 1499.72
  C 624.39 1493.26 625.62 1482.92 625.83 1475.21
  Q 626.31 1457.07 623.73 1434.01
  C 622.68 1424.64 622.01 1411.63 622.38 1400.66
  Q 622.80 1388.55 623.13 1376.57
  Q 623.16 1375.46 623.52 1372.31
  Q 623.97 1368.23 623.97 1368.06
  Q 623.97 1367.13 624.11 1361.53
  Q 624.14 1360.23 624.80 1355.11
  Q 625.40 1350.40 625.64 1345.67
  A 0.27 0.06 -89.4 0 0 625.53 1345.57
  Z
  M 205.12 899.76
  Q 192.12 895.29 179.50 891.51
  C 171.16 889.01 146.94 881.69 146.31 897.39
  C 145.91 907.39 151.18 916.59 157.32 924.47
  Q 165.08 934.41 176.29 945.19
  A 0.54 0.53 -41.9 0 0 176.99 945.22
  Q 180.67 942.30 184.70 937.70
  Q 199.08 921.29 205.31 900.13
  A 0.30 0.30 0.0 0 0 205.12 899.76
  Z
  M 659.98 1128.84
  Q 660.12 1128.80 660.21 1128.75
  A 0.03 0.03 0.0 0 0 660.24 1128.72
  Q 664.76 1117.81 664.94 1116.84
  Q 665.20 1115.43 668.08 1108.93
  Q 669.49 1105.78 670.71 1100.66
  A 0.57 0.56 -7.3 0 1 671.00 1100.29
  Q 671.41 1100.08 671.58 1099.50
  Q 672.52 1096.12 674.04 1091.58
  C 684.49 1060.36 689.30 1027.49 688.78 995.24
  C 688.51 978.69 683.55 963.51 671.62 951.90
  C 653.77 934.55 628.54 921.97 609.78 905.79
  Q 603.17 900.09 600.55 898.05
  A 2.75 2.59 41.4 0 0 597.02 898.17
  Q 595.64 899.54 595.44 901.94
  Q 590.34 961.74 587.01 1005.51
  C 582.55 1064.19 581.12 1121.18 580.33 1180.25
  Q 580.11 1196.17 581.61 1210.11
  Q 582.49 1218.36 585.05 1224.90
  A 3.22 3.20 -73.9 0 0 585.44 1225.61
  C 587.94 1228.93 591.12 1232.04 595.66 1230.58
  Q 597.17 1230.09 598.47 1229.87
  A 2.65 2.59 -65.7 0 0 599.49 1229.47
  Q 605.95 1225.19 609.83 1220.60
  Q 612.39 1217.57 615.58 1213.45
  Q 618.12 1210.15 620.66 1205.81
  Q 624.03 1200.05 628.32 1192.85
  Q 630.49 1189.20 631.81 1186.53
  Q 633.49 1183.11 635.31 1180.22
  Q 636.95 1177.62 640.33 1170.65
  Q 640.45 1170.38 649.20 1152.96
  Q 651.90 1147.58 654.32 1141.70
  Q 656.93 1135.34 659.51 1130.46
  Q 659.72 1130.05 659.87 1128.97
  A 0.18 0.16 87.6 0 1 659.98 1128.84
  Z
  M 912.71 1305.83
  A 0.65 0.65 0.0 0 0 912.04 1306.42
  Q 911.53 1310.98 912.17 1315.76
  C 917.83 1358.54 946.30 1388.56 983.10 1408.69
  Q 990.69 1412.84 1006.12 1420.93
  C 1014.56 1425.35 1020.22 1429.93 1021.03 1439.77
  C 1022.36 1456.08 1021.58 1479.09 1029.65 1496.21
  C 1031.48 1500.09 1034.48 1504.77 1037.66 1506.33
  C 1050.51 1512.62 1054.21 1490.79 1055.38 1483.16
  Q 1059.89 1453.87 1060.05 1428.83
  C 1060.13 1416.93 1057.85 1406.17 1047.40 1399.07
  Q 1024.58 1383.56 1010.43 1360.31
  Q 1001.35 1345.40 997.09 1335.24
  C 993.17 1325.90 992.14 1316.20 988.87 1306.62
  A 0.96 0.95 -10.7 0 0 987.91 1305.97
  C 963.12 1307.46 938.84 1306.67 912.71 1305.83
  Z
  M 637.33 1340.47
  Q 637.26 1340.44 637.22 1340.34
  A 0.11 0.04 -81.8 0 0 637.14 1340.48
  Q 637.22 1341.13 636.79 1343.27
  Q 627.60 1389.09 632.85 1437.44
  Q 634.10 1448.92 636.34 1458.92
  C 637.75 1465.24 639.88 1472.92 644.27 1477.70
  C 648.19 1481.98 653.36 1480.48 656.09 1476.04
  C 661.15 1467.79 663.09 1456.60 663.66 1446.94
  Q 664.88 1426.57 668.62 1405.85
  Q 674.15 1375.25 681.75 1344.53
  C 684.33 1334.09 687.93 1322.90 691.75 1313.43
  A 0.78 0.78 0.0 0 0 691.04 1312.36
  L 646.25 1311.84
  A 0.69 0.68 8.9 0 0 645.58 1312.32
  L 639.10 1332.62
  A 0.60 0.07 -83.7 0 1 639.08 1332.71
  L 637.38 1340.42
  A 0.06 0.03 -70.7 0 1 637.33 1340.47
  Z"
/>
<path fill="#000000" d="
  M 625.64 1345.67
  Q 625.40 1350.40 624.80 1355.11
  Q 624.14 1360.23 624.11 1361.53
  Q 623.97 1367.13 623.97 1368.06
  Q 623.97 1368.23 623.52 1372.31
  Q 623.16 1375.46 623.13 1376.57
  Q 622.80 1388.55 622.38 1400.66
  C 622.01 1411.63 622.68 1424.64 623.73 1434.01
  Q 626.31 1457.07 625.83 1475.21
  C 625.62 1482.92 624.39 1493.26 619.78 1499.72
  Q 616.16 1504.79 610.86 1504.47
  Q 606.16 1504.19 601.99 1499.39
  C 596.36 1492.90 593.39 1483.33 591.89 1475.26
  Q 589.79 1463.89 589.12 1452.71
  Q 588.39 1440.37 587.30 1424.26
  Q 586.75 1416.10 584.71 1409.31
  C 581.70 1399.32 572.85 1395.59 564.15 1390.58
  Q 545.02 1379.57 534.66 1359.85
  Q 528.44 1347.99 524.43 1334.97
  Q 524.08 1333.83 522.65 1327.81
  Q 522.61 1327.61 522.35 1327.50
  A 0.38 0.37 14.8 0 1 522.11 1327.10
  Q 522.22 1326.32 521.57 1324.16
  Q 521.31 1323.30 520.89 1321.30
  Q 517.60 1305.42 516.74 1299.74
  Q 513.70 1279.67 512.84 1257.49
  Q 511.13 1213.14 516.37 1168.26
  Q 516.75 1164.94 516.94 1159.75
  Q 518.36 1120.12 521.61 1045.84
  A 0.19 0.19 0.0 0 0 521.42 1045.64
  Q 457.17 1045.70 393.76 1034.98
  C 387.47 1033.91 379.74 1033.07 374.62 1032.78
  Q 371.10 1032.59 366.50 1031.32
  Q 364.66 1030.81 361.09 1030.25
  Q 358.37 1029.81 355.75 1029.03
  Q 346.70 1026.31 339.43 1025.13
  A 0.47 0.46 34.1 0 1 339.26 1024.27
  Q 347.44 1019.40 353.32 1011.81
  C 355.31 1009.25 359.33 1003.58 355.06 1001.63
  A 3.55 3.44 -56.8 0 0 350.97 1002.55
  Q 349.72 1003.99 347.31 1007.10
  Q 340.03 1016.49 329.19 1021.17
  A 4.51 4.50 41.3 0 1 326.18 1021.36
  Q 296.52 1012.87 267.98 1001.51
  C 237.10 989.21 207.68 973.53 183.29 951.55
  A 0.48 0.48 0.0 0 1 183.28 950.84
  Q 204.62 931.35 213.08 903.05
  A 0.70 0.69 16.9 0 1 213.96 902.59
  C 231.32 907.98 247.98 912.39 266.58 915.54
  Q 278.46 917.55 291.14 917.61
  Q 328.89 917.79 359.26 913.84
  Q 375.64 911.72 392.94 903.79
  Q 396.74 902.05 403.07 897.46
  Q 428.47 879.04 458.85 870.23
  Q 463.43 868.90 470.24 867.46
  Q 514.91 858.00 555.98 873.23
  C 565.56 876.78 575.50 880.89 582.66 887.10
  C 591.51 894.77 591.34 903.58 590.19 915.00
  Q 584.11 975.69 580.96 1032.50
  Q 579.76 1054.27 577.91 1098.09
  C 577.35 1111.30 577.35 1123.84 576.77 1138.75
  Q 576.17 1154.05 574.54 1185.00
  Q 574.00 1195.25 575.03 1210.75
  C 575.35 1215.58 576.60 1220.51 577.23 1225.00
  A 0.95 0.94 16.9 0 0 577.54 1225.57
  Q 577.89 1225.88 577.91 1226.21
  Q 578.26 1232.26 582.28 1235.40
  Q 583.08 1236.03 583.69 1237.03
  Q 584.09 1237.69 585.43 1238.29
  Q 589.94 1240.30 594.26 1239.77
  Q 597.96 1239.31 602.28 1235.98
  Q 606.72 1232.55 610.31 1229.30
  Q 612.76 1227.09 614.45 1224.37
  Q 615.38 1222.88 617.30 1220.60
  Q 618.29 1219.44 620.02 1216.78
  Q 624.86 1209.36 627.03 1205.85
  Q 640.53 1183.97 650.13 1165.76
  Q 653.54 1159.28 655.79 1154.01
  Q 658.58 1147.46 661.41 1142.19
  C 661.69 1141.66 662.14 1141.45 662.36 1140.88
  Q 664.82 1134.22 666.68 1131.06
  Q 668.34 1128.25 669.05 1125.70
  Q 670.27 1121.31 675.23 1113.48
  Q 676.46 1111.54 679.19 1112.59
  A 1.84 1.79 -35.1 0 0 679.94 1112.71
  Q 692.87 1112.12 703.00 1112.00
  Q 797.18 1110.80 878.75 1113.45
  C 931.40 1115.17 986.25 1118.92 1038.05 1128.91
  C 1070.67 1135.20 1103.35 1144.90 1133.14 1159.83
  C 1153.66 1170.12 1172.84 1183.62 1187.54 1201.30
  A 0.44 0.44 0.0 0 0 1188.21 1201.31
  Q 1193.17 1195.76 1199.45 1186.94
  C 1248.40 1118.16 1259.13 1025.35 1243.38 944.32
  Q 1237.86 915.92 1227.52 886.93
  A 1.38 1.38 0.0 0 1 1228.70 885.09
  L 1250.51 883.15
  A 1.54 1.53 74.0 0 1 1252.01 883.99
  C 1266.68 913.51 1273.08 948.90 1274.31 982.00
  Q 1277.30 1062.75 1249.50 1137.67
  C 1238.37 1167.67 1222.44 1197.58 1200.84 1221.20
  A 0.55 0.54 -37.0 0 0 1200.75 1221.79
  C 1220.81 1263.22 1208.48 1312.22 1184.69 1349.23
  Q 1183.19 1351.56 1179.32 1357.14
  A 3.55 3.53 -26.7 0 0 1178.69 1359.02
  Q 1178.01 1378.52 1177.36 1395.58
  C 1176.68 1413.41 1177.46 1435.43 1177.42 1455.24
  Q 1177.38 1470.90 1174.94 1484.69
  C 1173.60 1492.29 1170.60 1501.56 1164.17 1505.97
  C 1159.83 1508.95 1154.29 1507.59 1151.21 1503.68
  C 1144.91 1495.70 1143.79 1484.61 1142.85 1474.30
  Q 1142.51 1470.65 1141.74 1444.75
  C 1141.54 1437.89 1141.34 1429.83 1139.28 1422.98
  Q 1137.53 1417.17 1131.37 1415.86
  Q 1125.97 1414.71 1115.40 1412.10
  C 1085.03 1404.60 1053.55 1388.63 1032.77 1365.53
  C 1013.32 1343.91 1002.04 1316.12 997.41 1287.38
  A 0.71 0.70 84.7 0 0 996.71 1286.79
  Q 975.61 1287.18 840.51 1289.31
  C 775.78 1290.34 721.58 1291.06 660.72 1290.41
  C 654.81 1290.35 647.34 1291.80 643.22 1296.47
  Q 638.91 1301.35 636.66 1305.88
  Q 633.53 1312.15 630.62 1321.02
  Q 627.53 1330.45 625.61 1347.80
  A 0.07 0.06 -51.7 0 1 625.48 1347.82
  C 625.24 1347.03 625.50 1346.04 625.53 1345.57
  A 0.27 0.06 -89.4 0 1 625.64 1345.67
  Z
  M 475.38 887.12
  Q 474.68 886.27 474.28 886.30
  Q 474.16 886.30 471.26 885.38
  A 0.02 0.02 0.0 0 1 471.27 885.35
  Q 471.54 885.40 471.64 885.36
  A 0.19 0.18 48.9 0 0 471.66 885.02
  Q 470.28 884.27 469.75 884.19
  Q 467.69 883.86 463.27 884.04
  Q 454.61 884.39 448.73 891.23
  A 0.07 0.06 -40.3 0 0 448.72 891.29
  Q 448.73 891.30 448.74 891.31
  A 0.04 0.04 0.0 0 0 448.81 891.33
  Q 453.49 887.36 458.97 887.86
  Q 464.29 888.33 467.36 891.44
  C 474.83 898.99 471.57 910.53 461.71 913.85
  Q 457.16 915.38 453.35 913.64
  Q 444.49 909.58 444.63 899.64
  C 442.32 907.97 445.31 915.47 451.77 920.96
  Q 454.97 923.68 459.12 924.72
  C 475.68 928.87 489.62 913.85 484.15 897.56
  Q 483.44 895.44 481.88 893.16
  C 480.09 890.54 478.92 888.50 475.78 887.40
  A 0.87 0.85 79.3 0 1 475.38 887.12
  Z
  M 444.79 898.67
  Q 444.78 898.96 444.89 899.06
  Q 445.04 898.79 445.02 898.57
  A 0.15 0.10 -57.9 0 0 444.79 898.67
  Z"
/>
<path fill="#aabbc6" d="
  M 475.78 887.40
  C 478.92 888.50 480.09 890.54 481.88 893.16
  Q 483.44 895.44 484.15 897.56
  C 489.62 913.85 475.68 928.87 459.12 924.72
  Q 454.97 923.68 451.77 920.96
  C 445.31 915.47 442.32 907.97 444.63 899.64
  Q 444.49 909.58 453.35 913.64
  Q 457.16 915.38 461.71 913.85
  C 471.57 910.53 474.83 898.99 467.36 891.44
  Q 464.29 888.33 458.97 887.86
  Q 453.49 887.36 448.81 891.33
  A 0.04 0.04 0.0 0 1 448.74 891.31
  Q 448.73 891.30 448.72 891.29
  A 0.07 0.06 -40.3 0 1 448.73 891.23
  Q 454.61 884.39 463.27 884.04
  Q 467.69 883.86 469.75 884.19
  Q 470.28 884.27 471.66 885.02
  A 0.19 0.18 48.9 0 1 471.64 885.36
  Q 471.54 885.40 471.27 885.35
  A 0.02 0.02 0.0 0 0 471.26 885.38
  Q 474.16 886.30 474.28 886.30
  Q 474.68 886.27 475.38 887.12
  A 0.87 0.85 79.3 0 0 475.78 887.40
  Z"
/>
<path fill="#000000" d="
  M 205.12 899.76
  A 0.30 0.30 0.0 0 1 205.31 900.13
  Q 199.08 921.29 184.70 937.70
  Q 180.67 942.30 176.99 945.22
  A 0.54 0.53 -41.9 0 1 176.29 945.19
  Q 165.08 934.41 157.32 924.47
  C 151.18 916.59 145.91 907.39 146.31 897.39
  C 146.94 881.69 171.16 889.01 179.50 891.51
  Q 192.12 895.29 205.12 899.76
  Z"
/>
<path fill="#000000" d="
  M 659.87 1128.97
  Q 659.72 1130.05 659.51 1130.46
  Q 656.93 1135.34 654.32 1141.70
  Q 651.90 1147.58 649.20 1152.96
  Q 640.45 1170.38 640.33 1170.65
  Q 636.95 1177.62 635.31 1180.22
  Q 633.49 1183.11 631.81 1186.53
  Q 630.49 1189.20 628.32 1192.85
  Q 624.03 1200.05 620.66 1205.81
  Q 618.12 1210.15 615.58 1213.45
  Q 612.39 1217.57 609.83 1220.60
  Q 605.95 1225.19 599.49 1229.47
  A 2.65 2.59 -65.7 0 1 598.47 1229.87
  Q 597.17 1230.09 595.66 1230.58
  C 591.12 1232.04 587.94 1228.93 585.44 1225.61
  A 3.22 3.20 -73.9 0 1 585.05 1224.90
  Q 582.49 1218.36 581.61 1210.11
  Q 580.11 1196.17 580.33 1180.25
  C 581.12 1121.18 582.55 1064.19 587.01 1005.51
  Q 590.34 961.74 595.44 901.94
  Q 595.64 899.54 597.02 898.17
  A 2.75 2.59 41.4 0 1 600.55 898.05
  Q 603.17 900.09 609.78 905.79
  C 628.54 921.97 653.77 934.55 671.62 951.90
  C 683.55 963.51 688.51 978.69 688.78 995.24
  C 689.30 1027.49 684.49 1060.36 674.04 1091.58
  Q 672.52 1096.12 671.58 1099.50
  Q 671.41 1100.08 671.00 1100.29
  A 0.57 0.56 -7.3 0 0 670.71 1100.66
  Q 669.49 1105.78 668.08 1108.93
  Q 665.20 1115.43 664.94 1116.84
  Q 664.76 1117.81 660.24 1128.72
  A 0.03 0.03 0.0 0 1 660.21 1128.75
  Q 660.12 1128.80 659.98 1128.84
  A 0.18 0.16 87.6 0 0 659.87 1128.97
  Z"
/>
<path fill="#aabbc6" d="
  M 445.02 898.57
  Q 445.04 898.79 444.89 899.06
  Q 444.78 898.96 444.79 898.67
  A 0.15 0.10 -57.9 0 1 445.02 898.57
  Z"
/>
<path fill="#000000" d="
  M 912.71 1305.83
  C 938.84 1306.67 963.12 1307.46 987.91 1305.97
  A 0.96 0.95 -10.7 0 1 988.87 1306.62
  C 992.14 1316.20 993.17 1325.90 997.09 1335.24
  Q 1001.35 1345.40 1010.43 1360.31
  Q 1024.58 1383.56 1047.40 1399.07
  C 1057.85 1406.17 1060.13 1416.93 1060.05 1428.83
  Q 1059.89 1453.87 1055.38 1483.16
  C 1054.21 1490.79 1050.51 1512.62 1037.66 1506.33
  C 1034.48 1504.77 1031.48 1500.09 1029.65 1496.21
  C 1021.58 1479.09 1022.36 1456.08 1021.03 1439.77
  C 1020.22 1429.93 1014.56 1425.35 1006.12 1420.93
  Q 990.69 1412.84 983.10 1408.69
  C 946.30 1388.56 917.83 1358.54 912.17 1315.76
  Q 911.53 1310.98 912.04 1306.42
  A 0.65 0.65 0.0 0 1 912.71 1305.83
  Z"
/>
<path fill="#000000" d="
  M 637.38 1340.42
  L 639.08 1332.71
  A 0.60 0.07 -83.7 0 0 639.10 1332.62
  L 645.58 1312.32
  A 0.69 0.68 8.9 0 1 646.25 1311.84
  L 691.04 1312.36
  A 0.78 0.78 0.0 0 1 691.75 1313.43
  C 687.93 1322.90 684.33 1334.09 681.75 1344.53
  Q 674.15 1375.25 668.62 1405.85
  Q 664.88 1426.57 663.66 1446.94
  C 663.09 1456.60 661.15 1467.79 656.09 1476.04
  C 653.36 1480.48 648.19 1481.98 644.27 1477.70
  C 639.88 1472.92 637.75 1465.24 636.34 1458.92
  Q 634.10 1448.92 632.85 1437.44
  Q 627.60 1389.09 636.79 1343.27
  Q 637.22 1341.13 637.14 1340.48
  A 0.11 0.04 -81.8 0 1 637.22 1340.34
  Q 637.26 1340.44 637.33 1340.47
  A 0.06 0.03 -70.7 0 0 637.38 1340.42
  Z"
/>
</svg>
