<?xml version="1.0" encoding="utf-8"?>
<!-- Generator: Adobe Illustrator 25.2.3, SVG Export Plug-In . SVG Version: 6.00 Build 0)  -->
<svg version="1.1" id="Layer_2_1_" xmlns="http://www.w3.org/2000/svg" xmlns:xlink="http://www.w3.org/1999/xlink" x="0px" y="0px"
	 viewBox="0 0 1000 1000" style="enable-background:new 0 0 1000 1000;" xml:space="preserve">
<style type="text/css">
	.st0{clip-path:url(#SVGID_2_);}
	.st1{fill:#FEFFA2;}
	.st2{clip-path:url(#SVGID_4_);}
	.st3{fill:#BAA645;}
	.st4{clip-path:url(#SVGID_6_);}
	.st5{clip-path:url(#SVGID_8_);}
	.st6{clip-path:url(#SVGID_10_);}
	.st7{fill:#D3C259;}
	.st8{clip-path:url(#SVGID_12_);}
	.st9{clip-path:url(#SVGID_14_);}
	.st10{clip-path:url(#SVGID_16_);}
	.st11{clip-path:url(#SVGID_18_);}
	.st12{clip-path:url(#SVGID_20_);}
	.st13{fill:#A2AB32;}
	.st14{clip-path:url(#SVGID_22_);}
	.st15{clip-path:url(#SVGID_24_);}
	.st16{fill:#A2AA36;}
	.st17{fill:#7B7E0C;}
	.st18{clip-path:url(#SVGID_26_);}
	.st19{clip-path:url(#SVGID_28_);}
	.st20{clip-path:url(#SVGID_30_);}
	.st21{clip-path:url(#SVGID_32_);}
	.st22{fill:#4F5202;}
	.st23{clip-path:url(#SVGID_34_);}
	.st24{clip-path:url(#SVGID_36_);}
	.st25{fill:#7D7E0C;}
	.st26{clip-path:url(#SVGID_38_);}
	.st27{clip-path:url(#SVGID_40_);}
	.st28{clip-path:url(#SVGID_42_);}
	.st29{clip-path:url(#SVGID_44_);}
	.st30{clip-path:url(#SVGID_46_);}
	.st31{clip-path:url(#SVGID_48_);}
	.st32{clip-path:url(#SVGID_50_);}
	.st33{clip-path:url(#SVGID_52_);}
	.st34{clip-path:url(#SVGID_54_);}
	.st35{clip-path:url(#SVGID_56_);}
	.st36{clip-path:url(#SVGID_58_);}
	.st37{clip-path:url(#SVGID_60_);}
	.st38{clip-path:url(#SVGID_62_);}
	.st39{clip-path:url(#SVGID_64_);}
	.st40{clip-path:url(#SVGID_66_);}
	.st41{clip-path:url(#SVGID_68_);}
	.st42{clip-path:url(#SVGID_70_);}
	.st43{clip-path:url(#SVGID_72_);}
	.st44{clip-path:url(#SVGID_74_);}
	.st45{clip-path:url(#SVGID_76_);}
	.st46{fill:#924126;}
	.st47{fill:#FFA15B;}
	.st48{fill:#E14B4B;}
	.st49{fill:#51081B;}
	.st50{clip-path:url(#SVGID_78_);}
</style>
<g>
	<g>
		<defs>
			<rect id="SVGID_1_" width="1000" height="1000"/>
		</defs>
		<clipPath id="SVGID_2_">
			<use xlink:href="#SVGID_1_"  style="overflow:visible;"/>
		</clipPath>
		<g class="st0">
			<rect class="st1" width="1000" height="1000"/>
		</g>
	</g>
	<g>
		<defs>
			<rect id="SVGID_3_" width="1000" height="1000"/>
		</defs>
		<clipPath id="SVGID_4_">
			<use xlink:href="#SVGID_3_"  style="overflow:visible;"/>
		</clipPath>
		<g class="st2">
			<rect x="118.25" class="st3" width="28.99" height="775.26"/>
		</g>
	</g>
	<g>
		<defs>
			<rect id="SVGID_5_" width="1000" height="1000"/>
		</defs>
		<clipPath id="SVGID_6_">
			<use xlink:href="#SVGID_5_"  style="overflow:visible;"/>
		</clipPath>
		<g class="st4">
			<g>
				<path class="st3" d="M38.21,279.73V-4.72h20v284.53c0,10.82,4.3,21.19,11.95,28.84l73.87,73.87l-14.14,14.14l-73.81-73.81
					C44.63,311.41,38.21,295.9,38.21,279.73z"/>
			</g>
		</g>
	</g>
	<g>
		<defs>
			<rect id="SVGID_7_" width="1000" height="1000"/>
		</defs>
		<clipPath id="SVGID_8_">
			<use xlink:href="#SVGID_7_"  style="overflow:visible;"/>
		</clipPath>
		<g class="st5">
			<g>
				<path class="st3" d="M230.04,31.94v-43.98h-20v44.17c0,10.93-4.34,21.41-12.07,29.14l-73.75,73.75l14.14,14.14l73.61-73.61
					C223.55,63.98,230.04,48.29,230.04,31.94z"/>
			</g>
		</g>
	</g>
	<g>
		<defs>
			<rect id="SVGID_9_" width="1000" height="1000"/>
		</defs>
		<clipPath id="SVGID_10_">
			<use xlink:href="#SVGID_9_"  style="overflow:visible;"/>
		</clipPath>
		<g class="st6">
			<g>
				<rect x="337.93" class="st7" width="57.98" height="775.26"/>
			</g>
			<g>
				<g>
					<path class="st7" d="M371.46,300.44c53.25-30.76,97.91-75.02,129.14-127.97c32.17-54.55,49.18-117.06,49.18-180.77h-18
						c0,120.49-64.88,232.82-169.33,293.16L371.46,300.44z"/>
				</g>
			</g>
		</g>
	</g>
	<g>
		<defs>
			<rect id="SVGID_11_" width="1000" height="1000"/>
		</defs>
		<clipPath id="SVGID_12_">
			<use xlink:href="#SVGID_11_"  style="overflow:visible;"/>
		</clipPath>
		<g class="st8">
			<rect x="900.46" class="st3" width="57.98" height="775.26"/>
		</g>
	</g>
	<g>
		<defs>
			<rect id="SVGID_13_" width="1000" height="1000"/>
		</defs>
		<clipPath id="SVGID_14_">
			<use xlink:href="#SVGID_13_"  style="overflow:visible;"/>
		</clipPath>
		<g class="st9">
			<g>
				<path class="st3" d="M1038.04,294.37v-44.04h-20v44.08c0,10.99-4.37,21.53-12.14,29.3l-73.68,73.68l14.14,14.14l73.65-73.65
					C1031.56,326.33,1038.04,310.68,1038.04,294.37z"/>
			</g>
		</g>
	</g>
	<g>
		<defs>
			<rect id="SVGID_15_" width="1000" height="1000"/>
		</defs>
		<clipPath id="SVGID_16_">
			<use xlink:href="#SVGID_15_"  style="overflow:visible;"/>
		</clipPath>
		<g class="st10">
			<rect x="799.72" class="st7" width="38.15" height="775.26"/>
		</g>
	</g>
	<g>
		<defs>
			<rect id="SVGID_17_" width="1000" height="1000"/>
		</defs>
		<clipPath id="SVGID_18_">
			<use xlink:href="#SVGID_17_"  style="overflow:visible;"/>
		</clipPath>
		<g class="st11">
			<g>
				<path class="st7" d="M724.12,279.53V-8.3h20v287.88c0,10.96,4.36,21.48,12.11,29.23l73.71,73.71l-14.14,14.14l-73.67-73.67
					C730.59,311.46,724.12,295.83,724.12,279.53z"/>
			</g>
		</g>
	</g>
	<g>
		<defs>
			<rect id="SVGID_19_" width="1000" height="1000"/>
		</defs>
		<clipPath id="SVGID_20_">
			<use xlink:href="#SVGID_19_"  style="overflow:visible;"/>
		</clipPath>
		<g class="st12">
			<circle class="st13" cx="958.43" cy="652.18" r="131.43"/>
		</g>
	</g>
	<g>
		<defs>
			<rect id="SVGID_21_" width="1000" height="1000"/>
		</defs>
		<clipPath id="SVGID_22_">
			<use xlink:href="#SVGID_21_"  style="overflow:visible;"/>
		</clipPath>
		<g class="st14">
			<circle class="st13" cx="817.25" cy="718.81" r="82.22"/>
		</g>
	</g>
	<g>
		<defs>
			<rect id="SVGID_23_" width="1000" height="1000"/>
		</defs>
		<clipPath id="SVGID_24_">
			<use xlink:href="#SVGID_23_"  style="overflow:visible;"/>
		</clipPath>
		<g class="st15">
			<g>
				<polygon class="st16" points="128.83,548.27 93.77,558.85 128.83,569.43 128.83,664.98 93.77,675.56 128.83,686.14 
					128.83,781.92 77.47,821.83 26.12,781.92 26.12,626.83 59.98,616.61 26.12,606.39 26.12,508.49 77.47,468.58 128.83,508.49 				
					"/>
			</g>
			<g>
				<polygon class="st17" points="128.83,548.27 93.77,558.85 128.83,569.43 128.83,664.98 93.77,675.56 128.83,686.14 
					128.83,781.92 77.47,821.83 77.47,468.58 128.83,508.49 				"/>
			</g>
		</g>
	</g>
	<g>
		<defs>
			<rect id="SVGID_25_" width="1000" height="1000"/>
		</defs>
		<clipPath id="SVGID_26_">
			<use xlink:href="#SVGID_25_"  style="overflow:visible;"/>
		</clipPath>
		<g class="st18">
			<g>
				<polygon class="st16" points="232.8,579.71 201.77,589.07 232.8,598.44 232.8,786.51 187.34,821.83 141.89,786.51 
					141.89,649.24 171.87,640.19 141.89,631.15 141.89,544.5 187.34,509.17 232.8,544.5 				"/>
			</g>
			<g>
				<polygon class="st17" points="232.8,579.71 201.77,589.07 232.8,598.44 232.8,786.51 187.34,821.83 187.34,509.17 232.8,544.5 
									"/>
			</g>
		</g>
	</g>
	<g>
		<defs>
			<rect id="SVGID_27_" width="1000" height="1000"/>
		</defs>
		<clipPath id="SVGID_28_">
			<use xlink:href="#SVGID_27_"  style="overflow:visible;"/>
		</clipPath>
		<g class="st19">
			<g>
				<polygon class="st16" points="347.07,619.92 314.73,621.88 342.76,638.14 299.45,821.16 247.08,845.07 210.99,800.22 
					242.6,666.65 273.85,664.75 246.76,649.04 266.72,564.72 319.08,540.81 355.18,585.65 				"/>
			</g>
			<g>
				<polygon class="st17" points="347.07,619.92 314.73,621.88 342.76,638.14 299.45,821.16 247.08,845.07 319.08,540.81 
					355.18,585.65 				"/>
			</g>
		</g>
	</g>
	<g>
		<defs>
			<rect id="SVGID_29_" width="1000" height="1000"/>
		</defs>
		<clipPath id="SVGID_30_">
			<use xlink:href="#SVGID_29_"  style="overflow:visible;"/>
		</clipPath>
		<g class="st20">
			<rect y="733.7" class="st13" width="997.52" height="266.3"/>
		</g>
	</g>
	<g>
		<defs>
			<rect id="SVGID_31_" width="1000" height="1000"/>
		</defs>
		<clipPath id="SVGID_32_">
			<use xlink:href="#SVGID_31_"  style="overflow:visible;"/>
		</clipPath>
		<g class="st21">
			<polygon class="st22" points="929.45,734.16 990.39,645.21 987.41,753 1089,716.85 1023.23,802.3 1126.66,832.77 1023.23,863.24 
				1089,948.69 987.41,912.55 990.39,1020.34 929.45,931.38 868.5,1020.34 871.49,912.55 769.89,948.69 835.66,863.24 
				732.23,832.77 835.66,802.3 769.89,716.85 871.49,753 868.5,645.21 			"/>
		</g>
	</g>
	<g>
		<defs>
			<rect id="SVGID_33_" width="1000" height="1000"/>
		</defs>
		<clipPath id="SVGID_34_">
			<use xlink:href="#SVGID_33_"  style="overflow:visible;"/>
		</clipPath>
		<g class="st23">
			<rect y="179.67" class="st17" width="1000" height="73.78"/>
		</g>
	</g>
	<g>
		<defs>
			<rect id="SVGID_35_" width="1000" height="1000"/>
		</defs>
		<clipPath id="SVGID_36_">
			<use xlink:href="#SVGID_35_"  style="overflow:visible;"/>
		</clipPath>
		<g class="st24">
			<path class="st25" d="M1051.87,626.55c-86.68,0-156.95,70.27-156.95,156.95c0,12.85,1.56,25.33,4.47,37.28
				c-5.9-0.67-11.89-1.03-17.96-1.03c-86.68,0-156.95,70.27-156.95,156.95s70.27,156.95,156.95,156.95s156.95-70.27,156.95-156.95
				c0-12.85-1.56-25.33-4.47-37.28c5.9,0.67,11.89,1.03,17.96,1.03c86.68,0,156.95-70.27,156.95-156.95
				C1208.83,696.82,1138.56,626.55,1051.87,626.55z"/>
		</g>
	</g>
	<g>
		<defs>
			<rect id="SVGID_37_" width="1000" height="1000"/>
		</defs>
		<clipPath id="SVGID_38_">
			<use xlink:href="#SVGID_37_"  style="overflow:visible;"/>
		</clipPath>
		<g class="st26">
			<polygon class="st25" points="732.23,614.7 704.07,733.7 760.39,733.7 			"/>
		</g>
	</g>
	<g>
		<defs>
			<rect id="SVGID_39_" width="1000" height="1000"/>
		</defs>
		<clipPath id="SVGID_40_">
			<use xlink:href="#SVGID_39_"  style="overflow:visible;"/>
		</clipPath>
		<g class="st27">
			<polygon class="st25" points="684.77,652.18 665.48,733.7 704.07,733.7 			"/>
		</g>
	</g>
	<g>
		<defs>
			<rect id="SVGID_41_" width="1000" height="1000"/>
		</defs>
		<clipPath id="SVGID_42_">
			<use xlink:href="#SVGID_41_"  style="overflow:visible;"/>
		</clipPath>
		<g class="st28">
			<g>
				<polygon class="st22" points="556.39,866.82 513.09,1000 599.69,1000 				"/>
			</g>
			<g>
				<polygon class="st22" points="642.99,866.82 599.69,1000 686.3,1000 				"/>
			</g>
			<g>
				<polygon class="st22" points="727.78,880.91 686.3,1000 769.26,1000 				"/>
			</g>
			<g>
				<polygon class="st22" points="471.61,880.91 430.13,1000 513.09,1000 				"/>
			</g>
		</g>
	</g>
	<g>
		<defs>
			<rect id="SVGID_43_" width="1000" height="1000"/>
		</defs>
		<clipPath id="SVGID_44_">
			<use xlink:href="#SVGID_43_"  style="overflow:visible;"/>
		</clipPath>
		<g class="st29">
			<g>
				<path class="st25" d="M360.42,816.3c-16.57,0-30.01,13.43-30.01,30.01h60.01C390.43,829.73,377,816.3,360.42,816.3z"/>
			</g>
			<g>
				<g>
					<path class="st25" d="M408.47,847.8h-78.05c-0.83,0-1.5-0.67-1.5-1.5s0.67-1.5,1.5-1.5h78.05c0.83,0,1.5,0.67,1.5,1.5
						S409.3,847.8,408.47,847.8z"/>
				</g>
			</g>
		</g>
	</g>
	<g>
		<defs>
			<rect id="SVGID_45_" width="1000" height="1000"/>
		</defs>
		<clipPath id="SVGID_46_">
			<use xlink:href="#SVGID_45_"  style="overflow:visible;"/>
		</clipPath>
		<g class="st30">
			<g>
				<path class="st25" d="M495.16,816.3c-16.57,0-30.01,13.43-30.01,30.01h60.01C525.17,829.73,511.73,816.3,495.16,816.3z"/>
			</g>
			<g>
				<g>
					<path class="st25" d="M543.21,847.8h-78.05c-0.83,0-1.5-0.67-1.5-1.5s0.67-1.5,1.5-1.5h78.05c0.83,0,1.5,0.67,1.5,1.5
						S544.04,847.8,543.21,847.8z"/>
				</g>
			</g>
		</g>
	</g>
	<g>
		<defs>
			<rect id="SVGID_47_" width="1000" height="1000"/>
		</defs>
		<clipPath id="SVGID_48_">
			<use xlink:href="#SVGID_47_"  style="overflow:visible;"/>
		</clipPath>
		<g class="st31">
			<g>
				<path class="st25" d="M629.9,816.3c-16.57,0-30.01,13.43-30.01,30.01h60.01C659.91,829.73,646.47,816.3,629.9,816.3z"/>
			</g>
			<g>
				<g>
					<path class="st25" d="M677.95,847.8H599.9c-0.83,0-1.5-0.67-1.5-1.5s0.67-1.5,1.5-1.5h78.05c0.83,0,1.5,0.67,1.5,1.5
						S678.77,847.8,677.95,847.8z"/>
				</g>
			</g>
		</g>
	</g>
	<g>
		<defs>
			<rect id="SVGID_49_" width="1000" height="1000"/>
		</defs>
		<clipPath id="SVGID_50_">
			<use xlink:href="#SVGID_49_"  style="overflow:visible;"/>
		</clipPath>
		<g class="st32">
			<g>
				<path class="st25" d="M287.19,763c-16.57,0-30.01,13.43-30.01,30.01h60.01C317.2,776.43,303.77,763,287.19,763z"/>
			</g>
			<g>
				<g>
					<path class="st25" d="M335.24,794.51h-78.05c-0.83,0-1.5-0.67-1.5-1.5s0.67-1.5,1.5-1.5h78.05c0.83,0,1.5,0.67,1.5,1.5
						S336.07,794.51,335.24,794.51z"/>
				</g>
			</g>
		</g>
	</g>
	<g>
		<defs>
			<rect id="SVGID_51_" width="1000" height="1000"/>
		</defs>
		<clipPath id="SVGID_52_">
			<use xlink:href="#SVGID_51_"  style="overflow:visible;"/>
		</clipPath>
		<g class="st33">
			<g>
				<path class="st25" d="M421.93,763c-16.57,0-30.01,13.43-30.01,30.01h60.01C451.94,776.43,438.5,763,421.93,763z"/>
			</g>
			<g>
				<g>
					<path class="st25" d="M469.98,794.51h-78.05c-0.83,0-1.5-0.67-1.5-1.5s0.67-1.5,1.5-1.5h78.05c0.83,0,1.5,0.67,1.5,1.5
						S470.81,794.51,469.98,794.51z"/>
				</g>
			</g>
		</g>
	</g>
	<g>
		<defs>
			<rect id="SVGID_53_" width="1000" height="1000"/>
		</defs>
		<clipPath id="SVGID_54_">
			<use xlink:href="#SVGID_53_"  style="overflow:visible;"/>
		</clipPath>
		<g class="st34">
			<g>
				<path class="st25" d="M556.67,763c-16.57,0-30.01,13.43-30.01,30.01h60.01C586.67,776.43,573.24,763,556.67,763z"/>
			</g>
			<g>
				<g>
					<path class="st25" d="M604.72,794.51h-78.05c-0.83,0-1.5-0.67-1.5-1.5s0.67-1.5,1.5-1.5h78.05c0.83,0,1.5,0.67,1.5,1.5
						S605.54,794.51,604.72,794.51z"/>
				</g>
			</g>
		</g>
	</g>
	<g>
		<defs>
			<rect id="SVGID_55_" width="1000" height="1000"/>
		</defs>
		<clipPath id="SVGID_56_">
			<use xlink:href="#SVGID_55_"  style="overflow:visible;"/>
		</clipPath>
		<g class="st35">
			<path class="st25" d="M428.83,933.3c-19.48,0-36.68,9.76-47,24.64c0.3-3.14,0.46-6.32,0.46-9.54c0-54.8-44.42-99.22-99.22-99.22
				c-38.97,0-72.69,22.47-88.92,55.16c0.01-0.57,0.02-1.14,0.02-1.72c0-80.07-64.91-144.99-144.99-144.99
				S-95.78,822.55-95.78,902.62s64.91,144.99,144.99,144.99c13.49,0,26.54-1.85,38.93-5.29v60.86h82.37v43.7h243v-101.36
				c4.88,1.36,10.02,2.1,15.33,2.1c31.57,0,57.16-25.59,57.16-57.16S460.4,933.3,428.83,933.3z"/>
		</g>
	</g>
	<g>
		<defs>
			<rect id="SVGID_57_" width="1000" height="1000"/>
		</defs>
		<clipPath id="SVGID_58_">
			<use xlink:href="#SVGID_57_"  style="overflow:visible;"/>
		</clipPath>
		<g class="st36">
			<path class="st16" d="M224.92,279.16c0,10.99-5.97,20.58-14.85,25.71c-8.88-5.13-14.85-14.72-14.85-25.71s5.97-20.58,14.85-25.71
				C218.95,258.58,224.92,268.17,224.92,279.16z"/>
		</g>
	</g>
	<g>
		<defs>
			<rect id="SVGID_59_" width="1000" height="1000"/>
		</defs>
		<clipPath id="SVGID_60_">
			<use xlink:href="#SVGID_59_"  style="overflow:visible;"/>
		</clipPath>
		<g class="st37">
			<path class="st16" d="M52.12,34.27c21.16,21.16,35.39,43.84,38.99,59.99c-16.15-3.6-38.84-17.83-59.99-38.99
				C9.97,34.12-4.27,11.43-7.87-4.72C8.29-1.12,30.97,13.12,52.12,34.27z"/>
		</g>
	</g>
	<g>
		<defs>
			<rect id="SVGID_61_" width="1000" height="1000"/>
		</defs>
		<clipPath id="SVGID_62_">
			<use xlink:href="#SVGID_61_"  style="overflow:visible;"/>
		</clipPath>
		<g class="st38">
			<path class="st16" d="M63.39-1.48c20.94,11.77,36.55,26.79,42.36,39.35C92,39.43,71.06,33.9,50.12,22.12
				C29.18,10.35,13.57-4.67,7.76-17.22C21.5-18.79,42.45-13.25,63.39-1.48z"/>
		</g>
	</g>
	<g>
		<defs>
			<rect id="SVGID_63_" width="1000" height="1000"/>
		</defs>
		<clipPath id="SVGID_64_">
			<use xlink:href="#SVGID_63_"  style="overflow:visible;"/>
		</clipPath>
		<g class="st39">
			<path class="st16" d="M26.35,61.05c13.31,20,20.4,40.47,19.87,54.29c-12.95-4.85-29.1-19.29-42.41-39.29s-20.4-40.47-19.87-54.29
				C-3.11,26.62,13.04,41.05,26.35,61.05z"/>
		</g>
	</g>
	<g>
		<defs>
			<rect id="SVGID_65_" width="1000" height="1000"/>
		</defs>
		<clipPath id="SVGID_66_">
			<use xlink:href="#SVGID_65_"  style="overflow:visible;"/>
		</clipPath>
		<g class="st40">
			<path class="st16" d="M311.31-15.87v119.41c20.62-11.91,34.48-34.18,34.48-59.7C345.8,18.31,331.93-3.96,311.31-15.87z"/>
		</g>
	</g>
	<g>
		<defs>
			<rect id="SVGID_67_" width="1000" height="1000"/>
		</defs>
		<clipPath id="SVGID_68_">
			<use xlink:href="#SVGID_67_"  style="overflow:visible;"/>
		</clipPath>
		<g class="st41">
			<g>
				<path class="st3" d="M914.59,168.68c-53.25-30.76-97.91-75.02-129.14-127.97c-32.17-54.55-49.18-117.06-49.18-180.77h18
					c0,120.49,64.88,232.82,169.33,293.16L914.59,168.68z"/>
			</g>
		</g>
	</g>
	<g>
		<defs>
			<rect id="SVGID_69_" width="1000" height="1000"/>
		</defs>
		<clipPath id="SVGID_70_">
			<use xlink:href="#SVGID_69_"  style="overflow:visible;"/>
		</clipPath>
		<g class="st42">
			<path class="st16" d="M261.79-15.87v119.41c20.62-11.91,34.48-34.18,34.48-59.7C296.27,18.31,282.41-3.96,261.79-15.87z"/>
		</g>
	</g>
	<g>
		<defs>
			<rect id="SVGID_71_" width="1000" height="1000"/>
		</defs>
		<clipPath id="SVGID_72_">
			<use xlink:href="#SVGID_71_"  style="overflow:visible;"/>
		</clipPath>
		<g class="st43">
			<path class="st16" d="M181.73,283.14c-7.77,7.77-18.77,10.33-28.68,7.68c-2.65-9.91-0.09-20.91,7.68-28.68
				c7.77-7.77,18.77-10.33,28.68-7.68C192.06,264.37,189.5,275.37,181.73,283.14z"/>
		</g>
	</g>
	<g>
		<defs>
			<rect id="SVGID_73_" width="1000" height="1000"/>
		</defs>
		<clipPath id="SVGID_74_">
			<use xlink:href="#SVGID_73_"  style="overflow:visible;"/>
		</clipPath>
		<g class="st44">
			<rect x="549.78" y="85.78" class="st17" width="24.74" height="106.83"/>
		</g>
	</g>
	<g>
		<defs>
			<rect id="SVGID_75_" width="1000" height="1000"/>
		</defs>
		<clipPath id="SVGID_76_">
			<use xlink:href="#SVGID_75_"  style="overflow:visible;"/>
		</clipPath>
		<g class="st45">
			<g>
				<g>
					<rect x="594.6" y="179.67" class="st46" width="48.14" height="280.98"/>
				</g>
				<g>
					<g>
						<path class="st47" d="M639.71,134.56c-24.91,0-45.11,20.2-45.11,45.11h90.22C684.82,154.76,664.62,134.56,639.71,134.56z"/>
					</g>
					<g>
						<polygon class="st47" points="594.6,179.67 642.74,179.67 642.74,227.81 594.6,195.71 						"/>
					</g>
				</g>
			</g>
			<g>
				<g>
					<path class="st47" d="M562.91,671.35c-33.13,0-60.09-26.96-60.09-60.09c0-5.52,4.48-10,10-10s10,4.48,10,10
						c0,22.1,17.98,40.09,40.09,40.09S603,633.37,603,611.27V451.61c0-5.52,4.48-10,10-10s10,4.48,10,10v159.65
						C623,644.4,596.04,671.35,562.91,671.35z"/>
				</g>
			</g>
			<g>
				<g>
					<path class="st47" d="M457.7,134.56c-24.91,0-45.11,20.2-45.11,45.11h90.22C502.81,154.76,482.61,134.56,457.7,134.56z"/>
				</g>
				<g>
					<rect x="412.59" y="179.67" class="st46" width="32.49" height="252.61"/>
				</g>
				<g>
					<polygon class="st47" points="412.59,179.67 445.08,179.67 445.08,212.16 412.59,190.5 					"/>
				</g>
			</g>
			<g>
				<g>
					<path class="st47" d="M314.47,722.81c24.91,0,45.11-20.2,45.11-45.11h-90.22C269.36,702.61,289.56,722.81,314.47,722.81z"/>
				</g>
				<g>
					<rect x="327.09" y="425.09" class="st46" width="32.49" height="252.61"/>
				</g>
				<g>
					<polygon class="st47" points="359.58,677.7 327.09,677.7 327.09,645.21 359.58,666.87 					"/>
				</g>
			</g>
			<g>
				<g>
					<path class="st47" d="M642.74,442.24H327.09v-57.76h257.89C616.88,384.48,642.74,410.34,642.74,442.24L642.74,442.24z"/>
				</g>
				<g>
					<path class="st46" d="M327.09,442.24h315.65V500H384.85C352.95,500,327.09,474.14,327.09,442.24L327.09,442.24z"/>
				</g>
			</g>
			<g>
				<g>
					<g>
						<circle class="st47" cx="285.02" cy="372.17" r="20.64"/>
					</g>
					<g>
						<circle class="st47" cx="412.59" cy="372.17" r="20.64"/>
					</g>
				</g>
				<g>
					<path class="st46" d="M285.02,314.7v71.22c0,35.23,28.56,63.78,63.78,63.78l0,0c35.23,0,63.78-28.56,63.78-63.78V314.7H285.02z
						"/>
				</g>
				<g>
					<path class="st47" d="M314.47,409.59V373.2c0-18.96,15.37-34.34,34.34-34.34l0,0c18.96,0,34.34,15.37,34.34,34.34v36.39
						c0,18.96-15.37,34.34-34.34,34.34l0,0C329.84,443.92,314.47,428.55,314.47,409.59z"/>
				</g>
				<g>
					<path class="st47" d="M381.58,375.1h-65.54c-10.91,0-19.76-8.85-19.76-19.76l0,0c0-10.91,8.85-19.76,19.76-19.76h65.54
						c10.91,0,19.76,8.85,19.76,19.76l0,0C401.34,366.26,392.49,375.1,381.58,375.1z"/>
				</g>
				<g>
					<path class="st48" d="M348.81,391.39c-14.6,0-26.44,11.84-26.44,26.44h52.88C375.25,403.23,363.41,391.39,348.81,391.39z"/>
				</g>
				<g>
					<g>
						<circle class="st49" cx="317.29" cy="355.34" r="13.4"/>
					</g>
					<g>
						<circle class="st49" cx="380.32" cy="355.34" r="13.4"/>
					</g>
				</g>
			</g>
			<g>
				<g>
					<path class="st46" d="M783.21,432.6l-86.09,86.09l-71.86-71.86l-34.04,34.04l71.86,71.86l0,0l0,0c18.8,18.8,49.28,18.8,68.08,0
						l0,0l86.09-86.09L783.21,432.6z"/>
				</g>
				<g>
					<g>
						<path class="st47" d="M783.01,496.41c17.62,17.62,46.18,17.62,63.8,0l-63.8-63.8C765.39,450.23,765.39,478.79,783.01,496.41z"
							/>
					</g>
					<g>
						<polygon class="st47" points="765.67,450.3 799.72,484.34 765.67,518.38 754.33,461.65 						"/>
					</g>
					<g>
						<path class="st47" d="M758.43,473.05L758.43,473.05c-4.38-4.38-4.38-11.48,0-15.86l32.11-32.11c4.38-4.38,11.48-4.38,15.86,0
							l0,0c4.38,4.38,4.38,11.48,0,15.86l-32.11,32.11C769.91,477.43,762.81,477.43,758.43,473.05z"/>
					</g>
				</g>
			</g>
		</g>
	</g>
	<g>
		<defs>
			<rect id="SVGID_77_" width="1000" height="1000"/>
		</defs>
		<clipPath id="SVGID_78_">
			<use xlink:href="#SVGID_77_"  style="overflow:visible;"/>
		</clipPath>
		<g class="st50">
			<path class="st16" d="M585.58,91.22c13.03-13.03,31.47-17.32,48.07-12.87c4.44,16.61,0.15,35.05-12.87,48.07
				c-13.03,13.03-31.47,17.32-48.07,12.87C568.26,122.69,572.55,104.24,585.58,91.22z"/>
		</g>
	</g>
</g>
</svg>
