<?xml version="1.0" encoding="utf-8"?>
<!-- Generator: Adobe Illustrator 22.1.0, SVG Export Plug-In . SVG Version: 6.00 Build 0)  -->
<svg version="1.1" id="Layer_1" xmlns="http://www.w3.org/2000/svg" xmlns:xlink="http://www.w3.org/1999/xlink" x="0px" y="0px"
	 viewBox="0 0 2000 2000" style="enable-background:new 0 0 2000 2000;" xml:space="preserve">
<style type="text/css">
	.st0{fill:#FFF6E6;}
	.st1{fill:#E95C32;}
	.st2{fill:#FFFFFF;}
	.st3{fill:#D33211;}
</style>
<rect x="0" class="st0" width="2000" height="2000"/>
<g>
	<path class="st1" d="M1713.4,700.2c0.2,31-2,61.9-6.2,92.6c-4.5,32.2-11.2,64.1-19.8,95.5c-9.1,33.4-20.4,66.3-33.3,98.5
		c-13.9,34.6-29.6,68.4-46.9,101.5c-18.6,35.7-38.8,70.5-60.4,104.5c-23.2,36.7-48,72.5-73.9,107.4c-27.9,37.7-57.2,74.5-87.5,110.4
		c-32.6,38.7-66.4,76.5-101,113.4c-37.2,39.7-75.5,78.4-114.5,116.4c-20.6,20-41.3,39.7-62.3,59.3c-10.5,9.8-47.3,46.2-58.5,44.8
		c-12.5-1.6-24.4-9.1-35.7-14.2c-29.9-13.7-58.5-30-86.1-47.8c-32-20.7-62.5-43.5-92-67.5c-33.9-27.6-66.5-56.9-98-87.2
		c-35.8-34.4-70.3-70.2-103.8-106.8c-37.7-41.2-74.2-83.5-109.8-126.6c-0.2-0.3-0.4-0.5-0.6-0.8c-26.1-35.3-50.8-71.5-73.7-108.9
		c-82-133.7-144.2-285.4-159.7-442.6c-12.7-129.5,9.3-281.1,112.2-371.4c102.2-89.7,247.1-101.6,359.3-23.2
		c86.1,60.1,141.4,155.5,181.2,252.7c2.5-9.6,5.3-18.9,8.6-27.8c76.4-208,334.1-389.9,555.6-287.5c54.7,25.3,99.2,71.8,130.7,122.9
		c38.1,61.7,57.9,133.4,69,204.5C1711,641.4,1713.3,670.8,1713.4,700.2z"/>
	<path d="M1076.5,1022.8c-10.3,0-18.7,8.4-18.6,18.7c0,32.7-1.7,68.3-15.6,98.6c-13.6,29.7-49.7,51.7-77,24.9
		c-24.4-23.9-33.4-59.6-34.1-92.9c-0.2-8.5,0.2-16.9,1.3-25.3c1.3-10.2-6-19.6-16.2-20.8c-10.2-1.3-19.6,6-20.8,16.2
		c-5.2,41.2,1.8,80.6,20.8,118.1c0,0,0.3,0.5,0.3,0.5c12.1,22.3,28.9,42.8,53.8,51c30.1,9.8,63.3-0.5,84.9-23
		c19-19.8,28.5-47,33.8-73.5c4.8-24.2,6.3-49.1,6.3-73.8C1095.1,1031.1,1086.8,1022.8,1076.5,1022.8z"/>
	<g>
		<path d="M810.1,827.5c-41.6-55.2-121-78.4-183.7-45.5c-64,33.6-103.2,108.1-74.7,178.2c7,17.2,17.3,32.9,29.2,47.1
			c0.2,0.2,0.4,0.4,0.6,0.6c27.5,29.6,64.8,43.9,111.9,42.6h0.2c35.7-1.2,67.3-13.9,94.8-37.9l0.4-0.3
			C842.3,964.2,854.3,886.3,810.1,827.5z M801.3,915.8c-4.1,26.6-16.7,49.5-37.8,69c-20.7,18.1-44.5,27.6-71.3,28.5
			c-35.6,0.9-63.3-9.2-83.2-30.4c-27.9-33.3-40.8-78.1-17.7-117.8c10.7-18.4,27-33.1,45.1-44.1c18.5-11.3,39.6-19.3,61.3-19.2
			C753.5,802.1,804.8,861,801.3,915.8z"/>
		<path class="st2" d="M801.3,915.8c-4.1,26.6-16.7,49.5-37.8,69c-20.7,18.1-44.5,27.6-71.3,28.5c-35.6,0.9-63.3-9.2-83.2-30.4
			c-27.9-33.3-40.8-78.1-17.7-117.8c10.7-18.4,27-33.1,45.1-44.1c18.5-11.3,39.6-19.3,61.3-19.2C753.5,802.1,804.8,861,801.3,915.8z
			"/>
		<path d="M751.5,791.1c-3.2-2.2-6.4-2.7-9.3-2.2c-7.5-5.1-17.7-4.2-24.1,2.6c-28.6,30.4-34.2,70.1-16.9,119.1h0
			c0.1,0.3,0.2,0.6,0.4,0.9c14,33.6,44.6,55.5,92,65.6c10.1,2.1,20-4.3,22.1-14.4c0.3-1.6,0.4-3.2,0.3-4.8
			C834.2,896.2,804.1,826.9,751.5,791.1z"/>
		<path d="M598.8,819c-1.5-3.4-31.1-29.5-38.2-36.3c-7.4-7.1-19.2-6.9-26.4,0.5c-7.1,7.4-6.9,19.2,0.5,26.4
			c11.5,11.1,33.5,30.6,37.1,32.9c8.7,5.5,20.2,2.9,25.7-5.8C600.9,831.4,601.4,824.6,598.8,819z"/>
		<path d="M658.4,777.4c-2-6.1-5.5-16.5-10.6-31.2c-1.5-4.4-2.8-7.6-3.8-9.7c-0.9-1.8-1.8-3.3-2.8-4.6c-6.3-8.1-18.1-9.6-26.2-3.2
			c-14.5,11.3-2.1,30.9,2.4,44c1.9,5.5,3.7,10.9,5.5,16.4c3.2,9.8,13.7,15.2,23.5,12C656.2,797.7,661.5,787.2,658.4,777.4z"/>
		<path d="M724.8,716.2c-10.1-2-19.9,4.5-22,14.6c-2.5,12.6-4.2,25.6-5.4,38.4c-0.6,6.2-0.7,12.5,3.1,17.7c3.3,4.7,8.7,7.6,14.4,7.8
			c6.5,0.3,12.8-2.9,16.4-8.3c4-6,3.3-13.6,4.1-20.5c1-8.6,2.4-17.1,3.6-25.7c0.1-0.8,0.2-1.5,0.4-2.1
			C741.5,728.1,734.9,718.2,724.8,716.2z"/>
		<path d="M803.5,734.4c-9.8-3.3-20.4,2-23.6,11.7c-3.4,10.1-10.3,23.3-20.6,39.7c-5.5,8.7-2.9,20.2,5.8,25.8
			c8.7,5.5,20.2,2.9,25.8-5.8c12-18.9,20.1-34.8,24.5-47.8C818.6,748.3,813.3,737.7,803.5,734.4z"/>
	</g>
	<g>
		<path d="M1425.9,827.5c-41.6-55.2-121-78.4-183.7-45.5c-64.1,33.6-103.2,108.1-74.7,178.2c7,17.2,17.2,32.9,29.2,47.1
			c0.2,0.2,0.4,0.4,0.5,0.6c27.5,29.6,64.9,43.9,111.9,42.6h0.1c35.7-1.2,67.3-13.9,94.8-37.9l0.4-0.3
			C1458.1,964.2,1470.2,886.3,1425.9,827.5z M1417.2,915.8c-4.2,26.6-16.7,49.5-37.8,69c-20.8,18.1-44.5,27.6-71.3,28.5
			c-35.6,0.9-63.4-9.2-83.2-30.4c-27.9-33.3-40.8-78.1-17.7-117.8c10.7-18.4,27-33.1,45.1-44.1c18.5-11.3,39.6-19.3,61.2-19.2
			C1369.3,802.1,1420.6,861,1417.2,915.8z"/>
		<path class="st2" d="M1417.2,915.8c-4.2,26.6-16.7,49.5-37.8,69c-20.8,18.1-44.5,27.6-71.3,28.5c-35.6,0.9-63.4-9.2-83.2-30.4
			c-27.9-33.3-40.8-78.1-17.7-117.8c10.7-18.4,27-33.1,45.1-44.1c18.5-11.3,39.6-19.3,61.2-19.2
			C1369.3,802.1,1420.6,861,1417.2,915.8z"/>
		<path d="M1367.4,791.1c-3.2-2.2-6.4-2.7-9.3-2.2c-7.5-5.1-17.7-4.2-24.1,2.6c-28.6,30.4-34.2,70.1-16.9,119.1h0
			c0.1,0.3,0.2,0.6,0.4,0.9c14,33.6,44.6,55.5,92,65.6c10.1,2.1,20-4.3,22.1-14.4c0.3-1.6,0.4-3.2,0.3-4.8
			C1450,896.2,1419.9,826.9,1367.4,791.1z"/>
		<path d="M1214.7,819c-1.5-3.4-31.1-29.5-38.2-36.3c-7.4-7.1-19.2-6.9-26.4,0.5s-6.9,19.2,0.5,26.4c11.5,11.1,33.5,30.6,37.1,32.9
			c8.7,5.5,20.2,2.9,25.7-5.8C1216.8,831.4,1217.2,824.6,1214.7,819z"/>
		<path d="M1274.2,777.4c-2-6.1-5.5-16.5-10.6-31.2c-1.5-4.4-2.8-7.6-3.8-9.7c-0.9-1.8-1.8-3.3-2.8-4.6c-6.3-8.1-18.1-9.6-26.2-3.2
			c-14.5,11.3-2.1,30.9,2.4,44c1.9,5.5,3.7,10.9,5.5,16.4c3.2,9.8,13.7,15.2,23.5,12C1272,797.7,1277.4,787.2,1274.2,777.4z"/>
		<path d="M1340.7,716.2c-10.1-2-19.9,4.5-22,14.6c-2.5,12.6-4.2,25.6-5.4,38.4c-0.6,6.2-0.7,12.5,3.1,17.7
			c3.3,4.7,8.7,7.6,14.4,7.8c6.5,0.3,12.8-2.9,16.4-8.3c4-6,3.3-13.6,4.1-20.5c1-8.6,2.4-17.1,3.6-25.7c0.1-0.8,0.2-1.5,0.4-2.1
			C1357.3,728.1,1350.8,718.2,1340.7,716.2z"/>
		<path d="M1419.4,734.4c-9.8-3.3-20.4,2-23.6,11.7c-3.4,10.1-10.3,23.3-20.6,39.7c-5.5,8.7-2.9,20.2,5.8,25.8
			c8.7,5.5,20.2,2.9,25.8-5.8c12-18.9,20.1-34.8,24.5-47.8C1434.4,748.3,1429.1,737.7,1419.4,734.4z"/>
	</g>
</g>
</svg>
