<?xml version="1.0" encoding="utf-8"?>
<!-- Generator: Adobe Illustrator 24.0.0, SVG Export Plug-In . SVG Version: 6.00 Build 0)  -->
<svg version="1.1" id="Layer_1" xmlns="http://www.w3.org/2000/svg" xmlns:xlink="http://www.w3.org/1999/xlink" x="0px" y="0px"
	 viewBox="0 0 500 500" style="enable-background:new 0 0 500 500;" xml:space="preserve">
<style type="text/css">
	.st0{fill:#F5004F;}
	.st1{fill:#FFFFFF;}
	.st2{fill:#FFAF00;}
	.st3{fill:#7C00FE;}
	.st4{fill:#F9C35F;}
</style>
<g>
	<path class="st2" d="M273.94,402.54l9.53,68.65c-6.39,1.53-10.42,7.55-9.53,13.35c1.03,6.73,8.27,10.37,14.3,9.53
		c5.9-0.82,11.5-6.04,11.12-12.39c-0.27-4.54-3.52-8.67-8.26-10.49l-3.81-71.82c3.93-0.63,8.8-1.75,14.14-3.81
		c5.11-1.97,9.3-4.27,12.55-6.36c5.83,14.3,11.65,28.6,17.48,42.9c-3.1,3.5-3.84,8.43-1.91,12.39c2.29,4.69,7.91,7.21,13.35,5.72
		c6.05-1.5,9.54-7.92,7.63-13.67c-1.91-5.74-8.56-8.79-14.3-6.36l-14.3-45.13c6.5-2.39,14.31-5.9,22.56-11.12
		c6.21-3.93,11.37-8.01,15.57-11.76l28.92,47.04c-4.15,5.87-3.05,13.51,1.59,17.16c4.87,3.84,11.76,1.79,15.57-1.27
		c4.01-3.21,7.86-10.12,4.45-15.57c-2.68-4.28-8.9-6.15-14.62-3.81l-28.92-49.58c4.45-3.97,10.34-10.1,15.57-18.75
		c5.41-8.95,8.11-17.3,9.53-23.2c16.95,4.82,33.9,9.64,50.85,14.46c0.12,0.46,2.07,7.69,8.58,9.69c6.46,1.99,13.62-2.35,15.89-8.58
		c2.36-6.46-0.44-15.2-7.31-17.16c-5.58-1.59-12.32,1.74-14.94,8.26l-50.85-19.39c-0.07-4.68-0.35-9.79-0.95-15.25
		c-0.57-5.16-1.34-9.94-2.22-14.3l44.81-6.36c3.01,4.34,8.07,6.33,12.39,5.08c5.87-1.69,7.89-8.65,7.31-13.35
		c-0.91-7.33-8.79-14.27-15.57-12.08c-4.41,1.43-7.58,6.47-7.79,12.39c-14.14,1.38-28.28,2.75-42.43,4.13
		c-0.4-5.9-1.09-12.34-2.22-19.23c-1.07-6.5-2.39-12.5-3.81-17.96c14.72-2.33,29.45-4.66,44.17-6.99c0.44,0.32,5.71,4.08,11.76,1.91
		c4.94-1.77,8.31-6.76,8.26-12.39c-2.94-6.17-9.76-8.81-14.94-6.67c-3.8,1.57-6.4,5.58-6.67,10.17l-46.72,4.45
		c-1.61-6.72-3.96-14.49-7.47-22.88c-3.19-7.63-6.68-14.2-10.01-19.7c18.11-9.53,36.23-19.07,54.34-28.6
		c5.27,5.6,12.67,7.81,18.11,5.4c8.19-3.62,9.41-16.57,4.77-24.47c-3.07-5.22-10.27-10.92-17.16-8.58
		c-6.63,2.25-11.08,11.32-7.94,20.66l-54.98,25.11c-2.6-5.77-6.38-12.82-11.92-20.18c-4.74-6.31-9.59-11.29-13.82-15.1
		c12.39-18.01,24.79-36.02,37.18-54.03c7.45,5.74,15.93,7.16,20.02,3.81c5.61-4.58,2.75-17.88-4.77-24.15
		c-5.37-4.48-15.57-7.42-20.02-2.22c-2.98,3.47-2.72,9.81,0.64,15.57l-42.9,51.8l-27.65-18.43l17.48-36.86
		c4.96,0.67,9.68-2.02,11.44-6.36c1.98-4.88-0.09-11.03-4.77-13.03c-5.41-2.31-11.98,1.92-13.35,7.31
		c-1.16,4.55,1.77,8.46,2.22,9.06c-7.31,11.92-14.62,23.84-21.93,35.75c-6.8-2.97-15.8-6.15-26.7-8.1
		c-12.39-2.22-23.14-2.11-31.14-1.43c-2.33-18.33-4.66-36.65-6.99-54.98c7.93-1.73,13.16-8.54,12.71-15.25
		c-0.57-8.4-9.79-12.98-16.53-13.03c-10.47-0.08-20.85,10.7-18.43,19.39c1.45,5.2,7.32,9.03,14.3,10.17l1.91,54.03
		c-8.53,1.9-18.85,4.96-30.03,10.01c-13.85,6.25-24.68,13.6-32.57,19.86c-11.12-12.82-22.25-25.64-33.37-38.45
		c3.72-5.57,4.43-12.06,1.59-15.89c-4.38-5.92-16.52-4.54-21.93,2.22c-3.87,4.85-5.21,13.63,0,18.43c3.33,3.07,8.56,3.81,13.51,2.07
		c10.43,12.34,20.87,24.68,31.3,37.02c-6.56,4.55-15.72,12.02-24.15,23.36c-7.7,10.36-12.09,20.29-14.62,27.49
		c-11.55-3.92-23.09-7.84-34.64-11.76c1.92-8-3.01-15.67-9.85-17.16c-7.69-1.68-14.32,5.22-15.89,11.76
		c-1.55,6.43,1.1,15.39,7.95,17.16c4.55,1.17,9.87-1.1,13.35-5.72L102,179.76c-1.83,4.39-3.7,9.77-5.08,16.05
		c-1.57,7.08-2.12,13.41-2.22,18.59c-14.2,0.64-28.39,1.27-42.59,1.91c-2.31-5.4-8.06-8.14-13.03-6.67
		c-4.5,1.33-8.37,6.11-7.31,11.12c0.97,4.56,5.6,7.32,9.85,7.31c5.53-0.02,8.66-4.72,8.9-5.09l42.59,0.32
		c-1.33,3.92-2.71,9.27-3.18,15.73c-0.48,6.62,0.17,12.24,0.95,16.37c-16.63,5.72-33.26,11.44-49.9,17.16
		c-2.83-5.19-8.34-7.68-12.71-6.36c-5.87,1.78-7.37,9.73-6.04,14.94c1.08,4.21,4.94,10.27,10.81,9.85
		c5.04-0.36,9.61-5.36,9.53-11.76l47.35-14.62c-0.05,6.57,0.23,13.93,1.11,21.93c0.94,8.5,2.37,16.17,3.97,22.88
		c-14.94,8.16-29.87,16.31-44.81,24.47c-0.42-0.43-4.89-4.92-9.85-3.81c-6.12,1.37-10.04,10.61-6.36,16.84
		c2.48,4.19,8.13,6.58,13.35,4.77c4.64-1.61,7.75-6.12,7.63-11.12l41.95-20.66c2.85,8.14,7.79,19.41,16.53,31.14
		c7.83,10.51,16.12,17.94,22.56,22.88c-6.14,9.75-12.29,19.49-18.43,29.24c-7.66-2.62-14.82-3.04-16.84,0
		c-2.64,3.97,3.39,14.01,11.6,17c1.31,0.48,8.65,3.15,12.24-1.11c2.41-2.87,2.3-7.88-0.64-12.08l20.02-26.7
		c2.44,2.15,5.29,4.42,8.58,6.67c3.6,2.47,7.05,4.45,10.17,6.04c-3.71,19.07-7.42,38.14-11.12,57.2c-4.05,0.6-7.13,3.53-7.63,6.99
		c-0.66,4.61,3.55,8.29,7.31,9.22c5.03,1.24,11.12-1.99,12.08-7.31c0.66-3.65-1.22-7.58-4.77-9.85l10.81-53.71
		c4.32,1.32,9.05,2.57,14.14,3.65c5.96,1.27,11.55,2.13,16.68,2.7c-0.53,24.36-1.06,48.73-1.59,73.09
		c-7.01,1.02-11.82,7.3-11.12,13.67c0.74,6.68,7.24,10.76,13.03,10.81c7.09,0.06,13.76-5.92,13.67-13.03
		c-0.06-4.88-3.31-9.48-8.26-11.76l6.67-70.23c8.25,0.9,17.58,1.45,27.81,1.27C253.01,405.49,264.29,404.21,273.94,402.54z"/>
	<g>
		<g>
			<g>
				<ellipse class="st1" cx="289.03" cy="174.04" rx="28.13" ry="27.65"/>
				<path d="M301.9,176.26c0,5.97-4.91,10.81-10.96,10.81c-6.06,0-10.96-4.84-10.96-10.81c0-5.97,4.91-10.81,10.96-10.81
					C296.99,165.46,301.9,170.29,301.9,176.26z"/>
			</g>
			<g>
				<ellipse class="st1" cx="194.01" cy="184.21" rx="28.13" ry="27.65"/>
				<ellipse cx="195.92" cy="186.43" rx="10.96" ry="10.81"/>
			</g>
		</g>
		<g>
			<path d="M283.09,260.91c-8.2,8.58-19.68,15.71-32.34,16.25c-9.92,0.42-19.37-3.28-27.23-8.58c-13.88-9.34-22.73-23.68-20.14-29.1
				c1.26-2.63,5.3-3.43,9.42-3.58c3.05,0.08,6.18,0.11,9.42,0.11h0.04c8.01-0.04,16.51-0.38,25.59-1.18
				c11.21-0.99,21.62-2.52,31.12-4.31h0.04c3.13-0.61,6.18-1.26,9.11-1.91c2.71,0.72,5.53,2.02,6.79,4.54
				C297.73,238.83,292.66,250.88,283.09,260.91z"/>
			<path class="st1" d="M278.97,230.52c-9.42,6.86-27.15,16.67-45.8,10.87c-2.94-0.95-6.79-2.52-10.91-5.38
				c8.01-0.04,16.51-0.38,25.59-1.18C259.06,233.84,269.47,232.31,278.97,230.52z"/>
			<path class="st0" d="M283.09,260.91c-8.2,8.58-19.68,15.71-32.34,16.25c-9.92,0.42-19.37-3.28-27.23-8.58
				c6.22-6.25,17.2-11.97,27.99-13.5C262.8,253.51,275.23,256.34,283.09,260.91z"/>
		</g>
	</g>
	<g>
		<path class="st0" d="M264.72,345.49c0,3.25,2.06,5.88,4.61,5.88c2.55,0,4.61-2.63,4.61-5.88c0-3.25-2.06-5.88-4.61-5.88
			C266.78,339.61,264.72,342.25,264.72,345.49z"/>
		<path class="st0" d="M310.8,310.69c0,4.21,2.92,7.63,6.52,7.63c3.6,0,6.51-3.41,6.51-7.63c0-4.21-2.92-7.63-6.51-7.63
			C313.72,303.07,310.8,306.48,310.8,310.69z"/>
		<ellipse class="st0" cx="344.33" cy="300.05" rx="6.2" ry="4.29"/>
		<ellipse class="st0" cx="127.91" cy="230.61" rx="5.24" ry="4.77"/>
		<path class="st0" d="M189.08,120.01c0,0.53-1.42,0.95-3.18,0.95c-1.76,0-3.18-0.43-3.18-0.95c0-0.53,1.42-0.95,3.18-0.95
			C187.66,119.06,189.08,119.49,189.08,120.01z"/>
		<path class="st0" d="M160.16,344.86c0,3.6-4.77,6.51-10.65,6.51c-5.88,0-10.65-2.92-10.65-6.51c0-3.6,4.77-6.52,10.65-6.52
			C155.4,338.34,160.16,341.26,160.16,344.86z"/>
		<ellipse class="st0" cx="188.13" cy="306.8" rx="10.96" ry="8.34"/>
	</g>
</g>
</svg>
