<?xml version="1.0" encoding="UTF-8"?>
<svg xmlns="http://www.w3.org/2000/svg" viewBox="0 0 938.89 1066.04">
  <defs>
    <style>
      .cls-1 {
        fill: #d38352;
      }

      .cls-2 {
        fill: #c6948a;
      }

      .cls-3 {
        fill: #d18052;
      }

      .cls-4 {
        fill: #937a77;
      }

      .cls-5 {
        fill: #739fbe;
      }

      .cls-6 {
        fill: #dec4c4;
      }

      .cls-7 {
        fill: #dfc3ba;
      }

      .cls-8 {
        fill: #ddc5cb;
      }

      .cls-9 {
        fill: #92abb9;
      }

      .cls-10 {
        fill: #b29793;
      }

      .cls-11 {
        fill: #618db1;
      }

      .cls-12 {
        fill: #d3c0a9;
      }

      .cls-13 {
        fill: #d1a496;
      }

      .cls-14 {
        fill: #1d373e;
      }

      .cls-15 {
        fill: #c98d7c;
      }

      .cls-16 {
        fill: #d3a597;
      }

      .cls-17 {
        fill: #6f9193;
      }

      .cls-18 {
        fill: #d5a89a;
      }

      .cls-19 {
        fill: #a2b3bd;
      }

      .cls-20 {
        fill: #d8bbb7;
      }

      .cls-21 {
        fill: #9eaf9e;
      }

      .cls-22 {
        fill: #ddc3ba;
      }

      .cls-23 {
        fill: #bf8070;
      }

      .cls-24 {
        fill: #c28671;
      }

      .cls-25 {
        fill: #cb927e;
      }

      .cls-26 {
        fill: #ce988f;
      }

      .cls-27 {
        fill: #c87847;
      }

      .cls-28 {
        fill: #a5b2bb;
      }

      .cls-29 {
        fill: #ce7f53;
      }

      .cls-30 {
        fill: #958ca6;
      }

      .cls-31 {
        fill: #a9b8be;
      }

      .cls-32 {
        fill: #d38a62;
      }

      .cls-33 {
        fill: #304331;
      }

      .cls-34 {
        fill: #bf8e81;
      }

      .cls-35 {
        fill: #ac8b84;
      }

      .cls-36 {
        fill: #5884aa;
      }

      .cls-37 {
        fill: #86a5b8;
      }

      .cls-38 {
        fill: #c8918d;
      }

      .cls-39 {
        fill: #142725;
      }

      .cls-40 {
        fill: #d3a09b;
      }

      .cls-41 {
        fill: #9cada5;
      }

      .cls-42 {
        fill: #a06e55;
      }
    </style>
  </defs>
  <g id="Layer_8" data-name="Layer 8">
    <path class="cls-12" d="M0,0v1066.04h587.19c8.46-111.11,16.93-222.21,25.39-333.32,15.62-205.07,31.3-411.06,37.93-621.87,1.16-36.84,2.04-73.83,2.87-110.85H0Z"/>
  </g>
  <g id="Layer_7" data-name="Layer 7">
    <path class="cls-11" d="M664.95,1066.04h90.85c-8.19-354.49-10.85-710.17-12.92-1066.04h-94.26c-1.53,94.29-2.72,188.64-3.12,283.12-.66,154.69.79,309.71,6.24,463.36,3.79,106.74,9.49,212.89,13.21,319.56Z"/>
    <polygon class="cls-21" points="938.89 1066.04 938.89 0 735.01 0 753.91 1066.04 938.89 1066.04"/>
    <path class="cls-36" d="M764.23,843.85c31.79,50.12,69.8,99.25,79.74,157.17,3.7,21.52,3.36,43.61,7.45,65.02h87.46v-374.04c-9.21-3.38-18.45-1.48-29.87-.61-28.47,2.18-57.38,1.45-85.96-1.7h-71.7c-1.54,3.74-2.06,7.87-2.48,11.91-3.64,34.81-3.83,69.96-.55,104.81,1.27,13.55,8.53,25.83,15.9,37.45Z"/>
  </g>
  <g id="Layer_6" data-name="Layer 6">
    <path class="cls-27" d="M508.24,540.52c-.89,18.24.29,36.58,3.5,54.57,2.02,11.31,5.04,22.9,12.5,31.78,7,8.33,17.17,13.41,27.04,18.26,19.42,9.55,38.85,19.09,58.27,28.64,19.72,9.69,40.03,19.56,62.02,21.61,4.82-14.37,5.97-29.9,3.32-44.79-33.43-3.81-66.23-12.85-96.76-26.66-3.38-14.04-6.01-28.25-7.86-42.55-1.24-9.54.16-22.12-8.2-28.83-5.65-4.53-53.38-21.74-53.85-12.03Z"/>
    <path class="cls-3" d="M689.41,411.13c7.33,21.03,10.12,44.3,3.63,65.61-3.54,11.64-9.8,22.68-10.46,34.83-.87,16.07,8.18,30.9,17.88,43.74,6.54,8.66,13.66,17.22,17.09,27.52,2.12,6.37,2.72,13.14,2.88,19.84.58,23.78-4.02,48.42,3.93,70.83,2.93,8.26,7.48,15.86,10.66,24.02s4.95,17.38,2.09,25.66-11.52,14.98-20.11,13.23c-20.45-11.22-34.13-31.81-43.6-53.13-9.47-21.32-15.55-44.04-25.46-65.16-4.67-9.96-10.22-19.61-13.3-30.17-2.71-9.27-3.46-18.99-4.18-28.62-1.63-21.56-3.26-43.19-2.01-64.77,1.34-23.1,5.98-45.86,9.45-68.74,2.02-13.33,1.94-54.06,17.91-58.6,18.62-5.3,29.43,31.92,33.61,43.92Z"/>
    <path class="cls-40" d="M638.33,433.56c-4.55-12.03-.21-26.83,10.13-34.49,12.83,55.83-7.27,115.69,7.64,171,4.26,15.8,11.28,30.73,16.03,46.4,4.76,15.66,7.17,32.73,2.05,48.28-8.33,5.12-18.08,7.9-27.85,7.94-15.99.07-31.37-7.1-43.78-17.19s-22.21-22.97-31.48-36.01c-5.77-8.12-11.57-16.84-12.42-26.76-1.98-23.02,22.49-40.19,26.38-62.97,1.3-7.62.21-15.57,2.14-23.05,1.19-4.62,3.48-8.87,5.74-13.06,12.91-23.88,25.81-47.75,38.72-71.63,2.02-3.73,4.57-7.86,8.74-8.6"/>
  </g>
  <g id="Layer_4" data-name="Layer 4">
    <g id="Layer_1" data-name="Layer 1">
      <path class="cls-29" d="M555.11,48.22c8.2,12.6,14.85,26.22,19.73,40.44,1.01,2.93,1.89,6.37.2,8.97-1.19,1.84-3.37,2.75-5.43,3.49-21.94,7.83-47.96,9.04-63.88,26.04-8.24,8.79-12.36,20.54-18.21,31.08-18.39,33.18-54.26,54.01-91.38,61.88,6.97,6.01,15.28,10.46,24.15,12.93,4.15,1.15,8.6,1.96,11.9,4.73s4.7,8.38,1.54,11.31c26.45-15.24,59.05-21.17,79.97-43.4,11.33-12.03,17.94-27.59,25.79-42.13,7.85-14.53,17.92-28.99,32.98-35.78,13.21-5.96,102.91-1.37,76.92-30.35-23.9-26.66-67.77-25.1-94.27-49.19Z"/>
      <path class="cls-29" d="M630.42,99.28c11.66-5.69,25.43-5.77,38.06-2.81,12.63,2.96,24.4,8.75,36.03,14.49,6.79,3.35,13.95,7.02,17.9,13.49,3.4,5.56,3.91,12.37,4.15,18.88.74,20.52-.36,41.11-3.28,61.44-1.48,10.32-3.41,21.03-.37,31,2.79,9.14,9.53,16.76,11.88,26.03,4.08,16.16-6.3,32.65-19.05,43.38-10.28,8.65-24.44,15.28-36.93,10.34-13.04-5.16-18.64-20.66-19.8-34.63-1.33-15.94,1.1-31.91,2.05-47.87,1.78-29.87-1.69-60.03-10.12-88.74-2.76-9.39-4.87-18.43-13.06-24.31-7.53-5.41-24.98-12.11-7.45-20.67Z"/>
      <path class="cls-22" d="M524.13,548.07c-.43-.31-.87-.6-1.34-.84-1.07-.57-2.09-.75-3.11-.48.23.43.46.86.7,1.29,1.24-.31,2.52-.28,3.74.04Z"/>
      <path class="cls-22" d="M655.26,125.27c-8.61-9.46-22.61-18.13-32.99-12.03l12.42-8.61c-14.47,6.23-30.43,8.77-46.05,7.33-6.91-.64-13.85-2.04-20.73-1.18-15.23,1.9-27.27,14.5-34.84,28.24-7.57,13.74-11.94,29.15-19.51,42.89-17.85,32.39-54.19,52.97-90.31,51.16.89,38.48-14.09,77.09-40.49,104.34-5.55-12.82-6.62-27.12-8.6-41-1.99-13.88-5.26-28.26-14.18-38.87-8.92-10.61-25-16.01-36.61-8.67-7.85,4.96-12.01,14.5-13.34,23.89-4.1,28.88,13.87,55.63,21.28,83.8,6.15,23.41,4.95,48.18,2.14,72.26-5.34,45.7-16.29,90.58-30.59,134.19-9.59,29.25-20.68,61.54-8.93,89.95,4.75,11.49,12.9,21.14,21.63,29.8,8.5,8.43,17.95,16.29,29.13,20.17,18.53,6.44,38.83,1.11,57.36-5.33,34.09-11.84,66.95-27.4,97.87-46.34,12.54-7.68,25.74-17.24,29.38-31.79,4.65-18.59-8.09-37.09-9.97-56.04-1.06-.9-2.11-1.85-3.11-2.9-2.95-3.11-1.75-8.65,1.36-11.08.05-.04.1-.07.15-.1-.48-.85-.94-1.71-1.34-2.54-.37-.76-.17-1.62.53-2.09,4.67-3.09,9.32.81,12.58,4.16.8.83.39,1.92-.37,2.38,3.35,3.28,7.94,5.29,11.99,7.52,1.65.91,3.33,1.84,5.05,2.68,2.78.96,5.56,1.93,8.34,2.85.3.05.6.12.91.15,1.38.16,2.53.6,3.47,1.23.07.02.13.04.2.06,13.23,3.91,28.45,5.3,39.88-2.6,20.17-13.94,16.15-45.7,27.76-67.69,1.78-6.87,4.71-13.27,8.79-19.19,1.59-3.42,3.46-6.62,5.59-9.62.27-4.03-.19-8.13-.05-12.19.81-22.78,20.32-40.19,26.31-62.13,4.61-16.9.85-35.16,4.42-52.33,2.57-12.36,8.8-23.52,13.69-35.11,24.9-58.99,12.51-132.67-30.2-179.59Z"/>
      <path class="cls-28" d="M536.33,121.17c-9.24,12.68-17.39,26.12-25.52,39.53-8.02,13.24-16.05,26.47-24.07,39.71-1.67,2.75-3.38,5.61-3.77,8.8s.89,6.83,3.82,8.17c6.03,2.76,26.48-17.87,30.19-21.92,8.65-9.44,15.22-20.8,20.59-32.38,4.07-8.78,6.76-18.08,9.59-27.32,1.25-4.08,6.04-13.82,2.9-18.02-4.37-5.85-10.39-1.16-13.73,3.42Z"/>
      <path class="cls-10" d="M585.38,475.2c-2.43-2.03-4.75-4.21-7.38-5.96-2.45-1.62-5.13-2.84-7.8-4.05-1.4,9.79,5.11,19.1,12.9,24.92,7.8,5.82,17.03,9.33,24.97,14.96,2.27,1.61,4.46,3.44,5.92,5.84,2.24,3.7,2.46,8.28,2.61,12.63,2.89-3.57,5.13-7.69,6.57-12.09.81-2.48,1.35-5.04,2.07-7.55.62-2.14,3.04-5.71,3.12-7.71.17-4.4-9.24-4.18-12.97-5.22-10.92-3.04-21.23-8.43-30.01-15.78Z"/>
      <path class="cls-13" d="M560.91,319.22c-1.57-.29-3.28-.51-4.71.21-1.59.8-2.47,2.64-2.54,4.42s.52,3.52,1.22,5.16c1.34,3.14,3.28,6.24,6.33,7.77,1.76.88,3.76,1.16,5.73,1.18,3.98.04,7.9-.92,11.76-1.88,3.46-.86,6.91-1.71,10.37-2.57,1.79-.44,3.62-.9,5.17-1.9,2.36-1.52,4.35-5.66,1.24-7.47-2.18-1.27-7.2.43-9.68.26-8.48-.58-16.57-3.66-24.89-5.18Z"/>
      <path class="cls-19" d="M555.37,315.87c-3.77-3.87-8.6-6.53-13.49-8.84-1.84-.87-3.77-1.71-5.81-1.74s-4.23.95-5.02,2.83c-.9,2.14.23,4.56,1.5,6.5s2.76,3.99,2.61,6.3c-.04.72-.25,1.46-.06,2.16.17.64.65,1.15,1.12,1.61,3.69,3.64,8.19,6.29,12.86,8.47,3.34,1.55,11.43,6.31,15.08,4.87,10.25-4.06-5.8-19.1-8.78-22.16Z"/>
      <path class="cls-8" d="M550.65,302.88c2.61-.52,5.22-1.03,7.87-1.24,5.21-.41,10.42.38,15.58,1.19,3.58.57,7.19,1.15,10.6,2.38s6.66,3.14,8.93,5.97c1.35,1.68,2.32,3.64,3.28,5.57.64,1.3,1.3,2.74.91,4.14-.46,1.67-2.25,2.59-3.91,3.06-2.83.8-5.81.87-8.76.93-9.14.17-18.72.12-26.77-4.21-2.26-1.22-4.34-2.74-6.41-4.26-3.67-2.7-8-5.43-10.93-8.96-1.79-2.15-.26-2.6,1.93-3.04,2.56-.51,5.12-1.02,7.68-1.52Z"/>
      <path class="cls-33" d="M563.77,304.51c-2.09,2.31-2.77,5.66-2.32,8.74s1.91,5.93,3.66,8.51c.73,1.08,1.53,2.13,2.58,2.91,2.09,1.56,4.86,1.83,7.47,1.74,3.35-.12,6.69-.75,9.85-1.85,1.4-.49,2.86-1.15,3.61-2.42.51-.86.63-1.88.71-2.87.14-1.77.2-3.54.16-5.32-.03-1.58-.16-3.23-.97-4.59-1.03-1.72-2.97-2.64-4.79-3.47-5.36-2.44-15.01-6.84-19.95-1.38Z"/>
      <path class="cls-8" d="M654.32,324.15c3.54,2.59,7.65,5.29,11.97,4.49,3.08-.57,5.55-2.83,7.56-5.23.84-1.01,1.66-2.11,1.96-3.39s-.02-2.8-1.1-3.56c-.59-.42-1.33-.57-2.05-.69-5.6-.96-11.41-1.11-17.04-.33-2.11.29-3,.59-3.48,2.69-.61,2.66-.03,4.4,2.18,6.01Z"/>
      <path class="cls-33" d="M663.1,316.09c-1.68-1.04-3.88-.69-5.29.85-.79.86-1.32,2.03-1.73,3.22-.96,2.77-1.34,5.95-.55,8.79.9,3.21,3.29,5.67,6.01,6.39s5.66-.27,7.8-2.43c1.11-1.12,2.01-2.53,2.75-4.05,1.02-2.1,1.73-4.43,1.96-6.85.15-1.53.07-3.21-.73-4.39-.39-.57-.92-.97-1.46-1.32-3.01-1.9-6.66-2.22-9.86-.84-1.14.49-2.34,1.38-2.57,2.82"/>
      <path class="cls-30" d="M655.53,299.85c-2.04,5.5-3.2,11.28-4.34,17.03,3.65-.58,7.66-1.36,9.92-4.28,1.76-2.27,2.03-5.32,2.66-8.13,1.08-4.89,3.44-9.49,6.78-13.22,1.24-1.39,5.88-5.61,3.71-7.69-1.41-1.35-7.1.9-8.69,1.69-5.2,2.59-8.12,9.47-10.03,14.6Z"/>
      <path class="cls-35" d="M680.76,285.39c-2.49-1.69-6-1.16-8.51.51s-4.23,4.27-5.81,6.84c-4.5,7.32-8.47,15.16-9.85,23.64,6.66-.76,13.51.23,19.68,2.84.56.24,1.16.49,1.75.34.48-.12.85-.5,1.17-.88,1.6-1.91,2.49-4.29,3.36-6.62,2.26-6.08,4.52-12.17,6.4-18.38.5-1.65.97-3.43.45-5.08-.36-1.13-1.17-2.08-2.09-2.83-3.11-2.54-7.78-2.98-11.31-1.07"/>
      <path class="cls-39" d="M656.42,314.58c4.56-1.56,9.62-.72,14.16.89,4.29,1.52,8.78,3.75,13.16,2.51-2.65,1.48-5.8,2.04-8.79,1.58-1.68-.26-3.3-.83-4.95-1.28-3.77-1.01-7.71-1.34-11.6-.97-.91.09-5.8,1.08-6.18.07-.43-1.13,3.45-2.54,4.2-2.8Z"/>
      <path class="cls-9" d="M524.42,267.68c1.09-1.07,2.57-1.62,4.01-2.11,4.76-1.61,9.61-2.93,14.53-3.93,1.2-.25,2.43-.47,3.66-.35,1.35.14,2.62.69,3.83,1.3,9.8,4.95,17.63,14.11,28.4,16.25-8.72,5.59-19.47,6.67-29.42,9.55-7.65,2.21-15.04,5.56-22.94,6.57-3.33.43-7.25.17-9.25-2.53-.83-1.12-1.19-2.53-1.34-3.92-.65-5.89,2.15-11.66,5.82-16.31s8.23-8.53,11.98-13.11c-.09.44-.18.88-.27,1.32"/>
      <path class="cls-15" d="M648.33,464.2c-.66-1.82-1.32-3.64-1.98-5.47-.47-1.3-.96-2.63-1.83-3.71s-2.21-1.87-3.59-1.72c-1.27.14-2.32,1.03-3.46,1.61-2,1.02-4.47,1.08-6.52.15-2.96-1.34-4.9-4.49-7.99-5.49-2.25-.72-4.69-.16-6.98.41-18.68,4.69-37.17,10.17-55.39,16.4l-.02.06c.05.18.09.37.14.55,2.83.73,5.46,2.31,7.8,4.12,3.12,2.41,5.9,5.26,9.15,7.5,7.87,5.43,17.88,6.89,26.07,11.82,2.27,1.37,4.41,3.01,6.91,3.88,1.89.66,3.9.86,5.9.96,4.97.26,10.52-.3,13.87-3.99,2.83-3.12,3.31-7.64,4.49-11.68.37-1.27.84-2.54,1.68-3.57,1.07-1.3,2.62-2.06,4.09-2.88,2.24-1.25,4.38-2.71,6.36-4.34.75-.62,1.53-1.34,1.71-2.29.15-.78-.12-1.58-.4-2.33Z"/>
      <path class="cls-42" d="M617.98,460.35c-8.26-2.94-17.4-2.16-25.93-.13-3.63.86-7.22,1.95-10.72,3.24-.84.31-3.66.85-3.5,2.2.15,1.31,2.91.51,3.9.45,6.81-.43,13.66-.62,20.46,0,.32-.36.82-.53,1.32-.53h9.63c.82,0,1.33.92,1.27,1.63-.01.14-.05.26-.09.38,2.97.15,5.96-.06,8.93-.29,2.88-.22,5.97-.52,8.15-2.42-4.74-.28-8.95-2.94-13.42-4.53Z"/>
      <path class="cls-38" d="M628.36,467.12c1.49-.27,2.96-.68,4.46-.86.28,2.4-.99,4.76-2.77,6.4s-4.01,2.67-6.2,3.67c-1.15.52-2.32,1.05-3.58,1.18-2.31.23-4.52-.92-6.48-2.16-3.04-1.92-11.31-7.1-3.27-7.96,5.94-.63,11.93.78,17.84-.28Z"/>
      <path class="cls-35" d="M606.08,278.88c1.23,3.89.79,8.27-1.19,11.84-1.09,1.96-2.68,4.06-2.02,6.2.3.98,1.04,1.75,1.68,2.55,3.05,3.8,4.31,8.98,3.33,13.76,2.28.86,4.27-1.67,5.67-3.67,2.71-3.86,6.49-6.96,10.81-8.86,1.11-.49,2.31-.93,3.12-1.84.62-.69.96-1.58,1.25-2.46,1.3-3.88,2-7.97,2.07-12.06.03-1.71-.06-3.48-.83-5-.83-1.65-2.34-2.82-3.74-4.02-5.12-4.38-9.38-9.8-15.03-13.46-3.28-2.12-16.98-7.38-16.6.42.15,3.11,3.76,5.59,5.66,7.65,2.43,2.64,4.73,5.47,5.83,8.94Z"/>
      <path class="cls-41" d="M653.32,76.48c-2.49-3.9-6.55-6.36-10.48-8.64-55.49-32.2-116.05-57.21-179.41-62.27s-129.94,11.52-178.24,54.46c-43.43,38.59-68.69,94.43-90.02,149.54-12.04,31.11-23.34,62.98-26.82,96.31-1.74,16.68-1.57,33.86-7.05,49.64-4.62,13.32-13.02,24.84-21.79,35.68-21.61,26.69-46.3,50.67-66.57,78.47-20.28,27.8-36.29,60.64-36.83,95.52-.65,42.14,21.14,82,20.8,124.14-15.28,12.21-37.68,5.22-56.89,6.78v209.4c.7.46,1.42.9,2.17,1.31,13.33,7.21,29.48,2.71,43.83-1.92,27.77-8.97,56.88-18.79,76.65-40.96,12.68-14.22,20.42-32.41,26.69-50.68,15.97-46.48,23.86-95.46,31.68-144.14,14.96-93.11,29.91-186.23,44.87-279.34,7.73-48.1,15.82-97.32,38.9-139.76,16.15-29.7,39.03-54.86,63.32-77.8,39.63-37.43,88.23-71.35,141.71-68.83,23.71,1.12,46.53,9.4,69.99,13.16,36.57,5.87,74.7.27,108.44-15.46,1.31-2.26,3.08-4.21,5.14-5.91,2.88-6.31,3.62-12.87-.08-18.67Z"/>
      <path class="cls-26" d="M559.96,60.91c-2.01-3.21-4.37-6.05-6.98-8.57-.65.13-1.34.2-2.08.16-8.29-.44-14.98-5.4-22.59-8.07-8.43-2.96-17.23-4.71-26-6.28-9.12-1.64-17.95-2.81-27.23-2.89-7.68-.06-14.87-1.13-22.26-2.46-27.44.57-54.93,2.73-80.39,12.54-22.47,8.66-42.41,22.98-59.98,39.44-69.7,65.3-101.72,161.98-113.57,256.75-2.35,18.75-4.12,38-12.12,55.12-14.02,30-44.82,48.8-62.08,77.06-16.04,26.27-19.03,58.69-15.82,89.3,3.21,30.61,12.11,60.3,18.29,90.46,2.01,9.81.56,24.02-9.44,24.51-4.81.23-8.83-3.32-13.11-5.53-12.37-6.41-28.37-1.1-37.76,9.19-9.39,10.29-13.38,24.38-15.54,38.15-2.45,15.67-2.63,32.76,5.85,46.16,11.1,17.54,33.79,23.78,54.53,24.66,61.27,2.59,119.65-29.18,164.36-71.15,86.63-81.31,131.34-202.21,129.91-321.01-.36-29.99-3.4-60.5,3.9-89.59,4.44-17.68,12.56-34.18,20.62-50.53,9.33-18.92,18.74-37.97,31.47-54.78,16.78-22.16,38.72-39.7,58.88-58.89-.04-.1-.09-.19-.11-.3-.52-2.73,1.05-5.3,2.76-7.32,1.31-2.88,2.81-5.67,4.62-8.26,3.07-4.42,7.47-8.62,13.13-8.96,1.35-.08,1.95,1.4,1.47,2.28.01,0,.02.01.03.02,15.44-17.76,29.93-40.94,17.23-61.18Z"/>
      <path class="cls-32" d="M251.95,332.86c.7,19.01,4.4,37.81,5.33,56.81.81,16.67-.51,33.38-2.5,49.96-1.36,11.35-3.05,22.71-6.5,33.61-2.53,7.99-6.03,15.81-6.74,24.16-.97,11.43,3.36,22.56,7.62,33.21,6.49,16.25,12.98,32.5,19.47,48.75,2.84,7.1,5.91,14.53,11.91,19.28,3.01,2.38,39.52-76.36,42.2-84.2,10.4-30.44,16.67-62.29,18.66-94.39,1.95-31.43-.22-63.13-6.68-93.96-4.66-22.22-8.03-46.07-30.14-56.7-41.16-19.79-53.79,31.89-52.62,63.47Z"/>
      <path class="cls-22" d="M389.59,346.02c-4.35-14.84-6.14-30.3-9.94-45.29s-9.95-29.96-21.31-40.64c-11.36-10.68-28.84-16.13-43.33-10.14-11.42,4.72-19.27,15.75-22.38,27.54-3.11,11.78-2.02,24.26.43,36.19,3.16,15.39,8.6,30.39,16.72,43.92,3.85,6.41,8.33,12.57,10.71,19.64,5.01,14.94,0,32.15,6.66,46.46,1.85-10.21,4.03-21.07,11.37-28.53,7.34-7.45,21.72-9.06,27.63-.47,3.84,5.58,5.52,15.31,12.31,14.41,8.36-10.77,11.2-24.9,10.58-38.42-.62-13.53-4.42-26.7-8.19-39.72"/>
      <path class="cls-14" d="M571.34,257.24c-17.88-1.94-36.12,1.51-52.78,10-.57-.79-.43-2.1.08-2.95s1.3-1.34,2.06-1.8c26.62-15.79,58.22-17.48,85.79-4.58,4.8,2.25,9.72,5.04,13.2,9.97.91,1.29,3.3,4.27,2.37,6.18-.73,1.5-3.03,1.19-4.15.9-2.22-.58-4.23-2.42-6.25-3.65-2.4-1.47-4.84-2.83-7.31-4.09-5.06-2.57-10.25-4.68-15.54-6.33-5.74-1.78-11.59-3.01-17.47-3.65Z"/>
      <path class="cls-32" d="M267.33,284.03c-9.26,16.85-9.57,37-9.66,56.22-.03,6.83-.06,13.71,1.19,20.43,1.2,6.49,3.56,12.72,4.87,19.19,2.14,10.61,1.39,21.57.5,32.36-2.57,31.1-7.04,64.04-26.93,88.09,13.49,12.64,23.05,29.43,27.04,47.48,3.05,13.81,4.44,30.63,16.93,37.27,28.69-47.83,34.84-105.43,39.67-160.99,1.54-17.67,3-35.61-.31-53.04-3.62-19.09-12.77-36.59-20.2-54.55-7.61-18.4-13.74-38.83-9.32-58.8-9.46,5.73-18.41,16.58-23.78,26.34Z"/>
      <path class="cls-22" d="M289.69,314.76c2.25,7.03,6.22,13.37,10.41,19.45,1.32,1.91,2.71,3.85,4.68,5.08s4.66,1.58,6.56.23c1.59-1.13,2.26-3.12,2.79-5,4.7-16.7,10.26-50.65-1.27-65.98-22.47-29.88-27.58,32.39-23.16,46.22Z"/>
      <path class="cls-29" d="M636.95,93.69c8.29.1,16.72,3.52,21.88,10.01s6.47,16.13,2.28,23.28c-1.64,2.8-4.39,5.3-7.64,5.32-3.55.01-6.35-2.82-9.11-5.06-12.45-10.13-29.96-10.36-46.01-10.1-10.8.17-21.6.34-32.4.51-8.14.13-16.57.32-23.92,3.84-10.1,4.83-16.35,15-22.07,24.62-12.84,21.59-25.91,43.17-41.82,62.62-9.98,12.21-22.27,24.19-37.87,26.44-15.41,2.22-30.31-5.52-43.96-13.02,33.09-7,62.03-31.23,74.73-62.57,4.12-10.16,6.67-21.07,12.47-30.38,11.13-17.87,32.16-26.8,52.43-32.48,7.22-2.02,16.07-5.57,16.36-13.07.13-3.24-1.54-6.24-3.15-9.05-5.82-10.13-11.64-20.26-17.45-30.39,22.13,7.42,44.25,14.84,66.38,22.26,22.07,7.4,45.49,15.74,59.57,34.27"/>
    </g>
    <path class="cls-20" d="M896.14,907.79c-4.64-67.02-20.95-139.05-72.1-181.73-41.48-34.6-97.54-43.08-149.09-58.38-48.62-14.43-95.19-35.94-137.83-63.67-2.24-1.46-4.55-2.96-7.18-3.41-.27-.05-.54-.08-.81-.1.19,5.08.48,10.05-1.32,15-1.47,4.02-6.49,5.86-10.31,4.29-1.88-.77-3.24-2.18-4.03-3.87-.79,2.05-1.48,4.11-2.08,6.06-11.13,35.84-41.47,63.47-76.05,76.94-34.58,13.47-72.96,14.06-109.56,8.28-33.35-5.27-66.37-15.89-84.69-44.65h-.96c-24.9,36.4-64.78,55.4-104.85,74.24-.92,2.17-2.76,3.98-5.64,4.63-7.13,1.62-13.1,6.05-19.47,9.4-3.21,1.69-6.53,2.5-9.9,2.98-27.71,14.41-53.32,31.31-71.47,56.93-15.45,21.8-23.9,47.37-28.79,73.95v181.36h909.34c-10.93-51.25-9.55-105.47-13.2-158.25Z"/>
    <path class="cls-34" d="M520.62,551.08c-3.08-12.34-9.94-24.02-19.26-32.33-15.17-13.55-35.8-19.97-56.23-21.95-7.04-.68-14.57-.78-20.7,2.7-9.11,5.17-12.23,16.37-14.49,26.44-9.61,42.85-18.34,85.89-26.17,129.09-2.33,12.83-4.58,25.72-5.18,38.74-1.83,39.56,11.76,78.65,32.05,112.9,4.29-18.09-.37-36.89-3.46-55.22-5.09-30.14-5.89-61.32,1.33-91.04,7.23-29.72,22.91-57.97,46.91-77.47,7.8-6.33,16.71-11.83,26.7-13.47,13.45-2.21,35.15,12.4,39.5,1-1.3-6.36-1.68-12.93-1.02-19.38Z"/>
    <path class="cls-16" d="M416.76,752.24c-2.86,2.22-6.4,4.57-9.85,3.45-2.99-.97-4.54-4.13-5.71-7-30.68-74.77-32.82-157.5-32.69-238.11.04-25.66-.42-53.32-13.04-75.14,2.01-9.13,5.2-18.15,6.16-27.46,1.45-14.05-5.25-31.21-19.51-33.12-20.74,19.83-23.34,50.94-28.32,78.93-2.38,13.38-5.57,26.55-9.42,39.53-.03.56-.06,1.12-.1,1.67,1.07,11-.7,21.66-5.33,31.95-1.83,3.64-3.61,7.3-5.35,10.98.28,7.8-.88,15.42-3.51,22.86-1.78,10.66-6.15,20.26-13.11,28.78-1.69,1.74-3.32,3.54-4.9,5.38-1.03,3.62-2.07,7.23-3.23,10.81-1.87,5.78-4.04,11.46-6.05,17.18-2.42,12.02-7.34,23-14.79,32.94-4.82,4.92-9.64,9.84-14.45,14.76-1.47,1.25-2.97,2.41-4.51,3.5,1.24,1.2,2.11,2.84,2.48,4.51.1.18.2.35.29.54,1.8,3.78,2.63,8,3.45,12.08.01.05.01.1.02.15,30.55,45.06,61.09,90.12,91.64,135.18,7.38,10.88,14.89,21.92,25.08,30.33,5.98,4.94,12.78,8.89,18.49,14.12,17.18,15.74,21.91,40.12,29.58,61.92,8.54,24.26,21.74,46.93,38.7,66.46,14.17-70.87,28.34-141.75,42.51-212.62,7.32-36.6,14.74-73.53,29.76-107.79l-94.29,73.2Z"/>
    <path class="cls-1" d="M514.96,681.11c-7.15,20.64-14.29,41.28-21.44,61.91-.95,2.74-1.91,5.5-3.52,7.94-1.72,2.6-4.12,4.72-6.62,6.64-19.58,15.01-46.27,18.96-66.61,33-3.79,2.62-7.54,5.66-12.13,6.47-.19.03,10.08-22.63,13.65-26.02,10.63-10.1,22.11-19.47,32.97-29.36,21.69-19.76,42.93-39.96,63.72-60.58Z"/>
    <path class="cls-7" d="M425.04,618.96c-5.87,10.87-9.4,22.84-12.3,34.85-10.42,43.19-13.12,88.24-7.95,132.36,28.47-26.78,56.94-53.57,85.42-80.35,8.34-7.84,16.75-15.78,23.11-25.3,10.4-15.58,14.65-34.56,15.67-53.27,1.35-24.81-5.1-57.22-35.43-54.18-28.29,2.84-55.04,20.93-68.52,45.88Z"/>
    <path class="cls-5" d="M470.49,1065.32c1.58-24.35,2.7-48.78,6.42-72.89,2.59-16.84,6.45-33.49,9.89-50.21,12.08-58.69,19.03-118.26,20.77-177.95.59-20.2.59-40.5,4.02-60.46,5.61-32.63,20.26-64.2,18.05-97.72-15.27,49.56-27.62,99.97-43.41,149.5-5.5,17.24-11.16,34.45-15.49,51.97-4.66,18.86-7.75,38.02-10.83,57.15-6.81,42.25-13.62,84.49-20.43,126.74-3.96,24.55-7.89,49.18-10.55,73.88h41.56Z"/>
    <path class="cls-24" d="M710.79,1066.04c-3.49-33.11-1.7-66.77,5.47-99.29,6.26-28.38,16.48-55.66,24.18-83.64,3.78-13.72,6.69-27.51,8.83-41.57,1.24-8.1,5.46-21.35.32-28.55-19.06,26.22-23.79,71-29.58,102.25-6.66,35.96-11.88,72.28-21.85,107.53-4.04,14.29-8.89,28.64-10.81,43.27h23.43Z"/>
    <path class="cls-23" d="M208.63,1066.04h13.49c-8.81-22.79-19.47-44.9-30.81-66.5-16.52-31.45-29.79-64.2-48.04-94.77-5.57-9.33-11.42-18.6-18.71-26.7-2.4-2.66-23.75-17.19-23.81-18.07.87,13.25,6.37,25.73,12.31,37.61,28.85,57.79,69.87,109.36,95.58,168.42Z"/>
    <path class="cls-37" d="M305.61,832.35c4.16,6.34,8.63,12.82,15.14,16.77,8.9,5.4,20.03,5.21,30.48,4.85,6.25-.22,14.28-1.9,15.17-8.03.69-4.75-3.67-8.57-7.52-11.48-21.43-16.17-41.08-34.64-58.49-54.99-18.4-21.51-35.37-44.98-50.38-68.93-7.47-11.92-12.56-26.34-21.15-37.33,4.9,25.7,18.98,52.4,30.13,75.99,13.58,28.73,29.16,56.54,46.62,83.14Z"/>
    <path class="cls-17" d="M426.19,179.69c-14.31,3.17-29.18,2.75-43.72,4.67-35,4.62-68.45,23.97-86.87,53.76-18.42,29.79-20.13,69.82-1.52,99.5,6.95,11.09,16.59,20.94,19.99,33.54,1.7,6.31,1.71,12.94,1.59,19.48-1.62,84.82-24.43,169.17-65.84,243.47-6.18,11.08-12.8,22-21.18,31.56-9.67,11.03-21.46,20.02-33.17,28.92-29.68,22.58-59.82,45.42-94.46,59.49,28.77-8.75,56.87-20.43,81.69-37.27,30.53-20.72,55.34-48.74,76.71-78.63,12.09-16.92,23.26-34.67,30.79-54.01,6.22-15.98,9.87-32.81,13.38-49.59,8.48-40.56,16.31-81.27,22.16-122.29,2.05-14.35,3.83-29.16.13-43.19-7.08-26.87-33.32-47.48-34.17-75.24-.56-17.97,9.93-34.37,21.24-48.45,9.63-11.98,20.47-23.49,34.2-30.55,21.04-10.82,46.01-9.93,69.17-14.97,15.17-3.3,36.42-12.14,43.46-27.21,4.47-9.56,1.7-10.11-6.46-6.43-9.58,4.32-16.09,10.99-27.13,13.43Z"/>
  </g>
  <g id="Layer_2" data-name="Layer 2">
    <path class="cls-2" d="M616.04,401.32c13.7-4.68,29.28-3.54,42.17,3.06.79.41,1.6.85,2.12,1.57,1.56,2.16-.3,5.1-2.22,6.95-7.82,7.54-18.19,12.4-28.99,13.58-1.19.13-2.47.2-3.52-.38s-1.68-2.06-.97-3.03c-2.28-1.45-5.23-.26-7.91.03-4.58.5-17.43-4.17-17.18-9.97s12.08-10.32,16.5-11.82Z"/>
    <path class="cls-14" d="M617.45,422.64c1.52,1.38,3.66,1.91,5.71,1.84s4.04-.71,5.96-1.42c3.13-1.15,6.19-2.49,9.21-3.92,8.09-3.83-1.42-5.51-5.35-5.14-6.06.58-11.88,3.75-15.53,8.64Z"/>
    <path class="cls-25" d="M649.72,385.21c.12,5.59-.09,11.46,2.48,16.42-7.23,3.5-15.9,1.02-23.78,2.59-9.36,1.86-17.47,9.4-26.99,8.75-.75-.05-1.62-.23-1.95-.91-.27-.54-.08-1.19.13-1.75,2.27-6.09,6.85-11.02,9.93-16.76,1.82-3.39,3.09-7.03,4.23-10.7,2.51-8.1,4.36-16.4,6.14-24.69,2.93-13.65,5.54-27.36,8.25-41.06-.52,4.11,5.6,10.65,7.52,14.27,2.97,5.62,5.5,11.47,7.56,17.48,4,11.7,6.23,24,6.49,36.37Z"/>
    <path class="cls-31" d="M606.37,351.34c-2.05,6.86-3.37,13.95-6.1,20.57-1.39,3.37-3.17,6.89-2.47,10.47.44,2.25,1.81,4.19,3.15,6.05,1.12,1.55,2.23,3.1,3.35,4.65.54.74,1.09,1.51,1.86,2,1.21.78,2.78.78,4.19.48,4.42-.92,7.88-4.25,10.93-7.58,2.44-2.67,4.79-5.43,7.02-8.28,5.17-6.58,9.97-14.43,8.93-22.73-.58-4.63-2.94-8.8-4.81-13.07-4.82-10.96-6.57-23.23-5.15-35.11.4-3.36,1.19-6.61,1.92-9.9-1.96,1.09-3.21,7-4.14,9.14-1.53,3.52-3.15,6.99-4.8,10.45-3.26,6.86-6.63,13.68-9.53,20.71-1.64,3.98-3.14,8.02-4.37,12.15Z"/>
    <path class="cls-28" d="M527.3,155.94c1.27-5.76,2.65-11.74,6.37-16.34s10.52-7.3,15.75-4.53c9.76,5.17,4.34,20.07,7.41,30.64,1.62,5.58,5.84,10.03,8.13,15.37,5.71,13.25-1.39,28.36-9.55,40.26-22.07,32.17-53.71,59.07-65.49,96.21-2.05,6.47-3.46,13.31-2.49,20.03,1.68,11.63,10.03,20.99,17.19,30.35,23.22,30.35,36.5,66.88,49.45,102.78,9.28,25.74,18.6,54.05,9.28,79.78-1.86,5.14-5.26,10.63-10.71,11.34-2.92.38-5.8-.74-8.52-1.85-28.83-11.81-56.66-26.04-83.11-42.48-8.92-5.55-20.34-11.44-29.24-5.85-2.95,1.85-5.08,4.74-6.97,7.65-27.77,42.75-18.29,98.9-30.99,148.21-.66,2.58-1.44,5.24-3.24,7.21-4.59,5.03-13.64,2.72-17.69-2.75s-4.53-12.7-4.89-19.48c-3.03-57.34-8.64-114.54-16.81-171.38-3.83-26.65-7.73-55.84,6.46-78.76,6.46-10.42,16.41-18.98,19.87-30.72,3.62-12.3-.5-26.34,5.21-37.83,2.72-5.47,7.37-9.68,11.49-14.19,15.78-17.27,24.55-40.7,23.99-64.03-.08-3.15-.28-6.48,1.19-9.27,2.12-4.03,6.95-5.67,11.31-7.05,41.15-13,82.86-38.13,95.8-79.1,2.03-6.44,3.33-13.21,6.61-19.12s9.2-11,15.99-10.91"/>
  </g>
  <g id="Layer_3" data-name="Layer 3">
    <path class="cls-18" d="M579.83,277.82c2.94-.5,5.94-.89,8.89-.5,3.75.49,7.26,2.24,10.2,4.62,6.4,5.17,10.16,13.45,9.84,21.68-.12,3.12-.86,6.33-2.82,8.75s-5.35,3.86-8.31,2.86c-1.75-.59-3.14-1.92-4.53-3.13-9.44-8.18-22.19-12.5-34.64-11.45-2.78.23-5.52.72-8.26,1.21-2.94.52-18.47,4.7-18.85,1.69-.49-3.92,9.74-10.14,12.49-11.99,10.74-7.23,23.29-11.56,36-13.73Z"/>
    <path class="cls-6" d="M553.63,293.52c2.18-2.74,5.56-4.21,8.86-5.36,5.17-1.8,10.5-3.05,15.85-4.21.73-.16,1.49-.32,2.22-.16s1.43.74,1.48,1.48c.05.82-.64,1.48-1.27,2.01-1.27,1.05-2.53,2.11-3.8,3.16,2.1.33,4.19.66,6.29.99-1.43,4.11-6.24,6.7-10.46,5.65-.61-.15-1.24-.37-1.86-.23-1.07.26-1.58,1.48-2.45,2.15-1.57,1.22-3.9.41-5.45-.83s-2.88-2.89-4.77-3.49c-.71-.22-1.47-.29-2.13-.62s-1.23-1.04-1.06-1.76c.15-.61.76-.99,1.34-1.25,1.51-.69,3.16-1.1,4.82-1.21"/>
    <path class="cls-39" d="M578.8,304.54c-1.93-.35-3.91-.27-5.86-.19-10.55.42-21.11.84-31.63,1.81-3.17.29-6.39.63-9.51.04s-6.21-2.28-7.69-5.1c7.95.98,16.01,1.17,24,.56,10-.76,20.22-2.73,29.91-.16,3.2.85,6.25,2.17,9.27,3.53,2.46,1.1,4.99,2.27,7.05,4.04,1.21,1.04,4.38,4.19,3.1,6.04-2.49,3.58-9.1-5.27-10.41-6.38-2.36-2.01-5.14-3.63-8.22-4.18Z"/>
    <path class="cls-14" d="M662.74,288.26l-1.77-.79c2.42-3.65,7.19-5.51,11.79-6.71,3.24-.85,6.59-1.49,9.96-1.37s6.79,1.07,9.29,3.07c1.33,1.06,2.41,2.53,2.31,4.11-.1,1.74-1.67,3.23-3.52,3.85s-3.92.5-5.85.11-3.78-1.04-5.7-1.47c-6.22-1.39-12.77-.42-19.09.56.83-2.3,2.5-4.36,4.71-5.79.17-.11.39-.22.58-.15s.12.43-.08.36"/>
    <path class="cls-4" d="M571.26,470.83l14.08-2.39c4.83-.82,9.67-1.76,14.57-2.15,9.23-.75,17.98,1.61,26.83,3.89,4.79,1.24,9.61,2.36,14.54,2.85.96.1.95-1.41,0-1.5-9.07-.9-17.68-4.09-26.59-5.8-4.48-.86-9.01-1.3-13.57-1.02s-9.35,1.13-13.99,1.92c-5.42.92-10.84,1.84-16.27,2.76-.95.16-.55,1.61.4,1.45h0Z"/>
  </g>
</svg>