<?xml version="1.0" encoding="UTF-8"?>
<svg id="Layer_2" data-name="Layer 2" xmlns="http://www.w3.org/2000/svg" xmlns:xlink="http://www.w3.org/1999/xlink" viewBox="0 0 2010.01 2202.5">
  <defs>
    <style>
      .cls-1, .cls-2, .cls-3, .cls-4 {
        fill: none;
      }

      .cls-5 {
        fill: #485e74;
      }

      .cls-6 {
        fill: #d25e1c;
      }

      .cls-7 {
        fill: #5e707c;
      }

      .cls-2 {
        stroke-width: 20px;
      }

      .cls-2, .cls-3 {
        stroke: #485e74;
        stroke-linecap: round;
        stroke-linejoin: round;
      }

      .cls-3 {
        stroke-width: 16.63px;
      }

      .cls-8 {
        fill: #45471f;
      }

      .cls-9 {
        fill: #5b6234;
      }

      .cls-4 {
        stroke: #9595c4;
        stroke-miterlimit: 10;
        stroke-width: 2px;
      }

      .cls-10 {
        opacity: .47;
      }

      .cls-11 {
        fill: #1d1916;
      }

      .cls-12 {
        fill: #d4b690;
      }

      .cls-13 {
        fill: #70916d;
      }

      .cls-14 {
        fill: #e8cfb3;
      }

      .cls-15 {
        fill: #e89463;
      }

      .cls-16 {
        fill: #7f9b7d;
      }

      .cls-17 {
        clip-path: url(#clippath);
      }

      .cls-18 {
        fill: #ba893d;
      }
    </style>
    <clipPath id="clippath">
      <path class="cls-1" d="M1736.88,1776.74c-6.2-3.53-27.28-10.74-27.19.2-9.45,4.39-19.98,3.66-26.08,1.79-4.81-6.63-9.06-2.44-12.03-1.5-9.84-2.33-13.13,4.72-17,2.69-4.76.98-7.61,1.1-5.58-2.52-8.99,1.58-15.59,5.86-24.63.18-.44,2.35-18.1-9.33-26.45.2-7.57,1.94-20.41,1.02-28.05.21-6.59,4.78-21.35-1.54-29.42.22-10.89-4.48-24.38,6.84-30.56.23-11.34,1.42-15.69,2.12-31.48.23-13.09,1.09-19.11-3.24-32.17.24-11.49-2.1-17.79,3.74-32.63.24-4.5,2.47-22.05,5.64-32.87.24-20.44-.65-30.21.63-32.88.24-5.64,3.92-26.51,7.11-32.67.24-15.28,3.75-19.06,1.99-32.22.24-7.29-7.88-19.61,3.24-31.56.23-5.63.77-19.56,5.46-30.66.23-10.08,4.64-10.07-1.66-16.4.12-1.72,1.79-9.04-5.63-16.02.12-12.78.24-4.88,8.01-14.15.47-3.98-.11-5.75-4.07-16.62-.24-7.62-.39-80.06-.8-79.34.59-.43-.06-.88-.15-1.36-.27-5.15-1.29-10.5-1.57-15.7-.5-1.17.24-2.51.54-4.07.93,5.51,5.92-24.54,5.41-26.71.94,0,.28-6.96,3.15-16.47-.62-8.17,1.75-12.72.29-17.88,0-11.21,4.45,3.52-.43-10.72-.08-4.6,1.11-11.63,2.59-22.85.63-5.42,1.54-17.21,3.22-20.46.07-2.08-3.04-6.69-2.54-10.26-1.09-3.06,4.26-28.1,1.7-42.04.33-4.52-.45-9.09.12-13.31,1.79-3.79,1.5-7.71,2.06-11.35,1.9-2.63-.12-5.11-.62-7.28-1.42-3.76-1.39-7.69-2.33-11.7-2.32-8.93.02-16.95-4.33-24.44-1.09-5.53-3.57-27,1.84-32.42-.24-12.35,2.48-17.57-4.52-33.78-.25-11.21,4.17-26.13-1.22-34.84-.26-19.29-2.27-26.52-2.63-35.59-.26-15.05.25-22.58,2.25-36.04-.27-12.88,1.13-24.36.67-36.19-.27-15.28-2.52-19.72-2.66-36.04-.27-11.2-2.4-21.6-9.24-35.59-.26-11.91-.74-25.28-.1-34.84-.26-11.79.36-25.92-4.76-33.78-.25-7.73-6.2-16.65-.05-32.42-.24-9.93,3.17-24.16,1.91-30.77-.23-10.38-5.29-21.43,2.81-28.81-.21-17.34,4.34-21.69-3.48-26.55-.2-6.58-3.69-22.88-.23-23.99-.18-7.5,5.81-20.07-4.06-21.12-.16-6.63-1.94-21.38,2.76-17.96-.13-6.86,5.62-7.18,13.17-14.49-.11.16,6.77-7-2.94-10.72-.08-17.85-2.28-1.93,4.12-6.66-.05,1.37-2.72-8.02,1.43-2.29-.02-22.76,6.54,5.51,15.17-2.99,3.88,11.11,2.15-10.43-.52-8.36,10.86-2.61,8.57-23.46,12.68-12.85,16.68-3.53,11.73-27.98,12.52-16.43,21.34-1.76,2.81-19.96,26.22-19.12,24.83-11.88,12.19-37.39,25.54-20.91,27.16-4.13,9.92-27.45,21.83-21.81,28.32,10.59,6.04-19.25,21.67-21.81,28.32.2,3.33-10.43,18.84-20.91,27.16-1.09,8.54-12.35,5.2-19.12,24.83-6.07,15.2-15.42,14.92-16.43,21.34-1.22,9.78.61,12.66-12.85,16.68-8.63,14.74,3.31,12.76-8.36,10.86,4.43,1.46-15.59,8.68-2.99,3.88,2.33,3.66-2.26,7.12,2,0,2.37-4.38,2.97.06,5.85,0-.94,4.09,6.28-3.64,9.48,0-2.32.13,13.38-3.77,12.88,0,6.48-4.76,10.55-3.19,16.05,0,4.03,2.6,9.96,2.23,18.99,0h116.31c7.49-2.48,21.71-1.65,27.31,0,4.45-5.74,15.44-2.85,28.46,0,13.27-8.03,18.45-2.92,29.47,0,2.19,5.02,14.39-.88,30.31,0,8.11,1.4,21.96,2.97,31.01,0,11.93-1.23,15.72-1.47,31.55,0,12.17-4.13,16.03-7.44,31.94,0-1.61-.28,19.66-1.58,32.17,0,9.49-.49,22.87-4.3,32.25,0,10.15-4.4,21.34,1.41,32.18,0,14.57-3.73,19,2.16,31.95,0,10.39.04,19.9-3.2,31.57,0,10.68-7.26,21.86-2.87,31.03,0,13.17-6.06,22.69-5.11,30.34,0,13.31-.49,16.76,5.36,29.5,0,15.4-.77,13.76-5.77,28.5,0,11.73,8.24,15.2-2.81,27.35,0,9.29,4.95,16.93,9.77,26.05,0,7.15,3.45,13.63,2.14,24.59,0,17.25,12.85,20.99-3,22.98,0,5.77-2.05,10.61-1.03,21.21,0,5.18,7.03,12.14,12.8,19.29,0,6.64-7.74,19.38-1.35,17.22,0,2.4-6.12,11.24,2.36,14.99,0,6.72,3.07,9.63-7.19,12.61,0,3.97,1.31,2.08-1.66,10.08,0,1.01-4.04,4.1-5.15,7.39,0,4.38,1.03,1.53-5.53,4.55,0,8.21,6.74,8.95,2.85,1.55,0-7,4.3,3.8-.91,7.5-.87,3.61-1.7,9.88-1.98,18.51-1.91,4.95-.57,17.99-4.44,23.56-1.91,4.19-1.1,14.31-4.38,22.64-.87,10.53,1.72,20.01,1.69,22.64.87.49.2,13.44,3.11,23.56,1.91,4.3,11.81,17.31,2.92,18.51,1.91,5.23-.53.84.4,7.5.87-3.1-.2-3.1-4.72,2,0-3.6,1.17,2.49,4.07,5.85,0,8.71,1.82,2.69-4.64,9.48,0,4.49-5.28,2.73.64,12.88,0,2.9,4.32,6.77-4.99,16.05,0,7.84-.44,10.04-3.15,18.99,0,8.1,1.42,13.95,4.01,21.71,0,6.91-3.86,19.32-.49,24.21,0,7.18-1.94,15.55-.78,26.47,0,8.11-1.54,15.72,3.18,28.51,0,7.77.86,18.07.78,30.32,0,7.41-1.63,20.55-.35,31.91,0,9.61.54,21.43.85,33.27,0,11.56.1,24.55-5.65,34.4,0,12.72,1.58,25.22,1.64,35.31,0,10.59,3.9,23.22.87,35.99,0,11.06-4.22,34.89,7.39,36.44,0,4.3.85,10.98-.27,17.83-1.04,7.61-2.32,14.11-7.15,18.84,1.04,9.99-.51,13.27-1.36,18.35,0,8.18,5.11,10.34-.48,18.32,0,9.31,2.92,22.06-1.61,36.44,0,3.9,8.28,23.3-1.96,35.99,0,9.92-.75,23.84-3.5,35.31,0,12.89-.65,20.77,7.97,34.4,0,16.57,6.68,18.02-1.88,33.27,0,9.04,6.39,21.19,2.27,31.91,0,8.86,2.48,22.6-3.27,30.32,0,13.17,4.64,19.85,1,28.51,0,7.62.34,19.8-7.86,26.47,0,9.08-7.17,10.56-8.31,24.21,0,3.07,1.75,18.56.52,21.71,0,6.25,3.42,8.77,1.59,18.99,0,6.66-.53,8.98-4.71,16.05,0,9.89,2.28,13.83,7.52,12.88,0,1.86-1.85,11.36-2.19,9.48,0,6.12-6.84,5.48,1.17,5.85,0,4.34-1.59,2.17-.14,2,0-6.48-6.46,1.5-1.21-2.99-3.88-7.21,3.56-1.59-4.64-8.36-10.86-1-1.13-11.23-7.43-12.85-16.68.33-2.15-2.82-5.26-6.54-8.95-3.71-3.69-9.21-5.84-9.89-12.39-.81-6.53-6.74-4.62-9.9-10.42-1.64-4.73-6.99-6.33-9.22-14.42-4.78-6.2-5.29-6.85-6.22-13.45-2.76-9.54-4.71-10.31-14.69-13.71,4.26,7.9-6.58-1.68-7.22-14.73,1.33-11.56-4.7-6.01-14.58-13.59-16.01-9.41-10.27-10.27-13.93-13.3-4.45-4.2-7.22-12.38-7.87-15.03-2.63,1.29-5.25-6.02-10.66-10.75-7.11-2.85-15.58-13.37-10.25-16.41,1.92,3.52-6.99-13.13-12.25-11.49-12.61-27.35-34.03-44.02-33.12-43.03.36-5.67-2.39-8.11-3.02-8.33-7.11-2.92-2.74,6.19-6.53-2.61,1.64-3.6,3.72.25-1.84-8.26-6.95-9.37-18.46-3.14-19.34-3.76Z"/>
    </clipPath>
  </defs>
  <g id="room">
    <rect id="wall2" class="cls-15" x="5" y="2.5" width="2000" height="1736.83"/>
    <g id="wall2-2" data-name="wall2">
      <path class="cls-16" d="M2005,0H5c-1.35,0-2.5,1.15-2.5,2.5v1736.83c0,1.35,1.15,2.5,2.5,2.5h2000c1.35,0,2.5-1.15,2.5-2.5V2.5c0-3.22-5-3.22-5,0v1736.83l2.5-2.5H5l2.5,2.5V2.5l-2.5,2.5h2000c3.22,0,3.22-5,0-5Z"/>
    </g>
    <g id="wall1">
      <rect class="cls-14" x="5" y="609.28" width="2000" height="1130.05"/>
      <g>
        <line class="cls-4" x1="5" y1="1613.77" x2="2005" y2="1613.77"/>
        <line class="cls-4" x1="5" y1="1488.21" x2="2005" y2="1488.21"/>
        <line class="cls-4" x1="5" y1="1362.65" x2="2005" y2="1362.65"/>
        <line class="cls-4" x1="5" y1="1237.08" x2="2005" y2="1237.08"/>
        <line class="cls-4" x1="5" y1="1111.52" x2="2005" y2="1111.52"/>
        <line class="cls-4" x1="5" y1="985.96" x2="2005" y2="985.96"/>
        <line class="cls-4" x1="5" y1="860.4" x2="2005" y2="860.4"/>
        <line class="cls-4" x1="5" y1="734.84" x2="2005" y2="734.84"/>
        <line class="cls-4" x1="1871.67" y1="609.28" x2="1871.67" y2="1739.33"/>
        <line class="cls-4" x1="1738.34" y1="609.28" x2="1738.34" y2="1739.33"/>
        <line class="cls-4" x1="1605" y1="609.28" x2="1605" y2="1739.33"/>
        <line class="cls-4" x1="1471.67" y1="609.28" x2="1471.67" y2="1739.33"/>
        <line class="cls-4" x1="1338.34" y1="609.28" x2="1338.34" y2="1739.33"/>
        <line class="cls-4" x1="1205" y1="609.28" x2="1205" y2="1739.33"/>
        <line class="cls-4" x1="1071.67" y1="609.28" x2="1071.67" y2="1739.33"/>
        <line class="cls-4" x1="938.34" y1="609.28" x2="938.34" y2="1739.33"/>
        <line class="cls-4" x1="805" y1="609.28" x2="805" y2="1739.33"/>
        <line class="cls-4" x1="671.67" y1="609.28" x2="671.67" y2="1739.33"/>
        <line class="cls-4" x1="538.34" y1="609.28" x2="538.34" y2="1739.33"/>
        <line class="cls-4" x1="405" y1="609.28" x2="405" y2="1739.33"/>
        <line class="cls-4" x1="271.67" y1="609.28" x2="271.67" y2="1739.33"/>
        <line class="cls-4" x1="138.34" y1="609.28" x2="138.34" y2="1739.33"/>
      </g>
      <g class="cls-10">
        <rect class="cls-7" x="5" y="686.74" width="2000" height="34.31"/>
        <rect class="cls-7" x="5" y="1628.03" width="2000" height="111.5"/>
      </g>
    </g>
    <rect id="flour" class="cls-16" x="5" y="1687.16" width="2000" height="515.34"/>
    <g class="cls-17">
      <path class="cls-12" d="M1784.59,1751.84l-782.62,6.97-782.62-6.97L5,2084.92h921.44s47.38-6.97,75.53-6.97,75.53,6.97,75.53,6.97h921.44l-214.34-333.09Z"/>
      <g>
        <path class="cls-6" d="M461.17,1709.5c-8.77,14.82-56.24,27.09-106.02,27.41s-80.33-11.41-68.24-26.19c12.09-14.78,59.56-27.05,106.02-27.41,46.46-.36,77.02,11.37,68.24,26.19Z"/>
        <path class="cls-6" d="M763.38,1707.38c-3.03,14.9-45.83,27.23-95.61,27.54-49.78.32-84.99-11.47-78.65-26.32,6.34-14.85,49.15-27.18,95.61-27.54,46.46-.36,81.68,11.43,78.65,26.32Z"/>
        <path class="cls-6" d="M1065.6,1705.27c2.72,14.97-35.43,27.36-85.21,27.67-49.78.32-89.65-11.53-89.06-26.46.59-14.93,38.74-27.32,85.21-27.67,46.46-.36,86.34,11.49,89.06,26.46Z"/>
        <path class="cls-6" d="M1367.81,1703.15c8.47,15.04-25.02,27.49-74.8,27.81-49.78.32-94.31-11.59-99.47-26.59-5.15-15,28.33-27.45,74.8-27.81,46.46-.36,91,11.55,99.47,26.59Z"/>
        <path class="cls-6" d="M581.82,1785.14c-5.9,14.86-54.87,27.11-109.37,27.37-54.5.26-91.22-11.55-82-26.37,9.22-14.82,58.18-27.07,109.37-27.37,51.19-.3,87.9,11.51,82,26.37Z"/>
        <path class="cls-6" d="M913.7,1783.4c-.15,14.93-44.46,27.24-98.96,27.5-54.5.26-95.88-11.61-92.41-26.5,3.47-14.89,47.77-27.2,98.96-27.5,51.19-.3,92.56,11.57,92.41,26.5Z"/>
        <path class="cls-6" d="M1245.59,1781.67c5.6,15.01-34.05,27.38-88.56,27.63-54.5.26-100.54-11.67-102.82-26.63-2.28-14.96,37.37-27.33,88.56-27.63s97.22,11.63,102.82,26.63Z"/>
        <path class="cls-6" d="M1577.47,1779.93c11.34,15.08-23.64,27.51-78.15,27.76s-105.2-11.73-113.22-26.76c-8.03-15.04,26.96-27.47,78.15-27.76s101.88,11.69,113.22,26.76Z"/>
        <path class="cls-6" d="M1670.03,1701.04c14.22,15.12-14.61,27.62-64.39,27.94s-98.97-11.65-109.87-26.72c-10.9-15.07,17.93-27.58,64.39-27.94,46.46-.36,95.66,11.61,109.87,26.72Z"/>
        <path class="cls-6" d="M365.4,1871.27c-8.77,14.82-64.34,26.99-124.11,27.18-59.77.19-98.42-11.64-86.33-26.42,12.09-14.78,67.65-26.95,124.11-27.18s95.11,11.6,86.33,26.42Z"/>
        <path class="cls-6" d="M730.35,1869.96c-3.03,14.9-53.93,27.12-113.7,27.31-59.77.19-103.08-11.7-96.74-26.55,6.34-14.85,57.25-27.08,113.7-27.31s99.77,11.66,96.74,26.55Z"/>
        <path class="cls-6" d="M1095.3,1868.65c2.72,14.97-43.52,27.26-103.29,27.44-59.77.19-107.74-11.76-107.15-26.69.59-14.93,46.84-27.21,103.29-27.44s104.43,11.72,107.15,26.69Z"/>
        <path class="cls-6" d="M1460.25,1867.33c8.47,15.04-33.12,27.39-92.89,27.58s-112.4-11.82-117.55-26.82c-5.15-15,36.43-27.35,92.89-27.58s109.08,11.78,117.55,26.82Z"/>
        <path class="cls-6" d="M517.41,1947.31c-5.9,14.86-62.97,27.01-127.46,27.13-64.49.13-109.3-11.78-100.09-26.6,9.22-14.82,66.28-26.96,127.46-27.13,61.18-.17,105.99,11.74,100.09,26.6Z"/>
        <path class="cls-6" d="M912.04,1946.38c-.15,14.93-52.56,27.14-117.05,27.27-64.49.13-113.96-11.84-110.5-26.73,3.47-14.89,55.87-27.1,117.05-27.27s110.65,11.8,110.5,26.73Z"/>
        <path class="cls-6" d="M1306.66,1945.44c5.6,15.01-42.15,27.27-106.64,27.4-64.49.13-118.62-11.9-120.9-26.86-2.28-14.96,45.47-27.23,106.64-27.4,61.18-.17,115.31,11.86,120.9,26.86Z"/>
        <path class="cls-6" d="M1701.28,1944.51c11.34,15.08-31.74,27.41-96.24,27.53-64.49.13-123.28-11.96-131.31-26.99-8.03-15.04,35.06-27.36,96.24-27.53,61.18-.17,119.97,11.92,131.31,26.99Z"/>
        <path class="cls-6" d="M1825.2,1866.02c14.22,15.12-22.71,27.52-82.48,27.71s-117.06-11.88-127.96-26.95c-10.9-15.07,26.02-27.48,82.48-27.71s113.74,11.84,127.96,26.95Z"/>
        <path class="cls-6" d="M269.62,2033.05c-8.77,14.82-72.44,26.89-142.2,26.95-69.76.06-116.51-11.87-104.42-26.65,12.09-14.78,75.75-26.84,142.2-26.95,66.44-.1,113.19,11.83,104.42,26.65Z"/>
        <path class="cls-6" d="M697.31,2032.53c-3.03,14.9-62.03,27.02-131.79,27.08-69.76.06-121.17-11.93-114.83-26.78s65.35-26.98,131.79-27.08c66.44-.1,117.85,11.89,114.83,26.78Z"/>
        <path class="cls-6" d="M1125,2032.02c2.72,14.97-51.62,27.15-121.38,27.21-69.76.06-125.83-11.99-125.23-26.92s54.94-27.11,121.38-27.21c66.44-.1,122.51,11.95,125.23,26.92Z"/>
        <path class="cls-6" d="M1552.69,2031.51c8.47,15.04-41.22,27.28-110.97,27.35-69.76.06-130.49-12.05-135.64-27.05-5.15-15,44.53-27.24,110.97-27.35,66.44-.1,127.17,12.01,135.64,27.05Z"/>
        <path class="cls-6" d="M453.01,2109.49c-5.9,14.86-71.06,26.9-145.55,26.9s-127.39-12.01-118.18-26.83c9.22-14.82,74.38-26.86,145.55-26.9s124.08,11.97,118.18,26.83Z"/>
        <path class="cls-6" d="M910.37,2109.35c-.15,14.93-60.66,27.04-135.14,27.04s-132.05-12.07-128.58-26.96c3.47-14.89,63.97-26.99,135.14-27.04,71.17-.04,128.74,12.03,128.58,26.96Z"/>
        <path class="cls-6" d="M1367.73,2109.22c5.6,15.01-50.25,27.17-124.73,27.17s-136.71-12.13-138.99-27.09c-2.28-14.96,53.56-27.13,124.73-27.17s133.4,12.09,138.99,27.09Z"/>
        <path class="cls-6" d="M1825.09,2109.09c11.34,15.08-39.84,27.3-114.32,27.3s-141.37-12.19-149.4-27.23,43.16-27.26,114.32-27.3c71.17-.04,138.06,12.15,149.4,27.23Z"/>
        <path class="cls-6" d="M1980.38,2031c14.22,15.12-30.81,27.42-100.57,27.48-69.76.06-135.15-12.11-146.05-27.18-10.9-15.07,34.12-27.38,100.57-27.48,66.44-.1,131.83,12.07,146.05,27.18Z"/>
      </g>
    </g>
    <path class="cls-11" d="M5,1692.16c32.79.75,65.58,1.42,98.37,2.02,32.58.6,65.17,1.13,97.75,1.6,32.55.47,65.1.88,97.64,1.22,32.68.35,65.36.64,98.05.88,32.49.24,64.98.43,97.47.57,32.47.14,64.93.23,97.4.29,32.61.05,65.23.07,97.84.04,32.43-.02,64.87-.08,97.3-.17,32.43-.09,64.85-.21,97.28-.35,32.42-.14,64.84-.31,97.26-.49,32.58-.19,65.17-.39,97.75-.61,32.42-.22,64.85-.45,97.27-.69s64.86-.48,97.29-.73,65.22-.5,97.83-.75,64.92-.49,97.38-.72c32.48-.23,64.96-.46,97.45-.67,32.51-.21,65.02-.41,97.52-.58,32.7-.18,65.41-.33,98.11-.46,32.57-.13,65.15-.23,97.72-.31s65.22-.11,97.84-.12c15.82,0,31.64,0,47.47.02,2.62,0,5.12-2.3,5-5s-2.2-5-5-5c-32.8-.03-65.6-.02-98.4.02-32.59.04-65.18.12-97.77.22-32.55.1-65.11.24-97.66.39-32.69.16-65.38.33-98.06.53s-64.99.41-97.48.63c-32.47.22-64.94.46-97.41.7-32.62.24-65.23.49-97.85.74-32.44.25-64.87.5-97.31.74-32.43.24-64.85.48-97.28.71-32.42.23-64.84.45-97.26.65-32.58.2-65.17.39-97.75.56-32.42.16-64.84.31-97.27.42-32.43.12-64.86.2-97.29.26-32.61.06-65.21.08-97.82.06-32.46-.02-64.91-.07-97.37-.17-32.48-.1-64.96-.24-97.43-.43-32.5-.19-65.01-.43-97.51-.72-32.7-.3-65.4-.65-98.1-1.06-32.57-.41-65.13-.88-97.7-1.42s-65.21-1.14-97.81-1.81c-15.82-.33-31.64-.67-47.45-1.03-2.62-.06-5.12,2.34-5,5s2.2,4.94,5,5h0Z"/>
    <rect class="cls-12" x="359.17" y="130.08" width="447.13" height="841.72" rx="141.01" ry="141.01"/>
    <rect class="cls-16" x="399.64" y="203.21" width="366.19" height="689.36" rx="141.01" ry="141.01"/>
    <path class="cls-16" d="M462.1,233.73c-13.75,6.37-24.47,17.99-31.78,31.08-8.5,15.2-12.47,32.41-15.16,49.47-2.92,18.51-4.97,37.17-6.61,55.84-1.67,18.89-2.82,37.83-3.64,56.77-.82,18.97-1.29,37.94-1.61,56.92-.31,18.99-.46,37.99-.61,56.98s-.3,38.32-.46,57.49-.3,38.49-.46,57.74c-.15,19.25-.3,38.49-.46,57.74-.08,9.58-.15,19.16-.23,28.74-.04,4.83-.09,9.66-.11,14.5-.01,3.3.17,6.77,1.3,9.9,1.19,3.29,3.24,5.73,6.49,7.1,1.25.52,2.75-.56,3.08-1.75.4-1.44-.5-2.55-1.75-3.08-2.32-.97-3.26-3.87-3.72-6.31-.67-3.55-.39-7.28-.36-10.87.07-9.41.15-18.83.22-28.24.15-19,.3-37.99.45-56.99.15-18.91.3-37.82.45-56.74s.3-37.82.45-56.74.27-37.44.51-56.16c.24-18.74.6-37.47,1.25-56.2s1.58-37.25,2.97-55.84,3.22-37.13,5.66-55.6c2.29-17.34,4.93-34.9,11.45-51.24,5.38-13.47,13.92-26.31,25.87-34.8,2.93-2.08,6.05-3.89,9.31-5.4,1.23-.57,1.53-2.33.9-3.42-.74-1.26-2.19-1.47-3.42-.9h0Z"/>
    <path class="cls-11" d="M531.08,202.68c-25.24-2.4-49.69,7.34-69.34,22.69-9.91,7.74-18.52,17.02-25.86,27.22-7.86,10.91-13.82,23.01-18.54,35.58-10.19,27.15-13.79,56.32-15.73,85.09-2.1,31.2-2.98,62.52-3.71,93.78-.75,32.2-1.02,64.4-.79,96.61.23,32.2.95,64.41,2.16,96.59,1.18,31.28,2.53,62.62,4.99,93.83,2.17,27.52,6.15,55.7,19.17,80.44,12.28,23.32,32.88,41.36,56.86,52,27.53,12.22,57.92,14.66,87.54,10.55,7.31-1.02,14.56-2.45,21.72-4.24,2.54-.63,4.31-3.62,3.49-6.15s-3.43-4.17-6.15-3.49c-7.31,1.83-14.72,3.29-22.19,4.31,1.11-.15-.43.05-.54.07-.47.06-.94.12-1.4.17-.94.11-1.87.22-2.81.31-1.87.19-3.75.36-5.63.5-3.75.27-7.52.43-11.28.47-7.51.07-15.03-.35-22.48-1.34,1.12.15-.42-.06-.53-.08-.46-.07-.93-.14-1.39-.21-.93-.14-1.85-.29-2.78-.46-1.85-.32-3.69-.68-5.53-1.07-3.35-.72-6.67-1.55-9.96-2.52-3.02-.89-6-1.88-8.95-2.98-1.41-.53-2.82-1.08-4.21-1.66-.26-.11-1.12-.44-.08-.03-.37-.15-.72-.31-1.08-.47-.84-.37-1.68-.74-2.51-1.13-5.71-2.64-11.22-5.69-16.47-9.16-1.2-.79-2.39-1.61-3.56-2.44-.64-.45-1.27-.92-1.9-1.38-.31-.23-.63-.47-.94-.71-.21-.16-.42-.32-.62-.48.5.38.52.4.08.06-2.45-1.95-4.84-3.96-7.13-6.09s-4.49-4.35-6.59-6.67c-.96-1.06-1.9-2.14-2.82-3.25-.5-.6-.99-1.21-1.48-1.82-.24-.31-.49-.61-.73-.92.78,1.01-.27-.36-.4-.55-3.93-5.26-7.33-10.9-10.24-16.78-.67-1.35-1.31-2.72-1.93-4.1-.34-.75-.67-1.51-.99-2.26.47,1.11-.06-.16-.13-.33-.21-.51-.41-1.02-.62-1.53-1.17-2.94-2.23-5.93-3.19-8.94-2.03-6.35-3.64-12.82-4.95-19.35-.66-3.3-1.24-6.61-1.76-9.93-.26-1.67-.5-3.34-.73-5.01-.2-1.41.13,1.06-.05-.34-.05-.42-.11-.84-.16-1.26-.11-.84-.21-1.68-.31-2.52-1.66-13.93-2.47-27.94-3.31-41.94-.95-15.91-1.78-31.82-2.48-47.74-1.41-31.76-2.34-63.54-2.8-95.33-.45-31.79-.43-63.58.08-95.37.51-31.83,1.49-63.66,2.96-95.46.65-14.17,1.45-28.34,2.93-42.45.37-3.47.78-6.93,1.23-10.39.19-1.47-.15,1.04.06-.43.06-.44.12-.88.18-1.32.12-.88.25-1.76.38-2.64.26-1.76.54-3.51.83-5.26,1.17-6.97,2.58-13.91,4.31-20.76s3.77-13.56,6.19-20.17c.61-1.65,1.24-3.29,1.89-4.93.27-.68.55-1.36.83-2.04.56-1.35-.4.91.18-.43.23-.54.46-1.08.7-1.62,1.4-3.17,2.89-6.31,4.49-9.38,2.79-5.35,5.96-10.51,9.46-15.43.84-1.19,1.71-2.36,2.59-3.51.17-.23.69-.95.03-.04.22-.31.47-.6.7-.9.55-.7,1.11-1.38,1.67-2.07,1.94-2.34,3.95-4.62,6.04-6.83,4.17-4.39,8.64-8.49,13.4-12.23.17-.14,1.16-.95.18-.14.29-.24.6-.46.9-.68.5-.38,1-.75,1.51-1.12,1.31-.95,2.65-1.88,4-2.78,2.48-1.65,5.03-3.2,7.64-4.63s5.24-2.75,7.94-3.95c.34-.15.67-.29,1.01-.44.23-.1.85-.42-.18.07.66-.31,1.36-.56,2.04-.82,1.48-.58,2.97-1.12,4.48-1.62,2.77-.92,5.59-1.71,8.44-2.36,1.3-.3,2.62-.56,3.93-.8.72-.13,1.44-.25,2.16-.36.36-.05.72-.13,1.08-.16-1.42.12,0,0,.3-.03,5.69-.67,11.43-.73,17.12-.18,2.61.25,5.11-2.48,5-5-.13-2.92-2.2-4.73-5-5h0Z"/>
    <path class="cls-11" d="M755.1,338.7c-.22,23.47-.34,46.94-.35,70.4s.09,47.1.29,70.65c.11,13.23.26,26.46.45,39.69.04,2.61,2.27,5.12,5,5s5.04-2.2,5-5c-.32-23.47-.54-46.93-.65-70.4-.11-23.55-.11-47.1,0-70.65.06-13.23.15-26.46.28-39.7.02-2.62-2.32-5.12-5-5s-4.97,2.2-5,5h0Z"/>
    <path class="cls-11" d="M763.76,177.19c5.6,5.21,11.2,10.44,16.43,16.03,2.63,2.81,5.14,5.71,7.53,8.72.05.06.48.61.12.15-.39-.49.16.2.24.32.25.33.5.66.75,1,.58.78,1.14,1.57,1.7,2.37,1.11,1.59,2.16,3.22,3.16,4.88s1.87,3.24,2.71,4.91c.41.81.8,1.62,1.17,2.44.2.44.4.89.59,1.34-.39-.86.15.38.27.66,1.53,3.85,2.72,7.84,3.63,11.88.45,1.99.83,3.99,1.16,6,.16.97.3,1.95.44,2.92-.14-.98.05.4.09.7.06.53.13,1.06.18,1.58.46,4.17.75,8.35.95,12.54.86,17.87,1.14,35.79,1.68,53.67.54,18.14,1.09,36.28,1.63,54.43s1.09,36.45,1.64,54.68c.07,2.25.13,4.49.2,6.74.08,2.61,2.24,5.12,5,5s5.08-2.2,5-5c-.55-18.39-1.1-36.78-1.65-55.18s-1.1-36.78-1.65-55.18c-.55-18.2-.99-36.4-1.65-54.59-.63-17.15-2.29-34.55-10.22-50.06-7.15-13.97-18.41-25.37-29.73-36.01-1.43-1.34-2.86-2.68-4.3-4.01-1.92-1.78-5.2-2.04-7.07,0s-2.05,5.17,0,7.07h0Z"/>
  </g>
  <g id="_Слой_7" data-name="Слой 7">
    <g>
      <path class="cls-13" d="M1293.82,363.22c1.81-2.1,3.74-4.1,5.79-5.96.97-.88,1.98-1.74,3-2.57.24-.2.5-.38.74-.58-1.78,1.52-.75.57-.33.26.55-.41,1.11-.82,1.67-1.21,4.47-3.15,9.3-5.77,14.33-7.9l-1.79.76c7.29-3.05,14.95-5.06,22.77-6.13l-1.99.27c9.06-1.21,18.19-1.1,27.24.12l-1.99-.27c12.5,1.73,24.61,5.44,36.22,10.33l-1.79-.76c16.85,7.15,32.9,16.53,47.8,27.14,1.77,1.26,3.52,2.55,5.25,3.86.43.32.89.63,1.3.99-.06-.05-1.5-1.17-.55-.43.16.13.32.25.48.38.91.71,1.81,1.43,2.71,2.15,3.36,2.72,6.64,5.55,9.81,8.5s6.19,5.99,9.1,9.17c1.45,1.58,2.86,3.2,4.24,4.85.64.77,1.28,1.55,1.91,2.33.33.42.66.84,1,1.26.57.73-1-1.3-.44-.56.2.27.41.53.61.8,6,7.95,11.02,16.58,14.92,25.75l-.76-1.79c5.01,11.9,8.12,24.49,9.87,37.26l-.27-1.99c2.34,17.42,2.21,35.12.7,52.61-.42,4.86-.96,9.72-1.6,14.56l.27-1.99c-3.78,28.14-11.31,55.64-21.15,82.24-2.81,7.59-5.81,15.11-8.95,22.57l.76-1.79c-10.65,25.18-23,49.6-36.03,73.63-13.01,23.98-26.7,47.58-40.2,71.28-13.94,24.48-27.48,49.19-39.62,74.62-12.41,26-23.51,52.72-32.01,80.26-8.29,26.9-14.02,54.68-15.85,82.8-1.8,27.67.52,55.69,7.47,82.57,6.3,24.35,16.34,47.66,28.34,69.71,12,22.03,26.01,42.9,40.56,63.32,14.65,20.57,29.89,40.73,44.48,61.35,14.71,20.78,29.09,42.02,40.47,64.85,2.61,5.23,5.06,10.54,7.33,15.93l-.76-1.79c6.46,15.33,11.44,31.26,14.58,47.59.82,4.27,1.52,8.56,2.1,12.86l-.27-1.99c1.75,13.15,2.37,26.43,2.12,39.69-.25,13.19-1.33,26.36-2.8,39.47-.84,7.56-1.82,15.11-2.83,22.65l.27-1.99c-2.69,20-5.63,39.96-7.76,60.03-2.3,21.68-3.61,43.46-3.35,65.27.16,13.77.94,27.52,2.31,41.22.2,2.04.7,3.81,2.2,5.3,1.3,1.3,3.44,2.28,5.3,2.2,3.73-.17,7.92-3.32,7.5-7.5-1.94-19.37-2.67-38.84-2.21-58.3.41-17.34,1.74-34.65,3.65-51.89,1-9.04,2.15-18.06,3.36-27.07l-.27,1.99c1.9-14.13,3.95-28.25,5.7-42.4,1.62-13.06,2.97-26.16,3.6-39.3.62-13.06.52-26.16-.66-39.19-1.28-14.2-3.7-28.31-7.46-42.06-4.17-15.26-9.94-30.08-16.79-44.34-7.49-15.61-16.48-30.41-26-44.85-9.32-14.14-19.16-27.93-29.12-41.63s-20.11-27.36-29.99-41.17c-9.8-13.69-19.36-27.56-28.28-41.84s-16.97-28.58-24.01-43.62c-1.71-3.65-3.35-7.33-4.92-11.04l.76,1.79c-6.76-16.03-12.12-32.64-15.58-49.7-1.08-5.33-1.97-10.69-2.7-16.08l.27,1.99c-2.49-18.77-2.82-37.77-1.29-56.63.43-5.36,1.02-10.71,1.73-16.04l-.27,1.99c3.95-29.26,11.89-57.85,22.13-85.51,2.96-8,6.12-15.94,9.44-23.8l-.76,1.79c10.3-24.38,22.1-48.1,34.67-71.38,12.16-22.52,25.09-44.61,37.73-66.86,12.56-22.09,24.93-44.3,36.36-67,11.5-22.82,22.06-46.17,30.82-70.19,8.46-23.21,15.15-47.1,19.08-71.51,4.07-25.26,5.85-51.33,2.53-76.79-1.7-13.04-4.5-25.88-9.42-38.11-2.5-6.22-5.35-12.29-8.78-18.06-3.24-5.46-6.94-10.6-10.88-15.57-14.8-18.66-34.24-33.38-54.49-45.65-22.72-13.77-47.42-24.94-74.06-27.84-11.73-1.28-23.7-.52-35.18,2.2s-21.8,7.19-30.93,13.88c-4.69,3.44-9.05,7.23-12.84,11.65-1.31,1.53-2.2,3.23-2.2,5.3,0,1.84.82,4.04,2.2,5.3,2.81,2.58,7.88,3.18,10.61,0h0Z"/>
      <path class="cls-13" d="M1584.62,728.64c-4.89-.9-9.62-.19-13.93,2.38-3.95,2.36-6.95,5.72-9.67,9.37-4.33,5.82-7.6,12.66-10.44,19.31-3.08,7.19-5.67,14.53-7.6,22.12s-3.21,15.35-4.14,23.13c-1.76,14.8-1.74,29.77-.81,44.63,1,15.92,3.07,31.75,5.38,47.53,2.23,15.2,4.76,30.36,6.94,45.56.3,2.07.58,4.15.86,6.22l-.27-1.99c3.12,23.32,5.04,46.8,5.72,70.32.68,23.52.14,47.07-1.62,70.53-.99,13.18-2.37,26.32-4.13,39.42l.27-1.99c-2.25,16.69-5.11,33.3-8.41,49.81-3.3,16.52-7.05,32.94-11.07,49.3s-8.36,32.85-12.79,49.22c-4.41,16.3-8.93,32.57-13.39,48.86s-8.86,32.57-13.05,48.92c-4.19,16.38-8.15,32.83-11.71,49.36-3.59,16.64-6.78,33.37-9.41,50.19-2.69,17.18-4.84,34.46-6.22,51.8-1.33,16.75-1.94,33.56-1.64,50.36s1.65,34.55,3.97,51.7c.56,4.11,1.18,8.22,1.86,12.31.29,1.74,1.98,3.63,3.45,4.48,1.61.94,3.98,1.34,5.78.76s3.57-1.71,4.48-3.45c1-1.89,1.11-3.68.76-5.78-.71-4.25-1.35-8.51-1.93-12.79l.27,1.99c-2.3-17.27-3.48-34.68-3.68-52.1s.56-34.9,2.08-52.27c.87-9.88,1.98-19.74,3.3-29.57l-.27,1.99c2.7-20.04,6.26-39.97,10.41-59.76,4.16-19.85,8.91-39.56,13.98-59.2,5.04-19.52,10.37-38.97,15.72-58.4,5.35-19.44,10.72-38.88,15.82-58.39,5.09-19.48,9.93-39.02,14.21-58.69s8.04-39.58,10.94-59.56c3.02-20.8,5.18-41.72,6.31-62.71,1.11-20.56,1.29-41.16.53-61.74s-2.46-41.11-5.1-61.53c-2.39-18.48-5.5-36.85-8.23-55.28-.65-4.36-1.27-8.72-1.86-13.09l.27,1.99c-2.85-21.24-4.89-42.72-3.92-64.18.27-5.89.77-11.76,1.55-17.6l-.27,1.99c1.77-13,4.97-25.8,10.04-37.91l-.76,1.79c2.27-5.39,4.9-10.62,7.88-15.65.7-1.17,1.41-2.33,2.2-3.45.19-.26.38-.52.56-.79.85-1.2-1.17,1.41-.22.28.42-.5.83-1,1.26-1.48.48-.52.97-1.03,1.48-1.51.23-.22.47-.43.7-.64.49-.43,1.43-.87-.35.23,1.15-.71,2.18-1.46,3.44-1.99l-1.79.76c.87-.35,1.76-.6,2.69-.75l-1.99.27c.95-.13,1.88-.14,2.83-.03l-1.99-.27c.24.03.49.07.73.12,2.02.37,3.95.31,5.78-.76,1.56-.91,3.04-2.69,3.45-4.48.84-3.68-1.11-8.47-5.24-9.23h0Z"/>
      <path class="cls-13" d="M1266.17,800.43c3.49-4.07,7.27-7.88,11.34-11.37.99-.85,2-1.69,3.02-2.5.2-.16.41-.32.61-.49,1-.79-.56.42.07-.06.57-.43,1.14-.87,1.72-1.29,2.16-1.59,4.38-3.09,6.64-4.52,4.48-2.82,9.17-5.31,14.01-7.46.24-.1,2.13-.95.97-.43.6-.27,1.21-.5,1.82-.74,1.21-.48,2.44-.95,3.67-1.39,2.58-.93,5.2-1.76,7.85-2.5s5.06-1.31,7.62-1.83c1.28-.26,2.57-.5,3.85-.71.58-.1,1.16-.19,1.74-.27.32-.05.65-.11.97-.14-1.32.12.02,0,.22-.03,5.32-.66,10.68-.93,16.04-.77,1.86.05,3.71.15,5.56.33.57.05,1.14.11,1.7.18.25.03.5.06.76.09.14.02.28.04.43.05.97.12-1.47-.21-.72-.1,5.45.8,10.82,2.01,16.07,3.7,1.53.49,3.04,1.02,4.54,1.59.76.29,1.51.58,2.26.88.38.15.76.32,1.14.47-2.07-.84-.37-.15.12.06,3.21,1.41,6.34,2.99,9.38,4.75,3.27,1.89,6.43,3.98,9.44,6.26.17.13.34.26.52.39.69.52-1.2-.94-.33-.25.4.32.8.63,1.2.95.76.62,1.52,1.25,2.26,1.89,1.56,1.35,3.08,2.76,4.55,4.21s2.95,3.03,4.34,4.62c.73.83,1.44,1.67,2.13,2.52.33.4.65.8.97,1.21.15.19.3.39.46.58-1.23-1.5-.37-.47-.08-.09,2.82,3.72,5.36,7.65,7.62,11.74,1.22,2.21,2.37,4.47,3.43,6.76.25.55.5,1.1.75,1.65.22.49,1.16,2.77.38.84.49,1.22,1,2.43,1.46,3.65,2.04,5.34,3.68,10.84,4.99,16.4.71,3.01,1.32,6.04,1.84,9.09.27,1.57.51,3.15.73,4.73.03.24.06.48.1.72-.26-1.53-.13-.95-.08-.6.05.41.11.81.16,1.22.11.91.22,1.81.32,2.72.77,7.17,1.11,14.39,1.11,21.6,0,8.18-.45,16.35-1.24,24.48-.21,2.17-.44,4.34-.7,6.51-.13,1.11-.27,2.22-.41,3.33-.04.31-.32,2.26-.09.69-.09.62-.17,1.24-.26,1.87-.67,4.74-1.44,9.47-2.31,14.19-4.05,22.14-9.99,43.91-17,65.28-7.14,21.78-13.54,43.8-17.92,66.31-3.22,16.56-5.44,33.4-5.78,50.29-.25,12.7.67,25.4,2.81,37.93,1.68,9.8,4.2,19.42,7.06,28.93,2.52,8.36,5.28,16.66,7.43,25.13,1.06,4.16,1.96,8.36,2.63,12.6.08.53.16,1.06.24,1.6.07.47.19,1.63-.05-.36.03.3.08.59.11.89.14,1.11.26,2.23.36,3.35.21,2.24.34,4.49.4,6.74.13,4.95-.11,9.9-.68,14.81-.07.61-.15,1.23-.23,1.84-.11.86.2-1.4.07-.55-.02.13-.04.26-.06.39-.06.4-.11.79-.17,1.19-.45,2.99-.94,5.98-1.41,8.97-1.05,6.73-2.11,13.45-3.15,20.18-4.13,26.74-8.06,53.52-11.23,80.4-3.11,26.38-5.46,52.87-6.45,79.42-.99,26.59-.6,53.24,1.71,79.75,1.15,13.21,2.79,26.37,4.89,39.46.42,2.59,3.78,4.26,6.15,3.49,2.81-.91,3.94-3.38,3.49-6.15-.55-3.44-1.08-6.89-1.56-10.34-.12-.82-.23-1.64-.34-2.46.03.22.12.87-.02-.15-.05-.41-.11-.82-.16-1.23-.22-1.72-.44-3.44-.65-5.17-.81-6.71-1.48-13.43-2.04-20.16-1.1-13.31-1.71-26.66-1.92-40.02-.41-26.67.84-53.35,3.13-79.92,1.15-13.34,2.56-26.66,4.17-39.96.81-6.71,1.66-13.42,2.56-20.12.04-.33.09-.65.13-.98.22-1.62-.13.98.09-.63.11-.82.22-1.64.33-2.45.22-1.64.45-3.27.68-4.91.48-3.44.96-6.88,1.46-10.31,1.91-13.29,3.93-26.56,5.99-39.82,1.04-6.73,2.1-13.46,3.16-20.19.58-3.73,1.17-7.45,1.55-11.2.98-9.75.51-19.51-1.1-29.17-1.42-8.53-3.81-16.86-6.34-25.12-2.72-8.87-5.54-17.72-7.74-26.74-1.24-5.09-2.3-10.22-3.14-15.39-.22-1.39-.43-2.79-.63-4.18-.17-1.21.17,1.32.01.08-.04-.35-.09-.7-.13-1.05-.09-.71-.17-1.42-.25-2.13-.34-3.03-.61-6.07-.81-9.12-.93-14.56-.19-29.2,1.62-43.67.06-.52.13-1.04.2-1.56.03-.26.07-.52.1-.78.09-.73-.18,1.32-.03.23s.31-2.24.48-3.36c.33-2.25.69-4.5,1.07-6.74.81-4.77,1.71-9.53,2.7-14.27,2.21-10.6,4.85-21.11,7.78-31.53,3.43-12.2,7.45-24.19,11.26-36.27,3.5-11.1,6.68-22.29,9.46-33.59,4.73-19.28,8.29-38.9,9.88-58.7,1.21-15.07,1.23-30.29-.73-45.3-1.6-12.22-4.3-24.27-8.97-35.7-3.98-9.74-9.09-18.77-15.62-27.03-5.4-6.82-11.75-12.76-18.76-17.89-5.85-4.28-12.2-7.83-18.87-10.67-6.02-2.56-12.21-4.63-18.61-6.01s-13.42-2.15-20.22-2.14c-21.89.02-43.82,6.7-62.16,18.62-8.9,5.78-17.04,12.78-23.94,20.85-1.7,1.99-2.1,5.15,0,7.07,1.87,1.72,5.25,2.12,7.07,0h0Z"/>
      <path class="cls-13" d="M1584.73,174.62c-12.53,15.97-24.5,32.39-35.33,49.56-10.63,16.85-20.19,34.42-28,52.76s-14.14,37.76-17.82,57.6c-4.12,22.21-5.29,44.86-4.74,67.42.55,22.5,2.72,44.91,5.09,67.28.29,2.73.58,5.46.87,8.19s2.1,5.13,5,5c2.47-.11,5.3-2.21,5-5-2.37-22.2-4.73-44.43-5.67-66.75-.47-11.03-.58-22.08-.17-33.12.21-5.54.54-11.08,1.04-16.6.24-2.72.52-5.44.84-8.15.37-3.16.5-4.1.98-7.28,3.01-19.9,8.51-39.33,15.95-58.01.42-1.06.85-2.12,1.28-3.17.22-.53.44-1.05.66-1.58.37-.88.07-.16,0,.01.17-.39.33-.79.5-1.18.95-2.23,1.94-4.45,2.94-6.66,2.04-4.49,4.19-8.94,6.43-13.34,4.49-8.83,9.35-17.48,14.49-25.94,10.28-16.93,21.71-33.15,33.77-48.85.14-.19,1.16-1.51.53-.69.35-.45.7-.91,1.06-1.36.79-1.02,1.59-2.04,2.38-3.05.85-1.09,1.46-2.09,1.46-3.54,0-1.23-.54-2.69-1.46-3.54-1.8-1.65-5.35-2.2-7.07,0h0Z"/>
      <path class="cls-13" d="M1505.9,589.57c-7.9,12.95-14.22,26.86-19.07,41.23s-8.15,29.05-10.36,43.96c-2.32,15.68-3.51,31.49-3.85,47.32s.15,32.13,1.12,48.16c.99,16.48,2.49,32.92,4.19,49.34s3.6,32.86,5.42,49.29c1.79,16.19,3.52,32.4,4.86,48.64,1.3,15.69,2.26,31.42,2.51,47.16.28,17.3-.5,34.6-1.52,51.87-1.11,18.65-2.67,37.28-4.59,55.87-1.88,18.25-4.1,36.47-6.53,54.66-.04.32-.22,1.64-.09.67-.08.59-.16,1.18-.24,1.77-.16,1.18-.32,2.36-.48,3.54-.3,2.21-.61,4.42-.92,6.63-.64,4.56-1.28,9.11-1.94,13.66-1.28,8.91-2.6,17.82-3.94,26.72-2.65,17.64-5.38,35.26-8.06,52.9-2.65,17.44-5.24,34.88-7.64,52.36s-4.66,35.26-6.56,52.94-3.4,34.74-4.47,52.16-1.66,34.7-1.67,52.07c0,17.49.59,34.98,1.89,52.42,1.35,18.11,3.47,36.17,6.38,54.1,2.93,18.09,6.71,36.04,11.34,53.78,2.31,8.84,4.83,17.63,7.56,26.36.78,2.49,3.52,4.34,6.15,3.49s4.33-3.48,3.49-6.15c-5.57-17.84-10.29-35.94-14.11-54.24-1.85-8.88-3.5-17.81-4.94-26.77-.71-4.43-1.37-8.87-1.98-13.31-.07-.51-.14-1.02-.21-1.52.14,1.01-.04-.29-.08-.63-.15-1.16-.3-2.32-.45-3.48-.28-2.24-.55-4.49-.81-6.73-2-17.42-3.24-34.92-3.83-52.44-.58-17.4-.52-34.81.07-52.21.59-17.35,1.71-34.68,3.22-51.98,1.51-17.29,3.41-34.54,5.56-51.75.54-4.34,1.1-8.68,1.67-13.02.14-1.07.28-2.14.42-3.2.07-.5.13-1,.2-1.5.1-.77-.11.82,0,.05.05-.36.1-.71.14-1.07.29-2.14.58-4.28.88-6.41,1.2-8.72,2.45-17.43,3.73-26.13,2.58-17.55,5.28-35.08,7.96-52.62,2.71-17.75,5.41-35.5,7.96-53.28,2.62-18.25,5.09-36.51,7.28-54.82,2.2-18.38,4.12-36.8,5.64-55.25s2.67-37.53,3.29-56.34c.51-15.51.2-31.03-.65-46.52s-2.29-32.03-3.91-48c-1.66-16.37-3.54-32.72-5.37-49.07-1.82-16.36-3.58-32.72-5-49.12-1.4-16.22-2.48-32.48-2.89-48.76-.4-15.8-.19-31.62,1.04-47.38.3-3.85.66-7.7,1.08-11.53.21-1.87.43-3.75.67-5.62.06-.44.11-.87.17-1.31.09-.72-.13.93-.03.21.03-.25.07-.5.1-.74.13-.93.26-1.86.4-2.78,1.11-7.47,2.5-14.91,4.22-22.26s3.72-14.44,6.11-21.51c1.19-3.51,2.46-6.99,3.83-10.44.34-.85.68-1.69,1.03-2.53.07-.18.59-1.42.31-.75s.03-.08.1-.24c.12-.28.24-.56.36-.84.72-1.67,1.47-3.34,2.24-4.99,3.04-6.54,6.44-12.9,10.2-19.05,1.36-2.24.56-5.6-1.79-6.84s-5.38-.59-6.84,1.79h0Z"/>
    </g>
    <rect class="cls-18" x="1399.07" y="1538.21" width="162.12" height="215.62" rx="43.44" ry="43.44"/>
  </g>
  <g id="objects">
    <g id="table_chairs" data-name="table+ chairs">
      <path class="cls-9" d="M1325.84,1218.36h38.23c2.76,0,4.97,2.28,4.89,5.04l-17.79,564.93c-.08,2.64-2.25,4.74-4.89,4.74h-15.55c-2.7,0-4.89-2.19-4.89-4.89v-569.82"/>
      <path class="cls-2" d="M1694.33,1141.28l-39.89,217.71s-7.67,44.76-47.11,49.09"/>
      <path class="cls-3" d="M1611.85,1798.29l-88.57-377.09s-7.75-30.16-45.98-30.72c-38.23-.56-164.52.25-164.52.25,0,0-33.17.56-41.04,49.47-7.87,48.91-50.03,354.16-50.03,354.16"/>
      <path class="cls-6" d="M1807.4,1034.69s5.67-16.43-10.2-22.66c-15.86-6.23-80.46-21.53-80.46-21.53,0,0-14.23-2.83-22.41,9.07-8.18,11.9-30.28,81.59-26.88,97.45,3.4,15.86.57,23.94,33.43,44.27,32.86,20.33,51.56,25.43,64.59,17.49s41.93-124.08,41.93-124.08Z"/>
      <path class="cls-6" d="M1608.47,1421.2c0,2.87-365.79,0-365.79,0,0,0-20.28-16.9-20.96-43.95s33.13-49.36,70.32-46.65c37.19,2.7,248.82,26.37,269.78,33.81,20.96,7.44,46.65,18.26,46.65,56.79Z"/>
      <path class="cls-2" d="M1814.69,1039.86l-114.94,333.78s-18.94,51.23-73.7,49.87-379.66,0-379.66,0"/>
      <path class="cls-2" d="M1711.91,1932.41l-134.55-448.95s-4.73-40.57-50.71-41.24c-45.98-.68-174.44,0-174.44,0,0,0-39.89.68-49.36,59.5-9.47,58.82-60.18,425.96-60.18,425.96"/>
      <path class="cls-9" d="M1448.46,1136.1l-37.7,834.71c-.22,4.96-4.31,8.86-9.27,8.86h-14.97c-5.13,0-9.28-4.16-9.28-9.28v-834.71c0-5.13,4.16-9.28,9.28-9.28h52.68c5.29,0,9.51,4.42,9.27,9.7Z"/>
      <path class="cls-9" d="M684.17,1218.36h-38.23c-2.76,0-4.97,2.28-4.89,5.04l17.79,564.93c.08,2.64,2.25,4.74,4.89,4.74h15.55c2.7,0,4.89-2.19,4.89-4.89v-569.82"/>
      <polygon class="cls-18" points="1005 1123.02 627.37 1123.02 627.37 1223.77 1005 1223.77 1382.64 1223.77 1382.64 1123.02 1005 1123.02"/>
      <polygon class="cls-16" points="1399.68 1055.41 1005 1055.41 610.32 1055.41 514.42 1109.74 1005 1109.74 1495.59 1109.74 1399.68 1055.41"/>
      <polygon class="cls-9" points="1005 1109.74 514.42 1109.74 514.42 1126.4 1005 1126.4 1495.59 1126.4 1495.59 1109.74 1005 1109.74"/>
      <path class="cls-2" d="M315.67,1141.28l39.89,217.71s7.67,44.76,47.11,49.09"/>
      <path class="cls-3" d="M398.16,1798.29l88.57-377.09s7.75-30.16,45.98-30.72c38.23-.56,164.52.25,164.52.25,0,0,33.17.56,41.04,49.47,7.87,48.91,50.03,354.16,50.03,354.16"/>
      <path class="cls-6" d="M202.61,1034.69s-5.67-16.43,10.2-22.66c15.86-6.23,80.46-21.53,80.46-21.53,0,0,14.23-2.83,22.41,9.07,8.18,11.9,30.28,81.59,26.88,97.45-3.4,15.86-.57,23.94-33.43,44.27s-51.56,25.43-64.59,17.49-41.93-124.08-41.93-124.08Z"/>
      <path class="cls-6" d="M401.54,1421.2c0,2.87,365.79,0,365.79,0,0,0,20.28-16.9,20.96-43.95s-33.13-49.36-70.32-46.65c-37.19,2.7-248.82,26.37-269.78,33.81-20.96,7.44-46.65,18.26-46.65,56.79Z"/>
      <path class="cls-2" d="M195.32,1039.86l114.94,333.78s18.94,51.23,73.7,49.87,379.66,0,379.66,0"/>
      <path class="cls-2" d="M298.09,1932.41l134.55-448.95s4.73-40.57,50.71-41.24c45.98-.68,174.44,0,174.44,0,0,0,39.89.68,49.36,59.5,9.47,58.82,60.18,425.96,60.18,425.96"/>
      <path class="cls-9" d="M561.55,1136.1l37.7,834.71c.22,4.96,4.31,8.86,9.27,8.86h14.97c5.13,0,9.28-4.16,9.28-9.28v-834.71c0-5.13-4.16-9.28-9.28-9.28h-52.68c-5.29,0-9.51,4.42-9.27,9.7Z"/>
    </g>
    <g id="flower">
      <g>
        <path class="cls-9" d="M905.92,781.86c-2.01-11.67-4.59-23.16-7.08-34.63,5.1-1.57,9.65-4.4,13.52-8.16,3.87-3.76,7.07-8.45,9.56-13.61,4.98-10.35,7.13-22.42,6.45-33.63h0c-8.68.51-16.62,3.97-22.59,10.44-5.98,6.41-9.87,15.75-10.79,26.33-1.6-8.34-2.96-16.7-3.87-25.1,2.73-5.6,4.71-11.51,6.17-17.41,1.47-5.91,2.38-11.83,2.96-17.61.11-1.46.29-2.88.34-4.34.14-1.42.15-2.88.25-4.3.09-2.88.18-5.72.14-8.62,0-5.76-.23-11.68-.56-17.93h0s0,0,0,0c-5.89,2.05-11.4,6.36-15.59,12.09-4.16,5.72-7,12.75-8.14,19.91-1.21,7.17-.83,14.45.8,21.09,1.64,6.65,4.55,12.68,8.4,17.69.93,8.59,2.31,17.09,3.93,25.53-4.81-9.57-11.21-17.62-18.51-23.57-7.3-5.89-15.57-9.72-24.28-9.21h0c.27,4.37.92,8.53,1.85,12.45.95,3.89,2.18,7.56,3.66,10.92,2.94,6.74,6.81,12.33,11.16,16.71,4.36,4.38,9.22,7.55,14.31,9.49,5.09,1.94,10.4,2.65,15.69,1.97,2.49,11.49,5.06,22.92,7.03,34.41-4.61-9.55-11.52-16.92-19.29-21.55-7.77-4.6-16.46-6.53-24.97-4.67h0s0,0,0,0c1.56,7.17,4.01,13.45,7.08,18.89,3.1,5.47,6.72,9.99,10.87,13.82,2.03,1.88,4.2,3.58,6.48,5.09,2.23,1.48,4.59,2.77,7.04,3.84,4.86,2.12,10.02,3.35,15.37,3.29.55,5.77.91,11.55.84,17.32.05,2.89-.17,5.76-.28,8.64l-.4,4.29c-.07.71-.12,1.43-.21,2.15l-.31,2.13c-1.48-10.38-6.77-18.82-13.64-24.07-6.88-5.3-15.25-7.51-23.93-6.66h0c.55,5.75,1.78,10.81,3.61,15.5.82,2.29,1.97,4.58,3.07,6.72.56,1.08,1.26,2.18,1.86,3.22.62,1.04,1.3,2.09,2.02,3.12.37.52.74,1.04,1.11,1.55.35.51.72,1.02,1.1,1.52.75,1.01,1.55,2.01,2.39,3,1.68,1.98,3.36,3.89,5.29,5.69,1.93,1.79,3.94,3.46,6.1,4.93,2.17,1.47,4.49,2.73,6.98,3.71-.4,1.38-.82,2.76-1.31,4.12-.47,1.36-.93,2.73-1.42,4.09-1.04,2.7-2.05,5.4-3.22,8.06-1.1,2.68-2.36,5.3-3.56,7.94-1.29,2.61-2.53,5.23-3.89,7.81,2.11-10.39.79-20.38-3.51-27.89-2.1-3.77-4.98-6.93-8.25-9.44-3.35-2.5-7.19-4.34-11.36-5.6h0c-1.47,4.87-2.37,10.09-2.68,15.56-.37,5.48-.09,11.16.89,16.69,1.95,11.05,6.98,21.31,15.81,27.34-5.78,10.19-11.86,20.24-17.45,30.69,2.33-10.49,2.4-20.74-.25-29.42-2.62-8.69-7.89-15.74-15.48-20.04h0c-3.4,5.96-5.97,12.43-7.55,19.02-1.57,6.57-2.23,13.45-1.64,19.71.28,3.13.87,6.18,1.7,8.98.85,2.83,2,5.48,3.38,7.85,2.77,4.77,6.64,8.59,11.29,11.17-4.5,9.9-8.18,20.24-10.68,30.93l-.81,4.04-.4,2.02-.3,2.04-.59,4.09-.36,4.12c-.05.69-.13,1.37-.17,2.06l-.05,2.07c-.03,1.38-.09,2.76-.08,4.14.14,2.76.12,5.54.5,8.28.22,2,1.56,3.44,3,3.22,1.44-.22,2.44-1.9,2.24-3.75-.37-2.58-.34-5.2-.48-7.8,0-1.3.06-2.61.08-3.92l.05-1.96c.03-.65.11-1.3.16-1.96l.34-3.91.56-3.89.28-1.95.38-1.93.78-3.86c2.4-10.25,5.95-20.26,10.34-29.93,5.05,1.77,10.32,2.24,15.63,1.77,2.66-.24,5.29-.73,7.9-1.44,2.65-.71,5.21-1.64,7.77-2.8,5.12-2.34,10.01-5.44,14.7-9.78,4.69-4.33,9.07-9.72,12.81-16.29-7.58-4.29-16.47-5.01-25.32-2.94-8.84,2.09-17.74,6.94-25.12,14.53,5.49-10.27,11.57-20.33,17.38-30.57,4.84,2.23,10.14,3.16,15.59,2.77,2.73-.2,5.5-.71,8.28-1.57,2.77-.89,5.56-2.04,8.31-3.6,5.5-3.09,10.86-7.62,15.64-13.62,4.75-6.05,8.89-13.65,11.59-22.58h0c-4.17-1.26-8.52-1.34-12.86-.62-4.41.67-8.75,2.23-13.07,4.26-8.59,4.15-16.93,10.28-24.27,18.12,1.38-2.62,2.66-5.3,3.97-7.96,1.23-2.71,2.52-5.38,3.65-8.14,1.2-2.72,2.24-5.52,3.32-8.3.51-1.4.98-2.82,1.47-4.23.51-1.4.94-2.84,1.36-4.27,2.61.55,5.26.73,7.93.52,2.67-.21,5.36-.8,7.95-1.85,2.6-1.04,5.25-2.46,7.7-4.36,1.22-.95,2.43-2.01,3.62-3.16.59-.58,1.18-1.18,1.76-1.81.57-.63,1.1-1.29,1.64-1.98,1.07-1.37,2.11-2.84,3.11-4.4,1.01-1.56,1.84-3.19,2.71-4.92,1.75-3.47,3.03-7.17,4.17-11.17,2.07-7.9,2.79-16.6,1.96-25.19h0c-8.67.84-16.24,5.9-22.54,13.01-6.3,7.14-11.44,16.35-15.79,26.3l.32-2.23c.1-.74.15-1.49.22-2.24l.41-4.48c.12-2.99.34-5.98.29-8.97.07-5.98-.3-11.94-.87-17.86,5.24-.96,10.1-3.34,14.26-7.01,2.07-1.82,3.97-3.97,5.69-6.4,1.69-2.41,3.18-5.09,4.45-8.01,2.5-5.75,4.1-12.45,4.62-19.31.54-6.88.05-14.03-1.46-20.95h0s0,0,0,0c-8.51,1.86-15.64,7.06-20.78,14.61-5.16,7.53-8.32,17.3-9.42,27.98Z"/>
        <path class="cls-9" d="M807.24,867.19c-1.84-7.19-4.31-14.28-7.61-20.99,3.83-2.2,7.05-5.13,9.44-8.81,1.17-1.82,2.07-3.81,2.76-5.97.67-2.15,1.17-4.51,1.27-6.88.06-1.19.06-2.42,0-3.67-.07-1.24-.2-2.43-.4-3.67-.4-2.52-1.04-4.86-1.92-7.29-1.73-4.67-4.31-9-7.44-12.51h0c-2.71,2.4-4.92,5.15-6.62,8.15-1.71,3-2.95,6.18-3.69,9.55-1.51,6.68-1.1,13.79.54,20.55-3.04-4.51-6.44-8.72-9.94-12.78-.1-4.33-1.14-8.5-2.76-12.25-1.64-3.76-3.83-7.08-6.38-9.92-5.18-5.7-11.56-9.41-19.85-12.43h0s0,0,0,0c-1.46,4.08-1.76,8.7-.83,13.01.88,4.35,2.82,8.48,5.42,11.91,2.59,3.46,5.82,6.29,9.38,8.36,3.58,2.09,7.51,3.46,11.73,4.17,3.44,3.99,6.73,8.06,9.62,12.37-5.5-3.83-12.2-5.06-18.73-4.24-3.24.42-6.54,1.32-9.63,2.74-3.09,1.42-6.06,3.33-8.77,5.73h0c2.84,3.19,5.84,5.35,9.03,6.77,1.51.68,3.23,1.23,4.84,1.59.82.18,1.71.35,2.57.47.84.12,1.71.21,2.61.27,1.84.12,3.61.2,5.55.16,1.92-.03,3.95-.18,5.98-.41,4.01-.43,8.23-1.35,12.32-3.05,3.15,6.4,5.52,13.19,7.3,20.15-.48-.69-.99-1.35-1.52-1.98-.56-.62-1.15-1.21-1.75-1.77-1.22-1.11-2.45-2.13-3.84-2.97-2.81-1.65-5.74-2.82-8.97-3.25-3.2-.46-6.41-.38-9.73.32-3.31.69-6.6,1.9-9.84,3.49h0,0c1.27,2.49,3.08,4.8,5.5,6.91,2.38,2.15,5.35,4.11,8.69,5.85.84.43,1.72.83,2.62,1.21.88.4,1.78.77,2.71,1.12,1.86.69,3.82,1.27,5.85,1.71,4.04.9,8.32,1.27,12.72.79,1.23,7.11,2.02,14.32,2.6,21.56-2.94-6.13-7.76-11.03-13.74-13.81-5.91-2.85-12.91-3.53-20.01-2.3h0c1.22,7.07,5.36,13.88,11.48,19.13,3.06,2.6,6.61,4.8,10.5,6.34,3.9,1.53,8.14,2.41,12.56,2.44.43,7.28.73,14.57,1.23,21.92-2.84-6.25-7.38-11.52-13.08-15.07-5.69-3.56-12.51-5.36-19.72-4.95h0c.25,4.32,1.33,8.5,3.13,12.41,1.79,3.83,4.33,7.59,7.39,10.58,3.1,3.03,6.69,5.37,10.67,6.92,3.96,1.54,8.24,2.23,12.65,2.04.8,7.33,1.91,14.64,3.54,21.87-3.81-5.77-8.84-10.66-14.88-14.02-5.94-3.32-12.92-5.14-20.09-4.36h0c1.08,10.09,6.21,19.23,13.42,24.79,1.75,1.38,3.73,2.57,5.7,3.5,1.99.93,4,1.62,6.13,2.06,4.24.88,8.58.74,12.87-.33,2.08,6.48,4.71,12.83,8.06,18.82,3.31,6.01,7.52,11.56,12.37,16.45.87.9,2.25.91,3.07.03s.84-2.27.03-3.1c-4.56-4.59-8.52-9.81-11.67-15.52-3.18-5.69-5.7-11.76-7.7-18.01,4.12-1.61,7.79-3.9,10.95-6.48,1.58-1.29,3.1-2.7,4.45-4.14,1.37-1.46,2.54-2.91,3.68-4.49,4.37-6.2,6.7-13.15,5.86-20.89h0c-7.2.79-13.6,3.47-18.61,7.83-4.92,4.29-8.43,10.24-9.37,16.91-1.58-7.03-2.67-14.19-3.46-21.39,8.73-1.55,16.16-6.08,21.43-12.08,2.64-3.05,4.73-6.37,6.11-10.36,1.37-3.91,2.03-8.27,1.77-12.91h0c-7.22.41-13.77,3.14-19.05,7.3-5.27,4.17-9.31,9.81-11.29,16.3-.5-7.24-.8-14.56-1.23-21.86,4.39-.53,8.5-1.9,12.17-3.99,3.67-2.08,6.91-4.87,9.49-8.3,5.18-6.8,7.88-16.25,6.06-26.86h0c-7.15,1.24-13.21,5.01-18.12,9.83-4.83,4.87-8.52,10.84-10.4,17.43-.59-7.33-1.39-14.66-2.65-21.96,4.29-1.03,8.25-2.9,11.59-5.56,1.66-1.33,3.18-2.86,4.54-4.58.68-.86,1.32-1.76,1.91-2.71.57-.95,1.09-1.95,1.56-2.99,1.94-4.14,2.96-9.01,2.86-14.29-.15-5.28-1.4-10.98-4.16-16.51h0c-3.24,1.59-6.03,3.82-8.4,6.39-2.36,2.57-4.47,5.52-6.13,8.61-1.62,3.08-3.12,6.37-4.11,9.68-.5,1.66-1.02,3.35-1.35,5.05-.18.85-.33,1.7-.44,2.55-.15.86-.28,1.72-.37,2.58Z"/>
      </g>
      <rect class="cls-6" x="790.94" y="1001.98" width="90.84" height="81.5" rx="16.49" ry="16.49"/>
      <rect class="cls-5" x="776" y="997.98" width="120.7" height="19.29" rx="6.67" ry="6.67"/>
    </g>
    <path class="cls-11" d="M516.67,1131.1c31.7,1.6,63.41,2.87,95.13,3.87,31.71,1,63.44,1.73,95.16,2.23,31.73.51,63.46.8,95.19.92,31.57.12,63.15.08,94.72-.07s63.49-.41,95.24-.73c31.75-.32,63.5-.69,95.25-1.07,31.75-.38,63.5-.76,95.25-1.08s63.17-.6,94.75-.77c31.75-.17,63.49-.24,95.24-.14,31.74.09,63.49.35,95.23.82,7.64.11,15.29.24,22.93.38,2.62.05,5.12-2.33,5-5s-2.2-4.95-5-5c-31.74-.57-63.48-.92-95.22-1.09-31.75-.17-63.49-.18-95.24-.06-31.75.12-63.5.35-95.25.65-31.58.3-63.17.66-94.75,1.03s-63.5.76-95.25,1.1c-31.75.34-63.49.64-95.24.84-31.74.2-63.48.3-95.22.25-31.57-.05-63.14-.25-94.7-.65-31.73-.4-63.45-1.02-95.17-1.89-31.72-.87-63.44-2-95.14-3.45-7.64-.35-15.27-.71-22.91-1.1-2.62-.13-5.12,2.39-5,5,.13,2.82,2.2,4.86,5,5h0Z"/>
    <path class="cls-11" d="M1207.83,1191.31c-.22,2.29-1.57,4.45-3.54,5.63-.98.6-2.11.96-3.25,1.05-.29.03-.57.03-.86.02h-.33s-.21-.03-.21-.03l-.84-.06-6.74-.41c-4.5-.26-9.01-.51-13.53-.71-9.03-.44-18.08-.81-27.13-1.02-9.06-.23-18.12-.36-27.19-.26-4.53.07-9.07.11-13.6.27l-13.61.46c-36.34,1.26-72.65,1.14-108.97,1.46l-54.47.22-54.47.13c-18.16.03-36.31-.02-54.47-.09l-6.81-.03h-3.4s-1.77-.03-1.77-.03c-.84-.03-1.69-.15-2.51-.39-3.3-.93-5.98-3.65-6.87-6.98-.24-.82-.33-1.68-.36-2.53l-.02-1.73-.03-3.4-.1-13.61-.05-6.81v-.85c0-.3.02-.78.04-1.16.07-.81.22-1.61.45-2.4.46-1.57,1.25-3.03,2.3-4.28,2.09-2.5,5.28-4.08,8.55-4.21h1.2s.84.04.84.04l1.67.07,3.36.11c4.49.12,9,.17,13.52.18,9.04.03,18.09-.09,27.15-.25,18.12-.27,36.24-.8,54.37-1.38,36.36-1.12,72.69-1.46,109.02-1.59,18.16-.04,36.33-.03,54.49.04l54.48.44c18.16.17,36.32.48,54.47.82l13.59.26.83.02h.42s.21.01.21.01c.27,0,.92.06,1.31.19.43.13.89.34,1.19.54.35.22.62.45.81.65.24.23.4.42.53.6.15.2.27.37.35.52.39.65.55,1.13.7,1.57.53,1.71.63,2.93.77,4.21.22,2.5.24,4.85.23,7.19-.13,9.32-.89,18.4-1.75,27.51ZM1200.28,1190.6c.78-8.96,1.46-18,1.51-26.84,0-2.19-.05-4.39-.24-6.41-.09-.97-.26-2.02-.43-2.47-.03-.1-.07-.15.02.01l.11.17c.05.06.12.14.25.28.1.09.26.23.48.38.18.11.5.28.8.36.26.09.76.15.89.13h-.22s-.44,0-.44,0h-.87s-13.64-.16-13.64-.16l-54.44-.55-54.44-.41c-18.14-.12-36.29-.18-54.43-.19-36.28.03-72.57.26-108.79,1.28-18.16.54-36.33,1.03-54.51,1.26-9.1.09-18.19.12-27.31.02-4.56-.05-9.12-.14-13.7-.3l-6.53-.28c-1.26.04-2.5.62-3.33,1.6-.42.48-.74,1.05-.93,1.66-.09.3-.16.62-.19.94,0,.19-.03.27-.03.54v.85s-.06,6.81-.06,6.81l-.1,13.61-.03,3.4v1.67c0,.28.01.57.1.83.25,1.09,1.15,2.02,2.23,2.35.27.09.55.13.84.15l1.63.04,3.4.06,6.81.13,54.44.98,54.45.89,54.45.59c9.08.08,18.15.16,27.22.16l27.22-.06c18.14-.09,36.3-.25,54.41-.82,18.12-.74,36.29-1.86,54.47-2.57,9.1-.33,18.2-.58,27.32-.62,4.56.02,9.12.04,13.69.18l6.86.27.86.04h.21c.1.02.11.01.1,0,0,0,0,0,0,0-.01,0-.03,0-.05,0-.02,0-.06.03-.07.05Z"/>
  </g>
  <g id="_Слой_6" data-name="Слой 6">
    <g>
      <path class="cls-9" d="M1167.16,749.65s.16-.43.46-1.18c-.72.6-.46,1.18-.46,1.18Z"/>
      <path class="cls-9" d="M1326.46,774.36c-17.35-11.57-36.8,6.31-36.8,6.31,0,0,12.09-36.8-12.09-52.58-24.19-15.77-77.81-13.67-89.91-7.36-10.44,5.44-18.13,23.03-20.04,27.74,1.57-1.32,7.82-2.79,31.61,1.18,34.7,5.78,38.91,22.08,35.75,24.19-3.15,2.1-35.23-9.46-35.23-9.46,0,0-34.7-6.83-44.69,6.09-9.99,12.93-11.04,48.59-11.04,48.59,43.64-34.17,83.07-11.57,82.02-7.89-1.05,3.68,7.36,7.89-24.71,8.41-32.07.53-58.36,16.82-58.36,16.82-8.41,44.16,23.66,98.72,23.66,98.72,35.75-20.62,94.64,26.93,151.95-42.47,57.31-69.4,25.24-106.73,7.89-118.3ZM1288.01,882.9c-5.55,1.15-11.61-5.5-13.55-14.86s1-17.86,6.55-19.01c5.55-1.15,11.61,5.5,13.55,14.86,1.93,9.35-1,17.86-6.55,19.01ZM1309.71,859.86c-4.39.74-9.22-6.16-10.78-15.42-1.56-9.26.73-17.36,5.12-18.1,4.39-.74,9.22,6.16,10.78,15.42,1.56,9.26-.73,17.36-5.12,18.1Z"/>
    </g>
    <path class="cls-8" d="M1494,581.36c-2.49-2.91-50.51-60.63-10.89-103.06,39.62-42.43,140.81-46.96,202.15,16.19,0,0-107.77,20.17-105.97,51.07,1.8,30.9,51.17-44.71,122.6-20.92,0,0,35.87,28.06,40.69,63.74,0,0-103.3-44.24-163.04,5.31-10.77,8.93-6.88,14.86,13.3,8.07,37.8-12.73,108.42-28.3,154.27,2.9,0,0,18.71,36.49,14.7,61.97,0,0-41.54-53.97-150.05-33.97-17.13,3.16-4.33,11.33,18.71,12.44,40.8,1.96,108.66,10.03,128.3,53.09,0,0-3.65,29.08-15.97,55.02-12.32,25.94-21.91,50.16-14.63,59.43,0,0-7.84-.6-20.37,2.43s-41.7,7.56-57.66,26.23c0,0-42.96-22.63-54.49-103.81-11.53-81.18-22.4,96.37,34.98,112.29,0,0-49.53,6.38-78.66.37,0,0-35.66-49.7-8.78-132.16,26.88-82.46-16.64-43.05-21.59-16.03-4.95,27.03-22.8,72.24,16.19,140.88,0,0-52.47-6.01-77.91-18.22-25.44-12.21,13.83-115.9,24.9-142.72,11.07-26.81-2.22-25.13-18.19-1.19-15.97,23.94-35.23,99.92-20.08,132.08,0,0-51-22.69-62.43-49.9-11.43-27.22,55.1-98.35,59.23-106.21s2.51-24.06-18.41-4.17c-20.92,19.89-50.04,88.94-50.01,96.57,0,0-38.16-43.82-33.95-72.77,4.21-28.95,66.99-44.65,72.48-53.37,5.49-8.72,13.12-21.71-15.14-13.42-28.26,8.29-57.99,43.77-57.99,43.77,0,0-6.35-10.82-3.62-25.45,2.73-14.63,53.21-89.98,89.26-78.3,36.06,11.68,68.06,31.83,68.06,31.83Z"/>
    <path class="cls-9" d="M1464.49,261.14c.59,1.59,12.52,32.65,36.75,25.54,24.23-7.12,46.83-46.64,35.6-84.14,0,0-29.88,38.93-41.2,31.86s27.48-11.27,33.22-44.71c0,0-3.21-20.1-15.72-29.37,0,0-4.58,50.39-35.66,64.08-5.6,2.47-7.04-.3-.31-6.97,12.62-12.5,33.09-37.52,30.75-62.26,0,0-9.94-14.98-20.41-18.61,0,0,11.84,27.7-18.12,66.96-4.73,6.2-5.18-.6-.85-10.03,7.68-16.71,18.63-45.5,6.4-62.2,0,0-11.76-4.52-24.12-4.92s-23.5-1.55-25.51-6.37c0,0-1.39,3.26-5.12,7.64-3.73,4.39-11.47,15.12-21.83,17.66,0,0-.31,21.82,28.03,43.12,28.34,21.29-41.09-10.85-35.27-37.06,0,0-12.64,18.49-16.38,31.37,0,0,11.45,24.47,48.2,30.67,36.75,6.2,12.86,15.5,1.61,11.92-11.25-3.58-32.04-5.73-49.96-35.43,0,0-8.55,22.21-9.19,34.89s46.71,18.29,59.14,19.38c12.43,1.08,9.05,6.05-3.31,7.52-12.36,1.46-45.08-6.45-54.12-19.12,0,0-1.94,25.05,5.99,35.21s48.59-1.81,52.41-1.85c3.83-.03,9.62,3.94-2.22,8.21-11.85,4.28-43.98,1.72-46.86.14,0,0,8.7,24.26,20.53,28.53,11.82,4.27,30.72-17.6,35.16-18s10.92-.78,1.95,8.81c-8.97,9.59-28.53,14.19-28.53,14.19,0,0,2.78,4.76,8.88,6.68,6.1,1.92,45.03-2.78,48.05-19.59,3.02-16.81,2.01-33.75,2.01-33.75Z"/>
    <path class="cls-8" d="M914.1,558.01s16.24-6.22,33.85,3.79c17.6,10.01,85.15,76.48,123.8,54.8,38.65-21.68,39.14-132.82,51.05-139.73,11.91-6.91,58.72,20.73-33.86,161.32-15.57,23.64,198.23-42.24,198.23-42.24,0,0,18.06-71.39,9.14-144.97-8.92-73.58,42.6,40.97,14.09,131.23,0,0,149.75-72.76,99.4-176.55-26.7-55.04-88.88-57.21-88.88-57.21,0,0,53.35-75.67-32.87-125.92-86.22-50.25-187.79,28.23-187.79,28.23,0,0,150.74,50.56,126.67,87.84-12.33,19.1-87.29-83.51-143-77.36-39.53,4.36-83.91,73.91-83.91,73.91,0,0,157.06-6.29,150.81,47.28-5.03,43.04-62.45-45.91-141.94-39.25-48.67,4.08-55.74,95.99-55.74,95.99,0,0,120.41-33.66,120.46,7.25.04,30.35-57.72-15.46-110.73,7.96-53.01,23.42-4.75,70.99-48.75,103.64ZM1237.91,274.48c4.54-6.77,17.52-6.03,28.99,1.66,11.47,7.69,17.09,19.42,12.55,26.19-4.54,6.77-17.52,6.03-28.99-1.66-11.47-7.69-17.09-19.42-12.55-26.19ZM1250.88,446.89c-1.15-9.46-7.5-16.81-2.19-18.06s13.27,9.32,13.07,22.7c-.2,13.38-3.98,18.51-8.72,13.2-4.74-5.31-1.02-8.38-2.16-17.83ZM1227.24,467.25c-.74-21.16-6.73-25.45,1.07-26.23,0,0,2.78,3.07,8.61,15.95,8.5,18.78-5.58,54.09-10.97,49.69-5.39-4.4,2.04-18.26,1.29-39.42ZM1167.58,367.57c3.86-2.9,11.36.58,16.76,7.76,5.4,7.18,6.64,15.36,2.79,18.26-3.86,2.9-11.36-.58-16.76-7.76-5.4-7.18-6.64-15.36-2.79-18.26ZM1066.7,504.92c6.48,2.25,12.22,10.66,6.25,26.56-5.96,15.9-11.51,20.21-17.84,13.09-6.33-7.12,5.11-41.9,11.58-39.65Z"/>
    <path class="cls-8" d="M1689.77,104.45s-6.87,6.8-18.06,5.66c-11.2-1.14-60.46-19.81-75.26-.12-14.8,19.69,9.88,76.34,5.37,82.52-4.51,6.18-34.51,2.62-18.95-89.65,2.62-15.51-91.36,65.93-91.36,65.93,0,0,6.82,40.36,27.86,75.79,21.04,35.43-30.86-11.29-36.59-63.59,0,0-59.86,70.59-10.97,112.09,25.92,22.01,58.04,9.17,58.04,9.17,0,0-10.17,50.45,44.95,56.68,55.12,6.23,89.19-56.46,89.19-56.46,0,0-88.01,8.08-84.12-16.28,1.99-12.48,63.13,22.9,90.08,7.28,19.13-11.08,26.11-56.41,26.11-56.41,0,0-78.48,38.42-87.31,9.77-7.1-23.02,42.06,9.35,81-11.87,23.84-12.99,6.83-61.32,6.83-61.32,0,0-53.7,44.12-62.9,23.32-6.82-15.43,32.83-5.08,54.54-28.88,21.71-23.8-13.5-37.17,1.56-63.65ZM1588.65,321.28c-.79,4.46-7.56,6.99-15.12,5.66-7.56-1.34-13.05-6.04-12.26-10.51.79-4.46,7.56-6.99,15.12-5.66,7.56,1.34,13.05,6.04,12.26,10.51ZM1543.39,236.49c2.7,4.55,7.58,6.87,5.16,8.7-2.42,1.83-8.84-1.76-11.74-8.61-2.9-6.85-2.13-10.31,1.48-8.67,3.6,1.64,2.39,4.03,5.1,8.59ZM1550.85,220.84c5.12,10.59,9.13,11.44,5.34,13.58,0,0-2.1-.94-7.96-6.18-8.53-7.64-9.29-28.77-5.56-27.74,3.73,1.03,3.06,9.74,8.18,20.34ZM1603.54,258.16c-1.31,2.34-5.91,2.25-10.26-.19-4.36-2.44-6.82-6.32-5.51-8.66,1.31-2.34,5.91-2.25,10.26.19,4.36,2.44,6.82,6.32,5.51,8.66ZM1624.06,165.68c-3.8.31-8.6-2.68-9.14-12.11-.53-9.42,1.32-12.86,6.14-10.66,4.82,2.21,6.8,22.46,3,22.76Z"/>
  </g>
  <g id="_Слой_5" data-name="Слой 5">
    <path class="cls-11" d="M563.1,1129.37c1.23,28.8,2.46,57.61,3.69,86.41,1.23,28.8,2.46,57.61,3.69,86.41,1.23,28.8,2.46,57.61,3.69,86.41s2.46,57.61,3.69,86.41c1.23,28.8,2.46,57.61,3.69,86.41,1.23,28.8,2.46,57.61,3.69,86.41s2.46,57.61,3.69,86.41c1.23,28.78,2.46,57.55,3.69,86.33,1.23,28.75,2.46,57.5,3.69,86.25.61,14.37,1.23,28.75,1.84,43.12.26,6.06.17,12.24,1.82,18.14,1.33,4.75,3.57,9.82,7.28,13.21,1.8,1.65,3.96,3.02,6.38,3.52,3.01.63,5.71.06,8.48-1.15,2.4-1.06,3.14-4.75,1.79-6.84-1.61-2.49-4.27-2.92-6.84-1.79,1.47-.64-.16-.03-.55.09-.53.16-.76-.13.42-.03-.24-.02-.52.03-.76.03-.07,0-.48-.04-.5-.02.28-.32,1.34.32.36.03-.15-.04-.32-.09-.47-.12-1.2-.26.7.46.05.05-.35-.22-.73-.42-1.09-.63-.79-.48.74.68.28.24-.16-.15-.34-.29-.5-.44-.34-.31-.66-.64-.96-.98-.18-.2-.35-.48-.55-.65.85.73.39.51.08.07-.61-.89-1.15-1.82-1.64-2.78-.12-.24-.23-.48-.35-.72-.49-1.05-.12,0-.01,0-.14,0-.63-1.66-.69-1.84-.36-1.04-.66-2.11-.92-3.18-.13-.53-.24-1.07-.35-1.61-.06-.32-.12-.64-.17-.96-.08-.47.11-1.21,0,.06.1-1.08-.21-2.38-.25-3.46-.08-1.91-.16-3.82-.25-5.73-.15-3.57-.31-7.15-.46-10.72-.31-7.15-.61-14.29-.92-21.44-1.21-28.42-2.43-56.83-3.64-85.25s-2.44-57.03-3.66-85.55-2.44-57.11-3.66-85.66c-1.22-28.47-2.43-56.94-3.65-85.41-1.22-28.64-2.45-57.28-3.67-85.91-1.22-28.47-2.43-56.94-3.65-85.41-1.22-28.55-2.44-57.11-3.66-85.66-1.22-28.55-2.44-57.11-3.66-85.66s-2.43-56.94-3.65-85.41c-.3-6.99-.6-13.99-.9-20.98-.11-2.61-2.22-5.12-5-5-2.61.12-5.12,2.2-5,5h0Z"/>
    <path class="cls-11" d="M1431.41,1136.08c.1,27.06.09,54.11-.04,81.17-.13,27.06-.36,54.11-.71,81.16-.35,26.97-.81,53.94-1.39,80.91-.57,26.97-1.26,53.93-2.06,80.89-.8,27.04-1.72,54.08-2.74,81.11-1.02,27.03-2.14,54.06-3.34,81.08-1.2,26.94-2.48,53.88-3.82,80.81-1.34,26.93-2.75,53.87-4.19,80.79-1.45,26.93-2.94,53.86-4.45,80.78-1.52,27.01-3.06,54.02-4.61,81.02-.38,6.56-.75,13.13-1.13,19.69-.15,2.62,2.41,5.12,5,5,2.84-.13,4.84-2.2,5-5,1.55-27.01,3.1-54.01,4.62-81.02,1.53-27.01,3.04-54.02,4.51-81.03s2.89-53.86,4.26-80.79c1.37-26.93,2.68-53.87,3.92-80.81,1.24-27.02,2.4-54.05,3.47-81.07,1.07-27.03,2.04-54.06,2.89-81.1.85-26.96,1.59-53.92,2.22-80.89.63-26.97,1.15-53.93,1.55-80.9.4-26.97.7-53.94.88-80.91.18-27.06.25-54.11.2-81.17-.01-6.58-.03-13.15-.05-19.73,0-2.62-2.29-5.12-5-5s-5.01,2.2-5,5h0Z"/>
    <path class="cls-11" d="M226.21,1184.1c10.2,26.63,20.4,53.26,30.59,79.89,10.2,26.63,20.4,53.26,30.59,79.89,4.61,12.04,9.04,24.17,13.95,36.09,4.24,10.31,8.95,20.55,15.51,29.61s14.98,17.1,25.35,21.88c12.05,5.55,25.17,7.18,38.2,8.75,28.18,3.4,56.36,6.8,84.53,10.2,3.46.42,6.92.84,10.38,1.25,2.61.31,5.11-2.52,5-5-.13-2.98-2.21-4.66-5-5-27.93-3.37-55.86-6.74-83.79-10.12-3.54-.43-7.09-.86-10.63-1.28-1.49-.18-2.98-.36-4.46-.54-.73-.09-1.45-.18-2.18-.28.01,0-1.41-.19-.64-.08.37.05.31.04-.21-.03-.29-.04-.58-.08-.87-.12-6.06-.85-12.11-1.93-17.98-3.7-1.38-.42-2.75-.88-4.11-1.38-.68-.25-1.35-.52-2.02-.78-1.33-.53.91.42-.4-.17-.39-.18-.79-.36-1.18-.54-2.55-1.2-5-2.59-7.33-4.17-.56-.38-1.11-.77-1.66-1.17-.24-.18-.51-.35-.74-.55.85.77.23.18,0,0-1.05-.84-2.07-1.71-3.06-2.62-1.94-1.77-3.76-3.68-5.47-5.67-.4-.47-.79-.94-1.18-1.41-.16-.19-.31-.38-.46-.57l-.23-.29c-.34-.43-.3-.39.1.14-.43-.33-.8-1.05-1.11-1.48-.44-.6-.87-1.21-1.29-1.82-1.49-2.16-2.89-4.38-4.2-6.65-2.67-4.61-5.02-9.4-7.18-14.27-.26-.58-.51-1.17-.77-1.75-.15-.35-.3-.7-.45-1.05-.02-.04-.51-1.2-.2-.46s-.18-.42-.19-.46c-.12-.29-.24-.59-.37-.88-.27-.65-.53-1.3-.79-1.94-1.02-2.52-2.01-5.05-2.99-7.59-2.47-6.42-4.92-12.85-7.39-19.28-10.05-26.24-20.1-52.48-30.15-78.73s-20.1-52.48-30.15-78.73l-3.75-9.78c-.93-2.43-3.41-4.38-6.15-3.49-2.37.77-4.49,3.54-3.49,6.15h0Z"/>
    <path class="cls-11" d="M1781.88,1149.96c-7.24,23.92-14.87,47.73-22.88,71.41-7.97,23.52-16.31,46.91-25.04,70.17-8.78,23.4-17.95,46.66-27.5,69.76-1.17,2.83-2.35,5.66-3.53,8.49-.3.72-.6,1.44-.9,2.15-.11.27-.23.54-.34.81-.55,1.31.24-.57-.1.23-.58,1.36-1.16,2.71-1.75,4.07-2.27,5.19-4.71,10.32-7.59,15.21-1.45,2.46-3.02,4.86-4.72,7.15-.14.19-.74.97-.15.21-.18.23-.36.46-.55.69-.42.53-.85,1.05-1.29,1.56-.82.96-1.66,1.89-2.53,2.81-1.64,1.71-3.36,3.34-5.17,4.88-.84.72-1.7,1.47-2.6,2.12,1.07-.77-.51.37-.77.57-.55.4-1.11.8-1.67,1.19-3.95,2.74-8.14,5.14-12.47,7.24-1.02.5-2.05.98-3.09,1.44-.58.26-1.16.51-1.74.76-.84.37,0,0,.14-.06-.35.15-.7.29-1.06.44-2.37.97-4.76,1.86-7.17,2.7-9.39,3.27-19.06,5.67-28.76,7.83-2.37.53-4.74,1.04-7.12,1.55-2.56.55-4.29,3.68-3.49,6.15.87,2.7,3.41,4.08,6.15,3.49,19.7-4.22,39.88-8.86,57.49-19.02,9-5.19,17.04-11.89,23.4-20.12,7.32-9.47,12.05-20.48,16.65-31.44,9.72-23.18,19.05-46.53,27.99-70.02,8.98-23.59,17.57-47.32,25.77-71.19,8.17-23.79,15.95-47.72,23.33-71.77.9-2.93,1.79-5.86,2.68-8.79.76-2.5-.9-5.56-3.49-6.15s-5.34.81-6.15,3.49h0Z"/>
    <path class="cls-11" d="M990.36,1173.01h33.25c2.62,0,5.12-2.3,5-5s-2.2-5-5-5h-33.25c-2.62,0-5.12,2.3-5,5s2.2,5,5,5h0Z"/>
    <path class="cls-11" d="M1241.45,1334.62c-12.41,6.7-20.53,19.94-22.44,33.75-.98,7.1-.68,14.38,1.52,21.25,2.39,7.49,6.83,14.09,12.6,19.41,7.38,6.79,16.32,11.4,25.61,15,2.44.95,5.59-1.04,6.15-3.49.65-2.86-.87-5.14-3.49-6.15-.87-.34-1.74-.69-2.61-1.04-.2-.08-.87-.39.08.03-.18-.08-.37-.16-.55-.24-.49-.21-.98-.43-1.47-.66-1.77-.81-3.52-1.67-5.24-2.6s-3.5-1.98-5.18-3.09c-.78-.51-1.55-1.04-2.3-1.59-.32-.23-.64-.48-.96-.71.95.69-.51-.41-.71-.57-1.48-1.22-2.91-2.51-4.24-3.89-.64-.67-1.27-1.35-1.87-2.05-.3-.35-.6-.71-.89-1.07-.12-.16-.25-.31-.37-.47.67.85.08.08-.06-.1-.95-1.29-1.81-2.64-2.58-4.05-.35-.65-.69-1.3-1-1.97-.16-.33-.29-.67-.45-1-.28-.6.36.94.14.32-.07-.2-.16-.39-.23-.59-.55-1.42-1-2.87-1.38-4.34-.18-.71-.34-1.43-.48-2.15-.08-.41-.16-.83-.22-1.24-.03-.16-.05-.31-.07-.47-.08-.46.1-.91.03.24.05-.7-.17-1.5-.22-2.2-.06-.79-.09-1.58-.11-2.37-.03-1.53.02-3.07.15-4.59.03-.37.07-.74.11-1.11.02-.16.04-.32.05-.47.09-.87-.02.3-.05.38.26-.69.25-1.62.4-2.35.29-1.51.66-3,1.11-4.47.21-.71.45-1.41.7-2.11.12-.35.25-.69.39-1.04.07-.18.55-1.49.28-.72s.17-.38.26-.56c.15-.33.31-.67.47-1,.35-.71.71-1.41,1.1-2.09.85-1.51,1.8-2.94,2.81-4.35.65-.92-.54.64.17-.23.26-.32.53-.65.8-.96.58-.67,1.18-1.33,1.8-1.96.59-.59,1.19-1.17,1.82-1.72.31-.28.63-.55.95-.81.16-.13.33-.26.49-.39.59-.48-.17.23-.27.2.13.03.87-.64,1.02-.74.39-.27.78-.53,1.18-.79.76-.48,1.54-.94,2.33-1.36,2.3-1.24,3.22-4.62,1.79-6.84-1.51-2.34-4.38-3.12-6.84-1.79h0Z"/>
    <path class="cls-11" d="M736.16,1339.49c3.27.51,6.5,1.27,9.65,2.28,1.58.5,3.13,1.08,4.67,1.69.9.36-.68-.3.21.09.35.15.7.31,1.05.46.75.34,1.5.7,2.24,1.07,2.96,1.48,5.82,3.17,8.53,5.07.63.44,1.25.89,1.86,1.34.15.11.33.22.46.35-.69-.71-.33-.25-.11-.08.35.28.7.56,1.04.84,1.28,1.05,2.52,2.15,3.71,3.3s2.26,2.24,3.33,3.42c.55.61,1.1,1.24,1.63,1.87.24.29.49.59.73.88.12.15.24.3.36.45.37.46.19.15-.08-.11,1.13,1.09,2.01,2.75,2.86,4.06.99,1.53,1.92,3.09,2.71,4.72.19.39.37.78.54,1.17-.35-.79.01.07.13.4.34.94.61,1.9.81,2.87.04.21.07.42.12.63.13.62-.03-.28-.04-.29.15.22.07.94.08,1.21.01.4.01.8,0,1.2,0,.27-.03.53-.05.8-.03.61.06.24.04-.14.02.74-.3,1.64-.49,2.35-.11.39-.22.77-.35,1.16-.06.19-.13.38-.2.57-.04.1-.34.93-.12.35s-.09.19-.15.33c-.09.18-.17.37-.26.55-.18.37-.37.73-.57,1.08-.43.78-.9,1.53-1.41,2.26-.12.17-.24.33-.36.5-.54.77.29-.32-.09.13-.31.36-.61.74-.92,1.09-.65.73-1.33,1.42-2.04,2.09-.78.74-1.61,1.41-2.44,2.1-.44.36.1-.08.16-.12-.23.17-.46.34-.69.51-.41.3-.82.58-1.23.87-3.51,2.41-7.27,4.4-11.02,6.39-2.32,1.23-3.21,4.64-1.79,6.84,1.52,2.35,4.36,3.1,6.84,1.79,7.11-3.76,14.57-7.76,19.82-14.01,5.67-6.75,8.94-15.58,6.45-24.35-2.12-7.49-7.32-14.36-12.55-19.99-4.95-5.32-10.83-9.91-17.16-13.49-7.18-4.05-15.1-6.92-23.25-8.2-2.57-.4-5.5.66-6.15,3.49-.55,2.39.73,5.72,3.49,6.15h0Z"/>
    <path class="cls-11" d="M634.57,1182.79c.28,27.14.55,54.29.83,81.43.28,26.98.55,53.95.83,80.93.28,26.98.55,53.95.83,80.93s.55,54.29.83,81.43c.28,26.98.55,53.95.83,80.93l.1,9.99c.03,2.61,2.28,5.12,5,5s5.03-2.2,5-5c-.28-27.14-.55-54.29-.83-81.43-.28-26.98-.55-53.95-.83-80.93-.28-26.98-.55-53.95-.83-80.93s-.55-54.29-.83-81.43c-.28-26.98-.55-53.95-.83-80.93l-.1-9.99c-.03-2.61-2.28-5.12-5-5s-5.03,2.2-5,5h0Z"/>
    <path class="cls-11" d="M654.12,1234.38c22.74-.37,45.48-.72,68.23-1.05,22.74-.33,45.48-.65,68.23-.95,22.66-.3,45.32-.59,67.98-.86,22.74-.27,45.49-.53,68.23-.77,22.74-.24,45.49-.46,68.23-.67,22.66-.21,45.32-.4,67.98-.57s45.65-.34,68.48-.48,45.32-.27,67.98-.39c22.74-.11,45.49-.21,68.23-.29,22.74-.08,45.49-.15,68.23-.2,5.5-.01,11-.02,16.5-.03,2.62,0,5.12-2.3,5-5s-2.2-5.01-5-5c-22.74.04-45.49.1-68.23.18-22.74.07-45.49.16-68.23.27s-45.32.23-67.98.36c-22.74.14-45.49.29-68.23.46-22.74.17-45.49.35-68.23.55-22.66.2-45.32.41-67.98.65s-45.65.48-68.48.75c-22.66.26-45.32.54-67.98.83-22.74.29-45.48.61-68.23.93s-45.48.67-68.23,1.03c-5.5.09-11,.17-16.49.26-2.61.04-5.12,2.27-5,5s2.2,5.05,5,5h0Z"/>
    <path class="cls-11" d="M216.28,1017.87c10.94-3.43,21.96-6.61,33.05-9.5,5.51-1.44,11.03-2.81,16.57-4.11,5.2-1.22,10.42-2.47,15.71-3.26.26-.04,1.26-.17.22-.04.29-.04.59-.08.89-.11.59-.07,1.18-.13,1.77-.19,1.32-.12,2.65-.21,3.97-.24,1.24-.03,2.48-.02,3.72.05.65.03,1.3.08,1.95.15.29.03.58.06.86.1-.72-.08-.3-.04.17.04,1.21.2,2.41.46,3.59.79.56.16,1.11.33,1.66.51.35.12.69.24,1.03.37,1.01.39.15.23.14.04.01.18,2.26,1.09,2.55,1.26.91.5,1.8,1.05,2.65,1.65.16.11,1.02.57,1.05.76,0-.02-.96-.78-.25-.18.17.14.33.27.5.41.74.62,1.46,1.28,2.14,1.97s1.34,1.41,1.97,2.15c.14.17.83.79.82,1.01,0-.04-.73-.98-.18-.23.19.26.39.53.58.79,1.13,1.58,2.14,3.23,3.06,4.94.46.84.89,1.7,1.3,2.57.2.41.39.82.57,1.24.09.21.18.42.28.63.49,1.09-.42-1.04.03.07,3.48,8.57,5.41,17.64,6.96,26.73.44,2.59,3.76,4.27,6.15,3.49,2.79-.9,3.96-3.38,3.49-6.15-1.43-8.4-3.16-16.82-6.2-24.8s-7.29-15.89-13.92-21.48c-3.77-3.18-7.99-5.59-12.71-7.09-5.33-1.69-11.1-2.05-16.65-1.65s-11.21,1.48-16.72,2.71-11.35,2.64-16.99,4.06c-12.93,3.26-25.76,6.9-38.49,10.9-2.49.78-4.34,3.52-3.49,6.15s3.48,4.33,6.15,3.49h0Z"/>
    <path class="cls-11" d="M627.1,117.57c-20.81-.91-41.64-1.22-62.46-.92-20.82.3-41.64,1.22-62.41,2.74-18.95,1.39-38.25,2.93-56.47,8.67-8.74,2.75-17.25,6.47-24.97,11.43-6.93,4.45-13.33,9.78-19,15.76-11.53,12.16-20.12,26.71-26.38,42.2-7.06,17.45-10.58,36.09-12.43,54.76-1.97,20-1.87,40.13-1.76,60.2.11,20.99.23,41.98.34,62.97.11,20.99.23,41.98.34,62.97s.23,41.98.34,62.97c.11,20.99.23,41.98.34,62.97.11,20.99.23,41.98.34,62.97s.23,41.98.34,62.97.23,41.98.34,62.97.23,41.98.34,62.97c.1,18.27-.16,36.62,1.68,54.83,1.79,17.65,5.53,35.24,13.86,51.06,7.34,13.94,18.23,25.64,31.32,34.36,12.42,8.26,26.69,13.73,41.21,16.95,15.08,3.34,30.67,4.47,46.09,3.79,7.6-.34,15.16-1.14,22.67-2.29,2.59-.4,4.26-3.79,3.49-6.15-.91-2.83-3.37-3.92-6.15-3.49-.87.13-1.75.26-2.63.39-.23.03-.47.06-.7.1-.7.1.98-.13.27-.04-.53.07-1.06.14-1.59.2-1.77.22-3.55.41-5.33.58-3.76.36-7.53.61-11.31.76-7.53.28-15.08.13-22.58-.51-1.86-.16-3.71-.35-5.56-.57-.42-.05-.83-.1-1.25-.15-.31-.04-1.89-.15-.45-.06-.94-.06-1.91-.27-2.84-.42-3.65-.57-7.27-1.26-10.87-2.1s-7.2-1.82-10.73-2.95c-1.72-.55-3.44-1.14-5.13-1.76-.82-.3-1.63-.61-2.44-.93-.38-.15-.76-.3-1.13-.45-.21-.09-.43-.17-.64-.26-.06-.02-1.11-.46-.36-.15s-.68-.3-.84-.36c-.37-.16-.74-.33-1.11-.49-.84-.38-1.68-.77-2.51-1.17-1.66-.8-3.29-1.63-4.91-2.51-3.11-1.69-6.13-3.54-9.04-5.56-.7-.49-1.4-.98-2.09-1.49-.32-.24-.64-.47-.96-.71-.18-.14-.36-.28-.54-.41-.74-.56.55.44.07.05-1.38-1.1-2.75-2.22-4.07-3.39-2.66-2.35-5.18-4.86-7.54-7.52-1.23-1.38-2.31-2.92-3.55-4.28.09.1.67.89.14.18-.11-.14-.21-.28-.32-.42-.28-.37-.56-.75-.83-1.13-.59-.82-1.17-1.64-1.73-2.48-2.34-3.49-4.43-7.15-6.26-10.93-.44-.91-.87-1.82-1.28-2.75-.22-.49-.43-.99-.65-1.48.43.99-.14-.34-.27-.67-.81-2-1.56-4.02-2.25-6.06-1.34-3.98-2.47-8.03-3.41-12.12s-1.71-8.31-2.33-12.51c-.08-.55-.16-1.09-.23-1.64-.03-.23-.16-.98.01.1-.04-.27-.07-.55-.11-.82-.14-1.1-.27-2.19-.39-3.29-.24-2.14-.44-4.28-.62-6.42-.72-8.66-.99-17.36-1.12-26.05-.28-20.05-.25-40.11-.36-60.16s-.22-41.48-.33-62.22c-.11-20.82-.22-41.65-.34-62.47-.11-20.74-.22-41.48-.33-62.22s-.22-41.65-.34-62.47c-.11-20.74-.22-41.48-.33-62.22s-.22-41.65-.34-62.47c-.11-20.74-.22-41.48-.33-62.22s-.47-40.63-.09-60.94c.19-9.95.62-19.9,1.56-29.81.23-2.45.49-4.9.79-7.34.08-.63.16-1.26.24-1.89.04-.31.08-.63.12-.94-.03.21-.13.92.01-.08.18-1.26.36-2.51.55-3.76.76-4.86,1.67-9.69,2.76-14.48,1.89-8.26,4.34-16.38,7.49-24.25.17-.42.34-.83.51-1.25.1-.23.7-1.77.24-.58.37-.96.82-1.89,1.24-2.83.82-1.82,1.67-3.61,2.57-5.39,1.81-3.61,3.78-7.13,5.91-10.56s4.33-6.61,6.72-9.75c.17-.23.4-.75-.08.11.09-.16.24-.31.35-.45.31-.4.63-.79.95-1.19.64-.79,1.29-1.57,1.95-2.34,1.27-1.49,2.59-2.94,3.94-4.36,2.7-2.83,5.56-5.5,8.56-8,.77-.64,1.53-1.33,2.36-1.89-.81.55-.02.02.34-.25.45-.34.91-.68,1.37-1.01,1.59-1.15,3.22-2.24,4.88-3.28,3.62-2.27,7.41-4.27,11.32-6.02.27-.12.53-.24.8-.35.13-.06.98-.42.41-.18-.52.22.15-.06.21-.09.27-.11.54-.22.81-.33,1.08-.44,2.17-.85,3.27-1.25,2.19-.8,4.41-1.53,6.65-2.2,4.35-1.3,8.77-2.37,13.23-3.25,2.24-.45,4.49-.85,6.74-1.21,1.09-.18,2.19-.34,3.28-.5.58-.09,1.17-.17,1.76-.25.08-.01.81-.11.21-.03-.68.09.53-.07.65-.08,9.46-1.22,18.97-1.95,28.48-2.63,10.3-.73,20.62-1.32,30.94-1.75,20.56-.87,41.15-1.14,61.72-.81,10,.16,20,.46,29.99.9,2.62.11,5.12-2.38,5-5-.13-2.81-2.2-4.88-5-5h0Z"/>
    <path class="cls-11" d="M620.34,1056.46c23.47-1.79,47.01-2.8,70.55-3.01,6.63-.06,13.26-.05,19.89.01,2.62.03,5.12-2.32,5-5s-2.2-4.97-5-5c-23.54-.23-47.09.32-70.59,1.67-6.62.38-13.24.82-19.85,1.33-2.6.2-5.13,2.16-5,5,.11,2.54,2.21,5.21,5,5h0Z"/>
    <path class="cls-11" d="M1128.08,1056.36c32.13.38,64.26.76,96.39,1.15s64.26.76,96.39,1.15c18.15.22,36.29.43,54.44.65,2.62.03,5.12-2.32,5-5s-2.2-4.97-5-5c-32.13-.38-64.26-.76-96.39-1.15s-64.26-.76-96.39-1.15c-18.15-.22-36.29-.43-54.44-.65-2.62-.03-5.12,2.32-5,5s2.2,4.97,5,5h0Z"/>
  </g>
</svg>