<svg width="1034" height="1034" viewBox="0 0 1034 1034" fill="none" xmlns="http://www.w3.org/2000/svg">
<rect width="1034" height="1034" fill="#FFE1C9"/>
<ellipse cx="610.935" cy="815.116" rx="223.826" ry="42.8606" fill="black" fill-opacity="0.1"/>
<path fill-rule="evenodd" clip-rule="evenodd" d="M409.173 809.074L411.69 818.724C411.941 819.687 412.683 820.448 413.64 820.724C477.487 839.155 545.317 839.175 609.164 820.745C610.16 820.458 610.918 819.647 611.139 818.633L613.239 808.972C613.305 808.671 613.49 808.409 613.752 808.246C634.629 795.323 651.803 777.212 663.6 755.678L677.863 729.641L736.752 698.404L795.998 661.774C818.569 647.818 832.941 623.755 834.526 597.265L834.63 595.535C835.258 585.035 833.628 574.523 829.849 564.707L827.042 557.417C809.75 512.497 752.647 499.103 717.185 531.65C716.835 531.972 716.269 531.723 716.269 531.247V489.283C716.269 484.865 712.687 481.283 708.269 481.283H314.883C310.169 481.283 306.477 485.339 306.918 490.032L315.912 585.68L325.408 663.912C332.373 721.289 362.389 773.361 408.55 808.144C408.856 808.375 409.076 808.703 409.173 809.074ZM731.745 556.369L711.685 578.953C711.614 579.033 711.573 579.136 711.569 579.243L711.215 588.838C709.938 623.462 703.622 657.716 692.468 690.52L690.11 697.455C690.056 697.611 690.227 697.749 690.369 697.664L774.475 647.041C797.935 632.92 810.957 606.373 807.762 579.177C802.445 542.331 756.469 528.536 731.745 556.369Z" fill="#FFE9CF"/>
<path d="M411.69 818.724L415.56 817.714V817.714L411.69 818.724ZM409.173 809.074L405.302 810.084L409.173 809.074ZM413.64 820.724L412.531 824.567L412.531 824.567L413.64 820.724ZM609.164 820.745L608.055 816.902V816.902L609.164 820.745ZM611.139 818.633L615.047 819.483L611.139 818.633ZM613.239 808.972L617.148 809.822L617.148 809.822L613.239 808.972ZM613.752 808.246L615.858 811.647L615.858 811.647L613.752 808.246ZM663.6 755.678L667.108 757.599L663.6 755.678ZM677.863 729.641L675.989 726.107L674.931 726.668L674.355 727.719L677.863 729.641ZM736.752 698.404L738.626 701.938L738.743 701.876L738.856 701.807L736.752 698.404ZM795.998 661.774L798.101 665.176L795.998 661.774ZM834.526 597.265L838.519 597.504V597.504L834.526 597.265ZM834.63 595.535L830.637 595.296V595.296L834.63 595.535ZM829.849 564.707L826.116 566.144L826.116 566.144L829.849 564.707ZM827.042 557.417L823.309 558.854L827.042 557.417ZM717.185 531.65L714.48 528.703V528.703L717.185 531.65ZM306.918 490.032L302.936 490.407L306.918 490.032ZM315.912 585.68L311.929 586.054L311.934 586.108L311.941 586.162L315.912 585.68ZM325.408 663.912L329.379 663.43L325.408 663.912ZM408.55 808.144L410.957 804.949L410.957 804.949L408.55 808.144ZM711.685 578.953L708.695 576.296L708.695 576.296L711.685 578.953ZM731.745 556.369L728.755 553.713L731.745 556.369ZM711.569 579.243L707.572 579.095V579.095L711.569 579.243ZM711.215 588.838L715.212 588.985V588.985L711.215 588.838ZM692.468 690.52L688.681 689.232V689.232L692.468 690.52ZM690.11 697.455L686.323 696.167L686.322 696.167L690.11 697.455ZM690.369 697.664L688.306 694.237L688.306 694.237L690.369 697.664ZM774.475 647.041L772.412 643.614L774.475 647.041ZM807.762 579.177L811.734 578.71L811.728 578.658L811.721 578.606L807.762 579.177ZM415.56 817.714L413.043 808.064L405.302 810.084L407.819 819.733L415.56 817.714ZM414.75 816.881C415.146 816.996 415.455 817.311 415.56 817.714L407.819 819.733C408.427 822.064 410.22 823.9 412.531 824.567L414.75 816.881ZM608.055 816.902C544.933 835.123 477.873 835.102 414.75 816.881L412.531 824.567C477.102 843.207 545.701 843.228 610.273 824.588L608.055 816.902ZM607.23 817.784C607.322 817.361 607.639 817.022 608.055 816.902L610.273 824.588C612.682 823.893 614.515 821.933 615.047 819.483L607.23 817.784ZM609.33 808.123L607.23 817.784L615.047 819.483L617.148 809.822L609.33 808.123ZM611.647 804.845C610.462 805.579 609.626 806.761 609.33 808.123L617.148 809.822C616.983 810.58 616.517 811.239 615.858 811.647L611.647 804.845ZM660.092 753.756C648.627 774.684 631.936 792.285 611.647 804.845L615.858 811.647C637.322 798.36 654.979 779.739 667.108 757.599L660.092 753.756ZM674.355 727.719L660.092 753.756L667.108 757.599L681.371 731.562L674.355 727.719ZM734.878 694.871L675.989 726.107L679.738 733.174L738.626 701.938L734.878 694.871ZM793.894 658.372L734.649 695.002L738.856 701.807L798.101 665.176L793.894 658.372ZM830.533 597.026C829.026 622.217 815.359 645.101 793.894 658.372L798.101 665.176C821.78 650.536 836.856 625.293 838.519 597.504L830.533 597.026ZM830.637 595.296L830.533 597.026L838.519 597.504L838.623 595.773L830.637 595.296ZM826.116 566.144C829.689 575.426 831.231 585.367 830.637 595.296L838.623 595.774C839.285 584.703 837.566 573.619 833.582 563.27L826.116 566.144ZM823.309 558.854L826.116 566.144L833.582 563.27L830.775 555.979L823.309 558.854ZM719.89 534.597C753.273 503.958 807.031 516.566 823.309 558.854L830.775 555.979C812.47 508.427 752.02 494.249 714.48 528.703L719.89 534.597ZM712.269 531.247C712.269 535.205 716.974 537.273 719.89 534.597L714.48 528.703C716.695 526.671 720.269 528.242 720.269 531.247H712.269ZM712.269 489.283V531.247H720.269V489.283H712.269ZM708.269 485.283C710.478 485.283 712.269 487.074 712.269 489.283H720.269C720.269 482.656 714.896 477.283 708.269 477.283V485.283ZM314.883 485.283H708.269V477.283H314.883V485.283ZM310.901 489.658C310.68 487.311 312.526 485.283 314.883 485.283V477.283C307.812 477.283 302.274 483.366 302.936 490.407L310.901 489.658ZM319.894 585.305L310.901 489.658L302.936 490.407L311.929 586.054L319.894 585.305ZM329.379 663.43L319.883 585.198L311.941 586.162L321.437 664.394L329.379 663.43ZM410.957 804.949C365.665 770.82 336.213 719.728 329.379 663.43L321.437 664.394C328.533 722.85 359.114 775.901 406.142 811.338L410.957 804.949ZM413.043 808.064C412.719 806.82 411.983 805.723 410.957 804.949L406.142 811.338C405.729 811.027 405.433 810.585 405.302 810.084L413.043 808.064ZM714.676 581.609L734.736 559.026L728.755 553.713L708.695 576.296L714.676 581.609ZM715.566 579.391C715.536 580.211 715.221 580.995 714.676 581.609L708.695 576.296C708.007 577.071 707.61 578.06 707.572 579.095L715.566 579.391ZM715.212 588.985L715.566 579.39L707.572 579.095L707.218 588.69L715.212 588.985ZM696.255 691.808C707.535 658.636 713.921 623.998 715.212 588.985L707.218 588.69C705.955 622.927 699.71 656.796 688.681 689.232L696.255 691.808ZM693.897 698.743L696.255 691.808L688.681 689.232L686.323 696.167L693.897 698.743ZM688.306 694.237C691.359 692.399 695.043 695.369 693.897 698.742L686.322 696.167C685.069 699.853 689.096 703.099 692.432 701.091L688.306 694.237ZM772.412 643.614L688.306 694.237L692.432 701.091L776.537 650.468L772.412 643.614ZM803.789 579.644C806.801 605.279 794.526 630.303 772.412 643.614L776.537 650.468C801.344 635.537 815.113 607.466 811.734 578.71L803.789 579.644ZM734.736 559.026C757.199 533.737 798.972 546.271 803.803 579.748L811.721 578.606C805.918 538.391 755.738 523.335 728.755 553.713L734.736 559.026Z" fill="#331917"/>
<path d="M715.628 486.951C715.628 488.17 714.998 489.864 712.676 492.033C710.356 494.2 706.712 496.48 701.65 498.767C691.552 503.33 676.69 507.539 658.011 511.109C620.719 518.237 569.03 522.671 511.818 522.671C454.606 522.671 402.916 518.237 365.625 511.109C346.946 507.539 332.083 503.33 321.986 498.767C316.924 496.48 313.28 494.2 310.96 492.033C308.638 489.864 308.008 488.17 308.008 486.951C308.008 485.733 308.638 484.039 310.96 481.87C313.28 479.703 316.924 477.423 321.986 475.136C332.083 470.573 346.946 466.364 365.625 462.794C402.916 455.666 454.606 451.231 511.818 451.231C569.03 451.231 620.719 455.666 658.011 462.794C676.69 466.364 691.552 470.573 701.65 475.136C706.712 477.423 710.356 479.703 712.676 481.87C714.998 484.039 715.628 485.733 715.628 486.951Z" fill="#FDD6B2" stroke="#331917" stroke-width="8"/>
<path d="M664.723 507.837C664.723 507.837 664.721 507.84 664.716 507.845C664.721 507.84 664.723 507.837 664.723 507.837ZM654.628 506.449C658.061 507.394 660.652 508.3 662.434 509.121C660.661 509.885 658.099 510.714 654.714 511.566C646.856 513.543 635.347 515.456 621.005 517.124C592.365 520.456 552.888 522.76 509.761 522.76C466.647 522.76 427.475 520.231 399.138 516.675C384.948 514.895 373.591 512.871 365.849 510.814C362.478 509.918 359.939 509.053 358.195 508.264C359.94 507.469 362.482 506.596 365.858 505.69C373.6 503.613 384.957 501.561 399.146 499.753C427.481 496.142 466.651 493.558 509.761 493.558C552.857 493.558 592.312 496.368 620.936 500.204C635.269 502.124 646.774 504.287 654.628 506.449ZM355.998 506.978C355.998 506.978 356.001 506.981 356.006 506.987C356 506.981 355.997 506.978 355.998 506.978ZM356.001 509.558C356.001 509.558 356.003 509.554 356.01 509.548C356.004 509.554 356.001 509.558 356.001 509.558ZM664.68 510.453C664.689 510.462 664.692 510.467 664.692 510.467C664.692 510.467 664.688 510.462 664.68 510.453Z" fill="#FF7E30" stroke="#331917" stroke-width="8"/>
<path d="M505.576 509.636C502.306 509.137 490.977 508.683 472.817 510.967C472.617 510.992 472.41 510.972 472.219 510.907C471.015 510.498 471.021 508.792 472.228 508.391L480.429 505.665L522.804 504.159L548.429 506.603C548.573 506.617 548.716 506.642 548.856 506.679L553.631 507.926C555.235 508.345 555.169 510.644 553.544 510.97C553.428 510.994 553.31 511.004 553.191 511L505.576 509.636Z" fill="white" fill-opacity="0.6"/>
<path d="M440.862 518.596V518.596C435.141 513.99 426.608 517.783 426.194 525.116L426.146 525.959V614.22" stroke="#331917" stroke-width="8"/>
<path d="M421.789 635.417C423.791 629.751 429.148 625.963 435.157 625.963H451.016C457.733 625.963 463.635 630.42 465.474 636.88C467.507 644.02 468.538 651.407 468.538 658.83V706.945C468.538 711.614 464.555 715.292 459.9 714.919L424.832 712.115C420.674 711.782 417.47 708.311 417.47 704.14V660.607C417.47 652.026 418.93 643.508 421.789 635.417Z" fill="black" fill-opacity="0.1"/>
<path d="M418.947 613.229C411.777 613.229 405.392 617.767 403.037 624.54C400.373 632.199 399.012 640.251 399.012 648.36V687.041C399.012 693.292 403.81 698.496 410.04 699.002L439.39 701.386C446.378 701.954 452.362 696.437 452.362 689.426V646.769C452.362 639.78 451.406 632.823 449.52 626.093C447.389 618.487 440.455 613.229 432.555 613.229H418.947Z" fill="#FF791D" stroke="#331917" stroke-width="8"/>
<path d="M440.704 678.206L440.705 641.158C440.705 632.611 438.25 624.245 433.634 617.053L443.971 616.051L449.589 633.008L448.138 694.653L440.705 696.648H430.37L406.619 694.653L430.961 689.992C436.616 688.909 440.704 683.963 440.704 678.206Z" fill="black" fill-opacity="0.1"/>
<path d="M656.688 626.342L670.006 511.789L714.421 495.353V532.681L724.813 525.401C729.968 527.933 733.475 532.921 734.114 538.628L735.273 548.978L745.771 542.148L711.063 584.472L688.868 699.146L777.169 648.029L785.049 648.713C792.06 649.322 797.156 655.643 796.262 662.624L676.566 727.379L614.408 821.483L513.991 832.294L414.776 821.483V814.658C533.861 830.484 642.814 745.67 656.688 626.342Z" fill="black" fill-opacity="0.1"/>
<path d="M337.852 561.359L344.861 632.321C350.13 685.668 371.621 736.12 406.441 776.879V776.879" stroke="white" stroke-opacity="0.8" stroke-width="14" stroke-linecap="round"/>
<circle cx="334.944" cy="538.623" r="6.31152" fill="white" fill-opacity="0.8"/>
<circle cx="334.944" cy="538.623" r="5.81152" stroke="white" stroke-opacity="0.8"/>
<circle cx="427.193" cy="796.182" r="6.31152" fill="white" fill-opacity="0.8"/>
<circle cx="427.193" cy="796.182" r="5.81152" stroke="white" stroke-opacity="0.8"/>
<path d="M453.249 320.155L451.398 325.006C443.97 344.481 444.023 366.018 451.547 385.456V385.456C455.303 395.157 457.229 405.471 457.229 415.874V425.829" stroke="#FFFBF5" stroke-width="8" stroke-linecap="round"/>
<path d="M580.273 302.962L569.857 334.321C565.626 347.06 569.271 361.096 579.167 370.166V370.166C589.763 379.877 593.122 395.194 587.563 408.448L580.273 425.828" stroke="#FFFBF5" stroke-width="8" stroke-linecap="round"/>
<path d="M511.903 467.094L513.813 462.913C529.347 428.918 529.272 389.837 513.61 355.902V355.902C497.605 321.224 498.153 280.674 514.656 246.23V246.23C523.065 228.68 527.558 209.201 527.558 189.739V176.022" stroke="#FFFBF5" stroke-width="8" stroke-linecap="round"/>
</svg>
