<?xml version="1.0" encoding="utf-8"?>
<!-- Generator: Adobe Illustrator 23.0.1, SVG Export Plug-In . SVG Version: 6.00 Build 0)  -->
<svg version="1.1" id="Layer_1" xmlns="http://www.w3.org/2000/svg" xmlns:xlink="http://www.w3.org/1999/xlink" x="0px" y="0px"
	 viewBox="0 0 100 88.7" style="enable-background:new 0 0 100 88.7;" xml:space="preserve">
<style type="text/css">
	.st0{fill:#FF45FF;}
</style>
<g id="bowl">
	<path class="st0" d="M83.2,54.9H29L9.6,34.4l-2.7,1.6l18.8,18.8h-3.3L4.9,42.2l-2.4,2.1L18,54.9h-1.2c-1.8,0-3.2,1.6-3,3.4
		c1.7,11.9,12,21.7,25.7,25.1c-0.5,0.5-0.8,1.2-0.8,1.9c0,1.5,1.2,2.7,2.7,2.7h17.1c1.5,0,2.7-1.2,2.7-2.7c0-0.8-0.3-1.4-0.8-1.9
		c13.7-3.4,24-13.1,25.7-25.1C86.4,56.5,85,54.9,83.2,54.9z"/>
</g>
<g id="steam_6_">
	<path class="st0" d="M59.5,40.9h-0.4v0c-0.4,0-0.8-0.9-0.8-1.4s0.3-1.2,0.8-1.2v0H46.9v0c0,0,0,0,0,0c0.4,0,0.8,0.8,0.8,1.2
		s-0.3,1.4-0.8,1.4c0,0,0,0,0,0v0h0.3c-2.6,0.1-4.7,2.2-4.7,4.8c0,2.3,1.6,4.2,3.7,4.7c1.1,0.2,2.1,0.6,3,1.2c2.3,1.6,3.4,3.7,3.8,6
		c0.8-2.5,2.3-4.8,5.2-6.4c0.8-0.4,1.7-0.7,2.5-0.8c2.3-0.5,4-2.7,3.8-5.2C64.3,42.7,62,40.9,59.5,40.9z"/>
</g>
<g id="steam_4_">
	<path class="st0" d="M67.1,29.5h-7.8c-0.3,0-1-0.4-1-1.5c0-1.1,0.6-1.1,1-1.1v0h-10v0c0,0,0,0,0,0c0.3,0,0.9,0.2,0.9,1
		c0,0.9-0.6,1.6-0.9,1.6l0,0c0,0,0,0,0,0v0h-7c-2.2,0-4,2-4,4.4l0,0c0,2.4,1.8,4.4,4,4.4h24.8c2.2,0,4-2,4-4.4l0,0
		C71.1,31.5,69.3,29.5,67.1,29.5z"/>
</g>
<g id="steam_5_">
	<path class="st0" d="M69.3,15.3H54.5c-0.3-0.1-0.7-0.5-0.7-1.1c0-0.6,0.3-1.2,0.8-1.2v0H42.4v0c0,0,0,0,0,0c0.4,0,0.8,0.4,0.8,1.2
		c0,0.7-0.5,0.9-0.7,1.1H28.6c-3.4,0-6.1,2.7-6.1,6.1v0.7c0,3.4,2.7,6.1,6.1,6.1h40.8c3.4,0,6.1-2.7,6.1-6.1v-0.7
		C75.4,18,72.7,15.3,69.3,15.3z"/>
</g>
<g id="steam_3_">
	<path class="st0" d="M67.9,13h-32c-2.1,0-3.9-1.7-3.9-3.9l0,0c0-2.1,1.7-3.9,3.9-3.9h32c2.1,0,3.9,1.7,3.9,3.9l0,0
		C71.8,11.2,70.1,13,67.9,13z"/>
</g>
<g id="steam_2_">
	<path class="st0" d="M76.3,9.8h-32c-2.1,0-3.9-1.7-3.9-3.9l0,0c0-2.1,1.7-3.9,3.9-3.9h32c2.1,0,3.9,1.7,3.9,3.9l0,0
		C80.2,8,78.4,9.8,76.3,9.8z"/>
</g>
<g id="steam_1_">
	<path class="st0" d="M50.1,23.7H15.3c-2.3,0-4.2-1.9-4.2-4.2l0,0c0-2.3,1.9-4.2,4.2-4.2h34.9c2.3,0,4.2,1.9,4.2,4.2l0,0
		C54.3,21.8,52.5,23.7,50.1,23.7z"/>
</g>
<g id="steam">
	<path class="st0" d="M75.3,34H56.7c-1.2,0-2.3-1-2.3-2.3l0,0c0-1.2,1-2.3,2.3-2.3h18.6c1.2,0,2.3,1,2.3,2.3l0,0
		C77.5,33,76.5,34,75.3,34z"/>
</g>
</svg>
