<?xml version="1.0" encoding="utf-8"?>
<!-- Generator: Adobe Illustrator 23.0.1, SVG Export Plug-In . SVG Version: 6.00 Build 0)  -->
<svg version="1.1" id="Layer_1" xmlns="http://www.w3.org/2000/svg" xmlns:xlink="http://www.w3.org/1999/xlink" x="0px" y="0px"
	 viewBox="0 0 24 24" style="enable-background:new 0 0 24 24;" xml:space="preserve">
<style type="text/css">
	.st0{fill:#FFFFFF;}
</style>
<title>Instagram icon</title>
<path class="st0" d="M12,0C8.74,0,8.33,0.01,7.05,0.07C5.78,0.13,4.91,0.33,4.14,0.63C3.35,0.94,2.68,1.35,2.01,2.01
	S0.94,3.35,0.63,4.14c-0.3,0.77-0.5,1.64-0.56,2.91C0.01,8.33,0,8.74,0,12s0.01,3.67,0.07,4.95c0.06,1.28,0.26,2.15,0.56,2.91
	c0.31,0.79,0.72,1.46,1.38,2.13c0.67,0.67,1.34,1.08,2.13,1.38c0.77,0.3,1.64,0.5,2.91,0.56C8.33,23.99,8.74,24,12,24
	s3.67-0.01,4.95-0.07c1.28-0.06,2.15-0.26,2.91-0.56c0.79-0.31,1.46-0.72,2.13-1.38c0.67-0.67,1.08-1.34,1.38-2.13
	c0.3-0.76,0.5-1.64,0.56-2.91C23.99,15.67,24,15.26,24,12s-0.01-3.67-0.07-4.95c-0.06-1.28-0.26-2.15-0.56-2.91
	c-0.31-0.79-0.72-1.46-1.38-2.13c-0.67-0.67-1.34-1.08-2.13-1.38c-0.76-0.3-1.64-0.5-2.91-0.56C15.67,0.01,15.26,0,12,0z M12,2.16
	c3.2,0,3.59,0.02,4.85,0.07c1.17,0.06,1.81,0.25,2.23,0.41c0.56,0.22,0.96,0.48,1.38,0.9c0.42,0.42,0.68,0.82,0.9,1.38
	c0.16,0.42,0.36,1.06,0.41,2.23c0.06,1.27,0.07,1.65,0.07,4.85s-0.01,3.59-0.07,4.85c-0.06,1.17-0.26,1.81-0.42,2.23
	c-0.22,0.56-0.48,0.96-0.9,1.38c-0.42,0.42-0.82,0.68-1.38,0.9c-0.42,0.16-1.07,0.36-2.24,0.41c-1.27,0.06-1.65,0.07-4.86,0.07
	c-3.21,0-3.59-0.01-4.86-0.07c-1.17-0.06-1.82-0.26-2.24-0.42c-0.57-0.22-0.96-0.48-1.38-0.9c-0.42-0.42-0.69-0.82-0.9-1.38
	C2.43,18.64,2.24,18,2.18,16.83c-0.05-1.26-0.06-1.65-0.06-4.84c0-3.2,0.02-3.59,0.06-4.86C2.24,5.95,2.43,5.31,2.6,4.89
	c0.21-0.57,0.48-0.96,0.9-1.38c0.42-0.42,0.81-0.69,1.38-0.9C5.3,2.45,5.93,2.25,7.1,2.19c1.27-0.05,1.65-0.06,4.86-0.06
	C11.95,2.13,12,2.16,12,2.16z M12,5.84C8.6,5.84,5.84,8.6,5.84,12c0,3.4,2.76,6.16,6.16,6.16c3.4,0,6.16-2.76,6.16-6.16
	C18.16,8.6,15.4,5.84,12,5.84z M12,16c-2.21,0-4-1.79-4-4s1.79-4,4-4s4,1.79,4,4S14.21,16,12,16z M19.85,5.6
	c0,0.8-0.65,1.44-1.44,1.44c-0.8,0-1.44-0.65-1.44-1.44s0.65-1.44,1.44-1.44C19.2,4.16,19.85,4.8,19.85,5.6z"/>
</svg>
