<svg xmlns="http://www.w3.org/2000/svg" viewBox="0 0 81.7 61.43"><defs><style>.cls-1{fill:#fff;}</style></defs><title>macaque2</title><g id="Layer_3" data-name="Layer 3"><path class="cls-1" d="M11.45,16c.44.47.24.88.57,1.41a2.63,2.63,0,0,0,1.78.93,7.83,7.83,0,0,0,3.57-.09c.74-.16.79-.26,1-.19l.05,0a18.78,18.78,0,0,1-.2-3.87,8.25,8.25,0,0,1,.36-1.63,3.67,3.67,0,0,0,.15-2.66,8.38,8.38,0,0,0-3-2.73,2.7,2.7,0,0,0-.14,1.2c.14,1,.87,1.3.75,2-.06.38-.37.68-1.59,1.31C12.2,13,11,13.07,10.51,14.13a1.43,1.43,0,0,0-.09,1.13C10.63,15.66,11.05,15.57,11.45,16Z"/><path class="cls-1" d="M78.66,34.26c-.58-.52-1.29-.1-2.65-.19a8.11,8.11,0,0,1-4.92-2.46,51.89,51.89,0,0,1-3.39-4.44,4.43,4.43,0,0,0,.58-1.92c.13-2.12-1.41-4.28-.7-4.78.31-.23.68.17,1.41,0a2.47,2.47,0,0,0,1.83-2.21c-.1-1.16-1.91-1.79-3.38-2.3a17.74,17.74,0,0,0-7-.84c-10.55.53-10.26.69-10.7.65a23.63,23.63,0,0,1-11.22-3.94c-3.84-2.64-3.37-4.22-7.22-6.15C29.52,4.82,25.85,3,22.72,4.09c-1.4.49-2.4,1.46-4.51,1.59a2.87,2.87,0,0,0-1.83.52,2.43,2.43,0,0,0-.41.49,8.79,8.79,0,0,1,3.29,3,4,4,0,0,1-.1,3.09,8.13,8.13,0,0,0-.33,1.53,16.9,16.9,0,0,0,.45,5h0l.07.21C18,19.66,16.1,21,11.51,22.33A25.3,25.3,0,0,0,3.72,26.7c-.86.73-1.23,1.62-.84,3.47.23,1.1,2.06,2.68,2.85,2.57,1.15-.16-.38-3.25,1.48-4.92,1.06-.95,2-.74,4.55-1-.17.33-.4.73-.69,1.19-1.12,1.73-1.63,1.73-2,2.62-.76,1.91.48,4.71,2.11,5.3a2.61,2.61,0,0,0,1.48.09c.2,0,1.06-.26,1.26-.81.37-1-2-1.88-1.83-3.39s1.86-2.52,3-3.1A10.82,10.82,0,0,1,21,27.63c4.25.29,4.42,1.91,9.22,2.55,3,.4,4.52.6,6.38-.13a11.32,11.32,0,0,0,1.11-.51l.51.51a14.81,14.81,0,0,0,3.27,1.26h.06a12.94,12.94,0,0,0,7.16-.41c.49-.16,1-.29,1.45-.41,2.13,1.69,6.7,5.48,6.74,5.39a10.9,10.9,0,0,0,3.76,4c3.73,2.26,8,1.35,8.71,3.38a2.68,2.68,0,0,1-.05,1.54c-.46,1.61-2,1.94-2,3.21a1.66,1.66,0,0,0,.48,1.15c.57.53,2.53.85,2.27.13-.77-2,1.58-2.59,1.49-3.84a2.77,2.77,0,0,1,.06-1.3c.3-.82.92-.88,1-1.4,0-.2.11-.92-2-2.39a21.46,21.46,0,0,0-3.51-1.84,8.6,8.6,0,0,1-3.87-5.15A26.72,26.72,0,0,1,66.54,35,7.77,7.77,0,0,0,69,36.47c1.93.63,2.64-.17,4.73.4.46.13,2.6.72,2.73,1.8S75.14,41,75.32,42c.15.79,1.76,1.66,1.87.57.17-1.67.78-.45,1.43-4.1C79.24,35,78.91,34.48,78.66,34.26Zm-54-22c-1.18.21-.2-1.1-.45-2.45s-1.63-2.22-.45-2.44a2.35,2.35,0,0,1,2.59,2.05A2.36,2.36,0,0,1,24.62,12.25Z"/></g></svg>