<svg id="Layer_1" data-name="Layer 1" xmlns="http://www.w3.org/2000/svg" xmlns:xlink="http://www.w3.org/1999/xlink" viewBox="0 0 900 476.65"><defs><style>.cls-1,.cls-2{fill:none;}.cls-2{stroke:#aaa;stroke-width:0.3px;}.cls-3{fill:#f1f1f1;}.cls-4{fill:#fcf4ea;}.cls-5{fill:#fbf2e6;}.cls-6{fill:#ededed;}.cls-7{fill:url(#Hatching);stroke:url(#Hatching);}.cls-8{opacity:0.9;}.cls-9{fill:#fff;}</style><pattern id="Hatching" data-name="Hatching" width="72" height="72" patternTransform="matrix(1, 0, 0, -1, 373.68, 25.87)" patternUnits="userSpaceOnUse" viewBox="0 0 72 72"><rect class="cls-1" width="72" height="72"/><rect class="cls-1" width="72" height="72"/><line class="cls-2" x1="66.76" y1="-0.96" x2="67.87" y2="2"/><line class="cls-2" x1="61.92" y1="-1.09" x2="61.3" y2="2.18"/><line class="cls-2" x1="46.71" y1="-1.95" x2="46.82" y2="1.05"/><line class="cls-2" x1="31.01" y1="-0.35" x2="29.59" y2="1.7"/><line class="cls-2" x1="14.74" y1="-0.48" x2="16.07" y2="1.47"/><line class="cls-2" x1="3.68" y1="-1.82" x2="2.02" y2="0.5"/><line class="cls-2" x1="54.27" y1="-2.13" x2="56.27" y2="0.87"/><line class="cls-2" x1="73.55" y1="47.89" x2="70.55" y2="47.89"/><line class="cls-2" x1="72.55" y1="32.14" x2="70.55" y2="30.64"/><line class="cls-2" x1="4.55" y1="61.14" x2="1.8" y2="59.14"/><line class="cls-2" x1="3.05" y1="4.89" x2="0.8" y2="3.14"/><line class="cls-2" x1="72.05" y1="64.89" x2="68.8" y2="64.14"/><line class="cls-2" x1="70.8" y1="53.14" x2="68.3" y2="51.39"/><line class="cls-2" x1="73.55" y1="47.89" x2="70.55" y2="47.89"/><line class="cls-2" x1="70.3" y1="40.39" x2="67.55" y2="42.14"/><line class="cls-2" x1="72.55" y1="32.14" x2="70.55" y2="30.64"/><line class="cls-2" x1="70.05" y1="20.14" x2="67.3" y2="22.39"/><line class="cls-2" x1="72.05" y1="9.14" x2="67.8" y2="9.89"/><line class="cls-2" x1="62.3" y1="10.89" x2="60.05" y2="9.14"/><line class="cls-2" x1="70.55" y1="26.89" x2="67.55" y2="26.89"/><line class="cls-2" x1="56.8" y1="54.39" x2="54.9" y2="57.22"/><line class="cls-2" x1="26.8" y1="55.89" x2="25.14" y2="58.45"/><line class="cls-2" x1="41.84" y1="60.33" x2="43.69" y2="63.02"/><line class="cls-2" x1="66.76" y1="-0.96" x2="67.87" y2="2"/><line class="cls-2" x1="61.92" y1="-1.09" x2="61.3" y2="2.18"/><line class="cls-2" x1="55.8" y1="23.89" x2="53.9" y2="26.72"/><line class="cls-2" x1="47.45" y1="52.33" x2="45.8" y2="54.89"/><line class="cls-2" x1="46.71" y1="-1.95" x2="46.82" y2="1.05"/><line class="cls-2" x1="39.34" y1="1.58" x2="41.19" y2="4.27"/><line class="cls-2" x1="31.01" y1="-0.35" x2="29.59" y2="1.7"/><line class="cls-2" x1="49.11" y1="31.1" x2="51.46" y2="33.76"/><line class="cls-2" x1="14.74" y1="-0.48" x2="16.07" y2="1.47"/><line class="cls-2" x1="8.04" y1="1.02" x2="8.95" y2="5.24"/><line class="cls-2" x1="3.68" y1="-1.82" x2="2.02" y2="0.5"/><line class="cls-2" x1="25.84" y1="1.85" x2="25.95" y2="4.84"/><line class="cls-2" x1="6.05" y1="66.64" x2="9.55" y2="65.14"/><line class="cls-2" x1="3.3" y1="51.14" x2="3.55" y2="54.39"/><line class="cls-2" x1="6.8" y1="28.14" x2="8.3" y2="24.39"/><line class="cls-2" x1="4.05" y1="33.64" x2="6.3" y2="37.39"/><line class="cls-2" x1="28.05" y1="67.39" x2="25.8" y2="64.89"/><line class="cls-2" x1="32.3" y1="67.39" x2="35.55" y2="64.64"/><line class="cls-2" x1="49.05" y1="67.39" x2="52.3" y2="65.39"/><line class="cls-2" x1="51.3" y1="61.39" x2="49.3" y2="58.14"/><line class="cls-2" x1="58.3" y1="62.64" x2="63.3" y2="64.89"/><line class="cls-2" x1="65.8" y1="59.14" x2="63.3" y2="57.39"/><line class="cls-2" x1="17.55" y1="67.14" x2="17.55" y2="64.14"/><line class="cls-2" x1="14.55" y1="62.14" x2="11.3" y2="61.64"/><line class="cls-2" x1="18.8" y1="57.64" x2="19.3" y2="54.39"/><line class="cls-2" x1="19.8" y1="62.14" x2="23.3" y2="62.89"/><line class="cls-2" x1="8.05" y1="50.39" x2="10.8" y2="52.39"/><line class="cls-2" x1="6.3" y1="7.89" x2="6.55" y2="11.89"/><line class="cls-2" x1="6.05" y1="16.14" x2="8.3" y2="18.64"/><line class="cls-2" x1="20.05" y1="6.14" x2="17.55" y2="9.64"/><line class="cls-2" x1="28.55" y1="43.39" x2="26.05" y2="41.64"/><line class="cls-2" x1="56.55" y1="38.14" x2="53.8" y2="39.64"/><line class="cls-2" x1="25.55" y1="31.89" x2="21.8" y2="32.64"/><line class="cls-2" x1="30.3" y1="22.39" x2="28.3" y2="20.89"/><line class="cls-2" x1="27.8" y1="10.39" x2="25.05" y2="12.64"/><line class="cls-2" x1="31.05" y1="6.14" x2="29.05" y2="7.39"/><line class="cls-2" x1="28.3" y1="17.14" x2="25.3" y2="17.14"/><line class="cls-2" x1="38.55" y1="52.89" x2="36.05" y2="51.14"/><line class="cls-2" x1="41.3" y1="47.64" x2="38.3" y2="47.64"/><line class="cls-2" x1="38.05" y1="40.14" x2="35.3" y2="41.89"/><line class="cls-2" x1="37.3" y1="29.39" x2="36.55" y2="26.89"/><line class="cls-2" x1="37.8" y1="19.89" x2="35.05" y2="22.14"/><line class="cls-2" x1="38.3" y1="11.89" x2="36.3" y2="13.14"/><line class="cls-2" x1="61.77" y1="27.37" x2="58.77" y2="27.37"/><line class="cls-2" x1="21.05" y1="28.89" x2="23.55" y2="27.14"/><line class="cls-2" x1="25.8" y1="51.39" x2="28.8" y2="51.39"/><line class="cls-2" x1="13.55" y1="37.14" x2="16.05" y2="35.39"/><line class="cls-2" x1="10.8" y1="31.89" x2="13.8" y2="31.89"/><line class="cls-2" x1="14.05" y1="24.39" x2="16.8" y2="26.14"/><line class="cls-2" x1="46.05" y1="38.89" x2="48.43" y2="40.45"/><line class="cls-2" x1="46.38" y1="46.42" x2="48.77" y2="44.6"/><line class="cls-2" x1="53.52" y1="50.41" x2="53.3" y2="47.39"/><line class="cls-2" x1="44.13" y1="6.33" x2="47.18" y2="6.2"/><line class="cls-2" x1="45.13" y1="12.17" x2="47.52" y2="10.35"/><line class="cls-2" x1="52.27" y1="16.16" x2="53.39" y2="13.1"/><line class="cls-2" x1="47.05" y1="28.39" x2="44.55" y2="26.64"/><line class="cls-2" x1="46.8" y1="20.89" x2="43.55" y2="21.89"/><line class="cls-2" x1="55.8" y1="5.39" x2="53.05" y2="7.14"/><line class="cls-2" x1="63.3" y1="30.89" x2="60.55" y2="32.64"/><line class="cls-2" x1="61.05" y1="19.89" x2="59.05" y2="18.39"/><line class="cls-2" x1="18.38" y1="42.33" x2="21.43" y2="42.2"/><line class="cls-2" x1="19.38" y1="48.17" x2="21.77" y2="46.35"/><line class="cls-2" x1="56.55" y1="43.39" x2="59.27" y2="42.85"/><line class="cls-2" x1="13.8" y1="16.14" x2="14.3" y2="12.89"/><line class="cls-2" x1="15.8" y1="18.14" x2="19.3" y2="18.89"/><line class="cls-2" x1="31.55" y1="59.14" x2="35.55" y2="58.39"/><line class="cls-2" x1="32.27" y1="38.37" x2="32.77" y2="34.87"/><line class="cls-2" x1="63.3" y1="48.89" x2="60.8" y2="50.14"/><line class="cls-2" x1="8.8" y1="58.39" x2="12.05" y2="55.64"/><line class="cls-2" x1="3.55" y1="42.39" x2="1.05" y2="40.64"/><line class="cls-2" x1="14.55" y1="47.89" x2="12.55" y2="46.39"/><line class="cls-2" x1="40.09" y1="67.08" x2="41.94" y2="69.77"/><line class="cls-2" x1="63.34" y1="36.83" x2="65.19" y2="39.52"/><line class="cls-2" x1="32.59" y1="45.58" x2="33.3" y2="48.39"/><line class="cls-2" x1="19.09" y1="13.08" x2="19.8" y2="15.89"/><line class="cls-2" x1="30.55" y1="29.14" x2="28.55" y2="27.64"/><line class="cls-2" x1="1.55" y1="47.89" x2="-1.45" y2="47.89"/><line class="cls-2" x1="0.55" y1="32.14" x2="-1.45" y2="30.64"/><line class="cls-2" x1="66.76" y1="71.04" x2="67.87" y2="74"/><line class="cls-2" x1="61.92" y1="70.91" x2="61.3" y2="74.18"/><line class="cls-2" x1="46.71" y1="70.05" x2="46.82" y2="73.05"/><line class="cls-2" x1="31.01" y1="71.65" x2="29.59" y2="73.7"/><line class="cls-2" x1="14.74" y1="71.52" x2="16.07" y2="73.47"/><line class="cls-2" x1="3.68" y1="70.18" x2="2.02" y2="72.5"/><line class="cls-2" x1="4.05" y1="19.89" x2="0.3" y2="20.64"/><line class="cls-2" x1="67.16" y1="14.55" x2="65.27" y2="17.37"/><line class="cls-2" x1="22.77" y1="35.87" x2="23.45" y2="38.66"/><line class="cls-2" x1="43.55" y1="34.89" x2="41.55" y2="33.39"/><line class="cls-2" x1="54.27" y1="69.87" x2="56.27" y2="72.87"/><line class="cls-2" x1="54.27" y1="-2.13" x2="56.27" y2="0.87"/><line class="cls-2" x1="0.05" y1="64.89" x2="-3.2" y2="64.14"/><line class="cls-2" x1="1.55" y1="47.89" x2="-1.45" y2="47.89"/><line class="cls-2" x1="0.55" y1="32.14" x2="-1.45" y2="30.64"/><line class="cls-2" x1="0.05" y1="9.14" x2="-4.2" y2="9.89"/><line class="cls-2" x1="66.76" y1="71.04" x2="67.87" y2="74"/><line class="cls-2" x1="61.92" y1="70.91" x2="61.3" y2="74.18"/><line class="cls-2" x1="46.71" y1="70.05" x2="46.82" y2="73.05"/><line class="cls-2" x1="31.01" y1="71.65" x2="29.59" y2="73.7"/><line class="cls-2" x1="14.74" y1="71.52" x2="16.07" y2="73.47"/><line class="cls-2" x1="3.68" y1="70.18" x2="2.02" y2="72.5"/><line class="cls-2" x1="54.27" y1="69.87" x2="56.27" y2="72.87"/></pattern></defs><title>paper_rough</title><path class="cls-3" d="M2.39,473.58l.88.88C3,474.17,2.68,473.87,2.39,473.58Z"/><path class="cls-4" d="M894.54,474.46l.88-.88Z"/><path class="cls-5" d="M831.81,29.82c3,0,6-.17,9,.07,1.17.09,2.28,1.07,3.41,1.65Z"/><path class="cls-4" d="M883.07,31.61l10.62-.86Z"/><path class="cls-5" d="M857.43,28.94l.91.84Z"/><path class="cls-6" d="M895.42,30.69V473.57l-.88.88H3.27l-.88-.88v-427c2.88-.92,5.78-1.74,8.62-2.77,6.68-2.43,13.47-4.62,19.94-7.52A42.42,42.42,0,0,1,55.61,33c7,1.09,14.33,1.08,21.5,1a152.12,152.12,0,0,0,17.14-1.61c4.68-.61,8.3,2.43,12.35,3.21,5.87,1.14,12.16.29,18.26-.06,4.93-.29,9.84-1.55,14.76-1.56,7.25,0,14.49.75,21.75,1.07,1.28.06,2.57-.49,3.87-.57,2.23-.13,4.48-.06,6.72-.17,3.54-.18,7.09-.3,10.61-.71,3.22-.37,6.39-1.5,9.59-1.55s6.75,1.51,10,1.11c6.76-.83,13.41-2.58,20.13-3.75a33.62,33.62,0,0,1,7.57-.37c2.13.12,4.28,1.28,6.34,1.1,4.75-.42,9.43-1.71,14.17-2,6.09-.39,12.6,1.12,18.21-.57,5.11-1.54,9.5-.33,14.18-.09,2.9.15,5.8,1.43,8.64,1.26,10.05-.57,20.07-1.51,30.1-2.42,1.21-.11,2.32-1.08,3.54-1.26,2.58-.4,5.27-1,7.8-.68,4,.54,7.82,2.44,11.79,2.66,11.32.63,22.66.77,34,.94a12,12,0,0,0,5.51-1.19c4.48-2.3,8.56-2.15,12.64.87a5.08,5.08,0,0,0,3.11.46c3.05-.23,6.09-.88,9.14-.91,8-.08,16-2.91,24.05-.07a4.89,4.89,0,0,0,1.32,0c6.66.33,13.33.55,20,1.1,1.82.15,3.53,1.4,5.35,1.93,3,.85,6,2,9,2.17,5.72.38,11.49,0,17.22.3a11.53,11.53,0,0,1,5.34,1.91A41,41,0,0,0,514.7,41.3c4.41-.08,9-.67,13.2.29,9.38,2.15,18.94-1.41,28.22,1.36a3.67,3.67,0,0,0,2.48-.7c4.25-2.54,8.62-1.92,13.23-1.17a20.31,20.31,0,0,0,8.8-.84c3.53-1.07,6.83-2.93,10.22-4.46.53-.24,1.28-.39,1.53-.82,2.33-3.94,5.68-2.46,8.93-1.81,3.53.71,7.06,1.68,10.63,1.85,4,.19,8.35.35,12.09-.86a16.55,16.55,0,0,1,7.79-.74c3.4.44,7-.48,10.49-1,4.94-.71,9.85-2.09,14.8-2.22,5.39-.15,10.83,1.39,16.21,1.14,8-.38,14.95-6,23.31-5.28a1.57,1.57,0,0,0,1.14-.59c2.28-3.08,5.59-2.55,8.81-2.85,1.48-.13,2.84-1.64,4.25-2.52h11.49c4.79,7.57,13.24,7,20.47,9,1,.28,2.25-.57,3.4-.69,3.72-.37,7.44-.63,11.17-1,2.4-.21,5,0,7.17-.78,4.84-1.67,9.38-3.2,14.82-2.28,8.06,1.35,16.35,3.4,24.35-1.12,1.29-.73,3.62.2,5.43.58,3.34.71,6.67,1.53,10,2.4,4.26,1.12,8.49,2.34,12.74,3.52l12.4,1.72h5.29l7.93-2.61.91.84c6.73.82,13.44,1.71,20.18,2.41a20,20,0,0,0,4.55-.58l10.62-.86Z"/><path class="cls-7" d="M895.42,30.69V473.57l-.88.88H3.27l-.88-.88v-427c2.88-.92,5.78-1.74,8.62-2.77,6.68-2.43,13.47-4.62,19.94-7.52A42.42,42.42,0,0,1,55.61,33c7,1.09,14.33,1.08,21.5,1a152.12,152.12,0,0,0,17.14-1.61c4.68-.61,8.3,2.43,12.35,3.21,5.87,1.14,12.16.29,18.26-.06,4.93-.29,9.84-1.55,14.76-1.56,7.25,0,14.49.75,21.75,1.07,1.28.06,2.57-.49,3.87-.57,2.23-.13,4.48-.06,6.72-.17,3.54-.18,7.09-.3,10.61-.71,3.22-.37,6.39-1.5,9.59-1.55s6.75,1.51,10,1.11c6.76-.83,13.41-2.58,20.13-3.75a33.62,33.62,0,0,1,7.57-.37c2.13.12,4.28,1.28,6.34,1.1,4.75-.42,9.43-1.71,14.17-2,6.09-.39,12.6,1.12,18.21-.57,5.11-1.54,9.5-.33,14.18-.09,2.9.15,5.8,1.43,8.64,1.26,10.05-.57,20.07-1.51,30.1-2.42,1.21-.11,2.32-1.08,3.54-1.26,2.58-.4,5.27-1,7.8-.68,4,.54,7.82,2.44,11.79,2.66,11.32.63,22.66.77,34,.94a12,12,0,0,0,5.51-1.19c4.48-2.3,8.56-2.15,12.64.87a5.08,5.08,0,0,0,3.11.46c3.05-.23,6.09-.88,9.14-.91,8-.08,16-2.91,24.05-.07a4.89,4.89,0,0,0,1.32,0c6.66.33,13.33.55,20,1.1,1.82.15,3.53,1.4,5.35,1.93,3,.85,6,2,9,2.17,5.72.38,11.49,0,17.22.3a11.53,11.53,0,0,1,5.34,1.91A41,41,0,0,0,514.7,41.3c4.41-.08,9-.67,13.2.29,9.38,2.15,18.94-1.41,28.22,1.36a3.67,3.67,0,0,0,2.48-.7c4.25-2.54,8.62-1.92,13.23-1.17a20.31,20.31,0,0,0,8.8-.84c3.53-1.07,6.83-2.93,10.22-4.46.53-.24,1.28-.39,1.53-.82,2.33-3.94,5.68-2.46,8.93-1.81,3.53.71,7.06,1.68,10.63,1.85,4,.19,8.35.35,12.09-.86a16.55,16.55,0,0,1,7.79-.74c3.4.44,7-.48,10.49-1,4.94-.71,9.85-2.09,14.8-2.22,5.39-.15,10.83,1.39,16.21,1.14,8-.38,14.95-6,23.31-5.28a1.57,1.57,0,0,0,1.14-.59c2.28-3.08,5.59-2.55,8.81-2.85,1.48-.13,2.84-1.64,4.25-2.52h11.49c4.79,7.57,13.24,7,20.47,9,1,.28,2.25-.57,3.4-.69,3.72-.37,7.44-.63,11.17-1,2.4-.21,5,0,7.17-.78,4.84-1.67,9.38-3.2,14.82-2.28,8.06,1.35,16.35,3.4,24.35-1.12,1.29-.73,3.62.2,5.43.58,3.34.71,6.67,1.53,10,2.4,4.26,1.12,8.49,2.34,12.74,3.52l12.4,1.72h5.29l7.93-2.61.91.84c6.73.82,13.44,1.71,20.18,2.41a20,20,0,0,0,4.55-.58l10.62-.86Z"/><g class="cls-8"><path class="cls-9" d="M630.81,33.41c3.4.44,7-.48,10.49-1,1.79-.26,3.58-.6,5.36-.94-3.06.5-6.18,1.15-9.14.77a16.29,16.29,0,0,0-7.79.74c-.3.1-.61.17-.92.25A17.9,17.9,0,0,1,630.81,33.41Z"/><path class="cls-9" d="M808.1,23.9c3.34.71,6.67,1.53,10,2.4,4.26,1.12,8.49,2.34,12.74,3.52,3,0,6-.17,9,.07,1.17.09,2.28,1.07,3.41,1.65h5.29L852,30.4h-2.08l-12.4-1.72c-4.25-1.18-8.48-2.4-12.74-3.52-3.31-.87-6.63-1.69-10-2.4-1.8-.38-4.13-1.31-5.43-.58a21,21,0,0,1-2.86,1.34C807.07,23.65,807.6,23.79,808.1,23.9Z"/><path class="cls-9" d="M721.29,20.11c4.79,7.57,13.24,7,20.47,9.05,1,.28,2.25-.57,3.4-.69,3.72-.37,7.44-.63,11.17-1,2.4-.21,5,0,7.17-.78l1.39-.47c-.62,0-1.24,0-1.85.1-3.72.33-7.45.59-11.17,1-1.15.12-2.42,1-3.4.69C741.23,26,732.79,26.53,728,19H716.51c-.53.33-1,.75-1.58,1.15Z"/><path class="cls-9" d="M656.1,30.2c5.39-.15,10.83,1.39,16.21,1.14a24.89,24.89,0,0,0,6.05-1.15C673.2,30.3,668,28.9,662.81,29a65,65,0,0,0-10.3,1.44C653.7,30.34,654.9,30.24,656.1,30.2Z"/><path class="cls-9" d="M778.33,24.44c6.85,1.15,13.86,2.78,20.72.48-4.68.14-9.39-.86-14-1.63a23,23,0,0,0-10.54.89A19.48,19.48,0,0,1,778.33,24.44Z"/><path class="cls-9" d="M857.33,29.78c6.73.82,13.44,1.71,20.18,2.41a20,20,0,0,0,4.55-.58l10.62-.86c-3.54.29-.38-.58-3.92-.29a19.44,19.44,0,0,1-4.55.58c-6.74-.7-13.46-1.59-20.18-2.42l-.91-.84-5.87,1.93Z"/><path class="cls-9" d="M696.75,25.47c0-.07.11-.13.17-.2-1,.2-2,.45-3,.74.55,0,1.1,0,1.67,0A1.5,1.5,0,0,0,696.75,25.47Z"/><path class="cls-9" d="M705.3,22.65l.26,0a4,4,0,0,0,1.79-.74A6.78,6.78,0,0,0,705.3,22.65Z"/><path class="cls-9" d="M54.61,33c7,1.09,14.33,1.08,21.5,1a152.12,152.12,0,0,0,17.14-1.61c4.68-.61,8.3,2.43,12.35,3.21,5.87,1.14,12.16.29,18.26-.06,4.93-.29,9.84-1.55,14.76-1.56,7.25,0,14.49.75,21.75,1.07,1.28.06,2.57-.49,3.87-.57,2.23-.13,4.48-.06,6.72-.17,3.54-.18,7.09-.3,10.61-.71,1.85-.21,3.68-.67,5.51-1-3.12.31-6.27.43-9.41.59-2.24.11-4.48,0-6.72.17-1.3.08-2.59.63-3.87.57-7.25-.33-14.5-1.09-21.75-1.07-4.92,0-9.82,1.28-14.76,1.56-6.09.35-12.39,1.2-18.26.06-4-.78-7.66-3.82-12.35-3.21a147.6,147.6,0,0,1-17.14,1.61c-7.17.09-14.44.1-21.5-1a42.77,42.77,0,0,0-17.54.75A45.62,45.62,0,0,1,54.61,33Z"/><path class="cls-9" d="M281.72,27.48c2.9.15,5.8,1.43,8.64,1.26,10.05-.57,20.07-1.51,30.1-2.42a6.26,6.26,0,0,0,2-.73c-8.47.77-16.94,1.51-25.43,2-2.85.16-5.75-1.11-8.64-1.26-4.69-.25-9.07-1.45-14.18.09a15.62,15.62,0,0,1-1.64.39C275.71,26.75,278.65,27.32,281.72,27.48Z"/><path class="cls-9" d="M600.3,33.16c3.53.71,7.06,1.68,10.63,1.85,4,.19,8.35.35,12.09-.86l.65-.2c-2,.08-4.06,0-6-.1-3.56-.17-7.1-1.14-10.63-1.85-2.93-.59-5.93-1.83-8.21.82C599.3,32.94,599.8,33.06,600.3,33.16Z"/><path class="cls-9" d="M228.82,29.05c2.13.12,4.28,1.28,6.34,1.1,4.75-.42,9.42-1.71,14.17-2,6.09-.39,12.6,1.12,18.21-.57.49-.15,1-.26,1.45-.36-4.23.16-8.7-.5-13-.22-4.75.3-9.42,1.6-14.17,2-2.06.18-4.21-1-6.34-1.1a33.65,33.65,0,0,0-7.57.37c-1.53.27-3,.56-4.57.87A39.55,39.55,0,0,1,228.82,29.05Z"/><path class="cls-9" d="M191.15,32.07c3.32,0,6.75,1.51,10,1.11,2.69-.33,5.36-.81,8-1.34l-1.32.18c-3.23.4-6.65-1.16-10-1.11a43,43,0,0,0-7.38,1.19Z"/><path class="cls-9" d="M570.82,41.09a20.31,20.31,0,0,0,8.8-.84l.43-.14a14.89,14.89,0,0,1-2.52-.17c-4.16-.68-8.12-1.24-12,.52A44.55,44.55,0,0,1,570.82,41.09Z"/><path class="cls-9" d="M395.74,27.67a5.08,5.08,0,0,0,3.11.46c3-.23,6.09-.88,9.14-.91,8-.08,16-2.91,24.05-.07a4.89,4.89,0,0,0,1.32,0c6.66.33,13.33.55,20,1.1,1.82.15,3.53,1.4,5.35,1.93,3,.85,6,2,9,2.17,5.72.38,11.49,0,17.22.3a11.53,11.53,0,0,1,5.34,1.91,41,41,0,0,0,23.43,6.77c4.41-.08,9-.67,13.2.29,9.38,2.15,18.94-1.41,28.22,1.36a3.67,3.67,0,0,0,2.48-.7,12.35,12.35,0,0,1,2-1c-8.6-1.71-17.39,1.15-26-.83-4.2-1-8.79-.38-13.2-.29A41,41,0,0,1,497,33.39a11.53,11.53,0,0,0-5.34-1.91c-5.73-.28-11.5.07-17.22-.3-3-.2-6-1.32-9-2.17-1.82-.52-3.53-1.78-5.35-1.93-6.65-.54-13.32-.76-20-1.1a4.89,4.89,0,0,1-1.32,0c-8-2.84-16,0-24.05.07-3.05,0-6.08.68-9.14.91a5.08,5.08,0,0,1-3.11-.46,10.86,10.86,0,0,0-12-1.18A11.77,11.77,0,0,1,395.74,27.67Z"/><path class="cls-9" d="M331.8,24.39c4,.54,7.82,2.44,11.79,2.66,11.32.63,22.66.77,34,.94a12.05,12.05,0,0,0,5.47-1.17c-10.93-.17-21.86-.32-32.77-.92-4-.22-7.81-2.11-11.79-2.66-2.52-.35-5.21.28-7.8.68a4.64,4.64,0,0,0-1.21.4A11.08,11.08,0,0,1,331.8,24.39Z"/></g></svg>