<?xml version="1.0" encoding="utf-8"?>
<!-- Generator: Adobe Illustrator 16.0.0, SVG Export Plug-In . SVG Version: 6.00 Build 0)  -->
<!DOCTYPE svg PUBLIC "-//W3C//DTD SVG 1.1//EN" "http://www.w3.org/Graphics/SVG/1.1/DTD/svg11.dtd">
<svg version="1.1" id="Layer_1" xmlns="http://www.w3.org/2000/svg" xmlns:xlink="http://www.w3.org/1999/xlink" x="0px" y="0px"
	 width="270.393px" height="379.482px" viewBox="0 0 270.393 379.482" enable-background="new 0 0 270.393 379.482"
	 xml:space="preserve">
<path fill-rule="evenodd" clip-rule="evenodd" fill="#427E6A" d="M75.054,51.554c-2.574-17.498,33.31-11.072,43.471-7.596
	c37.181,12.719,51.876,3.564,51.876,3.564c9.382-2.42,9.739-20.453,9.739-20.453s13.524,2.167,17.473,4.331
	c16.785,9.223,28.298,2.738,28.298,2.738s14.171-9.852-8.249-21.115c-5.09-2.563-13.928-5.69-21.953-8.03
	c-4.552-1.339-8.851-2.419-12.037-2.992c-0.122-0.018-0.229-0.044-0.354-0.062C128.153-7.85,86.658,21.587,68.312,41.875
	C60.159,50.877,75.582,55.158,75.054,51.554z"/>
<path fill-rule="evenodd" clip-rule="evenodd" fill="#366655" d="M180.14,27.07c0,0,13.524,2.167,17.473,4.331
	c16.785,9.223,28.298,2.738,28.298,2.738s14.171-9.852-8.249-21.115c-5.09-2.563-13.928-5.69-21.953-8.03
	c-4.552-1.339-8.851-2.419-12.037-2.992c-0.122-0.018-0.229-0.044-0.354-0.062C171.988,14.56,180.14,27.07,180.14,27.07z"/>
<g>
	<path fill="#214646" d="M251.715,173.485c0,0,0.053-0.169,0.154-0.497c0.089-0.281,0.227-0.777,0.406-1.431
		c0.339-1.316,0.846-3.273,1.332-5.831c0.49-2.553,1.033-5.683,1.435-9.315c0.241-1.811,0.367-3.754,0.561-5.799
		c0.099-2.052,0.282-4.208,0.302-6.467c0.158-4.514,0.016-9.418-0.331-14.596c-0.108-1.294-0.218-2.605-0.329-3.933
		c-0.11-1.329-0.313-2.663-0.468-4.019c-0.282-2.717-0.804-5.458-1.247-8.264c-1.075-5.572-2.338-11.324-4.119-17.034
		c-1.654-5.751-3.841-11.438-6.161-17.072c-1.226-2.788-2.515-5.553-3.811-8.303c-1.424-2.684-2.75-5.413-4.235-8.029
		c-0.758-1.3-1.513-2.595-2.264-3.884c-0.761-1.283-1.468-2.593-2.3-3.812c-1.628-2.462-3.157-4.955-4.809-7.305
		c-1.684-2.331-3.338-4.624-4.958-6.867c-1.727-2.167-3.417-4.286-5.062-6.349c-0.804-1.048-1.665-2.025-2.518-2.984
		c-0.847-0.964-1.681-1.914-2.501-2.848s-1.628-1.853-2.42-2.755c-0.794-0.9-1.641-1.72-2.434-2.559
		c-1.604-1.662-3.141-3.253-4.603-4.768c-1.456-1.522-2.962-2.837-4.311-4.145c-1.365-1.29-2.644-2.497-3.826-3.613
		c-1.161-1.142-2.342-2.059-3.349-2.958c-4.09-3.527-6.427-5.542-6.427-5.542s2.424,1.912,6.666,5.258
		c1.046,0.855,2.271,1.725,3.482,2.815c1.232,1.066,2.565,2.219,3.99,3.451c1.409,1.25,2.979,2.505,4.506,3.968
		c1.534,1.457,3.148,2.987,4.832,4.585c0.833,0.808,1.722,1.597,2.56,2.467c0.836,0.872,1.688,1.76,2.556,2.664
		c0.867,0.904,1.749,1.824,2.645,2.758c0.901,0.93,1.813,1.877,2.67,2.898c1.752,2.011,3.552,4.077,5.392,6.188
		c1.738,2.199,3.515,4.445,5.321,6.73c1.778,2.309,3.439,4.766,5.204,7.197c0.899,1.205,1.677,2.502,2.508,3.773
		c0.822,1.278,1.648,2.563,2.478,3.854c1.63,2.6,3.106,5.322,4.681,8.004c1.447,2.75,2.891,5.523,4.271,8.327
		c2.632,5.668,5.136,11.421,7.103,17.274c2.094,5.811,3.664,11.699,5.03,17.433c0.59,2.888,1.254,5.716,1.673,8.527
		c0.223,1.403,0.493,2.785,0.67,4.163c0.176,1.378,0.351,2.741,0.522,4.084c0.599,5.385,0.971,10.511,1.014,15.255
		c0.082,2.372-0.008,4.647-0.021,6.813c-0.106,2.164-0.152,4.221-0.322,6.15c-0.257,3.862-0.688,7.225-1.096,9.995
		c-0.402,2.77-0.861,4.949-1.181,6.449c-0.171,0.75-0.305,1.329-0.421,1.767c-0.103,0.391-0.155,0.593-0.155,0.593
		c-0.606,2.31-2.971,3.691-5.28,3.085s-3.69-2.97-3.085-5.28c0.015-0.055,0.03-0.109,0.046-0.163L251.715,173.485z"/>
</g>
<path fill="#050525" d="M181.131,356.732l-4.518,4l-14.021,4.006c0,0,4.873,14.697,8.047,14.744c2.066,0.03-1.009-8.414,1.047-9.75
	c0.898-0.584,3.364,9.997,5.703,8.481c1.899-1.229-1.559-10.898,0.568-11.307c0.973-0.187,1.873,6.441,3.174,6.075
	C184.381,372.067,181.131,356.732,181.131,356.732z"/>
<path fill="#050525" d="M248.908,164.928c0,0,16.28-11.137,18.447-8.546c2.934,3.507-5.697,6.662-4.68,8.322
	c0.999,1.63,5.712-3.299,7.451-0.742c2.131,3.132-9.229,11.119-9.229,11.119L248.908,164.928z"/>
<path fill="#C0A566" d="M67.287,145.482c0,0-13.789-6.251-20.122-3.625c-7.695,3.19-14.533,0.384-17.667,3.625
	c-12.167,12.583-19.5,10.083-24.167,20.083c-3.729,7.99-5.977,25.722-5.167,34.501c2,21.666,22.315,35.021,22.315,35.021
	l62.018-12.021l20.666-40L67.287,145.482z"/>
<path fill="#3F7CAC" d="M169.555,367.579c24.332-3,25.109-46.347,25.109-46.347s16.434-13.999,23.5-34.499
	c8.284-24.032,3.499-59.335,3.499-59.335s29.807-22.433,35.836-36.999c4.415-10.667,5.371-23.254-0.446-28.153
	c-12.666-10.667-45.903,3.29-45.903,3.29c-6.985-28.09-15.318-40.804-15.318-40.804s-0.917-81.5-16.917-78.417
	c-12.099,2.331-27.416,54.917-27.416,54.917c-18.084-2.5-28.334,0-28.334,0s-10.883-57.329-26.666-58.5
	c-16.834-1.25-17.333,83-17.333,83s-8.794,16.943-13.293,21.359c-4.4,4.318,2.958,27.308,2.958,27.308s4.129-3.653,12.667-4.667
	c8.417-1,8.46,13.042,8.333,18c-0.167,6.5-10.333,15.666-10.333,15.666s-4.167,10.412-10.083,11.334
	c-4.298,0.67-12.428-2.7-12.428-2.7s-10.978-5.634-11.322-7.3c-1.5-7.258,1.5-21.25,1.5-21.25l-3.333-0.75c0,0-16.793,7.445-24,17
	c-7.167,9.5-4.931,26.797-1.333,31c1.999,2.335,6.833,9.833,21.333,11c0,0-4.167,16.25,0.333,29.667c0,0-9.75,27.083,3.001,50.667
	c4.151,7.678,17.18,21.629,25.667,23.667c5.342,1.283,12.333,3.999,21.667-3.667c4.011-3.294,9.101-13.619,14-15.333
	c3.486-1.22,19.333,4.583,19.333,4.583S144.015,370.728,169.555,367.579z"/>
<path fill="#FAFBFC" d="M89.725,182.073c0,0,26.356-7.363,48.105-6.007c66.834,4.167,72.001,57.401,72.001,57.401
	c9.667,65.75-37.001,87.6-37.001,87.6c-36.247,14.909-68.333-1.334-68.333-1.334c0.667-12-6.759-20-12.333-23.666
	c-21.621-14.218-40-34-40-34s-9.567-30.194,15.667-45.334c10.833-6.5,19.083-12,32.247-4.994c5.975,3.181,3.231-3.135,0.897-7.802
	c-1.832-3.664-6.889-4.947-10.145-5.695c-1.708-0.393-6.979,0.647-6.979,0.647S91.665,191.482,89.725,182.073z"/>
<path fill="#3F7CAC" d="M140.807,195.732c0,0-12.301-1.166-18.802,13.5c-1.907,4.304,10.553-2.75,18.802-1.5
	c6.819,1.034,16.534,6.992,18.356,6.334C162.165,212.982,155.665,198.241,140.807,195.732z"/>
<path fill="#3F7CAC" d="M192.235,216.103c-5.686-2.206-13.592,1.943-13.52,3.222c0.284,5.056,9.529,4.165,12.199,6.019
	c3.024,2.102,7.074,7.381,9.165,8.062C203.61,234.556,199.306,218.847,192.235,216.103z"/>
<path fill="#050525" d="M139.807,138.232c-6.81,0.417-5.643,4-5.643,4s0,2.25,5.499,2.25c8.002,0,7.001-3.125,7.001-3.125
	S146.652,137.813,139.807,138.232z"/>
<path fill="#FFFFFF" d="M100.665,126.732c-9.625,0-12,9.25-12.666,15.625c0,0-0.664,11.326,10.916,12.125
	c10.875,0.75,13.066-9,13.25-13.875C112.365,135.288,108.665,126.732,100.665,126.732z"/>
<path fill="#FFFFFF" d="M175.915,129.982c-10.855,2.171-8.388,16.569-6.641,19.321c1.225,1.929,5.25,8.03,12.141,7.429
	c9.558-0.833,9.89-11.045,8.684-15.375C188.944,137.212,184.665,128.232,175.915,129.982z"/>
<path fill="#050525" d="M100.68,136.22c-3.562,0-3.681,4.512-3.681,4.512s-0.238,4.513,3.681,4.513c4.275,0,4.275-4.513,4.275-4.513
	S104.955,136.22,100.68,136.22z"/>
<path fill="#050525" d="M178.163,137.482c-3.104,0.345-3.258,3.633-2.998,5.375c0.221,1.479,1.25,3.375,4.082,3.375
	c3.418,0,3.418-4.375,3.418-4.375S182.665,136.982,178.163,137.482z"/>
<path fill="#967F56" d="M39.37,171.746c1.434,0.785,3.636,3.675,5.256,3.894c4.328,0.584,5.903-2.531,4.284-5.841
	c-2.624-5.365-7.009-3.769-9.54-3.505c-3.159,0.33-12.266,3.31-12.266,3.31S36.639,170.25,39.37,171.746z"/>
<path fill="#967F56" d="M45.807,183.287c1.967-0.67-0.481-3.884-6.69-4.934c-15.618-2.643-19.286,21.379-19.286,21.379
	S33.062,187.628,45.807,183.287z"/>
<path fill="#967F56" d="M61.957,173.716c5.125-3.618-2.679-28.626-2.12-24.86c0.795,5.353,3.106,19.827-0.486,21.465
	c-4.125,1.881-12.588-16.748-9.793-8.338C50.176,163.844,52.206,180.601,61.957,173.716z"/>
<path fill="#A38B5A" d="M77.752,177.635c1.585,0.406-5.715,7.857-8.65,9.329c-2.624,1.316-9.173,1.541-9.874,4.391
	c-0.727,2.953,4.626,7.958,6.934,6.34c2.873-2.014,8.023-10.137,9.543-9.649c2.255,0.722-4.515,11.972-7.594,14.112
	c-3.111,2.162-9.832,1.532-12.812-3.472c-3.45-5.794-2.381-14.861,4.183-14.927C72.705,183.626,72.265,176.229,77.752,177.635z"/>
<path fill="#604A34" d="M59.07,175.676c1.159-0.508-2.748-3.082-4.23-2.771c-6.431,1.346-10.278,9.369-10.278,9.369
	s2.218,1.895,3.28,0.959C50.425,180.956,54.325,177.755,59.07,175.676z"/>
<path fill="#4A92BA" d="M98.665,329.232c5.833-9.5,0.026-24.753-4.442-29.75c-8.347-9.334-39.058-0.938-42.301,22.272
	c-0.866,6.196,7.436,15.57,11.493,19.728C63.415,341.482,82.294,355.893,98.665,329.232z"/>
<path fill="#050525" d="M78.398,292.732c-1.94,0.806,4.762,10.789,5.517,12.75c0.864,2.245,6.553,3.729,8.75,2.75
	c2.075-0.925,1.859-4.843,0.625-6.75C91.915,299.357,80.081,292.034,78.398,292.732z"/>
<path fill="#050525" d="M62.274,297.232c1.591-1.591,13.766,4.375,15.391,8c0.818,1.825,1.126,6.348,0,8
	c-1.875,2.75-7.396,1.577-9,0C67.238,311.831,60.86,298.646,62.274,297.232z"/>
<path fill="#050525" d="M52.583,309.732c-1.539,0.429,4.815,9.403,4.832,11c0.016,1.544,1.732,4.97,3.25,5.25
	c2.027,0.375,5.578-3.427,6.25-5.375C68.165,316.982,55.708,308.861,52.583,309.732z"/>
<path fill="#A58D7F" d="M83.153,323.065c-7.988,1.667-11.997,10.248-9.488,13.532c2.024,2.65,10.198,1.44,13.333-0.365
	c5.5-3.167,5.5-7.334,5.5-7.334S92.337,321.148,83.153,323.065z"/>
</svg>
