<?xml version="1.0" encoding="utf-8"?>
<!-- Generator: Adobe Illustrator 16.0.0, SVG Export Plug-In . SVG Version: 6.00 Build 0)  -->
<!DOCTYPE svg PUBLIC "-//W3C//DTD SVG 1.1//EN" "http://www.w3.org/Graphics/SVG/1.1/DTD/svg11.dtd">
<svg version="1.1" id="Layer_1" xmlns="http://www.w3.org/2000/svg" xmlns:xlink="http://www.w3.org/1999/xlink" x="0px" y="0px"
	 width="1418.812px" height="531.71px" viewBox="0 0 1418.812 531.71" enable-background="new 0 0 1418.812 531.71"
	 xml:space="preserve">
<path id="eyefillL" fill="#FEFFDE" stroke="#000000" stroke-miterlimit="10" d="M288.111,5.729
	C252.848,17.335,199,44.625,181.617,109.224c-16.98,63.101,12,128.494,74.997,137.493s112.608-9.859,142.493-71.496
	c28.894-59.595,13.486-125.995-12-148.493C369.901,11.541,334-9.375,288.111,5.729z"/>
<path id="eyefillR" fill="#FEFFDE" stroke="#000000" stroke-miterlimit="10" d="M1113,16.625c-13.914,2.36-82.126,19.161-96,92
	c-12,63,25.832,116.263,79.871,134.833c37.129,12.759,103.193,4.757,131.129-55.833C1254.013,131.204,1225-2.375,1113,16.625z"/>
<g id="irisR">
	<path id="irisfillR" d="M1103.997,83.959c-15.313-0.016-54.755,12.268-40,62.667c12.003,41,70.503,35,80.334,7.333
		C1154.852,124.353,1147.424,84.003,1103.997,83.959z"/>
	<g id="eyeshineR">
		<path fill="#FFFFFF" d="M1084.664,113.292c0,0,9.334-2,10.667,0s2.667,14.486,0,16.576c-2.667,2.09-14,6.757-14,6.757
			S1077.997,119.292,1084.664,113.292z"/>
		<path fill="#FFFFFF" d="M1096.871,142.625c0,0,3.793,4,3.793,8.667s-4.001,10-8.667,6S1087.745,146.625,1096.871,142.625z"/>
	</g>
</g>
<g id="irisL_1_">
	<path id="irisfillL" d="M320,76.625c-10.68-1.582-53-2.332-59,47.834s70.531,72.21,89.457,24.203
		C369,101.625,333.5,78.625,320,76.625z"/>
	<g id="eyeshineL">
		<path fill="#FFFFFF" d="M281.998,114.625c0,0,13.941-0.667,12.304,2.667c-1.637,3.334,1.467,16.667-6.085,19.333
			c-7.552,2.666-12.219,0-12.219,0S275.331,119.958,281.998,114.625z"/>
		<path fill="#FFFFFF" d="M289.331,145.292c0,0,6.209,4.667,7.104,8s-3.104,10-7.104,7.333S281.331,147.292,289.331,145.292z"/>
	</g>
</g>
<path id="nose" fill="#1F2D43" d="M724,145.292c21.13,0,55.768,2.819,84.001,9.333c19.999,4.615,72.667,20.933,2.667,39.333
	c0,0,1.388-11.332-7.668-11.333c-17.666,0-29.001,22.711-79,23c-59.999,0.346-66.666-23-76-23c-13.039,0-21.999,3.333-19.999,11.333
	c0,0-39.001-3.467-35.001-18.4S674.667,145.292,724,145.292z"/>
<path id="mouthfill" fill="#FEFFDE" d="M702.091,352.212c-98.999,0.699-377.981,23.998-517.474,94.494
	c0,0,257.986,84.863,534.244,83.996c238.4-0.748,376.006-29.998,518.703-88.604C1237.564,442.099,1005.075,350.074,702.091,352.212z
	"/>
<path id="mouthoutline" d="M1237.933,441.169c-0.568-0.227-57.941-22.766-150.969-45.006
	c-87.786-20.986-226.596-46.065-384.88-44.951c-52.863,0.373-148.716,7.037-243.691,21.084
	c-83.039,12.281-198.021,35.006-274.227,73.52l-2.154,1.088l2.292,0.754c0.639,0.211,65.021,21.256,162.125,42.025
	c37.715,8.068,83.756,16.787,135.016,24.182c0.007,0.129,0.012,0.217,0.012,0.217l12.665,1.568
	c67.436,9.273,143.188,16.059,220.526,16.061c1.418,0,2.799-0.002,4.216-0.006c117.655-0.369,211.525-7.559,295.414-22.621
	c77.204-13.865,146.186-34.238,223.667-66.061l2.294-0.941L1237.933,441.169z M933.018,369.07
	c-1.003,57.705-13.578,142.797-14.861,151.354c-52.982,5.408-110.844,8.383-176.155,9.113V353.474
	C811.026,354.86,875.632,360.958,933.018,369.07z M307,404.259v74.533c-65.127-15.275-109.386-28.994-119.746-32.289
	C221.632,429.429,263.67,415.513,307,404.259z M346.878,487.736c-8.912-1.906-17.542-3.814-25.878-5.709v-81.312
	c47.992-11.781,96.729-20.381,137.685-26.438c7.471-1.104,14.945-2.164,22.405-3.178c-5.435,24.089-0.583,124.423,0.25,140.729
	C430.302,504.455,384.453,495.771,346.878,487.736z M718.857,529.705c-1.416,0.004-2.795,0.006-4.209,0.006
	c-74.894-0.002-148.304-6.373-214.099-15.205c-8.771-22.332-4.599-137.26-4.291-145.409c81.869-10.503,160.024-15.56,205.838-15.884
	c3.493-0.023,6.933-0.037,10.405-0.037c5.191,0,10.358,0.031,15.504,0.086c1.672,145.877-3.07,171.875-4.568,176.42
	C721.909,529.687,720.395,529.699,718.857,529.705z M1013.924,507.115c-25.789,4.631-52.529,8.514-80.613,11.684
	c8.537-27.586,13.338-139.797,13.668-147.694c54.297,8.14,101.638,17.951,139.479,26.997c12.704,3.037,24.738,6.078,36.056,9.068
	c0.706,67.131,0.516,73.867,0.49,74.412C1087.303,492.029,1051.593,500.349,1013.924,507.115z M1134,478.292v-68.041
	c55.562,15.143,91.621,28.379,100.854,31.877C1200.055,456.349,1166.947,468.25,1134,478.292z"/>
<path id="whiskerRT" fill="#1F2D43" d="M1418.5,246.625c0,0-82,25.125-197.25,63.25c-4.035,1.336-4.083-5.082-1.75-6.082
	c92.621-39.701,111.042-46.222,198.75-70.167L1418.5,246.625z"/>
<path id="whiskerRB" fill="#1F2D43" d="M1290.5,364.625c0,0,68.5-17.75,127.875-15.998l0.438,11.203
	c0,0-55.312,1.938-128.312,11.607C1284.169,372.277,1290.5,364.625,1290.5,364.625z"/>
<path id="whiskerLT" fill="#1F2D43" d="M1,229.125c0,0,123,37.5,177,74.75c0,0,2.167,4.25-1.917,4S81,264.125,1,241.625V229.125z"/>
<path id="whiskerLB" fill="#1F2D43" d="M0,350.556c0,0,40.375-4.432,113.875,13.568c0,0,3.562,4,0.062,6.5
	c0,0-3.844-0.25-21.094-1.75S9,361.875,0,362.625V350.556z"/>
</svg>
