<?xml version="1.0" encoding="utf-8"?>
<!-- Generator: Adobe Illustrator 23.0.1, SVG Export Plug-In . SVG Version: 6.00 Build 0)  -->
<svg version="1.1" xmlns="http://www.w3.org/2000/svg" xmlns:xlink="http://www.w3.org/1999/xlink" x="0px" y="0px"
	 viewBox="0 0 100 88.7" style="enable-background:new 0 0 100 88.7;" xml:space="preserve">
<style type="text/css">
	.st0{fill:#FFFFFF;}
</style>
<g id="Layer_1">
	<path class="st0" d="M83.2,51.9H29L9.6,31.4L6.9,33l18.8,18.8h-3.3L4.9,39.2l-2.4,2.1L18,51.9h-1.2c-1.8,0-3.2,1.6-3,3.4
		c1.7,11.9,12,21.7,25.7,25.1c-0.5,0.5-0.8,1.2-0.8,1.9c0,1.5,1.2,2.7,2.7,2.7h17.1c1.5,0,2.7-1.2,2.7-2.7c0-0.8-0.3-1.4-0.8-1.9
		c13.7-3.4,24-13.1,25.7-25.1C86.4,53.5,85,51.9,83.2,51.9z"/>
</g>
<g id="Layer_2">
	<path class="st0" d="M68.7,30.8h-9.5c-0.4,0-0.8-0.4-0.8-0.8c0-0.5,0.3-0.8,0.8-0.8l0,0l-5.6-4.4l-6.1,4.4c1,0.4,1.7,1.5,1.6,2.7
		c-0.1,1.1-1.3,2-2.6,2h-9.7c-1.8,0-3.4,1.3-3.6,3c0,0.1,0,0.2,0,0.3c0,3,2.7,4.2,5.4,4.2h30.1c2.7,0,4.9-2.4,4.9-5.3
		C73.5,33.2,71.3,30.8,68.7,30.8z"/>
</g>
<g id="Layer_3_1_">
	<path class="st0" d="M71.5,15.1H36.1c-2.4,0-4.3-1.7-4.3-3.9l0,0c0-2.1,1.9-3.9,4.3-3.9h35.3c2.4,0,4.3,1.7,4.3,3.9l0,0
		C75.7,13.4,73.8,15.1,71.5,15.1z"/>
</g>
<g id="Layer_4_1_">
	<path class="st0" d="M54.9,22.8c-2,0-3.8-1.4-4-3.4c-0.3-2.1,1.1-3.9,3.1-4.3c0.1-0.1,0.3-0.2,0.5-0.2l0,0H42.4
		c0.4,0,0.8,0.3,0.8,0.8c0,0.3-0.2,0.6-0.4,0.7H28.5c-3.4,0-6.1,2.7-6.1,6.1v0.7c0,3.4,2.7,6.1,6.1,6.1h40.4H69
		c4.1-0.1,4-6.3-0.1-6.3L54.9,22.8z"/>
</g>
<g id="Layer_5_1_">
	<path class="st0" d="M45.6,42.7h-2c-2.4,0-4.3,1.7-4.3,3.9s1.9,3.9,4.3,3.9h2.9c1.1,0,2.2,0.3,3.1,1c0.5,0.4,0.8,0.8,1.2,1.5
		l1.4,1.1l2-1.5c0.2-0.6,0.6-1,1.1-1.4c0.8-0.5,1.8-0.8,2.9-0.8H61l0,0c2.3,0,4.2-1.8,4.2-3.9s-1.9-3.8-4.2-3.8l0,0h-1.9l-1.3-0.1
		l0,0c-0.4,0-0.7-0.2-0.7-0.6s0.3-0.7,0.7-0.7l0,0l-6.5-4.7l-5.2,4.7c0.4,0,0.7,0.3,0.7,0.7C46.8,42.8,45.9,42.7,45.6,42.7z"/>
</g>
</svg>
