<?xml version="1.0" encoding="utf-8"?>
<!-- Generator: Adobe Illustrator 16.0.0, SVG Export Plug-In . SVG Version: 6.00 Build 0)  -->
<!DOCTYPE svg PUBLIC "-//W3C//DTD SVG 1.1//EN" "http://www.w3.org/Graphics/SVG/1.1/DTD/svg11.dtd">
<svg version="1.1" id="Layer_1" xmlns="http://www.w3.org/2000/svg" xmlns:xlink="http://www.w3.org/1999/xlink" x="0px" y="0px"
	 width="334.861px" height="102.88px" viewBox="0 0 334.861 102.88" enable-background="new 0 0 334.861 102.88"
	 xml:space="preserve">
<polyline id="border_2_" fill="none" stroke="#FFEBB3" stroke-width="4" stroke-miterlimit="10" points="283.866,100.88 2,100.88 
	2,2 332.861,2 332.861,100.88 302.866,100.88 "/>
<g id="dinner">
	<g>
		<path fill="#FFEBB3" d="M93.268,74.541v-2.673c0-1.067-0.865-1.933-1.933-1.933s-1.933,0.865-1.933,1.933v2.673
			c0,1.066-0.867,1.934-1.933,1.934c-1.066,0-1.933-0.867-1.933-1.934V29.444c0-1.065,0.866-1.933,1.933-1.933
			c1.065,0,1.933,0.867,1.933,1.933v33.082c0,1.068,0.865,1.933,1.933,1.933s1.933-0.864,1.933-1.933V29.444
			c0-3.197-2.601-5.798-5.798-5.798s-5.799,2.601-5.799,5.798v45.097c0,3.198,2.602,5.799,5.799,5.799S93.268,77.739,93.268,74.541z
			"/>
	</g>
	<g>
		<g>
			<path fill="#FFEBB3" d="M31.415,47.722c-1.068,0-1.933,0.865-1.933,1.933v21.021c0,1.068,0.864,1.933,1.933,1.933h12.254
				c12.511,0,16.949-11.105,16.949-20.615c0-9.511-4.438-20.616-16.949-20.616H31.415c-1.068,0-1.933,0.865-1.933,1.933v7.003
				c0,1.068,0.864,1.933,1.933,1.933c1.067,0,1.933-0.864,1.933-1.933v-5.07h10.321c4.409,0,7.792,1.715,10.055,5.097
				c1.953,2.92,3.029,7.058,3.029,11.654c0,4.596-1.076,8.734-3.029,11.653c-2.263,3.383-5.646,5.097-10.055,5.097H33.348V49.654
				C33.348,48.587,32.482,47.722,31.415,47.722z"/>
			<path fill="#FFEBB3" d="M43.669,23.646H27.55c-3.197,0-5.799,2.601-5.799,5.798v45.097c0,3.198,2.602,5.799,5.799,5.799h2.062
				c1.067,0,1.933-0.865,1.933-1.933c0-1.068-0.865-1.933-1.933-1.933H27.55c-1.066,0-1.934-0.867-1.934-1.934V29.444
				c0-1.065,0.867-1.933,1.934-1.933h16.119c12.45,0,20.815,9.838,20.815,24.481c0,14.643-8.365,24.481-20.815,24.481h-4.717
				c-1.066,0-1.932,0.864-1.932,1.933c0,1.067,0.865,1.933,1.932,1.933h4.717c14.762,0,24.681-11.393,24.681-28.347
				C68.35,35.038,58.431,23.646,43.669,23.646z"/>
		</g>
	</g>
	<g>
		<path fill="#FFEBB3" d="M233.488,80.34h22.548c3.197,0,5.799-2.601,5.799-5.799c0-3.197-2.602-5.798-5.799-5.798h-16.75V57.791
			h16.75c3.197,0,5.799-2.601,5.799-5.798s-2.602-5.799-5.799-5.799h-16.75V35.242h16.75c3.197,0,5.799-2.601,5.799-5.798
			s-2.602-5.798-5.799-5.798h-3.253c-1.067,0-1.933,0.864-1.933,1.933c0,1.067,0.865,1.933,1.933,1.933h3.253
			c1.066,0,1.933,0.867,1.933,1.933s-0.866,1.933-1.933,1.933h-18.683c-1.067,0-1.933,0.865-1.933,1.933v14.817
			c0,1.068,0.865,1.934,1.933,1.934h18.683c1.066,0,1.933,0.866,1.933,1.933c0,1.065-0.866,1.933-1.933,1.933h-18.683
			c-1.067,0-1.933,0.865-1.933,1.933v14.817c0,1.068,0.865,1.933,1.933,1.933h18.683c1.066,0,1.933,0.867,1.933,1.933
			c0,1.066-0.866,1.934-1.933,1.934h-22.548c-1.066,0-1.934-0.867-1.934-1.934V29.444c0-1.065,0.867-1.933,1.934-1.933h9.953
			c1.067,0,1.933-0.865,1.933-1.933c0-1.068-0.865-1.933-1.933-1.933h-9.953c-3.198,0-5.799,2.601-5.799,5.798v45.097
			C227.689,77.739,230.29,80.34,233.488,80.34z"/>
	</g>
	<g>
		<path fill="#FFEBB3" d="M208.276,23.647c-3.197,0-5.799,2.601-5.799,5.798v27.492L179.603,25.98
			c-0.039-0.053-0.082-0.103-0.125-0.15c-0.051-0.063-0.104-0.131-0.158-0.191c-0.026-0.031-0.071-0.079-0.102-0.109l-0.046-0.048
			c-0.065-0.074-0.137-0.146-0.209-0.214c-0.075-0.078-0.155-0.15-0.235-0.221c-0.029-0.025-0.06-0.05-0.09-0.073
			c-0.047-0.039-0.095-0.077-0.145-0.114l-0.137-0.105c-0.074-0.059-0.123-0.092-0.205-0.138c-0.063-0.046-0.139-0.094-0.207-0.132
			c-0.038-0.023-0.076-0.046-0.113-0.067c-0.086-0.051-0.17-0.096-0.261-0.14c-0.056-0.03-0.114-0.061-0.179-0.091
			c-0.047-0.023-0.095-0.045-0.143-0.064l-0.231-0.093c-0.079-0.029-0.159-0.058-0.239-0.082c-0.072-0.025-0.149-0.049-0.236-0.075
			c-0.05-0.015-0.1-0.028-0.15-0.039l-0.076-0.019c-0.125-0.034-0.255-0.061-0.387-0.079c-0.092-0.018-0.184-0.033-0.303-0.047
			l-0.186-0.02c-0.109-0.01-0.22-0.015-0.328-0.015c-0.133-0.011-0.229-0.011-0.361,0c-0.102,0.002-0.209,0.008-0.332,0.021
			l-0.116,0.014c-0.106,0.011-0.215,0.027-0.323,0.046c-0.094,0.014-0.177,0.03-0.24,0.046c-0.062,0.013-0.127,0.027-0.192,0.044
			c-0.083,0.017-0.16,0.036-0.241,0.063c-0.051,0.015-0.103,0.029-0.123,0.036c-0.082,0.024-0.16,0.053-0.235,0.083
			c-0.058,0.019-0.167,0.063-0.222,0.088l-0.066,0.028c-0.1,0.039-0.199,0.085-0.307,0.143c-0.103,0.049-0.198,0.1-0.288,0.155
			c-0.045,0.025-0.085,0.05-0.12,0.072c-0.016,0.009-0.047,0.027-0.062,0.037c-0.096,0.058-0.189,0.118-0.279,0.184
			c-0.039,0.024-0.076,0.051-0.112,0.078c-0.038,0.029-0.077,0.061-0.118,0.095c-0.072,0.056-0.149,0.118-0.22,0.18
			c-0.034,0.029-0.093,0.083-0.126,0.116l-0.046,0.044c-0.07,0.063-0.14,0.131-0.206,0.202c-0.09,0.086-0.175,0.181-0.256,0.284
			l-0.093,0.109c-0.015,0.019-0.031,0.037-0.046,0.056c-0.074,0.098-0.137,0.183-0.202,0.279h0.001l-0.066,0.097
			c-0.041,0.058-0.087,0.131-0.121,0.192c-0.026,0.042-0.051,0.084-0.075,0.126c-0.046,0.076-0.087,0.158-0.132,0.248
			c-0.051,0.094-0.092,0.182-0.128,0.268c-0.041,0.087-0.079,0.18-0.124,0.294c-0.029,0.078-0.058,0.156-0.081,0.234
			c-0.036,0.101-0.067,0.209-0.098,0.325l-0.032,0.131c-0.039,0.138-0.068,0.282-0.087,0.431c-0.001,0.008-0.002,0.016-0.003,0.022
			c-0.018,0.08-0.031,0.16-0.039,0.242l-0.019,0.187c-0.007,0.062-0.011,0.146-0.011,0.209c-0.002,0.033-0.003,0.066-0.004,0.099
			c-0.004,0.062-0.008,0.136-0.008,0.184v45.098c0,3.197,2.601,5.798,5.798,5.798s5.798-2.601,5.798-5.798V47.052l22.862,30.939
			c0.035,0.046,0.073,0.094,0.113,0.138c0.078,0.101,0.162,0.199,0.252,0.294c0.055,0.063,0.109,0.125,0.165,0.18
			c0.094,0.094,0.188,0.183,0.288,0.27l0.027,0.026c0.047,0.048,0.097,0.093,0.148,0.135c0.114,0.093,0.29,0.229,0.509,0.365
			c0.047,0.03,0.097,0.061,0.148,0.091c0.112,0.072,0.226,0.137,0.338,0.194c0.094,0.052,0.188,0.096,0.293,0.138
			c0.1,0.045,0.195,0.088,0.262,0.113c0.05,0.021,0.099,0.039,0.105,0.039l0,0c0.043,0.019,0.085,0.035,0.128,0.051
			c0.139,0.049,0.284,0.09,0.433,0.13c0.037,0.009,0.074,0.019,0.113,0.026c0.015,0.003,0.034,0.007,0.054,0.012
			c0.169,0.041,0.345,0.072,0.463,0.087c0.093,0.016,0.178,0.025,0.26,0.031c0.183,0.017,0.368,0.03,0.587,0.03
			c0.242,0,0.476-0.022,0.71-0.049c0.017-0.002,0.048-0.006,0.064-0.008l0.2-0.03c0.266-0.048,0.51-0.106,0.771-0.187
			c0.044-0.015,0.096-0.034,0.146-0.055c0.214-0.073,0.419-0.158,0.611-0.255c0.036-0.016,0.071-0.033,0.108-0.051
			c0.032-0.016,0.063-0.032,0.095-0.05c0.215-0.119,0.428-0.249,0.626-0.387c0.036-0.023,0.071-0.048,0.106-0.075
			c0.038-0.028,0.077-0.06,0.117-0.095c0.037-0.028,0.08-0.063,0.146-0.117c0.062-0.048,0.138-0.116,0.193-0.171l0.048-0.047
			c0.087-0.078,0.173-0.162,0.251-0.249c0.055-0.058,0.114-0.124,0.191-0.212l0.055-0.066c0.064-0.069,0.122-0.141,0.177-0.222
			c0.044-0.058,0.087-0.116,0.103-0.141l0.097-0.142c0.041-0.058,0.087-0.131,0.121-0.192c0.033-0.055,0.065-0.108,0.096-0.162
			c0.013-0.023,0.047-0.089,0.06-0.113l0.062-0.12c0.013-0.025,0.024-0.052,0.037-0.078l0.041-0.083
			c0.068-0.138,0.127-0.279,0.175-0.424l0.024-0.067c0.052-0.13,0.096-0.272,0.149-0.469l0.033-0.133
			c0.009-0.037,0.018-0.074,0.025-0.111l0.035-0.193c0.019-0.09,0.032-0.18,0.044-0.271c0.021-0.122,0.033-0.243,0.037-0.365
			c0.007-0.078,0.012-0.156,0.014-0.23c0.005-0.06,0.008-0.133,0.008-0.179V49.508c0-1.067-0.865-1.933-1.933-1.933
			s-1.933,0.865-1.933,1.933v24.964c-0.003,0.043-0.005,0.085-0.005,0.126l-0.007,0.076c-0.002,0.023-0.004,0.048-0.005,0.071
			c-0.005,0.031-0.009,0.063-0.013,0.092c-0.002,0.011-0.004,0.021-0.006,0.033l-0.104,0.375c-0.007,0.019-0.014,0.037-0.021,0.057
			c-0.03,0.061-0.059,0.118-0.076,0.157l-0.031,0.06h-0.001c-0.014,0.022-0.027,0.045-0.04,0.067l-0.058,0.083
			c-0.012,0.016-0.024,0.031-0.035,0.047c-0.029,0.033-0.06,0.07-0.093,0.111c-0.025,0.024-0.049,0.05-0.073,0.075
			c-0.029,0.027-0.06,0.056-0.083,0.079l-0.053,0.049c-0.023,0.018-0.061,0.047-0.097,0.076c-0.073,0.05-0.15,0.097-0.229,0.142
			c-0.034,0.015-0.067,0.031-0.101,0.048c-0.041,0.022-0.101,0.046-0.166,0.066c-0.033,0.011-0.069,0.024-0.106,0.039
			c-0.067,0.018-0.133,0.032-0.188,0.041l-0.048,0.009c-0.141,0.016-0.328,0.028-0.533,0.008c-0.003-0.001-0.006-0.001-0.008-0.001
			c-0.015-0.002-0.028-0.004-0.038-0.005c-0.03-0.004-0.062-0.009-0.093-0.016c-0.023-0.007-0.047-0.012-0.07-0.017
			c-0.019-0.005-0.039-0.01-0.062-0.015c-0.023-0.006-0.046-0.012-0.067-0.019c-0.032-0.013-0.063-0.024-0.099-0.037
			c-0.051-0.02-0.1-0.043-0.149-0.065c-0.019-0.01-0.038-0.018-0.058-0.026c-0.019-0.009-0.035-0.019-0.05-0.025
			c-0.038-0.025-0.096-0.06-0.136-0.081c-0.02-0.015-0.04-0.027-0.061-0.039c-0.014-0.009-0.027-0.018-0.04-0.027
			c-0.036-0.036-0.074-0.07-0.113-0.104c-0.032-0.028-0.064-0.057-0.095-0.085c-0.041-0.051-0.097-0.116-0.143-0.163
			c-0.04-0.053-0.073-0.094-0.105-0.131l-26.283-35.569c-0.497-0.671-1.369-0.948-2.159-0.687c-0.793,0.261-1.328,1.002-1.328,1.836
			v33.359c0,1.065-0.867,1.933-1.933,1.933s-1.933-0.867-1.933-1.933V29.516c0.004-0.062,0.008-0.132,0.008-0.178
			c0.001-0.024,0.002-0.051,0.004-0.076l0.002-0.036c0.002-0.007,0.002-0.013,0.004-0.018c0.012-0.059,0.023-0.116,0.031-0.175
			l0.02-0.104c0.023-0.059,0.045-0.118,0.062-0.178l0.011-0.027c0.017-0.033,0.032-0.067,0.047-0.103
			c0.01-0.018,0.019-0.034,0.027-0.052l0.027-0.056c0.01-0.017,0.019-0.032,0.026-0.045c0.015-0.025,0.03-0.051,0.045-0.075
			l0.025-0.037c0.013-0.019,0.026-0.037,0.038-0.056l0.09-0.109c0.01-0.011,0.02-0.022,0.029-0.033
			c0.023-0.024,0.048-0.05,0.071-0.075c0.028-0.025,0.06-0.056,0.081-0.076l0.033-0.033c0.02-0.014,0.046-0.035,0.046-0.035
			c0.024-0.018,0.05-0.038,0.075-0.059c0.017-0.012,0.033-0.023,0.049-0.035l0.094-0.057c0.026-0.015,0.054-0.029,0.079-0.046
			c0.032-0.015,0.066-0.032,0.098-0.049c0.032-0.014,0.065-0.027,0.085-0.036l0.121-0.048c0.024-0.007,0.049-0.014,0.073-0.021
			c0.021-0.005,0.044-0.011,0.065-0.016c0.009-0.002,0.051-0.012,0.078-0.019c0.06-0.008,0.133-0.019,0.164-0.025l0.153-0.012
			c0.038,0,0.075-0.001,0.112-0.003c0.027,0.001,0.053,0.001,0.072,0.001l0.124,0.013c0.019,0.004,0.042,0.009,0.042,0.009
			c0.042,0.009,0.083,0.016,0.125,0.021c0.046,0.011,0.091,0.022,0.139,0.033c0.049,0.019,0.1,0.036,0.15,0.051l0.094,0.037
			c0.044,0.024,0.092,0.049,0.135,0.069c0.02,0.012,0.037,0.022,0.053,0.031c0.023,0.014,0.046,0.027,0.068,0.041
			c0.027,0.018,0.053,0.034,0.079,0.051l0.069,0.054c0.006,0.004,0.01,0.008,0.016,0.013c0.018,0.015,0.035,0.029,0.054,0.044
			c0.032,0.033,0.064,0.065,0.099,0.096c0.027,0.03,0.055,0.061,0.078,0.083l0.067,0.078c0.035,0.047,0.073,0.092,0.111,0.136
			l26.29,35.577c0.496,0.672,1.367,0.947,2.159,0.688c0.792-0.262,1.328-1.002,1.328-1.836V29.445c0-1.065,0.867-1.933,1.933-1.933
			s1.933,0.867,1.933,1.933v10.721c0,1.067,0.865,1.933,1.933,1.933s1.933-0.865,1.933-1.933V29.445
			C214.074,26.248,211.474,23.647,208.276,23.647z M174.085,27.717L174.085,27.717C174.085,27.716,174.085,27.717,174.085,27.717
			c-0.013,0.005-0.025,0.009-0.037,0.014C174.058,27.727,174.071,27.722,174.085,27.717c0.01-0.005,0.021-0.009,0.03-0.013
			C174.104,27.708,174.095,27.713,174.085,27.717z"/>
	</g>
	<g>
		<path fill="#FFEBB3" d="M147.677,23.647c-3.197,0-5.799,2.601-5.799,5.798v27.492L119.002,25.98
			c-0.038-0.053-0.08-0.103-0.124-0.15c-0.05-0.063-0.104-0.131-0.157-0.191c-0.027-0.031-0.072-0.079-0.102-0.109l-0.047-0.048
			c-0.065-0.074-0.137-0.146-0.209-0.214c-0.075-0.078-0.154-0.15-0.236-0.221c-0.028-0.025-0.059-0.05-0.09-0.073
			c-0.046-0.039-0.094-0.077-0.143-0.114l-0.138-0.105c-0.074-0.059-0.122-0.092-0.205-0.138c-0.063-0.046-0.14-0.094-0.208-0.132
			c-0.037-0.023-0.075-0.046-0.113-0.067c-0.084-0.051-0.17-0.096-0.26-0.14c-0.056-0.03-0.115-0.061-0.178-0.091
			c-0.048-0.023-0.096-0.045-0.145-0.064l-0.23-0.093c-0.079-0.029-0.159-0.058-0.238-0.082c-0.073-0.025-0.15-0.049-0.237-0.075
			c-0.05-0.015-0.101-0.028-0.151-0.039l-0.076-0.019c-0.125-0.034-0.254-0.061-0.386-0.079c-0.091-0.018-0.183-0.033-0.303-0.047
			l-0.187-0.02c-0.109-0.01-0.219-0.015-0.327-0.015c-0.132-0.011-0.228-0.011-0.361,0c-0.102,0.002-0.208,0.008-0.332,0.021
			l-0.116,0.014c-0.107,0.011-0.215,0.027-0.322,0.046c-0.094,0.014-0.178,0.03-0.24,0.046c-0.064,0.013-0.128,0.027-0.193,0.044
			c-0.083,0.017-0.16,0.036-0.24,0.063c-0.052,0.015-0.104,0.029-0.124,0.036c-0.083,0.024-0.16,0.053-0.235,0.083
			c-0.058,0.019-0.167,0.063-0.223,0.088l-0.065,0.028c-0.099,0.039-0.2,0.085-0.307,0.143c-0.103,0.049-0.198,0.1-0.288,0.155
			c-0.045,0.025-0.086,0.05-0.12,0.072c-0.016,0.009-0.048,0.027-0.062,0.037c-0.096,0.058-0.19,0.118-0.28,0.184
			c-0.038,0.024-0.075,0.051-0.111,0.078c-0.039,0.029-0.077,0.061-0.117,0.095c-0.074,0.056-0.15,0.118-0.221,0.18
			c-0.035,0.029-0.093,0.083-0.125,0.116l-0.047,0.044c-0.07,0.063-0.141,0.131-0.207,0.202c-0.089,0.086-0.174,0.181-0.255,0.284
			l-0.093,0.109c-0.016,0.019-0.031,0.037-0.045,0.056c-0.076,0.098-0.139,0.183-0.203,0.279l0,0l-0.065,0.097
			c-0.041,0.058-0.087,0.131-0.122,0.192c-0.025,0.042-0.051,0.084-0.074,0.126c-0.045,0.076-0.088,0.158-0.133,0.248
			c-0.049,0.094-0.092,0.182-0.127,0.268c-0.041,0.087-0.078,0.18-0.124,0.294c-0.03,0.078-0.058,0.156-0.081,0.234
			c-0.035,0.101-0.066,0.209-0.098,0.325l-0.033,0.131c-0.039,0.138-0.066,0.282-0.086,0.431c-0.001,0.008-0.002,0.016-0.003,0.022
			c-0.019,0.08-0.031,0.16-0.039,0.242l-0.019,0.187c-0.006,0.062-0.011,0.146-0.011,0.209c-0.001,0.033-0.003,0.066-0.004,0.099
			c-0.005,0.062-0.009,0.136-0.009,0.184v45.098c0,3.197,2.602,5.798,5.799,5.798s5.798-2.601,5.798-5.798V47.052l22.862,30.939
			c0.035,0.046,0.073,0.094,0.113,0.138c0.078,0.101,0.162,0.199,0.252,0.294c0.055,0.063,0.109,0.125,0.165,0.18
			c0.094,0.094,0.188,0.183,0.288,0.27l0.027,0.026c0.047,0.048,0.097,0.093,0.148,0.135c0.114,0.093,0.29,0.229,0.509,0.365
			c0.047,0.03,0.097,0.061,0.148,0.091c0.112,0.072,0.226,0.137,0.338,0.194c0.094,0.052,0.188,0.096,0.293,0.138
			c0.1,0.045,0.195,0.088,0.262,0.113c0.05,0.021,0.099,0.039,0.105,0.039l0,0c0.043,0.019,0.085,0.035,0.128,0.051
			c0.139,0.049,0.284,0.09,0.433,0.13c0.037,0.009,0.074,0.019,0.113,0.026c0.015,0.003,0.034,0.007,0.054,0.012
			c0.169,0.041,0.345,0.072,0.463,0.087c0.093,0.016,0.178,0.025,0.26,0.031c0.183,0.017,0.368,0.03,0.587,0.03
			c0.242,0,0.476-0.022,0.71-0.049c0.017-0.002,0.048-0.006,0.064-0.008l0.2-0.03c0.266-0.048,0.51-0.106,0.771-0.187
			c0.044-0.015,0.096-0.034,0.146-0.055c0.214-0.073,0.419-0.158,0.611-0.255c0.036-0.016,0.071-0.033,0.108-0.051
			c0.032-0.016,0.063-0.032,0.095-0.05c0.215-0.119,0.428-0.249,0.626-0.387c0.036-0.023,0.071-0.048,0.106-0.075
			c0.038-0.028,0.077-0.06,0.117-0.095c0.037-0.028,0.08-0.063,0.146-0.117c0.062-0.048,0.138-0.116,0.193-0.171l0.048-0.047
			c0.087-0.078,0.173-0.162,0.251-0.249c0.055-0.058,0.114-0.124,0.191-0.212l0.055-0.066c0.064-0.069,0.122-0.141,0.177-0.222
			c0.044-0.058,0.087-0.116,0.103-0.141l0.097-0.142c0.041-0.058,0.087-0.131,0.121-0.192c0.033-0.055,0.065-0.108,0.096-0.162
			c0.013-0.023,0.047-0.089,0.06-0.113l0.062-0.12c0.013-0.025,0.024-0.052,0.037-0.078l0.041-0.083
			c0.068-0.138,0.127-0.279,0.175-0.424l0.024-0.067c0.052-0.13,0.096-0.272,0.149-0.469l0.033-0.133
			c0.009-0.037,0.018-0.074,0.025-0.111l0.035-0.193c0.019-0.09,0.032-0.18,0.044-0.271c0.021-0.122,0.033-0.243,0.037-0.365
			c0.007-0.078,0.012-0.156,0.014-0.23c0.005-0.06,0.008-0.133,0.008-0.179V49.508c0-1.067-0.865-1.933-1.933-1.933
			s-1.933,0.865-1.933,1.933v24.964c-0.003,0.043-0.005,0.085-0.005,0.126l-0.007,0.076c-0.002,0.023-0.004,0.048-0.005,0.071
			c-0.005,0.031-0.009,0.063-0.013,0.092c-0.002,0.011-0.004,0.021-0.006,0.033l-0.104,0.375c-0.007,0.019-0.014,0.037-0.021,0.057
			c-0.03,0.061-0.059,0.118-0.076,0.157l-0.031,0.06h-0.001c-0.014,0.022-0.027,0.045-0.04,0.067l-0.058,0.083
			c-0.012,0.016-0.024,0.031-0.035,0.047c-0.029,0.033-0.06,0.07-0.093,0.111c-0.025,0.024-0.049,0.05-0.073,0.075
			c-0.029,0.027-0.06,0.056-0.083,0.079l-0.053,0.049c-0.023,0.018-0.061,0.047-0.097,0.076c-0.073,0.05-0.15,0.097-0.229,0.142
			c-0.034,0.015-0.067,0.031-0.101,0.048c-0.041,0.022-0.101,0.046-0.166,0.066c-0.033,0.011-0.069,0.024-0.106,0.039
			c-0.067,0.018-0.133,0.032-0.188,0.041l-0.048,0.009c-0.141,0.016-0.328,0.028-0.533,0.008c-0.003-0.001-0.006-0.001-0.008-0.001
			c-0.015-0.002-0.028-0.004-0.038-0.005c-0.03-0.004-0.062-0.009-0.093-0.016c-0.023-0.007-0.047-0.012-0.07-0.017
			c-0.019-0.005-0.039-0.01-0.062-0.015c-0.023-0.006-0.046-0.012-0.067-0.019c-0.032-0.013-0.063-0.024-0.099-0.037
			c-0.051-0.02-0.1-0.043-0.149-0.065c-0.019-0.01-0.038-0.018-0.058-0.026c-0.019-0.009-0.035-0.019-0.05-0.025
			c-0.038-0.025-0.096-0.06-0.136-0.081c-0.02-0.015-0.04-0.027-0.061-0.039c-0.014-0.009-0.027-0.018-0.04-0.027
			c-0.036-0.036-0.074-0.07-0.113-0.104c-0.032-0.028-0.064-0.057-0.095-0.085c-0.041-0.051-0.097-0.116-0.143-0.163
			c-0.04-0.053-0.073-0.094-0.105-0.131L119.77,40.034c-0.497-0.671-1.369-0.948-2.159-0.687c-0.792,0.261-1.328,1.002-1.328,1.836
			v33.359c0,1.065-0.867,1.933-1.933,1.933c-1.066,0-1.933-0.867-1.933-1.933V29.516c0.004-0.062,0.008-0.132,0.008-0.178
			c0.001-0.024,0.002-0.051,0.003-0.076l0.004-0.036c0.001-0.007,0.002-0.013,0.003-0.018c0.013-0.059,0.022-0.116,0.03-0.175
			l0.021-0.104c0.023-0.059,0.043-0.118,0.061-0.178l0.011-0.027c0.017-0.033,0.032-0.067,0.048-0.103
			c0.008-0.018,0.018-0.034,0.026-0.052l0.027-0.056c0.009-0.017,0.019-0.032,0.026-0.045c0.015-0.025,0.029-0.051,0.045-0.075
			l0.025-0.037c0.014-0.019,0.025-0.037,0.039-0.056l0.09-0.109c0.009-0.011,0.018-0.022,0.027-0.033
			c0.025-0.024,0.049-0.05,0.072-0.075c0.029-0.025,0.061-0.056,0.08-0.076l0.035-0.033c0.018-0.014,0.045-0.035,0.045-0.035
			c0.025-0.018,0.05-0.038,0.076-0.059c0.016-0.012,0.031-0.023,0.048-0.035l0.094-0.057c0.026-0.015,0.054-0.029,0.079-0.046
			c0.032-0.015,0.066-0.032,0.098-0.049c0.033-0.014,0.064-0.027,0.084-0.036l0.123-0.048c0.023-0.007,0.048-0.014,0.072-0.021
			c0.021-0.005,0.043-0.011,0.065-0.016c0.009-0.002,0.05-0.012,0.078-0.019c0.06-0.008,0.133-0.019,0.164-0.025l0.153-0.012
			c0.037,0,0.075-0.001,0.113-0.003c0.027,0.001,0.052,0.001,0.071,0.001l0.124,0.013c0.018,0.004,0.042,0.009,0.042,0.009
			c0.042,0.009,0.083,0.016,0.126,0.021c0.045,0.011,0.09,0.022,0.137,0.033c0.051,0.019,0.101,0.036,0.151,0.051l0.093,0.037
			c0.045,0.024,0.093,0.049,0.137,0.069c0.018,0.012,0.037,0.022,0.052,0.031c0.022,0.014,0.046,0.027,0.069,0.041
			c0.025,0.018,0.052,0.034,0.078,0.051l0.07,0.054c0.004,0.004,0.01,0.008,0.016,0.013c0.018,0.015,0.035,0.029,0.053,0.044
			c0.031,0.033,0.064,0.065,0.098,0.096c0.027,0.03,0.057,0.061,0.079,0.083l0.067,0.078c0.035,0.047,0.072,0.092,0.111,0.136
			l26.29,35.577c0.496,0.672,1.367,0.947,2.159,0.688c0.792-0.262,1.328-1.002,1.328-1.836V29.445c0-1.065,0.867-1.933,1.933-1.933
			s1.933,0.867,1.933,1.933v10.721c0,1.067,0.865,1.933,1.933,1.933s1.933-0.865,1.933-1.933V29.445
			C153.475,26.248,150.874,23.647,147.677,23.647z M113.484,27.717l0.002-0.001C113.484,27.716,113.484,27.717,113.484,27.717
			c-0.012,0.005-0.024,0.009-0.037,0.014c0.011-0.004,0.023-0.009,0.039-0.015c0.01-0.004,0.02-0.008,0.029-0.012
			C113.506,27.708,113.495,27.713,113.484,27.717z"/>
	</g>
	<g>
		<g>
			<path fill="#FFEBB3" d="M292.979,47.574h-0.367c-1.068,0-1.933,0.865-1.933,1.933c0,1.068,0.864,1.934,1.933,1.934h0.367
				c5.531,0,10.031-4.5,10.031-10.031c0-5.532-4.5-10.031-10.031-10.031h-8.826c-1.067,0-1.933,0.865-1.933,1.933v16.196
				c0,1.068,0.865,1.934,1.933,1.934h2.841c1.067,0,1.933-0.865,1.933-1.934c0-1.067-0.865-1.933-1.933-1.933h-0.908V35.243h6.894
				c3.4,0,6.166,2.766,6.166,6.166C299.146,44.809,296.38,47.574,292.979,47.574z"/>
			<path fill="#FFEBB3" d="M310.741,41.409c0-9.794-7.968-17.763-17.762-17.763h-12.691c-3.197,0-5.799,2.602-5.799,5.799v16.802
				c0,1.067,0.865,1.933,1.933,1.933c1.068,0,1.933-0.865,1.933-1.933V29.445c0-1.066,0.867-1.933,1.934-1.933h12.691
				c7.662,0,13.896,6.233,13.896,13.896c0,7.337-5.736,13.429-13.059,13.866c-0.721,0.044-1.357,0.485-1.65,1.145
				c-0.293,0.66-0.194,1.428,0.256,1.992l11.926,14.921c0.665,0.832,0.528,2.054-0.298,2.717c-0.816,0.647-2.076,0.508-2.726-0.304
				l-15.662-19.604c-0.512-0.642-1.373-0.892-2.149-0.618c-0.774,0.271-1.293,1.003-1.293,1.824v17.194
				c0,1.066-0.867,1.933-1.933,1.933c-1.066,0-1.934-0.866-1.934-1.933V55.589c0-1.068-0.864-1.933-1.933-1.933
				c-1.067,0-1.933,0.864-1.933,1.933v18.953c0,3.197,2.602,5.799,5.799,5.799s5.798-2.602,5.798-5.799V62.863l12.219,15.294
				c1.107,1.388,2.759,2.184,4.531,2.184c1.325,0,2.576-0.437,3.626-1.27c2.493-2.001,2.9-5.658,0.906-8.151l-9.86-12.337
				C305.154,56.57,310.741,49.597,310.741,41.409z"/>
		</g>
	</g>
</g>
</svg>
