<?xml version="1.0" encoding="utf-8"?>
<!-- Generator: Adobe Illustrator 16.0.0, SVG Export Plug-In . SVG Version: 6.00 Build 0)  -->
<!DOCTYPE svg PUBLIC "-//W3C//DTD SVG 1.1//EN" "http://www.w3.org/Graphics/SVG/1.1/DTD/svg11.dtd">
<svg version="1.1" id="Layer_1" xmlns="http://www.w3.org/2000/svg" xmlns:xlink="http://www.w3.org/1999/xlink" x="0px" y="0px"
	 width="299.861px" height="102.88px" viewBox="0 0 299.861 102.88" enable-background="new 0 0 299.861 102.88"
	 xml:space="preserve">
<polyline id="border_1_" fill="none" stroke="#FFEBB3" stroke-width="4" stroke-miterlimit="10" points="247.866,100.88 2,100.88 
	2,2 297.861,2 297.861,100.88 266.866,100.88 "/>
<g id="lunch">
	<g>
		<g>
			<path fill="#FFEBB3" d="M269.951,23c-3.197,0-5.798,2.601-5.798,5.798v16.75h-16.75v-16.75c0-3.197-2.602-5.798-5.799-5.798
				s-5.798,2.601-5.798,5.798v45.097c0,3.198,2.601,5.799,5.798,5.799s5.799-2.601,5.799-5.799v-5.83
				c0-1.067-0.865-1.933-1.934-1.933c-1.067,0-1.933,0.865-1.933,1.933v5.83c0,1.066-0.866,1.934-1.933,1.934
				c-1.065,0-1.933-0.867-1.933-1.934V28.797c0-1.065,0.867-1.933,1.933-1.933c1.066,0,1.933,0.867,1.933,1.933V47.48
				c0,1.068,0.865,1.934,1.933,1.934h20.616c1.067,0,1.933-0.865,1.933-1.934V28.797c0-1.065,0.867-1.933,1.933-1.933
				c1.066,0,1.933,0.867,1.933,1.933v45.097c0,1.066-0.866,1.934-1.933,1.934c-1.065,0-1.933-0.867-1.933-1.934V55.211
				c0-1.067-0.865-1.933-1.933-1.933H245.47c-1.067,0-1.933,0.865-1.933,1.933v3.511c0,1.068,0.865,1.934,1.933,1.934
				c1.068,0,1.934-0.865,1.934-1.934v-1.578h16.75v16.75c0,3.198,2.601,5.799,5.798,5.799s5.799-2.601,5.799-5.799V28.797
				C275.75,25.6,273.148,23,269.951,23z"/>
		</g>
	</g>
	<g>
		<g>
			<g>
				<path fill="#FFEBB3" d="M202.907,79.693c5.605,0,10.878-2.185,14.842-6.149c1.988-1.981,3.529-4.29,4.579-6.859
					c1.213-2.953-0.203-6.348-3.158-7.565c-2.955-1.217-6.35,0.201-7.568,3.16c-0.469,1.14-1.158,2.173-2.046,3.065
					c-1.774,1.775-4.136,2.752-6.648,2.752c-5.179,0-9.394-4.214-9.394-9.394V43.989c0-5.18,4.215-9.394,9.394-9.394
					c3.827,0,7.24,2.285,8.694,5.817c0.588,1.433,1.699,2.551,3.131,3.147c1.432,0.599,3.01,0.603,4.443,0.013
					c2.953-1.216,4.367-4.612,3.151-7.575C219.07,28.101,211.447,23,202.907,23c-3.167,0-6.22,0.694-9.071,2.065
					c-0.962,0.462-1.367,1.617-0.904,2.579s1.617,1.367,2.58,0.905c2.324-1.118,4.812-1.685,7.396-1.685
					c6.97,0,13.189,4.163,15.845,10.604c0.406,0.989-0.064,2.125-1.047,2.529c-0.479,0.197-1.005,0.195-1.484-0.005
					c-0.477-0.198-0.848-0.571-1.044-1.049c-2.054-4.99-6.87-8.214-12.27-8.214c-7.311,0-13.259,5.948-13.259,13.259v14.714
					c0,7.312,5.948,13.259,13.259,13.259c3.544,0,6.876-1.379,9.386-3.888c1.25-1.258,2.221-2.714,2.884-4.325
					c0.407-0.987,1.536-1.46,2.521-1.056c0.986,0.406,1.459,1.539,1.054,2.527c-0.854,2.091-2.109,3.97-3.732,5.588
					c-3.237,3.236-7.538,5.02-12.111,5.02c-9.442,0-17.124-7.683-17.124-17.125V43.989c0-3.646,1.137-7.13,3.288-10.077
					c0.63-0.862,0.44-2.071-0.422-2.7c-0.862-0.631-2.071-0.44-2.7,0.422c-2.637,3.612-4.031,7.885-4.031,12.355v14.714
					C181.918,70.277,191.334,79.693,202.907,79.693z"/>
			</g>
		</g>
	</g>
	<g>
		<g>
			<path fill="#FFEBB3" d="M98.521,23c-3.197,0-5.798,2.601-5.798,5.798v32.052c0,3.996-3.251,7.248-7.247,7.248
				c-3.997,0-7.248-3.252-7.248-7.248V28.797C78.229,25.6,75.627,23,72.43,23s-5.798,2.601-5.798,5.798v32.052
				c0,10.391,8.453,18.844,18.845,18.844c10.391,0,18.844-8.453,18.844-18.844V48.448c0-1.068-0.865-1.934-1.933-1.934
				s-1.933,0.865-1.933,1.934v12.401c0,8.26-6.72,14.979-14.979,14.979c-8.26,0-14.979-6.719-14.979-14.979V28.797
				c0-1.065,0.867-1.933,1.933-1.933c1.066,0,1.934,0.867,1.934,1.933v32.052c0,6.128,4.984,11.113,11.113,11.113
				c6.127,0,11.113-4.985,11.113-11.113V28.797c0-1.065,0.866-1.933,1.932-1.933c1.066,0,1.934,0.867,1.934,1.933v10.309
				c0,1.067,0.865,1.933,1.933,1.933s1.933-0.865,1.933-1.933V28.797C104.32,25.6,101.719,23,98.521,23z"/>
		</g>
	</g>
	<g>
		<g>
			<path fill="#FFEBB3" d="M29.737,79.845h18.651c3.197,0,5.798-2.601,5.798-5.799c0-3.197-2.601-5.798-5.798-5.798H35.536V30.238
				c0-3.197-2.602-5.798-5.799-5.798s-5.798,2.601-5.798,5.798v21.904c0,1.068,0.865,1.934,1.933,1.934
				c1.068,0,1.933-0.865,1.933-1.934V30.238c0-1.065,0.867-1.933,1.933-1.933c1.066,0,1.934,0.867,1.934,1.933v39.943
				c0,1.067,0.865,1.933,1.932,1.933h14.786c1.065,0,1.933,0.867,1.933,1.933c0,1.066-0.867,1.934-1.933,1.934H29.737
				c-1.065,0-1.933-0.867-1.933-1.934V61.484c0-1.067-0.864-1.933-1.933-1.933c-1.067,0-1.933,0.865-1.933,1.933v12.562
				C23.939,77.245,26.54,79.845,29.737,79.845z"/>
		</g>
	</g>
	<g>
		<g>
			<path fill="#FFEBB3" d="M160.6,23c-3.197,0-5.799,2.601-5.799,5.798v27.492l-22.876-30.957c-0.038-0.053-0.08-0.103-0.124-0.15
				c-0.05-0.063-0.104-0.131-0.157-0.191c-0.027-0.031-0.072-0.079-0.102-0.109l-0.047-0.048c-0.065-0.074-0.137-0.146-0.209-0.214
				c-0.075-0.078-0.154-0.15-0.236-0.221c-0.028-0.025-0.059-0.05-0.09-0.073c-0.046-0.039-0.094-0.077-0.143-0.114l-0.138-0.105
				c-0.074-0.059-0.122-0.092-0.205-0.138c-0.063-0.046-0.14-0.094-0.208-0.132c-0.037-0.023-0.075-0.046-0.113-0.067
				c-0.084-0.051-0.17-0.096-0.26-0.14c-0.056-0.03-0.115-0.061-0.178-0.091c-0.048-0.023-0.096-0.045-0.145-0.064l-0.23-0.093
				c-0.079-0.029-0.159-0.058-0.238-0.082c-0.073-0.025-0.15-0.049-0.237-0.075c-0.05-0.015-0.101-0.028-0.151-0.039l-0.076-0.019
				c-0.125-0.034-0.254-0.061-0.386-0.079c-0.091-0.018-0.183-0.033-0.303-0.047l-0.187-0.02c-0.109-0.01-0.219-0.015-0.327-0.015
				c-0.132-0.011-0.228-0.011-0.361,0c-0.102,0.002-0.208,0.008-0.332,0.021l-0.116,0.014c-0.107,0.011-0.215,0.027-0.322,0.046
				c-0.094,0.014-0.178,0.03-0.24,0.046c-0.064,0.013-0.128,0.027-0.193,0.044c-0.083,0.017-0.16,0.036-0.24,0.063
				c-0.052,0.015-0.104,0.029-0.124,0.036c-0.083,0.024-0.16,0.053-0.235,0.083c-0.058,0.019-0.167,0.063-0.223,0.088l-0.065,0.028
				c-0.099,0.039-0.2,0.085-0.307,0.143c-0.103,0.049-0.198,0.1-0.288,0.155c-0.045,0.025-0.086,0.05-0.12,0.072
				c-0.016,0.009-0.048,0.027-0.062,0.037c-0.096,0.058-0.19,0.118-0.28,0.184c-0.038,0.024-0.075,0.051-0.111,0.078
				c-0.039,0.029-0.077,0.061-0.117,0.095c-0.074,0.056-0.15,0.118-0.221,0.18c-0.035,0.029-0.093,0.083-0.125,0.116l-0.047,0.044
				c-0.07,0.063-0.141,0.131-0.207,0.202c-0.089,0.086-0.174,0.181-0.255,0.284l-0.093,0.109c-0.016,0.019-0.031,0.037-0.045,0.056
				c-0.076,0.098-0.139,0.183-0.203,0.279l0,0l-0.065,0.097c-0.041,0.058-0.087,0.131-0.122,0.192
				c-0.025,0.042-0.051,0.084-0.074,0.126c-0.045,0.076-0.088,0.158-0.133,0.248c-0.049,0.094-0.092,0.182-0.127,0.268
				c-0.041,0.087-0.078,0.18-0.124,0.294c-0.03,0.078-0.058,0.156-0.081,0.234c-0.035,0.101-0.066,0.209-0.098,0.325l-0.033,0.131
				c-0.039,0.138-0.066,0.282-0.086,0.431c-0.001,0.008-0.002,0.016-0.003,0.022c-0.019,0.08-0.031,0.16-0.039,0.242l-0.019,0.187
				c-0.006,0.062-0.011,0.146-0.011,0.209c-0.001,0.033-0.003,0.066-0.004,0.099c-0.005,0.062-0.009,0.136-0.009,0.184v45.098
				c0,3.197,2.602,5.798,5.799,5.798s5.798-2.601,5.798-5.798V46.405l22.862,30.939c0.035,0.046,0.073,0.094,0.113,0.138
				c0.078,0.101,0.162,0.199,0.252,0.294c0.055,0.063,0.109,0.125,0.165,0.18c0.094,0.094,0.188,0.183,0.288,0.27l0.027,0.026
				c0.047,0.048,0.097,0.093,0.148,0.135c0.114,0.093,0.29,0.229,0.509,0.365c0.047,0.03,0.097,0.061,0.148,0.091
				c0.112,0.072,0.226,0.137,0.338,0.194c0.094,0.052,0.188,0.096,0.293,0.138c0.1,0.045,0.195,0.088,0.262,0.113
				c0.05,0.021,0.099,0.039,0.105,0.039l0,0c0.043,0.019,0.085,0.035,0.128,0.051c0.139,0.049,0.284,0.09,0.433,0.13
				c0.037,0.009,0.074,0.019,0.113,0.026c0.015,0.003,0.034,0.007,0.054,0.012c0.169,0.041,0.345,0.072,0.463,0.087
				c0.093,0.016,0.178,0.025,0.26,0.031c0.183,0.017,0.368,0.03,0.587,0.03c0.242,0,0.476-0.022,0.71-0.049
				c0.017-0.002,0.048-0.006,0.064-0.008l0.2-0.03c0.266-0.048,0.51-0.106,0.771-0.187c0.044-0.015,0.096-0.034,0.146-0.055
				c0.214-0.073,0.419-0.158,0.611-0.255c0.036-0.016,0.071-0.033,0.108-0.051c0.032-0.016,0.063-0.032,0.095-0.05
				c0.215-0.119,0.428-0.249,0.626-0.387c0.036-0.023,0.071-0.048,0.106-0.075c0.038-0.028,0.077-0.06,0.117-0.095
				c0.037-0.028,0.08-0.063,0.146-0.117c0.062-0.048,0.138-0.116,0.193-0.171l0.048-0.047c0.087-0.078,0.173-0.162,0.251-0.249
				c0.055-0.058,0.114-0.124,0.191-0.212l0.055-0.066c0.064-0.069,0.122-0.141,0.177-0.222c0.044-0.058,0.087-0.116,0.103-0.141
				l0.097-0.142c0.041-0.058,0.087-0.131,0.121-0.192c0.033-0.055,0.065-0.108,0.096-0.162c0.013-0.023,0.047-0.089,0.06-0.113
				l0.062-0.12c0.013-0.025,0.024-0.052,0.037-0.078l0.041-0.083c0.068-0.138,0.127-0.279,0.175-0.424l0.024-0.067
				c0.052-0.13,0.096-0.272,0.149-0.469l0.033-0.133c0.009-0.037,0.018-0.074,0.025-0.111l0.035-0.193
				c0.019-0.09,0.032-0.18,0.044-0.271c0.021-0.122,0.033-0.243,0.037-0.365c0.007-0.078,0.012-0.156,0.014-0.23
				c0.005-0.06,0.008-0.133,0.008-0.179V48.861c0-1.067-0.865-1.933-1.933-1.933s-1.933,0.865-1.933,1.933v24.964
				c-0.003,0.043-0.005,0.085-0.005,0.126l-0.007,0.076c-0.002,0.023-0.004,0.048-0.005,0.071c-0.005,0.031-0.009,0.063-0.013,0.092
				c-0.002,0.011-0.004,0.021-0.006,0.033l-0.104,0.375c-0.007,0.019-0.014,0.037-0.021,0.057c-0.03,0.061-0.059,0.118-0.076,0.157
				l-0.031,0.06h-0.001c-0.014,0.022-0.027,0.045-0.04,0.067l-0.058,0.083c-0.012,0.016-0.024,0.031-0.035,0.047
				c-0.029,0.033-0.06,0.07-0.093,0.111c-0.025,0.024-0.049,0.05-0.073,0.075c-0.029,0.027-0.06,0.056-0.083,0.079l-0.053,0.049
				c-0.023,0.018-0.061,0.047-0.097,0.076c-0.073,0.05-0.15,0.097-0.229,0.142c-0.034,0.015-0.067,0.031-0.101,0.048
				c-0.041,0.022-0.101,0.046-0.166,0.066c-0.033,0.011-0.069,0.024-0.106,0.039c-0.067,0.018-0.133,0.032-0.188,0.041l-0.048,0.009
				c-0.141,0.016-0.328,0.028-0.533,0.008c-0.003-0.001-0.006-0.001-0.008-0.001c-0.015-0.002-0.028-0.004-0.038-0.005
				c-0.03-0.004-0.062-0.009-0.093-0.016c-0.023-0.007-0.047-0.012-0.07-0.017c-0.019-0.005-0.039-0.01-0.062-0.015
				c-0.023-0.006-0.046-0.012-0.067-0.019c-0.032-0.013-0.063-0.024-0.099-0.037c-0.051-0.02-0.1-0.043-0.149-0.065
				c-0.019-0.01-0.038-0.018-0.058-0.026c-0.019-0.009-0.035-0.019-0.05-0.025c-0.038-0.025-0.096-0.06-0.136-0.081
				c-0.02-0.015-0.04-0.027-0.061-0.039c-0.014-0.009-0.027-0.018-0.04-0.027c-0.036-0.036-0.074-0.07-0.113-0.104
				c-0.032-0.028-0.064-0.057-0.095-0.085c-0.041-0.051-0.097-0.116-0.143-0.163c-0.04-0.053-0.073-0.094-0.105-0.131
				l-26.283-35.569c-0.497-0.671-1.369-0.948-2.159-0.687c-0.792,0.261-1.328,1.002-1.328,1.836v33.359
				c0,1.065-0.867,1.933-1.933,1.933c-1.066,0-1.933-0.867-1.933-1.933V28.869c0.004-0.062,0.008-0.132,0.008-0.178
				c0.001-0.024,0.002-0.051,0.003-0.076l0.004-0.036c0.001-0.007,0.002-0.013,0.003-0.018c0.013-0.059,0.022-0.116,0.03-0.175
				l0.021-0.104c0.023-0.059,0.043-0.118,0.061-0.178l0.011-0.027c0.017-0.033,0.032-0.067,0.048-0.103
				c0.008-0.018,0.018-0.034,0.026-0.052l0.027-0.056c0.009-0.017,0.019-0.032,0.026-0.045c0.015-0.025,0.029-0.051,0.045-0.075
				l0.025-0.037c0.014-0.019,0.025-0.037,0.039-0.056l0.09-0.109c0.009-0.011,0.018-0.022,0.027-0.033
				c0.025-0.024,0.049-0.05,0.072-0.075c0.029-0.025,0.061-0.056,0.08-0.076l0.035-0.033c0.018-0.014,0.045-0.035,0.045-0.035
				c0.025-0.018,0.05-0.038,0.076-0.059c0.016-0.012,0.031-0.023,0.048-0.035l0.094-0.057c0.026-0.015,0.054-0.029,0.079-0.046
				c0.032-0.015,0.066-0.032,0.098-0.049c0.033-0.014,0.064-0.027,0.084-0.036l0.123-0.048c0.023-0.007,0.048-0.014,0.072-0.021
				c0.021-0.005,0.043-0.011,0.065-0.016c0.009-0.002,0.05-0.012,0.078-0.019c0.06-0.008,0.133-0.019,0.164-0.025l0.153-0.012
				c0.037,0,0.075-0.001,0.113-0.003c0.027,0.001,0.052,0.001,0.071,0.001l0.124,0.013c0.018,0.004,0.042,0.009,0.042,0.009
				c0.042,0.009,0.083,0.016,0.126,0.021c0.045,0.011,0.09,0.022,0.137,0.033c0.051,0.019,0.101,0.036,0.151,0.051l0.093,0.037
				c0.045,0.024,0.093,0.049,0.137,0.069c0.018,0.012,0.037,0.022,0.052,0.031c0.022,0.014,0.046,0.027,0.069,0.041
				c0.025,0.018,0.052,0.034,0.078,0.051l0.07,0.054c0.004,0.004,0.01,0.008,0.016,0.013c0.018,0.015,0.035,0.029,0.053,0.044
				c0.031,0.033,0.064,0.065,0.098,0.096c0.027,0.03,0.057,0.061,0.079,0.083l0.067,0.078c0.035,0.047,0.072,0.092,0.111,0.136
				l26.29,35.577c0.496,0.672,1.367,0.947,2.159,0.688c0.792-0.262,1.328-1.002,1.328-1.836V28.798c0-1.065,0.867-1.933,1.933-1.933
				s1.933,0.867,1.933,1.933v10.721c0,1.067,0.865,1.933,1.933,1.933s1.933-0.865,1.933-1.933V28.798
				C166.397,25.601,163.797,23,160.6,23z M126.407,27.07l0.002-0.001C126.407,27.069,126.407,27.07,126.407,27.07
				c-0.012,0.005-0.024,0.009-0.037,0.014c0.011-0.004,0.023-0.009,0.039-0.015c0.01-0.004,0.02-0.008,0.029-0.012
				C126.429,27.061,126.418,27.066,126.407,27.07z"/>
		</g>
	</g>
</g>
</svg>
