<svg xmlns="http://www.w3.org/2000/svg" width="27.27" height="25.58" viewBox="0 0 27.27 25.58"><title>Asset 4</title><g id="Layer_2" data-name="Layer 2"><g id="Layer_1-2" data-name="Layer 1"><path d="M0,19l0,.09a.08.08,0,0,0,.06.09l.67.12h0c.17,0,2.39-.33,2.61-.4A30.35,30.35,0,0,0,5.75,16.2,27.31,27.31,0,0,1,8,13.63c.22-.07,2.39-.52,2.73-.59a.06.06,0,0,0,0,0l.13-.71a.07.07,0,0,0-.08-.08A26.67,26.67,0,0,0,8,13c-.25.18-3,3.1-3.46,3.68a12.78,12.78,0,0,1-1.43,1.73,22.05,22.05,0,0,1-3,.53S0,18.93,0,19Z" fill="#0a0807"/><path d="M11.29,10.24s-2.58.19-3.16.3A24.13,24.13,0,0,0,5.38,11c-.26.17-2.47,2.54-2.62,2.73a.8.8,0,0,0-.17.3s.09.13.45,0a3.23,3.23,0,0,0,1-.69c.27-.29,1.2-1.67,1.45-1.84s1.09.09,1.78,0l3.88-.61Z" fill="#0a0807"/><path d="M13.21,6.5S12.77,4.09,12.68,4s-2-1.15-2.3-1.32A17,17,0,0,1,8.14,1.56C7.86,1.29,6.43,0,6.32,0s-.23.07-.15.2S8.25,2.14,8.45,2.28,12.13,4,12.21,4.09s0,3.11.07,3.23S13.21,6.5,13.21,6.5Z" fill="#0a0807"/><path d="M26.28,23.85v.09a.08.08,0,0,1-.08.06l-.68-.13h0c-.15-.09-2.11-1.17-2.29-1.32a31.18,31.18,0,0,1-1.27-3.34A31.51,31.51,0,0,0,20.76,16c-.18-.14-2.05-1.34-2.34-1.53a.08.08,0,0,1,0-.07l.13-.7a.07.07,0,0,1,.11,0A23.62,23.62,0,0,1,21,15.38c.18.25,1.7,4,1.91,4.68a13.73,13.73,0,0,0,.71,2.13,23.48,23.48,0,0,0,2.65,1.58A.07.07,0,0,1,26.28,23.85Z"/><path d="M18.6,11.4s2.55.46,3.11.63a24,24,0,0,1,2.69.78c.23.2,2.18,2.78,2.31,3a.71.71,0,0,1,.13.32s-.1.12-.44-.08a3.42,3.42,0,0,1-.94-.8c-.24-.31-1-1.78-1.24-2s-1.1,0-1.77-.19l-3.8-1Z" fill="#0a0807"/><path d="M18.37,7.35s1.28-2.09,1.41-2.18,2.28-.35,2.62-.4a21.06,21.06,0,0,0,2.48-.2,22,22,0,0,1,2.26-.8c.1,0,.19.14.06.23s-2.63,1.06-2.87,1.13-4,.25-4.16.33-1.1,2.91-1.23,3S18.37,7.35,18.37,7.35Z" fill="#0a0807"/><path d="M19,13.12c.62-3.33-.09-9-2.56-9.47-2.19-.4-4.89,3-5.78,7.8S10.38,20.5,13.17,21C15.1,21.38,17.83,19.23,19,13.12Z" fill="#4d4d4d"/><path d="M12.91,8.11A76.64,76.64,0,0,0,5.8,13.55C4.06,15.11,1,19.81,2,21.28s3.43.64,5.84-1,4.68-3.68,5-5.4a3.15,3.15,0,0,0-.18-2l.55-.57Z" fill="#ccc" opacity="0.65"/><path d="M18.11,9.07a80,80,0,0,1,4.68,7.64c1.05,2.08,2.2,7.56.73,8.57s-3.43-.64-5.09-3.06-3-5.11-2.72-6.83a3.22,3.22,0,0,1,.9-1.83l-.31-.72Z" fill="#ccc" opacity="0.65"/><path d="M18.36,9.79c.44-2.37.4-3.92-2.28-4.42s-3.47.78-3.91,3.15.64,4.56,2.41,4.89S17.92,12.15,18.36,9.79Z" fill="#333"/><path d="M16.06,1.93,16.25.85l.11,0s.12.58.22.6l.33.06c.1,0,.42-.48.42-.48l.1,0-.2,1.08Z" fill="#0a0807"/><path d="M16.76,1.72a1.67,1.67,0,0,1,1.17.89c.56.83,1.55,2.39.89,2.94s-2.74-.18-2.74-.18-2.63-.16-2.81-1,1.72-2.12,2-2.29A1.79,1.79,0,0,1,16.76,1.72Z" fill="#666"/><path d="M15.51,3.67a1.22,1.22,0,0,0-.21-1,.78.78,0,0,0-1-.27,1.42,1.42,0,0,0-1.1,1.12c-.1.54.16.76.6,1A1.23,1.23,0,0,0,15.51,3.67Z" fill="#ba3021"/><path d="M17.12,4a1.18,1.18,0,0,1,.56-.87.78.78,0,0,1,1,.09,1.43,1.43,0,0,1,.62,1.45c-.1.54-.42.65-.9.68A1.22,1.22,0,0,1,17.12,4Z" fill="#ba3021"/></g></g></svg>