<?xml version="1.0" encoding="UTF-8"?>
<svg width="512pt" height="512pt" version="1.1" viewBox="0 0 512 512" xmlns="http://www.w3.org/2000/svg">
 <path d="m426.74 246.98c4 0 8.0781-0.46094 12.199-1.3594 26.5-5.8008 44.34-29.762 43.379-58.32-0.66016-16.941-7.1406-33.738-18.219-47.301-3.6797-4.5391-7.5195-8.7383-11.238-12.801-6.5586-7.1797-12.762-13.98-17.84-22.16-7.7812-12.578-17.762-26.578-32.82-35.039-10.941-6.1797-23.18-8.418-34.059-6.4219-24.5-18.578-56.16-28.84-89.684-28.84-33.16 0-64.621 10.102-89 28.34-10.02-0.98047-20.762 1.3984-30.5 6.8984-15.102 8.5-25.059 22.48-32.801 35.039-5.1211 8.3203-11.422 15.199-18.059 22.48-3.6211 3.9805-7.3789 8.0781-11 12.5-11.102 13.641-17.559 30.461-18.16 47.32-1.0195 28.52 16.801 52.48 43.34 58.281 4.2812 0.94141 8.3984 1.3789 12.32 1.3789 4.2812 0 8.3203-0.55859 12.16-1.5195-15.281 28.738-32.039 67.441-36.559 105.36-0.67969-2-1.2188-4.0195-1.5781-6.0586-2.0391-11.102 0.67969-22.98 3.3008-34.48l1.2188-5.4219c1.1211-5.1211 6.1602-31.359-5.8789-45.16-3.4414-3.9414-9.7578-8.418-20.422-7.5586-17.719 1.5-31.121 17.84-39.262 31.301-12.68 21.219-19 44.52-17.801 65.617 1.9609 33.059 25.039 60.441 61.66 73.223 3.1406 1.1406 22.078 4.8398 34.18 6.6211 9.2812 13.699 22.359 24.898 39.199 33.359 19.559 9.8398 41.879 15 63.359 15 9.9414 0 19.68-1.1016 28.898-3.3398 13-3.1602 25.578-9.8398 35.18-19.238 16.238 6.1602 33.559 9.3594 50.32 9.3594 9.9414 0 19.68-1.1016 28.879-3.3594 29.359-7.1602 56.699-32.18 52.141-66.141-1.3789-10.48-5.8398-20.219-12.398-27.918 4.9219-1.5781 9.5781-4.0781 13.621-7.5195 8.9414-7.5586 14.141-18.621 14.219-30.359 0.078126-11.602-4.8594-22.602-13.559-30.18-2.1992-1.9219-4.3789-3.5586-6.5391-5.0586 3.3203-5.8594 4.8398-12.641 4.1797-19.422-0.51953-5.6016-2.4414-10.84-5.5195-15.359 1.5781-3.9219 2.8203-7.9609 3.6602-12.082 1.8203 0.19922 3.6406 0.33984 5.5 0.33984zm-331 163.24c-31.66-11.039-51.516-34.18-53.16-61.902-1.0586-18.301 4.7812-39.539 15.98-58.281 5.3789-8.9219 16.379-24.039 29.359-25.141 5.7188-0.51953 8.3008 1.6016 9.6992 3.2188 5.7812 6.6016 5.6211 22.242 3.0195 34l-1.1992 5.3203c-2.8984 12.762-5.918 25.961-3.3984 39.621 1.7617 9.6992 6.2812 19.039 13.059 27.199 0.32031 9.9219 1.6992 19.621 4.4414 28.898 1.1797 4 2.6602 7.8008 4.3008 11.5-10.34-1.8008-20.539-3.9609-22.102-4.4609zm272.68 38.02c-20.98 5.1406-45.16 3.5781-67.539-4.0781 6.6992-10.262 10.18-22.582 8.3203-36.422-1.9805-14.68-9.6797-27.82-21.16-36.059-2.8594-2.0586-6.8594-1.4219-8.9219 1.4609-2.0586 2.8594-1.3984 6.8789 1.4609 8.9219 8.6211 6.1992 14.441 16.16 15.941 27.359 1.7383 12.898-2.6797 24.199-10.379 33.059-0.10156 0.10156-0.17969 0.21875-0.26172 0.32031-8.1016 9.1797-19.738 15.699-31.801 18.641-25.898 6.3203-57.883 2.2383-83.461-10.641-23.121-11.641-38.18-28.879-44.762-51.281-2.5391-8.6406-3.7812-17.719-4-27.059 0.019531-0.21875 0-0.44141 0-0.66016-0.85938-49.102 26.719-104.88 45.66-137.2 13.422-11.238 22.461-28.578 27.059-45.34 6.2188-22.641 10.699-48.039 13.641-77.621 0.35938-3.5195-2.2188-6.6602-5.7188-7-3.5586-0.35938-6.6602 2.2188-7 5.7188-2.8789 28.859-7.2188 53.559-13.262 75.52-4.1992 15.301-12.039 30.461-23.559 39.582-0.039063 0.039062-0.10156 0.058594-0.14062 0.10156-8.9414 7.0391-20.102 10.461-33.5 7.5195-20.379-4.4609-34.078-23.102-33.281-45.32 0.5-14.102 5.918-28.199 15.281-39.68 3.3789-4.1406 7.0195-8.1211 10.539-11.98 6.7617-7.3984 13.738-15.059 19.5-24.398 6.8984-11.16 15.641-23.52 28.199-30.602 8-4.5195 17.078-6.3789 24.922-5.1016h0.12109c0.5 0.078125 0.98047-0.019531 1.4805-0.058594 0.33984-0.039062 0.69922 0.019532 1.0195-0.078124 0.28125-0.078126 0.51953-0.26172 0.80078-0.37891 0.5-0.19922 1-0.39844 1.4414-0.71875 0.039063-0.019531 0.078125-0.019531 0.10156-0.058593 22.441-17.539 52.039-27.219 83.359-27.219 31.762 0 61.66 9.8984 84.219 27.898 0.17969 0.14062 0.39844 0.19922 0.57812 0.32031 0.17969 0.12109 0.37891 0.21875 0.55859 0.32031 0.51953 0.26172 1.0391 0.44141 1.6016 0.55859 0.21875 0.039062 0.44141 0.078125 0.66016 0.10156 0.19922 0.019532 0.37891 0.10156 0.55859 0.10156 0.53906 0 1.0781-0.10156 1.6211-0.21875h0.058593c8.4414-2.2188 18.48-0.55859 27.578 4.5586 12.52 7.0391 21.281 19.422 28.219 30.602 5.6992 9.2188 12.602 16.762 19.281 24.059 3.5781 3.9219 7.3008 7.9805 10.762 12.262 9.3594 11.441 14.82 25.539 15.359 39.68 0.76172 22.242-12.961 40.879-33.34 45.34-4.6797 1.0391-9.2383 1.2812-13.621 0.82031 0.57812-37.859-28.422-69.52-29.719-70.922-2.3984-2.6016-6.4609-2.7188-9.0391-0.32031-2.5781 2.3984-2.7188 6.4609-0.32031 9.0391 0.30078 0.32031 29.52 32.121 26.059 66.879-0.35937 3.5586-1.0781 7.0586-2.1211 10.461-6.0586-3.7188-13.102-5.3984-20.262-4.6797-15.762 1.4609-27.801 13.578-29.641 28.738l-70.539 6.7188c-4.6602-14.539-18.738-24.141-34.48-22.66-8.7812 0.82031-16.719 5.0195-22.32 11.82-4.3008 5.1992-6.8203 11.48-7.3984 18.078-10.641 1.7383-22.16 5.2617-34.238 10.66-3.2188 1.4414-4.6602 5.2383-3.2188 8.4609 1.4414 3.2383 5.2383 4.6602 8.4609 3.2188 35.98-16.121 59.102-11.859 68.742-2.5195 5.4414 5.2812 6.8594 12.461 3.8984 19.68-3.2383 7.8789-11.719 16-26.48 21.301-0.12109 0.039063-0.23828 0.058594-0.33984 0.12109-9.9414 3.5-22.66 5.7617-38.602 5.7617-0.62109 0-1.2617 0.019531-1.8789-0.019531-3.5 0-6.3594 2.8203-6.3984 6.3398-0.039062 3.5391 2.8008 6.4414 6.3398 6.4609 0.62109 0 1.2617 0.019531 1.8789 0.019531 16.121 0 29.48-2.2188 40.418-5.7812 5.3984 3.6992 11.68 5.7617 18.301 5.7617 1.0781 0 2.1602-0.058594 3.2617-0.16016 17.18-1.6406 30.059-16.238 29.859-33.34l65.141-6.2188c0.55859 5.3398 1.8984 10.898 4.0195 16.559 4.5 11.941 14.238 20.641 26.738 23.879 1.8008 0.48047 3.6211 0.78125 5.4414 1 9.0391 6.0586 15.301 16.359 16.82 27.918 3.5586 26.48-18.68 46.219-42.48 52.02zm-89.117-119.86c0.019531 0.16016 0.019531 0.33984 0.058594 0.5 0.23828 0.98047 0.39844 1.9414 0.5 2.7812 1.0391 11.082-7.1211 20.961-18.199 22-1.4219 0.14063-2.8203 0.12109-4.1992-0.039062 10.801-6.3789 17.578-14.359 20.801-22.16 0.42188-1.0391 0.71875-2.0781 1.0391-3.1211zm146.94 0.28125c-0.058594 7.9805-3.5781 15.52-9.6797 20.66-6.8008 5.7383-16.02 7.8398-24.699 5.6016-8.418-2.1797-14.961-8.0195-17.98-16.02-5.8984-15.641-4.2383-29.859 3.9609-37.219 1.8984-1.1797 3.7617-2.3594 5.5391-3.5195 2.4414-0.98047 5.0586-1.5195 7.8203-1.5195 7.9805 0 17.121 3.9805 25.859 11.578 5.8789 5.1211 9.2188 12.559 9.1602 20.422zm-53.961-39.02c-7.8984 5.4805-12.699 14.102-14.199 24.34l-73.117 6.9805c-1.8398 0.17969-3.5 1.1406-4.5781 2.6406 1.3984-9.5391-1.6797-18.82-8.9414-25.859-8.418-8.1602-20.719-12.102-35.48-11.879 0.66016-3.1602 2-6.1406 4.1016-8.6797 3.4219-4.1406 8.2812-6.7188 13.68-7.2188 10.898-1.0781 20.539 6.6797 21.918 17.621 0.44141 3.4219 3.4805 5.8984 6.9609 5.5781l81.762-7.7812c3.4414-0.32031 6-3.3398 5.7812-6.7812-0.69922-11 7.3008-20.422 18.262-21.441 5.3203-0.51953 10.578 1.0781 14.719 4.5 4.1797 3.4414 6.7617 8.2812 7.2617 13.66 0.42188 4.2617-0.51953 8.3984-2.6211 12.02-14.5-5.9805-27.18-3.4414-35.48 2.3203zm-120.28-94.66c0-6.9805 5.6797-12.641 12.641-12.641 6.9805 0 12.641 5.6797 12.641 12.641 0 6.9805-5.6797 12.641-12.641 12.641-6.9805 0-12.641-5.6797-12.641-12.641zm102.52 0c0-6.9805 5.6797-12.641 12.641-12.641 6.9609 0 12.641 5.6797 12.641 12.641 0 6.9805-5.6797 12.641-12.641 12.641-6.9805 0-12.641-5.6797-12.641-12.641zm-76.621 45.48c0-10.738 7.1797-19.762 16.961-22.738 0-0.14062-0.039063-0.26172-0.039063-0.39844 0-9.8008 9.2617-17.48 21.078-17.48 11.82 0 21.078 7.6797 21.078 17.48s-9.2617 17.48-21.078 17.48c-6.0586 0-11.422-2.0391-15.219-5.3203-5.5781 0.57812-9.9609 5.2617-9.9609 10.98 0 6.1211 4.9805 11.102 11.102 11.102 3.5586 0 6.8203-1.6602 8.9414-4.5391 2.4219-3.2812 7.8984-3.2812 10.32 0 2.1211 2.8984 5.3789 4.5391 8.9414 4.5391 6.1211 0 11.102-4.9805 11.102-11.102 0-3.5391 2.8594-6.3984 6.3984-6.3984s6.3984 2.8594 6.3984 6.3984c0 13.18-10.719 23.898-23.898 23.898-5.1016 0-10.039-1.6602-14.102-4.6406-4.0586 2.9609-9 4.6406-14.102 4.6406-13.18 0-23.898-10.719-23.898-23.898z" fill="#7f00ff"/>
</svg>
