<?xml version="1.0" encoding="UTF-8"?>
<svg width="512pt" height="512pt" version="1.1" viewBox="0 0 512 512" xmlns="http://www.w3.org/2000/svg">
 <path d="m142.9 209.04c2.4805 2.1016 3.9805 5.0586 4.2383 8.2812 0.26172 3.2383-0.76172 6.3789-2.8594 8.8594-2.1016 2.4805-5.0391 3.9805-8.2812 4.2383-0.33984 0.019531-0.66016 0.039062-1 0.039062-2.8789 0-5.6406-1.0195-7.8594-2.8984-2.4805-2.1016-3.9805-5.0391-4.2383-8.2812-0.26172-3.2383 0.76172-6.3789 2.8594-8.8594 2.1016-2.4805 5.0391-3.9805 8.2812-4.2383 3.2188-0.23828 6.3789 0.76172 8.8594 2.8594zm85.441-10.441c-6.6797 0.53906-11.68 6.4219-11.141 13.102 0.26172 3.2383 1.7617 6.1797 4.2383 8.2812 2.2188 1.8789 4.9805 2.8984 7.8594 2.8984 0.33984 0 0.66016-0.019531 1-0.039062 3.2383-0.26172 6.1992-1.7617 8.3008-4.2383 2.1016-2.4805 3.1211-5.6211 2.8594-8.8594-0.53906-6.6797-6.4219-11.66-13.102-11.16zm-14.281 49.039c-3.5195 0.28125-6.1602 3.3594-5.8594 6.8984 0.19922 2.6016-0.60156 5.1211-2.3008 7.1016-1.6797 1.9805-4.0391 3.1797-6.6406 3.3984-3.1211 0.23828-6.0781-0.98047-8.1406-3.3594-1.3398-1.5391-3.3203-2.3203-5.3398-2.1797-2.0391 0.16016-3.8594 1.2812-4.9414 3.0195-1.6602 2.6797-4.3789 4.3594-7.5195 4.6016-2.5781 0.17969-5.1016-0.60156-7.1016-2.3008-1.9805-1.6797-3.1797-4.0391-3.3984-6.6406-0.19922-2.6016 0.60156-5.1211 2.3008-7.1016 1.4414-1.6992 3.3984-2.7812 5.5586-3.1992 0.23828 0.17969 0.44141 0.39844 0.69922 0.55859 3.3594 2.1406 7.5 3.2812 11.781 3.2812 0.66016 0 1.3008-0.019532 1.9609-0.078125 11.141-0.89844 19.301-8.8789 18.559-18.16-0.37891-4.6992-3.1016-9-7.4805-11.781-3.8789-2.4609-8.7617-3.6016-13.738-3.1992-11.16 0.89844-19.32 8.8789-18.559 18.16v0.019531c-3.2383 1.3398-6.1797 3.3594-8.5391 6.1211-3.8984 4.5781-5.8008 10.422-5.3008 16.418 0.48047 6 3.2812 11.461 7.8594 15.359 4.1211 3.5 9.2383 5.3789 14.582 5.3789 0.62109 0 1.2188-0.019531 1.8398-0.078125 4.6797-0.37891 9.1016-2.2188 12.641-5.1797 3.9805 2.3594 8.6602 3.4609 13.301 3.1016 6-0.48047 11.461-3.2812 15.359-7.8594 3.9219-4.5781 5.8008-10.422 5.3008-16.418-0.28125-3.5195-3.3203-6.1211-6.8984-5.8594zm231.78 67.316c12.762 12.238 19.859 29.801 19.578 49.141-0.19922 15.141-3.3594 29.641-8.8789 40.859-5.8203 11.82-15.379 20.461-26.219 23.738-2.5 0.76172-5.0586 1.1016-7.6016 1.1016-10.898 0-21.66-6.2422-27.5-13.5-7.3984-9.2383-9.3789-20.441-10-31.52-6.3789-1.2383-12.059-3.1406-17.102-5.5-6.9609 11.578-14.781 20.66-20.461 26.52-7.3984 7.6602-18.859 18.219-33.059 21.18-2 0.42188-4.0195 0.62109-6.0391 0.62109-6.2188 0-12.441-1.9609-17.98-5.7188-8.0781-5.5-13.621-14.039-15.238-23.441-0.078125-0.48047-0.078125-0.96094-0.14062-1.4609-7.8984 13.719-18.359 26.238-30.738 36.559-8.1797 6.8203-20.719 16.078-35.121 17.5-0.98047 0.10156-1.9609 0.14062-2.9219 0.14062-7.2812 0-14.422-2.6992-20.379-7.7617-7.3398-6.2422-12.059-15.539-12.66-24.898-0.98047-15.559 7-27.379 14.699-38.82 0.73828-1.1016 1.4609-2.1797 2.1797-3.2617-3.7188-1.4414-7.3594-2.9609-10.859-4.6797-5.7383-2.8203-10.898-6.0195-15.461-9.4609-5.6602 3.4219-12.02 6.3398-19.121 8.6406 1.5586 3.0586 2.8594 6.3008 3.8203 9.7188 7.9805 28.102-8.3789 57.48-36.48 65.5-4.8203 1.3594-9.6602 2.0195-14.441 2.0195-23.16 0-44.5-15.238-51.121-38.539-6.0195-21.199 1.8398-43.859 19.219-56.859-1.8789-8.1016-0.48047-17.059 4.1602-24.219 7.5195-11.559 19.801-15.879 30.641-19.719 7.2617-2.5586 14.219-5.0195 19.602-9.3398-4.9609-2.7617-9.6016-5.9414-13.719-9.6211-7-6.2617-11.879-13.219-15.141-20.559-3.9609 1.0391-8.1016 1.5586-12.34 1.5586-2.1602 0-4.3398-0.14062-6.5586-0.39844-25.102-3-43.781-23.602-45.461-50.121-0.92188-15.738 3.5586-31.859 12.602-45.422 2.9805-4.4805 6.1211-8.6797 9.1602-12.762 5.3789-7.1797 10.461-13.941 14.359-21.879 6.0391-12.301 14-26.121 27.18-35.301 9.5195-6.6602 20.621-9.8594 30.84-9.0391 20.898-19.219 49.102-31.48 79.898-34.48 30.461-2.9805 60.297 3.5 84.398 18.059 9.1211-1.6992 19.441-0.44141 28.762 3.6797 14.859 6.6016 25.699 19.199 33.461 29.441 5.4219 7.1406 11.781 12.879 18.539 18.961 3.6797 3.3203 7.5195 6.7617 11.238 10.5 11.52 11.68 18.98 26.641 21.039 42.18 3.1602 23.859-8.3789 45.621-28.48 55.262 9.1016 4.8984 16.961 10.801 23.48 17.68 2.2383 2.4219 4.1602 4.7812 5.7812 7.0781 1.5 2.1016 2.8203 4.3203 4.0195 6.582 3.9414-5.4805 6.6797-11.961 7.7812-18.719 1.6406-9.8594-0.33984-19.621-2.3984-29.961-1.5195-7.5391-3.0781-15.34-3.2617-23.461-0.14062-7.1016 0.85938-20.16 9.1406-27.898 4.5195-4.2188 10.5-6.1406 17.32-5.5391 16.602 1.3789 29.059 16.582 36.602 29.102 11.781 19.641 17.641 41.238 16.48 60.82-1.4414 24.738-15.559 46.059-39.141 59.699zm-309.5 69.223c-1.0195-3.5781-2.4609-6.8984-4.3203-9.9414-6.3398 1.3398-12.898 2.3398-19.641 2.7188-2 0.12109-4.1797 0.19922-6.5 0.19922-8.5391 0-18.82-1.1406-27.422-6.2812-2.7188-1.6406-5-3.7812-6.9609-6.2422-11.781 10.059-16.922 26.281-12.578 41.52 6.0586 21.32 28.34 33.762 49.762 27.719 21.32-6.0781 33.738-28.359 27.66-49.699zm220.76-11.422c-1.5781-1.1602-3.1016-2.3594-4.5195-3.6016-2.6992 1.0195-5.4219 2.0391-8.1211 2.8984-16.539 5.4414-33.16 9.5-49.398 12.082-2.2383 0.33984-4.5 0.64063-6.7617 0.94141-0.83984 3.9219-0.94141 7.5586-0.33984 11.199 1 5.8594 4.6602 11.48 9.8203 14.98 4.4219 3.0195 9.4414 4.1406 14.18 3.1406 10.719-2.2383 20.238-11.082 26.461-17.539 5.1992-5.3594 12.32-13.621 18.641-24.141zm76.16-51.84c-3.6016-2.7812-7.6797-5.1797-12.121-7.1211-6.1016-2.6406-12.02-4.3594-17.621-5.0781-3.2617-0.42188-5.6602-3.2617-5.5781-6.5391 0.17969-5.8789-0.71875-11.941-2.5781-17.539 0-0.019531-0.019531-0.058594-0.019531-0.078125-1.5195-4.5586-3.7188-8.8789-6.5195-12.82-1.3008-1.8398-2.8594-3.7617-4.6602-5.6992-8.5586-9-20.039-16.16-34.02-21.301-0.80078 0.039063-1.6016 0.10156-2.3789 0.10156-3.1406 0-6.2422-0.32031-9.3008-0.94141-0.16016-0.039063-0.30078-0.058594-0.46094-0.12109-2.5-0.53906-4.9414-1.2812-7.2617-2.1797-0.078125-0.039062-0.16016-0.058594-0.23828-0.10156-2.6602-1.0391-5.2617-2.3594-7.8203-3.9219-10.039 25.418-35.641 46.879-64.559 53.582-0.48047 0.12109-0.98047 0.16016-1.4414 0.16016-2.9219 0-5.5391-2-6.2422-4.9609-0.80078-3.4414 1.3398-6.8789 4.7812-7.6797 25.758-5.9609 48.441-25.301 56.438-48.102l0.33984-0.94141c0.039062-0.12109 0.078125-0.28125 0.12109-0.39844-8.4414-8.2617-15.699-19.66-20.641-32.582-4-10.461-7.6602-21.84-10.922-33.82-3.1406-11.301-6.0195-23.539-8.5586-36.34-0.67969-3.4609 1.5586-6.8398 5.0391-7.5195 3.5-0.67969 6.8398 1.5586 7.5195 5.0391 2.4805 12.5 5.2812 24.418 8.3398 35.441 3.1602 11.621 6.6992 22.582 10.539 32.641 4.7617 12.5 11.898 23.238 20.059 30.262 3.6992 3.1797 7.5586 5.5781 11.5 7.1602 0.10156 0.039063 0.19922 0.078125 0.30078 0.12109 1.7617 0.69922 3.6406 1.2617 5.5586 1.6602 0.14063 0.019531 0.26172 0.058594 0.39844 0.10156 5.8398 1.1406 12 0.69922 18.301-1.3398 18.102-5.8398 28.859-23.941 26.199-44.059-1.6992-12.781-7.8789-25.16-17.441-34.84-3.4609-3.4805-7.1406-6.8008-10.719-10-6.8984-6.1992-14.02-12.621-20.16-20.719-7.2617-9.5586-16.34-20.082-28.441-25.461-7.6211-3.3594-16.02-4.2383-23-2.4414h-0.058593c-1.4805 0.37891-3.0391 0.16016-4.4805-0.57812-0.10156-0.058594-0.21875-0.058594-0.32031-0.12109-0.058594-0.039063-0.14062-0.039063-0.19922-0.078125-22.102-14.059-50.059-20.281-78.66-17.48-29.059 2.8203-55.543 14.539-74.578 33-0.16016 0.16016-0.35938 0.21875-0.53906 0.35938-0.21875 0.17969-0.46094 0.30078-0.69922 0.44141-0.48047 0.28125-0.94141 0.51953-1.4609 0.67969-0.26172 0.078125-0.53906 0.12109-0.82031 0.16016-0.32031 0.039063-0.62109 0.17969-0.94141 0.17969-0.19922 0-0.39844-0.10156-0.60156-0.12109-0.16016-0.019531-0.30078 0.039062-0.46094 0.019531-7.8398-1.2812-16.762 1.1211-24.559 6.5586-10.801 7.5195-17.699 19.602-23.02 30.441-4.4414 9.0195-10.121 16.582-15.602 23.922-2.9414 3.9219-5.9805 7.9805-8.7617 12.16-7.5195 11.281-11.238 24.602-10.48 37.559 1.2812 20.219 15.34 35.941 34.219 38.18 4.7188 0.55859 9.2383 0.32031 13.5-0.69922-4.5391-23.18 4.9219-48.34 20.082-66.898 2.2383-2.7383 6.2617-3.1406 9-0.89844 2.7383 2.2383 3.1406 6.2617 0.89844 9-19.16 23.461-28.102 59.16-2.4414 82.078 18.02 16.102 47.238 22.102 72.656 14.941 3.3984-0.96094 6.9414 1.0195 7.8984 4.4219 0.96094 3.3984-1.0195 6.9414-4.4219 7.8984-8.1992 2.3203-16.762 3.4219-25.281 3.4219-11.379 0-22.719-2.0195-33.121-5.8008-7.6602 8.5195-18.32 12.34-27.859 15.699-10.199 3.6016-19.02 6.6992-24.16 14.602-3.2617 5.0195-3.8398 11.84-1.4805 17.359 0.48047 1.2617 1.0195 2.2383 1.7188 3.1797 1.1797 1.6211 2.5 2.8594 4.1211 3.8398 7.8789 4.7188 18.961 4.7188 26.602 4.2812 7.4805-0.42188 14.762-1.5195 21.66-3.2383h0.039062c7.6211-1.8789 14.539-4.4805 20.539-7.6211-3.9805-4.2188-7.3789-8.7383-10.039-13.578-1.6992-3.1016-0.55859-6.9805 2.5391-8.6992 3.1016-1.6797 6.9805-0.55859 8.6992 2.5391 3.6797 6.6992 9.0195 12.781 15.898 18.078 4.0586 3.1602 8.7812 6.0586 14.039 8.6406 3.7812 1.8594 7.8008 3.4609 11.879 4.9609 2.5-5.1016 4.1406-10.379 4.0781-16.121-0.039062-3.7617-0.51953-7.3984-1.4414-10.82-0.89844-3.4219 1.1211-6.9219 4.5391-7.8398 3.3984-0.89844 6.9219 1.1211 7.8398 4.5195 1.1992 4.4414 1.8203 9.1406 1.8789 13.98 0.12109 9.5781-2.9414 17.699-7.0781 25.18-0.039063 0.35938 0 0.71875-0.12109 1.0781-0.44141 1.3984-1.3398 2.5391-2.4805 3.3203-1.7617 2.8203-3.6016 5.5781-5.4414 8.3008-6.8203 10.102-13.238 19.641-12.539 30.859 0.37891 5.9414 3.4219 11.918 8.1602 15.941 4.0781 3.4609 9 5.1211 13.738 4.6406 10.898-1.0781 21.301-8.8398 28.199-14.602 13.641-11.379 24.781-25.66 32.18-41.281 5.4805-11.559 14.02-33.418 9.6992-50.02-0.89844-3.4219 1.1406-6.9219 4.5781-7.8203 3.4414-0.92188 6.9219 1.1406 7.8203 4.5781 3.6211 13.859 0.62109 29.559-4.1406 43.262 2.2383-0.30078 4.5-0.60156 6.6992-0.94141 15.52-2.4609 31.48-6.3594 47.398-11.621 0.87891-0.28125 1.7383-0.64062 2.6211-0.94141-11.32-14.941-13.961-30.441-14-30.719-0.53906-3.4805 1.8398-6.7812 5.3203-7.3203 3.4414-0.55859 6.7617 1.8203 7.3203 5.3203 0.28125 1.6602 7.2383 41.199 50.422 46.699 0.33984 0.039062 0.60156 0.21875 0.89844 0.30078 0.37891 0.10156 0.73828 0.19922 1.0781 0.35938 0.42188 0.19922 0.76172 0.46094 1.1211 0.76172 0.28125 0.21875 0.55859 0.44141 0.82031 0.71875 0.30078 0.33984 0.51953 0.69922 0.73828 1.1016 0.17969 0.32031 0.37891 0.64062 0.5 1 0.14062 0.42188 0.19922 0.83984 0.26172 1.3008 0.039063 0.28125 0.16016 0.53906 0.16016 0.82031l0.019532 0.33984c0.019531 0.33984 0.039062 0.69922 0.039062 1.0391 0.32031 9.8789 1.4414 20.238 7.3789 27.621 4.5391 5.6602 14 10.398 21.441 8.1406 7.3398-2.1992 14.238-8.6016 18.422-17.121 4.6406-9.418 7.3984-22.32 7.5586-35.398 0.23828-17.602-6.8203-33.262-19.359-43.02zm38.941-66.422c1-16.801-4.3594-36.301-14.68-53.477-4.8984-8.1406-14.898-21.961-26.719-22.941-4.2383-0.35938-6.3203 1.0391-7.5 2.1406-3.3594 3.1406-5.2617 9.9805-5.1016 18.301 0.16016 6.9805 1.5391 13.879 3.0195 21.199 2.2188 11 4.5 22.379 2.5 34.539-1.8398 11.379-7.3203 22.199-15.18 30.301 1.0781 4.0781 1.8594 8.2188 2.1211 12.398 5.0781 1.1016 10.301 2.8008 15.582 5.0781 2.9609 1.2812 5.7617 2.7617 8.4414 4.3789 22.621-11.32 36.262-30.078 37.539-51.941z" fill="#7f00ff"/>
</svg>
