<?xml version="1.0" encoding="UTF-8"?>
<svg id="Layer_2" data-name="Layer 2" xmlns="http://www.w3.org/2000/svg" viewBox="0 0 2956.65 800.87">
  <defs>
    <style>
      .cls-1 {
        fill: none;
        stroke: #11b738;
        stroke-miterlimit: 10;
        stroke-width: 8px;
      }

      .cls-2 {
        fill: #ab7f6b;
      }
    </style>
  </defs>
  <g id="burrito">
    <path class="cls-2" d="M630.09,734.32c3.87-6.77,2.43-15.03-3.62-21-3.82-3.85-8.68-6.03-12.97-7.94-5.78-2.58-8.57-4.07-9.27-6.45.41-.48,2.47-1.52,5.62-1.75,6.37-.48,12.63-1.4,18.7-2.29,4.23-.62,8.48-1.25,12.68-1.7,10.22-1.04,20.28-3.74,28.91-7.77,11.55-5.14,17.21-13.03,16.85-23.31-.13-6.74-2.64-16.83-9.37-23.27-2.12-2.27-4.83-3.57-7.09-3.64-6.79-.83-10.58,4.4-12.01,6.38l-.64.84c-1.06,1.28-2.47,2.54-4.11,3.67-3.1,2.2-6.57,3.67-10.41,4.38-10.05,2.05-25.03.17-30.65-5.83-1.22-1.32-1.28-3.24-1.1-4.58.38-2.97,2.18-5.96,4.51-7.45,4.77-3.08,12.32-3.1,20.28-.05,3.03,1.13,9.36,3.51,15.1-.74,5.38-4,6.44-11.43,2.66-18.98-8-15.62-24.24-26.29-41.51-28.8,4.15-3.71,5.98-8.5,4.91-13.57-1.5-7.38-8.36-10.62-10.36-11.57-9.34-4.82-18.63-9.3-29.18-11.1-4.7-.82-9.35-.97-13.77-.52.3-.84.6-1.67.86-2.54,3.02-9.8,1.65-22.46-8.06-28.49-10.28-6.68-23.18-1.64-30.01,6.41-3.88,4.45-6.34,9.59-8.53,14.14-.96,2.02-1.94,4.06-2.99,5.92-6.33,10.9-16.62,17.6-24.1,21.3-4.01,1.98-8.63,3.66-13.65,5.21-4.74-2.92-10.35-4.3-16.23-3.7-87.15,8.79-176.76,26.56-274.05,54.28-19.05,5.43-31.5,23.81-29.57,43.7,2.02,21.06,4.73,41.94,8.01,62.13,2.3,14.09,9.27,26.69,19.7,36.05,3.42,3.07,7.19,5.77,11.29,8.07,2.97,1.67,6.04,2.99,9.17,4.13,53.89,30.85,194.61,19.34,306.32-8.1,10.17-2.5,17.81-9.97,20.59-20.04,2.26-1.26,4.52-2.45,6.79-3.81l3.09-1.93c3.92-2.48,7.63-4.81,11.55-6.28,6.4-2.49,14.29-2.77,21.32-3.03,5.6-.24,11.37-.49,15.8,1.5,1.76.79,3.6,2.07,5.54,3.44,2.26,1.58,4.81,3.38,7.93,4.85,8.32,3.73,19.92,2.85,25.09-6.13l.02-.05ZM600.32,656.04c11.68,12.41,34.15,13.39,46.25,10.91,6.1-1.12,11.79-3.55,16.83-7.08,1.96-1.36,3.74-2.84,5.28-4.37.85,2.18,1.39,4.7,1.44,7.04.06,1.73.15,4.35-6.98,7.52-7.07,3.31-15.23,5.49-23.69,6.34-4.46.49-8.92,1.14-13.36,1.8-6.02.88-11.74,1.72-17.51,2.17-2.76.21-8.59,1.06-13.49,4.37-17.12,6.37-30.35,5.11-41.24-3.87.2-4.92-.13-9.85-.91-14.72,12.05-10.53,25.85-18.68,41.84-24.6.07,5.53,1.93,10.62,5.56,14.56l-.02-.04ZM472.43,622.82c16.62-2.63,33.68,2.24,46.14,13.42,22.86,20.51,24.79,55.79,4.34,78.67-26.02-23.33-54.06-42.57-83.54-57.32,11.91-11.19,22.93-22.81,33.05-34.81v.03ZM508.48,610.21c-4.11-3.69-4.43-10.01-.76-14.1s10.01-4.43,14.1-.76c2.05,1.84,3.16,4.33,3.3,6.89s-.69,5.15-2.53,7.21c-2.65,2.95-6.64,3.86-10.2,2.85-.6-.28-1.19-.56-1.77-.83-.74-.38-1.48-.68-2.13-1.26h0ZM536.05,630.11c-1.94-2.22-3.97-4.38-6.22-6.41-1.91-1.72-3.94-3.28-6-4.76,1.84-.98,3.56-2.24,5.03-3.87.35-.39.61-.84.92-1.27.46.53.88,1.07,1.41,1.55,3.35,3.01,7.55,4.48,11.73,4.62.22,2.63-.61,5.28-2.44,7.32-1.21,1.35-2.77,2.27-4.44,2.81h.02ZM536.82,609.1c-2.05-1.84-3.16-4.33-3.3-6.89s.69-5.15,2.53-7.21c3.69-4.11,10.01-4.43,14.1-.76s4.43,10.01.76,14.1-10.01,4.43-14.1.76h0ZM530.11,551.08c1.29-2.26,2.45-4.65,3.59-7.06,1.88-3.92,3.65-7.63,6.1-10.43,2.51-2.95,6.53-4.28,8.19-3.2,1.7,1.07,2.2,5.43.99,9.3-.76,2.46-1.94,5-3.16,7.69-1.78,3.84-3.61,7.8-4.66,12.35-.81,3.49.7,7.14,3.69,9.03,3.03,1.92,6.92,1.71,9.74-.51,4.95-3.91,12.43-5.34,20.54-3.93,7.72,1.33,14.93,4.68,22.97,8.78-4.83,1.69-9.66,2.85-14.79,3.45-2.25.3-6.03.82-9.2,3.94-3.04,3.01-4.2,7.39-3.13,11.68,1.22,4.92,5.13,9.02,10.27,10.57,5.1,1.32,9.74,0,13.13-.95l1.5-.41c13.95-3.78,30.25,1.99,39.37,13.15-10.57-2.44-20.62-1.15-28.3,3.81-1.08.7-2.02,1.59-2.98,2.47-21.72,5.98-40.25,15.11-56.24,27.69-1.77-4.02-3.93-7.92-6.44-11.61,2.02-1.02,3.9-2.27,5.47-4.01,3.63-4.04,5.15-9.33,4.42-14.54,2.21-1.01,4.27-2.48,6-4.41,6.78-7.56,6.15-19.22-1.4-26s-19.22-6.15-26,1.4c-.35.39-.61.84-.92,1.27-.46-.53-.88-1.07-1.41-1.55-7.56-6.78-19.22-6.15-26,1.4-4.19,4.67-5.54,10.9-4.17,16.6-3.67-.83-7.38-1.36-11.16-1.63,4.29-6.73,5.25-14.74,2.76-22.15,3.53-1.28,6.85-2.68,9.98-4.21,13.73-6.78,24.51-16.43,31.26-28.01h0ZM182.54,722.88c-3.23-19.8-5.88-40.34-7.86-61.03-1.13-11.8,6.2-22.68,17.43-25.88,15.86-4.53,31.45-8.68,46.93-12.68,1.35,10.73,5.79,28.46,20.33,45.02.11.13.22.26.35.37,1.57,1.41,3.97,1.44,5.58.03,1.75-1.54,1.92-4.19.38-5.94-13.58-15.5-17.3-32.25-18.32-41.58,29-7.34,57.44-13.83,85.32-19.34-.11,10.15,1.03,25.91,7.9,36.83.2.35.47.65.75.9,1.36,1.22,3.42,1.46,5.05.43,1.96-1.24,2.57-3.84,1.33-5.8-6.1-9.72-6.78-24.93-6.56-33.94,41.57-7.97,82.13-13.99,122.1-18.04,3.25-.34,5.52.88,7,2.2,1.05.94,1.69,1.94,1.98,2.46.71,1.26,2.74,5.71-.71,10.26-3.34,4.42-6.86,8.78-10.45,13.09l-.11.13c-49.62,59.45-122.29,108.91-216.4,147.19-12.84,5.23-27.18,4.27-39.37-2.56-12.15-6.83-20.39-18.53-22.6-32.15v.02ZM508.36,749.38c-21.82,5.35-45.04,10.13-68.59,14.07-6.22-11.36-18.82-35.8-24.33-57.28-.58-2.25-2.88-3.6-5.13-3.02-2.25.58-3.6,2.88-3.02,5.13,5.4,21.04,16.91,44.1,23.67,56.62-20.47,3.25-41.06,5.86-61.11,7.67-2.81-5.67-6.22-15.12-5.59-27.07.13-2.32-1.65-4.31-3.98-4.42-2.32-.13-4.31,1.65-4.42,3.98-.61,11.85,2.18,21.54,5.08,28.28-40.07,3.18-77.44,3.04-106.47-1.65,68.37-28.18,125.72-62.31,171.41-101.9,30.88,14.67,60.25,34.44,87.28,59.01,3.45,3.12,4.83,7.67,3.7,12.15-.52,2.03-2.38,6.95-8.48,8.44h0ZM598.43,716.79c-8.06-3.64-16.57-3.27-23.37-2.97-7.89.28-17.7.64-26.69,4.13-3.93,1.48-7.36,3.44-10.67,5.45,6-7.41,10.34-15.68,12.97-24.36,11.02,6.3,23.69,7.98,37.88,5.04,2,6.69,6.64,10.77,11.54,13.53-.54-.28-1.09-.55-1.65-.81h-.02ZM612.02,725.14c-1.67-.79-3.42-2.02-5.28-3.32-1.69-1.18-3.5-2.47-5.57-3.64,1.87,1,3.74,1.83,5.46,2.58,2.9,1.3,5.9,2.63,7.59,4.15.3.27.55.52.73.77-.77.04-1.9-.09-2.92-.56v.02Z"/>
    <path class="cls-2" d="M311.16,706.74c.25.45.55.84.91,1.16,1.29,1.15,3.18,1.44,4.79.59,2.06-1.1,2.83-3.63,1.75-5.7-.08-.16-8.9-17.11-4.56-38.03.47-2.29-.99-4.51-3.25-4.99-2.29-.47-4.51.99-4.98,3.28-4.98,23.87,4.93,42.89,5.36,43.7h-.02Z"/>
    <path class="cls-2" d="M477.15,647.84c.1.11.21.21.33.33,1.58,1.42,4.02,1.45,5.62,0,4.38-3.94,8.73-7.59,12.9-10.84,1.83-1.44,2.17-4.08.72-5.92-1.44-1.86-4.08-2.17-5.92-.72-4.32,3.37-8.8,7.16-13.34,11.21-1.74,1.56-1.88,4.2-.32,5.94h0Z"/>
    <path class="cls-2" d="M497.67,665.85c.63.56,1.44.95,2.34,1.05,8.36.94,16.73.5,24.91-1.33,2.27-.51,3.7-2.77,3.19-5.03s-2.77-3.7-5.03-3.19c-7.28,1.62-14.72,2.02-22.13,1.19-2.31-.26-4.4,1.4-4.66,3.71-.16,1.41.39,2.72,1.37,3.61v-.02Z"/>
    <path class="cls-2" d="M503.82,686.12c-1.32,1.76-1.04,4.22.56,5.65.09.08.19.17.3.24,3.87,2.88,8.01,5.46,12.29,7.66,2.07,1.07,4.61.23,5.66-1.83,1.07-2.07.23-4.64-1.83-5.66-3.88-1.98-7.62-4.32-11.1-6.9-1.86-1.39-4.5-1.01-5.89.86v-.02Z"/>
  </g>
  <g id="line">
    <path class="cls-1" d="M3.89,345.07c81.32,338.82,849.99,684.42,1570.22,243.95C2294.33,148.56,2269.82-41.19,2956.33,13.03"/>
  </g>
</svg>