<?xml version="1.0" encoding="UTF-8"?>
<svg width="1200pt" height="1200pt" version="1.1" viewBox="0 0 1200 1200" xmlns="http://www.w3.org/2000/svg">
 <path d="m198.12 777.07c-9.8555 16.488-10.965 27.785-7.2695 31.965 7.7578 8.7656 48.395 14.207 124.51-24.93 7.2656-3.7344 16.043-2.8477 22.41 2.2695 6.3672 5.1133 9.1289 13.496 7.0508 21.391-1.6133 6.1367-4.5938 20.992 2.6055 26.43 3.0703 2.3203 31.277 19.125 140.96-39.977-49.645-21.332-107.53-32.738-168.91-32.738-41.688 0-83 5.4336-121.36 15.59z"/>
 <path d="m525.35 866.96 43.5-23.004c-5.1367-4.4805-10.473-8.8203-16.043-12.977-6.5586-4.8945-13.438-9.5039-20.52-13.91-72.594 41.898-127.84 62.746-166.84 62.746-17.559 0-31.832-4.2109-42.945-12.605-10.223-7.7227-16.824-18.602-19.551-31.637-66.293 27.848-118.6 28.551-143.08 0.875-5.6797-6.4219-14.641-20.469-11.613-42.742-19.742 8.0273-38.227 17.391-54.902 28.082-7.6836 4.9258-15.621 10.539-23.496 16.84 27.77 5.9102 52.93 20.734 74.312 44.062 12.145 13.246 20.961 27.039 26.863 37.84 77.965-31.969 132.41-19.164 165.14-1.8008 22.336 11.848 37.578 27.301 46.695 38.656 60.531-22.062 109.33-22.891 145.25-2.4141 21.359 12.18 33.652 29.531 40.613 43.906 34.141-14.367 62.082-13.387 83.297-5.8438-7.9766-44.918-25.891-84.703-53.168-118.14l-54.16 28.641c-3.082 1.6289-6.3906 2.4062-9.6523 2.4062-7.4219 0-14.594-4.0039-18.305-11.02-5.3398-10.102-1.4805-22.617 8.6172-27.961z"/>
 <path d="m57.238 978.67c0-7.5039-9.8633-15.867-24.023-15.867-14.156 0-24.023 8.3633-24.023 15.867 0 7.5078 9.8633 15.871 24.023 15.871 14.156 0 24.023-8.3633 24.023-15.871z"/>
 <path d="m698.24 315.88c6.4375 2.6016 14.676 2.7812 22.59 0.49219 7.9219-2.2852 14.789-6.8281 18.855-12.453 1.7461-2.4219 4.4727-7.1875 3.1016-11.938-1.7148-5.9336-10.09-10.52-20.676-10.52-3.4531 0-7.1367 0.48437-10.902 1.5742-7.9219 2.2852-14.789 6.8242-18.855 12.453-1.7461 2.4219-4.4727 7.1875-3.1016 11.938 1.3711 4.7539 6.2188 7.3359 8.9883 8.4531z"/>
 <path d="m883.81 206.73c8.9961 3.5078 18.789 3.9609 26.871 1.2539 3.9805-1.3359 11.098-4.7031 14.039-12.238 4.9492-12.676-5.4258-29.07-22.652-35.793-5.1172-1.9922-10.492-3.0039-15.66-3.0039-3.9219 0-7.7227 0.58203-11.211 1.75-3.9805 1.3398-11.098 4.707-14.039 12.242-4.9492 12.676 5.4258 29.066 22.652 35.789z"/>
 <path d="m414.28 728.89c227.21-35.328 379.29-91.625 464.78-172.08 73.176-68.859 88.566-146.45 103.46-221.48 17.281-87.113 35.133-176.99 148.3-231.7-9.3203-10.238-19.625-19.852-30.945-28.797-87.539-69.195-232.25-92.969-368.67-60.539-49.02 11.652-200.32 141.86-368.64 339.59-136.69 160.57-243.14 315.36-305.86 442.83 70.543-50.387 168.25-76.613 262.79-76.613 32.625 0 64.414 3 94.793 8.7812zm488.37-312.52c-1.6641 0.41016-3.332 0.60547-4.9688 0.60547-9.293 0-17.742-6.3086-20.066-15.738l-18.52-75.07c-2.7344-11.094 4.0391-22.301 15.129-25.039 11.086-2.7305 22.301 4.0391 25.039 15.133l18.52 75.07c2.7344 11.094-4.0391 22.305-15.133 25.039zm-80.031-260.48c6.6211-16.953 20.984-30.227 39.41-36.414 17.375-5.8359 36.938-5.1523 55.082 1.9336 38.777 15.133 59.477 55.227 46.152 89.375-6.6211 16.953-20.984 30.227-39.41 36.414-7.8047 2.6211-16.051 3.9258-24.41 3.9258-10.25 0-20.672-1.9609-30.668-5.8633-38.777-15.129-59.484-55.223-46.156-89.371zm-13.203 161.76c11.086-2.7344 22.301 4.0391 25.039 15.133l18.52 75.07c2.7344 11.094-4.0391 22.301-15.129 25.039-1.6641 0.41016-3.332 0.60547-4.9688 0.60547-9.293 0-17.742-6.3086-20.066-15.738l-18.52-75.07c-2.7422-11.094 4.0312-22.301 15.125-25.039zm-150.6-46.379c9.5117-13.18 24.043-23.117 40.926-27.992 36.672-10.578 73.824 6.1133 82.797 37.223 4.5547 15.77 1.1602 33.129-9.3047 47.625-9.5117 13.18-24.047 23.117-40.93 27.992-7.4609 2.1523-15.062 3.2227-22.523 3.2227-9.418 0-18.613-1.707-27.023-5.1055-16.582-6.6914-28.703-19.57-33.254-35.344-4.543-15.762-1.1523-33.121 9.3125-47.621zm0.70703 204.03c11.094-2.7266 22.301 4.0352 25.039 15.133l18.52 75.07c2.7344 11.094-4.0391 22.301-15.129 25.039-1.6641 0.41016-3.332 0.60547-4.9688 0.60547-9.293 0-17.742-6.3086-20.066-15.738l-18.52-75.07c-2.7383-11.094 4.0352-22.301 15.125-25.039zm-64.809 16.516c11.09-2.7266 22.301 4.0352 25.039 15.133l18.52 75.07c2.7344 11.094-4.0391 22.301-15.129 25.039-1.6641 0.41016-3.332 0.60547-4.9688 0.60547-9.293 0-17.742-6.3086-20.066-15.738l-18.52-75.07c-2.7383-11.094 4.0352-22.301 15.125-25.039z"/>
 <path d="m567.2 1045.8c-3.1875 1.8398-6.7578 2.7656-10.332 2.7656-3.0781 0-6.168-0.6875-9.0234-2.0742-6.168-2.9883-10.453-8.8398-11.445-15.625-0.14844-0.89453-4.6602-26.516-29.301-40.246-26.938-15.012-69.836-11.191-124.05 11.051-9.8281 4.0273-21.109-0.035156-26.105-9.4062-2-3.6211-52.129-90.898-186.98-25.992-5.2656 2.5312-11.355 2.7188-16.762 0.52344-5.4102-2.2031-9.6406-6.5898-11.641-12.074-1.3047-3.5-32.398-84.504-110.21-77.133-10.98 14.43-20.352 30.91-26.738 49.609 8.6445-3.6953 18.352-5.7773 28.602-5.7773 36.059 0 65.395 25.68 65.395 57.242s-29.336 57.242-65.395 57.242c-1.918 0-3.8125-0.089844-5.6875-0.23047 2.4297 2.1875 4.8594 4.2695 7.2266 6.207 112.57 92.176 398.98 158.11 495.87 158.11 8.6602 0 15.793-0.52344 21.164-1.6055 48.086-9.6719 105.01-90.77 105.01-149.6-20.289-24.797-48.422-30.09-89.594-2.9844zm-380.16-1.4844c-7.2109 0-14.207-3.7695-18.016-10.492-5.6328-9.9414-2.1406-22.566 7.7969-28.195l52.551-29.781c9.9375-5.6406 22.562-2.1445 28.195 7.7969 5.6328 9.9414 2.1406 22.566-7.7969 28.195l-52.547 29.785c-3.2227 1.8242-6.7266 2.6914-10.184 2.6914zm124.79 4.8164-52.551 29.777c-3.2227 1.8242-6.7227 2.6914-10.18 2.6914-7.2109 0-14.207-3.7734-18.016-10.492-5.6328-9.9414-2.1406-22.566 7.8008-28.195l52.551-29.777c9.9375-5.6328 22.562-2.1406 28.195 7.7969 5.6328 9.9453 2.1406 22.57-7.8008 28.199zm105.06 91.996c-2.3594 0.87109-4.7773 1.2812-7.1562 1.2812-8.418 0-16.328-5.1758-19.41-13.531l-24.273-65.812c-3.9531-10.719 1.5312-22.613 12.25-26.566 10.715-3.957 22.613 1.5312 26.566 12.25l24.273 65.812c3.957 10.719-1.5273 22.613-12.25 26.566zm65.062-7.5078c-2.3594 0.87109-4.7773 1.2812-7.1562 1.2812-8.418 0-16.328-5.1758-19.41-13.531l-24.273-65.812c-3.9531-10.719 1.5312-22.613 12.25-26.566 10.711-3.957 22.613 1.5312 26.566 12.25l24.273 65.812c3.9531 10.719-1.5312 22.613-12.25 26.566zm87.934-18.406c-13.82 0-25.023-11.203-25.023-25.023 0-13.816 11.203-25.023 25.023-25.023 13.82 0 25.023 11.203 25.023 25.023-0.003906 13.816-11.207 25.023-25.023 25.023z"/>
 <path d="m1156.4 137.33c-101.42 45.266-115.6 116.7-133.33 206.06-15.402 77.625-32.859 165.61-115.68 243.55-80.66 75.906-213.45 131.31-404.5 168.5 27.176 11.508 52.273 25.688 74.637 42.379 78.91 58.887 120.62 145.67 120.62 250.97 0 8.8633-1.0039 18.223-2.8906 27.844 69.551-78.328 158.66-192.03 244.23-313.63 157.83-224.27 255.88-407.58 255.88-478.38 0.027344-56.797-13.051-106.05-38.957-147.3zm-404.17 744.98c-1.6641 0.41016-3.332 0.60547-4.9688 0.60547-9.293 0-17.742-6.3086-20.066-15.738l-18.516-75.07c-2.7344-11.094 4.0391-22.301 15.129-25.039 11.09-2.7266 22.301 4.0352 25.039 15.133l18.516 75.07c2.7344 11.09-4.043 22.301-15.133 25.039zm64.812-16.516c-1.6641 0.41016-3.332 0.60547-4.9688 0.60547-9.293 0-17.742-6.3086-20.066-15.738l-18.52-75.07c-2.7344-11.094 4.0391-22.301 15.129-25.039 11.09-2.7266 22.301 4.0352 25.039 15.133l18.52 75.07c2.7344 11.094-4.043 22.301-15.133 25.039z"/>
</svg>
