<?xml version="1.0" encoding="UTF-8"?>
<svg xmlns="http://www.w3.org/2000/svg" version="1.1" viewBox="0 0 3560.6 2849">
  <!-- Generator: Adobe Illustrator 29.5.0, SVG Export Plug-In . SVG Version: 2.1.0 Build 137)  -->
  <defs>
    <style>
      .st0 {
        fill: none;
        stroke: #11b738;
        stroke-miterlimit: 10;
        stroke-width: 8px;
      }

      .st1 {
        fill: #ab7f6b;
      }
    </style>
  </defs>
  <g id="burrito">
    <path class="st1" d="M547.8,1161.5c1.5-2.6.9-5.9-1.4-8.2-1.5-1.5-3.4-2.3-5-3.1-2.2-1-3.3-1.6-3.6-2.5.2-.2,1-.6,2.2-.7,2.5-.2,4.9-.5,7.3-.9,1.6-.2,3.3-.5,4.9-.7,4-.4,7.9-1.5,11.3-3,4.5-2,6.7-5.1,6.6-9.1,0-2.6-1-6.6-3.6-9.1-.8-.9-1.9-1.4-2.8-1.4-2.6-.3-4.1,1.7-4.7,2.5l-.2.3c-.4.5-1,1-1.6,1.4-1.2.9-2.6,1.4-4.1,1.7-3.9.8-9.7,0-11.9-2.3-.5-.5-.5-1.3-.4-1.8.1-1.2.9-2.3,1.8-2.9,1.9-1.2,4.8-1.2,7.9,0,1.2.4,3.6,1.4,5.9-.3,2.1-1.6,2.5-4.4,1-7.4-3.1-6.1-9.4-10.2-16.2-11.2,1.6-1.4,2.3-3.3,1.9-5.3-.6-2.9-3.3-4.1-4-4.5-3.6-1.9-7.3-3.6-11.4-4.3-1.8-.3-3.6-.4-5.4-.2.1-.3.2-.7.3-1,1.2-3.8.6-8.7-3.1-11.1-4-2.6-9-.6-11.7,2.5-1.5,1.7-2.5,3.7-3.3,5.5-.4.8-.8,1.6-1.2,2.3-2.5,4.2-6.5,6.9-9.4,8.3-1.6.8-3.4,1.4-5.3,2-1.8-1.1-4-1.7-6.3-1.4-33.9,3.4-68.8,10.3-106.7,21.1-7.4,2.1-12.3,9.3-11.5,17,.8,8.2,1.8,16.3,3.1,24.2.9,5.5,3.6,10.4,7.7,14s2.8,2.2,4.4,3.1c1.2.7,2.4,1.2,3.6,1.6,21,12,75.8,7.5,119.2-3.2,4-1,6.9-3.9,8-7.8.9-.5,1.8-1,2.6-1.5l1.2-.8c1.5-1,3-1.9,4.5-2.4,2.5-1,5.6-1.1,8.3-1.2,2.2,0,4.4-.2,6.2.6.7.3,1.4.8,2.2,1.3.9.6,1.9,1.3,3.1,1.9,3.2,1.5,7.8,1.1,9.8-2.4h0ZM536.2,1131.1c4.5,4.8,13.3,5.2,18,4.2,2.4-.4,4.6-1.4,6.6-2.8.8-.5,1.5-1.1,2.1-1.7.3.8.5,1.8.6,2.7,0,.7,0,1.7-2.7,2.9-2.8,1.3-5.9,2.1-9.2,2.5-1.7.2-3.5.4-5.2.7-2.3.3-4.6.7-6.8.8-1.1,0-3.3.4-5.2,1.7-6.7,2.5-11.8,2-16.1-1.5,0-1.9,0-3.8-.4-5.7,4.7-4.1,10.1-7.3,16.3-9.6,0,2.2.8,4.1,2.2,5.7h0ZM486.5,1118.1c6.5-1,13.1.9,18,5.2,8.9,8,9.6,21.7,1.7,30.6-10.1-9.1-21-16.6-32.5-22.3,4.6-4.4,8.9-8.9,12.9-13.5h0ZM500.5,1113.2c-1.6-1.4-1.7-3.9-.3-5.5s3.9-1.7,5.5-.3,1.2,1.7,1.3,2.7-.3,2-1,2.8c-1,1.1-2.6,1.5-4,1.1-.2-.1-.5-.2-.7-.3-.3-.1-.6-.3-.8-.5h0ZM511.2,1121c-.8-.9-1.5-1.7-2.4-2.5s-1.5-1.3-2.3-1.9c.7-.4,1.4-.9,2-1.5s.2-.3.4-.5c.2.2.3.4.5.6,1.3,1.2,2.9,1.7,4.6,1.8,0,1-.2,2.1-.9,2.8s-1.1.9-1.7,1.1h0ZM511.5,1112.8c-.8-.7-1.2-1.7-1.3-2.7s.3-2,1-2.8c1.4-1.6,3.9-1.7,5.5-.3s1.7,3.9.3,5.5-3.9,1.7-5.5.3h0ZM508.9,1090.2c.5-.9,1-1.8,1.4-2.7.7-1.5,1.4-3,2.4-4.1,1-1.2,2.5-1.7,3.2-1.2.7.4.9,2.1.4,3.6-.3,1-.8,1.9-1.2,3-.7,1.5-1.4,3-1.8,4.8-.3,1.4.3,2.8,1.4,3.5,1.2.7,2.7.7,3.8-.2,1.9-1.5,4.8-2.1,8-1.5,3,.5,5.8,1.8,8.9,3.4-1.9.7-3.8,1.1-5.8,1.3-.9.1-2.3.3-3.6,1.5-1.2,1.2-1.6,2.9-1.2,4.5.5,1.9,2,3.5,4,4.1,2,.5,3.8,0,5.1-.4l.6-.2c5.4-1.5,11.8.8,15.3,5.1-4.1-1-8-.4-11,1.5-.4.3-.8.6-1.2,1-8.5,2.3-15.7,5.9-21.9,10.8-.7-1.6-1.5-3.1-2.5-4.5.8-.4,1.5-.9,2.1-1.6,1.4-1.6,2-3.6,1.7-5.7.9-.4,1.7-1,2.3-1.7,2.6-2.9,2.4-7.5-.5-10.1s-7.5-2.4-10.1.5-.2.3-.4.5c-.2-.2-.3-.4-.5-.6-2.9-2.6-7.5-2.4-10.1.5s-2.2,4.2-1.6,6.5c-1.4-.3-2.9-.5-4.3-.6,1.7-2.6,2-5.7,1.1-8.6,1.4-.5,2.7-1,3.9-1.6,5.3-2.6,9.5-6.4,12.2-10.9h0ZM373.6,1157.1c-1.3-7.7-2.3-15.7-3.1-23.8-.4-4.6,2.4-8.8,6.8-10.1,6.2-1.8,12.2-3.4,18.3-4.9.5,4.2,2.3,11.1,7.9,17.5,0,0,0,0,.1.1.6.5,1.5.6,2.2,0,.7-.6.7-1.6.1-2.3-5.3-6-6.7-12.6-7.1-16.2,11.3-2.9,22.4-5.4,33.2-7.5,0,4,.4,10.1,3.1,14.3,0,.1.2.3.3.4.5.5,1.3.6,2,.2.8-.5,1-1.5.5-2.3-2.4-3.8-2.6-9.7-2.6-13.2,16.2-3.1,32-5.4,47.5-7,1.3-.1,2.1.3,2.7.9s.7.8.8,1c.3.5,1.1,2.2-.3,4-1.3,1.7-2.7,3.4-4.1,5.1h0c-19.3,23.2-47.6,42.4-84.2,57.3-5,2-10.6,1.7-15.3-1-4.7-2.7-7.9-7.2-8.8-12.5h0ZM500.4,1167.4c-8.5,2.1-17.5,3.9-26.7,5.5-2.4-4.4-7.3-13.9-9.5-22.3-.2-.9-1.1-1.4-2-1.2-.9.2-1.4,1.1-1.2,2,2.1,8.2,6.6,17.2,9.2,22-8,1.3-16,2.3-23.8,3-1.1-2.2-2.4-5.9-2.2-10.5,0-.9-.6-1.7-1.6-1.7-.9,0-1.7.6-1.7,1.6-.2,4.6.8,8.4,2,11-15.6,1.2-30.1,1.2-41.4-.6,26.6-11,48.9-24.3,66.7-39.7,12,5.7,23.5,13.4,34,23,1.3,1.2,1.9,3,1.4,4.7-.2.8-.9,2.7-3.3,3.3h0ZM535.5,1154.7c-3.1-1.4-6.4-1.3-9.1-1.2-3.1.1-6.9.3-10.4,1.6-1.5.6-2.9,1.3-4.2,2.1,2.3-2.9,4-6.1,5.1-9.5,4.3,2.5,9.2,3.1,14.7,2,.8,2.6,2.6,4.2,4.5,5.3-.2-.1-.4-.2-.6-.3h0ZM540.8,1158c-.6-.3-1.3-.8-2.1-1.3-.7-.5-1.4-1-2.2-1.4.7.4,1.5.7,2.1,1,1.1.5,2.3,1,3,1.6s.2.2.3.3c-.3,0-.7,0-1.1-.2h0Z"/>
    <path class="st1" d="M423.7,1150.8c0,.2.2.3.4.5.5.4,1.2.6,1.9.2.8-.4,1.1-1.4.7-2.2,0,0-3.5-6.7-1.8-14.8.2-.9-.4-1.8-1.3-1.9-.9-.2-1.8.4-1.9,1.3-1.9,9.3,1.9,16.7,2.1,17h0Z"/>
    <path class="st1" d="M488.3,1127.9s0,0,.1.1c.6.6,1.6.6,2.2,0,1.7-1.5,3.4-3,5-4.2.7-.6.8-1.6.3-2.3-.6-.7-1.6-.8-2.3-.3-1.7,1.3-3.4,2.8-5.2,4.4-.7.6-.7,1.6-.1,2.3h0Z"/>
    <path class="st1" d="M496.3,1134.9c.2.2.6.4.9.4,3.3.4,6.5.2,9.7-.5.9-.2,1.4-1.1,1.2-2s-1.1-1.4-2-1.2c-2.8.6-5.7.8-8.6.5-.9-.1-1.7.5-1.8,1.4,0,.5.2,1.1.5,1.4h0Z"/>
    <path class="st1" d="M498.7,1142.8c-.5.7-.4,1.6.2,2.2s0,0,.1,0c1.5,1.1,3.1,2.1,4.8,3,.8.4,1.8,0,2.2-.7.4-.8,0-1.8-.7-2.2-1.5-.8-3-1.7-4.3-2.7-.7-.5-1.8-.4-2.3.3h0Z"/>
  </g>
  <g id="line">
    <path class="st0" d="M304.1,1010c31.7,131.9,330.9,266.4,611.2,95,280.4-171.5,270.8-245.3,538-224.2"/>
  </g>
</svg>