<?xml version="1.0" encoding="UTF-8"?>
<svg width="1200pt" height="1200pt" version="1.1" viewBox="0 0 1200 1200" xmlns="http://www.w3.org/2000/svg">
 <path d="m978.19 667.08c-29.109-7.4062-58.875-12.047-88.875-13.922-9.2812-0.75-16.781-7.9219-17.906-17.203-13.828-111.23-102.66-272.81-206.63-289.78-109.73-17.906-212.81 73.547-234 151.18-6.2812 23.016-21.188 49.969-31.172 48.328-9.9375-1.6406-8.7188-20.156-8.7188-20.156s-8.7656-163.22-116.86-244.26c-10.078 29.297-17.156 59.531-21.047 90.281-0.23438 1.6875-1.5469 3.0938-3.2344 3.4688-1.7344 0.375-3.4688-0.375-4.4062-1.8281-16.266-25.828-35.203-49.875-56.438-71.766-8.0156 39.047-12.094 78.797-12.188 118.69-17.625 10.547-31.734 26.156-40.406 44.766-1.125 2.4375-2.3438 4.875-3.5625 7.2656v0.046875c-0.5625 0.9375-1.5469 1.5-2.625 1.5469-4.6406 1.0312-9.2812 2.2969-13.781 3.8438-6.5625 2.4375-12.375 6.5625-16.828 11.953-4.5469 6.2812-6.7031 14.016-6 21.703 1.7344 29.25 30.047 77.344 67.031 86.812 1.4062 0.70312 60.281 7.6406 46.547 139.03-0.60938 6.4219-4.125 12.188-9.5156 15.703-9.375 5.8594-19.547 10.406-30.141 13.547-68.625 21.094-109.88 37.031-107.34 67.5 1.5938 19.266 84.188 12.469 169.87-3.2812 9.0469-1.6406 18.328 0 26.25 4.6406-76.547 22.875-121.82 32.531-118.83 68.625 3.3281 39.609 275.86-7.4062 399-49.078h0.046875c58.875-14.953 112.78-45.141 156.32-87.516 0 0 94.688-1.1719 146.86-42.188 6.6562-5.2969 15-7.9688 23.484-7.5469 32.812 1.0781 65.391 5.5312 97.312 13.266 40.453 11.531 77.062 33.75 105.89 64.406 3.0938 3.7969 4.1719 8.8594 2.9531 13.594-1.1719 4.7344-4.5469 8.625-9.0938 10.5-23.578 10.219-85.266 23.766-241.4 10.172l0.046876 0.046875c-9.8906-0.84375-19.641 2.7656-26.578 9.8906s-10.266 16.969-9.1406 26.859c2.0625 15.797 15 28.031 30.938 29.156 45.469 3.9375 85.875 5.9062 121.45 5.9062 128.39 0 193.82-25.781 203.48-78.938 12.281-67.594-87.281-134.72-160.78-155.26z"/>
</svg>
