<?xml version="1.0" encoding="UTF-8"?>
<svg width="1200pt" height="1200pt" version="1.1" viewBox="0 0 1200 1200" xmlns="http://www.w3.org/2000/svg">
 <path d="m139.6 904.6c-55.828-16.172-91.688-51.562-99.422-98.156-9.8906-59.391 36.891-90.797 145.4-97.688 82.547-5.25 108.33-19.875 126.32-71.812 17.531-50.484 45.375-84.328 94.688-115.03 79.641-49.594 137.29-58.078 232.31-34.172 79.219 19.922 105.7 16.406 133.22-17.578 24.656-30.469 25.969-35.25 23.531-88.266-2.3438-51.281 3.1875-68.766 21.75-68.766 6.6562 0 47.625 20.156 67.688 33.281 8.9062 5.8125 9.7969 5.25 39-25.172 45.281-47.156 63.328-43.219 68.484 15.047 2.1562 24.188 4.0312 29.906 12.094 36.562 5.25 4.3125 15.094 17.297 21.891 28.781 10.312 17.484 14.156 20.953 23.531 21.234 18.891 0.51562 19.781 1.125 26.156 17.062 19.125 47.812-1.0312 95.953-55.125 131.81-50.109 33.234-69.516 88.5-41.016 117 9.6562 9.6562 11.484 9.9375 76.266 12.234 57.844 2.0625 68.391 3.4219 82.359 10.688 30.891 16.125 29.625 48.938-2.6719 67.922-12.469 7.3125-21.75 7.9688-145.78 10.125-72.844 1.2656-193.82 4.5-268.78 7.1719-138.52 4.9219-148.6 4.7812-453.05-7.6875-78.047-3.1875-92.578-2.9062-108.14 2.25-35.109 11.672-25.172 29.25 22.5 39.891 42.75 9.5156 56.484 17.859 57.938 35.203 3.2344 37.734-42.75 55.031-101.11 38.109z"/>
</svg>
