<?xml version="1.0" encoding="UTF-8"?>
<svg width="1200pt" height="1200pt" version="1.1" viewBox="0 0 1200 1200" xmlns="http://www.w3.org/2000/svg">
 <path d="m1123.2 472.78c-22.781-13.219-62.391-91.219-72-100.78-8.3906-8.3906-60-28.781-60-28.781l-28.781-91.219c-56.391 7.2188-90 96-91.219 103.22 0 0-6 156-254.39 94.781-177.61-43.219-285.61-85.219-375.61-1.2188-6-9.6094-9.6094-19.219-12-30-4.7812-19.219-6-40.781-6-66v-38.391c0-28.781-1.2188-60-8.3906-92.391-7.2188-33.609-21.609-68.391-46.781-103.22-10.781-15.609-31.219-19.219-46.781-8.3906-14.484 9.6094-18.047 31.219-7.2656 45.609 19.219 27.609 30 54 36 79.219s7.2188 51.609 7.2188 78v38.391c0 26.391 1.2188 54 8.3906 82.781 6 22.781 16.781 45.609 32.391 67.219-69.609 109.22-31.219 225.61-31.219 225.61l-72 114c-1.2188 2.3906-2.3906 4.7812-2.3906 7.2188l-32.391 169.18c-1.2188 7.2188 2.3906 14.391 8.3906 19.219l86.391 58.781c2.3906 1.2188 3.6094 1.2188 6 1.2188s3.6094-2.3906 4.7812-3.6094l18-37.219c1.2188-2.3906 1.2188-6-1.2188-8.3906l-22.781-24c-4.7812-4.7812-6-12-4.7812-18l37.219-128.39c1.2188-3.6094 3.6094-7.2188 7.2188-9.6094l50.391-36c7.2188-4.7812 15.609-4.7812 22.781 0 7.2188 4.7812 9.6094 14.391 6 21.609l-22.781 56.391c-2.3906 6-1.2188 13.219 2.3906 19.219l127.22 154.78h94.781c4.7812 0 7.2188-3.6094 7.2188-7.2188v-48c0-4.7812-3.6094-7.2188-7.2188-7.2188h-30c-7.2188 0-13.219-3.6094-16.781-9.6094l-49.219-89.953c-3.6094-6-2.3906-14.391 1.2188-20.391l46.781-61.219c3.6094-4.7812 9.6094-7.2188 15.609-7.2188h128.39c6 0 12 2.3906 15.609 8.3906 3.6094 4.7812 4.7812 10.781 2.3906 16.781l-42 130.78c-1.2188 3.6094-1.2188 8.3906 0 13.219l26.391 68.391h82.781v-18l-13.219-43.219c-1.2188-3.6094-1.2188-8.3906 0-12l56.391-151.22c2.3906-7.2188 9.6094-12 18-12l57.656 0.09375c4.7812 0 9.6094 2.3906 13.219 6l158.39 218.39h108c26.391 0 16.781-54-8.3906-56.391-48-4.7812-109.22-139.22-136.78-186-26.391-46.781 51.609-192 111.61-199.22 60-7.2188 91.219-31.219 100.78-64.781 16.781-21.609 19.172-66-3.6094-79.219z"/>
</svg>
