<?xml version="1.0" encoding="utf-8"?>
<!-- Generator: Adobe Illustrator 24.1.0, SVG Export Plug-In . SVG Version: 6.00 Build 0)  -->
<svg version="1.1" id="Layer_1" xmlns="http://www.w3.org/2000/svg" xmlns:xlink="http://www.w3.org/1999/xlink" x="0px" y="0px"
	 width="371px" height="235px" viewBox="0 0 371 235" style="enable-background:new 0 0 371 235;" xml:space="preserve">
<style type="text/css">
	.st0{fill:#C6EC60;}
	.st1{fill:#B4E450;}
	.st2{fill:#C4EF54;}
	.st3{fill:none;stroke:#000000;stroke-width:6;stroke-linecap:round;stroke-linejoin:round;}
</style>
<g id="background" transform="matrix( 1, 0, 0, 1, 0,0) ">
	<g>
		<g id="Layer4_0_FILL">
			<path class="st0" d="M312.9,212.5c37.4-13.7,56.1-34.2,56.1-61.5c0-27.3-17.9-59.2-53.7-95.5C279.5,19.2,236.2,1.7,185.5,3
				c-50.7,1.3-94,19.5-129.8,54.5C19.9,92.5,2,123.7,2,151c0,27.3,17,47.5,51.1,60.5c34.1,13,76.5,19.8,127.4,20.5
				C231.4,232.7,275.5,226.2,312.9,212.5z"/>
		</g>
	</g>
</g>
<g id="foreground" transform="matrix( 1, 0, 0, 1, 0,0) ">
	<g>
		<g id="Layer3_0_FILL">
			<path class="st1" d="M339.2,158c0.4-2.2,0.6-4.4,0.6-6.8c0.4-22.7-13.7-47.6-42.2-74.6c-28.5-27-64.3-41-107.4-42.2
				c-43.1-1.2-80.4,12.3-112.1,40.5c-31.6,28.2-47.4,53.3-47.4,75.3c0,2.7,0.2,5.3,0.7,7.8c2.1,12.4,9.4,22.8,21.9,31
				c5.7,3.8,12.6,7.1,20.6,10c28.8,10.5,64.1,17,106,19.5c41.9,2.6,79-2.3,111.1-14.6c11.3-4.3,20.6-9.3,28-14.9
				C330.5,180.2,337.3,169.9,339.2,158z"/>
		</g>
	</g>
</g>
<g id="glare_x5F_left">
	<path class="st2" d="M77,137.6c0,1.5,0.5,2.8,1.6,3.9c1.1,1.1,2.4,1.6,3.9,1.6s2.8-0.5,3.9-1.6c1.1-1.1,1.6-2.4,1.6-3.9
		c0-1.5-0.5-2.8-1.6-3.9c-1.1-1.1-2.4-1.6-3.9-1.6s-2.8,0.5-3.9,1.6C77.5,134.7,77,136,77,137.6"/>
	<path class="st2" d="M89.9,126.6c0,0.8,0.3,1.5,0.9,2.1c0.6,0.6,1.2,0.8,2.1,0.8c0.8,0,1.5-0.3,2.1-0.8c0.6-0.6,0.8-1.3,0.8-2.1
		c0-0.8-0.3-1.5-0.8-2.1c-0.6-0.6-1.3-0.9-2.1-0.9c-0.8,0-1.5,0.3-2.1,0.9S89.9,125.8,89.9,126.6"/>
	<path class="st2" d="M86.8,106.2c-2.1-2.1-4.7-3.2-7.8-3.2s-5.6,1.1-7.8,3.2c-2.1,2.2-3.2,4.8-3.2,7.8c0,3,1.1,5.6,3.2,7.8
		c2.2,2.2,4.8,3.2,7.8,3.2s5.6-1.1,7.8-3.2c2.2-2.1,3.2-4.7,3.2-7.8C90,111,88.9,108.4,86.8,106.2"/>
	<path class="st2" d="M105.1,98.4c-1.6-1.6-3.5-2.4-5.8-2.4s-4.2,0.8-5.9,2.4c-1.6,1.6-2.4,3.6-2.4,5.9c0,2.3,0.8,4.2,2.4,5.8
		c1.6,1.6,3.6,2.4,5.9,2.4s4.2-0.8,5.8-2.4c1.6-1.6,2.4-3.5,2.4-5.8C107.5,102,106.7,100.1,105.1,98.4"/>
</g>
<g id="glare_x5F_right">
	<path class="st2" d="M301,158.9c-0.6,0.6-1,1.4-1,2.3s0.3,1.7,1,2.3c0.6,0.6,1.4,0.9,2.3,0.9s1.7-0.3,2.3-0.9c0.6-0.6,1-1.4,1-2.3
		s-0.3-1.7-1-2.3c-0.6-0.6-1.4-0.9-2.3-0.9S301.6,158.3,301,158.9"/>
	<path class="st2" d="M284.8,157.5c1.6,0,2.9-0.6,4-1.7c1.1-1.1,1.7-2.5,1.7-4.1s-0.6-3-1.7-4.1c-1.1-1.1-2.4-1.6-4-1.6
		s-3,0.6-4.1,1.6c-1.1,1.1-1.6,2.5-1.6,4.1s0.6,2.9,1.6,4.1C281.8,156.9,283.1,157.5,284.8,157.5"/>
	<path class="st2" d="M310.2,122c-3.7,0-6.8,1.3-9.4,3.9c-2.6,2.6-3.9,5.7-3.9,9.4s1.3,6.8,3.9,9.4c2.6,2.6,5.7,3.9,9.4,3.9
		s6.8-1.3,9.4-3.9c2.6-2.6,3.9-5.7,3.9-9.4s-1.3-6.8-3.9-9.4C317,123.3,313.9,122,310.2,122"/>
	<path class="st2" d="M270.5,123.6c-1,1-1.5,2.3-1.5,3.7s0.5,2.7,1.5,3.7c1,1,2.3,1.6,3.7,1.6s2.7-0.5,3.7-1.6c1-1,1.5-2.3,1.5-3.7
		s-0.5-2.7-1.5-3.7c-1-1-2.3-1.6-3.7-1.6S271.6,122.5,270.5,123.6z"/>
</g>
<path id="smile" class="st3" d="M160.9,155.4c17.8,15.4,34.9,15.4,51.1,0"/>
<path id="eye_x5F_left" d="M159.1,117.1c-4.5,0-8.3,1.6-11.5,4.7c-3.1,3.2-4.7,7-4.7,11.4c0,3.3,0.8,6.2,2.5,8.8
	c0.9-0.7,1.9-1.2,2.9-1.7c2.8-1.4,6-2.1,9.4-2.1c4.1,0,7.8,1,11.1,3c1,0.6,2,1.4,2.9,2.2c2.4-2.9,3.6-6.3,3.6-10.2
	c0-4.5-1.6-8.3-4.8-11.4C167.4,118.6,163.6,117.1,159.1,117.1"/>
<path id="eye_x5F_right" d="M220.7,115.1c-4.5,0-8.3,1.6-11.5,4.7c-3.1,3.2-4.7,7-4.7,11.4c0,3.3,0.8,6.2,2.5,8.8
	c0.9-0.7,1.9-1.2,2.9-1.7c2.8-1.4,6-2.1,9.4-2.1c4.1,0,7.8,1,11.1,3c1,0.6,2,1.4,2.9,2.2c2.4-2.9,3.6-6.3,3.6-10.2
	c0-4.5-1.6-8.3-4.8-11.4C229,116.6,225.2,115.1,220.7,115.1z"/>
</svg>
