<?xml version="1.0" encoding="UTF-8"?>
<svg width="1200pt" height="1200pt" version="1.1" viewBox="0 0 1200 1200" xmlns="http://www.w3.org/2000/svg">
 <path d="m496.13 342.24c-4.5 8.4375-7.7812 17.531-9.9375 26.906 74.438-16.734 153.14-16.781 227.68 0-2.1562-9.375-5.4375-18.469-9.9375-26.859-20.203-37.641-60-61.031-103.88-61.031s-83.672 23.391-103.88 60.984z"/>
 <path d="m1053.7 634.03c6.4688-7.6875 12-16.125 16.125-25.266 17.672-38.391 11.812-82.594-15.234-115.55-24.188-29.25-61.312-44.719-99.375-42.328-1.125 13.5-4.3125 26.672-9.2344 39.469 3.0469 2.8125 72.562 61.359 107.72 143.68z"/>
 <path d="m744.24 340.45c4.875 12.516 7.8281 25.781 9.1406 39.234 58.312 18.047 113.62 46.781 161.81 84.281 2.3438-9.4688 3.4688-19.125 3.0938-29.016-1.2188-41.906-26.438-79.359-65.906-97.922-34.922-16.312-75.094-14.719-108.09 3.4219z"/>
 <path d="m145.31 493.26c-27 32.906-32.859 77.109-15.234 115.41 4.1719 9.1875 9.7031 17.625 16.172 25.359 26.297-53.578 63.188-102.61 107.72-143.63-4.9219-12.797-8.1094-25.969-9.2344-39.469-38.109-2.4375-75.188 13.031-99.422 42.375z"/>
 <path d="m455.76 340.45c-33.047-18.141-73.219-19.688-108.14-3.4219-39.375 18.516-64.641 55.969-65.812 97.734-0.375 9.9844 0.75 19.688 3.0469 29.203 48.188-37.5 103.45-66.234 161.81-84.281 1.3125-13.453 4.2656-26.719 9.1406-39.234z"/>
 <path d="m912.79 237.84-29.062 73.875c37.406 22.969 62.766 59.766 69.938 101.72 49.688-2.9062 98.156 17.484 129.94 55.969 31.781 38.625 41.719 88.922 27.797 135.37 34.688 13.828 61.172 39.375 76.734 73.031 5.4375-28.875 11.906-72 11.906-115.27 0-75-58.078-93.75-58.078-93.75s18.562-38.25-4.0781-71.438c-38.719-56.25-92.719-41.062-92.719-41.062s12.375-60.938-45.656-98.438c-34.453-22.266-66.375-23.016-86.672-19.969z"/>
 <path d="m1161.9 714.71c-9.0938-35.906-32.625-62.719-65.766-75.609-7.125 11.812-15.984 22.594-26.156 32.062 18.562 47.156 29.391 96.75 31.969 147.84 43.125-15.562 59.531-45.188 59.906-104.34z"/>
 <path d="m98.016 819.05c2.625-51.094 13.406-100.64 31.969-147.84-10.172-9.4688-19.031-20.25-26.156-32.109-33.094 12.891-56.672 39.703-65.766 75.609 0.375 59.109 16.781 88.781 59.906 104.34z"/>
 <path d="m88.594 604.78c-11.156-37.172-6.6562-76.734 11.766-110.91l-62.578-13.688c-16.734 12.562-37.781 37.219-37.781 82.406 0 43.266 6.4219 86.391 11.906 115.27 15.562-33.609 42-59.156 76.734-73.031z"/>
 <path d="m86.062 963.74c7.3125-7.0781 11.344-16.406 11.344-26.25v-79.641c-51.609-15.094-80.906-44.766-91.594-94.594-4.2188 25.969-5.7656 54.094-5.7656 80.531v75c0 31.125 25.922 56.25 58.078 56.25 10.594 0 20.531-3.9844 27.984-11.25z"/>
 <path d="m618.74 245.02c43.406 5.1094 82.359 27.75 107.48 62.578 37.641-20.672 82.312-24.891 123.42-11.672l30.75-78.281c-10.078-16.828-30.328-37.734-71.203-49.828-63.281-18.75-112.45 19.688-112.45 19.688s-16.312-46.781-78-54.938z"/>
 <path d="m1065.1 937.5v-93.75c0-59.344-12.562-116.39-34.688-170.58-38.109-93.375-113.06-158.53-119.2-163.92-51.844-45.094-114.42-78.844-180.79-97.453-84.469-24-176.48-23.953-260.76 0-66.469 18.656-129 52.359-180.94 97.547-51.75 45.047-92.906 101.67-119.06 163.74-23.062 53.906-34.734 111.28-34.734 170.68v93.75c0 13.453-3.8906 26.203-10.641 37.5h951.56c-6.6094-11.062-10.688-23.766-10.688-37.5zm-737.02-281.26c15.516 0 28.125 12.609 28.125 28.125 0 15.516-12.609 28.125-28.125 28.125s-28.125-12.609-28.125-28.125c0-15.516 12.609-28.125 28.125-28.125zm0.89062 225c-21.281 0-38.719-16.875-38.719-37.5s17.438-37.5 38.719-37.5 38.719 16.875 38.719 37.5-17.438 37.5-38.719 37.5zm124.13-292.22c-15.047 14.578-39.703 14.578-54.75 0-15.047-14.578-15.047-38.438 0-53.016 15.047-14.578 39.703-14.578 54.75 0 15.047 14.578 15.047 38.438 0 53.016zm156.19-101.53c15.516 0 28.125 12.609 28.125 28.125s-12.609 28.125-28.125 28.125-28.125-12.609-28.125-28.125 12.609-28.125 28.125-28.125zm-18.75 393.74c-15.516 0-28.125-12.609-28.125-28.125s12.609-28.125 28.125-28.125 28.125 12.609 28.125 28.125-12.609 28.125-28.125 28.125zm36.75-142.22c-15.047 14.578-39.703 14.578-54.75 0-15.047-14.578-15.047-38.438 0-53.016 15.047-14.578 39.703-14.578 54.75 0 15.047 14.578 15.047 38.438 0 53.016zm244.5-82.781c15.516 0 28.125 12.609 28.125 28.125 0 15.516-12.609 28.125-28.125 28.125s-28.125-12.609-28.125-28.125c0-15.516 12.609-28.125 28.125-28.125zm-70.312-67.219c-15.047 14.578-39.703 14.578-54.75 0-15.047-14.578-15.047-38.438 0-53.016 15.047-14.578 39.703-14.578 54.75 0 15.047 14.578 15.047 38.438 0 53.016zm69.375 292.22c-21.281 0-38.719-16.875-38.719-37.5s17.438-37.5 38.719-37.5 38.719 16.875 38.719 37.5-17.438 37.5-38.719 37.5z"/>
 <path d="m124.6 460.74c31.594-32.672 76.031-50.016 121.74-47.344 8.0625-47.484 39.469-88.734 85.406-110.34 45.844-21.375 98.625-19.312 142.03 4.5 25.125-34.828 64.078-57.469 107.53-62.578v-112.41c-61.734 8.1562-78 54.938-78 54.938s-49.172-38.438-112.45-19.688c-76.266 22.5-81.094 75.938-81.094 75.938s-51.094-23.438-109.17 14.062c-58.078 37.5-45.656 98.438-45.656 98.438s-54-15.188-92.719 41.062c-11.156 16.312-12.281 33.844-10.594 47.438l73.031 15.984z"/>
 <path d="m1102.6 857.86v79.641c0 20.672 17.625 37.5 39.328 37.5 16.078 0 30.562-6.375 41.016-16.5s17.016-24.188 17.016-39.75v-75c0-26.391-1.5469-54.562-5.7656-80.531-10.734 49.828-40.031 79.547-91.594 94.594z"/>
</svg>
