<svg id="Layer_1" data-name="Layer 1" xmlns="http://www.w3.org/2000/svg" width="765.97" height="562.35" viewBox="0 0 765.97 562.35"><title>bus1</title><path d="M516.63,304.18C546.5,304,576.37,304,606.25,304h0c1.34-2.78,1.33-5.8,1.27-8.75-0.12-5.65-2.11-7.49-7.79-7.51-9.11,0-18.22.05-27.33,0-10.18-.07-20.36-0.24-30.53-0.37L509,287.18h0c-9.47,0-18.95,0-28.42.13-5.68.08-8.21,2.85-7.8,8.46,0.21,2.82.81,5.61,1.24,8.42l0.17,0.17c1.38,0.65,11-.08,12-0.13a54.26,54.26,0,0,1,9.52.35,1.82,1.82,0,0,1,1.17.27l0.14-.05c0.7,3.81-.41,7.8.73,11.57l1.09,0V304.75C504.73,303.54,510.7,304.2,516.63,304.18Z" fill="#544737"/><path d="M561.75,309.42q1.28-1.24.33-.58a0.65,0.65,0,0,0-.44.89A2.14,2.14,0,0,0,561.75,309.42Z" fill="#fcfcfa"/><path d="M606.25,304c-29.87,0-59.75,0-89.62.17-5.93,0-11.9-.64-17.8.57,0.09,3.08.25,6.15,0.25,9.23,0,1.81.54,2.86,2.55,2.55l0.21-.11c0-.08,0-0.15,0-0.23-0.08-4.3,3.9-7.83,8.07-8,4.45-.13,9.35,4.47,9.12,9a3.39,3.39,0,0,0,.44.24,9.06,9.06,0,0,0,3.27.49h0.21c1.72,0,3.43,0,5.15,0,13-.29,26.12-0.95,39.09-0.27a8.69,8.69,0,0,0,2.83-.16,3,3,0,0,0,1-.53,5.48,5.48,0,0,1,.59-3.55c3.67-7.19,14.44-6.38,16.26,1.7a6.81,6.81,0,0,1,.16,1.33l0.16,0.09c4.74,0,9.48,0,14.21-.06,1.27,0,3.29.4,3.35-1.37,0.14-3.71,2-7.37.47-11.14h0Zm-66.84,7.88a2.17,2.17,0,0,1,1.34.61c0.65,0.78.42,2.28,0.16,3.18a2.68,2.68,0,0,1-1.44,1.81h-1a2.56,2.56,0,0,1-1.49-2.44,0.85,0.85,0,0,1,1.7-.1c0.19,1.71,1.21-.73.7-1.28a7.57,7.57,0,0,0-1.39-.4,2.32,2.32,0,0,1-.94-2.63,2.4,2.4,0,0,1,1.71-2.12,2.59,2.59,0,0,1,2.59,1.08,0.85,0.85,0,0,1-1.42.95c-0.51-.84-1.18-0.12-1.21.44C538.58,312.14,538.87,311.72,539.41,311.89Zm-5.49-1.78a0.85,0.85,0,0,1,1.7-.1,43.94,43.94,0,0,1,.11,6.6c-0.06,1.08-1.77,1.2-1.7.1A43.94,43.94,0,0,0,533.91,310.1Zm-3.76,7.47a7.19,7.19,0,0,0,1.49-5.15,12.2,12.2,0,0,0-.08-1.25,1.68,1.68,0,0,0-2.08-1.27,7.33,7.33,0,0,0-1.64.06,7.57,7.57,0,0,1,.77,2.3c0.33,1.75.58,3.53,0.83,5.3l-1.73,0-0.51-3.37c-0.24-1.56-.3-3.32-1.67-4.33-0.76-.56,0-1.58.75-1.44a0.91,0.91,0,0,1,.24-0.05c2.9-.2,6.2-1.07,6.74,2.67a10.37,10.37,0,0,1-1,6.48Zm17.42-.17a7,7,0,0,1-.88-2.91c-0.12-1.41.42-3.16,0-4.53s-1.75-.95-2,0.2a9.8,9.8,0,0,0,0,2.29A41.55,41.55,0,0,0,545,317a0.77,0.77,0,0,1-.06.42H543.4a0.88,0.88,0,0,1-.11-0.33,38.2,38.2,0,0,1-.26-7.5c0.11-1.56.87-2.06,2.44-2.15,5-.29,1.94,6.42,3.64,9.21a0.81,0.81,0,0,1,.08.71Zm4.74,0c-0.84-.55-1.16-1.79-1.49-2.71a36.18,36.18,0,0,1-1.18-3.77,7.21,7.21,0,0,1-.42-2.64c0.36-1.76,2.66-1,3.95-1,1.08,0.07,1.2,1.77.1,1.7-0.77-.05-1.6-0.17-2.4-0.15a9.78,9.78,0,0,0,.86,3.4,3.07,3.07,0,0,0,1.41-.76,0.87,0.87,0,0,1,1.2-.07,0.86,0.86,0,0,1,.07,1.2,4.81,4.81,0,0,1-2.1,1.23c0.2,0.7.54,2,.95,2.12a3,3,0,0,0,1.24-.32,0.85,0.85,0,0,1,1.52.77,2.16,2.16,0,0,1-1.14.94Zm8-.08a15.11,15.11,0,0,0-.2-2.18c-0.12-1.11-.2-2.21-0.21-3.32a7.76,7.76,0,0,1-4.53-4.25c-0.45-1,1.17-1.54,1.61-.55a6.43,6.43,0,0,0,3,3.08c0-.3,0-0.61.07-0.91,0.21-1.72,1.84-4.38,3.62-2.27,1.41,1.67.19,5-2,5.1h0a50.4,50.4,0,0,1,.4,5.28Z" fill="#fcfcfa"/><path d="M580.23,287.37c-2.08-6.17-5.11-8.81-11.49-8.61-16.27.51-32.57,0.15-48.85,0.12-6.68,0-8.85,1.6-10.9,8.3h0l32.89,0.19h38.36Z" fill="#f9f8f0"/><path d="M495.7,304.57a54.26,54.26,0,0,0-9.52-.35c-1,.05-10.63.78-12,0.13a0.24,0.24,0,0,1-.17-0.17c0.25,2.95.67,5.89,0.7,8.84,0,2.3.59,3.52,3.17,3.47,5.4-.1,10.8-0.06,16.2,0,2.14,0,2.85-.84,2.81-2.87,0-1.8,0-3.6.08-5.4,0-.9,0-1.8,0-2.7a1.26,1.26,0,0,0-.14-0.74A1.82,1.82,0,0,0,495.7,304.57Zm-14.52,7.26a1.85,1.85,0,0,1-2.33,1.6,1.67,1.67,0,0,1-1.62-1.9c0.06-1.34.89-1.83,2.14-1.79S481.37,310.51,481.18,311.83Z" fill="#fdfeff"/><path d="M571.64,313.46a5.48,5.48,0,0,0-.59,3.55c0.63,4.29,5.94,7.78,10.21,7.05,3.78-.65,6.89-3.79,6.8-7.57a6.81,6.81,0,0,0-.16-1.33C586.09,307.07,575.31,306.26,571.64,313.46Zm8.3,6.33a3.63,3.63,0,0,1-4.1-3.59c-0.23-2.49,1.4-3.85,3.69-3.91s3.64,1.5,3.92,4C583.27,318.32,582.27,319.71,579.94,319.78Z" fill="#514434"/><path d="M509.89,308.23c-4.17.12-8.15,3.66-8.07,8,0,0.08,0,.15,0,0.23s0,0.07,0,.1c0.32,4.8,5.1,8.09,9.69,7.48,3.11-.41,7.07-3,7.47-6.32,0-.13,0-0.27,0-0.4C519.25,312.69,514.35,308.09,509.89,308.23Zm1.28,11.62c-3.11-.07-4.44-1.68-4.56-3.86-0.13-2.4,1.62-3.74,3.93-3.68a3.57,3.57,0,0,1,3.7,4A3.35,3.35,0,0,1,511.17,319.85Z" fill="#514534"/><path d="M479.37,309.74c-1.24,0-2.08.45-2.14,1.79a1.67,1.67,0,0,0,1.62,1.9,1.85,1.85,0,0,0,2.33-1.6C481.37,310.51,480.64,309.86,479.37,309.74Z" fill="#e67e49"/><path d="M579.53,312.29c-2.29.06-3.91,1.42-3.69,3.91a3.63,3.63,0,0,0,4.1,3.59c2.32-.07,3.33-1.46,3.5-3.47C583.17,313.79,581.92,312.22,579.53,312.29Z" fill="#f6f1d7"/><path d="M510.55,312.31c-2.31-.06-4.06,1.28-3.93,3.68,0.11,2.18,1.45,3.79,4.56,3.86a3.35,3.35,0,0,0,3.07-3.54A3.57,3.57,0,0,0,510.55,312.31Z" fill="#f4edd7"/><path d="M533.26,311.07c-0.54-3.74-3.84-2.87-6.74-2.67a0.91,0.91,0,0,0-.24.05c-0.78-.14-1.51.88-0.75,1.44,1.37,1,1.43,2.78,1.67,4.33l0.51,3.37,1.73,0c-0.25-1.77-.5-3.55-0.83-5.3a7.57,7.57,0,0,0-.77-2.3,7.33,7.33,0,0,1,1.64-.06,1.68,1.68,0,0,1,2.08,1.27,12.2,12.2,0,0,1,.08,1.25,7.19,7.19,0,0,1-1.49,5.15l2.11,0A10.37,10.37,0,0,0,533.26,311.07Z" fill="#ef3d3c"/><path d="M535.73,316.6a43.94,43.94,0,0,0-.11-6.6,0.85,0.85,0,0,0-1.7.1,43.94,43.94,0,0,1,.11,6.6C534,317.8,535.67,317.69,535.73,316.6Z" fill="#ef3d3c"/><path d="M539.87,310.55a0.85,0.85,0,0,0,1.42-.95,2.59,2.59,0,0,0-2.59-1.08,2.4,2.4,0,0,0-1.71,2.12,2.32,2.32,0,0,0,.94,2.63,7.57,7.57,0,0,1,1.39.4c0.52,0.55-.51,3-0.7,1.28a0.85,0.85,0,0,0-1.7.1,2.56,2.56,0,0,0,1.49,2.44h1a2.68,2.68,0,0,0,1.44-1.81c0.26-.9.49-2.4-0.16-3.18a2.17,2.17,0,0,0-1.34-.61c-0.53-.16-0.82.25-0.75-0.9C538.69,310.43,539.37,309.7,539.87,310.55Z" fill="#ef3d3c"/><path d="M549.11,316.67c-1.7-2.8,1.38-9.51-3.64-9.21-1.57.09-2.32,0.59-2.44,2.15a38.2,38.2,0,0,0,.26,7.5,0.88,0.88,0,0,0,.11.33h1.53A0.77,0.77,0,0,0,545,317a41.55,41.55,0,0,1-.33-4.56,9.8,9.8,0,0,1,0-2.29c0.28-1.15,1.62-1.66,2-.2s-0.16,3.12,0,4.53a7,7,0,0,0,.88,2.91l1.62,0A0.81,0.81,0,0,0,549.11,316.67Z" fill="#ef3d3c"/><path d="M556,316.39a0.85,0.85,0,0,0-1.52-.77,3,3,0,0,1-1.24.32c-0.4-.14-0.75-1.42-0.95-2.12a4.81,4.81,0,0,0,2.1-1.23,0.86,0.86,0,0,0-.07-1.2,0.87,0.87,0,0,0-1.2.07,3.07,3.07,0,0,1-1.41.76,9.78,9.78,0,0,1-.86-3.4c0.79,0,1.63.1,2.4,0.15,1.09,0.07,1-1.63-.1-1.7-1.28-.08-3.58-0.8-3.95,1a7.21,7.21,0,0,0,.42,2.64,36.18,36.18,0,0,0,1.18,3.77c0.33,0.92.65,2.15,1.49,2.71l2.57,0A2.16,2.16,0,0,0,556,316.39Z" fill="#ef3d3c"/><path d="M561.6,312h0c2.17-.15,3.4-3.43,2-5.1-1.78-2.11-3.41.55-3.62,2.27,0,0.3-.05.61-0.07,0.91a6.43,6.43,0,0,1-3-3.08c-0.45-1-2.07-.45-1.61.55a7.76,7.76,0,0,0,4.53,4.25c0,1.11.09,2.22,0.21,3.32a15.11,15.11,0,0,1,.2,2.18l1.71,0A50.4,50.4,0,0,0,561.6,312Zm0.49-3.14q0.95-.66-0.33.58a2.14,2.14,0,0,1-.11.31A0.65,0.65,0,0,1,562.08,308.84Z" fill="#ef3d3c"/></svg>