<svg id="Layer_1" data-name="Layer 1" xmlns="http://www.w3.org/2000/svg" width="765.97" height="562.35" viewBox="0 0 765.97 562.35"><title>bus2</title><path d="M217.54,248.12c-8,0-15.95-.15-23.92-0.23l-0.56-.21,0,0.05c-2.9,1.58-7.2.47-10.36,0.53-3.93.08-7.86,0.1-11.78,0.1-7.86,0-15.71-.08-23.57,0-8.25.09-16.5,0.06-24.76,0.08h0c-7.84.05-15.69,0.07-23.53,0.17-4.65.06-6.47,1.54-6.94,6.13a22.25,22.25,0,0,0,1.24,11.09l0.06,0.05v0l104.08,0.2a2.7,2.7,0,0,1,3.43,3l0.15,3.16a8,8,0,0,1-.54,4,4.06,4.06,0,0,0,.37.41,1.73,1.73,0,0,0,1.71,1.18c0.75-3.86-.87-7.86.75-11.66,3.43,0.17,6.86,0,10.29.12l9.39-.08h0c1.61-.09,2.83-0.42,2.84-2.52,0-1.88.53-3.75,0.71-5.63C227.31,250.65,225,248.15,217.54,248.12Z" fill="#544838"/><path d="M169,270.53q1.29-1.23.34-.58a0.65,0.65,0,0,0-.45.89A2.16,2.16,0,0,0,169,270.53Z" fill="#fcfcfb"/><path d="M201.1,272.27l-0.15-3.16a2.7,2.7,0,0,0-3.43-3l-104.08-.2v0q0,3.92,0,7.85a3.3,3.3,0,0,0,3.78,4c4.2,0.43,8.72.78,12.6-.62a9.2,9.2,0,0,1,3.52-4,7.23,7.23,0,0,1,4.68-1.31c3.26,0.27,6.86,2.29,8.33,5.29a5.58,5.58,0,0,1,.56,2.13c14.84-.46,29.91-1.44,44.73-0.24,2.81,0.23,5.63.66,8.27-.58a9.34,9.34,0,0,1,8-6.54,7.9,7.9,0,0,1,6.31,2.5,8.46,8.46,0,0,1,1.89,3.18,3.74,3.74,0,0,0,3.66-.3,3.06,3.06,0,0,0,.82-1A8,8,0,0,0,201.1,272.27Zm-54.45.51a2.17,2.17,0,0,1,1.33.62c0.64,0.79.4,2.28,0.13,3.18a2.68,2.68,0,0,1-1.46,1.79h-1a2.56,2.56,0,0,1-1.47-2.46,0.85,0.85,0,0,1,1.7-.09c0.17,1.71,1.22-.72.71-1.27a7.58,7.58,0,0,0-1.38-.41,2.32,2.32,0,0,1-.92-2.64,2.4,2.4,0,0,1,1.73-2.1,2.59,2.59,0,0,1,2.58,1.11,0.85,0.85,0,0,1-1.43.93c-0.5-.85-1.18-0.13-1.22.43C145.82,273,146.12,272.61,146.65,272.78Zm-3.77-1.92a43.91,43.91,0,0,1,.05,6.6c-0.07,1.08-1.78,1.18-1.7.09a43.89,43.89,0,0,0-.05-6.6A0.85,0.85,0,0,1,142.87,270.85Zm-5.54,7.52a7.19,7.19,0,0,0,1.53-5.13,12.2,12.2,0,0,0-.07-1.25,1.68,1.68,0,0,0-2.07-1.29,7.34,7.34,0,0,0-1.64,0,7.57,7.57,0,0,1,.74,2.31c0.32,1.76.55,3.54,0.78,5.31H134.9L134.42,275c-0.22-1.56-.26-3.32-1.63-4.35-0.75-.57,0-1.58.76-1.43a0.91,0.91,0,0,1,.24,0c2.9-.17,6.21-1,6.71,2.74a10.37,10.37,0,0,1-1.06,6.47h-2.11Zm17.42,0a7,7,0,0,1-.86-2.92c-0.1-1.42.45-3.15,0.08-4.53s-1.74-1-2,.18a9.82,9.82,0,0,0-.06,2.29,41.53,41.53,0,0,0,.29,4.56,0.77,0.77,0,0,1-.07.42h-1.53a0.88,0.88,0,0,1-.11-0.33,38.21,38.21,0,0,1-.19-7.5c0.13-1.56.89-2.06,2.46-2.13,5-.24,1.88,6.43,3.55,9.25a0.81,0.81,0,0,1,.08.71h-1.62Zm4.74,0c-0.84-.56-1.14-1.8-1.47-2.72a36.18,36.18,0,0,1-1.15-3.78,7.21,7.21,0,0,1-.4-2.64c0.38-1.76,2.67-1,4-.93,1.08,0.08,1.18,1.78.09,1.7-0.77-.06-1.6-0.19-2.4-0.17a9.78,9.78,0,0,0,.83,3.41,3.07,3.07,0,0,0,1.41-.75,0.87,0.87,0,0,1,1.2-.06,0.86,0.86,0,0,1,.06,1.2,4.81,4.81,0,0,1-2.11,1.21c0.19,0.7.52,2,.93,2.13a3,3,0,0,0,1.24-.31,0.85,0.85,0,0,1,1.51.78,2.16,2.16,0,0,1-1.15.93H159.5Zm7.81-2.19c-0.11-1.11-.18-2.21-0.18-3.32a7.76,7.76,0,0,1-4.49-4.29c-0.44-1,1.18-1.53,1.62-.54a6.43,6.43,0,0,0,2.95,3.11c0-.3,0-0.6.08-0.91,0.22-1.72,1.88-4.36,3.64-2.23,1.4,1.69.14,5-2,5.08h0a50.34,50.34,0,0,1,.35,5.29h-1.71A15.12,15.12,0,0,0,167.31,276.19Z" fill="#fcfcfb"/><path d="M147.37,248.37c7.86-.09,15.71,0,23.57,0,3.93,0,7.86,0,11.78-.1,3.16-.06,7.46,1,10.36-0.53l0-.05a22.23,22.23,0,0,0-3.66-5.56,8.6,8.6,0,0,0-6.88-2.43c-12.33.43-24.67,0.52-37,.58-5.42,0-10.85-.44-16.28-0.48-4.1,0-7.4,4.45-6.62,8.66h0C130.86,248.43,139.12,248.47,147.37,248.37Z" fill="#fef8ef"/><path d="M213.68,266.28c-3.43-.16-6.86.06-10.29-0.12-1.62,3.8,0,7.8-.75,11.66h0c4.32,0,8.63.12,12.95,0.08,9.67-.1,7.37.79,9.78-8.37,0.56-2.14-.54-2.9-2.29-3.33h0Zm5.85,8.31a1.87,1.87,0,0,1-1.93-2.11c0-1.34.83-1.88,2.29-1.83a1.93,1.93,0,0,1,1.79,2.08A1.84,1.84,0,0,1,219.52,274.6Z" fill="#fcfcf8"/><path d="M118,271.78a7.23,7.23,0,0,0-4.68,1.31,9.2,9.2,0,0,0-3.52,4,6,6,0,0,0-.43,2,9.88,9.88,0,0,0,1.66,5.43c1.69,2.82,7,4.11,9.9,2.89a11,11,0,0,0,4.41-3.48,7.18,7.18,0,0,0,1.56-4.7,5.58,5.58,0,0,0-.56-2.13C124.87,274.07,121.27,272,118,271.78Zm0.43,12a3.64,3.64,0,0,1-4.18-3.95,3.44,3.44,0,0,1,3.67-3.58c2.37,0,3.69,1.44,4,3.85C121.76,282.17,120.7,283.63,118.45,283.74Z" fill="#514534"/><path d="M187.87,271.85a9.34,9.34,0,0,0-8,6.54,6,6,0,0,0,2.2,6.57,12.74,12.74,0,0,0,4.39,2.69,6.93,6.93,0,0,0,4.3-.23,8.39,8.39,0,0,0,4.44-3,7.86,7.86,0,0,0,.83-6.94,8.46,8.46,0,0,0-1.89-3.18A7.9,7.9,0,0,0,187.87,271.85Zm0.6,11.93a3.72,3.72,0,0,1-4.12-4,3.39,3.39,0,0,1,3.56-3.62c2.61-.1,3.81,1.6,4.19,4.08C191.85,282.4,190.67,283.73,188.47,283.78Z" fill="#50442f"/><path d="M219.89,270.66c-1.46,0-2.28.49-2.29,1.83a1.87,1.87,0,0,0,1.93,2.11,1.84,1.84,0,0,0,2.16-1.86A1.93,1.93,0,0,0,219.89,270.66Z" fill="#d38e6d"/><path d="M117.94,276.21a3.44,3.44,0,0,0-3.67,3.58,3.64,3.64,0,0,0,4.18,3.95c2.25-.11,3.31-1.57,3.52-3.68C121.63,277.65,120.31,276.19,117.94,276.21Z" fill="#f6efd6"/><path d="M187.91,276.19a3.39,3.39,0,0,0-3.56,3.62,3.72,3.72,0,0,0,4.12,4c2.2-.06,3.38-1.38,3.63-3.52C191.72,277.79,190.52,276.09,187.91,276.19Z" fill="#f2ecd5"/><path d="M140.51,271.9c-0.5-3.74-3.82-2.9-6.71-2.74a0.91,0.91,0,0,0-.24,0c-0.78-.14-1.52.86-0.76,1.43,1.36,1,1.4,2.79,1.63,4.35l0.48,3.37h1.73c-0.24-1.77-.46-3.55-0.78-5.31a7.57,7.57,0,0,0-.74-2.31,7.34,7.34,0,0,1,1.64,0A1.68,1.68,0,0,1,138.8,272a12.2,12.2,0,0,1,.07,1.25,7.19,7.19,0,0,1-1.53,5.13h2.11A10.37,10.37,0,0,0,140.51,271.9Z" fill="#ef3d3c"/><path d="M141.22,277.55c-0.07,1.09,1.63,1,1.7-.09a43.91,43.91,0,0,0-.05-6.6,0.85,0.85,0,0,0-1.7.09A43.89,43.89,0,0,1,141.22,277.55Z" fill="#ef3d3c"/><path d="M147.13,271.44a0.85,0.85,0,0,0,1.43-.93A2.59,2.59,0,0,0,146,269.4a2.4,2.4,0,0,0-1.73,2.1,2.32,2.32,0,0,0,.92,2.64,7.58,7.58,0,0,1,1.38.41c0.51,0.55-.54,3-0.71,1.27a0.85,0.85,0,0,0-1.7.09,2.56,2.56,0,0,0,1.47,2.46h1a2.68,2.68,0,0,0,1.46-1.79c0.27-.9.51-2.39-0.13-3.18a2.17,2.17,0,0,0-1.33-.62c-0.53-.17-0.83.24-0.74-0.9C145.95,271.32,146.63,270.6,147.13,271.44Z" fill="#ef3d3c"/><path d="M156.3,277.66c-1.68-2.82,1.47-9.49-3.55-9.25-1.57.08-2.33,0.57-2.46,2.13a38.21,38.21,0,0,0,.19,7.5,0.88,0.88,0,0,0,.11.33h1.53a0.77,0.77,0,0,0,.07-0.42,41.53,41.53,0,0,1-.29-4.56,9.82,9.82,0,0,1,.06-2.29c0.29-1.15,1.64-1.65,2-.18s-0.19,3.12-.08,4.53a7,7,0,0,0,.86,2.92h1.62A0.81,0.81,0,0,0,156.3,277.66Z" fill="#ef3d3c"/><path d="M163.22,277.44a0.85,0.85,0,0,0-1.51-.78,3,3,0,0,1-1.24.31c-0.4-.15-0.74-1.43-0.93-2.13a4.81,4.81,0,0,0,2.11-1.21,0.86,0.86,0,0,0-.06-1.2,0.87,0.87,0,0,0-1.2.06,3.07,3.07,0,0,1-1.41.75,9.78,9.78,0,0,1-.83-3.41c0.79,0,1.62.12,2.4,0.17,1.09,0.08,1-1.62-.09-1.7-1.28-.1-3.57-0.83-4,0.93a7.21,7.21,0,0,0,.4,2.64,36.18,36.18,0,0,0,1.15,3.78c0.32,0.92.63,2.16,1.47,2.72h2.57A2.16,2.16,0,0,0,163.22,277.44Z" fill="#ef3d3c"/><path d="M169.19,278.37a50.34,50.34,0,0,0-.35-5.29h0c2.17-.13,3.43-3.4,2-5.08-1.76-2.12-3.42.52-3.64,2.23,0,0.3-.06.6-0.08,0.91a6.43,6.43,0,0,1-2.95-3.11c-0.44-1-2.06-.47-1.62.54a7.76,7.76,0,0,0,4.49,4.29c0,1.11.07,2.22,0.18,3.32a15.12,15.12,0,0,1,.18,2.19h1.71Zm0.16-8.42q1-.65-0.34.58a2.16,2.16,0,0,1-.11.31A0.65,0.65,0,0,1,169.35,269.95Z" fill="#ef3d3c"/></svg>