<svg id="Layer_1" data-name="Layer 1" xmlns="http://www.w3.org/2000/svg" width="765.97" height="562.35" viewBox="0 0 765.97 562.35"><title>rightcloud</title><path d="M292.36,92.66c-5.06,0-6.3-1.38-4.75-6.21s1.24-9.34,1.12-14.06c-5.24-3.56-16.76,0-19,5.83-0.64,1.65.21,2.6,1.21,3.53,2,1.8,1.92,3.37-.23,5-2.47,1.86-5,3.56-4.91,7.37,0,1.76-5.89,4.68-7.91,4.58-6.6-.35-13.64-1.67-18.81,3.78-2.87,3-5.68,4.66-9.82,4.43-1.46-.08-2.59,1.32-3.78,2.24a10.11,10.11,0,0,1-7.57,2.36,3.35,3.35,0,0,1-3.16-2.7c-0.39-1.64,1.09-1.82,2-2.6,1.23-1.1,3.58-.71,4.1-3.13-6.13,0-10.76,3.3-15.55,6.1a2.39,2.39,0,0,0-1,2.87c0.36,1.14,1.42,1.12,2.37,1.12,4.48,0,9,0,13.44,0,1.63,0,3.31-.18,4.38,1.47h0c8.14,0,16.28.1,24.42,0a27.42,27.42,0,0,0,6.44-.66,45,45,0,0,1,20.54-.38c7.34,1.65,14.26.81,21.26-.78a7.21,7.21,0,0,0,4.95-3.06C305.91,103.6,303.22,92.67,292.36,92.66Z" fill="#fdfefd"/><path d="M220,113.18c-4.48,0-9,0-13.44,0-1,0-2,0-2.37-1.12a2.39,2.39,0,0,1,1-2.87c4.79-2.81,9.41-6.1,15.55-6.1-0.51,2.42-2.86,2-4.1,3.13-0.87.78-2.35,1-2,2.6a3.35,3.35,0,0,0,3.16,2.7,10.11,10.11,0,0,0,7.57-2.36c1.19-.92,2.32-2.32,3.78-2.24,4.13,0.23,7-1.4,9.82-4.43,5.17-5.46,12.21-4.13,18.81-3.78,2,0.11,8-2.82,7.91-4.58-0.11-3.81,2.44-5.5,4.91-7.37,2.15-1.62,2.19-3.2.23-5-1-.92-1.85-1.88-1.21-3.53,2.25-5.82,13.78-9.39,19-5.83-0.4-4.65-3.36-7.32-7-9.7-5.2-3.38-11-2.62-16.13-1.33s-10,3.88-13.41,8.94c-2.88,4.26-2.18,8.5-2.36,12.88-0.25,6-2.62,8.46-8.52,8.87a36.41,36.41,0,0,1-7.69,0c-8.18-1.16-14.88,1.34-20.27,7.7-1.24,1.47-2.51,3.36-4.76,3.56-6.87.61-13.18,2.51-18.19,7.55-0.79.79-2.82,0.53-2.38,2.27s2.06,1.59,3.4,1.6c11,0,22,0,33,0h0C223.35,113,221.66,113.19,220,113.18Z" fill="#f7ebd1"/><path d="M365,521.25c5.54,0.18,11.1,0,16.64.22,3,0.1,5.13-3,5.11-6.28,0-4.1,1.7-5.82,5.65-5.35,5.54,0.67,9.93-2.22,14.36-4.72,4.78-2.69,8.5-2.63,13,.76a3.51,3.51,0,0,0,4.51-.14c1.24-.95,2.3-0.87,3,0.5,2.85,5.41,7.32,7.56,13.31,6.85A26.85,26.85,0,0,1,452,514.67h0c0.73-3.46-.71-5.91-3.86-7.07-2.65-1-3-2.6-1.89-4.73a5.85,5.85,0,0,0-.75-6.84c-4.72-5.74-13.91-9.85-22.06-6.41-3.82,1.62-7.06,5.37-11.93,3.81-5.3-1.69-9.38.45-13.16,4-4.53,4.26-4.66,4.16-9.76.23-2.42-1.86-5-3.36-8.18-1.92-5.15,2.29-5.9,3.66-4.84,9.9,0.34,2,.44,3.44-2.16,2.84-4.63-1.07-6.46,1.94-7.61,5.41a7.16,7.16,0,0,1-3.43,4.23C362.19,520,362.7,521.17,365,521.25Z" fill="#fdfefd"/><path d="M440.61,513.09c-6,.71-10.46-1.44-13.31-6.85-0.72-1.37-1.79-1.45-3-.5a3.51,3.51,0,0,1-4.51.14c-4.54-3.39-8.26-3.45-13-.76-4.43,2.5-8.82,5.39-14.36,4.72-3.95-.48-5.67,1.25-5.65,5.35,0,3.23-2.16,6.38-5.11,6.28-5.55-.18-11.1,0-16.64-0.22-2.27-.08-2.78-1.21-2.56-3.13-1.54,0-2.23,1.42-3.46,2-0.75.33-2.12,0.59-1.57,1.9,0.44,1,1.68.93,2.55,0.74,3.66-.81,7.28.17,10.93,0.1,23.82-.45,47.69,1.26,71.45-1.61,4.34-.52,7.94-2.21,9.72-6.55h0A26.85,26.85,0,0,0,440.61,513.09Z" fill="#f7ebd0"/><path d="M190.77,484.54c-1.63.93-3.43,0.7-5.18,0.7-11,0-22-.16-33,0-6.68.1-13.14-1.62-20.17-1.62a4.25,4.25,0,0,1,4.25-3c3.33,0,5.26-1.85,7-4.19a5.75,5.75,0,0,1,5.48-2.7,6.85,6.85,0,0,0,6.77-3.7c1.25-2.17,3-3.33,5.35-2.77,5.91,1.43,7.89-2.65,9.8-6.74,2.51-5.38,11.35-9.08,16.06-5.63,7,5.14,13.93,6.77,21.84,2.78-0.24,1.32-1.47,1.9-2.18,2.86-0.51.69-.51,1.53,0.25,1.58,3.09,0.21,5.65,2.61,9,1.86,5.11-1.14,5.73-.48,5.08,4.87-0.15,1.2-.58,2.37-0.69,3.58-0.45,4.66,2.72,7.16,7.13,5.54,1.49-.55,2.8-1.08,4.12.18,2.38,2.28,5.36,2.3,8.36,2.3-6.94,2.69-14,4.67-21.56,4.68-1.28,0-2.73-.93-3.39,1-2-.22-2.17-2.14-2.94-3.43C212.09,482.75,200.16,487.29,190.77,484.54Z" fill="#f6ead0"/><path d="M249.36,464.58c-2.47-9.87-15.08-17-25-14.41-5.72,1.49-10.37,4.88-15.45,7.53h0c-0.24,1.32-1.47,1.9-2.18,2.86-0.51.69-.51,1.53,0.25,1.58,3.09,0.21,5.65,2.61,9,1.86,5.11-1.14,5.73-.48,5.08,4.87-0.15,1.2-.58,2.37-0.69,3.58-0.45,4.66,2.72,7.16,7.13,5.54,1.49-.55,2.8-1.08,4.12.18,2.38,2.28,5.36,2.3,8.36,2.3C246,479.93,251,471.34,249.36,464.58Z" fill="#fff"/><path d="M648.26,448c-1.46-2.94-3.62-5.08-7.52-5.16-6.62-.14-12.69,1.61-18.76,4-3.91,1.52-7.78,2.12-11.7-1.09-2.41-2-4.8-4.34-8-5.27,2.41,3.81-.55,4.59-3.15,5.56-1.77.66-3.58,1.23-5.32,2-3.17,1.31-5.1,3.45-4.63,7.17a6.5,6.5,0,0,1-1.62,5.64c13.75-.31,27.53,3,41.24,0,5.79-1.26,12-1.73,16.64-6.26C647.26,452.69,649.7,450.87,648.26,448Z" fill="#f6ead1"/><path d="M589.18,455.11c-0.47-3.73,1.46-5.86,4.63-7.17,1.75-.72,3.55-1.3,5.32-2,2.61-1,5.56-1.75,3.15-5.56-5-3-10.59-2.84-16.1-2.31-4.43.42-8,3.66-8.31,7.06-0.44,4.26-1.35,4.8-5.36,3.19-3.5-1.41-7.29,0-6.74,3.1,1.08,5.95-2.16,6.51-6.44,6.69a13,13,0,0,0-2.44.7,11.8,11.8,0,0,0,2.25,1c9.43,1.5,18.93.88,28.41,0.92h0A6.5,6.5,0,0,0,589.18,455.11Z" fill="#fdfefb"/><path d="M587.26,200.8a3.14,3.14,0,0,0-2.2-4.46h0c-1.49,0-3.65.73-4.37,0-5.56-5.6-11.79-2.34-17.83-1.74-1.34.13-3-.28-4,0.37-5.7,3.75-12.57,2.66-18.64,4.79-5.32,1.87-10.7,3.59-16.35,5.47a3.34,3.34,0,0,0,3.13.88c14.56-1,29,1.36,43.47,1.77a49.61,49.61,0,0,1,5.63.79c1.85-.29,3.7-0.68,5.56-0.86C586,207.38,586.14,203.63,587.26,200.8Z" fill="#fcfcf9"/><path d="M611.47,193.28c-6.59-4.58-18.28-1.25-26.41,3.06h0a3.14,3.14,0,0,1,2.2,4.46c-1.12,2.83-1.31,6.58-5.59,7-1.86.19-3.71,0.57-5.56,0.86a13.87,13.87,0,0,0,11-.25,24.29,24.29,0,0,1,10.64-2.19,78.86,78.86,0,0,0,10.17-.11c3.11-.32,6.3-1.36,7.31-4.79S614.53,195.41,611.47,193.28Z" fill="#f7ecd1"/><path d="M571.08,372.49l-0.64,0A4.27,4.27,0,0,0,571.08,372.49Z" fill="#fff"/><path d="M483.53,371.8c1.44-1.12,3.13-.73,4.73-0.73q36.86,0,73.72,0c2.29,0,4.57.56,6.86,0.67,1.25,0.06,3,.6,3.39-1.28,0.39-2.05-1.59-2.08-2.75-2.15-4.27-.25-6.79-3.08-9.24-6a6.8,6.8,0,0,1-1.45-4.55,6.46,6.46,0,0,0-5.42-6.31c-3.82-.44-7.44,1.8-7.74,5.29-0.27,3.11-1.39,2.67-3.2,1.32a2.14,2.14,0,0,0-.72-0.37c-6.16-1.56-12.25-3.48-18.49-4.52-4.37-.73-8.62-3.66-9.43-8-0.17-.93.16-2.23-0.36-2.78-4-4.26-4.6-9.68-5.59-15-0.28-1.53-.88-2.77.27-4.11s2.62-.65,4.1-0.48c3.67,0.42,5.14,3.6,7.53,5.6,4.32,3.61,8.75,4.46,11.61,1.4a14,14,0,0,0,3.49-9.24c0.06-2.26.72-4.06,2.51-5.26,2.92-1.95,4.31-4.88,5.29-8,1.18-3.74,4.58-6.14,5.48-10.16,0.49-2.19,6.05-2.81,8.12-1,5.7,4.93,12.37,2.5,18.68,2.76,0.27,0,.57-0.83.85-1.28h0c-1.2-8.09-15.7-15.55-23.76-12.06-4.35,1.88-8.49,4.23-12.79,6.24-5.87,2.74-8.33,2-11.75-3.32-3-4.71-7.21-6.79-11.23-5.12-10.63,4.44-21.91,7.32-31.8,13.5-2.76.12-3.71,2.35-5,4.21-1.49,2.12-1.64,4.87-3.26,6.92-3.1,3.11-6.84,5.31-10.6,7.49-8.31,4.82-10,8.67-8.17,18.19,1.26,6.5.08,8.15-6.34,8.87-6,.68-9.43,3.33-10.86,9.31-1.24,5.19-4.35,8.12-9.4,8.78-6.09.8-10.67,4.5-15.65,7.45-1.34.8-3.13,1.89-2.46,3.75,0.54,1.51,2.44,1.47,3.93,1.62a7.52,7.52,0,0,0,.81,0c22-.2,44,0.59,66-0.54a8.19,8.19,0,0,1,1.35-.55A1.41,1.41,0,0,1,483.53,371.8Z" fill="#fff"/><path d="M596.9,343c-2.51-1.07-3.13-2.2-2-4.91,0.8-1.9,2.42-3.71,1.93-6.07-1.23-5.94-4.63-10.51-9.12-14.37-4.28-3.68-8.46-1-12.57.38-1.93.66-3.81,1.27-5.28-.36a5.55,5.55,0,0,1-1-5.71c1-3.13,3.68-5,5.2-7.7,1.16-2.05,3.1-3.91,1.7-6.62h0c-0.29.45-.59,1.29-0.85,1.28-6.31-.26-13,2.17-18.68-2.76-2.07-1.79-7.63-1.16-8.12,1-0.9,4-4.3,6.42-5.48,10.16-1,3.1-2.37,6-5.29,8-1.79,1.19-2.44,3-2.51,5.26a14,14,0,0,1-3.49,9.24c-2.86,3.06-7.28,2.21-11.61-1.4-2.39-2-3.86-5.17-7.53-5.6-1.48-.17-2.85-1-4.1.48s-0.55,2.58-.27,4.11c1,5.37,1.57,10.78,5.59,15,0.52,0.55.19,1.85,0.36,2.78,0.81,4.39,5.06,7.32,9.43,8,6.24,1,12.34,3,18.49,4.52a2.14,2.14,0,0,1,.72.37c1.81,1.35,2.93,1.79,3.2-1.32,0.3-3.49,3.92-5.73,7.74-5.29a6.46,6.46,0,0,1,5.42,6.31,6.8,6.8,0,0,0,1.45,4.55c2.45,2.9,5,5.73,9.24,6,1.16,0.07,3.14.1,2.75,2.15-0.36,1.88-2.15,1.34-3.39,1.28-2.29-.11-4.57-0.67-6.86-0.67q-36.86-.09-73.72,0c-1.59,0-3.29-.39-4.73.73a1.41,1.41,0,0,0,1.22.59,0.82,0.82,0,0,1,.41.24,2.66,2.66,0,0,1,.68.19c1.63-.07,3.26-0.15,4.89-0.2,26.56-.69,53.15.89,79.71-0.11l0.64,0c6.43-.25,12.86-0.65,19.29-1.28A38.1,38.1,0,0,0,600.6,369a9.67,9.67,0,0,0,6.38-7.74C608.3,352,605.62,346.68,596.9,343Z" fill="#f6ead1"/></svg>