<?xml version="1.0" encoding="utf-8"?>
<!-- Generator: Adobe Illustrator 24.0.3, SVG Export Plug-In . SVG Version: 6.00 Build 0)  -->
<svg version="1.1" id="Layer_1" xmlns="http://www.w3.org/2000/svg" xmlns:xlink="http://www.w3.org/1999/xlink" x="0px" y="0px"
	 viewBox="0 0 419.7 569" style="enable-background:new 0 0 419.7 569;" xml:space="preserve">
<style type="text/css">
	.st0{fill:#FCF9D1;}
	
		.st1{opacity:0.4;fill:none;stroke:#F3F4F4;stroke-width:4;stroke-linecap:round;stroke-linejoin:round;stroke-miterlimit:10;enable-background:new    ;}
	.st2{opacity:0.4;enable-background:new    ;}
	.st3{fill:#F3F4F4;}
</style>
<title>crow</title>
<circle class="st0" cx="209.9" cy="359.1" r="209.8"/>
<polyline class="st1" points="165.3,92.6 179.9,78 194.4,92.6 "/>
<g class="st2">
	<g>
		<g>
			<path class="st3" d="M53.2,93.8h-5.9V76.9h5.9c5.3,0,9,3.6,9,8.4S58.5,93.8,53.2,93.8z M53.2,78.7h-4v13.4h4c4.3,0,7-2.9,7-6.6
				C60.2,81.6,57.4,78.7,53.2,78.7z"/>
		</g>
		<g>
			<path class="st3" d="M84.8,93.8l-4.9-6.5h-4.8v6.5h-2V76.9h7.3c3.7,0,6.1,2,6.1,5.1c0,2.8-2,4.5-4.7,4.9l5.2,6.9H84.8z
				 M80.3,78.7h-5.2v6.9h5.2c2.5,0,4.4-1.3,4.4-3.5C84.7,80,83.1,78.7,80.3,78.7z"/>
		</g>
		<g>
			<path class="st3" d="M113.4,93.8h-2l-2-4.5h-9.2l-2,4.5h-2l7.7-17h1.7L113.4,93.8z M104.8,79.1l-3.9,8.6h7.7L104.8,79.1z"/>
		</g>
		<g>
			<path class="st3" d="M130.6,94.1c-5.3,0-8.6-3.9-8.6-8.8c0-4.7,3.5-8.8,8.5-8.8c2.8,0,4.7,0.8,6.2,2.3l-1.2,1.5
				c-1.3-1.2-2.8-2-5.2-2c-3.7,0-6.4,3.2-6.4,6.9c0,4.1,2.5,7,6.6,7c2,0,3.7-0.8,4.9-1.7v-4.3h-5.2v-1.7h6.9v7
				C135.7,92.9,133.3,94.1,130.6,94.1z"/>
		</g>
	</g>
</g>
</svg>
