<svg id="Layer_1" data-name="Layer 1" xmlns="http://www.w3.org/2000/svg" width="765.97" height="562.35" viewBox="0 0 765.97 562.35"><title>tower</title><path d="M113.48,339.32c3-.08,4,0.89,4,3.94-0.17,10.73-.06,21.46-0.17,32.19,0,2.55.36,4,3.49,4,13.58-.16,27.16-0.13,40.75-0.17,1.6-4.62.49-9.46,0.36-14-0.38-13.43-.13-26.82.05-40.24,0.12-8.58-.23-17.26-0.4-25.89-0.21-10.54-.31-21.09.51-31.61,0.23-3-2-2.32-3.64-2.33q-17.33-.07-34.66,0c-9,0-17.94.11-26.91,0.17h0c-0.91,13.8-1.66,27.61-1.48,41.45,1.95-.74,1.89-3.05,3.74-4.25,5.11-3.31,8.35-8.87,13.56-12.22a5.75,5.75,0,0,0,1.76-1.65c0.82-1.3,1.07-3.77,3.06-3,1.6,0.61.68,2.91,0.69,4.44,0,11.26-.11,22.53,0,33.79,0,3.26-1,4.24-4.19,4.13-6.51-.23-13-0.11-19.54-0.14h0l-0.08.13q0.07,0.3.13,0.6h0c6.57,0,13.14,0,19.71,0,1.32,0,3.21-.65,3.1,1.86,0.95,4.94,0,6.24-4.85,6.36-6.22.16-12.45,0.12-18.68,0.17l0.1,2.32h0C100.44,339.34,107,339.48,113.48,339.32Zm30.34-36.81c3.35-.07,5,0.67,4.89,4.37-0.14,3.91.15,7.84,0.29,11.76,0.07,1.89-.8,2.75-2.67,2.69-0.81,0-1.62,0-2.44,0-9.32,0-9.32,0-9.32-9.39S134.58,302.71,143.82,302.51Z" fill="#d45038"/><path d="M98.35,428.29c0.64,0.68,2.62,0,4,.15,3.21,0.36,4.86-.64,4.51-4.21-0.14-1.41-.81-3.73,1.68-3.84s3.21,1.91,3,3.95c-0.34,3.67,1.52,4.22,4.63,4.16,8.68-.17,17.36-0.08,26-0.08,1.92,0,4,.43,3-2.89-0.47-1.56-.16-3.55,2.13-3.56s2,2,1.86,3.36c-0.22,2.69,1.16,3.46,3.41,3.07,2.93-.51,6.64,1.76,8.64-2.38a1.11,1.11,0,0,1,2,.08c1.27,3.15,4,2.18,6.25,2.31,1.35,0.08,2.71,0,4.07,0,5.69,0,5.7,0,6.55-5.73,0.16-1.11.25-2.25,1.73-2.29s1.71,1,2.21,2c0.94,1.89-1.37,5.08,2,5.84,2.07,0.46,4.32.18,6.49,0.14,2.43,0,4.86-.18,7.3-0.29h0c-0.07-4.2.07-8.42-.25-12.6-0.49-6.33-.05-12.73-1.47-19-4.35-1.7-8.86-.25-13.29-0.61-2.08-.17-1.65,1.61-1.53,3,0.15,1.69.14,3.62-2,3.77s-2-1.87-1.92-3.29c0.08-2.46-1.27-2.91-3.34-2.89q-11.81.1-23.62,0c-2.11,0-3.41.5-3.28,2.94,0.08,1.5.07,3.35-2,3.35s-2.2-1.85-2-3.33c0.36-2.39-.51-3-2.82-3-8.39.14-16.79,0.09-25.18,0.12-2.15,0-3.78.48-3.27,3.27a1.93,1.93,0,1,1-3.83.39c-0.26-3.07-2.22-3.08-4.56-3-4.75.14-9.5,0.08-14.25,0.1a6.33,6.33,0,0,0-1,2.15c-0.24,9.59-1.08,19.16-.61,28.76h0C92.58,426.88,95.32,425.08,98.35,428.29Z" fill="#e6383f"/><path d="M110.12,400.29a1.93,1.93,0,1,0,3.83-.39c-0.51-2.79,1.13-3.26,3.27-3.27,8.39,0,16.79,0,25.18-.12,2.31,0,3.18.57,2.82,3-0.22,1.48-.07,3.34,2,3.33s2.07-1.85,2-3.35c-0.13-2.43,1.17-2.95,3.28-2.94q11.81,0.07,23.62,0c2.07,0,3.42.43,3.34,2.89,0,1.42-.28,3.44,1.92,3.29s2.17-2.08,2-3.77c-0.12-1.36-.55-3.13,1.53-3,4.43,0.36,8.94-1.09,13.29.61l-1.06-17.16h0l-35.59-.08h0c-13.58,0-27.17,0-40.75.17-3.13,0-3.51-1.46-3.49-4,0.11-10.73,0-21.46.17-32.19,0-3.05-1-4-4-3.94-6.52.16-13,0-19.56,0h0L91.3,397.38h0c4.75,0,9.5,0,14.25-.1C107.89,397.21,109.86,397.21,110.12,400.29Z" fill="#f07d46"/><path d="M175.27,451.9c0.2-2.64,4.9.14,4.25-3.52,4.11,0.56,3.68-3.88,4.52-5.44,2.76-5.13,7-4.82,11.31-4.93,1.5,0,3,.21,4.3-0.69h0l0.14-5.56a10.68,10.68,0,0,1-4.39.63q-41.15,0-82.3,0c-7,0-14-.28-20.93-0.37a5.55,5.55,0,0,0-1.86.71h0l-0.82,11.12c-3.21,5.71-.87,9.81,5.83,9.86,19.12,0.13,38.24.07,57.37,0,7,0,14.1.32,21.15-.26a21.8,21.8,0,0,0,4-1.58A25.65,25.65,0,0,1,175.27,451.9Z" fill="#d34e39"/><path d="M190.83,284.81h0c-4.68,4.48-8.57,9.68-13,14.42-3.27,3.52-6.78,7.1-9.49,11.25-0.48.74-.76,3.51-3.2,1.59-0.5-.39-0.44,1.21-0.44,1.84-0.06,13.44,0,26.88-.1,40.32,0,1.86.52,3.82-.63,5.56,1.12,1.45,2.75.93,4.16,0.93,9.36,0,18.71,0,28.07-.05h0c0.06-1.89.24-3.78,0.16-5.66q-0.71-15.76-1.53-31.52c-0.46-8.89-1-17.77-1.45-26.65,2.48-3.94,2-8,.38-12a2.94,2.94,0,0,0-.65-0.51c0,0.19,0,.38,0,0.57Z" fill="#ef7e47"/><path d="M97.7,261.38c1.39-1.08.79-2.63,0.86-3.92,0.09-1.68.93-2.63,2.5-2.55s2.62,1,2.28,2.7c-0.67,3.33,1.36,4.12,3.95,4.15,5.27,0,10.54,0,15.8-.16,1.83-.06,3.46-0.79,3.29-3.23-0.1-1.38,0-2.83,1.95-2.92a2.35,2.35,0,0,1,2.66,2.48c-0.24,4.25,2.48,4,5.32,3.91,3.94-.09,7.88,0,11.82,0,2.92,0,6.1.7,6.71-3.67,0.14-1,1.35-1.19,2.36-1.11a1.66,1.66,0,0,1,1.69,1.89c-0.08,2.77,1.5,2.8,3.72,2.78,10.16-.09,20.33,0,30.49.08,0.07-4.18.88-8.39-.65-12.48l-0.92-.54-24.36,0h0l-3.23,0h0c-2.34-.31-3.67,1.24-5.15,2.65-1.2,1.14-3.27,2.37-4.07.38-2-5.08-6.39-3.23-9.54-3.13s-6.69.09-9.51,2.28a1.65,1.65,0,0,1-1.54.11c-5.46-4.15-11.76-1.48-17.63-2.27h0a36,36,0,0,1-4.06,0c-2.28-.22-3.3.56-2.84,2.95,0.31,1.61.09,3.21-1.86,3.36s-1.83-1.65-1.77-2.93c0.13-3.17-1.85-3.44-4.26-3.37a11.39,11.39,0,0,0-4.77.73h0c-1.5,2.67-.82,5.56-0.82,8.38C97.34,258.72,96.48,260.37,97.7,261.38Zm47.63-9.46c2.81,0.19,2.2,2.49,2.24,4.3,0,2-1.16,2.49-2.89,2.36-2.2-.17-1.93-1.8-2-3.35C143.23,253.89,143.06,251.76,145.32,251.92Z" fill="#e33b41"/><path d="M184.34,195.93h0c-1.4,3.86-2.45,8-7.25,9.16,0.18,3.28-3.4,3.26-4.73,5.34-1.57,2.45-4.34,4.22-5.58,6.78-1,2-.41,4.76-0.53,7.17l0.92,24.42h0l24.36,0c-0.26-6.72-.47-13.45-0.8-20.17-0.09-1.92.08-3.49,2.25-4.06-2.78.19-2.91-1.62-2.88-3.69,0.12-8.37-.3-16.72-1-25.06h0Z" fill="#ef7d47"/><path d="M117.23,213.75c-0.1-.29-0.19-0.64-0.28-1A1.75,1.75,0,0,0,117.23,213.75Z" fill="#9d3c2d"/><path d="M112.92,237.46c3.22-.15,4.16,1.17,3.66,4.07h0l2.37,0h0a41.14,41.14,0,0,0,.85-9.7c0-17.54.14-35.08,0-52.62,0-3.79,1.13-4.84,4.86-4.79,10.73,0.15,21.47-.14,32.21-0.16,2.66,0,4.29.08,4.16,4.25a125.23,125.23,0,0,0,.6,18.26,150.53,150.53,0,0,1,.6,18.71c-0.08,11.14,2.14,22.15,1.71,33.3h0l3.23,0h0l-0.92-24.42c-1.24-2-.6-4.23-0.67-6.36-0.19-6.08.21-12.17-.8-18.22-0.47-2.8.49-4.28,3.72-4.12,5.27,0.26,10.56.18,15.84,0.24h0l4.79-.15h0L189,193.31c-6.8,0-13.6-.12-20.39.09-3.11.1-4-1.07-4-4,0-3.78-.45-7.56-0.73-11.34-0.12-1.71.11-3.26,1.73-4.25h0c-2.26-.34-2.78-1.52-1.69-3.48l-0.19-3.19h0c-2-2.7-2.51-5.39.07-8.05a2.36,2.36,0,0,1,1.05-1.79l0.22,0.13s0,0,0,0c-0.17-.6-0.44-1.07-1.19-0.82h-1.65c-2.22,1.42-1.71,3.53-1.21,5.48a24.06,24.06,0,0,1,.36,6.46c0,1.35-.87,1.88-2.16,1.82a1.66,1.66,0,0,1-1.73-1.83c0-.68,0-1.36-0.06-2-0.07-1.26-.16-2.57-1.92-2.47-1.57.09-2.07,1-1.8,2.51,0.6,3.24-1.17,4-4,3.95-7.05-.07-14.11-0.14-21.15.05-3.14.09-4-1.11-3.84-4.06,0.22-3.51.06-7,.06-10.57h0V142.63H123v14.94h0c0,3.37-.08,6.75,0,10.12,0.05,2.15-1,2.84-2.95,2.82s-3.59,0-3.49-2.64c0-1,.4-2.41-1.08-2.66a2,2,0,0,0-2.25,1.38c-0.9,5.68-5.19,3.6-8.46,3.76a7.54,7.54,0,0,1-2.31-.67c-0.94.33-1.41,0.2-1.57-1-1.19-9.15-.73-9.71,8.54-9.68,3.39,0,6.79.13,10.18,0.2a2.21,2.21,0,0,0,1.8-.84c-5.57,0-11.15-.17-16.71.07-3.26.14-4.45-1.17-4.41-4.2,0-3.77,0-7.54,0-11.3h-1c0,3.59-.25,7.2.07,10.77,0.34,3.88-1.18,4.92-4.86,4.76-3.48-.16-7-0.59-10.5.43a2.17,2.17,0,0,0,.58.3c3.51-.07,7,0,10.52-0.24,2.77-.2,3.73.64,3.76,3.57,0.05,3.82-1,7.76.69,11.5a45.69,45.69,0,0,0,14.18.33c3.66-.43,4,0.56,3.76,3.84-0.4,5.82-.28,11.68-0.12,17.52,0.08,3.06-.68,4.5-4.09,4.27a74.23,74.23,0,0,0-11,.21c-1.82.15-2.12-.58-2.15-2,0-1.07.15-2.2-.64-3.11l-0.22,8.06h0c5.49-1.65,11.06-.72,16.59-0.4,1.4,0.08,1.44,1.76,1.43,3,0,2.69-.08,5.38-0.12,8.07h0c-0.18,6.09-.48,12.18-0.5,18.27,0,2.66-1.27,3.09-3.52,3.12-5.12.07-10.24,0.34-15.37,0.53l0,1.83C102.86,237.51,107.9,237.69,112.92,237.46ZM99.71,170v-9.81l0.25,0a13.71,13.71,0,0,1,.15,1.44A54.68,54.68,0,0,1,99.71,170Z" fill="#9d3c2d"/><path d="M158.41,265.19c1.6,0,3.88-.69,3.64,2.33-0.81,10.53-.72,21.08-0.51,31.61,0.17,8.63.52,17.31,0.4,25.89-0.18,13.42-.43,26.81-0.05,40.24,0.13,4.57,1.24,9.41-.36,14h0l35.59,0.08h0c0-1.48.68-3-.62-4.34-9.91.09-19.82,0.14-29.72,0.3-2.19,0-2.93-.93-2.79-2.93,0-.27,0-0.54,0-0.81-0.17-6.88-.17-6.89,6.77-6.89l25.67,0V363H165.36l0-1.51h31l-0.11-.85h0c-9.36,0-18.71.09-28.07,0.05-1.41,0-3,.52-4.16-0.93q0-35.87-.12-71.75c0-2.43.83-3.4,3.32-3.36,7.88,0.13,15.76.1,23.64,0.13h0l2.29,0c0-.19,0-0.38,0-0.57,0-2.39-.05-4.79.14-7.16,0.25-3.13-1.18-3.95-4.08-3.88-6.79.15-13.58,0.08-20.37,0-1.36,0-3,.59-4.67-1.67,2.67,0,4.74.09,6.8,0,6.88-.34,13.8.78,20.65-0.63-7.86,0-15.72-.1-23.58-0.1-2.21,0-4.11-.11-4.09-3.1s2.21-2.52,4-2.53c6.51,0,13,.19,19.52-0.1,2.84-.13,4.2.93,5,3.37h0l0.66-6.67h0c-10.16,0-20.33-.17-30.49-0.08-2.21,0-3.8,0-3.72-2.78a1.66,1.66,0,0,0-1.69-1.89c-1-.08-2.22.08-2.36,1.11-0.6,4.37-3.78,3.69-6.71,3.67-3.94,0-7.88-.07-11.82,0-2.84.06-5.55,0.34-5.32-3.91a2.35,2.35,0,0,0-2.66-2.48c-2,.08-2,1.53-1.95,2.92,0.17,2.44-1.46,3.17-3.29,3.23-5.26.18-10.53,0.21-15.8,0.16-2.59,0-4.61-.82-3.95-4.15,0.34-1.72-.77-2.62-2.28-2.7s-2.41.87-2.5,2.55c-0.07,1.3.53,2.85-.86,3.92-1.22-1-.36-2.66-1.58-3.41,0.49,2.43-1.73,5.12.72,7.36h0c9-.06,17.94-0.15,26.91-0.17Q141.08,265.12,158.41,265.19ZM197,376.45c-4.25,1.66-29,1.67-33.18,0H197Zm-29.1-101.58c3.52,0.26,7.07.06,10.6,0.06s7.35,0.09,11,0,2.83,2.43,3,4.5-0.15,4-2.93,3.61c-6.9-.95-13.79.46-20.66-0.08-2.17-.17-5.08.12-5.08-3.74C163.82,276.16,164.48,274.62,167.89,274.87Z" fill="#9e372e"/><path d="M114,328c3.18,0.11,4.24-.86,4.19-4.13-0.16-11.26,0-22.53,0-33.79,0-1.52.91-3.83-.69-4.44-2-.75-2.24,1.71-3.06,3a5.75,5.75,0,0,1-1.76,1.65c-5.21,3.34-8.45,8.9-13.56,12.22-1.85,1.2-1.79,3.51-3.74,4.25-1.53,7-.6,14.06-0.88,21.1h0C101,327.9,107.52,327.79,114,328Z" fill="#ef7d47"/><path d="M113.09,432.37q41.15,0.07,82.3,0a10.68,10.68,0,0,0,4.39-.63c1.06-1.18.79-2.4,0.12-3.63h0c-2.43.1-4.86,0.24-7.3,0.29-2.17,0-4.42.32-6.49-.14-3.4-.76-1.08-3.95-2-5.84-0.5-1-.86-2.06-2.21-2s-1.57,1.18-1.73,2.29c-0.85,5.72-.86,5.72-6.55,5.73-1.36,0-2.72.06-4.07,0-2.3-.13-5,0.84-6.25-2.31a1.11,1.11,0,0,0-2-.08c-2,4.14-5.71,1.87-8.64,2.38-2.25.39-3.63-.38-3.41-3.07,0.11-1.37.37-3.38-1.86-3.36s-2.6,2-2.13,3.56c1,3.32-1.12,2.89-3,2.89-8.68,0-17.37-.08-26,0.08-3.11.06-5-.49-4.63-4.16,0.19-2-.6-4.05-3-3.95s-1.82,2.43-1.68,3.84c0.35,3.57-1.3,4.57-4.51,4.21-1.34-.15-3.32.54-4-0.15-3-3.21-5.77-1.41-8.63,0h0c-0.2,1.53-.79,3.1.58,4.42h0a5.56,5.56,0,0,1,1.86-.71C99.13,432.08,106.11,432.36,113.09,432.37Z" fill="#8f3334"/><path d="M165.62,173.81h0c-1.63,1-1.86,2.53-1.73,4.25,0.28,3.78.73,7.56,0.73,11.34,0,2.93.87,4.1,4,4,6.79-.21,13.59-0.08,20.39-0.09q0.05-2.39.1-4.78c-1.17-3.8-.51-7.7-0.57-11.56a2.32,2.32,0,0,0,.15-2.66,2.86,2.86,0,0,1-.41.26C180.76,172.89,173.16,174.26,165.62,173.81Z" fill="#d34f38"/><path d="M100.2,198.15c0,1.42.34,2.16,2.15,2a74.23,74.23,0,0,1,11-.21c3.41,0.23,4.17-1.22,4.09-4.27-0.16-5.84-.29-11.7.12-17.52,0.23-3.28-.1-4.27-3.76-3.84A45.69,45.69,0,0,1,99.6,174c0.81,1.24.52,2.61,0.51,4-0.06,5.7-1,11.37-.55,17.08h0C100.35,196,100.17,197.07,100.2,198.15Z" fill="#d34f38"/><path d="M164,371.58c0,0.27,0,.54,0,0.81-0.14,2,.6,3,2.79,2.93,9.91-.16,19.82-0.21,29.72-0.3,0.76-3.45-.13-6.88-0.08-10.32h0l-25.67,0C163.81,364.7,163.81,364.7,164,371.58Z" fill="#ef7e48"/><path d="M116.73,232c0-6.09.32-12.18,0.5-18.27h0a1.75,1.75,0,0,1-.28-1c-0.24-1-.46-2-0.91-2.1-1.46-.35-1.93,1.45-2.86,2.33-4.61,4.34-9.26,8.63-13.92,13-1.11-.65-0.44-1.77-0.86-2.53h0c-1.14,4-.28,8.17-0.55,12.25h0c5.12-.19,10.24-0.47,15.37-0.53C115.46,235.1,116.72,234.67,116.73,232Z" fill="#ef7e49"/><path d="M99.25,225.94c4.66-4.33,9.32-8.61,13.92-13,0.93-.88,1.41-2.68,2.86-2.33,0.45,0.11.67,1.13,0.91,2.1,0.09,0.35.18,0.7,0.28,1h0c0-2.69.1-5.38,0.12-8.07,0-1.23,0-2.91-1.43-3-5.53-.31-11.1-1.25-16.59.4h0c-1.22,6.73-.46,13.56-0.94,20.32h0C98.82,224.17,98.14,225.29,99.25,225.94Z" fill="#d35039"/><path d="M199.65,437.31c-1.33.9-2.8,0.65-4.3,0.69-4.35.11-8.56-.2-11.31,4.93-0.84,1.56-.41,6-4.52,5.44,0.65,3.66-4.05.88-4.25,3.52a25.65,25.65,0,0,0,2.58,0c4.08-.22,8.14-1.16,12.27-0.44,8.71,1.53,9.42.95,9.81-7.67l-0.29-6.45h0Z" fill="#ee7d45"/><path d="M117.35,330.46c-6.6,0-13.2,0-19.79-.12-1.12,0-3.34,1.09-3-1.74h0q-0.06-.3-0.13-0.6c-1.26,2.93-.41,6-0.59,9h0c6.23,0,12.45,0,18.68-.17C117.4,336.7,118.3,335.4,117.35,330.46Z" fill="#ed7d47"/><path d="M101.7,248.86c2.41-.07,4.38.2,4.26,3.37-0.05,1.28-.27,3.09,1.77,2.93s2.17-1.75,1.86-3.36c-0.46-2.38.56-3.16,2.84-2.95a36,36,0,0,0,4.06,0h0q0.06-2.36.13-4.71L97.81,244h0l-0.87,5.59h0A11.39,11.39,0,0,1,101.7,248.86Z" fill="#f07e4a"/><path d="M116.57,241.53c0.5-2.9-.43-4.22-3.66-4.07-5,.23-10.06,0-15.09,0l0,4Z" fill="#ec7e4f"/><path d="M118.94,241.55h0l-2.37,0h0l-18.76,0a2.85,2.85,0,0,0,0,2.49h0l18.81,0.09C118.36,244.13,119.29,243.43,118.94,241.55Z" fill="#4c2621"/><path d="M165.33,361.51l0,1.51h31.07l-0.09-1.51h-31Z" fill="#24172f"/><path d="M124.75,166.47c-0.18,2.95.7,4.14,3.84,4.06,7-.19,14.1-0.13,21.15-0.05,2.8,0,4.57-.71,4-3.95-0.28-1.49.23-2.42,1.8-2.51,1.76-.1,1.85,1.21,1.92,2.47,0,0.68,0,1.36.06,2a1.66,1.66,0,0,0,1.73,1.83c1.29,0.06,2.14-.47,2.16-1.82a24.06,24.06,0,0,0-.36-6.46c-0.49-1.94-1-4.06,1.21-5.48-0.37-2.66-2.95-2.87-4.62-4-1.38-.94-3.41-3.21-4,0.84a1.51,1.51,0,0,1-1.95,1,1.92,1.92,0,0,1-1-1.51c1-4.66-2.62-6.21-5.42-8.33a11.32,11.32,0,0,0-2.25.74c-6.06,3.49-12.09,7-18.13,10.56h0C124.81,159.42,125,163,124.75,166.47Z" fill="#e43941"/><path d="M119.63,159.19l-17.15,10.48h0a7.54,7.54,0,0,0,2.31.67c3.27-.16,7.56,1.92,8.46-3.76a2,2,0,0,1,2.25-1.38c1.48,0.25,1.11,1.68,1.08,2.66-0.1,2.65,1.62,2.62,3.49,2.64s3-.67,2.95-2.82c-0.08-3.37,0-6.74,0-10.12h0a1.53,1.53,0,0,0-1.58.78h0A2.21,2.21,0,0,1,119.63,159.19Z" fill="#e03942"/><path d="M143.89,321.35c0.81,0,1.63-.05,2.44,0,1.87,0.06,2.74-.8,2.67-2.69-0.14-3.92-.43-7.85-0.29-11.76,0.13-3.7-1.55-4.44-4.89-4.37-9.24.2-9.24,0.06-9.24,9.45S134.57,321.39,143.89,321.35Z" fill="#30212e"/><path d="M97.56,330.34c6.6,0.13,13.19.1,19.79,0.12,0.11-2.51-1.78-1.85-3.1-1.86-6.57,0-13.14,0-19.71,0h0C94.23,331.43,96.44,330.32,97.56,330.34Z" fill="#21182b"/><path d="M164.63,354.23c0.06-13.44,0-26.88.1-40.32,0-.63-0.06-2.23.44-1.84,2.43,1.92,2.72-.85,3.2-1.59,2.7-4.15,6.22-7.73,9.49-11.25,4.4-4.74,8.29-9.95,13-14.42h0c-7.88,0-15.76,0-23.64-.13-2.49,0-3.33.93-3.32,3.36q0.12,35.87.12,71.75C165.16,358,164.62,356.08,164.63,354.23Z" fill="#d34f39"/><path d="M187.46,265.09c-6.49.29-13,.06-19.52,0.1-1.81,0-4-.55-4,2.53s1.88,3.1,4.09,3.1c7.86,0,15.72.06,23.58,0.1,1-.56,1-1.49.84-2.46h0C191.66,266,190.3,265,187.46,265.09Z" fill="#d3513d"/><path d="M162.22,215.49a150.53,150.53,0,0,0-.6-18.71,125.23,125.23,0,0,1-.6-18.26c0.13-4.16-1.5-4.25-4.16-4.25-10.74,0-21.48.32-32.21,0.16-3.73-.05-4.9,1-4.86,4.79,0.15,17.54,0,35.08,0,52.62a41.14,41.14,0,0,1-.85,9.7h0c0.36,1.88-.58,2.58-2.32,2.54q-0.06,2.36-.13,4.71h0c5.87,0.78,12.17-1.88,17.63,2.27a1.65,1.65,0,0,0,1.54-.11c2.83-2.19,6.42-2.18,9.51-2.28s7.5-1.95,9.54,3.13c0.79,2,2.87.76,4.07-.38,1.49-1.41,2.81-3,5.15-2.65h0C164.36,237.64,162.14,226.63,162.22,215.49Zm-22.49,20.23c-4.28.1-5.44-1.35-5.07-5.35a88.89,88.89,0,0,0,.11-11c-0.07-2.33.87-3.24,3.11-3a7.91,7.91,0,0,0,.81,0c10.34-.11,10.34-0.11,10.44,10.08C149.21,235.74,149.2,235.5,139.73,235.72Zm-4.54-45.08c0-.81-0.23-1.95.2-2.38,3-3,6.86-.78,10.29-1.42,1.68-.31,2.88.35,3,2.37,0.09,2.57.32,5.14,0.48,7.71-0.12,8.77-.13,8.51-8.92,8.83-4.34.16-5.47-1.36-5.1-5.34C135.4,197.18,135.16,193.9,135.19,190.64Z" fill="#d45037"/><path d="M144.67,258.57c1.73,0.13,2.93-.35,2.89-2.36,0-1.81.57-4.1-2.24-4.3-2.26-.16-2.09,2-2.64,3.31C142.75,256.77,142.47,258.4,144.67,258.57Z" fill="#d45037"/><path d="M166.78,217.2c1.24-2.55,4-4.32,5.58-6.78,1.33-2.08,4.91-2.06,4.73-5.34,4.8-1.16,5.85-5.3,7.25-9.16h0c-5.28-.06-10.57,0-15.84-0.25-3.23-.16-4.19,1.32-3.72,4.12,1,6,.61,12.14.8,18.22,0.07,2.12-.57,4.35.67,6.36C166.36,222,165.8,219.21,166.78,217.2Z" fill="#d55239"/><path d="M163.81,159.08q0,4-.07,8.05h0l0.19,3.19c7.34,0.23,14.68.39,22-.1h0c-6.57-4.89-13.82-8.68-20.85-12.8l-0.22-.13A2.36,2.36,0,0,0,163.81,159.08Z" fill="#e43c43"/><path d="M163.93,170.32c-1.09,2-.57,3.14,1.69,3.48h0c7.54,0.45,15.13-.92,22.63.76a2.86,2.86,0,0,0,.41-0.26c1.07-.77,1.09-2,1.09-3.23,0-8.8,0-17.6-.06-26.4,0-1,.45-2.62-1.07-2.56s-1,1.7-1,2.68c-0.06,7.58,0,15.16-.09,22.74,0,1,1,3-1.61,2.68h0C178.61,170.72,171.27,170.56,163.93,170.32Z" fill="#854035"/><path d="M163.81,159.08c-2.58,2.66-2.11,5.35-.07,8.05h0Q163.78,163.11,163.81,159.08Z" fill="#56493a"/><path d="M100,160.17l-0.25,0V170a54.68,54.68,0,0,0,.41-8.39A13.71,13.71,0,0,0,100,160.17Z" fill="#30212f"/><path d="M168.9,282.93c6.87,0.54,13.77-.86,20.66.08,2.78,0.38,3.08-1.47,2.93-3.61s0.58-4.61-3-4.5-7.34,0-11,0-7.09.2-10.6-.06-4.07,1.29-4.07,4.32C163.82,283.06,166.73,282.76,168.9,282.93Z" fill="#d24d3a"/><path d="M197,376.45H163.81C168,378.12,192.74,378.1,197,376.45Z" fill="#2b1d26"/><path d="M138.68,216.36a7.91,7.91,0,0,1-.81,0c-2.23-.21-3.18.7-3.11,3a88.89,88.89,0,0,1-.11,11c-0.37,4,.79,5.45,5.07,5.35,9.47-.22,9.48,0,9.39-9.28C149,216.25,149,216.25,138.68,216.36Z" fill="#34212f"/><path d="M140.2,205.75c8.79-.32,8.8-0.06,8.92-8.83-0.17-2.57-.39-5.14-0.48-7.71-0.07-2-1.27-2.68-3-2.37-3.43.63-7.27-1.59-10.29,1.42-0.43.43-.2,1.57-0.2,2.38,0,3.26.21,6.54-.09,9.78C134.72,204.4,135.86,205.91,140.2,205.75Z" fill="#32212f"/></svg>