<?xml version="1.0" encoding="UTF-8"?>
<svg width="1200pt" height="1200pt" version="1.1" viewBox="0 0 1200 1200" xmlns="http://www.w3.org/2000/svg">
 <path d="m1014 570.84c-0.23438-0.23438-0.5625-0.32812-0.84375-0.51562-0.1875-0.42188-0.1875-0.75-0.375-1.1719-3.7031-8.0625-8.0156-14.906-12.75-20.719 3.9375-6.9844 7.3594-14.297 9.5625-22.125 15.047-53.484-16.266-109.22-69.75-124.26-19.781-5.5781-40.781-4.875-60.094 1.7344-9.6562-8.3438-24.797-10.172-48.797-5.7656-4.2188 0.79688-9.8906 1.2656-12.891-0.89062-4.3125-3.0938-5.8125-13.312-7.0781-22.359-1.875-12.984-3.9844-27.703-16.031-35.016-5.9531-3.6094-13.125-4.6406-21.656-3.0469l-62.203-86.672c-3.3281-4.6406-9.5156-6.2812-14.719-3.9375l-121.22 55.312c-6.7031-7.6875-15.516-14.625-26.25-13.828-8.3438 0.60938-14.531 5.5312-19.547 12.094-13.125-17.156-31.547-29.766-52.688-35.719-25.922-7.2656-53.109-4.0312-76.594 9.1406s-40.406 34.688-47.719 60.609c-0.60938 2.1094-0.9375 4.2656-1.4062 6.4219-13.688 9.3281-20.859 26.859-26.25 40.219-0.60938 1.5469-1.3125 3.2344-2.0156 4.9219-7.5469-7.9219-17.531-15.375-29.438-14.297-16.406 1.5-25.312 17.906-33.141 32.391-8.4375 15.516-13.266 22.641-17.953 21.094-18.703-6.0469-32.719-5.625-42.891 1.3594-14.438 9.8906-15.469 28.969-16.312 44.344-0.32812 6.0469-0.89062 16.031-2.625 18.75-0.23438 0-0.5625 0.046875-1.0781 0-42.422-3.0938-72.281 14.156-79.969 46.172-7.6406 31.969 10.172 67.734 41.391 86.578-11.906 22.5-18.984 45.047-14.625 63 2.5312 10.359 10.031 24 31.406 30l839.16 235.92c10.922 3.0938 20.672 4.4062 29.391 4.4062 32.016 0 49.875-18.141 59.625-35.531 46.781-83.297-13.688-294.61-71.766-348.61zm-80.625-145.69c40.734 11.438 64.547 53.906 53.109 94.641-1.1719 4.125-2.6719 8.1094-4.4531 11.906-18.234-12.609-38.906-16.641-55.828-19.875-31.031-5.9531-45.188-8.6719-39.328-47.016l0.1875-1.3594c2.2031-14.391 4.0312-27 3.0469-37.594 14.016-4.3125 29.016-4.7812 43.266-0.75zm-235.97-153.14 51.609 71.906c-17.672 5.0156-29.062 5.7656-35.812 2.2969-6.6562-3.4219-11.719-12.516-17.438-31.453-0.79688-2.5781-2.4375-4.8281-4.6406-6.375-11.953-8.2969-22.734-11.297-32.906-9.0469-15.375 3.3281-23.766 17.578-30.516 29.016-3.3281 5.625-8.9062 15.047-11.953 15.188-0.84375 0.046875-8.0156-0.46875-25.594-22.547l107.25-48.938zm-285.52 21.984c17.859-10.031 38.578-12.516 58.312-6.9375 19.406 5.4375 35.766 18.375 45.75 35.766-3.1875 6-7.6406 13.688-10.172 14.391 0 0-0.75-0.046875-2.3906-1.0781-45.844-29.016-64.453-16.828-80.953-0.60938-8.8594 8.7188-12.516 12.328-28.125 4.2656-5.8125-3-11.391-4.7344-16.781-5.5312 6.3281-17.062 18.281-31.266 34.359-40.266zm-289.13 246.66c4.7344-19.875 24.75-30.047 54.844-27.797 9.1875 0.65625 15.188-2.7188 18.516-5.6719 9.4219-8.2969 10.172-22.219 10.922-35.719 0.5625-10.078 1.2188-22.641 5.9062-25.828 1.5938-1.125 6.9844-3.1406 21.891 1.6875 24.516 7.9219 37.734-16.406 46.453-32.484 3.1875-5.8594 10.641-19.594 14.203-19.922 1.2188-0.14062 6.0938 1.875 14.484 12.281 6 7.4531 12.328 8.25 16.594 7.5938 10.828-1.5938 15.047-12.141 20.438-25.453 4.6875-11.625 11.109-27.516 20.25-30.891 4.0781-1.5 9.4688-0.5625 16.031 2.7656 31.078 15.938 46.031 1.2188 55.969-8.5312 10.312-10.125 17.719-17.438 51.281 3.7969 8.9531 5.6719 16.594 5.2969 21.469 3.9844 13.547-3.7031 20.719-17.672 27.703-31.219 2.8125-5.4844 7.9688-15.469 11.016-17.531 1.125 0.51562 4.7812 2.7656 11.062 11.531 22.594 31.734 39 45 54.938 44.297 16.078-0.65625 24.703-15.234 31.594-26.953 4.6406-7.7812 9.8438-16.641 15-17.766 2.5312-0.5625 6.3281 0.5625 10.781 3.1875 6.3281 19.734 13.828 34.312 28.219 41.672 15.188 7.7344 35.438 6.0469 69.703-5.8125h0.046875c0.09375-0.046876 0.1875-0.046876 0.28125-0.09375 6.6094-2.2969 9.5625-1.875 10.172-1.5 2.3438 1.4062 3.8906 12.188 4.7344 17.953 1.875 13.078 4.2188 29.344 16.875 38.438 7.9219 5.6719 18.422 7.3594 31.219 5.0156 22.266-4.0781 27.797-0.75 28.969 0.42187 4.1719 4.0781 1.4531 22.031-0.98438 37.875l-0.1875 1.3594c-9.375 61.219 28.312 68.438 58.547 74.25 26.484 5.0625 53.859 10.312 69.281 43.781 1.7344 3.7969-5.9062 10.406-16.078 18.703-13.734 11.203-30.844 25.125-30.094 46.125 0.70312 18.188 14.625 36.141 43.922 56.484 5.9062 4.0781 10.594 22.266 4.5938 41.484-4.5469 14.484-17.906 38.156-56.859 41.344-6.1875-23.156-12.328-50.109-18-81.234-25.875-141.98-115.97-248.34-247.26-291.74-72.562-24-152.63-27.047-231.52-8.7656-81.891 18.984-158.72 60.328-222.19 119.67-0.65625 0.60938-37.5 37.547-64.547 79.594-24.281-14.672-34.734-41.297-30.188-60.281zm41.297 150.89c-10.969-3.0938-13.547-8.3438-14.578-12.562-3.5625-14.719 7.875-42.609 31.5-76.547 20.953-30.141 45.141-56.297 52.922-63.562 87.281-81.562 197.44-125.34 306.28-125.34 41.812 0 83.438 6.4688 123.47 19.688 122.68 40.594 206.9 140.16 231.14 273.24 16.641 91.453 41.531 167.34 66.984 209.34zm900.74 216.19c-12.094 21.562-32.25 28.031-61.594 19.734-5.25-1.5-20.156-15.938-38.766-60.188-6.1406-14.578-13.594-34.641-21.328-60.516 51.188-6.1406 68.156-41.531 73.172-57.609 8.625-27.516 2.6719-56.953-13.781-68.391-28.781-20.016-33.422-32.203-33.609-37.688-0.32812-9.0469 10.641-17.953 21.234-26.578 5.8594-4.7812 12.562-10.359 17.672-16.781 21.797 28.219 44.062 81.469 57.844 139.74 17.391 73.5 17.109 136.4-0.79688 168.19zm-643.97-399.52c-6.6562-4.875-15.656-5.3906-24.656-1.4531-6.9375 3.0469-13.641 8.6719-18.844 15.797s-8.5312 15.234-9.2812 22.781c-1.0312 9.75 2.2031 18.188 8.9062 23.016 3.7969 2.7656 8.2031 4.0781 12.891 4.0781 10.406 0 21.984-6.6094 30.656-18.469 5.2031-7.125 8.4844-15.234 9.2812-22.781 1.0312-9.75-2.2031-18.188-8.9062-23.016zm-19.828 31.641c-3.3281 4.5938-6.8438 6.9375-9.0938 7.9688 0.28125-2.4375 1.4531-6.5156 4.7812-11.109s6.8438-6.9375 9.0938-7.9688c-0.28125 2.4375-1.4531 6.5156-4.7812 11.109zm109.55-0.046874c3.7969 2.7656 8.2031 4.0781 12.891 4.0781 10.406 0 21.984-6.6094 30.656-18.469 5.2031-7.125 8.4844-15.234 9.2812-22.781 1.0312-9.75-2.2031-18.188-8.9062-23.016-6.6562-4.875-15.656-5.3906-24.656-1.4531-6.9375 3.0469-13.641 8.6719-18.891 15.797-12.516 17.156-12.703 36.844-0.42188 45.844zm19.828-31.641c3.3281-4.5938 6.8438-6.9375 9.0938-7.9688-0.28125 2.4375-1.4531 6.5156-4.7812 11.109s-6.8438 6.9375-9.0938 7.9688c0.28125-2.4375 1.4531-6.5156 4.7812-11.109zm68.25 43.734c-12.281-8.9531-30.984-2.8125-43.5 14.344s-12.703 36.844-0.42188 45.844c3.7969 2.7656 8.2031 4.0781 12.844 4.0781 10.406 0 21.984-6.6094 30.656-18.469 12.516-17.156 12.703-36.844 0.42188-45.844zm-19.781 31.688c-3.3281 4.5938-6.8438 6.9375-9.0938 7.9688 0.28125-2.4375 1.4531-6.5156 4.7812-11.109s6.8438-6.9375 9.0938-7.9688c-0.28125 2.4375-1.4531 6.5156-4.7812 11.109zm114.09-55.828c-6.6562-4.875-15.656-5.3906-24.656-1.4531-6.9375 3.0469-13.641 8.6719-18.844 15.797s-8.4844 15.234-9.2812 22.781c-1.0312 9.75 2.2031 18.188 8.9062 23.016 3.7031 2.7188 8.1094 4.0781 12.844 4.0781 3.7969 0 7.7812-0.89062 11.766-2.625 6.9375-3.0469 13.641-8.6719 18.844-15.797 12.516-17.156 12.703-36.844 0.42188-45.797zm-19.828 31.641c-3.3281 4.5938-6.8438 6.9375-9.0938 7.9688 0.28125-2.4375 1.4531-6.5156 4.7812-11.109s6.8438-6.9375 9.0938-7.9688c-0.28125 2.4375-1.4531 6.5156-4.7812 11.109zm-3.5156 97.594c-12.281-8.9531-30.984-2.8125-43.5 14.344s-12.703 36.844-0.42188 45.797c3.7031 2.7188 8.1094 4.0781 12.844 4.0781 3.7969 0 7.7812-0.89063 11.766-2.625 6.9375-3.0469 13.641-8.6719 18.844-15.797 12.516-17.156 12.703-36.844 0.42188-45.797zm-19.828 31.641c-3.3281 4.5938-6.8438 6.9375-9.0938 7.9688 0.28125-2.4375 1.4531-6.5156 4.7812-11.109s6.8438-6.9375 9.0938-7.9688c-0.28125 2.4375-1.4531 6.5156-4.7812 11.109zm-144.1-84.562c-12.281-8.9531-30.984-2.8125-43.5 14.344-5.2031 7.125-8.4844 15.234-9.2812 22.781-1.0312 9.75 2.2031 18.188 8.9062 23.016 3.7031 2.7188 8.1094 4.0781 12.844 4.0781 3.7969 0 7.7812-0.89062 11.766-2.625 6.9375-3.0469 13.641-8.6719 18.844-15.797 12.516-17.156 12.703-36.844 0.42188-45.844zm-19.781 31.641c-3.3281 4.5938-6.8438 6.9375-9.0938 7.9688 0.28125-2.4375 1.4531-6.5156 4.7812-11.109s6.8438-6.9375 9.0938-7.9688c-0.28125 2.4375-1.4531 6.5156-4.7812 11.109zm81.047 45.422c-6.6562-4.875-15.656-5.3906-24.656-1.4531-6.9375 3.0469-13.641 8.6719-18.844 15.797-12.516 17.156-12.703 36.844-0.42188 45.797 3.7969 2.7656 8.2031 4.0781 12.891 4.0781 10.406 0 21.984-6.6094 30.656-18.469 5.2031-7.125 8.4844-15.234 9.2812-22.781 1.0312-9.75-2.2031-18.188-8.9062-23.016zm-19.828 31.688c-3.3281 4.5938-6.8438 6.9375-9.0938 7.9688 0.28125-2.4375 1.4531-6.5156 4.7812-11.109s6.8438-6.9375 9.0938-7.9688c-0.28125 2.4375-1.4531 6.5156-4.7812 11.109zm220.31-110.16c-6.6562-4.875-15.656-5.3906-24.656-1.4531-6.9375 3.0469-13.641 8.6719-18.844 15.797-12.516 17.156-12.703 36.844-0.42188 45.844 3.7031 2.7188 8.1094 4.0781 12.844 4.0781 3.7969 0 7.7812-0.89063 11.766-2.625 6.9375-3.0469 13.641-8.6719 18.844-15.797s8.5312-15.234 9.2812-22.781c1.0312-9.75-2.2031-18.188-8.9062-23.016zm-19.828 31.688c-3.3281 4.5938-6.8438 6.9375-9.0938 7.9688 0.28125-2.4375 1.4531-6.5156 4.7812-11.109s6.8438-6.9375 9.0938-7.9688c-0.28125 2.4375-1.4531 6.5156-4.7812 11.109z" fill="#53776a"/>
</svg>
