<?xml version="1.0" encoding="UTF-8"?>
<svg width="512pt" height="512pt" version="1.1" viewBox="0 0 512 512" xmlns="http://www.w3.org/2000/svg">
 <path d="m419.76 350.02c-3.3203-10.641-8.1406-21.559-14.32-32.441-0.039062-0.058594-0.058594-0.12109-0.10156-0.17969-17.32-30.301-45.262-60.602-85.422-92.621-5.3789-4.2812-11.082-8.6016-16.898-12.918 17.078-13.621 30.32-37.141 35.52-47.34 2.2383-4.3789 3.1406-9.3203 2.6016-14.281-1.1211-10.301-3.5-20.199-7.0781-29.461-10.461-27.059-28.422-41.758-36.102-47.078-30.941-33.219-62.582-48.941-94.078-46.66-1.1602 0.078126-2.2617 0.28125-3.3984 0.42188-8.1016-2.1016-21.238-2.4805-31.719-0.85938-9.7188 1.5-19.5 4.3594-29.059 8.5391-4.5586 1.9805-8.3789 5.2188-11.082 9.3594-5.5391 8.5586-15.441 25.281-20.641 42.621-20.461 17.48-25.281 50-19.262 72.258 7.1797 26.441 25.84 46.52 52.68 56.898-2.3203 20.359-2.6406 50.301 7.3789 83.738 1.5 5.0195 2.8203 10.18 3.8984 15.359 0.23828 1.1602 0.48047 2.3203 0.69922 3.5195 1.4609 7.7383 2.3594 15.621 2.7383 23.398-2.3594 5.5-4.8984 10.559-7.6211 14.98-3.9414 6.4219-9.9609 11.398-17.398 14.422-1.5781 0.66016-3.0195 1.2812-4.3789 1.9219-9.0195 4.2812-15.738 9.5195-19.961 15.559-3.0586 4.3789-4.7812 9.1602-5.1016 14.18-0.60156 9.1602 3.6992 17.84 11.141 23.199 0.039062 0.039062 0.078125 0.078124 0.12109 0.10156 1.1992 0.83984 2.4609 1.6406 3.8008 2.3008 0.94141 0.46094 2.0391 0.98047 3.1992 1.5195-5.5 6-10.301 13.922-9.9219 23.16v0.13672c0 0.058593 0 0.12109 0.019531 0.19922 0 0.10156 0 0.19922 0.019531 0.30078v0.11719c0.019531 0.57812 0.078125 1.1797 0.14062 1.8008 1.2812 10.621 8.9414 19.379 19.5 22.359 0.019531 0 0.039063 0.019531 0.058594 0.019531-0.019531 0-0.039063-0.019531-0.058594-0.019531 0.019531 0 0.039063 0.019531 0.039063 0.019531h0.039062c0.039062 0.019532 0.10156 0.019532 0.14062 0.039063 4.5391 1.7383 9.6211 2.7383 14.961 3.0391 0.14063 0.019531 0.26172 0.058593 0.39844 0.058593 0.078125 0 0.16016-0.039062 0.23828-0.039062 0.83984 0.039062 1.6602 0.10156 2.5 0.10156 0.42188 0 0.83984 0 1.2617-0.019531h0.14062c0.39844 0 0.78125 0.019531 1.1797 0.019531 11.441 0 21.859-3.3984 31.102-10.039 13.02 8.2812 28.738 12.918 46.898 13.68 1.8203 0.078125 3.7188 0.12109 5.6797 0.12109 1.8594 0 3.7812-0.039062 5.7383-0.12109 11.301-0.44141 23.641-2.2617 36.68-5.3594 12.879 4.1406 25.602 6.2812 38.039 6.2812 8.2812 0 16.461-0.92188 24.461-2.7617 22.398-5.1602 42.699-16.359 58.723-32.398l0.019531-0.019531c7.4414-7.4414 13.719-15.738 18.641-24.699 0.039063-0.058594 0.058594-0.12109 0.078125-0.17969 0.019532-0.039063 0.039063-0.058594 0.058594-0.078126 6.2617-12.602 9.2617-26.461 8.9414-41.199-0.26172-11.539-2.2383-23.32-5.8984-35.039zm-283.28-300.4c1.6797-2.6016 4.1016-4.6211 6.9609-5.8789 8.8203-3.8398 17.801-6.4805 26.738-7.8594 0.60156-0.10156 1.2617-0.16016 1.8789-0.23828-25.781 12.219-43.082 33.781-49.719 43.121-0.55859 0.19922-1.1406 0.39844-1.6797 0.62109 5.0391-12.301 11.68-23.418 15.82-29.762zm-25.781 47.898c-1.0391 7.1016 3.9805 14.262 12.102 17.879-0.89844 1.3203-2.0781 2.9219-3.6992 4.5391l-0.35938 0.35938c-0.019531 0.019531-0.058593 0.039062-0.078125 0.078125-2.8594 2.7617-5.7812 4.4609-8.6602 5.0195h-0.019531c-0.019531 0-0.039063 0-0.058594 0.019531-3.3398 0.55859-6.9609-0.44141-10.781-2.9609-0.35938-0.23828-0.76172-0.33984-1.1602-0.48047 2.3398-9.1992 6.5195-17.84 12.699-24.461zm3.7812 297.04c3.2383-4.6406 8.8594-8.9414 16.301-12.48 1.1992-0.57812 2.4609-1.1406 3.8594-1.6992 8.9219-3.6211 16.16-9.6016 21.16-17.238-0.62109 7.5586-1.6016 14.719-2.9414 21.219-1.3398 6.5195-3.0781 12.539-5.1406 17.898-1.0391 2.6797-2.4219 5.2617-4.1211 7.6406-3.1602 3.8594-6.6211 7.0586-10.301 9.5195-1.3594 0.85938-3.4414 2.2617-5.8008 4.1016-2.5586-1.0195-4.8203-2.1016-6.582-2.9805-0.039062-0.019531-0.078125-0.058593-0.12109-0.078124 2.4609-9.5586 7.4414-14.719 7.5586-14.84 1.8398-1.8008 1.8789-4.7617 0.078125-6.6211s-4.7812-1.8984-6.6406-0.10156c-0.26172 0.26172-5.1797 5.1992-8.582 14.359-1.5781-2.8203-2.3789-6.0195-2.1797-9.3398 0.19922-3.2812 1.3594-6.4414 3.4219-9.3984zm103.9 14.18c1.6406 2.5781 3.3398 5.0391 5.0391 7.4805-2.3398-0.039062-4.6992-0.21875-7.0391-0.69922 0.67969-2.1992 1.3594-4.4414 2-6.7617zm118.72 65.762c-18.762 4.3203-38.52 3.0781-58.762-3.6602-7.2188-2.4219-14.461-5.5195-21.52-9.2188-0.62109-0.32031-1.2383-0.66016-1.8594-1 5.1797-0.12109 10.441-0.46094 15.641-1 9.2812-0.96094 18.379-2.6016 27.039-4.8789 0.12109-0.039063 0.23828-0.058594 0.33984-0.10156 33.578-8.8789 59.48-26.578 76.98-52.598 1.4414-2.1602 0.87891-5.0586-1.2812-6.5195-2.1602-1.4414-5.0586-0.87891-6.5195 1.2812-16.238 24.141-40.398 40.582-71.84 48.84-0.078125 0.019531-0.16016 0.039063-0.26172 0.078125-8.1406 2.1211-16.699 3.6602-25.461 4.5781-6.0586 0.64062-12.18 0.98047-18.16 1-8.3398 0.039063-13.5-0.53906-13.539-0.53906-2.1406-0.26172-4.1797 1-4.9414 3.0195s-0.019531 4.3008 1.7617 5.5195c3.0391 2.0586 6.0586 4 8.9805 5.7383 2.9219 1.7617 5.8594 3.3984 8.7383 4.8984 2.6797 1.3984 5.4219 2.6406 8.1406 3.8789-7.3203 1.2188-14.359 2.0391-20.961 2.3008-3.7188 0.14062-7.3008 0.14062-10.621-0.019532-15.32-0.64062-28.68-4.2383-39.82-10.68 1.8398-1.8203 3.6211-3.8008 5.3594-5.9414 3.1016 1.1602 4.9219 2.1211 4.9805 2.1602 0.71875 0.37891 1.4805 0.57812 2.2383 0.57812 1.6602 0 3.2812-0.87891 4.1211-2.4414 1.2383-2.2812 0.39844-5.1211-1.8594-6.3594-0.10156-0.058593-1.4414-0.78125-3.7812-1.7617 1.8984-2.9414 3.7617-6.0195 5.5-9.3789 0.14062-0.28125 0.28125-0.55859 0.39844-0.83984 1.2188 0.53906 1.9609 0.92188 1.9805 0.94141 0.71875 0.37891 1.4805 0.57812 2.2383 0.57812 1.6602 0 3.2617-0.87891 4.1211-2.4414 1.2383-2.2812 0.39844-5.1211-1.8594-6.3594-0.058594-0.039063-1-0.51953-2.5391-1.2188 1.1602-2.6992 2.2617-5.5391 3.3203-8.4609 3.5 0.80078 7.0195 1.2383 10.52 1.2383 2.7383 0 5.4609-0.26172 8.1211-0.73828 0.44141-0.078125 0.87891-0.16016 1.3008-0.26172 0.058594-0.019532 0.10156-0.058594 0.16016-0.078126 0.10156-0.019531 0.19922-0.039062 0.30078-0.058593 0.23828-0.078125 0.44141-0.23828 0.66016-0.35938 0.10156-0.058594 0.19922-0.10156 0.30078-0.16016 0.10156-0.058594 0.21875-0.10156 0.32031-0.16016 0.019531-0.019531 0.039062-0.019531 0.058593-0.019531 0.019532-0.019531 0.019532-0.039062 0.039063-0.058594 0.35938-0.28125 0.64062-0.62109 0.89844-1 0.058594-0.078125 0.14063-0.14062 0.19922-0.23828 0.019531-0.019531 0.039063-0.058594 0.039063-0.078125 0.10156-0.16016 0.12109-0.33984 0.19922-0.51953 0.14063-0.32031 0.30078-0.62109 0.35938-0.98047 8.418-45.359 41.039-55.859 42.422-56.277 2.4805-0.73828 3.8789-3.3594 3.1406-5.8398-0.73828-2.4805-3.3594-3.8984-5.8398-3.1406-1.5 0.44141-34.359 10.801-46.559 53.559-2.9219-4.2617-5.7617-8.6992-8.418-13.34 1.5-6.6406 2.8789-13.719 4.1016-21.219 0.039062-0.17969 0.058594-0.35938 0.078125-0.55859 0.21875-1.3398 0.44141-2.6992 0.64062-4.1016 0-0.019531 0-0.039062 0.019531-0.058593 0-0.039063 0.019531-0.10156 0.019531-0.12109l0.019532-0.10156c0.019531-0.10156 0.039062-0.19922 0.039062-0.32031 0.19922-1.3984 0.39844-2.8008 0.60156-4.2188 0.26172-1.9219 0.51953-3.8594 0.76172-5.8203 0.16016-1.3008 0.32031-2.6016 0.48047-3.8984 0.16016-1.3398 0.32031-2.6797 0.46094-4.0781l0.37891-3.6797c0.058594-0.66016 0.14062-1.3008 0.17969-1.9219 0.039063-0.39844 0.078125-0.83984 0.10156-1.2383 0.28125-2.9219 0.53906-5.8789 0.78125-8.9414 0.14062-1.7383 0.26172-3.5 0.39844-5.2812 0.16016-2.2812 0.32031-4.6406 0.48047-7.0195 0.039062-0.69922 0.10156-1.3594 0.14062-2.0586 0.058594-0.67969 0.078125-1.3594 0.12109-2.0391v-0.039062c0-0.058594 0.019531-0.12109 0.019531-0.19922 0.16016-2.5781-1.8203-4.8008-4.3984-4.9609-2.5586-0.14063-4.8008 1.8203-4.9609 4.3984-0.078125 1.4609-0.17969 2.8594-0.28125 4.2812-0.14062 2.3398-0.30078 4.6406-0.48047 6.9414-0.12109 1.7383-0.26172 3.4609-0.37891 5.1406-0.23828 3-0.5 5.9414-0.78125 8.8398-0.21875 2.3008-0.44141 4.5586-0.67969 6.7812-0.28125 2.6602-0.60156 5.2383-0.92187 7.7812-0.23828 1.9414-0.5 3.8203-0.76172 5.6992-0.12109 0.83984-0.23828 1.6602-0.35938 2.4805-0.078125 0.55859-0.16016 1.1406-0.23828 1.7188 0 0.039062-0.019531 0.12109-0.019531 0.14062l-0.039062 0.30078c-1.6211 10.68-3.6016 20.801-6.0586 30.922-0.019531 0.058593-0.039063 0.14062-0.058594 0.19922-1.6016 6.3789-3.2812 12.102-5.1016 17.52v0.019531c-7.0781 20.941-16.32 36.102-27.461 45.039-7.1992 5.6797-16.762 9.2188-26.602 9.9609 3.1602-8.2383 6.7617-13.262 6.8008-13.32 1.5391-2.0781 1.1016-5.0195-0.98047-6.5586-2.0781-1.5391-5.0195-1.1016-6.5586 0.98047-0.23828 0.32031-5.2188 7.1602-9.0391 18.359-3.5-0.53906-6.6797-1.3008-9.3203-2.0391-1.5391-0.62109-3.1602-1.4414-4.7383-2.4609 1.9414-12.02 8.1797-18.602 8.3398-18.738 1.8398-1.8008 1.8789-4.7617 0.078125-6.6211-1.8008-1.8594-4.7812-1.8984-6.6406-0.10156-0.30078 0.30078-5.9414 5.9609-9.3203 16.5-0.39844-1.1016-0.73828-2.2383-0.94141-3.5-0.058594-0.37891-0.078125-0.76172-0.12109-1.1406v-0.14062c0-0.14062 0.019532-0.28125 0.019532-0.42188-0.019532-0.89844 0.058594-1.8008 0.19922-2.6992 0.078126-0.55859 0.19922-1.1211 0.33984-1.6602 0.12109-0.51953 0.30078-1.0391 0.48047-1.5586 0.30078-0.89844 0.66016-1.7812 1.1016-2.6602 0.26172-0.53906 0.51953-1.1016 0.83984-1.6211 0.42188-0.71875 0.92188-1.4609 1.4219-2.1797 0.12109-0.16016 0.23828-0.33984 0.35938-0.5 1.8984-2.5586 4.3594-5.1211 7.3789-7.6406 2.1016-1.7617 4.3984-3.4219 6.8398-5 4.6211-2.9805 8.5586-6.6406 11.801-10.84 0.039063-0.058594 0.10156-0.078125 0.14063-0.12109 0 0 0.019531-0.019531 0.019531-0.039062 0.019531-0.019532 0.039062-0.058594 0.058593-0.078125 0.12109-0.16016 0.14063-0.19922 0.19922-0.28125 0.12109-0.16016 0.26172-0.30078 0.35938-0.46094 0.039063-0.058593 0.10156-0.12109 0.14062-0.17969 2.2188-3.0781 4.0391-6.4219 5.3789-9.9219 2.2383-5.8398 4.1211-12.359 5.5781-19.379 1.4805-7.1992 2.5781-15.102 3.2188-23.48 0.5-6.4414 0.60156-13.059 0.32031-19.641v-0.21875c-0.35938-8.582-1.3594-17.238-2.9805-25.758-0.23828-1.2383-0.48047-2.4805-0.73828-3.7188-1.1406-5.4414-2.5195-10.859-4.1016-16.121-9.2383-30.859-9.2812-58.617-7.2812-78 6.8984 1.9805 14.219 3.3594 21.84 4.1406 0.12109 0.019531 0.21875 0.058593 0.33984 0.058593 0.039062 0 0.078125-0.019531 0.10156-0.019531 1.2383 0.12109 2.4805 0.30078 3.7383 0.37891 3.4805 0.26172 7.0195 0.37891 10.621 0.37891 5.2812 0 10.68-0.28125 16.121-0.80078 2.5781-0.26172 4.4609-2.5586 4.1992-5.1406-0.26172-2.5781-2.5586-4.4609-5.1406-4.1992-8.6406 0.85937-17.102 1-25.141 0.39844-10.398-0.73828-20.199-2.6797-29.141-5.7617-0.039063-0.019531-0.078125-0.039062-0.12109-0.039062-26.082-9.0391-43.422-26.941-50.16-51.801-2.0586-7.582-2.6211-16.48-1.5781-25.379 3.9414 2.2188 7.8984 3.3789 11.82 3.3789 1.1602 0 2.3203-0.10156 3.5-0.30078 0.12109-0.019531 0.23828-0.039062 0.33984-0.058593 0.019532 0 0.039063-0.019532 0.039063-0.019532h0.019531c0.058594-0.019531 0.12109-0.039062 0.16016-0.058594 4.6211-0.87891 9-3.3398 12.961-7.2812 0.039062-0.039062 0.078125-0.058593 0.12109-0.10156l0.039062-0.039062c0.078125-0.078126 0.16016-0.16016 0.26172-0.26172 0.039062-0.039063 0.058593-0.058594 0.10156-0.10156l0.17969-0.17969c0.058593-0.058594 0.14062-0.14062 0.19922-0.19922 0 0 0-0.019531 0.019531-0.019531 1.8008 5.1797 5.0195 11.02 10.82 14.539 3.4414 2.0781 7.3008 3.1211 11.621 3.1211 5.0391 0 10.68-1.4219 16.84-4.2812 2.3594-1.0781 3.3789-3.8789 2.3008-6.2188-1.0781-2.3594-3.8789-3.3789-6.2188-2.3008-8.418 3.8789-15.02 4.4414-19.641 1.6602-5.6016-3.3789-7.5586-11.02-8.2383-15.078 9.3008 0.17969 17.262-4.5391 18.922-11.918 1.9805-8.8008-5.7383-18.02-17.219-20.578-1.8594-0.42188-3.6797-0.55859-5.4609-0.60156 6.1797-8.8008 34.18-45.34 74.879-48.262 28.641-2.0586 57.883 12.762 86.902 44.082 0.12109 0.14062 0.30078 0.17969 0.44141 0.30078 0.14062 0.12109 0.21875 0.28125 0.35937 0.37891 6.7188 4.5781 23.359 17.941 33.059 43.02 3.2812 8.4805 5.4609 17.602 6.5 27.102 0.33984 3.1211-0.21875 6.2422-1.6211 8.9805-5.3984 10.559-19.879 36.359-37.621 47.621-1.3789 0.87891-2.8203 1.6797-4.2383 2.3594-1.6016 0.76172-3.4414 0.69922-5-0.17969-1.6211-0.89844-2.6406-2.4609-2.8398-4.2617-0.17969-1.8008-0.39844-3.9609-0.55859-6.3594 0-0.10156 0-0.19922-0.019531-0.30078-0.21875-2.9414-0.35938-5.7383-0.46094-8.582-0.60156-17.039 0.37891-43.461 8.4414-72.52 0.69922-2.5-0.78125-5.0781-3.2617-5.7812-2.5-0.69922-5.0781 0.78125-5.7812 3.2617-8.3789 30.199-9.3984 57.66-8.7812 75.34 0.10156 2.8594 0.23828 5.6992 0.46094 8.6406 0 0.10156 0 0.17969 0.019532 0.28125 0.17969 2.6406 0.42187 4.9805 0.62109 6.9414 0.51953 4.8203 3.3398 9.1211 7.582 11.48 2.2617 1.2617 4.7617 1.8984 7.2617 1.8984 2.1797 0 4.3594-0.48047 6.3789-1.4414 0.80078-0.37891 1.5586-0.87891 2.3594-1.3203 6.7188 4.9219 13.238 9.8594 19.359 14.719 39.141 31.219 66.301 60.578 83.043 89.758 0.039063 0.058593 0.058594 0.12109 0.10156 0.17969 5.8984 10.34 10.48 20.68 13.621 30.738 3.3789 10.879 5.2383 21.801 5.4805 32.461 0.30078 13.141-2.3594 25.48-7.8789 36.66v0.019531s0 0.019532-0.019531 0.019532c-4.5 8.1797-10.238 15.801-17.059 22.621l-0.019531 0.019531s0 0.019531-0.019531 0.019531c-14.559 14.582-33.801 25.199-54.199 29.879z" fill="#7f00ff"/>
 <path d="m178.88 97.039c-5.1211 2.8789-6.9414 9.3594-4.0586 14.48 2.8789 5.1211 9.3594 6.9414 14.48 4.0586 5.1211-2.8789 6.9414-9.3594 4.0586-14.48-2.8789-5.1211-9.3594-6.9414-14.48-4.0586z" fill="#7f00ff"/>
</svg>
