<?xml version="1.0" encoding="UTF-8"?>
<svg width="512pt" height="512pt" version="1.1" viewBox="0 0 512 512" xmlns="http://www.w3.org/2000/svg">
 <path d="m298.42 292.02c2.2383 1.1797 4.6602 1.7383 7.0391 1.7383 5.1602 0 10.18-2.6602 12.98-7.3789 1.3008-2.1992 0.57812-5.0391-1.6211-6.3398-2.1992-1.3008-5.0391-0.57812-6.3398 1.6211-1.5781 2.6797-5 3.6211-7.7617 2.1797-2.7188-1.4414-3.8789-4.7617-2.6406-7.5586 1.0391-2.3398-0.019531-5.0586-2.3398-6.1016-2.3398-1.0391-5.0586 0.019531-6.1016 2.3398-3.2188 7.2383-0.26172 15.801 6.7617 19.52z" fill="#7f00ff"/>
 <path d="m395.04 320.54c-2.2617-1.1992-5.0586-0.35937-6.2617 1.8984 0 0.019531-0.039063 0.078125-0.058594 0.10156-1.5 2.8594-5.0586 3.9609-7.9219 2.4609-2.8398-1.5-3.9609-5.0391-2.4805-7.8789 1.1797-2.2617 0.30078-5.0586-1.9805-6.2422-2.2617-1.1797-5.0586-0.30078-6.2422 1.9805-3.8203 7.3398-0.96094 16.461 6.3594 20.34 2.1992 1.1602 4.6016 1.7383 7.0195 1.7383 1.5 0 3.0195-0.21875 4.5-0.67969 3.8594-1.1992 7-3.8008 8.9219-7.4414 1.1992-2.2617 0.35938-5.0586-1.8984-6.2617z" fill="#7f00ff"/>
 <path d="m354.46 356.32c-9.0195 1.5195-15.461 0.33984-19.121-3.5-4.4805-4.6797-4.3398-12.5-3.9219-16.539 8.7383 2.5 17.441 0.058594 20.918-6.5 4.1602-7.8594-0.80078-18.641-11.059-24.059-10.262-5.3984-21.941-3.3984-26.102 4.4609-1.6211 3.1016-1.8594 6.6211-0.89844 10.121 1.0781 4.0195 3.7383 7.9609 7.6211 11.059-4.4609 3.7812-13.898 9.9414-22.039 2.9609-2.7188-2.3203-5.2383-5.9414-7.4414-10.719-1.0781-2.3203-3.8203-3.3398-6.1406-2.2617-2.3203 1.0781-3.3398 3.8203-2.2617 6.1406 2.7812 6 6.0781 10.68 9.8398 13.879 4.6992 4.0391 9.5391 5.5 14.078 5.5 5.3594 0 10.281-2.0586 14.16-4.3594 0.35938 5.4219 1.9219 11.82 6.5391 16.68 4.4414 4.6797 10.762 7.0195 18.84 7.0195 2.6602 0 5.5195-0.26172 8.5586-0.76172 2.5195-0.42188 4.2188-2.8203 3.8008-5.3398-0.42188-2.5195-2.8008-4.2188-5.3398-3.8008z" fill="#7f00ff"/>
 <path d="m452.06 215.58c-1.1602-0.94141-2.1797-2.0391-2.9805-3.2617-4.3789-6.6602-16.879-23.801-38.16-39.059-20.359-15.621-41.238-21.879-49.281-23.84-1.5-0.35938-2.9219-0.98047-4.2188-1.8008-1.1602-0.73828-2.4609-1.5195-3.8594-2.3008-12.898-7.1797-39.859-17.66-75.539-7.0391-3.2812 0.98047-6.2812 2.6406-8.7812 4.8594-24.582-9.5781-51.66-14.859-78.582-15.219-32.121-0.39844-64.418 6.8008-90.961 20.359-29.98 15.32-52.363 38.301-64.703 66.5-13.262 30.301-12.441 63.16 2.3398 92.52 17.18 34.16 51 59.98 90.441 69.039 9.6602 2.2188 19.102 3.1992 28.238 3.1992 22.941 0 44.039-6.1797 62.059-14.48 22.719-1.2383 42.621-4.5391 59.219-9.7812 23.922 17.621 52.5 28.801 78.199 28.801 2.7812 0 5.5391-0.14062 8.2383-0.39844 15.5-1.5391 28.82-7.2812 39.559-17.102 7.3008-6.6602 13.281-15.121 17.879-25.262 1.0195 1.5586 2.3008 2.9805 3.9219 4.0391 2.2812 1.5195 4.9414 2.2812 7.6211 2.2812 1.6797 0 3.3789-0.32031 5-0.94141 20.641-8.0586 38.582-34.781 45.34-45.898 2.3398-3.8594 3.5-8.3203 3.3398-12.898-1.5391-43.039-26.66-66.258-34.32-72.34zm-213.26 138.36c2.9609-1.8203 5.7812-3.6602 8.4609-5.4805 1.7617-1.1992 2.4805-3.4414 1.7188-5.4414-0.73828-2-2.7617-3.2188-4.8594-2.9805-0.26172 0.039063-25.461 2.8203-56.438-3.5586-41.121-8.4805-72.359-28.238-92.883-58.762-1.4219-2.1211-4.3008-2.6797-6.4219-1.2617-2.1211 1.4219-2.6797 4.3008-1.2617 6.4219 21.66 32.219 55.898 53.898 99 62.719 16.16 3.3008 30.641 4.2383 41.238 4.3398-25.578 14.398-59.961 26.02-97.52 17.379-36.781-8.4609-68.281-32.461-84.238-64.18-13.5-26.84-14.262-56.898-2.1211-84.641 26.738-61.102 95.938-82.039 147.06-81.32 24.699 0.32031 49.52 4.9805 72.258 13.422-9.3984 11.98-24.039 33.52-24.922 52.617-0.19922 4.4609 1.7812 8.7617 5.3203 11.52 1.5195 1.1797 3.2617 1.9414 5.0586 2.3984-0.33984 0.32031-0.71875 0.62109-1.0391 0.96094-3.3008 3.1602-6.1992 6.4805-8.7812 9.8984-5.4414-6.3984-11.539-12.199-18.238-17.301-4.5391-37.16-21.02-48.738-21.719-49.219-2.1211-1.4219-5-0.87891-6.4219 1.2383-1.4219 2.1211-0.87891 5 1.2383 6.4219 0.12109 0.078125 11.398 8.4609 16.441 34.441-12.238-7.3594-25.559-12.359-39.621-14.801-2.5195-0.44141-4.9219 1.2383-5.3594 3.7617-0.44141 2.5195 1.2383 4.9219 3.7617 5.3594 13.18 2.2812 25.66 6.9805 37.102 13.98 0.039062 0.019531 0.078124 0.058594 0.12109 0.078125l0.039063 0.039062c0.058594 0.039063 0.12109 0.078125 0.17969 0.12109 2.4219 1.4805 4.8203 3.0781 7.1406 4.8008 7.5 5.5 14.18 11.98 19.98 19.199-11.18 19.781-11.5 42.801-0.5 66.641 7.8008 16.922 20.52 32.582 35.781 45.559-8.9609 2.4414-18.84 4.3203-29.559 5.6602zm236.34-57.918c-6.2617 10.32-22.801 35.059-40.801 42.082-1.3789 0.53906-2.8789 0.37891-4.1406-0.46094-1.2812-0.83984-2.0391-2.1992-2.1016-3.7383-0.14062-4.3398-0.12109-8.9609 0.058594-13.738 0.60156-15.359 3.2383-39.059 12.379-64.621 0.85938-2.3984-0.39844-5.0586-2.8008-5.918-2.4219-0.85938-5.0586 0.39844-5.918 2.8008-9.4414 26.398-12.219 50.801-12.879 66.84-8.1016 33.301-27.48 52.379-56.121 55.199-21.141 2.0781-46.719-5.1602-70.199-19.898-23.219-14.582-42.039-34.898-51.66-55.742-9.0195-19.559-14.16-48.281 12.641-74.082 4.5781-4.4219 10.039-8.6406 16.18-12.52 14.98-5.7383 37.262-16.18 59.281-33.578 2-1.5781 2.3398-4.5 0.76172-6.5-1.5781-2-4.5-2.3398-6.5-0.76172-21.32 16.84-42.941 26.922-57.297 32.379-0.039063 0.019531-0.10156 0.039062-0.14063 0.058593-4.2617 1.6211-8.582 3.1016-12.859 4.3984-1.4609 0.44141-2.9805 0.16016-4.1797-0.78125-1.1797-0.92188-1.8203-2.3008-1.7617-3.7812 0.89844-19.359 19.082-42.898 26.84-52.121 1.7383-2.0586 4.0586-3.5781 6.6992-4.3594 32.418-9.6602 56.762-0.23828 68.398 6.2617 1.2188 0.67969 2.3789 1.3594 3.3594 2 2.1797 1.3789 4.5391 2.3984 7.0195 3.0195 7.4805 1.8203 26.922 7.6406 45.898 22.242 0.039063 0.039062 0.14062 0.10156 0.17969 0.14062 20 14.32 31.719 30.379 35.84 36.621 1.3594 2.0391 3.0195 3.8789 4.9414 5.4219 6.8789 5.4609 29.441 26.359 30.84 65.438 0.10156 2.7617-0.57812 5.4414-2 7.7617z" fill="#7f00ff"/>
</svg>
