<?xml version="1.0" encoding="UTF-8"?>
<svg width="512pt" height="512pt" version="1.1" viewBox="0 0 512 512" xmlns="http://www.w3.org/2000/svg">
 <path d="m318.16 162.96c0.039063-5.8203-4.6602-10.578-10.48-10.641-5.8203-0.039062-10.578 4.6406-10.621 10.48-0.039063 5.8203 4.6406 10.578 10.48 10.621 5.8203 0.039063 10.578-4.6406 10.621-10.48z" fill="#7f00ff"/>
 <path d="m396.46 152.98c-5.8203-0.039063-10.578 4.6406-10.621 10.48-0.039063 5.8203 4.6406 10.578 10.48 10.621 5.8203 0.039063 10.578-4.6602 10.621-10.48 0.039063-5.8203-4.6602-10.578-10.48-10.621z" fill="#7f00ff"/>
 <path d="m386.94 209.6c-7.3398 5.5195-13.641 7.4609-18.699 5.7188-6.1406-2.1016-9.6406-9.1016-11.141-12.918 9.0586-1.7617 15.801-8 15.84-15.52 0.058594-8.9609-9.3398-16.281-21.02-16.359-11.68-0.078126-21.18 7.1211-21.238 16.059-0.058594 7.5195 6.582 13.84 15.621 15.738-1.5586 3.7812-5.1406 10.738-11.32 12.762-5.0781 1.6602-11.34-0.35938-18.602-6-2.0391-1.5781-4.9609-1.1992-6.5391 0.82031-1.5781 2.0391-1.1992 4.9609 0.82031 6.5391 7.3203 5.6797 14.238 8.5195 20.68 8.5195 2.2617 0 4.4414-0.33984 6.582-1.0391 6.3984-2.1016 10.82-7.0391 13.719-11.66 2.8203 4.6602 7.1797 9.6406 13.539 11.84 2.2188 0.76172 4.5195 1.1406 6.8789 1.1406 6.3398 0 13.199-2.7383 20.48-8.2188 2.0586-1.5391 2.4609-4.4609 0.92188-6.5195-1.5391-2.0586-4.4609-2.4609-6.5195-0.92188z" fill="#7f00ff"/>
 <path d="m485.84 101.5c-0.35938-4.5391-2.0391-8.8594-4.8398-12.48-26.52-34.262-60.66-38.48-70.48-38.961-1.5-0.078125-2.9805-0.37891-4.3594-0.92188-7.4609-2.8594-27.621-9.5-53.879-9.5h-0.21875c-25.801-0.83984-46.539 6.3203-54.242 9.4414-1.4414 0.57812-2.9609 0.92188-4.5195 1-9.8203 0.5-43.918 4.8203-70.316 38.961-2.8203 3.6406-4.5 7.9609-4.8398 12.5-1 13.059-2.0195 45.422 10.121 64.102 2.4414 3.7617 6.582 6.1211 11.102 6.3008 0.17969 0 0.35938 0.019532 0.53906 0.019532 1.7617 0 3.4414-0.39844 5.0391-1.0195-1.1016 5.5-1.6992 10.859-1.7383 16.059-47.059-0.92188-109.98 12.281-141.9 52.598-32.859-7.6992-47.941-21.719-66.758-47.82-1.1016-1.5391-3.0391-2.2383-4.8594-1.8008-1.8398 0.44141-3.2188 1.9609-3.5 3.8203-0.10156 0.67969-2.5 17.059 3.2188 37.82 5.2812 19.16 18.762 45.82 53.004 63.918 0.23828 0.12109 0.5 0.26172 0.73828 0.37891 0.12109 1.1211 0.21875 2.2383 0.37891 3.3203-1.9219 4.5-3.7188 9.1602-5.3594 13.922-3.8203 11.238-6.582 22.621-8.1797 33.82-1.6016 11.121-2.0781 21.918-1.4219 32.141 0.67969 10.359 2.5195 19.961 5.4805 28.539 3.1016 8.9414 7.3594 16.641 12.68 22.898 5.5781 6.5391 12.559 11.641 20.199 14.738 5.8398 2.3594 12.422 3.7383 19.02 4 0.48047 0.019531 0.96094 0.039062 1.4414 0.039062 4.3594 0 8.5-0.80078 12.219-2.3789 2.3203 2.8594 4.7617 5.5586 7.418 7.9219 8.3594 7.3984 23.102 13.621 37.641 13.621 3.8594 0 7.6992-0.44141 11.398-1.3984 10.5-2.7383 17.859-9.3789 21.301-19.18 0.019531-0.058594 0.039062-0.12109 0.058593-0.16016 5.7383-18.699-4.1797-31.219-12.918-42.262-4.2383-5.3398-8.2812-10.441-10.621-16.02 2.3984-1.4414 4.9219-3.1797 7.4414-5.0781 0.28125 0.10156 0.53906 0.23828 0.85938 0.28125 13.422 1.5195 27.059 2.2812 40.621 2.2812 2.4414 0 4.8594-0.019532 7.3008-0.078126 6.5391-0.14062 12.141-0.32031 17.301-0.55859-0.26172 1.7188-0.44141 3.4414-0.78125 5.1797-0.94141 4.6797-2.3594 9.2188-3.8789 14.039-2.3594 7.4805-4.7812 15.219-5.2188 23.52-0.62109 11.82 3.6211 22.301 12.301 30.281 5.8984 5.4414 13.539 9.3203 21.859 11.398 0.058594 0.019531 0.078125 0.058593 0.14062 0.058593 0.14062 0.039063 0.28125 0.039063 0.42188 0.058594 4.3398 1.0391 8.8398 1.6211 13.398 1.6211 2.5391 0 5.0781-0.16016 7.6211-0.51953 0.10156-0.019532 0.19922-0.039063 0.30078-0.058594 1.2617-0.26172 2.4414-0.53906 3.6016-0.83984 0.82031-0.039062 1.6406-0.26172 2.3203-0.69922 7.6211-2.3984 13.039-6.1016 16.379-11.301 6.7812-10.52 3.6211-24.18 0.26172-38.66-0.19922-0.89844-0.42188-1.8203-0.62109-2.7188-0.37891-7.8594 0.17969-15.68 0.78125-23.961 0.32031-4.4805 0.64062-9 0.80078-13.578 0.14062-0.039062 0.23828-0.078125 0.37891-0.12109 3.6992 10.52 6.7383 24.262 7.4609 34.359 0.71875 9.6211 2.8594 18.078 6.3594 25.141 4.6016 9.3008 12.48 15.781 22.82 18.738 4.1211 1.1797 8.5586 1.7617 13.121 1.7617 3.3594 0 6.7617-0.42188 10.16-1.0195 0.039062 0 0.078124 0.019532 0.12109 0.019532 0.32031 0 0.62109-0.039063 0.94141-0.10156 0.26172-0.058594 0.44141-0.19922 0.67969-0.28125 6.5391-1.3789 12.961-3.6992 18.578-7.1797 1.6211-1 3.1797-2.1797 4.6602-3.4805 0.019532-0.039063 0.058594-0.058594 0.078125-0.078125 8.3789-7.3789 14.02-19.219 9.0781-31.66-2.2617-5.6602-5.8594-10.219-9.3203-14.621-2.3008-2.9219-4.4805-5.6797-6.1992-8.6406-3.4609-6-5.6602-12.578-7.9805-19.539-0.67969-2.0391-1.3594-4.1016-2.0781-6.1211-3.1406-8.8789-7.3203-17.398-10.961-24.32 20.602-24.68 31.82-58.48 30.602-95.297 7.8203-4.9219 14.582-10.641 19.961-17.16 9.9414-12.059 19.199-31.48 13.602-59.582 1.7383 0.67969 3.6016 1.0781 5.5391 1 4.5-0.17969 8.6602-2.5391 11.082-6.3008 12.141-18.699 11.141-51.059 10.121-64.117zm-447.36 127.98c-2.3008-8.2383-3.1992-15.781-3.4609-21.68 16.039 20.102 32.078 32.582 60.379 39.898-1.4219 2.2383-2.7812 4.5195-4 6.8594-5.0586 9.6016-7.9414 19.98-8.5195 30.398-22.738-13.141-37.719-31.738-44.379-55.5zm87.84 210.46c-1.7812-0.078125-3.5391-0.26172-5.2812-0.51953-0.16016-13.602-3.5586-23-3.7188-23.441-0.89844-2.3984-3.5781-3.6211-5.9805-2.7188-2.3984 0.89844-3.6406 3.5586-2.7383 5.9805 0.039062 0.078125 2.6016 7.2617 3.0781 17.82-0.42188-0.16016-0.85938-0.28125-1.2617-0.44141-6.2617-2.5195-12-6.7188-16.602-12.141-4.5586-5.3594-8.2383-12.059-10.961-19.898-2.6797-7.7812-4.3594-16.559-4.9805-26.102-0.62109-9.5781-0.17969-19.738 1.3398-30.219 1.5391-10.641 4.1406-21.461 7.7812-32.141 0.17969-0.5 0.35938-0.98047 0.53906-1.4805 0.67969 1.7617 1.3984 3.5 2.2188 5.2188 0.55859 1.1797 1.1797 2.3984 1.8203 3.6016 0.94141 1.7383 1.9609 3.5 3.0391 5.2188 4.7617 7.4805 12.941 16.781 20.801 23.762-0.23828 12.66 0.51953 25.141 2.3398 37.16 3.1016 20.52 8.5 36.801 16.262 49.379-2.3594 0.71875-4.9414 1.0781-7.6797 0.96094zm270.76-69.539c0.69922 1.9805 1.3594 3.9805 2.0391 5.9609 2.3789 7.1016 4.8203 14.441 8.7617 21.238 2.0586 3.5586 4.5391 6.6992 6.9609 9.7578 3.1992 4.0586 6.2422 7.8789 7.9805 12.281 1.9219 4.8008 1.3008 9.5391-0.69922 13.68-3.1211-12.941-10.02-19.961-10.379-20.32-1.8398-1.7812-4.7617-1.7383-6.5586 0.078125-1.8008 1.8203-1.7812 4.7617 0.039063 6.582 0.33984 0.33984 7.8203 8.1406 8.9219 22.859-0.48047 0.33984-0.94141 0.71875-1.4219 1.0195-3.6602 2.2617-7.7188 3.9805-11.879 5.1797-3.8789-14.461-10.461-23.539-10.762-23.961-1.5391-2.0586-4.4414-2.5-6.5195-0.96094-2.0586 1.5391-2.5 4.4414-0.96094 6.5195 0.058594 0.078125 5.6602 7.7617 9.1016 20.16-5.2617 0.5-10.441 0.17969-15.078-1.1602-7.8594-2.2617-13.602-6.9414-17.039-13.941-2.9609-6-4.8008-13.301-5.4219-21.699-0.78125-10.738-3.9805-25.34-7.8984-36.559 6.2422-2.2812 12.281-5.0391 17.961-8.2617 8.8789-5.0391 16.879-11.34 24.02-18.539 3.1406 6.1406 6.3398 12.961 8.8398 20.102zm-37.48-9.6406c-6.4609 3.6797-13.379 6.7188-20.602 9.0391l-0.10156 0.039063c-0.039063 0.019531-0.10156 0.019531-0.14062 0.039062-0.51953 0.17969-1.1602 0.33984-1.7188 0.51953-0.16016-5.2383-0.67969-10.52-1.8203-15.801-0.53906-2.5195-3.0195-4.1016-5.5391-3.5586-2.5195 0.53906-4.1016 3.0195-3.5586 5.5391 2.5781 11.879 1.6992 23.82 0.80078 36.461-0.60156 8.3398-1.2188 16.941-0.76172 25.52 0.019532 0.26172 0.058594 0.51953 0.10156 0.78125 0.23828 1.0586 0.48047 2.1016 0.71875 3.1406 2.8789 12.5 5.6211 24.301 0.98047 31.52-0.80078 1.2617-1.9219 2.3594-3.1992 3.3594 2.6602-12.5-0.32031-21.422-0.48047-21.879-0.83984-2.4219-3.4805-3.6797-5.8984-2.8594-2.418 0.82031-3.7188 3.4805-2.8984 5.8984 0.14062 0.44141 3.2617 10.422-1.9609 23.738-0.60156 0.14062-1.1211 0.33984-1.7617 0.46094-4.3594 0.57812-8.8203 0.46094-13.18-0.17969 3-14.68 1.1406-25.738 1.0391-26.262-0.46094-2.5391-2.8594-4.2188-5.3984-3.7812-2.5195 0.46094-4.2188 2.8594-3.7812 5.3984 0.019532 0.10156 1.6016 9.6211-0.94141 22.379-5.1406-1.8203-9.8008-4.4414-13.5-7.8398-6.5586-6.0391-9.7812-13.98-9.3008-22.941 0.37891-7.1211 2.5391-13.98 4.8203-21.219 1.5195-4.8398 3.1016-9.8594 4.1211-15.02 2.7188-13.66 2.6992-26.68-0.019531-38.719-0.55859-2.5-3.0586-4.0781-5.5781-3.5195-2.5 0.55859-4.0781 3.0586-3.5195 5.5781 1.4609 6.4414 1.9414 13.262 1.6406 20.301-5.4414 0.28125-11.34 0.48047-18.379 0.62109-12.98 0.26172-26.082-0.23828-39.059-1.4219 5.4219-5.4609 10.18-11.84 13.039-18.762 0.98047-2.3789-0.16016-5.1016-2.5195-6.0781-2.3789-0.98047-5.1016 0.16016-6.0781 2.5195-5.0391 12.219-18.32 23.559-29.262 29.379-1.9219 1.0195-2.8789 3.2617-2.3008 5.3594 2.4414 8.7617 8.0586 15.84 13.48 22.68 8.3789 10.559 15.602 19.68 11.359 33.66-0.44141 1.2383-1.0391 2.3008-1.6602 3.3789-0.10156-11.359-4-18.602-4.2188-19-1.2383-2.2383-4.0391-3.0391-6.3008-1.8203-2.2383 1.2188-3.0781 4.0391-1.8594 6.3008 0.21875 0.39844 4.8594 9.4805 2.1992 23.18-0.98047 0.37891-1.8984 0.83984-2.9805 1.1211-3.7188 0.96094-7.7383 1.1992-11.781 0.92188 0.21875-14.281-3.2383-24.281-3.3984-24.738-0.87891-2.4219-3.5195-3.6602-5.9414-2.8008-2.4219 0.85938-3.6797 3.5195-2.8203 5.9414 0.039062 0.10156 2.8789 8.2812 2.8984 20.102-7.7617-1.9805-14.898-5.5391-19.48-9.5781-13.398-11.859-21.98-31.379-26.238-59.637-1.8398-12.18-2.5781-24.859-2.2188-37.719 0-0.10156-0.039063-0.16016-0.039063-0.26172-0.019531-0.30078-0.078125-0.60156-0.16016-0.89844-0.058594-0.30078-0.12109-0.60156-0.23828-0.85938-0.10156-0.23828-0.28125-0.44141-0.42188-0.66016-0.19922-0.30078-0.37891-0.57812-0.64062-0.80078-0.058594-0.058593-0.078126-0.12109-0.14063-0.17969-7.6797-6.5195-15.961-15.82-20.621-23.102-0.96094-1.5195-1.8594-3.0586-2.6992-4.6211-0.57812-1.0781-1.1211-2.1602-1.6211-3.1797-2.5391-5.3984-4.3203-11-5.2617-16.68 0-0.039062-0.019532-0.10156-0.019532-0.14062-0.35938-2.0781-0.60156-4.2617-0.73828-6.4805-0.67969-11.441 1.8984-23.078 7.5-33.68 2.1016-3.9609 4.5-7.8008 7.1797-11.398 29.301-39.66 91.16-52.32 136.98-51.262 0.48047 3.9219 1.2188 7.7383 2.3594 11.441 8.582 27.898 35.621 48.32 74.219 55.98 10.281 2.0391 20.98 3.0586 31.641 3.0586 12.918 0 25.82-1.4805 37.941-4.4414 9.6211-2.3398 18.398-5.5586 26.34-9.4805 0.078125 46.84-21.219 87.762-56.699 107.92zm108.3-200.22c-0.80078 1.2383-2.1406 2-3.6406 2.0586-1.5391 0.058594-2.9609-0.60156-3.8984-1.8203-2.7188-3.5391-5.3984-7.3203-8.0195-11.238-8.5195-12.898-20.281-33.801-27.801-60.059-0.69922-2.4609-3.2812-3.8984-5.7617-3.1797-2.4805 0.69922-3.8984 3.2812-3.1797 5.7617 7.7812 27.102 19.82 48.68 28.699 62.16 11.199 27.699 9.1211 52.02-6 70.359-21.801 26.422-70.621 39.02-116.12 30-35.141-6.9805-59.602-25.039-67.117-49.578-4.5586-14.84-3-31.922 4.6211-50.738 8.8789-13.48 20.941-35.082 28.719-62.199 0.69922-2.4805-0.71875-5.0391-3.1797-5.7617-2.4805-0.69922-5.0391 0.71875-5.7617 3.1797-7.5391 26.281-19.281 47.18-27.82 60.078-0.019531 0.039062-0.058594 0.078125-0.078125 0.12109-2.5195 3.8203-5.1211 7.4609-7.9219 11.121-0.94141 1.2188-2.3594 1.8789-3.8984 1.8203-1.5195-0.058594-2.8398-0.80078-3.6602-2.0586-10.602-16.301-9.5781-46.219-8.6602-58.32 0.19922-2.6992 1.2188-5.3008 2.9219-7.5 23.98-31 54.621-34.898 63.461-35.359 2.6016-0.14062 5.1211-0.69922 7.5195-1.6602 7.1797-2.8984 26.48-9.5586 50.539-8.7617h0.5c24.641 0 43.5 6.2188 50.5 8.8984 2.3203 0.87891 4.7383 1.3789 7.2188 1.5195 8.8398 0.44141 39.52 4.2617 63.582 35.359 1.6992 2.1992 2.6992 4.8008 2.9219 7.5 0.92187 12.102 1.9414 42-8.6602 58.32z" fill="#7f00ff"/>
</svg>
