<svg xmlns="http://www.w3.org/2000/svg" xmlns:xlink="http://www.w3.org/1999/xlink" width="100" height="100" viewBox="0 0 100 100"><g><g transform="translate(50 50) scale(0.69 0.69) rotate(0) translate(-50 -50)" style="fill:#000000"><svg fill="#000000" xmlns="http://www.w3.org/2000/svg" xmlns:xlink="http://www.w3.org/1999/xlink" version="1.1" x="0px" y="0px" viewBox="0 0 100 100" style="enable-background:new 0 0 100 100;" xml:space="preserve"><g><path d="M50,1.61C23.317,1.61,1.61,23.317,1.61,50S23.317,98.39,50,98.39S98.39,76.683,98.39,50S76.683,1.61,50,1.61z    M73.627,19.401l-1.786-1.732l0.298-1.082l1.245-0.568l1.705,0.514l1.19,1.434l-2.056,0.189l1.421,1.38l1.312,1.515l0.866,1.515   c0,0,1.488,1.894,1.488,2.002c0,0.108,0.135,0.974,0.135,0.974l-1.894-0.271l-2.138-1.569l-0.298-1.272l0.081-1.488L73.627,19.401z    M50,96.729c-5.774,0-11.304-1.06-16.414-2.984l-2.589-1.878l-4.568-3.502l-4.949-3.502c0,0-0.914-2.665-0.99-2.893   c-0.076-0.228-1.218-2.589-1.523-2.97c-0.305-0.381-3.226-3.502-3.226-3.502l-1.343-3.35l-1.98-3.959H8.384l-1.78-0.89   C4.462,61.943,3.271,56.11,3.271,50c0-22.624,16.163-41.539,37.547-45.818l-2.493,0.959v2.166l3.099,0.773h4.171l2.939-4.486   l3.558,4.486h-4.331l-3.403,1.547h-5.105l-4.641,1.702l-6.806,4.486l2.011,0.928l-0.773,1.238l-5.569,1.702l-0.773,5.105   l2.166,0.619l3.248-1.702l2.011-1.547l0.309-1.547l3.403-3.248l5.724-1.083l2.32,1.856l3.094,0.773l-0.773,2.63l2.784-2.784   l-4.641-3.403l3.248,0.155l2.166,1.083l1.547,3.713l2.784,1.238v-3.094l2.166-0.155l1.856-0.464l2.166-3.094l1.392,1.083   l3.403-0.928l1.238,1.702l3.249,1.547v1.547l-5.414-0.928l-4.795-0.309l-2.63,0.928v1.702l2.475,1.237h2.475l3.094,0.155   l0.309,2.32l-3.094,2.32l-8.817-1.547l-2.32,0.619l-1.238,0.928l-5.259-1.856l-3.867-1.392l-1.238-1.392l-4.641,0.928l-5.259,3.094   h-2.939l-4.177,4.641l-1.238,2.939l-3.248,4.177v3.248v5.414L18.99,50l3.094,2.476l2.784,0.773h4.795L34.768,50l3.248,1.394h2.63   l-0.773,5.259l1.779,2.63l2.552,4.795l-1.083,2.63l0.619,4.486l1.856,3.713l1.392,3.867l1.238,1.856L50,82.867l2.186,0.362   l1.3-2.135l3.094-2.784l1.702-2.475l1.856-4.331l5.259-1.392l0.155-7.27l2.011-2.63l4.177-5.569l4.177-2.011L78.391,50v-3.092   l-6.652-0.309l-1.237-3.049l-2.011-2.365l-2.166-4.331l-1.237-2.784l-3.094-4.95h2.939l0.928,1.547l1.547,4.022l1.547,3.248   l2.166,0.619l0.464,1.702l0.464,3.293l0.619,1.347h4.795l3.558-1.347h3.558l1.083-3.912l-3.403-4.331l-1.237,1.237l-2.784-1.392   l-3.558-5.414l2.011-0.155l3.248,2.011l2.011,1.856l2.011,1.392l1.702,2.011l2.32,1.392l2.011,2.011l1.237,2.63v2.166l2.011,0.773   v2.63v4.331v4.331l1.392-0.619l2.034-4.085C95.406,77.062,74.957,96.729,50,96.729z"></path><polygon points="67.317,70.928 64.804,73.593 64.423,77.095 65.413,78.237 67.545,76.334 69.296,74.659 71.2,71.918 70.667,69.024     "></polygon><polygon points="39.303,18.772 38.986,17.662 37.916,17.662 37.084,18.019 37.916,18.534  "></polygon><polygon points="37.322,20.159 38.194,21.586 38.669,20.781 38.669,19.882 37.599,19.446  "></polygon><polygon points="42.632,20.516 42.196,20.781 41.126,20.952 41.126,21.705 42.395,21.243  "></polygon><polygon points="54.728,23.241 53.831,22.882 52.295,22.762 52.295,23.56 54.23,24.297  "></polygon><polygon points="27.632,12.687 28.36,11.796 27.431,11.345 26.453,11.997 25.901,12.65 24.696,14.03 26.603,13.879  "></polygon><polygon points="31.898,11.696 31.672,10.416 31.672,9.111 30.844,9.111 29.69,9.437 29.69,10.617 29.69,11.972 28.36,13.553  "></polygon></g></svg></g></g></svg>