<svg xmlns="http://www.w3.org/2000/svg" xmlns:xlink="http://www.w3.org/1999/xlink" width="100" height="100" viewBox="0 0 100 100"><g><g transform="translate(50 50) scale(0.69 0.69) rotate(0) translate(-50 -50)" style="fill:#000000"><svg fill="#000000" xmlns="http://www.w3.org/2000/svg" xmlns:xlink="http://www.w3.org/1999/xlink" version="1.1" x="0px" y="0px" viewBox="0 0 763.176 342.478" style="enable-background:new 0 0 763.176 342.478;" xml:space="preserve"><g><ellipse transform="matrix(0.7768 -0.6298 0.6298 0.7768 -30.7037 197.2777)" cx="262.939" cy="141.951" rx="22.495" ry="22.496"></ellipse><path d="M444.594,99.03l-7.667-8.128c-3.938,2.608-7.813,5.305-11.647,8.055l-28.078-29.768l10.185-9.606l-7.548-8.002   l-28.128,26.531l-1.602-1.698l-8.002,7.548l35.087,37.198c-12.23,10.649-23.773,22.074-34.552,34.208   c-1.073-0.125-2.189-0.039-3.288,0.301c-17.519,5.425-39.233,8.919-56.411,10.974c-8.595,1.033-16.073,1.718-21.387,2.144   c-2.656,0.212-4.77,0.359-6.214,0.454c-0.085,0.005-0.16,0.01-0.24,0.015c-0.48-0.072-0.972-0.107-1.475-0.09l-38.177,1.286   c-0.083,0-0.152,0.002-0.242,0.002c-4.279,0.037-15.563-0.73-25.193-6.066c-4.846-2.661-9.301-6.339-12.809-11.689   c-3.496-5.363-6.145-12.514-6.843-22.597c-0.227-3.34-2.475-6.058-5.467-7.05c-0.479-3.821-0.954-7.644-1.457-11.461   c-0.925-7.011-1.631-14.575-4.212-21.224c-1.88-4.841-6.52-5.064-10.661-2.175c-3.321,2.317-4.861,7.598-6.239,11.158   c-6.605,17.065-11.727,34.674-18.337,51.748c-8.84,22.837-19.414,45.267-33.901,65.11c-11.291,15.466-25.277,29.219-42.55,37.813   c-19.138,9.523-40.863,9.891-61.366,5.137c-2.144-0.497-9.055,2.836-4.834,3.814c26.337,6.107,53.711,3.208,77.208-10.556   c21.299-12.476,37.306-32.24,49.761-53.205c12.115-20.392,21.178-42.435,29.118-64.734c4.782-13.431,8.189-28.192,14.558-41.058   c0.676,2.007,1.094,4.391,1.456,6.119c1.714,8.204,2.859,16.564,3.853,24.943c-1.916,1.585-3.072,4.034-2.89,6.704   c0.829,12.392,4.289,22.457,9.414,30.273c7.7,11.776,18.78,18.076,28.536,21.311c5.313,1.764,10.297,2.691,14.446,3.176   l10.479,57.766c-0.14,1.824,0.107,3.703,0.819,5.513c0.092,0.271,0.859,2.65,0.857,6.714c-0.023,5.299-1.212,13.503-7.43,24.388   c-6.228,10.862-17.658,24.444-38.476,39.528c-5.59,4.051-6.84,11.867-2.789,17.458c2.445,3.374,6.263,5.167,10.135,5.167   c2.542,0,5.107-0.772,7.323-2.378c23.048-16.699,37.152-32.795,45.493-47.336c8.139-14.142,10.634-26.765,10.734-36.084   l5.086-0.003c0.153,0.039,0.316,0.081,0.499,0.132c3.809,1.053,12.934,4.415,21.036,13.826c8.063,9.443,15.965,25.266,16.04,54.276   c0,1.327-0.018,2.689-0.052,4.087c-0.174,6.901,5.282,12.636,12.185,12.81c0.107,0.003,0.212,0.004,0.317,0.004   c6.759,0,12.321-5.395,12.49-12.19c0.038-1.589,0.059-3.159,0.06-4.711c0.003-19.851-3.329-35.859-8.681-48.629   c-7.993-19.2-20.61-30.694-31.192-36.881c-2.778-1.636-5.404-2.926-7.798-3.952l-1.709-50.667   c5.517-0.435,13.437-1.15,22.624-2.253c12.291-1.482,26.806-3.636,40.935-6.786c-2.313,3.004-4.586,6.044-6.811,9.121   c2.972,2.147,5.942,4.297,8.914,6.444c5.012-6.931,10.26-13.671,15.728-20.218c0.152-0.046,0.309-0.09,0.461-0.137   c3.194-0.987,5.321-3.792,5.603-6.927C391.579,139.12,416.768,117.247,444.594,99.03z M379.26,86.114l13.578-12.808l27.556,29.215   c-5.024,3.725-9.951,7.57-14.779,11.534L379.26,86.114z"></path><path d="M632.904,279.607c3.276,0,5.932-2.654,5.932-5.931v-5.931c0-3.276-2.655-5.932-5.932-5.932h-68.804   c-3.274,0-5.932,2.655-5.932,5.932v5.931c0,3.276,2.657,5.931,5.932,5.931h3.946l22.571,30.343l-24.196,32.528h15.77l16.311-21.928   l16.312,21.928h15.769l-24.195-32.528l22.571-30.343H632.904z M598.503,312.823c-2.076,0-3.756-1.682-3.756-3.755   c0-2.076,1.68-3.758,3.756-3.758c2.074,0,3.756,1.682,3.756,3.758C602.259,311.142,600.577,312.823,598.503,312.823z    M598.503,299.35l-14.686-19.742h29.371L598.503,299.35z"></path><g><path d="M763.075,129.334c-0.667-9-3.334-18.5-5.187-23.817c-7.813,19.317-18.655,21.577-23.147,26.15    c-6.587,6.707-4.878,22.62-3.747,27.425c0.523,2.228,1.361,3.616,2.11,4.472c-11.96,23.729-22.847,38.76-32.171,47.841    c-10.646,10.338-18.94,12.964-25.049,12.983c-0.302,0-0.586-0.028-0.88-0.041c0.018-0.126,0.022-0.254,0.011-0.385    c0.041-0.516,22.93-62.873-0.403-95.54c-16.252-22.753-38.254-31.837-70.208-47.727l0.542-0.94l22.332-2.334l-10.666-13.333    l-19-11.334l-12.49-4.31l11.126-0.112l27.493,10.003l-11.983-25.052l-13.814-13.831l-17.728-2.428l14.439-6.756L576.074,0    l-21.666,2.334l-23.51,16.141l9.045-16.028l-28.855,4.672L492.768,30.05l-0.944-15.3l-18.749,22.217l2.829,14.803l10.49,4.148    l1.43,5.238L470.82,80.253l1.92,2.401l-4.292,5.301l9.567,12.294c0,0,0.064-7.809,4.42-8.187    c4.355-0.382,17.201,3.382,16.101,8.537c-1.101,5.158-8.267,10.039-8.267,10.039l-4.762-3.397l2.533,7.926l13.49,8.712    l6.545-10.407l12.64-2.41c0.464,2.516,1.009,5.593,1.331,9.739l-74.379,47.785c-4.392,2.821-5.875,8.504-3.422,13.113    c1.79,3.363,5.228,5.308,8.819,5.308c1.327,0.001,2.675-0.265,3.968-0.822l69.898-30.141l19.03,88.722    c0.999,4.651,5.117,7.903,9.771,7.903c0.392,0,0.787-0.023,1.185-0.07c5.124-0.607,8.948-5.021,8.82-10.179l-1.419-57.299    c6.555,4.511,13.421,9.143,19.922,13.477c-0.867-5.094,0.222-10.576,4.646-16.176c5.439-6.884,12.765-7.207,20.104-4.597    c-4.384,0.467-8.194,2.193-11.001,5.69c-16.247,20.239,12.422,38.926,18.153,42.821c3.677,2.495-19.026,2.819-31.748,7.297    c-7.132,2.51-8.468,8.533-6.752,11.607c2.49,4.463,26.81,6.762,49.855,7.033c21.19,0.25,41.303-1.213,42.38-4.287    c0.735-2.096,0.376-7.703-0.44-14.301c1.997,0.439,4.146,0.705,6.447,0.705c0.02,0,0.041,0,0.06,0    c9.22,0,20.169-4.271,31.969-15.824c10.4-10.159,21.714-25.959,33.938-50.147c6.195-0.657,13.887-6.546,15.723-10.417    C761.003,150.64,763.742,138.334,763.075,129.334z M510.713,72.712c-3.695,2.933-8.546,2.976-10.836,0.091    c-2.287-2.883,11.089-13.506,13.379-10.623C515.545,65.063,514.407,69.778,510.713,72.712z"></path></g></g></svg></g></g></svg>