<?xml version="1.0" encoding="utf-8"?>
<!-- Generator: Adobe Illustrator 16.0.0, SVG Export Plug-In . SVG Version: 6.00 Build 0)  -->
<!DOCTYPE svg PUBLIC "-//W3C//DTD SVG 1.1//EN" "http://www.w3.org/Graphics/SVG/1.1/DTD/svg11.dtd">
<svg version="1.1" id="Layer_1" xmlns="http://www.w3.org/2000/svg" xmlns:xlink="http://www.w3.org/1999/xlink" x="0px" y="0px"
	 width="1171.499px" height="171.517px" viewBox="-51.486 -13.554 1171.499 171.517"
	 enable-background="new -51.486 -13.554 1171.499 171.517" xml:space="preserve">
<g>
	<g>
		<path fill="#FFDE80" d="M-51.479,150.177c0.189,4.495,4.02,7.978,8.555,7.778c4.536-0.2,7.995-3.997,7.722-8.521
			c-0.269-4.459-4.099-7.949-8.554-7.752C-48.21,141.877-51.668,145.682-51.479,150.177z"/>
	</g>
	<g>
		<path fill="#FFDE80" d="M-21.314,148.445c0.313,4.488,4.238,7.866,8.766,7.542c4.527-0.31,7.878-4.23,7.484-8.74
			c-0.389-4.454-4.312-7.81-8.763-7.504C-18.276,140.061-21.628,143.956-21.314,148.445z"/>
	</g>
	<g>
		<path fill="#FFDE80" d="M8.791,145.897c0.433,4.479,4.442,7.754,8.958,7.315c2.254-0.22,4.2-1.325,5.513-2.933
			c1.311-1.641,1.991-3.779,1.741-6.013c-0.25-2.237-1.379-4.148-2.997-5.443c-1.622-1.322-3.731-2.034-5.955-1.816
			C11.61,137.438,8.359,141.42,8.791,145.897z"/>
	</g>
	<g>
		<path fill="#FFDE80" d="M38.823,142.583c0.544,4.467,4.634,7.643,9.135,7.096c4.505-0.515,7.643-4.676,7.03-9.139
			c-0.612-4.454-4.688-7.526-9.125-7.021C41.431,134.06,38.279,138.117,38.823,142.583z"/>
	</g>
	<g>
		<path fill="#FFDE80" d="M68.767,138.542c0.649,4.454,4.812,7.534,9.298,6.884c4.492-0.615,7.524-4.893,6.813-9.316
			c-0.717-4.463-4.857-7.393-9.283-6.79C71.174,129.96,68.117,134.089,68.767,138.542z"/>
	</g>
	<g>
		<path fill="#FFDE80" d="M98.609,133.814c0.75,4.436,4.98,7.428,9.45,6.68c4.469-0.747,7.408-5.08,6.602-9.485
			c-0.814-4.445-5.021-7.299-9.428-6.562C100.824,125.182,97.86,129.376,98.609,133.814z"/>
	</g>
	<g>
		<path fill="#FFDE80" d="M128.342,128.433c0.844,4.419,5.138,7.323,9.59,6.486c4.438-0.906,7.296-5.242,6.395-9.645
			c-0.904-4.413-5.182-7.235-9.562-6.339C130.373,119.762,127.498,124.013,128.342,128.433z"/>
	</g>
	<g>
		<path fill="#FFDE80" d="M157.956,122.436c0.933,4.387,5.294,7.252,9.713,6.266c4.415-1.003,7.191-5.375,6.201-9.764
			c-0.991-4.391-5.329-7.146-9.689-6.152C159.818,113.759,157.019,118.021,157.956,122.436z"/>
	</g>
	<g>
		<path fill="#FFDE80" d="M187.445,115.851c1.021,4.377,5.437,7.149,9.825,6.042c4.396-1.079,7.088-5.496,6.014-9.866
			c-1.074-4.368-5.467-7.047-9.81-5.979C189.137,107.142,186.423,111.462,187.445,115.851z"/>
	</g>
	<g>
		<path fill="#FFDE80" d="M216.806,108.705c1.108,4.382,5.549,6.973,9.927,5.824c4.376-1.152,6.988-5.611,5.834-9.959
			c-1.155-4.35-5.599-6.952-9.925-5.813C218.314,99.89,215.705,104.363,216.806,108.705z"/>
	</g>
	<g>
		<path fill="#FFDE80" d="M246.018,100.981c1.184,4.342,5.675,6.872,10.033,5.654c4.357-1.221,6.891-5.716,5.658-10.043
			c-1.231-4.329-5.725-6.859-10.033-5.654C247.368,92.144,244.834,96.639,246.018,100.981z"/>
	</g>
	<g>
		<path fill="#FFDE80" d="M275.087,92.735c1.26,4.319,5.798,6.78,10.137,5.498c4.339-1.281,6.796-5.813,5.489-10.118
			c-1.307-4.307-5.846-6.768-10.137-5.498C276.284,83.886,273.827,88.417,275.087,92.735z"/>
	</g>
	<g>
		<path fill="#FFDE80" d="M304.011,83.999c1.334,4.297,5.916,6.691,10.237,5.349c4.327-1.323,6.681-5.972,5.305-10.244
			c-1.383-4.292-5.938-6.6-10.217-5.293C305.062,75.139,302.678,79.7,304.011,83.999z"/>
	</g>
	<g>
		<path fill="#FFDE80" d="M332.791,74.791c1.399,4.259,6.042,6.637,10.321,5.169c4.282-1.455,6.578-6.088,5.128-10.348
			s-6.062-6.545-10.3-5.104C333.707,65.96,331.38,70.5,332.791,74.791z"/>
	</g>
	<g>
		<path fill="#FFDE80" d="M361.413,65.108c1.476,4.251,6.129,6.476,10.395,4.968c4.265-1.508,6.489-6.162,4.969-10.397
			c-1.52-4.234-6.173-6.458-10.394-4.968C362.162,56.202,359.938,60.857,361.413,65.108z"/>
	</g>
	<g>
		<path fill="#FFDE80" d="M389.862,54.924c1.546,4.226,6.24,6.39,10.487,4.834c4.245-1.56,6.375-6.303,4.789-10.503
			c-1.593-4.219-6.263-6.314-10.464-4.771C390.471,46.024,388.316,50.698,389.862,54.924z"/>
	</g>
	<g>
		<path fill="#FFDE80" d="M418.155,44.318c1.615,4.2,6.339,6.27,10.552,4.621c4.213-1.647,6.283-6.373,4.623-10.556
			s-6.384-6.252-10.552-4.622C418.611,35.392,416.541,40.118,418.155,44.318z"/>
	</g>
	<g>
		<path fill="#FFDE80" d="M446.252,33.2c1.682,4.16,6.465,6.21,10.641,4.467c4.182-1.73,6.167-6.5,4.435-10.653
			c-1.732-4.154-6.488-6.132-10.621-4.421C446.576,24.317,444.562,29.017,446.252,33.2z"/>
	</g>
	<g>
		<path fill="#FFDE80" d="M474.158,21.613c1.757,4.132,6.572,6.085,10.722,4.272c4.151-1.807,6.05-6.61,4.239-10.729
			c-1.812-4.119-6.603-6.013-10.703-4.228C474.319,12.717,472.395,17.463,474.158,21.613z"/>
	</g>
	<g>
		<path fill="#FFDE80" d="M501.846,9.511c1.844,4.109,6.682,5.912,10.808,4.034c4.126-1.881,5.909-6.757,4.004-10.824
			c-1.912-4.081-6.725-5.841-10.788-3.99C501.805,0.58,500.004,5.409,501.846,9.511z"/>
	</g>
	<g>
		<path fill="#FFDE80" d="M524.946-2.039c1.844,4.109,6.681,5.912,10.808,4.034c4.126-1.881,5.91-6.757,4.002-10.824
			c-1.91-4.081-6.725-5.842-10.787-3.99C524.905-10.97,523.104-6.141,524.946-2.039z"/>
	</g>
	<g>
		<path fill="#FFDE80" d="M549.054,2.664c-1.878,4.081-0.063,8.942,4.074,10.797c4.138,1.851,8.964,0.013,10.783-4.104
			c1.815-4.115-0.017-8.932-4.094-10.755C555.741-3.226,550.938-1.43,549.054,2.664z"/>
	</g>
	<g>
		<path fill="#FFDE80" d="M576.794,14.981c-1.786,4.13,0.138,8.922,4.301,10.703c4.155,1.795,8.961-0.19,10.696-4.33
			c1.743-4.16-0.211-8.889-4.316-10.663C583.363,8.931,578.58,10.852,576.794,14.981z"/>
	</g>
	<g>
		<path fill="#FFDE80" d="M604.774,26.744c-1.712,4.161,0.298,8.919,4.485,10.628c4.184,1.723,8.953-0.342,10.619-4.514
			c1.669-4.186-0.365-8.885-4.502-10.589C611.232,20.579,606.487,22.583,604.774,26.744z"/>
	</g>
	<g>
		<path fill="#FFDE80" d="M632.95,38.037c-1.643,4.189,0.447,8.905,4.666,10.533c4.22,1.627,8.937-0.464,10.534-4.67
			c1.6-4.205-0.49-8.922-4.667-10.532C639.308,31.757,634.591,33.847,632.95,38.037z"/>
	</g>
	<g>
		<path fill="#FFDE80" d="M661.314,48.84c-1.573,4.212,0.58,8.925,4.821,10.494c4.254,1.539,8.941-0.643,10.474-4.874
			s-0.638-8.896-4.848-10.42C667.562,42.489,662.89,44.623,661.314,48.84z"/>
	</g>
	<g>
		<path fill="#FFDE80" d="M689.837,59.225c-1.51,4.239,0.732,8.886,5,10.377c4.27,1.49,8.919-0.749,10.383-5.003
			c1.464-4.255-0.773-8.901-5.002-10.377C695.991,52.746,691.344,54.985,689.837,59.225z"/>
	</g>
	<g>
		<path fill="#FFDE80" d="M718.531,69.12c-1.439,4.264,0.867,8.888,5.153,10.33c4.28,1.459,8.909-0.905,10.306-5.181
			c1.396-4.281-0.934-8.839-5.17-10.284C724.579,62.559,719.971,64.857,718.531,69.12z"/>
	</g>
	<g>
		<path fill="#FFDE80" d="M747.371,78.586c-1.367,4.274,0.997,8.911,5.318,10.246c4.32,1.333,8.902-1.07,10.227-5.371
			c1.327-4.3-1.063-8.854-5.342-10.173C753.301,71.966,748.745,74.29,747.371,78.586z"/>
	</g>
	<g>
		<path fill="#FFDE80" d="M776.354,87.604c-1.303,4.314,1.162,8.833,5.502,10.108c4.342,1.273,8.878-1.196,10.133-5.517
			c1.253-4.321-1.21-8.845-5.504-10.106C782.189,80.828,777.651,83.305,776.354,87.604z"/>
	</g>
	<g>
		<path fill="#FFDE80" d="M805.495,96.088c-1.229,4.329,1.311,8.82,5.67,10.03c4.358,1.21,8.85-1.327,10.03-5.669
			c1.182-4.341-1.357-8.832-5.668-10.03C811.217,89.222,806.726,91.758,805.495,96.088z"/>
	</g>
	<g>
		<path fill="#FFDE80" d="M834.778,104.082c-1.155,4.35,1.462,8.805,5.838,9.948c4.379,1.145,8.822-1.464,9.926-5.826
			c1.104-4.361-1.509-8.816-5.838-9.948C840.374,97.124,835.931,99.732,834.778,104.082z"/>
	</g>
	<g>
		<path fill="#FFDE80" d="M864.194,111.563c-1.072,4.37,1.618,8.783,6.017,9.858c4.394,1.085,8.792-1.618,9.819-6.018
			c1.02-4.363-1.68-8.754-6.021-9.827C869.662,104.512,865.269,107.195,864.194,111.563z"/>
	</g>
	<g>
		<path fill="#FFDE80" d="M893.74,118.509c-0.991,4.389,1.782,8.757,6.197,9.758c4.409,1.029,8.777-1.853,9.712-6.234
			c0.941-4.418-1.859-8.663-6.216-9.682C899.074,111.362,894.734,114.119,893.74,118.509z"/>
	</g>
	<g>
		<path fill="#FFDE80" d="M923.417,124.889c-0.906,4.407,1.952,8.726,6.386,9.646c4.44,0.893,8.745-2.051,9.592-6.458
			c0.851-4.43-2.028-8.642-6.411-9.521C928.605,117.646,924.321,120.482,923.417,124.889z"/>
	</g>
	<g>
		<path fill="#FFDE80" d="M953.213,130.674c-0.816,4.422,2.128,8.699,6.583,9.518c4.469,0.749,8.703-2.243,9.46-6.68
			c0.755-4.436-2.207-8.627-6.614-9.363C958.247,123.34,954.026,126.245,953.213,130.674z"/>
	</g>
	<g>
		<path fill="#FFDE80" d="M983.121,135.83c-0.716,4.424,2.313,8.691,6.799,9.352c4.484,0.652,8.651-2.428,9.308-6.88
			s-2.395-8.58-6.816-9.223C987.992,128.429,983.845,131.37,983.121,135.83z"/>
	</g>
	<g>
		<path fill="#FFDE80" d="M1013.143,140.321c-0.615,4.43,2.506,8.663,7.014,9.172c4.499,0.549,8.595-2.625,9.145-7.09
			c0.552-4.467-2.595-8.525-7.028-9.066C1017.837,132.838,1013.764,135.838,1013.143,140.321z"/>
	</g>
	<g>
		<path fill="#FFDE80" d="M1043.256,144.107c-0.508,4.467,2.722,8.574,7.239,8.98c4.517,0.44,8.531-2.832,8.971-7.312
			c0.438-4.479-2.808-8.459-7.248-8.894C1047.772,136.486,1043.769,139.632,1043.256,144.107z"/>
	</g>
	<g>
		<path fill="#FFDE80" d="M1073.458,147.142c-0.197,2.241,0.537,4.358,1.887,5.972c1.352,1.586,3.324,2.636,5.584,2.8
			c4.528,0.324,8.456-3.05,8.775-7.539c0.32-4.487-3.028-8.386-7.477-8.703c-2.228-0.162-4.319,0.608-5.906,1.962
			C1074.735,142.96,1073.653,144.901,1073.458,147.142z"/>
	</g>
	<g>
		<path fill="#FFDE80" d="M1103.728,149.381c-0.133,2.237,0.654,4.362,2.051,5.902c1.395,1.538,3.396,2.539,5.662,2.64
			c4.536,0.201,8.371-3.279,8.564-7.774c0.192-4.496-3.261-8.3-7.718-8.497c-2.229-0.101-4.296,0.723-5.847,2.129
			C1104.891,145.188,1103.863,147.125,1103.728,149.381z"/>
	</g>
</g>
</svg>
