<?xml version="1.0" encoding="utf-8"?>
<!-- Generator: Adobe Illustrator 16.0.0, SVG Export Plug-In . SVG Version: 6.00 Build 0)  -->
<!DOCTYPE svg PUBLIC "-//W3C//DTD SVG 1.1//EN" "http://www.w3.org/Graphics/SVG/1.1/DTD/svg11.dtd">
<svg version="1.1" id="Layer_1" xmlns="http://www.w3.org/2000/svg" xmlns:xlink="http://www.w3.org/1999/xlink" x="0px" y="0px"
	 width="1075.964px" height="120.042px" viewBox="0 0 1075.964 120.042" enable-background="new 0 0 1075.964 120.042"
	 xml:space="preserve">
<g>
	<g>
		<path fill="#FFDE80" d="M0.572,96.872c-1.653,3.954,0.4,8.459,4.59,10.056c1.04,0.396,2.105,0.569,3.133,0.541
			c1.029-0.034,2.049-0.352,2.956-0.792c1.824-0.903,3.254-2.489,3.909-4.529c0.655-2.041,0.427-4.143-0.432-5.878
			c-0.426-0.88-1.028-1.621-1.737-2.307c-0.707-0.691-1.549-1.246-2.51-1.613C6.663,90.89,2.225,92.918,0.572,96.872z"/>
	</g>
	<g>
		<path fill="#FFDE80" d="M29.113,106.087c-0.512,2.081-0.124,4.173,0.958,5.884c0.54,0.855,1.251,1.614,2.099,2.226
			c0.424,0.304,0.881,0.578,1.369,0.796c0.492,0.197,1.014,0.349,1.559,0.45c4.391,0.815,8.511-1.958,9.201-6.188
			c0.69-4.229-2.022-8.266-6.059-9.01c-0.508-0.094-1.015-0.132-1.516-0.119c-0.496-0.009-0.983,0.022-1.461,0.108
			c-0.956,0.169-1.868,0.529-2.692,1.05C30.923,102.328,29.625,104.006,29.113,106.087z"/>
	</g>
	<g>
		<path fill="#FFDE80" d="M58.66,111.265c-0.475,4.314,2.745,8.007,7.18,8.357c2.208,0.154,4.259-0.515,5.759-1.875
			c1.504-1.362,2.455-3.277,2.539-5.418c0.083-2.141-0.702-4.103-2.005-5.542c-1.307-1.443-3.119-2.501-5.186-2.645
			C62.839,103.817,59.124,107.061,58.66,111.265z"/>
	</g>
	<g>
		<path fill="#FFDE80" d="M88.639,112.475c0.035,2.143,0.941,4.066,2.411,5.443c0.734,0.688,1.607,1.241,2.574,1.615
			c0.967,0.385,2.026,0.572,3.124,0.489c4.417-0.269,7.726-3.954,7.392-8.227c-0.333-4.272-3.959-7.532-8.097-7.276
			c-1.04,0.08-2.021,0.325-2.911,0.724c-0.89,0.408-1.688,0.991-2.358,1.706C89.435,108.377,88.605,110.333,88.639,112.475z"/>
	</g>
	<g>
		<path fill="#FFDE80" d="M118.577,110.412c0.502,4.255,4.45,7.213,8.817,6.602c1.087-0.152,2.091-0.512,2.97-1.031
			c0.876-0.538,1.623-1.256,2.212-2.069c1.178-1.632,1.709-3.695,1.345-5.806c-0.364-2.112-1.544-3.874-3.132-5.021
			c-0.795-0.576-1.691-0.985-2.648-1.229c-0.96-0.263-1.978-0.34-3.013-0.196C121.007,102.237,118.074,106.156,118.577,110.412z"/>
	</g>
	<g>
		<path fill="#FFDE80" d="M148.16,105.349c0.889,4.192,5.107,6.894,9.367,5.821c2.128-0.514,3.848-1.823,4.885-3.518
			c1.041-1.692,1.384-3.828,0.844-5.892c-0.544-2.083-1.862-3.702-3.553-4.742c-1.692-1.036-3.744-1.434-5.782-0.942
			C149.868,97.1,147.271,101.156,148.16,105.349z"/>
	</g>
	<g>
		<path fill="#FFDE80" d="M177.213,97.814c0.618,2.052,2.013,3.658,3.791,4.59c0.888,0.466,1.871,0.764,2.894,0.866
			c1.016,0.081,2.07-0.037,3.107-0.377c4.163-1.366,6.398-5.749,4.983-9.822c-1.398-4.022-5.769-6.253-9.75-4.946
			c-0.999,0.328-1.883,0.847-2.632,1.505c-0.755,0.637-1.374,1.416-1.831,2.286C176.863,93.657,176.595,95.763,177.213,97.814z"/>
	</g>
	<g>
		<path fill="#FFDE80" d="M205.616,88.108c1.518,4.008,6.075,6.021,10.124,4.36c4.07-1.608,5.953-6.227,4.269-10.16
			c-1.688-3.947-6.169-5.773-10.072-4.233C206.056,79.67,204.099,84.101,205.616,88.108z"/>
	</g>
	<g>
		<path fill="#FFDE80" d="M233.268,76.428c1.785,3.875,6.479,5.586,10.407,3.642c3.95-1.896,5.504-6.647,3.544-10.437
			c-1.978-3.823-6.566-5.324-10.344-3.513C233.122,67.979,231.466,72.519,233.268,76.428z"/>
	</g>
	<g>
		<path fill="#FFDE80" d="M280.039,66.093c-1.103,4.141,1.49,8.355,5.793,9.408c1.07,0.262,2.139,0.3,3.148,0.143
			c1.01-0.158,1.978-0.587,2.823-1.13c1.697-1.106,2.937-2.845,3.357-4.946s-0.046-4.164-1.109-5.794
			c-0.53-0.826-1.219-1.499-2.013-2.097c-0.794-0.6-1.708-1.048-2.719-1.296C285.297,59.392,281.142,61.952,280.039,66.093z"/>
	</g>
	<g>
		<path fill="#FFDE80" d="M309.36,72.019c-0.638,4.237,2.404,8.162,6.795,8.76c1.09,0.17,2.162,0.036,3.152-0.275
			c0.99-0.309,1.899-0.801,2.68-1.438c1.562-1.275,2.6-3.133,2.784-5.268s-0.508-4.141-1.745-5.656
			c-0.619-0.758-1.375-1.393-2.234-1.86c-0.86-0.465-1.824-0.756-2.853-0.918C313.839,64.8,309.998,67.781,309.36,72.019z"/>
	</g>
	<g>
		<path fill="#FFDE80" d="M339.156,74.663c-0.072,2.142,0.737,4.112,2.135,5.568c1.396,1.45,3.379,2.435,5.584,2.372
			c4.428-0.045,7.917-3.559,7.795-7.842c-0.123-4.284-3.58-7.722-7.723-7.676c-2.082,0.063-3.974,0.817-5.385,2.177
			C340.155,70.615,339.229,72.522,339.156,74.663z"/>
	</g>
	<g>
		<path fill="#FFDE80" d="M369.067,74.079c0.304,4.324,4.116,7.435,8.515,6.987c2.191-0.221,4.079-1.285,5.332-2.822
			c1.249-1.588,1.863-3.642,1.586-5.764c-0.277-2.126-1.381-3.922-2.914-5.128c-1.542-1.256-3.514-1.932-5.587-1.723
			C371.872,66.049,368.771,69.854,369.067,74.079z"/>
	</g>
	<g>
		<path fill="#FFDE80" d="M398.74,70.255c0.736,4.213,4.862,7.014,9.195,6.172c4.306-0.964,6.993-5.128,6.002-9.298
			c-0.991-4.169-5.083-6.812-9.14-5.9C400.719,62.019,398,66.026,398.74,70.255z"/>
	</g>
	<g>
		<path fill="#FFDE80" d="M427.907,63.58c1.146,4.135,5.493,6.454,9.714,5.188c1.05-0.315,1.987-0.824,2.777-1.471
			c0.785-0.661,1.415-1.484,1.875-2.376c0.919-1.79,1.132-3.909,0.453-5.941c-0.679-2.032-2.111-3.597-3.854-4.492
			c-0.873-0.451-1.821-0.719-2.805-0.818c-0.989-0.114-2.007-0.035-3.009,0.266C429.069,55.13,426.765,59.455,427.907,63.58z"/>
	</g>
	<g>
		<path fill="#FFDE80" d="M456.303,54.14c0.762,1.999,2.277,3.518,4.119,4.313c1.831,0.773,3.993,0.834,6.024,0.01
			c4.093-1.615,5.939-6.276,4.22-10.192c-1.726-3.932-6.201-5.705-10.083-4.176c-1.94,0.786-3.374,2.305-4.146,4.133
			C455.66,50.032,455.538,52.134,456.303,54.14z"/>
	</g>
	<g>
		<path fill="#FFDE80" d="M483.777,42.28c1.864,3.892,6.543,5.412,10.475,3.446c3.917-1.995,5.378-6.768,3.337-10.517
			c-2.056-3.779-6.68-5.195-10.4-3.301C483.455,33.773,481.939,38.442,483.777,42.28z"/>
	</g>
	<g>
		<path fill="#FFDE80" d="M510.134,28.111c1.093,1.843,2.835,3.068,4.791,3.545c1.942,0.46,4.086,0.152,5.954-0.999
			c3.729-2.348,4.799-7.193,2.416-10.767c-2.371-3.557-7.123-4.608-10.646-2.39c-1.781,1.097-2.934,2.834-3.389,4.757
			C508.795,24.162,509.041,26.269,510.134,28.111z"/>
	</g>
	<g>
		<path fill="#FFDE80" d="M555.917,19.778c-2.401,3.564-1.354,8.414,2.364,10.781c1.863,1.16,4.008,1.474,5.95,1.026
			c1.958-0.469,3.706-1.686,4.807-3.524c1.101-1.838,1.356-3.943,0.9-5.848c-0.444-1.928-1.591-3.667-3.366-4.772
			C563.062,15.205,558.305,16.234,555.917,19.778z"/>
	</g>
	<g>
		<path fill="#FFDE80" d="M581.273,35.062c-2.061,3.741-0.617,8.512,3.287,10.534c3.925,1.982,8.612,0.48,10.491-3.397
			c1.858-3.835,0.363-8.507-3.362-10.387C587.983,29.893,583.348,31.296,581.273,35.062z"/>
	</g>
	<g>
		<path fill="#FFDE80" d="M607.847,48.117c-1.734,3.898,0.082,8.586,4.172,10.214c2.028,0.832,4.192,0.779,6.027,0.013
			c1.841-0.774,3.367-2.298,4.137-4.29c0.774-2.005,0.657-4.097-0.107-5.917c-0.764-1.831-2.19-3.354-4.127-4.147
			C614.072,42.45,609.597,44.185,607.847,48.117z"/>
	</g>
	<g>
		<path fill="#FFDE80" d="M635.44,58.844c-0.688,2.029-0.484,4.147,0.427,5.94c0.455,0.896,1.086,1.711,1.864,2.39
			c0.784,0.658,1.722,1.164,2.771,1.484c4.219,1.282,8.578-1.026,9.737-5.152c1.16-4.125-1.128-8.453-5.111-9.661
			c-0.999-0.306-2.02-0.381-3.006-0.279c-0.979,0.081-1.932,0.357-2.806,0.801C637.569,55.256,636.129,56.815,635.44,58.844z"/>
	</g>
	<g>
		<path fill="#FFDE80" d="M663.887,67.037c-1.008,4.165,1.666,8.336,5.972,9.312c4.329,0.876,8.469-1.933,9.216-6.138
			c0.753-4.233-1.955-8.227-6.025-9.049C668.997,60.24,664.895,62.872,663.887,67.037z"/>
	</g>
	<g>
		<path fill="#FFDE80" d="M692.995,72.424c-0.283,2.124,0.326,4.172,1.57,5.771c1.246,1.561,3.135,2.611,5.326,2.84
			c4.403,0.446,8.221-2.641,8.532-6.966c0.303-4.223-2.789-8.051-6.913-8.467c-2.07-0.216-4.045,0.473-5.587,1.705
			C694.389,68.501,693.278,70.3,692.995,72.424z"/>
	</g>
	<g>
		<path fill="#FFDE80" d="M722.503,74.757c-0.13,4.284,3.357,7.797,7.789,7.844c2.206,0.062,4.191-0.905,5.588-2.363
			c1.399-1.457,2.209-3.428,2.137-5.57c-0.072-2.141-0.998-4.048-2.405-5.4c-1.41-1.351-3.3-2.123-5.38-2.185
			C726.093,67.036,722.633,70.474,722.503,74.757z"/>
	</g>
	<g>
		<path fill="#FFDE80" d="M752.085,73.819c0.185,2.135,1.224,3.991,2.787,5.264c1.558,1.249,3.651,2.019,5.838,1.713
			c4.394-0.607,7.432-4.538,6.784-8.774c-0.646-4.236-4.491-7.211-8.586-6.639c-2.058,0.291-3.847,1.235-5.081,2.777
			C752.593,69.677,751.901,71.685,752.085,73.819z"/>
	</g>
	<g>
		<path fill="#FFDE80" d="M781.378,69.594c0.424,2.101,1.669,3.836,3.369,4.938c0.847,0.542,1.815,0.963,2.828,1.126
			c1.01,0.154,2.079,0.112,3.149-0.153c4.304-1.069,6.883-5.292,5.763-9.429c-1.121-4.136-5.283-6.683-9.297-5.682
			c-1.009,0.251-1.921,0.703-2.712,1.305c-0.793,0.592-1.479,1.273-2.007,2.099C781.414,65.43,780.953,67.494,781.378,69.594z"/>
	</g>
	<g>
		<path fill="#FFDE80" d="M828.985,69.512c-1.943,3.816-0.349,8.529,3.604,10.422c3.951,1.892,8.614,0.2,10.385-3.705
			c1.769-3.901,0.109-8.476-3.669-10.286C835.526,64.134,830.931,65.69,828.985,69.512z"/>
	</g>
	<g>
		<path fill="#FFDE80" d="M856.232,82.029c-1.66,3.942,0.259,8.523,4.326,10.136c4.067,1.612,8.604-0.4,10.101-4.418
			c1.494-4.014-0.478-8.46-4.377-10.007C862.382,76.194,857.899,78.072,856.232,82.029z"/>
	</g>
	<g>
		<path fill="#FFDE80" d="M884.289,92.612c-1.387,4.06,0.854,8.485,5.03,9.811c4.175,1.331,8.564-1.019,9.762-5.124
			c1.203-4.123-1.084-8.397-5.074-9.67C890.014,86.362,885.672,88.561,884.289,92.612z"/>
	</g>
	<g>
		<path fill="#FFDE80" d="M913.034,101.14c-0.531,2.076-0.165,4.172,0.877,5.889c1.045,1.696,2.77,3.007,4.898,3.517
			c2.137,0.481,4.262,0.073,5.95-0.991c1.694-1.08,2.948-2.799,3.388-4.896s-0.008-4.172-1.062-5.827
			c-1.054-1.672-2.711-2.939-4.756-3.399c-2.038-0.489-4.085-0.09-5.77,0.948C914.882,97.399,913.565,99.064,913.034,101.14z"/>
	</g>
	<g>
		<path fill="#FFDE80" d="M942.368,107.341c-0.716,4.206,2.219,8.249,6.588,8.85c4.364,0.64,8.311-2.454,8.778-6.693
			c0.473-4.28-2.496-8.067-6.613-8.673C947,100.259,943.089,103.098,942.368,107.341z"/>
	</g>
	<g>
		<path fill="#FFDE80" d="M972.147,110.8c-0.299,4.258,3.033,8.007,7.462,8.148c4.428,0.177,8.035-3.305,8.043-7.569
			c0.01-4.307-3.334-7.772-7.471-7.939C976.044,103.31,972.447,106.508,972.147,110.8z"/>
	</g>
	<g>
		<path fill="#FFDE80" d="M1002.12,111.062c0.189,4.273,3.946,7.603,8.385,7.219c4.438-0.366,7.603-4.258,7.078-8.49
			c-0.528-4.273-4.263-7.312-8.365-6.975C1005.116,103.173,1001.929,106.772,1002.12,111.062z"/>
	</g>
	<g>
		<path fill="#FFDE80" d="M1031.889,107.612c0.751,4.207,4.934,7.019,9.298,6.018c2.178-0.45,3.927-1.822,4.982-3.525
			c1.057-1.712,1.411-3.801,0.861-5.872c-0.549-2.071-1.88-3.738-3.547-4.768c-1.674-1.038-3.67-1.393-5.69-0.979
			C1033.802,99.406,1031.133,103.382,1031.889,107.612z"/>
	</g>
	<g>
		<path fill="#FFDE80" d="M1060.87,100.013c0.697,2.026,2.156,3.569,3.993,4.41c0.916,0.417,1.93,0.673,2.97,0.707
			c1.034,0.019,2.103-0.165,3.142-0.57c1.038-0.405,1.948-0.994,2.696-1.708c0.738-0.741,1.314-1.607,1.704-2.538
			c0.781-1.863,0.808-3.985-0.055-5.946s-2.433-3.399-4.232-4.155c-0.9-0.377-1.86-0.583-2.83-0.595
			c-0.981-0.039-1.974,0.114-2.931,0.488c-0.957,0.373-1.791,0.932-2.486,1.625c-0.7,0.678-1.271,1.471-1.677,2.362
			C1060.353,95.866,1060.174,97.987,1060.87,100.013z"/>
	</g>
</g>
<circle fill="#FFDE80" cx="261.761" cy="57.92" r="7.92"/>
<circle fill="#FFDE80" cx="539.761" cy="7.92" r="7.92"/>
<circle fill="#FFDE80" cx="813.761" cy="58.92" r="7.92"/>
</svg>
