<?xml version="1.0" encoding="utf-8"?>
<!-- Generator: Adobe Illustrator 16.0.0, SVG Export Plug-In . SVG Version: 6.00 Build 0)  -->
<!DOCTYPE svg PUBLIC "-//W3C//DTD SVG 1.1//EN" "http://www.w3.org/Graphics/SVG/1.1/DTD/svg11.dtd">
<svg version="1.1" id="Layer_1" xmlns="http://www.w3.org/2000/svg" xmlns:xlink="http://www.w3.org/1999/xlink" x="0px" y="0px"
	 width="1078.818px" height="100.199px" viewBox="0 0 1078.818 100.199" enable-background="new 0 0 1078.818 100.199"
	 xml:space="preserve">
<g>
	<path fill="#FFDE80" d="M0.569,83.958c-0.817,1.981-0.737,4.109,0.124,5.975c0.856,1.859,2.538,3.331,4.695,4.106
		c2.179,0.706,4.429,0.449,6.21-0.471c1.801-0.971,3.146-2.643,3.681-4.714c0.537-2.078,0.192-4.156-0.719-5.853
		c-0.901-1.75-2.381-3.078-4.279-3.69c-1.873-0.681-3.88-0.419-5.627,0.388C2.915,80.505,1.386,81.978,0.569,83.958z"/>
</g>
<g>
	<path fill="#FFDE80" d="M28.089,91.471c-0.32,2.128,0.266,4.177,1.538,5.741c1.266,1.562,3.213,2.729,5.473,2.888
		c1.128,0.096,2.221-0.029,3.22-0.338c1-0.33,1.906-0.865,2.669-1.528c1.529-1.333,2.475-3.229,2.547-5.371
		c0.072-2.141-0.718-4.121-1.994-5.588c-0.639-0.736-1.404-1.331-2.256-1.778c-0.851-0.468-1.792-0.766-2.798-0.852
		c-2.018-0.137-3.91,0.451-5.433,1.688C29.538,87.568,28.405,89.361,28.089,91.471z"/>
</g>
<g>
	<path fill="#FFDE80" d="M56.611,92.746c0.174,4.274,3.984,7.603,8.471,7.17c4.481-0.44,7.59-4.365,6.974-8.622
		c-0.611-4.225-4.39-7.225-8.438-6.827C59.571,84.859,56.436,88.457,56.611,92.746z"/>
</g>
<g>
	<path fill="#FFDE80" d="M84.947,89.094c0.422,2.095,1.672,3.844,3.373,4.911c1.693,1.054,3.852,1.482,6.006,0.97
		c2.146-0.539,3.889-1.844,4.915-3.576c1.029-1.734,1.363-3.835,0.798-5.902c-0.565-2.067-1.907-3.712-3.588-4.71
		c-1.685-0.999-3.719-1.412-5.729-0.905c-2.014,0.478-3.651,1.713-4.695,3.393C84.984,84.938,84.521,86.988,84.947,89.094z"/>
</g>
<g>
	<path fill="#FFDE80" d="M112.571,81.756c1.304,4.076,5.779,6.283,9.938,4.802c4.167-1.459,6.228-6.018,4.684-9.996
		c-1.556-4.012-5.953-6-9.876-4.628C113.402,73.329,111.262,77.669,112.571,81.756z"/>
</g>
<g>
	<path fill="#FFDE80" d="M139.312,71.644c1.666,3.938,6.309,5.76,10.302,3.938c3.996-1.814,5.696-6.473,3.833-10.339
		c-1.857-3.855-6.43-5.525-10.238-3.796C139.405,63.183,137.638,67.688,139.312,71.644z"/>
</g>
<g>
	<path fill="#FFDE80" d="M165.159,59.42c1.957,3.818,6.694,5.281,10.544,3.207c3.852-2.069,5.22-6.845,3.117-10.568
		c-2.113-3.739-6.783-5.078-10.482-3.091C164.642,50.958,163.207,55.611,165.159,59.42z"/>
</g>
<g>
	<path fill="#FFDE80" d="M190.136,45.5c2.189,3.687,7.003,4.864,10.713,2.566c3.712-2.293,4.804-7.128,2.483-10.73
		c-2.321-3.603-7.071-4.676-10.65-2.465C189.105,37.086,187.949,41.817,190.136,45.5z"/>
</g>
<g>
	<path fill="#FFDE80" d="M214.256,30.142c2.392,3.554,7.267,4.464,10.842,1.959c3.576-2.503,4.396-7.395,1.871-10.858
		c-2.524-3.462-7.324-4.267-10.77-1.856C212.755,21.801,211.862,26.586,214.256,30.142z"/>
</g>
<g>
	<path fill="#FFDE80" d="M233.256,12.142c2.392,3.554,7.267,4.464,10.842,1.959c3.576-2.503,4.396-7.395,1.871-10.858
		c-2.524-3.462-7.324-4.267-10.77-1.856C231.755,3.801,230.862,8.586,233.256,12.142z"/>
</g>
<g>
	<path fill="#FFDE80" d="M834.256,12.142c2.392,3.554,7.267,4.464,10.842,1.959c3.576-2.503,4.396-7.395,1.87-10.858
		c-2.524-3.462-7.324-4.267-10.77-1.856C832.754,3.801,831.862,8.586,834.256,12.142z"/>
</g>
<g>
	<path fill="#FFDE80" d="M256.594,16.049c-1.322,4.077,0.95,8.467,5.073,9.807c2.061,0.66,4.172,0.463,5.936-0.482
		c1.768-0.957,3.164-2.576,3.78-4.628c0.616-2.052,0.341-4.147-0.592-5.872c-0.93-1.737-2.492-3.188-4.512-3.835
		C262.252,9.729,257.916,11.973,256.594,16.049z"/>
</g>
<g>
	<path fill="#FFDE80" d="M283.413,24.168c-1.176,4.121,1.25,8.423,5.419,9.608c2.082,0.592,4.192,0.289,5.913-0.681
		c1.724-0.982,3.069-2.676,3.611-4.741c0.546-2.081,0.19-4.137-0.793-5.865c-0.981-1.739-2.602-3.103-4.642-3.684
		C288.846,17.646,284.589,20.047,283.413,24.168z"/>
</g>
<g>
	<path fill="#FFDE80" d="M310.499,31.346c-1.033,4.159,1.54,8.371,5.748,9.407c4.207,1.04,8.379-1.511,9.329-5.729
		c0.932-4.144-1.642-8.354-5.755-9.372C315.705,24.638,311.532,27.188,310.499,31.346z"/>
</g>
<g>
	<path fill="#FFDE80" d="M337.813,37.599c-0.893,4.191,1.82,8.312,6.059,9.204c4.24,0.886,8.323-1.784,9.132-6.032
		c0.794-4.171-1.914-8.312-6.063-9.18C342.793,30.717,338.707,33.408,337.813,37.599z"/>
</g>
<g>
	<path fill="#FFDE80" d="M365.321,42.944c-0.755,4.218,2.089,8.248,6.354,9c4.265,0.749,8.26-2.059,8.933-6.328
		c0.661-4.197-2.181-8.241-6.357-8.975C370.074,35.904,366.076,38.726,365.321,42.944z"/>
</g>
<g>
	<path fill="#FFDE80" d="M392.986,47.403c-0.621,4.24,2.348,8.179,6.633,8.797c4.284,0.627,8.192-2.334,8.731-6.618
		c0.531-4.22-2.441-8.143-6.638-8.759C397.514,40.217,393.607,43.163,392.986,47.403z"/>
</g>
<g>
	<path fill="#FFDE80" d="M420.777,50.997c-0.491,4.257,2.597,8.105,6.897,8.595c2.147,0.244,4.18-0.398,5.721-1.636
		c1.546-1.273,2.6-3.133,2.806-5.265c0.206-2.134-0.471-4.135-1.723-5.654c-1.249-1.556-3.07-2.637-5.181-2.878
		C425.083,43.678,421.267,46.739,420.777,50.997z"/>
</g>
<g>
	<path fill="#FFDE80" d="M448.664,53.749c-0.363,4.27,2.837,8.028,7.148,8.395c4.308,0.407,8.041-2.91,8.322-7.177
		c0.283-4.284-2.929-7.896-7.155-8.297C452.75,46.309,449.027,49.479,448.664,53.749z"/>
</g>
<g>
	<path fill="#FFDE80" d="M476.62,55.685c-0.24,4.279,3.067,7.949,7.385,8.197c2.156,0.145,4.149-0.678,5.617-2.036
		c1.469-1.358,2.414-3.27,2.497-5.411s-0.708-4.106-2.046-5.553c-1.338-1.447-3.225-2.359-5.345-2.502
		C480.489,48.136,476.859,51.406,476.62,55.685z"/>
</g>
<g>
	<path fill="#FFDE80" d="M504.62,56.829c-0.119,4.283,3.288,7.868,7.61,8.001c4.323,0.029,7.862-3.422,7.905-7.707
		c0.042-4.285-3.367-7.781-7.614-7.809C508.276,49.182,504.739,52.544,504.62,56.829z"/>
</g>
<g>
	<path fill="#FFDE80" d="M532.641,57.205c0.001,2.143,0.874,4.088,2.29,5.501c0.708,0.707,1.552,1.28,2.488,1.679
		c0.937,0.379,1.966,0.577,3.045,0.559c4.322-0.074,7.766-3.607,7.694-7.892c-0.073-4.285-3.575-7.699-7.823-7.626
		c-1.063,0.018-2.075,0.254-2.995,0.66c-0.919,0.387-1.748,0.949-2.444,1.646C533.504,53.128,532.639,55.062,532.641,57.205z"/>
</g>
<g>
	<path fill="#FFDE80" d="M560.663,56.839c0.113,4.308,3.705,7.653,8.023,7.475c4.317-0.171,7.669-3.781,7.483-8.063
		c-0.185-4.281-3.776-7.615-8.021-7.446C563.902,48.98,560.551,52.579,560.663,56.839z"/>
</g>
<g>
	<path fill="#FFDE80" d="M588.664,55.691c0.224,4.279,3.9,7.534,8.214,7.27c4.312-0.265,7.57-3.945,7.275-8.221
		c-0.295-4.275-3.972-7.53-8.213-7.27C591.698,47.731,588.44,51.412,588.664,55.691z"/>
</g>
<g>
	<path fill="#FFDE80" d="M616.625,53.814c0.332,4.272,4.092,7.45,8.398,7.096c4.306-0.355,7.471-4.092,7.067-8.382
		c-0.4-4.244-4.161-7.429-8.396-7.08C619.458,45.797,616.293,49.542,616.625,53.814z"/>
</g>
<g>
	<path fill="#FFDE80" d="M644.533,51.261c0.438,4.263,4.278,7.363,8.575,6.925c4.292-0.497,7.355-4.382,6.848-8.632
		c-0.508-4.26-4.338-7.281-8.561-6.791C647.167,43.193,644.094,46.998,644.533,51.261z"/>
</g>
<g>
	<path fill="#FFDE80" d="M672.373,48.053c0.546,4.271,4.456,7.237,8.734,6.639c4.278-0.595,7.251-4.516,6.639-8.757
		c-0.612-4.242-4.521-7.205-8.731-6.62C674.804,39.904,671.832,43.822,672.373,48.053z"/>
</g>
<g>
	<path fill="#FFDE80" d="M700.116,44.093c0.648,4.236,4.634,7.128,8.902,6.46c4.271-0.645,7.137-4.697,6.42-8.917
		c-0.718-4.229-4.688-7.036-8.893-6.403C702.346,35.89,699.467,39.857,700.116,44.093z"/>
</g>
<g>
	<path fill="#FFDE80" d="M727.761,39.499c0.756,4.233,4.813,7.031,9.056,6.212c4.245-0.805,7.02-4.866,6.196-9.072
		c-0.822-4.206-4.875-6.974-9.05-6.182C729.791,31.262,727.01,35.294,727.761,39.499z"/>
</g>
<g>
	<path fill="#FFDE80" d="M755.275,34.175c0.859,4.19,4.994,6.913,9.221,6.012c4.223-0.929,6.889-5.073,5.955-9.255
		c-0.934-4.183-5.053-6.833-9.201-5.92C757.094,25.897,754.413,29.969,755.275,34.175z"/>
</g>
<g>
	<path fill="#FFDE80" d="M782.645,28.152c0.972,4.167,5.179,6.772,9.383,5.752c4.199-1.043,6.751-5.256,5.697-9.41
		c-1.053-4.154-5.245-6.692-9.362-5.669C784.238,19.826,781.669,23.972,782.645,28.152z"/>
</g>
<g>
	<path fill="#FFDE80" d="M809.834,21.364c1.102,4.155,5.381,6.585,9.562,5.434c4.184-1.14,6.588-5.489,5.39-9.59
		c-1.206-4.126-5.456-6.475-9.542-5.363C811.161,12.969,808.739,17.234,809.834,21.364z"/>
</g>
<g>
	<path fill="#FFDE80" d="M854.083,22.576c-2.533,3.456-1.725,8.351,1.85,10.862c3.572,2.514,8.45,1.611,10.847-1.939
		c2.397-3.553,1.514-8.338-1.924-10.757C861.417,18.325,856.618,19.12,854.083,22.576z"/>
</g>
<g>
	<path fill="#FFDE80" d="M877.438,38.538c-2.324,3.599-1.238,8.437,2.476,10.733c3.71,2.302,8.526,1.126,10.716-2.561
		c2.187-3.682,1.032-8.412-2.54-10.629C884.513,33.87,879.764,34.937,877.438,38.538z"/>
</g>
<g>
	<path fill="#FFDE80" d="M901.68,53.115c-2.105,3.725-0.732,8.498,3.121,10.57c3.854,2.072,8.592,0.604,10.544-3.217
		c1.947-3.811,0.507-8.46-3.188-10.446C908.462,48.035,903.792,49.379,901.68,53.115z"/>
</g>
<g>
	<path fill="#FFDE80" d="M926.789,66.142c-1.856,3.867-0.148,8.525,3.854,10.331c3.998,1.82,8.643-0.023,10.294-3.959
		c1.665-3.967-0.116-8.456-3.918-10.189C933.209,60.607,928.641,62.282,926.789,66.142z"/>
</g>
<g>
	<path fill="#FFDE80" d="M952.788,77.279c-1.535,3.99,0.546,8.531,4.719,9.985c4.172,1.456,8.632-0.752,9.923-4.849
		c1.285-4.078-0.866-8.427-4.785-9.795C958.722,71.255,954.33,73.27,952.788,77.279z"/>
</g>
<g>
	<path fill="#FFDE80" d="M979.683,86.016c-0.555,2.069-0.211,4.17,0.826,5.903c1.042,1.708,2.786,3.025,4.937,3.553
		c2.166,0.478,4.316,0.065,6.006-1.006c1.7-1.099,2.933-2.835,3.344-4.938c0.41-2.103-0.062-4.171-1.117-5.807
		c-1.056-1.665-2.693-2.92-4.712-3.363c-2.011-0.495-4.037-0.092-5.72,0.936C981.572,82.296,980.238,83.947,979.683,86.016z"/>
</g>
<g>
	<path fill="#FFDE80" d="M1007.397,91.602c-0.28,2.125,0.334,4.179,1.61,5.725c1.273,1.537,3.188,2.688,5.426,2.842
		c2.231,0.187,4.318-0.509,5.846-1.861c1.528-1.329,2.486-3.223,2.572-5.363c0.087-2.141-0.69-4.123-1.967-5.593
		c-1.28-1.447-3.06-2.472-5.098-2.642c-2.039-0.138-3.968,0.458-5.489,1.719C1008.78,87.684,1007.676,89.479,1007.397,91.602z"/>
</g>
<g>
	<path fill="#FFDE80" d="M1035.621,92.953c0.087,2.141,1.046,4.034,2.585,5.36c1.534,1.354,3.647,2.03,5.905,1.825
		c2.259-0.167,4.196-1.377,5.452-2.928c1.263-1.561,1.827-3.655,1.493-5.765c-0.336-2.123-1.476-3.867-3.004-5.104
		c-1.535-1.246-3.427-1.792-5.443-1.648c-2.011,0.181-3.761,1.222-5.034,2.666C1036.309,88.83,1035.534,90.812,1035.621,92.953z"/>
</g>
<g>
	<path fill="#FFDE80" d="M1063.549,88.817c0.544,2.063,1.902,3.747,3.702,4.688c1.785,0.908,4.043,1.177,6.211,0.441
		c2.152-0.785,3.835-2.241,4.674-4.126c0.854-1.866,0.926-3.992,0.101-5.969c-0.825-1.977-2.36-3.445-4.106-4.247
		c-1.742-0.777-3.761-1.051-5.631-0.361c-1.889,0.641-3.371,1.954-4.263,3.711C1063.34,84.676,1063,86.736,1063.549,88.817z"/>
</g>
</svg>
