<?xml version="1.0" encoding="utf-8"?>
<!-- Generator: Adobe Illustrator 16.0.0, SVG Export Plug-In . SVG Version: 6.00 Build 0)  -->
<!DOCTYPE svg PUBLIC "-//W3C//DTD SVG 1.1//EN" "http://www.w3.org/Graphics/SVG/1.1/DTD/svg11.dtd">
<svg version="1.1" id="Layer_1" xmlns="http://www.w3.org/2000/svg" xmlns:xlink="http://www.w3.org/1999/xlink" x="0px" y="0px"
	 width="100.76px" height="105.013px" viewBox="0 0 100.76 105.013" enable-background="new 0 0 100.76 105.013"
	 xml:space="preserve">
<path fill-rule="evenodd" clip-rule="evenodd" fill="#B20000" d="M100.416,68.938c-0.193,1.542-0.621,3.048-1.002,4.555
	c-1.891,7.474-5.332,14.062-11.12,19.295c-2.165,1.957-4.513,3.67-7.113,4.987c-5.19,2.627-10.547,4.836-16.28,5.974
	c-9.516,1.889-18.958,1.739-28.334-0.982c-4.314-1.255-8.403-2.983-12.358-5.077c-3.152-1.666-5.738-4.062-8.233-6.55
	C9.594,84.78,4.667,77.491,1.946,68.82C0.633,64.632,0.016,60.339,0,55.956c0.008-0.532,0.018-1.066,0.025-1.6
	c0.642-9.777,4.271-18.537,9.184-26.841c3.613-6.106,8.024-11.564,13.412-16.211c0.25-0.215,0.493-0.462,0.657-0.743
	c0.496-0.856,1.225-1.251,2.198-1.311c0.687-0.043,1.209-0.368,1.73-0.873c0.792-0.769,1.715-1.42,2.646-2.023
	c2.056-1.338,4.193-2.555,6.216-3.938c1.655-1.131,3.296-2.081,5.405-1.872c0.533,0.052,1.175-0.034,1.625-0.297
	c0.8-0.47,1.249-0.231,1.825,0.376c2.777,2.92,5.667,5.708,8.968,8.061c1.866,1.328,3.174,3.178,3.846,5.37
	c1.145,3.741,1.463,7.561,0.707,11.427c-0.157,0.808-0.443,1.629-0.846,2.348c-0.371,0.664-0.892,1.303-1.488,1.771
	c-2.265,1.778-6.668,1.938-9.029,0.301c-0.762-0.529-1.418-0.645-2.137-0.152c-2.479,1.697-5.287,2.701-8.106,3.518
	c-4.946,1.432-8.418,4.665-11.524,8.513C17.7,51.213,18.06,62.446,20.71,68.753c2.523,5.996,6.561,9.705,12.312,12.078
	c7.227,2.986,14.789,4.18,22.542,4.134c4.431-0.028,8.688-1.323,12.896-2.617c2.722-0.837,5.311-2.008,7.773-3.456
	c4.209-2.474,6.148-4.895,8.169-11.733c2.82-9.546-1.974-17.946-3.791-21.853c-0.892-1.916-1.941-3.766-3.069-5.548
	c-2.072-3.275-4.775-5.879-8.402-7.44c-1.333-0.574-1.646-1.193-1.027-2.52c0.655-1.402,0.271-2.301-0.813-3.179
	c-0.469-0.38-0.878-0.868-1.216-1.373c-0.537-0.8-0.443-1.021,0.446-1.539c0.237-0.14,0.477-0.278,0.914-0.533
	c-0.483-0.421-0.892-0.756-1.278-1.114c-0.612-0.57-1.276-1.1-1.796-1.748c-0.544-0.673-0.394-1.018,0.39-1.372
	c0.302-0.137,0.689-0.203,0.891-0.431c0.82-0.932,1.634-0.485,2.383,0.014c0.682,0.455,1.278,1.046,1.972,1.628
	c0.441-0.631,0.072-1.042-0.232-1.365c-0.689-0.729-1.455-1.388-2.17-2.094c-0.892-0.88-0.877-0.938,0.12-1.776
	c0.719,0.381,1.359,0.962,2.057,1.044c2.005,0.231,3.421,1.385,4.608,2.799c1.233,1.472,2.793,2.38,4.471,3.154
	c0.549,0.255,1.153,0.466,1.751,0.519c1.032,0.094,1.763,0.552,2.377,1.366c0.431,0.568,0.95,1.104,1.525,1.528
	c8.726,6.449,13.489,15.288,15.585,25.744c0.144,0.71,0.324,1.418,0.387,2.143C100.82,57.129,100.905,65.036,100.416,68.938z"/>
</svg>
