<?xml version="1.0" encoding="utf-8"?>
<!-- Generator: Adobe Illustrator 16.0.0, SVG Export Plug-In . SVG Version: 6.00 Build 0)  -->
<!DOCTYPE svg PUBLIC "-//W3C//DTD SVG 1.1//EN" "http://www.w3.org/Graphics/SVG/1.1/DTD/svg11.dtd">
<svg version="1.1" id="Layer_1" xmlns="http://www.w3.org/2000/svg" xmlns:xlink="http://www.w3.org/1999/xlink" x="0px" y="0px"
	 width="95.639px" height="322px" viewBox="0 0 95.639 322" enable-background="new 0 0 95.639 322" xml:space="preserve">
<g>
	<rect x="46.138" fill="#FFFFFF" width="3" height="135"/>
	<path fill="#F9E073" d="M86.05,297.633c-8.908,14.958-23.637,14.183-23.637,14.183l-0.639,7.638c0,0.06-0.092,2.186-13.545,2.547
		c-13.615-0.365-13.626-2.542-13.626-2.547l-0.715-7.638c0,0-14.707,0.775-23.614-14.183C1.235,282.468-5.624,180.088,6.59,160.896
		c10.184-16.004,20.547-15.639,20.547-15.639v-8.002c6-2.363,20-2.09,20-2.09s14-0.273,20,2.09v8.002
		c0,0,11.368-0.365,21.548,15.639C100.898,180.088,95.089,282.468,86.05,297.633z"/>
	<g>
		<path fill-rule="evenodd" clip-rule="evenodd" fill="#E60202" d="M84.554,229.455c-0.141,1.121-0.451,2.216-0.729,3.312
			c-1.374,5.434-3.876,10.224-8.084,14.027c-1.574,1.423-3.281,2.668-5.172,3.626c-3.773,1.91-7.668,3.516-11.836,4.343
			c-6.918,1.373-13.783,1.265-20.6-0.714c-3.136-0.912-6.109-2.169-8.984-3.691c-2.292-1.211-4.171-2.953-5.985-4.762
			c-4.64-4.623-8.221-9.923-10.199-16.227c-0.955-3.045-1.403-6.166-1.415-9.353c0.006-0.387,0.013-0.775,0.019-1.163
			c0.467-7.108,3.104-13.477,6.677-19.514c2.626-4.439,5.833-8.407,9.75-11.786c0.182-0.156,0.359-0.336,0.478-0.54
			c0.36-0.622,0.891-0.909,1.598-0.953c0.499-0.031,0.879-0.268,1.258-0.635c0.576-0.559,1.247-1.032,1.923-1.471
			c1.496-0.973,3.049-1.857,4.521-2.862c1.202-0.822,2.396-1.513,3.929-1.361c0.388,0.038,0.854-0.024,1.182-0.216
			c0.582-0.342,0.908-0.168,1.327,0.273c2.019,2.123,4.12,4.149,6.52,5.86c1.356,0.966,2.308,2.311,2.796,3.904
			c0.832,2.72,1.063,5.497,0.514,8.308c-0.114,0.587-0.322,1.185-0.615,1.707c-0.27,0.482-0.648,0.947-1.082,1.287
			c-1.646,1.293-4.848,1.409-6.564,0.219c-0.554-0.385-1.031-0.469-1.554-0.11c-1.802,1.233-3.844,1.964-5.894,2.558
			c-3.595,1.041-6.12,3.392-8.377,6.189c-5.535,6.857-5.273,15.024-3.346,19.609c1.833,4.359,4.769,7.056,8.951,8.781
			c5.254,2.171,10.752,3.038,16.389,3.005c3.222-0.021,6.316-0.962,9.376-1.902c1.979-0.608,3.86-1.46,5.651-2.513
			c3.06-1.799,4.47-3.559,5.938-8.53c2.051-6.94-1.435-13.048-2.756-15.888c-0.648-1.393-1.411-2.737-2.231-4.033
			c-1.507-2.381-3.472-4.274-6.108-5.409c-0.97-0.417-1.196-0.867-0.747-1.832c0.477-1.02,0.197-1.673-0.592-2.312
			c-0.341-0.276-0.638-0.631-0.884-0.998c-0.391-0.582-0.322-0.742,0.324-1.119c0.173-0.102,0.347-0.202,0.665-0.388
			c-0.352-0.306-0.648-0.55-0.93-0.81c-0.445-0.414-0.928-0.8-1.306-1.271c-0.396-0.489-0.286-0.74,0.283-0.997
			c0.22-0.1,0.501-0.147,0.647-0.313c0.597-0.678,1.188-0.353,1.732,0.01c0.496,0.331,0.93,0.761,1.434,1.184
			c0.321-0.459,0.053-0.758-0.169-0.992c-0.501-0.53-1.058-1.009-1.577-1.522c-0.648-0.64-0.638-0.682,0.087-1.291
			c0.522,0.277,0.988,0.699,1.495,0.759c1.458,0.168,2.487,1.007,3.351,2.035c0.896,1.07,2.03,1.73,3.25,2.293
			c0.399,0.186,0.839,0.339,1.273,0.377c0.75,0.068,1.281,0.401,1.728,0.993c0.313,0.413,0.691,0.803,1.109,1.111
			c6.344,4.688,9.807,11.114,11.33,18.716c0.104,0.517,0.236,1.031,0.281,1.558C84.848,220.869,84.909,226.618,84.554,229.455z"/>
		<g>
			<path fill-rule="evenodd" clip-rule="evenodd" fill="#050505" d="M37.653,219.119c0.639-0.479,1.05-1.134,1.47-1.786
				c0.257-0.398,0.53-0.798,0.862-1.136c0.45-0.459,0.962-0.445,1.454-0.023c0.212,0.183,0.418,0.38,0.594,0.596
				c0.289,0.352,0.447,0.748,0.263,1.205c-0.508,1.251-0.572,2.566-0.593,3.887c-0.017,1.029-0.032,2.057,0,3.086
				c0.02,0.626,0.134,1.248,0.197,1.872c0.021,0.197,0.021,0.396,0.018,0.593s-0.097,0.357-0.3,0.396
				c-0.395,0.071-0.796,0.173-1.188,0.156c-0.423-0.019-0.836-0.159-1.063-0.579c-0.034-0.062-0.125-0.095-0.191-0.142
				c-0.388-0.481-0.448-1.013-0.334-1.608c0.1-0.517,0.111-1.05,0.162-1.576c0.08-0.706,0.176-1.412,0.232-2.12
				c0.019-0.23,0.158-0.59-0.153-0.668c-0.292-0.072-0.455,0.245-0.58,0.491c-0.321,0.271-0.646,0.539-0.96,0.817
				c-0.768,0.681-1.113,0.72-1.989,0.165c-0.371-0.235-0.717-0.51-1.12-0.8c-0.146,0.337-0.282,0.659-0.426,0.977
				c-0.497,1.105-0.995,2.21-1.497,3.312c-0.384,0.842-0.916,1.585-1.611,2.208c-0.119,0.106-0.324,0.197-0.474,0.179
				c-0.514-0.064-1.021-0.087-1.522-0.339c-0.373-0.188-0.711-0.435-1.095-0.6c-0.26-0.112-0.317-0.301-0.22-0.532
				c0.091-0.219,0.206-0.43,0.329-0.634c0.872-1.428,1.78-2.838,2.432-4.378c0.355-0.84,0.66-1.699,0.988-2.55
				c0.319-0.831,0.619-1.67,0.968-2.487c0.154-0.361,0.384-0.7,0.625-1.016c0.575-0.756,1.312-0.798,1.943-0.096
				c0.888,0.989,1.474,2.126,1.631,3.451c0.02,0.163,0.092,0.32,0.139,0.481c0.149-0.089,0.313-0.159,0.444-0.269
				C37.289,219.488,37.467,219.299,37.653,219.119z"/>
			<path fill-rule="evenodd" clip-rule="evenodd" fill="#050505" d="M61.452,225.149c0.136-0.633,0.248-1.271,0.416-1.895
				c0.106-0.397,0.301-0.774,0.442-1.165c0.107-0.297,0.191-0.602,0.288-0.9c0.083-0.263,0.141-0.539,0.26-0.784
				c0.17-0.352,0.414-0.628,0.883-0.601c0.481,0.029,0.904,0.182,1.091,0.622c0.135,0.317,0.229,0.699,0.185,1.03
				c-0.158,1.131-0.335,2.266-0.846,3.318c-0.109,0.224-0.135,0.493-0.166,0.744c-0.025,0.207,0.112,0.285,0.311,0.234
				c0.116-0.03,0.231-0.075,0.339-0.13c0.633-0.324,1.209-0.72,1.659-1.276c0.276-0.34,0.583-0.657,0.865-0.995
				c0.264-0.314,0.324-0.676,0.383-1.085c0.089-0.631-0.044-1.338,0.473-1.88c0.346-0.364,0.361-0.372,0.831-0.228
				c0.304,0.094,0.615,0.162,0.927,0.228c0.291,0.059,0.498,0.228,0.546,0.494c0.065,0.365,0.118,0.747,0.081,1.11
				c-0.053,0.508-0.205,1.007-0.295,1.513c-0.15,0.854-0.291,1.71-0.422,2.567c-0.019,0.126-0.004,0.303,0.073,0.392
				c0.271,0.309,0.161,0.627,0.09,0.957c-0.072,0.337-0.271,0.517-0.624,0.536c-0.081,0.004-0.163,0.004-0.243,0.012
				c-0.23,0.027-0.465,0.231-0.69,0.028c-0.221-0.197-0.419-0.419-0.616-0.639c-0.064-0.072-0.104-0.17-0.136-0.264
				c-0.075-0.221-0.201-0.198-0.372-0.104c-0.544,0.306-1.1,0.593-1.639,0.907c-1.001,0.584-2.103,0.484-2.892-0.564
				c-0.06-0.077-0.126-0.158-0.207-0.213C61.737,226.647,61.519,225.959,61.452,225.149z"/>
			<path fill-rule="evenodd" clip-rule="evenodd" fill="#050505" d="M56.681,221.486c0.202-0.104,0.387-0.217,0.585-0.295
				c0.391-0.154,0.798-0.137,1.188-0.012c1.154,0.371,2.001,1.105,2.565,2.144c0.108,0.197,0.182,0.466,0.142,0.679
				c-0.111,0.607-0.401,0.744-1.045,0.578c-0.156-0.039-0.318-0.059-0.479-0.077c-0.381-0.046-0.693-0.202-0.911-0.523
				c-0.067-0.099-0.149-0.188-0.233-0.273c-0.316-0.319-0.471-0.348-0.846-0.115c-0.51,0.315-0.963,0.726-1.583,0.849
				c-0.049,0.011-0.102,0.154-0.1,0.234c0.017,0.603,0.156,1.172,0.49,1.688c0.338,0.524,0.428,1.089,0.347,1.703
				c-0.065,0.497-0.417,0.709-0.819,0.854c-0.134,0.047-0.357-0.039-0.498-0.129c-0.566-0.356-0.943-0.856-1.103-1.503
				c-0.033-0.133-0.051-0.279-0.12-0.394c-0.571-0.941-0.542-2.004-0.681-3.037c-0.141-1.053,0.009-2.042,0.525-2.982
				c0.216-0.391,0.198-0.799,0.025-1.205c-0.061-0.145-0.106-0.299-0.178-0.439c-0.084-0.166-0.062-0.303,0.074-0.426
				c0.059-0.053,0.136-0.095,0.172-0.159c0.071-0.128,0.105-0.371,0.184-0.381c0.184-0.029,0.391,0.032,0.578,0.092
				c0.546,0.177,0.989,0.462,1.085,1.077c0.006,0.037,0.011,0.09,0.036,0.11c0.564,0.475,0.511,1.124,0.531,1.753
				C56.616,221.352,56.649,221.404,56.681,221.486z"/>
			<path fill-rule="evenodd" clip-rule="evenodd" fill="#050505" d="M44.894,228.026c-0.777-0.463-1.012-1.163-0.992-2.016
				c0.023-1.07,0.375-2.046,0.797-3.009c0.078-0.18,0.146-0.363,0.219-0.545c0.309-0.438,0.598-0.892,0.93-1.314
				c0.424-0.539,0.938-0.983,1.578-1.275c1.225-0.56,2.283-0.322,3.144,0.688c0.56,0.657,0.841,1.389,0.695,2.247
				c-0.134,0.799-0.284,1.595-0.423,2.391c-0.041,0.232-0.084,0.466-0.1,0.7c-0.025,0.345,0.059,0.614,0.488,0.683
				c0.284,0.045,0.434,0.274,0.493,0.544c0.034,0.155,0.066,0.311,0.09,0.466c0.081,0.524-0.071,0.723-0.603,0.683
				c-0.502-0.039-1.004-0.124-1.496-0.235c-0.354-0.081-0.576-0.365-0.75-0.658c-0.143-0.237-0.245-0.496-0.4-0.814
				c-0.181,0.124-0.363,0.229-0.524,0.361c-0.295,0.242-0.584,0.49-0.864,0.75C46.339,228.441,45.936,228.508,44.894,228.026z
				 M46.339,225.496c0.018,0.04,0.041,0.178,0.093,0.189c0.079,0.016,0.196-0.035,0.265-0.094c0.722-0.626,1.291-1.359,1.615-2.257
				c0.185-0.511,0.408-0.988,0.915-1.284c0.078-0.046,0.156-0.205,0.134-0.285c-0.145-0.521-0.87-0.733-1.262-0.353
				c-0.271,0.26-0.516,0.563-0.697,0.888c-0.498,0.893-0.775,1.864-1.014,2.848C46.364,225.243,46.358,225.344,46.339,225.496z"/>
		</g>
	</g>
</g>
</svg>
