<?xml version="1.0" encoding="utf-8"?>
<!-- Generator: Adobe Illustrator 23.0.1, SVG Export Plug-In . SVG Version: 6.00 Build 0)  -->
<svg version="1.1" id="Layer_1" xmlns="http://www.w3.org/2000/svg" xmlns:xlink="http://www.w3.org/1999/xlink" x="0px" y="0px"
	 viewBox="0 0 166 190" style="enable-background:new 0 0 166 190;" xml:space="preserve">
<style type="text/css">
	.st0{fill:#FF0000;}
	.st1{fill:#FFFFFF;}
</style>
<g>
	<rect x="-0.1" y="-0.2" width="166.1" height="190.1"/>
	<rect x="32.3" y="-0.1" class="st0" width="103.1" height="131.4"/>
</g>
<path class="st1" d="M89.6,14.7c-1-2.7-2.1-5-2.7-7.4c-0.2-0.8,0.5-2.1,1.2-2.8c0.3-0.3,2,0,2.3,0.6c1.9,2.9,3.6,6,5.5,8.9
	c0.6,0.8,1.5,1.4,2.5,1.5c1.7,0.3,3.5,0.1,5.2,0.3c0.7,0,1.5,0.3,2.1,0.7c3,2.6,6.1,5.1,8.6,8.1c2,2.4,3.1,5.5,4.5,8.4
	c3.6,7.9,2.7,16.1,2.4,24.5c-0.2,4.4-3.1,6.4-4.4,9.6c-1.3,3.2-3.2,6.7-5.8,9c-2,1.8-5.4,2.4-8.3,2.7c-4.5,0.5-5.6,2.9-4.6,6.3
	c1.3,4.2-1.2,8.3-4.9,9c-2,0.4-2.6-0.3-2.4-2.3c0.3-3.7,0.4-7.5,0.4-11.2c-0.1-0.9-0.5-1.7-1.1-2.3c-2.3-1.8-4.5-3.8-7-5
	c-2.2-1.1-4.9-1.3-7.9-2c0.5,2.2,1.1,3.8,1.2,5.3c0.1,1.4-0.4,2.9-0.6,4.3c-1-0.3-2.1-0.6-3.1-1c-5.6-2.1-9-7-12.9-11.1
	c-2.8-2.8-5.1-5.9-7.1-9.3c-1.3-2.4-0.7-5.9-2.1-8.2c-2.1-3.4-1.4-7.3-0.8-10.1c1.2-5.2,2.8-10.9,8.4-14.1c4.3-2.4,8.3-5.4,12.4-8
	c4.9-3.1,10.6-3.6,16.2-4.2C87.5,14.9,88.3,14.8,89.6,14.7z M83.2,30.5c-1.8,0.4-3.1,0.3-3.9,0.9c-4.2,2.7-8.4,5.2-12.1,8.3
	c-2.9,2.4-4.3,6.2-3.7,9.9c0.4,2.7,2.3,5.2,3.5,7.8c2.3,5.1,5.8,4.9,10.1,4.4c3.8-0.5,7.6-1.2,11.4-2.3c0.9-0.2,1.9-1.7,2.2-2.7
	c0.3-1.4,0-3,0-4.5c0-4.2-1.1-5.7-3.9-5.6c-5.9,0.4-11.9,0.7-17.8,1.1c-0.6-0.1-1.2-0.3-1.7-0.6c0.3-0.5,0.6-1,1.1-1.5
	c1.3-1,2.9-1.7,3.9-2.9c2.1-2.7,5-3.8,8.1-4.8c2.5-0.7,5-1.3,7.5-1.8c2.2-0.4,2.9-1.5,2.2-3.6l-8.1,1.2c-0.1-0.3-0.2-0.5-0.3-0.8
	C82,32.5,82.4,31.9,83.2,30.5z M98.1,58c1.6-1.8,3-2.9,3.8-4.3c2-3.8,3.7-7.7,3.3-12.4c-0.5-5.5-1.6-7.6-6.1-8.4
	c-2.3-0.4-2.9,0.7-2.1,2.3c0.8,1.7,1.9,3.3,3.3,4.6c1.7,1.5,1.7,2.6,0.1,3.9c-0.8,0.7-1.8,1.6-2.9,1.8c-2.2,0.3-2.6,1.7-2.2,3.3
	C96.1,51.6,97,54.3,98.1,58z M78,23.6l0.4,1.2l5.5-2.3l-0.5-1.2C81.6,22.1,79.8,22.9,78,23.6z M79.6,19l0.1,0.9l3.8-1.1l-0.3-1.1
	L79.6,19z M85.1,20.8l0.1,0.9l3.5-0.5l-0.1-0.8L85.1,20.8z M74,21.3l0.7,1l1.8-1.3L75.7,20L74,21.3z M77.6,20.2
	c0.1,0.1,0.3,0.3,0.4,0.3c0.1,0,0.2-0.2,0.3-0.4c-0.1-0.1-0.3-0.3-0.4-0.3C77.8,19.9,77.7,20.1,77.6,20.2L77.6,20.2z"/>
<g>
	<path class="st1" d="M67.9,121.3c-0.9,0.3-1.6-0.1-2.2-0.7c-1.8-1.9-3.7-3.9-5.5-5.8c-0.1,0.1-0.2,0.1-0.4,0.2c-0.1,2-0.2,4-0.4,6
		c-0.1,1.1-0.3,2.2-0.5,3.2c-0.1,0.4-0.2,0.7-0.3,1.1c-0.2-0.2-0.5-0.4-0.7-0.5c0-0.4-0.1-0.9,0-1.3c0.9-3,0.7-5.9,0.1-9
		c-0.3-1.2,0-2.4-0.1-3.6c-0.1-2.7-0.3-5.4-0.5-8c-0.1-1.6-0.2-3.2-0.3-4.7c0-0.9,1.1-2.5,1.8-2.6c0.8-0.2,2.3,0.5,2.6,1.6
		c0.2,0.7,0.1,1.6-0.1,2.3c-0.9,3.1-1.9,6.2-1.7,9.6c0,0.7,0.1,1.4,0.1,2.3c1.3-0.8,2.5-1.6,3.8-2.2c0.7-0.4,1.6-0.5,2.4-0.6
		c0.3,0,0.6,0.4,0.9,0.7c-0.2,0.3-0.4,0.6-0.7,0.7c-1.4,0.9-2.9,1.7-4.2,2.7c-1.2,0.9-1,1.2,0,2.2c0.9,0.9,1.7,1.9,2.5,2.8
		c0.7,0.7,1.3,1.5,2.1,2.2c0.5,0.4,1.1,0.7,1.6,1C68.2,120.9,68,121.1,67.9,121.3z"/>
	<path class="st1" d="M53.8,116.4c0,0.3-0.1,0.6-0.1,0.9c0.2,0.8,0.4,1.5,0.6,2.3c0,0.3-0.2,0.6-0.3,0.9c-0.2-0.2-0.5-0.3-0.7-0.6
		c-0.2-0.3-0.4-0.7-0.5-1c-1.4,0.7-2.7,1.4-4.1,2c-1.5,0.6-3.3-0.3-3.6-1.6c-0.5-1.7,0.7-3.8,2.3-4.3c1.3-0.3,2.5-0.8,3.7-1.3
		c-0.6-2.1-2.2-2.9-4-2.1c-0.8,0.3-1.7,0.4-2.6,0.5c-1.1,0-1.5-0.9-0.9-1.7c1.5-2,4.2-3.7,7.1-2c0.7,0.4,1.3,1.2,1.6,2
		c0.5,1.7,0.7,3.4,1.1,5.2C53.4,115.7,53.7,116,53.8,116.4z M48,119.1c1,0,3.2-1.5,3.5-2.5c0.1-0.4-0.1-1.1-0.4-1.2
		c-1.2-0.4-3.8,1.2-4,2.5C46.8,118.8,47.2,119.1,48,119.1z"/>
	<path class="st1" d="M98.6,113.6c-0.8-2.3-2.3-2.8-4.2-2.1c-0.8,0.3-1.7,0.4-2.6,0.4c-0.9,0-1.4-0.8-0.8-1.6
		c1.6-2.3,4.7-4.1,7.7-1.8c1.5,1.1,1.5,3,1.9,4.6c0.4,1.8,0.7,3.6,1,5.4c0,0.1,0.1,0.2,0.1,0.2c-0.1,0.5-0.1,1.1-0.2,1.6
		c-0.3-0.4-0.7-0.7-1-1.1c-0.2-0.2-0.2-0.4-0.3-0.5c-1.4,0.7-2.7,1.5-4.1,2c-1.5,0.6-3.3-0.3-3.6-1.6c-0.5-1.8,0.7-3.9,2.2-4.3
		C96,114.6,97.3,114.1,98.6,113.6z M95.4,119.1c1,0,3.1-1.4,3.4-2.3c0.2-0.5,0.5-1.2-0.5-1.4c-1.3-0.2-3.5,1.2-3.9,2.4
		C94.2,118.7,94.5,119.1,95.4,119.1z"/>
	<path class="st1" d="M77.1,118.8c-1.4,0.7-2.7,1.4-4.1,2c-1.6,0.6-3.3-0.3-3.6-1.8c-0.4-1.7,0.8-3.7,2.3-4.1
		c1.3-0.3,2.5-0.8,3.7-1.3c-0.5-2-2.1-2.9-3.8-2.3c-0.9,0.3-1.8,0.5-2.7,0.6c-0.4,0-0.9-0.2-1.1-0.5c-0.2-0.3-0.1-1,0.1-1.3
		c1.5-2.1,4.3-3.8,7.2-1.9c0.7,0.4,1.3,1.3,1.5,2c0.5,2,0.8,4.1,1.2,6.2c0.2,0.9,0.5,1.9,0.7,2.8c0.1,0.3-0.2,0.7-0.3,1.1
		c-0.3-0.3-0.6-0.5-0.8-0.8C77.4,119.4,77.2,119,77.1,118.8z M72.3,119.1c1,0,3.1-1.4,3.4-2.3c0.1-0.4-0.1-1.2-0.3-1.3
		c-1.2-0.5-3.8,1.2-4,2.5C71.2,118.8,71.5,119.1,72.3,119.1z"/>
	<path class="st1" d="M82.3,117c0.1,2.3,0.8,3,3,3.2c1.4,0.1,3-1.4,2.8-2.6c-0.1-0.4-0.3-0.9-0.6-1.1c-1.4-0.8-2.7-1.5-4.2-2.1
		c-1.6-0.6-2.3-1.6-1.9-3.3c0.4-2,1.5-3.1,3.4-3.5c1.3-0.3,2.7-0.9,3.9,0.4c0.4,0.4,0.8,1.1,0.6,1.5c-0.2,0.5-0.8,0.9-1.4,1
		c-0.7,0.2-1.5-0.1-2.1,0.1c-0.6,0.2-1.5-0.3-1.5,1.2c0.4,0.4,0.7,0.9,1.1,1.2c1.1,0.8,2.3,1.6,3.3,2.4c1.1,0.9,1,3.4-0.1,4.5
		c-1.6,1.6-5.5,1.5-7.1-0.2C80.9,118.9,81.1,117.8,82.3,117z"/>
	<path class="st1" d="M123.1,109.3c1,0.7,1,1.5,0.8,2.4c-0.5,2.1,0.3,4.1,0.9,6c0.2,0.7,0.8,1.4,1.3,2.1c-0.6,0.7-1.2,0.1-2.8-3.5
		c-0.3,0.6-0.5,1-0.7,1.4c-0.6,1.5-1.9,2.3-3.3,2.2c-1.5-0.1-3.4-1.3-3.7-2.6c-0.4-1.7-0.7-3.5-0.9-5.2c-0.1-0.8-0.2-1.7,0.7-1.9
		c0.6-0.1,1.5,0.1,2,0.5c0.7,0.5,0.9,1.3,0.5,2.3c-0.4,1-0.6,2.1-0.5,3.2c0.1,1.2,0.9,2.1,2.2,2.3c1.2,0.2,1.7-0.7,2.2-1.5
		c0.7-1.3,1.1-2.6,0.7-4.1C122.3,111.7,122.3,110.4,123.1,109.3z"/>
	<path class="st1" d="M108.1,111.3c1.5-0.5,3-0.9,4.4-1.4c0.1,0,0.3,0.1,0.5,0.2c0.1,0.1,0.2,0.3,0.2,0.4c-0.8,0.3-1.5,0.5-2.2,0.8
		c-2.3,1.2-2.5,3.5-2.7,5.7c-0.1,1.1-0.2,2.3-0.3,3.4c-0.1,0.9-0.7,1.4-1.4,1.2c-0.4-0.1-0.9-0.9-0.9-1.3c-0.1-2,0.1-3.9,0-5.9
		c0-0.8-0.3-1.6-0.6-2.4c-0.6-1.5-0.2-2.6,1.4-2.8c0.5,0,1.1,0.4,1.5,0.8C108,110.3,108,110.8,108.1,111.3z"/>
</g>
<g>
	<path class="st1" d="M12,143.3c5.4,0,10.7-0.3,15.9,0.1c4.1,0.3,7.1,2.9,8.5,6.9c1.4,4.1,0.7,7.9-2.6,11c-0.9,0.9-0.9,1.6-0.5,2.6
		c1.6,3.8,3.2,7.6,4.9,11.8c-3.5,0-6.7,0-10,0c-0.4,0-0.8-0.5-1-0.9c-1.4-3-3.2-5.9-3.9-9c0-2.8-0.1-5.9-0.1-9
		c1.6-0.4,4.1-0.3,3.4-3c-0.6-2.2-2.7-1.7-4.6-1.6c0,7.8,0,15.5,0,23.3c-3.4,0-6.6,0-10,0C12,164.8,12,154.1,12,143.3z"/>
	<path class="st1" d="M68.8,175.6c0-5.2-0.2-10.3,0.1-15.3c0.2-3.8,2.1-6.8,5.8-8.4c3.5-1.5,6.4-0.9,10.6,2.3
		c0.8-0.5,1.6-1.1,2.4-1.6c5.8-3.4,13.1-0.1,13.7,6.5c0.5,5.4,0.1,10.9,0.1,16.5c-3,0-6,0-9.1,0c0-4.1,0-8,0-12
		c0-0.7,0.1-1.3-0.1-1.9c-0.1-0.4-0.6-0.9-1-0.9c-0.8,0-1.2,0.5-1.3,0.8c-0.2,0.8-0.1,1.7-0.1,2.5c0,3.8,0,7.6,0,11.5
		c-3.1,0-6,0-9.3,0c0-4,0.1-8,0-11.9c0-1,0-2.8-1-2.8c-1.8,0-1.3,1.8-1.3,2.9c-0.1,3.9,0,7.8,0,11.9C75,175.6,72,175.6,68.8,175.6z"
		/>
	<path class="st1" d="M64,175.7c-3.2,0-6.1,0-9.3,0c0-3.5,0-6.9,0-10.3c0-0.9,0-1.8-0.3-2.6c-0.6-1.6-1.8-2.3-3.5-1.9
		c-1.6,0.4-2.6,1.6-2.4,3.4c0.2,1.8,1.3,2.7,3.1,2.7c0.6,0,1.3-0.2,2.1-0.4c0,3.1,0,6.2,0,9.2c-5.9,2.1-15.7-3-14.6-13.5
		c0.7-6.7,6.4-11.4,13.4-11.1c7,0.3,11.5,5,11.5,12.2C64,167.5,64,171.5,64,175.7z"/>
	<path class="st1" d="M154.8,175.7h-9.3c0-3.6,0-7.2,0-10.7c0-0.9,0.2-1.8-0.1-2.6c0-0.1-0.1-0.2-0.1-0.3c-0.5-1-1.9-1.1-2.5-0.1
		c-0.1,0.1-0.1,0.3-0.1,0.4c-0.1,3.4-0.1,6.8-0.1,10.3c0,0.9,0,1.9,0,3h-8.9c0-5.4-0.5-10.9,0.2-16.2c0.7-5.5,5.6-8.5,11.2-8.2
		c5,0.3,8.7,4,9.5,9.5c0.1,0.6,0.1,1.3,0.1,1.9C154.8,166.9,154.8,171.2,154.8,175.7z"/>
	<path class="st1" d="M130,165.4c-4.3,0-8.4,0-12.5,0c-0.8,0-1.5-1.3-1.5-2.3c0-1,0.6-2.3,1.6-2.3c1,0,2,0,3.1,0
		c-0.9-2.4-2.8-2.9-4.5-1.3c-2,1.8-2,6.1,0,7.9c1.6,1.5,3.1,0.7,4.6-0.5c1.7,2.1,3.5,4.1,5.2,6.2c-4,3.9-11,4.1-15.8,0.6
		c-4.8-3.6-6.3-10.3-3.6-15.7c2.8-5.6,9.3-8.2,15.4-6.3C127.5,153.6,130.8,159,130,165.4z"/>
</g>
</svg>
