<svg xmlns="http://www.w3.org/2000/svg" viewBox="0 0 81.7 61.43"><defs><style>.cls-1{fill:#fff;}</style></defs><title>macaque1</title><g id="Layer_3" data-name="Layer 3"><path class="cls-1" d="M18.25,16.83a8.19,8.19,0,0,1,.36-1.64,3.67,3.67,0,0,0,.15-2.66,8.23,8.23,0,0,0-2.89-2.64,2.51,2.51,0,0,0,0,.67c.13,1,.86,1.3.75,2-.07.39-.38.68-1.6,1.32-2.53,1.32-3.73,1.37-4.22,2.44a1.33,1.33,0,0,0-.09,1.12c.21.41.62.32,1,.75s.24.89.56,1.41a2.64,2.64,0,0,0,1.78.94,8,8,0,0,0,3.57-.09,5.55,5.55,0,0,1,.91-.21A11.69,11.69,0,0,1,18.25,16.83Z"/><path class="cls-1" d="M67.71,18.12a17.78,17.78,0,0,0-7-.85c-10.54.54-10.26.69-10.7.66A23.88,23.88,0,0,1,38.76,14c-3.84-2.65-3.37-4.23-7.23-6.15C29.8,7,26.13,5.14,23,6.24c-1.39.49-2.4,1.47-4.5,1.6a2.79,2.79,0,0,0-1.83.52,2.24,2.24,0,0,0-.65,1,8.86,8.86,0,0,1,3.25,2.94,4,4,0,0,1-.1,3.1,7.88,7.88,0,0,0-.33,1.52,11.52,11.52,0,0,0,.48,4c.36.73.45,1.87,1.33,2.38.66.38,1.13.06,1.66.14h0a1.13,1.13,0,0,1,.4.14c1.06.64.73,2.43,1,4.23.34,2,1.31,3.19,3.19,5.53.2.25.39.47.57.68a11.75,11.75,0,0,1,1.75,3.75c1.3,5.41,2.65,6.15,2.11,8-.68,2.4-3.51,2.36-3.77,3.49-.52,2.23,3,1.48,4.16,1.38,0,0-1.93,2.46-.32,2.54,2,.09,4.82.06,6.06-1.58.58-.76.32-1.19,1.22-3a15.21,15.21,0,0,1,1.13-1.92c.36-.56,1.31-2.47-.57-11.07-.19-.9-.45-2-.79-3.34a14.22,14.22,0,0,0,3.28,1.27,14.71,14.71,0,0,0,5.73.28,10.79,10.79,0,0,0-1.27,5.31c.15,4.36,3.24,7.45,1.92,9.15a2.63,2.63,0,0,1-1.31.79,19.84,19.84,0,0,1-3.22.54s-1.34.84-1.45,1.48.61.68,1.29,1c1.2.63,3-.08,4-.84a2.63,2.63,0,0,1,1.12-.66c.85-.19,1.24.29,1.74.1.19-.08.83-.42.89-3a20.41,20.41,0,0,0-.38-3.94c-.27-2.87,1.62-5.76,3.29-7.18a6.56,6.56,0,0,1,.57-.43c-.2,1.67-.16,3.64-.41,4.46a7.61,7.61,0,0,0-.47,2.83c.1,2,1.12,2.4,1.34,4.56,0,.47.28,2.67-.69,3.19s-2.62-.4-3.51.15c-.68.42-.63,1.18.15,1.95.21.2.7.56,4.34-.16,3.47-.69,3.82-1.18,3.93-1.49.28-.73-.37-1.24-.78-2.54a8.1,8.1,0,0,1,.51-5.48c1.4-3,7.46-11.19,8.68-13.95a4.78,4.78,0,0,0,.75-2.19c.13-2.13-1.41-4.29-.71-4.79.32-.22.68.17,1.41,0a2.43,2.43,0,0,0,1.83-2.2C71,19.25,69.19,18.63,67.71,18.12Zm-44.22-4c-1.24.21-.2-1.15-.45-2.57S21.36,9.18,22.6,9a2.45,2.45,0,0,1,2.69,2.17A2.47,2.47,0,0,1,23.49,14.1ZM34.91,49.6a2.17,2.17,0,0,1-1.85.2,2.6,2.6,0,0,0,.84-1.42,27.1,27.1,0,0,0,.67-7.44A10.12,10.12,0,0,1,36,45.47C36.11,46.71,36.22,48.6,34.91,49.6Z"/></g></svg>