<?xml version="1.0" encoding="utf-8"?>
<!-- Generator: Adobe Illustrator 23.0.1, SVG Export Plug-In . SVG Version: 6.00 Build 0)  -->
<svg version="1.1" xmlns="http://www.w3.org/2000/svg" xmlns:xlink="http://www.w3.org/1999/xlink" x="0px" y="0px"
	 viewBox="0 0 900 627" style="enable-background:new 0 0 900 627;" xml:space="preserve">
<style type="text/css">
	.st0{fill:#FFCA57;}
	.st1{fill:#F1F1F1;}
	.st2{fill:#FCF4EA;}
</style>
<g id="Layer_1">
	<path class="st0" d="M3.76,21.87c0,6.73,0,13.46,0,20.2c1.75-1.12,3.82-1.77,6.05-1.77c6.22,0,11.26,5.04,11.26,11.26
		S16.03,62.82,9.81,62.82c-2.23,0-4.3-0.66-6.05-1.77c0,5.09,0,10.18,0,15.27c1.75-1.12,3.82-1.77,6.05-1.77
		c6.22,0,11.26,5.04,11.26,11.26c0,6.22-5.04,11.26-11.26,11.26c-2.23,0-4.3-0.66-6.05-1.77c0,5.09,0,10.18,0,15.27
		c1.75-1.12,3.82-1.77,6.05-1.77c6.22,0,11.26,5.04,11.26,11.26s-5.04,11.26-11.26,11.26c-2.23,0-4.3-0.66-6.05-1.77
		c0,5.09,0,10.18,0,15.27c1.75-1.12,3.82-1.77,6.05-1.77c6.22,0,11.26,5.04,11.26,11.26s-5.04,11.26-11.26,11.26
		c-2.23,0-4.3-0.66-6.05-1.77c0,5.09,0,10.18,0,15.27c1.75-1.12,3.82-1.77,6.05-1.77c6.22,0,11.26,5.04,11.26,11.26
		c0,6.22-5.04,11.26-11.26,11.26c-2.23,0-4.3-0.66-6.05-1.77c0,5.09,0,10.18,0,15.27c1.75-1.12,3.82-1.77,6.05-1.77
		c6.22,0,11.26,5.04,11.26,11.26c0,6.22-5.04,11.26-11.26,11.26c-2.23,0-4.3-0.66-6.05-1.77c0,5.09,0,10.18,0,15.27
		c1.75-1.12,3.82-1.77,6.05-1.77c6.22,0,11.26,5.04,11.26,11.26c0,6.22-5.04,11.26-11.26,11.26c-2.23,0-4.3-0.66-6.05-1.77
		c0,5.09,0,10.18,0,15.27c1.75-1.12,3.82-1.77,6.05-1.77c6.22,0,11.26,5.04,11.26,11.26S16.03,302.6,9.81,302.6
		c-2.23,0-4.3-0.66-6.05-1.77c0,5.09,0,10.18,0,15.27c1.75-1.12,3.82-1.77,6.05-1.77c6.22,0,11.26,5.04,11.26,11.26
		c0,6.22-5.04,11.26-11.26,11.26c-2.23,0-4.3-0.66-6.05-1.77c0,5.09,0,10.18,0,15.27c1.75-1.12,3.82-1.77,6.05-1.77
		c6.22,0,11.26,5.04,11.26,11.26s-5.04,11.26-11.26,11.26c-2.23,0-4.3-0.66-6.05-1.77c0,5.09,0,10.18,0,15.27
		c1.75-1.12,3.82-1.77,6.05-1.77c6.22,0,11.26,5.04,11.26,11.26s-5.04,11.26-11.26,11.26c-2.23,0-4.3-0.66-6.05-1.77
		c0,5.09,0,10.18,0,15.27c1.75-1.12,3.82-1.77,6.05-1.77c6.22,0,11.26,5.04,11.26,11.26s-5.04,11.26-11.26,11.26
		c-2.23,0-4.3-0.66-6.05-1.77c0,5.09,0,10.18,0,15.27c1.75-1.12,3.82-1.77,6.05-1.77c6.22,0,11.26,5.04,11.26,11.26
		c0,6.22-5.04,11.26-11.26,11.26c-2.23,0-4.3-0.66-6.05-1.77c0,5.09,0,10.18,0,15.27c1.75-1.12,3.82-1.77,6.05-1.77
		c6.22,0,11.26,5.04,11.26,11.26c0,6.22-5.04,11.26-11.26,11.26c-2.23,0-4.3-0.66-6.05-1.77c0,5.09,0,10.18,0,15.27
		c1.75-1.12,3.82-1.77,6.05-1.77c6.22,0,11.26,5.04,11.26,11.26s-5.04,11.26-11.26,11.26c-2.23,0-4.3-0.66-6.05-1.77
		c0,5.09,0,10.18,0,15.27c1.75-1.12,3.82-1.77,6.05-1.77c6.22,0,11.26,5.04,11.26,11.26s-5.04,11.26-11.26,11.26
		c-2.23,0-4.3-0.66-6.05-1.77c0,5.09,0,10.18,0,15.27c1.75-1.12,3.82-1.77,6.05-1.77c6.22,0,11.26,5.04,11.26,11.26
		c0,6.22-5.04,11.26-11.26,11.26c-2.23,0-4.3-0.66-6.05-1.77c0,4.81,0,9.62,0,14.43c0.29,0.42,0.59,0.84,0.88,1.27
		c297.09,0,594.18,0,891.27,0c0.29-0.42,0.59-0.84,0.88-1.27c0-200.56,0-401.12,0-601.68H3.76z"/>
	<path class="st1" d="M2.39,623.93c0.29,0.29,0.59,0.59,0.88,0.88C2.97,624.52,2.68,624.22,2.39,623.93z"/>
	<path class="st2" d="M894.54,624.81c0.29-0.29,0.59-0.59,0.88-0.88C895.13,624.22,894.83,624.52,894.54,624.81z"/>
</g>
<g id="Layer_2">
</g>
</svg>
