<?xml version="1.0" encoding="utf-8"?>
<!-- Generator: Adobe Illustrator 16.0.0, SVG Export Plug-In . SVG Version: 6.00 Build 0)  -->
<!DOCTYPE svg PUBLIC "-//W3C//DTD SVG 1.1//EN" "http://www.w3.org/Graphics/SVG/1.1/DTD/svg11.dtd">
<svg version="1.1" id="Layer_1" xmlns="http://www.w3.org/2000/svg" xmlns:xlink="http://www.w3.org/1999/xlink" x="0px" y="0px"
	 width="338.763px" height="147.168px" viewBox="0 0 338.763 147.168" enable-background="new 0 0 338.763 147.168"
	 xml:space="preserve">
<g>
	<path fill="none" stroke="#FCFCFC" stroke-width="0.2731" stroke-miterlimit="10" d="M133.584,66.667
		c-0.516,0.574-1.01,1.605-1.549,1.629c-1.503,0.063-1.381,0.908-1.295,1.873c0.223,2.516,1.109,3.287,3.635,3.048
		c3.031-0.282,6.059-0.627,9.087-0.962c1.691-0.186,1.511,0.112,1.527,1.472c0.048,4.453,0.09,8.906,0.224,13.355
		c0.08,2.685,0.098,2.709-2.445,1.785c-0.343-0.125-1.096-0.05-1.142,0.096c-0.345,1.094-1.176,0.754-1.921,0.812
		c-1.202,0.09-1.54,0.594-1.157,1.688c0.151,0.427,0.37,0.9,0.704,1.183c1.006,0.854,1.507,1.947,1.793,3.192
		c0.078,0.342,0.289,0.664,0.469,0.977c0.887,1.542,3.004,1.889,3.626,3.704c0.032,0.095,0.276,0.115,0.421,0.176
		c2.804,1.197,5.869-0.132,6.85-3.025c0.247-0.73,0.407-1.521,0.426-2.287c0.137-5.856,0.23-11.712,0.331-17.568
		c0.032-1.954,0.049-3.905,0.063-5.859c0.007-0.876,0.316-1.51,1.234-1.739c0.378-0.094,0.763-0.206,1.102-0.387
		c1.463-0.786,1.616-1.817,0.453-2.949c-0.222-0.217-0.453-0.489-0.73-0.573c-3.001-0.881-3.346-3.025-2.749-5.647
		c0.034-0.148,0.007-0.312,0.004-0.467c-0.044-2.547-0.94-3.922-3.321-4.783c-1.014-0.368-2.117-0.498-3.186-0.698
		c-0.98-0.184-1.428,0.183-1.407,1.254c0.055,2.655-0.021,5.313,0.049,7.971c0.03,1.195-0.378,1.627-1.593,1.696
		c-1.785,0.103-3.643,0.18-5.307,0.748c-1.463,0.5-2.8,0.681-4.258,0.351c0.672-1.753,0.898-3.423-0.893-4.71
		c0.811-1.146,1.573-2.335,2.445-3.436c4.288-5.43,9.202-9.908,16.119-11.912c3.943-1.142,7.875-2.548,11.341-4.92
		c1.006-0.688,1.923-0.527,2.989,0.212c3.304,2.293,9.462,2.068,12.631-0.418c0.836-0.656,1.562-1.549,2.082-2.479
		c0.561-1.004,0.963-2.151,1.185-3.287c1.058-5.402,0.608-10.75-0.991-15.979c-0.939-3.069-2.768-5.655-5.379-7.517
		c-4.615-3.288-8.658-7.189-12.543-11.273c-0.805-0.849-1.434-1.185-2.554-0.526c-0.629,0.369-1.528,0.488-2.274,0.417
		c-2.948-0.291-5.247,1.038-7.559,2.617c-2.832,1.936-5.822,3.639-8.699,5.507c-1.299,0.846-2.592,1.755-3.698,2.829
		c-0.73,0.707-1.461,1.162-2.423,1.223c-1.357,0.085-2.381,0.641-3.073,1.836c-0.228,0.393-0.569,0.736-0.919,1.037
		c-7.535,6.498-13.707,14.138-18.76,22.676c-6.873,11.618-11.951,23.871-12.848,37.545c-0.786-1.606-1.619-3.188-2.342-4.822
		c-0.538-1.212-0.84-2.534-1.425-3.716c-0.36-0.729-0.967-1.424-1.632-1.897c-0.804-0.578-1.783-0.911-2.693-1.333
		c-0.835-0.391-1.818-0.603-2.332,0.279c-1.186,2.045-3.33,2.467-5.217,3.322c-0.655,0.298-1.445,0.305-2.174,0.444
		c0.1-0.723,0.157-1.45,0.303-2.162c0.528-2.594,1.235-5.162,1.588-7.779c0.293-2.171-0.819-3.735-2.926-4.528
		c-0.654-0.246-1.287-0.562-1.901-0.897c-2.358-1.29-2.62-1.21-3.729,1.318c-0.283,0.646-0.463,1.336-0.768,1.966
		c-0.267,0.552-0.537,1.166-0.979,1.558c-1.896,1.696-3.365,3.685-4.471,5.965c-0.429,0.883-1.081,1.513-2.118,1.659
		c-3.821,0.541-5.281,3.571-6.739,6.53c-0.589,1.195-0.316,1.719,0.853,2.56c0.758,0.543,1.594,0.999,2.289,1.615
		c1.217,1.075,2.609,1.747,4.189,1.955c3.979,0.526,7.938,0.555,11.847-0.596c1.343-0.396,2.725-0.876,4.096-0.896
		c1.85-0.027,3.572-0.335,5.177-1.19c0.666-0.357,0.999-0.421,1.524,0.256c1.201,1.559,2.515,3.039,4.811,2.771
		c0.196-0.025,0.435,0.161,0.626,0.286c1.486,0.952,2.823,0.516,4.108-0.427c0.022,6.132,0.886,12.139,2.725,17.995
		c3.805,12.127,10.696,22.325,19.623,31.224c3.49,3.479,7.106,6.825,11.517,9.159c5.531,2.928,11.252,5.35,17.285,7.102
		c13.116,3.809,26.325,4.015,39.635,1.374c8.018-1.592,15.516-4.682,22.773-8.354c3.637-1.842,6.922-4.239,9.952-6.978
		c8.096-7.321,12.909-16.534,15.554-26.99c0.534-2.105,0.938-4.246,1.402-6.371c4.015,1.9,5.567,1.64,8.789-1.407
		c1.076-1.02,2.188-2.001,3.323-2.956c0.62-0.521,1.324-0.941,2.021-1.43c0.595,1.259,0.996,2.281,1.537,3.217
		c0.674,1.161,1.528,2.287,2.89,2.601c1.895,0.437,3.827,0.777,5.762,0.928c2.046,0.164,2.631-0.622,2.32-2.691
		c-0.093-0.619-0.218-1.229-0.349-1.841c-0.229-1.069-0.803-1.97-1.899-2.149c-1.653-0.271-1.972-1.328-1.88-2.699
		c0.064-0.924,0.225-1.845,0.381-2.761c0.537-3.146,1.115-6.288,1.634-9.438c0.559-3.389-0.521-6.284-2.679-8.884
		c-3.312-3.988-7.388-4.927-12.104-2.713c-2.459,1.156-4.445,2.909-6.073,5.035c-1.276,1.668-2.392,3.456-3.579,5.192
		c-0.177-1.002-0.34-2.003-0.539-2.999c-2.933-14.627-9.599-26.989-21.802-36.01c-0.804-0.594-1.531-1.342-2.135-2.141
		c-0.859-1.137-1.882-1.778-3.325-1.907c-0.832-0.075-1.681-0.371-2.448-0.726c-2.348-1.084-4.529-2.352-6.254-4.411
		c-1.662-1.981-3.64-3.597-6.447-3.918c-0.976-0.113-1.869-0.928-2.877-1.46c-1.395,1.174-1.413,1.25-0.165,2.486
		c0.998,0.987,2.069,1.908,3.033,2.928c0.426,0.45,0.941,1.024,0.325,1.908c-0.971-0.814-1.803-1.641-2.758-2.279
		c-1.049-0.697-2.185-1.319-3.334-0.015c-0.281,0.319-0.823,0.411-1.246,0.603c-1.094,0.494-1.304,0.976-0.543,1.919
		c0.727,0.904,1.653,1.645,2.511,2.441c0.54,0.503,1.111,0.973,1.788,1.559c-0.611,0.356-0.946,0.554-1.279,0.746
		c-1.244,0.726-1.375,1.034-0.622,2.153c0.474,0.705,1.044,1.387,1.7,1.922c1.516,1.228,2.054,2.488,1.139,4.447
		c-0.866,1.854-0.429,2.719,1.438,3.523c5.07,2.187,8.852,5.827,11.751,10.409c1.579,2.495,2.873,5.168,4.295,7.762
		c-0.719,0.706-1.403,1.455-2.17,2.104c-0.507,0.426-1.136,0.711-1.71,1.058c-0.185-0.634-0.463-1.255-0.538-1.9
		c-0.605-5.235-2.86-9.725-6.282-13.631c-2.428-2.772-5.264-2.603-7.48,0.376c-0.926,1.25-1.811,2.584-2.404,4.008
		c-1.344,3.235-2.494,6.548-3.727,9.83c-1.261,3.357-2.436,6.754-3.805,10.068c-2.512,6.086-6.007,11.654-9.361,17.292
		c-0.477,0.804-0.918,1.64-1.27,2.501c-0.371,0.915-0.149,1.663,0.848,2.104c1.476,0.648,2.78,1.624,4.217,2.367
		c1.926,0.996,3.88,1.084,5.859,1.336c0.578,0.073,1.37-0.282,1.824-0.702c2.675-2.462,4.725-5.396,6.199-8.72
		c1.936-4.356,3.85-8.718,5.766-13.081c0.551-1.254,1.074-2.525,1.639-3.855c1.553,1.146,2.882,2.228,4.312,3.155
		c3.371,2.195,4.699,2.04,7.656-0.649c1.21-1.1,2.464-2.152,3.698-3.226c0.642,3.021,1.284,6.046,1.926,9.069
		c-0.195,2.079-0.24,4.185-0.624,6.228c-0.439,2.349-0.206,4.447,1.289,6.35c-1.738,6.782-6.099,11.436-11.983,14.896
		c-3.449,2.027-7.07,3.665-10.874,4.834c-5.888,1.81-11.843,3.623-18.042,3.659c-10.846,0.064-21.422-1.604-31.533-5.78
		c-8.044-3.322-13.923-8.771-17.221-16.896c-0.349-0.856-0.768-1.688-1.154-2.528c-0.42-4.15-0.838-8.298-1.297-12.836
		c2.521,1.368,4.531,1.219,6.438-0.3c1.735-1.383,1.778-2.407-0.034-3.619c-0.902-0.604-1.938-1.012-2.836-1.62
		c-0.887-0.596-1.68-1.329-2.513-2.006c0.567-1.618,1.135-3.234,1.702-4.854C130.491,67.921,132.039,67.294,133.584,66.667z
		 M19.211,77.939c0.09-1.56,0.1-3.128,0.288-4.671c0.177-1.443,1.005-2.584,1.998-3.636c0.819-0.868,1.759-0.303,2.644-0.4
		c0.617-0.063,1.244-0.181,1.831-0.381c4.503-1.541,9.151-1.879,13.873-1.797c1.905,0.035,3.701,0.335,5.475,1.042
		c1.076,0.43,2.239,0.681,3.386,0.895c1.113,0.205,1.701-0.54,2.143-1.445c0.4-0.822,0.6-1.517-0.223-2.303
		c-1.047-0.998-1.108-1.708-0.004-2.418c1.623-1.042,2.111-2.812,3.146-4.211c1.159-1.572,0.656-2.975-1.138-3.979
		c-1.705-0.954-3.424-1.885-5.162-2.777c-0.541-0.278-1.162-0.553-1.752-0.569c-5.391-0.149-10.785-0.443-16.139,0.58
		c-4.424,0.845-8.841,2.213-13.367,0.366c-0.413-0.167-1.245,0.175-1.632,0.546c-1.246,1.19-0.866,4.086,0.6,4.962
		c2.897,1.732,6.238,2.323,9.347,3.51c0.745,0.286,1.73,0.183,2.547-0.002c2.355-0.529,4.684-1.184,7.021-1.795
		c2.037-0.531,4.064-1.097,6.113-1.578c0.383-0.091,1.198,0.106,1.211,0.229c0.101,1.062,0.172,2.154-0.006,3.192
		c-0.045,0.262-1.01,0.432-1.571,0.521c-0.768,0.119-1.555,0.137-2.335,0.173c-4.443,0.205-8.914,0.053-13.307,0.983
		c-0.936,0.197-1.799,0.073-2.559-0.732c-0.439-0.464-1.238-0.901-1.827-0.844c-1.153,0.114-2.091-0.191-3.121-0.623
		c-1.429-0.601-2.351,0.011-2.288,1.568c0.08,2.022-0.287,3.856-1.293,5.616c-0.375,0.656-0.576,1.478-0.633,2.241
		c-0.26,3.5-0.451,7.003-0.646,10.505c-0.095,1.711-0.054,3.438-0.246,5.138c-0.176,1.563-0.735,3.031-1.856,4.221
		c-2.308,2.446-4.596,4.912-6.916,7.343c-0.702,0.734-1.535,1.34-2.227,2.082c-1.024,1.1-0.165,3.979,1.267,4.219
		c1.215,0.204,2.461,0.229,3.682,0.394c0.508,0.068,1.076,0.183,1.476,0.469c1.869,1.345,2.465,1.364,4.113-0.297
		c1.486-1.5,2.927-3.047,4.324-4.629c1.499-1.697,3.028-3.385,4.356-5.214c1.484-2.041,2.289-4.489,1.311-6.872
		C19.829,84.436,19.524,81.221,19.211,77.939z M304.056,87.326c0.257,3.197,1.096,5.918,3.825,7.791
		c0.314,0.215,0.573,0.532,0.801,0.843c3.039,4.137,7.277,4.529,11.133,2.229c2.076-1.241,4.214-2.375,6.309-3.586
		c0.658-0.38,1.143-0.462,1.431,0.407c0.122,0.368,0.276,0.757,0.526,1.041c0.756,0.871,1.52,1.745,2.369,2.525
		c0.869,0.8,1.771-0.005,2.658-0.111c0.311-0.036,0.623-0.035,0.935-0.051c1.361-0.073,2.126-0.787,2.405-2.119
		c0.275-1.303,0.691-2.557-0.348-3.779c-0.297-0.347-0.354-1.043-0.279-1.545c0.502-3.386,1.041-6.769,1.623-10.139
		c0.344-1.998,0.933-3.964,1.134-5.969c0.146-1.443-0.058-2.949-0.313-4.39c-0.184-1.052-0.98-1.721-2.098-1.955
		c-1.199-0.257-2.403-0.523-3.57-0.895c-1.808-0.572-1.871-0.54-3.201,0.895c-1.984,2.143-1.477,4.937-1.819,7.429
		c-0.224,1.616-0.457,3.046-1.473,4.289c-1.087,1.328-2.266,2.582-3.33,3.929c-1.733,2.194-3.95,3.754-6.389,5.037
		c-0.412,0.216-0.855,0.391-1.304,0.51c-0.765,0.201-1.294-0.103-1.197-0.921c0.119-0.997,0.217-2.062,0.636-2.943
		c1.972-4.157,2.651-8.633,3.258-13.104c0.179-1.31-0.188-2.814-0.706-4.064c-0.723-1.743-2.347-2.348-4.2-2.457
		c-1.806-0.11-2.745,0.98-3.403,2.369c-0.461,0.971-0.677,2.057-1,3.093c-0.367,1.188-0.693,2.39-1.105,3.558
		c-0.545,1.547-1.295,3.031-1.706,4.607C305.013,82.312,304.58,84.831,304.056,87.326z M285.68,72.861
		c-0.111-0.325-0.243-0.537-0.249-0.749c-0.08-2.487,0.127-5.052-2.046-6.923c-0.1-0.084-0.115-0.286-0.139-0.438
		c-0.368-2.423-2.075-3.555-4.181-4.249c-0.716-0.238-1.515-0.478-2.223-0.368c-0.302,0.045-0.431,1.001-0.71,1.509
		c-0.138,0.252-0.436,0.418-0.658,0.626c-0.523,0.49-0.612,1.025-0.287,1.684c0.275,0.557,0.449,1.16,0.687,1.737
		c0.661,1.6,0.729,3.218-0.096,4.758c-1.991,3.711-2.569,7.616-2.028,11.778c0.532,4.079,0.424,8.275,2.623,11.992
		c0.268,0.453,0.334,1.03,0.461,1.559c0.613,2.554,2.064,4.525,4.246,5.933c0.542,0.35,1.402,0.699,1.916,0.509
		c1.55-0.572,2.905-1.408,3.156-3.372c0.312-2.425-0.033-4.658-1.336-6.728c-1.286-2.038-1.826-4.291-1.887-6.668
		c-0.007-0.316,0.193-0.884,0.382-0.924c2.391-0.489,4.134-2.111,6.095-3.355c1.445-0.917,2.038-0.804,3.26,0.457
		c0.324,0.336,0.639,0.693,0.895,1.081c0.838,1.268,2.039,1.883,3.509,2.066c0.62,0.078,1.245,0.149,1.845,0.308
		c2.475,0.646,3.592,0.105,4.023-2.289c0.152-0.841-0.131-1.898-0.546-2.682c-2.173-4.097-5.436-7-9.877-8.462
		c-1.506-0.495-3.071-0.564-4.577,0.047C287.173,72.007,286.465,72.451,285.68,72.861z M87.196,99.699
		c0,0.074,0.002,0.145,0.004,0.218c1.795,0,3.591,0.009,5.387-0.006c3.246-0.021,4.98-1.558,5.27-4.729
		c0.269-2.957,0.449-5.922,0.732-8.875c0.078-0.814-0.17-1.363-0.801-1.8c-0.578-0.399-1.124-0.856-1.736-1.196
		c-4.113-2.282-8.52-2.925-13.141-2.257c-1.934,0.276-3.873,0.546-5.787,0.921c-1.357,0.27-2.68,0.714-4.018,1.08
		c-1.289,0.356-2.355-0.052-3.519-0.683c-2.194-1.187-3.429-0.28-3.274,2.204c0.016,0.234,0.059,0.468,0.078,0.698
		c0.16,1.941,0.319,3.882,0.479,5.822c0.162,1.945,0.26,3.897,0.501,5.834c0.412,3.351,1.633,4.472,4.994,4.714
		c0.54,0.039,1.088-0.046,1.634-0.06c0.994-0.021,1.848-0.126,1.963-1.441c0.098-1.114,0.885-1.195,1.875-1.108
		C80.952,99.317,84.077,99.487,87.196,99.699z M41.17,94c-0.321-2.864-0.321-2.866,2.137-3.526c0.223-0.059,0.482,0.003,0.693-0.076
		c0.963-0.359,1.229-1.698,0.338-2.205c-1.963-1.113-3.994-2.308-6.363-1.963c-1.32,0.191-2.424,0.078-3.555-0.617
		c-0.825-0.504-1.686-0.688-2.55,0.184c-0.371,0.375-1.095,0.472-1.679,0.558c-1.001,0.149-2.023,0.163-3.029,0.29
		c-0.775,0.101-1.393,0.593-1.363,1.365c0.031,0.887,0.351,1.765,0.545,2.646c1.725,0.044,2.979,2.208,4.989,1.071
		c0.479-0.271,1.087-0.285,1.256,0.5c0.231,1.073-0.147,1.917-0.979,1.957c-3.345,0.159-6.579,1.402-9.989,1.004
		c-0.399-0.047-0.948,0.163-1.248,0.444c-1.865,1.751-1.89,3.752-0.027,5.498c0.669,0.627,1.483,1.158,2.319,1.537
		c2.356,1.067,4.688,0.758,7.047-0.173c1.428-0.563,2.952-1.084,4.461-1.186c1.605-0.114,3.242,0.338,4.873,0.447
		c0.669,0.043,1.475,0.026,2.007-0.306c0.996-0.619,1.853-0.434,2.883-0.163c2.203,0.581,4.45,0.842,6.711,0.194
		c1.64-0.467,3.296-0.885,4.939-1.347c0.2-0.058,0.521-0.264,0.511-0.376c-0.023-0.281-0.14-0.629-0.343-0.801
		c-0.354-0.29-0.796-0.479-1.211-0.688c-1.313-0.663-2.748-1.158-3.913-2.02c-1.174-0.87-2.162-1.796-3.759-1.146
		c-0.234,0.096-0.659-0.012-0.871-0.18C44.549,93.773,42.875,93.727,41.17,94z M26.444,71.668c-0.012-0.077-0.023-0.157-0.035-0.236
		c-0.623,0-1.315-0.171-1.859,0.039c-0.755,0.295-1.626,0.73-2.033,1.37c-0.54,0.85,0.193,1.677,0.859,2.197
		c0.913,0.714,1.933,1.309,2.957,1.859c0.848,0.455,0.744,0.955,0.127,1.401c-0.62,0.449-1.346,0.748-2.031,1.104
		c-0.94,0.484-1.295,1.535-1.138,3.025c0.11,1.044,0.863,1.309,1.636,1.331c2.646,0.079,5.3,0.17,7.939,0.036
		c2.098-0.105,4.18-0.535,6.268-0.812c1.101-0.144,1.979,0.184,2.614,1.153c0.426,0.651,0.885,1.312,1.455,1.834
		c0.549,0.502,1.212,1.027,1.908,1.188c1.593,0.364,3.228,0.577,4.859,0.729c1.982,0.187,2.842-0.833,2.109-2.694
		c-0.682-1.729-1.659-3.349-2.574-4.979c-0.208-0.371-0.659-0.658-1.06-0.861c-1.115-0.554-2.26-1.052-3.398-1.561
		c-1.041-0.463-2.066-0.664-3.104,0.067c-0.431,0.305-1.08,0.69-1.305-0.114c-0.094-0.344,0.318-1.006,0.684-1.26
		c0.492-0.345,1.17-0.409,1.75-0.635c1.084-0.423,2.205-0.784,3.22-1.34c1.034-0.568,1.167-1.369,0.315-2.059
		c-1.515-1.219-3.088-2.397-4.762-3.377c-0.738-0.43-1.848-0.59-2.685-0.406c-2.971,0.649-5.889,1.529-8.841,2.265
		C29.045,71.251,27.737,71.429,26.444,71.668z M135.411,78.782c0.016,0,0.032,0,0.049,0.002c0,0.468-0.025,0.938,0.004,1.408
		c0.166,2.648,0.545,3.076,3.164,3.324c0.889,0.085,1.645,0.259,2.301,0.949c0.308,0.322,1.033,0.61,1.385,0.462
		c1.963-0.813,2.68-4.111,1.039-5.524c-1.821-1.57-3.926-2.831-5.979-4.106c-0.792-0.491-1.56-0.033-1.743,0.914
		C135.469,77.052,135.478,77.922,135.411,78.782z"/>
	<path fill-rule="evenodd" clip-rule="evenodd" fill="#E60202" d="M99.702,76.17c0.896-13.674,5.975-25.927,12.848-37.545
		c5.053-8.538,11.225-16.178,18.76-22.676c0.35-0.301,0.691-0.645,0.919-1.037c0.692-1.195,1.716-1.751,3.073-1.836
		c0.962-0.061,1.692-0.516,2.423-1.223c1.106-1.074,2.399-1.983,3.698-2.829c2.877-1.868,5.867-3.571,8.699-5.507
		c2.312-1.579,4.61-2.908,7.559-2.617c0.746,0.071,1.646-0.048,2.274-0.417c1.12-0.658,1.749-0.322,2.554,0.526
		c3.885,4.084,7.928,7.985,12.543,11.273c2.611,1.861,4.439,4.447,5.379,7.517c1.6,5.229,2.049,10.577,0.991,15.979
		c-0.222,1.136-0.624,2.283-1.185,3.287c-0.52,0.93-1.246,1.822-2.082,2.479c-3.169,2.486-9.327,2.711-12.631,0.418
		c-1.066-0.739-1.983-0.9-2.989-0.212c-3.466,2.372-7.397,3.778-11.341,4.92c-6.917,2.004-11.831,6.482-16.119,11.912
		c-0.872,1.101-1.635,2.29-2.445,3.436c-1.704-0.524-3.414-1.034-5.109-1.587c-1.74-0.565-1.791-0.695-1.305-2.523
		c0.198-0.75,0.456-1.491,0.58-2.253c0.277-1.721-0.562-3.251-1.994-3.463c-1.534-0.228-3.111-0.47-4.644-0.356
		c-2.681,0.197-2.603,0.167-2.888,2.871c-0.14,1.315-0.024,2.655-0.027,3.983c0,0.47,0.023,0.94-0.004,1.407
		c-0.098,1.604-0.38,1.904-1.965,1.951c-1.484,0.041-2.971-0.032-4.453,0.02c-1.312,0.046-1.617,0.42-1.629,1.728
		c-0.03,3.148,1.896,5.728,4.913,6.557c0.372,0.102,0.776,0.086,1.151,0.186c1.716,0.442,1.888,1.05,0.677,2.364
		c-0.265,0.287-0.552,0.555-0.85,0.806c-3.792,3.229-7.585,6.46-11.386,9.678c-1.07,0.906-1.942,1.99-1.472,3.435
		c0.51,1.563,1.315,3.002,3.213,3.355c0.828,0.152,1.656,0.399,2.437,0.719c1.312,0.541,2.439,0.387,3.396-0.675
		c0.417-0.46,0.733-1.018,1.175-1.446c1.564-1.515,3.135-3.026,4.763-4.468c0.612-0.542,1.245-0.25,1.29,0.576
		c0.119,2.159,0.459,4.327-1.229,6.214c-0.605,0.676-0.922,1.844-0.907,2.778c0.018,1.214,0.447,2.434,0.794,3.621
		c0.731,2.511,2.513,3.94,5.03,4.233c1.193,0.139,2.48-0.151,3.668-0.463c1.832-0.481,2.322-1.47,2.047-3.334
		c-0.202-1.374-0.282-2.766-0.418-4.149c0.387,0.841,0.806,1.672,1.154,2.528c3.298,8.125,9.177,13.573,17.221,16.896
		c10.111,4.177,20.688,5.845,31.533,5.78c6.199-0.036,12.154-1.85,18.042-3.659c3.804-1.169,7.425-2.807,10.874-4.834
		c5.885-3.461,10.245-8.114,11.983-14.896c0.251,0.184,0.603,0.315,0.733,0.562c0.877,1.655,2.469,2.212,4.096,2.281
		c1.514,0.065,3.057-0.336,4.571-0.617c0.786-0.146,1.146-0.781,1.157-1.56c0.012-0.779,0.011-1.564-0.066-2.338
		c-0.245-2.469-0.687-4.927-0.761-7.396c-0.124-4.06-0.062-8.125,0-12.186c0.078-5.217,0.326-10.414,2.282-15.357
		c0.711-1.8,0.099-3.365-1.01-4.759c-0.678-0.852-1.471-1.625-2.288-2.346c-1.894-1.67-3.862-1.724-5.599,0.092
		c-1.275,1.335-2.328,2.911-3.316,4.48c-1.621,2.581-3.205,5.164-5.661,7.061c-1.422-2.594-2.716-5.267-4.295-7.762
		c-2.899-4.582-6.681-8.223-11.751-10.409c-1.866-0.805-2.304-1.669-1.438-3.523c0.915-1.959,0.377-3.22-1.139-4.447
		c-0.656-0.535-1.227-1.217-1.7-1.922c-0.753-1.119-0.622-1.428,0.622-2.153c0.333-0.192,0.668-0.39,1.279-0.746
		c-0.677-0.586-1.248-1.056-1.788-1.559c-0.857-0.797-1.784-1.537-2.511-2.441c-0.761-0.943-0.551-1.425,0.543-1.919
		c0.423-0.191,0.965-0.283,1.246-0.603c1.149-1.305,2.285-0.683,3.334,0.015c0.955,0.639,1.787,1.465,2.758,2.279
		c0.616-0.884,0.101-1.458-0.325-1.908c-0.964-1.02-2.035-1.94-3.033-2.928c-1.248-1.236-1.229-1.312,0.165-2.486
		c1.008,0.532,1.901,1.347,2.877,1.46c2.808,0.321,4.785,1.937,6.447,3.918c1.725,2.06,3.906,3.327,6.254,4.411
		c0.768,0.354,1.616,0.65,2.448,0.726c1.443,0.129,2.466,0.771,3.325,1.907c0.604,0.799,1.331,1.547,2.135,2.141
		c12.203,9.021,18.869,21.383,21.802,36.01c0.199,0.996,0.362,1.997,0.539,2.999c-0.28,0.717-0.544,1.44-0.846,2.149
		c-1.622,3.807-2.974,7.662-3.066,11.889c-0.073,3.368,0.831,6.129,3.819,7.959c-0.464,2.125-0.868,4.266-1.402,6.371
		c-2.645,10.456-7.458,19.669-15.554,26.99c-3.03,2.738-6.315,5.136-9.952,6.978c-7.258,3.673-14.756,6.763-22.773,8.354
		c-13.31,2.641-26.519,2.435-39.635-1.374c-6.033-1.752-11.754-4.174-17.285-7.102c-4.41-2.334-8.026-5.681-11.517-9.159
		c-8.927-8.898-15.818-19.097-19.623-31.224c-1.839-5.856-2.702-11.863-2.725-17.995C99.678,77.663,99.689,76.917,99.702,76.17z"/>
	<path fill-rule="evenodd" clip-rule="evenodd" fill="#F9DD64" d="M212.429,63.515c2.456-1.896,4.04-4.479,5.661-7.061
		c0.988-1.569,2.041-3.146,3.316-4.48c1.736-1.815,3.705-1.762,5.599-0.092c0.817,0.721,1.61,1.494,2.288,2.346
		c1.108,1.394,1.721,2.959,1.01,4.759c-1.956,4.943-2.204,10.141-2.282,15.357c-0.062,4.061-0.124,8.126,0,12.186
		c0.074,2.47,0.516,4.928,0.761,7.396c0.077,0.773,0.078,1.559,0.066,2.338c-0.012,0.778-0.371,1.413-1.157,1.56
		c-1.515,0.281-3.058,0.683-4.571,0.617c-1.627-0.069-3.219-0.626-4.096-2.281c-0.131-0.247-0.482-0.379-0.733-0.562
		c-1.495-1.902-1.729-4.001-1.289-6.35c0.384-2.043,0.429-4.148,0.624-6.228c0.31-2.789,0.676-5.576,0.895-8.373
		c0.072-0.91,0.61-2.328-0.59-2.637c-1.123-0.287-1.748,0.965-2.23,1.94c-1.234,1.073-2.488,2.126-3.698,3.226
		c-2.957,2.689-4.285,2.845-7.656,0.649c-1.43-0.928-2.759-2.01-4.312-3.155c-0.564,1.33-1.088,2.602-1.639,3.855
		c-1.916,4.363-3.83,8.725-5.766,13.081c-1.475,3.323-3.524,6.258-6.199,8.72c-0.454,0.42-1.246,0.775-1.824,0.702
		c-1.979-0.252-3.934-0.34-5.859-1.336c-1.437-0.743-2.741-1.719-4.217-2.367c-0.997-0.441-1.219-1.189-0.848-2.104
		c0.352-0.861,0.793-1.697,1.27-2.501c3.354-5.638,6.85-11.206,9.361-17.292c1.369-3.314,2.544-6.711,3.805-10.068
		c1.232-3.282,2.383-6.595,3.727-9.83c0.594-1.424,1.479-2.758,2.404-4.008c2.217-2.979,5.053-3.148,7.48-0.376
		c3.422,3.906,5.677,8.396,6.282,13.631c0.075,0.646,0.354,1.267,0.538,1.9c0.574-0.347,1.203-0.632,1.71-1.058
		C211.026,64.97,211.71,64.221,212.429,63.515z"/>
	<path fill-rule="evenodd" clip-rule="evenodd" fill="#F9DD64" d="M19.211,77.939c0.312,3.281,0.617,6.496,1.902,9.622
		c0.979,2.383,0.174,4.831-1.311,6.872c-1.328,1.829-2.857,3.517-4.356,5.214c-1.397,1.582-2.838,3.129-4.324,4.629
		c-1.648,1.661-2.244,1.642-4.113,0.297c-0.399-0.286-0.968-0.4-1.476-0.469c-1.221-0.165-2.467-0.189-3.682-0.394
		c-1.432-0.24-2.291-3.119-1.267-4.219c0.691-0.742,1.524-1.348,2.227-2.082c2.32-2.431,4.608-4.896,6.916-7.343
		c1.121-1.189,1.681-2.657,1.856-4.221c0.192-1.7,0.151-3.427,0.246-5.138c0.195-3.502,0.387-7.005,0.646-10.505
		c0.057-0.764,0.258-1.585,0.633-2.241c1.006-1.76,1.373-3.594,1.293-5.616c-0.062-1.558,0.859-2.169,2.288-1.568
		c1.03,0.432,1.968,0.737,3.121,0.623c0.589-0.058,1.388,0.38,1.827,0.844c0.76,0.806,1.623,0.93,2.559,0.732
		c4.393-0.931,8.863-0.778,13.307-0.983c0.78-0.036,1.567-0.054,2.335-0.173c0.562-0.09,1.526-0.26,1.571-0.521
		c0.178-1.038,0.106-2.131,0.006-3.192c-0.013-0.123-0.828-0.32-1.211-0.229c-2.049,0.481-4.076,1.047-6.113,1.578
		c-2.338,0.611-4.666,1.266-7.021,1.795c-0.816,0.185-1.802,0.288-2.547,0.002c-3.108-1.187-6.449-1.777-9.347-3.51
		c-1.466-0.876-1.846-3.771-0.6-4.962c0.387-0.371,1.219-0.713,1.632-0.546c4.526,1.847,8.943,0.479,13.367-0.366
		c5.354-1.023,10.748-0.729,16.139-0.58c0.59,0.017,1.211,0.291,1.752,0.569c1.738,0.893,3.457,1.823,5.162,2.777
		c1.794,1.004,2.297,2.406,1.138,3.979c-1.034,1.399-1.522,3.169-3.146,4.211c-1.104,0.71-1.043,1.42,0.004,2.418
		c0.822,0.786,0.623,1.48,0.223,2.303c-0.441,0.905-1.029,1.65-2.143,1.445c-1.146-0.214-2.31-0.465-3.386-0.895
		c-1.773-0.707-3.569-1.007-5.475-1.042c-4.722-0.082-9.37,0.256-13.873,1.797c-0.587,0.2-1.214,0.317-1.831,0.381
		c-0.885,0.098-1.824-0.468-2.644,0.4c-0.993,1.052-1.821,2.192-1.998,3.636C19.311,74.812,19.301,76.38,19.211,77.939z"/>
	<path fill-rule="evenodd" clip-rule="evenodd" fill="#F9DD64" d="M127.483,93.782c0.136,1.384,0.216,2.775,0.418,4.149
		c0.275,1.864-0.215,2.853-2.047,3.334c-1.188,0.312-2.475,0.602-3.668,0.463c-2.518-0.293-4.299-1.723-5.03-4.233
		c-0.347-1.188-0.776-2.407-0.794-3.621c-0.015-0.935,0.302-2.103,0.907-2.778c1.688-1.887,1.349-4.055,1.229-6.214
		c-0.045-0.826-0.678-1.118-1.29-0.576c-1.628,1.441-3.198,2.953-4.763,4.468c-0.441,0.429-0.758,0.986-1.175,1.446
		c-0.956,1.062-2.084,1.216-3.396,0.675c-0.78-0.319-1.608-0.566-2.437-0.719c-1.897-0.354-2.703-1.792-3.213-3.355
		c-0.471-1.444,0.401-2.528,1.472-3.435c3.801-3.218,7.594-6.448,11.386-9.678c0.298-0.251,0.585-0.519,0.85-0.806
		c1.211-1.314,1.039-1.922-0.677-2.364c-0.375-0.1-0.779-0.084-1.151-0.186c-3.017-0.829-4.943-3.408-4.913-6.557
		c0.012-1.308,0.317-1.682,1.629-1.728c1.482-0.052,2.969,0.021,4.453-0.02c1.585-0.047,1.867-0.347,1.965-1.951
		c0.027-0.467,0.004-0.938,0.004-1.407c0.003-1.328-0.112-2.668,0.027-3.983c0.285-2.704,0.207-2.674,2.888-2.871
		c1.532-0.113,3.109,0.129,4.644,0.356c1.432,0.212,2.271,1.742,1.994,3.463c-0.124,0.762-0.382,1.503-0.58,2.253
		c-0.486,1.828-0.436,1.958,1.305,2.523c1.695,0.553,3.405,1.062,5.109,1.587c1.791,1.287,1.564,2.957,0.893,4.71l0.062-0.062
		c-1.546,0.627-3.094,1.254-4.641,1.881c-3.504,0.313-3.992,1.178-2.356,4.222c0.137,0.255,0.433,0.422,0.654,0.632
		c0.833,0.677,1.626,1.41,2.513,2.006c0.898,0.608,1.934,1.016,2.836,1.62c1.812,1.212,1.77,2.236,0.034,3.619
		c-1.907,1.519-3.918,1.668-6.438,0.3C126.645,85.484,127.063,89.632,127.483,93.782z"/>
	<path fill-rule="evenodd" clip-rule="evenodd" fill="#F9DD64" d="M304.056,87.326c0.523-2.495,0.957-5.014,1.6-7.478
		c0.411-1.576,1.161-3.061,1.706-4.607c0.412-1.168,0.738-2.369,1.105-3.558c0.323-1.036,0.539-2.122,1-3.093
		c0.658-1.389,1.598-2.479,3.403-2.369c1.854,0.109,3.478,0.714,4.2,2.457c0.518,1.25,0.885,2.755,0.706,4.064
		c-0.606,4.472-1.286,8.947-3.258,13.104c-0.419,0.882-0.517,1.946-0.636,2.943c-0.097,0.818,0.433,1.122,1.197,0.921
		c0.448-0.119,0.892-0.294,1.304-0.51c2.438-1.283,4.655-2.843,6.389-5.037c1.064-1.347,2.243-2.601,3.33-3.929
		c1.016-1.243,1.249-2.673,1.473-4.289c0.343-2.492-0.165-5.286,1.819-7.429c1.33-1.435,1.394-1.467,3.201-0.895
		c1.167,0.371,2.371,0.638,3.57,0.895c1.117,0.234,1.914,0.903,2.098,1.955c0.256,1.44,0.46,2.946,0.313,4.39
		c-0.201,2.005-0.79,3.971-1.134,5.969c-0.582,3.37-1.121,6.753-1.623,10.139c-0.074,0.502-0.018,1.198,0.279,1.545
		c1.039,1.223,0.623,2.477,0.348,3.779c-0.279,1.332-1.044,2.046-2.405,2.119c-0.312,0.016-0.624,0.015-0.935,0.051
		c-0.887,0.106-1.789,0.911-2.658,0.111c-0.85-0.78-1.613-1.654-2.369-2.525c-0.25-0.284-0.404-0.673-0.526-1.041
		c-0.288-0.869-0.772-0.787-1.431-0.407c-2.095,1.211-4.232,2.345-6.309,3.586c-3.855,2.301-8.094,1.908-11.133-2.229
		c-0.228-0.311-0.486-0.628-0.801-0.843C305.152,93.244,304.313,90.523,304.056,87.326z"/>
	<path fill-rule="evenodd" clip-rule="evenodd" fill="#F9DD64" d="M240.131,96.57c-2.988-1.83-3.893-4.591-3.819-7.959
		c0.093-4.227,1.444-8.082,3.066-11.889c0.302-0.709,0.565-1.433,0.846-2.149c1.188-1.736,2.303-3.524,3.579-5.192
		c1.628-2.126,3.614-3.879,6.073-5.035c4.717-2.214,8.792-1.275,12.104,2.713c2.158,2.6,3.237,5.495,2.679,8.884
		c-0.519,3.15-1.097,6.292-1.634,9.438c-0.156,0.916-0.316,1.837-0.381,2.761c-0.092,1.371,0.227,2.428,1.88,2.699
		c1.097,0.18,1.67,1.08,1.899,2.149c0.131,0.611,0.256,1.222,0.349,1.841c0.311,2.069-0.274,2.855-2.32,2.691
		c-1.935-0.15-3.867-0.491-5.762-0.928c-1.361-0.313-2.216-1.439-2.89-2.601c-0.541-0.936-0.942-1.958-1.537-3.217
		c-0.696,0.488-1.4,0.908-2.021,1.43c-1.136,0.955-2.247,1.937-3.323,2.956C245.699,98.21,244.146,98.471,240.131,96.57z
		 M245.698,86.574c0.066,0.155,0.157,0.706,0.357,0.747c0.302,0.067,0.754-0.137,1.018-0.368c2.781-2.473,4.973-5.369,6.22-8.915
		c0.71-2.012,1.572-3.896,3.522-5.071c0.302-0.184,0.601-0.808,0.516-1.122c-0.557-2.059-3.348-2.897-4.859-1.396
		c-1.038,1.028-1.984,2.229-2.683,3.51c-1.92,3.52-2.989,7.361-3.907,11.243C245.792,85.581,245.776,85.977,245.698,86.574z"/>
	<path fill-rule="evenodd" clip-rule="evenodd" fill="#F9DD64" d="M99.702,76.17c-0.013,0.747-0.023,1.493-0.036,2.24
		c-1.285,0.942-2.622,1.379-4.108,0.427c-0.191-0.125-0.43-0.312-0.626-0.286c-2.296,0.269-3.609-1.212-4.811-2.771
		c-0.525-0.677-0.858-0.613-1.524-0.256c-1.604,0.855-3.327,1.163-5.177,1.19c-1.371,0.02-2.753,0.5-4.096,0.896
		c-3.909,1.15-7.867,1.122-11.847,0.596c-1.58-0.208-2.973-0.88-4.189-1.955c-0.695-0.616-1.531-1.072-2.289-1.615
		c-1.169-0.841-1.441-1.364-0.853-2.56c1.458-2.959,2.918-5.989,6.739-6.53c1.037-0.146,1.689-0.776,2.118-1.659
		c1.105-2.28,2.575-4.269,4.471-5.965c0.442-0.392,0.713-1.006,0.979-1.558c0.305-0.63,0.484-1.319,0.768-1.966
		c1.109-2.528,1.371-2.608,3.729-1.318c0.614,0.336,1.247,0.651,1.901,0.897c2.106,0.793,3.219,2.357,2.926,4.528
		c-0.353,2.617-1.06,5.186-1.588,7.779c-0.146,0.712-0.203,1.439-0.303,2.162c0.729-0.14,1.519-0.146,2.174-0.444
		c1.887-0.855,4.031-1.277,5.217-3.322c0.514-0.882,1.497-0.67,2.332-0.279c0.91,0.422,1.89,0.755,2.693,1.333
		c0.665,0.474,1.271,1.169,1.632,1.897c0.585,1.182,0.887,2.504,1.425,3.716C98.083,72.981,98.916,74.563,99.702,76.17z"/>
	<path fill-rule="evenodd" clip-rule="evenodd" fill="#F9DD64" d="M285.68,72.861c0.785-0.41,1.493-0.854,2.258-1.164
		c1.506-0.611,3.071-0.542,4.577-0.047c4.441,1.462,7.704,4.365,9.877,8.462c0.415,0.783,0.698,1.841,0.546,2.682
		c-0.432,2.395-1.549,2.935-4.023,2.289c-0.6-0.158-1.225-0.229-1.845-0.308c-1.47-0.184-2.671-0.799-3.509-2.066
		c-0.256-0.388-0.57-0.745-0.895-1.081c-1.222-1.261-1.814-1.374-3.26-0.457c-1.961,1.244-3.704,2.866-6.095,3.355
		c-0.188,0.04-0.389,0.607-0.382,0.924c0.061,2.377,0.601,4.63,1.887,6.668c1.303,2.069,1.648,4.303,1.336,6.728
		c-0.251,1.964-1.606,2.8-3.156,3.372c-0.514,0.19-1.374-0.159-1.916-0.509c-2.182-1.407-3.633-3.379-4.246-5.933
		c-0.127-0.528-0.193-1.105-0.461-1.559c-2.199-3.717-2.091-7.913-2.623-11.992c-0.541-4.162,0.037-8.067,2.028-11.778
		c0.825-1.54,0.757-3.158,0.096-4.758c-0.237-0.577-0.411-1.181-0.687-1.737c-0.325-0.658-0.236-1.193,0.287-1.684
		c0.223-0.208,0.521-0.374,0.658-0.626c0.279-0.508,0.408-1.464,0.71-1.509c0.708-0.109,1.507,0.13,2.223,0.368
		c2.105,0.694,3.812,1.826,4.181,4.249c0.023,0.152,0.039,0.354,0.139,0.438c2.173,1.871,1.966,4.436,2.046,6.923
		C285.437,72.324,285.569,72.536,285.68,72.861z"/>
	<path fill-rule="evenodd" clip-rule="evenodd" fill="#F9DD64" d="M133.522,66.729c1.458,0.33,2.795,0.149,4.258-0.351
		c1.664-0.568,3.521-0.646,5.307-0.748c1.215-0.069,1.623-0.501,1.593-1.696c-0.069-2.657,0.006-5.315-0.049-7.971
		c-0.021-1.071,0.427-1.438,1.407-1.254c1.068,0.2,2.172,0.33,3.186,0.698c2.381,0.861,3.277,2.236,3.321,4.783
		c0.003,0.154,0.03,0.318-0.004,0.467c-0.597,2.622-0.252,4.767,2.749,5.647c0.277,0.084,0.509,0.356,0.73,0.573
		c1.163,1.132,1.01,2.163-0.453,2.949c-0.339,0.181-0.724,0.293-1.102,0.387c-0.918,0.229-1.228,0.863-1.234,1.739
		c-0.015,1.954-0.031,3.905-0.063,5.859c-0.101,5.856-0.194,11.712-0.331,17.568c-0.019,0.766-0.179,1.557-0.426,2.287
		c-0.98,2.894-4.046,4.223-6.85,3.025c-0.145-0.061-0.389-0.081-0.421-0.176c-0.622-1.815-2.739-2.162-3.626-3.704
		c-0.18-0.312-0.391-0.635-0.469-0.977c-0.286-1.245-0.787-2.339-1.793-3.192c-0.334-0.282-0.553-0.756-0.704-1.183
		c-0.383-1.094-0.045-1.598,1.157-1.688c0.745-0.058,1.576,0.282,1.921-0.812c0.046-0.146,0.799-0.221,1.142-0.096
		c2.543,0.924,2.525,0.899,2.445-1.785c-0.134-4.449-0.176-8.902-0.224-13.355c-0.017-1.359,0.164-1.657-1.527-1.472
		c-3.028,0.335-6.056,0.68-9.087,0.962c-2.525,0.239-3.412-0.532-3.635-3.048c-0.086-0.965-0.208-1.81,1.295-1.873
		c0.539-0.023,1.033-1.055,1.549-1.629L133.522,66.729z"/>
	<path fill-rule="evenodd" clip-rule="evenodd" fill="#F9DD64" d="M87.196,99.699c-3.119-0.212-6.244-0.382-9.359-0.663
		c-0.99-0.087-1.777-0.006-1.875,1.108c-0.115,1.315-0.969,1.42-1.963,1.441c-0.546,0.014-1.094,0.099-1.634,0.06
		c-3.361-0.242-4.582-1.363-4.994-4.714c-0.241-1.937-0.339-3.889-0.501-5.834c-0.159-1.94-0.318-3.881-0.479-5.822
		c-0.02-0.23-0.062-0.464-0.078-0.698c-0.154-2.484,1.08-3.391,3.274-2.204c1.163,0.631,2.229,1.039,3.519,0.683
		c1.338-0.366,2.66-0.811,4.018-1.08c1.914-0.375,3.854-0.645,5.787-0.921c4.621-0.668,9.027-0.025,13.141,2.257
		c0.612,0.34,1.158,0.797,1.736,1.196c0.631,0.437,0.879,0.985,0.801,1.8c-0.283,2.953-0.464,5.918-0.732,8.875
		c-0.289,3.171-2.023,4.708-5.27,4.729c-1.796,0.015-3.592,0.006-5.387,0.006C87.198,99.844,87.196,99.773,87.196,99.699z
		 M82.753,92.742c0.003-0.029,0.005-0.058,0.007-0.09c1.555,0.104,3.107,0.23,4.663,0.305c1.089,0.049,1.808-0.441,1.894-1.594
		c0.09-1.166,0.131-2.334,0.203-3.502c0.049-0.816-0.371-1.137-1.133-1.074c-3.879,0.317-7.764,0.596-11.637,0.988
		c-1.4,0.141-1.859,0.825-1.879,2.199c-0.023,1.413,0.33,1.955,1.844,2.178C78.713,92.445,80.74,92.554,82.753,92.742z"/>
	<path fill-rule="evenodd" clip-rule="evenodd" fill="#F9DD64" d="M41.17,94c1.704-0.273,3.379-0.227,4.829,0.925
		c0.212,0.168,0.637,0.275,0.871,0.18c1.597-0.65,2.585,0.275,3.759,1.146c1.165,0.861,2.6,1.356,3.913,2.02
		c0.415,0.209,0.856,0.397,1.211,0.688c0.203,0.172,0.319,0.52,0.343,0.801c0.01,0.112-0.311,0.318-0.511,0.376
		c-1.644,0.462-3.3,0.88-4.939,1.347c-2.261,0.647-4.508,0.387-6.711-0.194c-1.03-0.271-1.887-0.456-2.883,0.163
		c-0.532,0.332-1.338,0.349-2.007,0.306c-1.631-0.109-3.268-0.562-4.873-0.447c-1.509,0.102-3.033,0.622-4.461,1.186
		c-2.358,0.931-4.69,1.24-7.047,0.173c-0.836-0.379-1.65-0.91-2.319-1.537c-1.862-1.746-1.838-3.747,0.027-5.498
		c0.3-0.281,0.849-0.491,1.248-0.444c3.41,0.398,6.645-0.845,9.989-1.004c0.832-0.04,1.211-0.884,0.979-1.957
		c-0.169-0.785-0.777-0.771-1.256-0.5c-2.01,1.137-3.265-1.027-4.989-1.071c-0.194-0.881-0.514-1.759-0.545-2.646
		c-0.029-0.772,0.588-1.265,1.363-1.365c1.006-0.127,2.028-0.141,3.029-0.29c0.584-0.086,1.308-0.183,1.679-0.558
		c0.864-0.871,1.725-0.688,2.55-0.184c1.131,0.695,2.234,0.809,3.555,0.617c2.369-0.345,4.4,0.85,6.363,1.963
		c0.891,0.507,0.625,1.846-0.338,2.205c-0.211,0.079-0.471,0.018-0.693,0.076C40.849,91.134,40.849,91.136,41.17,94z"/>
	<path fill-rule="evenodd" clip-rule="evenodd" fill="#F9DD64" d="M26.444,71.668c1.293-0.239,2.602-0.417,3.877-0.733
		c2.952-0.735,5.87-1.615,8.841-2.265c0.837-0.184,1.946-0.023,2.685,0.406c1.674,0.979,3.247,2.158,4.762,3.377
		c0.852,0.689,0.719,1.49-0.315,2.059c-1.015,0.556-2.136,0.917-3.22,1.34c-0.58,0.226-1.258,0.29-1.75,0.635
		c-0.365,0.254-0.777,0.916-0.684,1.26c0.225,0.805,0.874,0.419,1.305,0.114c1.037-0.731,2.062-0.53,3.104-0.067
		c1.139,0.509,2.283,1.007,3.398,1.561c0.4,0.203,0.852,0.49,1.06,0.861c0.915,1.631,1.893,3.25,2.574,4.979
		c0.732,1.861-0.127,2.881-2.109,2.694c-1.632-0.151-3.267-0.364-4.859-0.729c-0.696-0.161-1.359-0.687-1.908-1.188
		c-0.57-0.521-1.029-1.183-1.455-1.834c-0.636-0.97-1.514-1.297-2.614-1.153c-2.088,0.276-4.17,0.706-6.268,0.812
		c-2.64,0.134-5.293,0.043-7.939-0.036c-0.772-0.022-1.525-0.287-1.636-1.331c-0.157-1.49,0.197-2.541,1.138-3.025
		c0.686-0.356,1.411-0.655,2.031-1.104c0.617-0.446,0.721-0.946-0.127-1.401c-1.024-0.551-2.044-1.146-2.957-1.859
		c-0.666-0.521-1.399-1.348-0.859-2.197c0.407-0.64,1.278-1.075,2.033-1.37c0.544-0.21,1.236-0.039,1.859-0.039
		C26.42,71.511,26.432,71.591,26.444,71.668z"/>
	<path fill-rule="evenodd" clip-rule="evenodd" fill="#F9DD64" d="M135.411,78.782c0.067-0.86,0.059-1.73,0.219-2.571
		c0.184-0.947,0.951-1.405,1.743-0.914c2.054,1.275,4.158,2.536,5.979,4.106c1.641,1.413,0.924,4.711-1.039,5.524
		c-0.352,0.148-1.077-0.14-1.385-0.462c-0.656-0.69-1.412-0.864-2.301-0.949c-2.619-0.248-2.998-0.676-3.164-3.324
		c-0.029-0.471-0.004-0.94-0.004-1.408C135.443,78.782,135.426,78.782,135.411,78.782z"/>
	<path fill-rule="evenodd" clip-rule="evenodd" fill="#E60202" stroke="#FCFCFC" stroke-width="0.2731" stroke-miterlimit="10" d="
		M215.7,73.95c0.482-0.976,1.107-2.228,2.23-1.94c1.2,0.309,0.662,1.727,0.59,2.637c-0.219,2.797-0.585,5.584-0.895,8.373
		C216.984,79.996,216.341,76.971,215.7,73.95z"/>
	<path fill-rule="evenodd" clip-rule="evenodd" fill="#E60202" stroke="#FCFCFC" stroke-width="0.2731" stroke-miterlimit="10" d="
		M127.242,73.401c-0.222-0.21-0.518-0.377-0.654-0.632c-1.636-3.044-1.147-3.908,2.356-4.222
		C128.376,70.167,127.809,71.783,127.242,73.401z"/>
	<path fill-rule="evenodd" clip-rule="evenodd" fill="none" stroke="#FCFCFC" stroke-width="0.2731" stroke-miterlimit="10" d="
		M245.698,86.574c0.078-0.598,0.094-0.993,0.184-1.373c0.918-3.882,1.987-7.724,3.907-11.243c0.698-1.281,1.645-2.481,2.683-3.51
		c1.512-1.501,4.303-0.662,4.859,1.396c0.085,0.314-0.214,0.938-0.516,1.122c-1.95,1.175-2.812,3.06-3.522,5.071
		c-1.247,3.546-3.438,6.442-6.22,8.915c-0.264,0.231-0.716,0.436-1.018,0.368C245.855,87.28,245.764,86.729,245.698,86.574z"/>
	<path fill-rule="evenodd" clip-rule="evenodd" fill="none" stroke="#FCFCFC" stroke-width="0.2731" stroke-miterlimit="10" d="
		M82.753,92.742c-2.014-0.188-4.04-0.297-6.038-0.59c-1.514-0.223-1.867-0.765-1.844-2.178c0.02-1.374,0.479-2.059,1.879-2.199
		c3.873-0.393,7.758-0.671,11.637-0.988c0.762-0.062,1.182,0.258,1.133,1.074c-0.072,1.168-0.113,2.336-0.203,3.502
		c-0.086,1.152-0.805,1.643-1.894,1.594c-1.556-0.074-3.108-0.201-4.663-0.305C82.758,92.685,82.756,92.713,82.753,92.742z"/>
</g>
</svg>
