<svg width="834" height="560" viewBox="0 0 834 560" fill="none" xmlns="http://www.w3.org/2000/svg">
<rect width="834" height="560" fill="#F5F5F5"/>
<g id="home wireframe 2" clip-path="url(#clip0_27_7)">
<rect width="1440" height="6591" transform="translate(-303 -359)" fill="white"/>
<rect id="Rectangle 16" x="-303" y="-299" width="1440" height="6531" fill="black"/>
<g id="hero-animation-desktop">
<rect id="Rectangle 46" x="303.5" y="204.5" width="227" height="151" stroke="#CB553C" stroke-width="3"/>
<rect id="Rectangle 47" x="242.5" y="162.5" width="349" height="235" stroke="#CB553C" stroke-width="3"/>
<rect id="Rectangle 48" x="182.5" y="123.5" width="469" height="313" stroke="#CB553C" stroke-width="3"/>
<rect id="Rectangle 49" x="123.5" y="82.5" width="587" height="395" stroke="#CB553C" stroke-width="3"/>
<rect id="Rectangle 50" x="62.5" y="42.5" width="709" height="475" stroke="#CB553C" stroke-width="3"/>
<rect id="Rectangle 51" x="1.5" y="1.5" width="831" height="557" stroke="#CB553C" stroke-width="3"/>
<line id="Line 22" x1="481.663" y1="286.684" x2="830.684" y2="327.337" stroke="#B1D5B6" stroke-width="3" stroke-linecap="round"/>
<line id="Line 24" x1="478.869" y1="297.997" x2="830.997" y2="404.131" stroke="#B1D5B6" stroke-width="3" stroke-linecap="round"/>
<line id="Line 25" x1="475.018" y1="307.345" x2="831.345" y2="488.982" stroke="#B1D5B6" stroke-width="3" stroke-linecap="round"/>
<line id="Line 27" x1="465.121" y1="322.969" x2="706.969" y2="557.879" stroke="#B1D5B6" stroke-width="3" stroke-linecap="round"/>
<line id="Line 41" x1="456.094" y1="331.34" x2="619.34" y2="557.906" stroke="#B1D5B6" stroke-width="3" stroke-linecap="round"/>
<line id="Line 44" x1="446.001" y1="336.703" x2="551.703" y2="556.999" stroke="#B1D5B6" stroke-width="3" stroke-linecap="round"/>
<line id="Line 47" x1="432.852" y1="341.035" x2="494.035" y2="557.148" stroke="#B1D5B6" stroke-width="3" stroke-linecap="round"/>
<line id="Line 26" x1="470.081" y1="315.589" x2="831.589" y2="557.919" stroke="#B1D5B6" stroke-width="3" stroke-linecap="round"/>
<line id="Line 23" x1="481.408" y1="275.413" x2="830.413" y2="254.592" stroke="#B1D5B6" stroke-width="3" stroke-linecap="round"/>
<line id="Line 28" x1="480.109" y1="264.192" x2="832.192" y2="179.891" stroke="#B1D5B6" stroke-width="3" stroke-linecap="round"/>
<line id="Line 29" x1="477.779" y1="254.027" x2="832.027" y2="100.221" stroke="#B1D5B6" stroke-width="3" stroke-linecap="round"/>
<line id="Line 30" x1="471.411" y1="242.919" x2="829.919" y2="2.5893" stroke="#B1D5B6" stroke-width="3" stroke-linecap="round"/>
<line id="Line 31" x1="1.5" y1="-1.5" x2="352.88" y2="-1.5" transform="matrix(-0.993285 0.115695 0.115695 0.993285 354 288)" stroke="#B1D5B6" stroke-width="3" stroke-linecap="round"/>
<line id="Line 32" x1="1.5" y1="-1.5" x2="369.275" y2="-1.5" transform="matrix(-0.957454 0.288585 0.288585 0.957454 357 299)" stroke="#B1D5B6" stroke-width="3" stroke-linecap="round"/>
<line id="Line 33" x1="1.5" y1="-1.5" x2="401.452" y2="-1.5" transform="matrix(-0.890926 0.454149 0.454149 0.890926 361 308)" stroke="#B1D5B6" stroke-width="3" stroke-linecap="round"/>
<line id="Line 34" x1="1.5" y1="-1.5" x2="338.654" y2="-1.5" transform="matrix(-0.717321 0.696743 0.696743 0.717321 371 323)" stroke="#B1D5B6" stroke-width="3" stroke-linecap="round"/>
<line id="Line 40" x1="379.322" y1="331.097" x2="213.097" y2="557.678" stroke="#B1D5B6" stroke-width="3" stroke-linecap="round"/>
<line id="Line 42" x1="388.7" y1="336.003" x2="282.003" y2="557.3" stroke="#B1D5B6" stroke-width="3" stroke-linecap="round"/>
<line id="Line 43" x1="400.037" y1="339.851" x2="338.851" y2="556.963" stroke="#B1D5B6" stroke-width="3" stroke-linecap="round"/>
<line id="Line 45" x1="411.356" y1="343.631" x2="391.631" y2="557.644" stroke="#B1D5B6" stroke-width="3" stroke-linecap="round"/>
<line id="Line 46" x1="423.613" y1="343.378" x2="440.378" y2="557.387" stroke="#B1D5B6" stroke-width="3" stroke-linecap="round"/>
<line id="Line 48" x1="1.5" y1="-1.5" x2="338.654" y2="-1.5" transform="matrix(0.717321 -0.696743 -0.696743 -0.717321 463 237)" stroke="#B1D5B6" stroke-width="3" stroke-linecap="round"/>
<line id="Line 49" x1="1.5" y1="-1.5" x2="280.752" y2="-1.5" transform="matrix(0.584585 -0.811333 -0.811333 -0.584585 454 229)" stroke="#B1D5B6" stroke-width="3" stroke-linecap="round"/>
<line id="Line 50" x1="1.5" y1="-1.5" x2="245.842" y2="-1.5" transform="matrix(0.4326 -0.901586 -0.901586 -0.4326 444 224)" stroke="#B1D5B6" stroke-width="3" stroke-linecap="round"/>
<line id="Line 51" x1="1.5" y1="-1.5" x2="226.107" y2="-1.5" transform="matrix(0.272399 -0.962184 -0.962184 -0.272399 431 220)" stroke="#B1D5B6" stroke-width="3" stroke-linecap="round"/>
<line id="Line 52" x1="368.879" y1="237.031" x2="127.031" y2="2.12109" stroke="#B1D5B6" stroke-width="3" stroke-linecap="round"/>
<line id="Line 53" x1="1.5" y1="-1.5" x2="282.516" y2="-1.5" transform="matrix(-0.591516 -0.806293 -0.806293 0.591516 379 231)" stroke="#B1D5B6" stroke-width="3" stroke-linecap="round"/>
<line id="Line 54" x1="1.5" y1="-1.5" x2="247.177" y2="-1.5" transform="matrix(-0.434299 -0.900769 -0.900769 0.434299 388 226)" stroke="#B1D5B6" stroke-width="3" stroke-linecap="round"/>
<line id="Line 55" x1="1.5" y1="-1.5" x2="227.069" y2="-1.5" transform="matrix(-0.271252 -0.962508 -0.962508 0.271252 399 222)" stroke="#B1D5B6" stroke-width="3" stroke-linecap="round"/>
<line id="Line 56" x1="1.5" y1="-1.5" x2="216.42" y2="-1.5" transform="matrix(-0.0917769 -0.99578 -0.99578 0.0917769 410 218)" stroke="#B1D5B6" stroke-width="3" stroke-linecap="round"/>
<line id="Line 57" x1="1.5" y1="-1.5" x2="216.165" y2="-1.5" transform="matrix(0.0781017 -0.996945 -0.996945 -0.0781017 422 218)" stroke="#B1D5B6" stroke-width="3" stroke-linecap="round"/>
<line id="Line 35" x1="1.5" y1="-1.5" x2="436.715" y2="-1.5" transform="matrix(-0.830643 0.556805 0.556805 0.830643 366 316)" stroke="#B1D5B6" stroke-width="3" stroke-linecap="round"/>
<line id="Line 36" x1="1.5" y1="-1.5" x2="351.126" y2="-1.5" transform="matrix(-0.998225 -0.0595532 -0.0595532 0.998225 354 277)" stroke="#B1D5B6" stroke-width="3" stroke-linecap="round"/>
<line id="Line 37" x1="1.5" y1="-1.5" x2="363.534" y2="-1.5" transform="matrix(-0.972511 -0.232855 -0.232855 0.972511 355 266)" stroke="#B1D5B6" stroke-width="3" stroke-linecap="round"/>
<line id="Line 38" x1="1.5" y1="-1.5" x2="387.697" y2="-1.5" transform="matrix(-0.917274 -0.398256 -0.398256 0.917274 357 256)" stroke="#B1D5B6" stroke-width="3" stroke-linecap="round"/>
<line id="Line 39" x1="1.5" y1="-1.5" x2="433.109" y2="-1.5" transform="matrix(-0.830632 -0.556822 -0.556822 0.830632 363 245)" stroke="#B1D5B6" stroke-width="3" stroke-linecap="round"/>
</g>
</g>
<defs>
<clipPath id="clip0_27_7">
<rect width="1440" height="6591" fill="white" transform="translate(-303 -359)"/>
</clipPath>
</defs>
</svg>
