<?xml version="1.0" encoding="utf-8"?>
<!-- Generator: Adobe Illustrator 16.0.0, SVG Export Plug-In . SVG Version: 6.00 Build 0)  -->
<!DOCTYPE svg PUBLIC "-//W3C//DTD SVG 1.1//EN" "http://www.w3.org/Graphics/SVG/1.1/DTD/svg11.dtd">
<svg version="1.1" id="Layer_1" xmlns="http://www.w3.org/2000/svg" xmlns:xlink="http://www.w3.org/1999/xlink" x="0px" y="0px"
	 width="1061.05px" height="249.338px" viewBox="0 0 1061.05 249.338" enable-background="new 0 0 1061.05 249.338"
	 xml:space="preserve">
<path id="eyefillL" fill="#FEFFDE" stroke="#000000" stroke-miterlimit="10" d="M111.777,5.729
	C76.514,17.335,22.666,44.625,5.283,109.224c-16.98,63.101,12,128.494,74.997,137.493s112.608-9.859,142.493-71.496
	c28.894-59.595,13.486-125.995-12-148.493C193.567,11.541,157.666-9.375,111.777,5.729z"/>
<path id="eyefillR" fill="#FEFFDE" stroke="#000000" stroke-miterlimit="10" d="M936.666,16.625c-13.914,2.36-82.126,19.161-96,92
	c-12,63,25.832,116.264,79.871,134.833c37.129,12.759,103.193,4.757,131.129-55.833C1077.679,131.204,1048.666-2.375,936.666,16.625
	z"/>
</svg>
