<?xml version="1.0" encoding="utf-8"?>
<!-- Generator: Adobe Illustrator 16.0.0, SVG Export Plug-In . SVG Version: 6.00 Build 0)  -->
<!DOCTYPE svg PUBLIC "-//W3C//DTD SVG 1.1//EN" "http://www.w3.org/Graphics/SVG/1.1/DTD/svg11.dtd">
<svg version="1.1" id="Layer_1" xmlns="http://www.w3.org/2000/svg" xmlns:xlink="http://www.w3.org/1999/xlink" x="0px" y="0px"
	 width="1058.227px" height="180.534px" viewBox="0 0 1058.227 180.534" enable-background="new 0 0 1058.227 180.534"
	 xml:space="preserve">
<path id="mouthfill" fill="#FEFFDE" d="M520.079,1.036C421.08,1.735,142.097,25.034,2.605,95.53c0,0,257.986,84.863,534.244,83.996
	c238.4-0.748,376.006-29.998,518.703-88.604C1055.552,90.923,823.063-1.103,520.079,1.036z"/>
<path id="mouthoutline" d="M1055.92,89.993c-0.568-0.227-57.941-22.766-150.969-45.006C817.166,24,678.356-1.079,520.072,0.036
	C467.208,0.409,371.356,7.073,276.38,21.12C193.341,33.401,78.36,56.125,2.154,94.64L0,95.728l2.292,0.754
	c0.639,0.211,65.021,21.256,162.125,42.025c37.715,8.068,83.756,16.787,135.016,24.182c0.007,0.129,0.012,0.217,0.012,0.217
	l12.665,1.568c67.436,9.273,143.188,16.059,220.526,16.061c1.418,0,2.799-0.002,4.216-0.006
	c117.655-0.369,211.525-7.559,295.414-22.621c77.204-13.865,146.186-34.238,223.667-66.061l2.294-0.941L1055.92,89.993z
	 M751.005,17.893c-1.003,57.705-13.578,142.797-14.861,151.354c-52.982,5.408-110.844,8.383-176.155,9.113V2.297
	C629.014,3.683,693.62,9.782,751.005,17.893z M124.988,53.083v74.534C59.861,112.341,15.602,98.622,5.242,95.327
	C39.62,78.252,81.658,64.336,124.988,53.083z M164.866,136.56c-8.912-1.906-17.542-3.814-25.878-5.709V49.538
	c47.992-11.781,96.729-20.381,137.685-26.438c7.471-1.104,14.945-2.164,22.405-3.178c-5.435,24.089-0.583,124.423,0.25,140.73
	C248.29,153.278,202.441,144.595,164.866,136.56z M536.845,178.528c-1.416,0.004-2.795,0.006-4.209,0.006
	c-74.894-0.002-148.304-6.373-214.099-15.205c-8.771-22.332-4.599-137.26-4.291-145.41C396.116,7.417,474.271,2.36,520.084,2.036
	c3.493-0.023,6.933-0.037,10.405-0.037c5.191,0,10.358,0.031,15.504,0.086c1.672,145.877-3.07,171.875-4.568,176.42
	C539.897,178.511,538.382,178.522,536.845,178.528z M831.912,155.938c-25.789,4.631-52.529,8.514-80.613,11.684
	c8.537-27.586,13.338-139.797,13.668-147.695c54.297,8.14,101.638,17.951,139.479,26.997c12.704,3.037,24.738,6.078,36.056,9.068
	c0.706,67.131,0.516,73.868,0.49,74.413C905.291,140.853,869.581,149.173,831.912,155.938z M951.988,127.116V59.075
	c55.562,15.143,91.621,28.379,100.854,31.877C1018.042,105.173,984.935,117.073,951.988,127.116z"/>
</svg>
