<?xml version="1.0" encoding="utf-8"?>
<!-- Generator: Adobe Illustrator 16.0.0, SVG Export Plug-In . SVG Version: 6.00 Build 0)  -->
<!DOCTYPE svg PUBLIC "-//W3C//DTD SVG 1.1//EN" "http://www.w3.org/Graphics/SVG/1.1/DTD/svg11.dtd">
<svg version="1.1" id="Layer_1" xmlns="http://www.w3.org/2000/svg" xmlns:xlink="http://www.w3.org/1999/xlink" x="0px" y="0px"
	 width="1418.812px" height="531.71px" viewBox="0 0 1418.812 531.71" enable-background="new 0 0 1418.812 531.71"
	 xml:space="preserve">
<path id="nose" fill="#1F2D43" d="M724,145.292c21.13,0,55.768,2.819,84.001,9.333c19.999,4.615,72.667,20.933,2.667,39.333
	c0,0,1.388-11.332-7.668-11.333c-17.666,0-29.001,22.711-79,23c-59.999,0.346-66.666-23-76-23c-13.039,0-21.999,3.333-19.999,11.333
	c0,0-39.001-3.467-35.001-18.4S674.667,145.292,724,145.292z"/>
<path id="whiskerRT" fill="#1F2D43" d="M1418.5,246.625c0,0-82,25.125-197.25,63.25c-4.035,1.336-4.083-5.082-1.75-6.082
	c92.621-39.701,111.042-46.222,198.75-70.167L1418.5,246.625z"/>
<path id="whiskerRB" fill="#1F2D43" d="M1290.5,364.625c0,0,68.5-17.75,127.875-15.998l0.438,11.203
	c0,0-55.312,1.938-128.312,11.607C1284.169,372.277,1290.5,364.625,1290.5,364.625z"/>
<path id="whiskerLT" fill="#1F2D43" d="M1,229.125c0,0,123,37.5,177,74.75c0,0,2.167,4.25-1.917,4S81,264.125,1,241.625V229.125z"/>
<path id="whiskerLB" fill="#1F2D43" d="M0,350.556c0,0,40.375-4.432,113.875,13.568c0,0,3.562,4,0.062,6.5
	c0,0-3.844-0.25-21.094-1.75S9,361.875,0,362.625V350.556z"/>
</svg>
