<?xml version="1.0" encoding="utf-8"?>
<!-- Generator: Adobe Illustrator 16.0.0, SVG Export Plug-In . SVG Version: 6.00 Build 0)  -->
<!DOCTYPE svg PUBLIC "-//W3C//DTD SVG 1.1//EN" "http://www.w3.org/Graphics/SVG/1.1/DTD/svg11.dtd">
<svg version="1.1" id="Layer_1" xmlns="http://www.w3.org/2000/svg" xmlns:xlink="http://www.w3.org/1999/xlink" x="0px" y="0px"
	 width="781.053px" height="224.683px" viewBox="0 0 781.053 224.683" enable-background="new 0 0 781.053 224.683"
	 xml:space="preserve">
<path id="ro" fill-rule="evenodd" clip-rule="evenodd" fill="#feffda" d="M663.398,39.745c2.581,1.342,5.639,2.152,7.557,4.092
	c3.962,4.002,7.431,8.518,10.879,12.994c2.12,2.753,4.431,4.252,8.064,3.661c14.605-2.372,29.212-4.749,43.859-6.835
	c4.56-0.649,7.486-2.709,9.853-6.604c6.051-9.962,8.542-10.298,15.627-1.249c6.558,8.376,12.301,17.388,18.439,26.094
	c4.203,5.963,4.453,12.6,0.918,18.404c-6.563,10.781-7.181,23.044-10.091,34.732c-3.011,12.097-5.5,24.327-8.701,36.37
	c-1.315,4.95-0.916,8.925,2.13,13.086c5.789,7.911,9.308,16.521,6.471,26.64c-1.364,4.868-3.704,6.586-8.449,4.758
	c-17.863-6.883-36.555-6.506-55.184-6.572c-4.119-0.015-8.229,1.146-12.366,1.501c-3.559,0.306-5.259,2.335-6.267,5.474
	c-1.118,3.48-2.364,6.922-3.646,10.347c-1.771,4.728-5.449,7.253-10.278,7.468c-4.887,0.218-8.717-2.74-9.787-7.138
	c-1.785-7.337-3.347-14.946-3.395-22.45c-0.223-34.633,1.142-69.312-0.277-103.883c-0.55-13.398-6.638-26.657-10.86-39.768
	c-1.344-4.173-0.507-5.898,3.126-7.111C654.929,42.448,658.862,41.212,663.398,39.745z M741.09,109.677
	c-0.301-0.019-0.602-0.037-0.902-0.057c0-7.299,0.33-14.619-0.115-21.891c-0.297-4.836-3.74-7.732-8.557-7.119
	c-12.68,1.618-25.315,3.613-37.929,5.703c-3.585,0.594-5.801,2.904-5.778,6.981c0.132,24.598,0.111,49.196,0.32,73.794
	c0.05,5.926,1.508,7.002,7.364,6.424c9.432-0.93,18.852-1.989,28.277-2.99c9.555-1.016,10.991-2.24,12.075-11.762
	C737.708,142.412,739.354,126.04,741.09,109.677z"/>
<path id="to2" fill-rule="evenodd" clip-rule="evenodd" fill="#feffda" d="M585.053,136.349c0,19.304,0.342,38.617-0.175,57.908
	c-0.196,7.338-1.86,14.76-3.789,21.891c-1.621,5.992-6.804,8.326-12.792,8.527c-5.677,0.191-9.299-3.314-10.908-8.021
	c-3.381-9.887-6.169-19.988-8.809-30.104c-0.578-2.218,0.363-4.886,0.809-7.31c1.439-7.818,3.932-15.574,4.295-23.434
	c1.179-25.455,1.791-50.941,2.221-76.422c0.274-16.268,0.377-32.576-0.514-48.807c-0.42-7.648-3.008-15.292-11.01-19.359
	c-1.607-0.816-2.654-2.737-3.959-4.148c1.539-1.174,2.962-2.557,4.637-3.482c4.809-2.656,9.747-1.681,14.514,0.113
	c11.311,4.256,22.13,9.688,29.794,19.199c2.058,2.554,2.086,8.6,0.543,11.855c-4.971,10.483-5.688,21.447-5.944,32.63
	c-0.095,4.165-0.281,8.327-0.334,12.491c-0.069,5.486,1.179,6.621,6.527,7.25c6.264,0.737,12.516,1.656,18.721,2.781
	c12.298,2.23,20.739,10.324,29.219,18.78c10.282,10.255,10.866,21.7,6.193,34.333c-2.855,7.723-13.025,9.65-19.396,8.06
	c-1.951-0.487-3.67-3.308-4.788-5.433c-2.164-4.113-3.86-8.477-5.688-12.763c-5.74-13.457-13.373-25.679-23.771-36.038
	c-1.296-1.291-3.351-1.818-5.054-2.699c-0.696,1.912-1.965,3.816-1.994,5.74c-0.185,12.152-0.094,24.309-0.094,36.464
	C584.022,136.351,584.538,136.349,585.053,136.349z"/>
<path id="to1" fill-rule="evenodd" clip-rule="evenodd" fill="#feffda" d="M478.795,127.592c0.482,22.976,1.26,45.952,1.249,68.928
	c-0.003,6.128-1.966,12.399-3.856,18.343c-1.787,5.619-6.913,7.457-12.35,7.648c-5.076,0.178-8.881-2.797-10.389-7.26
	c-3.451-10.209-6.289-20.629-9.174-31.019c-0.464-1.669-0.35-3.808,0.283-5.421c5.158-13.181,5.127-27.055,5.426-40.822
	c0.742-34.289,1.081-68.586,1.795-102.876c0.223-10.656-3.634-19.016-11.949-25.595c-4.898-3.874-4.349-5.332,1.412-8.023
	c4.875-2.276,9.529-1.807,13.9,0.421c8.577,4.372,17.221,8.745,25.273,13.983c7.657,4.98,7.992,10.191,4.508,18.547
	c-2.373,5.69-3.696,11.96-4.564,18.102c-1.092,7.728-1.292,15.586-1.781,23.393c-0.423,6.76,0.879,8.387,7.575,8.951
	c12.534,1.055,24.839,3.045,35.659,9.94c13.813,8.801,21.93,20.979,19.607,37.957c-0.642,4.687-3,9.591-5.873,13.418
	c-5.132,6.839-14.193,6.259-18.975-0.811c-2.307-3.409-4.113-7.243-5.616-11.093c-5.817-14.898-13.877-28.343-25.279-39.631
	c-1.409-1.395-3.625-1.972-5.467-2.928c-0.595,1.957-1.669,3.904-1.703,5.871c-0.175,9.99-0.081,19.984-0.081,29.979
	C478.549,127.593,478.672,127.593,478.795,127.592z"/>
<path id="_x3000_TO" fill-rule="evenodd" clip-rule="evenodd" fill="#feffda" d="M5.865,194.813
	c-2.188-2.931-4.677-7.898-5.273-11.855c-2.103-13.948,1.419-26.893,10.273-37.91c4.259-5.299,9.528-9.818,14.57-14.439
	c2.052-1.881,3.713-3.562,2.081-6.315c-4.557-7.686-4.656-16.237-4.661-24.703c-0.005-8.142,0.355-16.312,1.113-24.417
	c0.747-7.984-1.729-14.314-7.75-19.492c-1.239-1.066-1.971-2.721-2.937-4.105c1.616-1.079,3.118-2.449,4.885-3.143
	c1.301-0.512,3.116-0.578,4.417-0.087c8.038,3.034,15.39,6.549,21.836,13.072c7.509,7.598,3.172,14.548,2.305,22.069
	c-0.835,7.246-1.47,14.549-1.582,21.837c-0.089,5.85,2.446,7.028,7.656,4.438c8.335-4.146,16.522-8.677,25.128-12.165
	c8.609-3.49,16.97,2.502,17.595,11.791c0.75,11.148-2.137,15.793-12.979,18.594c-18.288,4.726-35.945,11.075-52.679,19.776
	c-5.371,2.793-10.417,6.478-14.991,10.466c-5.461,4.762-6.338,11.43-3.938,17.916c2.264,6.115,7.554,8.644,14.009,9.674
	c16.519,2.634,32.455-0.098,48.282-4.388c8.428-2.284,10.407-0.969,16.651,5.153c4.372,4.288,5.889,8.598,5.044,14.145
	c-1.097,7.201-8.259,13.644-16.555,14.791c-5.422,0.75-10.903,1.07-18.333,1.77c-9.141-1.196-21.098,0.641-31.085-4.135
	C22.327,209.983,10.083,200.462,5.865,194.813z"/>
<path id="NO" fill-rule="evenodd" clip-rule="evenodd" fill="#feffda" d="M416.495,135.817c0.481-12.891-0.635-24.578-5.518-35.641
	c-3.056-6.924-7.482-12.699-14.8-15.396c-2.114-0.779-4.728-0.203-7.113-0.248c0.133,2.061-0.163,4.264,0.47,6.156
	c3.009,8.991,2.512,18.15,0.966,27.166c-4.306,25.103-12.61,48.965-24.215,71.582c-3.042,5.928-7.489,11.371-12.205,16.133
	c-4.337,4.378-8.982,3.44-11.877-2.055c-2.445-4.639-4.59-9.793-5.279-14.932c-1.851-13.81-3.974-27.737-3.909-41.608
	c0.084-18.069,4.706-35.435,16.547-49.729c11.549-13.941,25.974-22.882,45.012-21.344c15.669,1.267,25.254,10.901,31.669,24.231
	c8.092,16.812,9.768,34.778,8.309,53.093c-1.256,15.773-4.961,30.923-13.996,44.24c-9.353,13.784-21.813,23.144-38.615,25.923
	c-1.99,0.329-3.996,0.568-5.994,0.849c1.543-1.353,3.065-2.729,4.632-4.054c14.22-12.016,24.327-26.9,29.904-44.595
	C414.641,162.399,417.411,148.856,416.495,135.817z M338.875,152.882c2.043,5.63,3.57,10.885,5.874,15.772
	c1.267,2.688,3.84,4.759,5.824,7.108c2.144-2.354,5.003-4.365,6.319-7.114c10.96-22.907,18.987-46.823,23.178-71.903
	c0.507-3.033-1.188-6.436-1.863-9.668c-2.747,1.244-5.987,1.924-8.157,3.824c-10.788,9.453-17.367,21.809-22.397,34.946
	C344.287,134.64,341.799,143.769,338.875,152.882z"/>
<path id="RI" fill-rule="evenodd" clip-rule="evenodd" fill="#feffda" d="M324.74,116.12c-0.538,21.164-2.87,41.915-11.019,61.572
	c-7.902,19.064-21.794,32.375-40.748,40.432c-2.694,1.145-5.456,2.133-8.186,3.193c1.95-2.043,3.869-4.115,5.854-6.122
	c8.364-8.456,13.735-18.731,18.028-29.654c7-17.809,10.743-36.259,11.023-55.419c0.216-14.775,0.867-29.551,0.78-44.323
	c-0.029-4.874-1.257-9.905-2.824-14.566c-2.502-7.444-8.587-8.796-12.866-2.288c-5.05,7.678-8.983,16.236-12.398,24.812
	c-6.867,17.241-6.535,35.476-6.15,53.652c0.154,7.303-3.714,12.084-9.791,12.836c-5.343,0.662-8.516-2.229-10.75-6.449
	c-3.966-7.488-4.618-15.771-3.828-23.866c1.789-18.33,4.339-36.585,6.552-54.874c1.056-8.723,2.671-17.45-0.685-26.088
	c-1.022-2.631,0.356-2.713,2.534-2.119c12.662,3.447,19.689,15.203,17.226,28.621c-1.165,6.349-2.08,12.755-2.765,19.172
	c-0.173,1.626,0.966,3.393,1.503,5.094c1.154-1.488,2.641-2.824,3.405-4.492c3.257-7.102,6.1-14.399,9.505-21.426
	c1.724-3.556,4.26-6.732,6.542-10.002c6.932-9.932,21.659-9.234,27.891,1.832c3.847,6.831,6.666,14.574,8.258,22.257
	C323.741,97.114,323.851,106.698,324.74,116.12z"/>
<g id="NA">
	<path fill-rule="evenodd" clip-rule="evenodd" fill="#feffda" d="M188.653,147.808c0,4.33,0.248,8.68-0.065,12.988
		c-0.366,5.04,1.767,7.801,6.215,10.127c11.235,5.877,18.53,14.633,17.628,28.209c-0.15,2.262-0.775,4.631-1.756,6.676
		c-3.148,6.56-8.198,7.591-13.625,2.848c-2.249-1.965-4.144-4.33-6.292-6.418c-2.371-2.303-4.242-2.046-5.796,1.086
		c-10.403,20.962-34.391,24.523-50.305,7.515c-10.393-11.107-7.632-30.877,6.367-39.445c5.747-3.517,12.837-5.261,19.556-6.652
		c7.491-1.552,7.948-1.536,8.77-9.337c0.539-5.113,1.307-10.263,2.626-15.223c2.925-10.994,11.346-16.861,21.08-21.158
		c10.919-4.82,11.135-5.498,2.401-13.914c-2.141-2.063-4.694-3.699-7.059-5.53c-1.909-1.478-1.929-2.496,0.583-3.321
		c14.805-4.862,38.547,1.045,41.409,22.219c0.365,2.702,0.084,5.664-0.629,8.307c-2.702,10.006-10.295,12.159-18.012,5.338
		c-3.116-2.754-6.178-5.598-9.503-8.081c-6.305-4.71-12.279-2.131-13.472,5.796c-0.444,2.949-0.385,5.98-0.456,8.977
		c-0.07,2.996-0.015,5.996-0.015,8.995C188.418,147.807,188.536,147.807,188.653,147.808z M165.75,179.157
		c-0.69-0.822-1.701-3.172-2.923-3.287c-5.996-0.57-12.07-0.479-17.134,3.576c-4.504,3.605-4.691,9.111,0.104,12.158
		c3.686,2.342,8.042,3.791,12.282,4.993c1.153,0.327,3.895-1.378,4.308-2.665C163.809,189.518,164.519,184.875,165.75,179.157z"/>
	<path fill-rule="evenodd" clip-rule="evenodd" fill="#feffda" d="M96.965,160.014c0.478-6.884,2.497-13.978,8.624-20.628
		c7.581-8.227,13.164-18.303,19.546-27.623c1.951-2.85,1.424-5.203-2.148-6c-12.642-2.82-16.111-12.692-18.268-23.564
		c-0.196-0.988,0.325-2.119,0.513-3.184c0.825,0.428,1.698,0.783,2.468,1.295c8.5,5.644,18.021,5.299,27.501,4.32
		c1.636-0.168,3.707-2.402,4.412-4.15c2.231-5.537,4.087-11.246,5.75-16.985c1.57-5.417-1.087-9.683-4.486-13.602
		c-2.982-3.438-2.759-4.665,1.767-4.837c3.658-0.14,7.437,1.081,11.045,2.109c2.2,0.627,4.271,1.883,6.24,3.113
		c10.248,6.4,12.742,10.481,6.281,20.903c-1.363,2.199-1.627,5.079-2.398,7.646c2.647-0.509,5.281-1.33,7.944-1.435
		c2.402-0.096,5.417-0.195,7.15,1.08c6.082,4.479,5.8,13.547-0.032,19.287c-5.857,5.764-13.564,6.986-21.057,8.154
		c-5.244,0.816-8.275,3.157-10.564,7.783c-7.757,15.667-15.693,31.25-23.833,46.721c-2.143,4.074-5.015,7.848-8.013,11.365
		c-3.182,3.734-7.511,4.965-12.226,3.107c-4.679-1.844-5.953-5.934-6.207-10.504C96.918,163.391,96.965,162.389,96.965,160.014z"/>
</g>
</svg>
