<svg width="1440" height="1024" viewBox="0 0 1440 1024" fill="none" xmlns="http://www.w3.org/2000/svg">
<rect width="1440" height="1024" fill="white"/>
<g clip-path="url(#clip0_1_2)">
<path d="M1152.81 361.21C1152.81 361.21 1180.17 357.07 1202.47 340.06C1224.77 323.05 1231.9 310.63 1237.88 312.01C1243.86 313.39 1242.36 339.64 1221.78 359.38C1193.5 386.51 1157.17 392.26 1157.17 392.26L1152.8 361.22L1152.81 361.21Z" fill="#FEBC78"/>
<path d="M1157.64 342.13L1205.69 381.44L1200.63 389.72L1154.42 352.01L1157.64 342.13Z" fill="#63605E"/>
<path d="M1061.07 524.92C1061.07 524.92 1027.96 542.85 990.25 533.2C952.54 523.54 912.53 473.42 918.05 402.14C923.57 330.86 967.71 230.15 900.57 221.41C900.57 221.41 932.3 209.45 962.19 221.41C992.08 233.37 1031.63 258.66 1034.85 328.56C1038.07 398.46 998.06 419.14 998.06 464.22C998.06 503.31 1025.65 516.64 1063.82 507.91L1061.06 524.92H1061.07Z" fill="#FEBC78"/>
<path d="M1029.85 295.05C1031.04 300.32 1032.95 332.47 1024.16 334.37C1015.37 336.27 1011.23 304.71 1011.23 304.71C1011.23 304.71 1012.26 335.75 1005.71 336.96C999.16 338.17 998.29 314.71 998.29 314.71C998.29 314.71 998.29 351.1 986.91 351.79C975.53 352.48 976.74 314.71 976.74 314.71C976.74 314.71 974.5 342.3 966.22 342.82C957.94 343.34 959.84 317.47 959.84 317.47C959.84 317.47 957.94 344.03 949.32 343.16C940.7 342.3 948.11 309.36 948.11 309.36C948.11 309.36 942.76 333.67 935.52 333.67C928.28 333.67 936.38 297.46 936.55 277.28C936.72 257.1 936.89 226.75 899.99 221.75C899.99 221.75 902.92 218.82 922.58 215.71C942.24 212.61 968.28 219.16 993.11 237.44C1017.94 255.72 1027.08 282.79 1029.84 295.04L1029.85 295.05Z" fill="#FCDFAE"/>
<path d="M938.46 231.24C936.21 232.92 941.16 237.51 942.25 236.24C943.4 234.91 939.84 230.2 938.46 231.24Z" fill="white"/>
<path d="M944.15 245.21C941.98 245.83 943.92 252.91 946.22 252.34C948.52 251.77 945.76 244.75 944.15 245.21Z" fill="white"/>
<path d="M950.24 257.51C952.52 256.75 954.15 263.83 951.62 264.29C949.09 264.75 948.52 258.08 950.24 257.51Z" fill="white"/>
<path d="M946.79 272.34C949.39 271.79 950.24 279.7 947.48 279.7C944.72 279.7 944.61 272.8 946.79 272.34Z" fill="white"/>
<path d="M953.92 285.56C956.8 285.74 957.02 294.41 953.81 294.07C950.59 293.73 952.09 285.45 953.92 285.56Z" fill="white"/>
<path d="M943.34 292.12C946.87 292.58 945.64 300.51 942.77 299.82C939.9 299.13 940.7 291.77 943.34 292.12Z" fill="white"/>
<path d="M940.93 353.39C944.03 353.72 942.31 362.93 939.9 362.47C937.49 362.01 938.75 353.16 940.93 353.39Z" fill="white"/>
<path d="M931.04 364.31C933.99 365.29 932.42 372.24 930.01 371.44C927.6 370.64 928.98 363.62 931.04 364.31Z" fill="white"/>
<path d="M936.21 379.37C939.3 379.86 937.24 388.22 934.72 387.3C932.19 386.38 934.03 379.02 936.21 379.37Z" fill="white"/>
<path d="M930.58 394.78C933.56 394.61 931.73 402.48 929.55 401.79C927.37 401.1 928.52 394.89 930.58 394.78Z" fill="white"/>
<path d="M938.28 405.13C940.66 405.73 939.31 413.06 937.13 412.14C934.95 411.22 936.44 404.67 938.28 405.13Z" fill="white"/>
<path d="M932.31 422.6C935.25 422.08 935.18 430.53 932.54 430.65C929.9 430.76 930.36 422.95 932.31 422.6Z" fill="white"/>
<path d="M940.01 436.51C942.54 435.83 943.57 443.41 941.39 443.98C939.21 444.55 938.29 436.97 940.01 436.51Z" fill="white"/>
<path d="M936.1 451.11C933.03 452.89 936.9 460.54 939.32 459.27C941.73 458.01 938.29 449.84 936.1 451.11Z" fill="white"/>
<path d="M947.25 472.73C944.86 475.12 948.28 481.47 950.81 480.09C953.34 478.71 948.86 471.12 947.25 472.73Z" fill="white"/>
<path d="M956.22 494.34C954.09 496.8 958.75 501.47 960.7 500.32C962.65 499.17 957.71 492.62 956.22 494.34Z" fill="white"/>
<path d="M967.71 493.88C966.36 496.13 970.93 500.66 972.88 499.28C974.83 497.9 968.74 492.15 967.71 493.88Z" fill="white"/>
<path d="M980.25 512.85C978.8 515.92 985.08 518.25 986.34 516.53C987.6 514.81 981.17 510.9 980.25 512.85Z" fill="white"/>
<path d="M1002.55 513.88C1002.36 516.92 993.58 514.22 994.39 511.47C995.19 508.71 1002.67 512.04 1002.55 513.88Z" fill="white"/>
<path d="M1012.09 522.74C1012.25 526.07 1004.5 524.35 1005.31 521.48C1006.11 518.61 1011.98 520.33 1012.09 522.74Z" fill="white"/>
<path d="M1043.65 600.11C1043.65 600.11 1039.17 611.66 1035.03 624.25C1030.89 636.84 1031.75 642.7 1038.31 649.94C1044.86 657.18 1054 661.15 1056.93 658.39C1059.86 655.63 1052.27 643.04 1052.96 640.28C1053.65 637.52 1067.62 615.1 1069.51 610.79C1071.41 606.48 1043.64 600.1 1043.64 600.1L1043.65 600.11Z" fill="#FEBC78"/>
<path d="M1190.92 605.45C1190.92 605.45 1205.23 620.28 1214.89 628.56C1224.55 636.84 1229.38 629.08 1234.38 625.28C1239.38 621.49 1243.69 617.86 1241.28 614.59C1238.87 611.31 1226.45 615.97 1223.17 612.52C1219.89 609.07 1207.82 589.93 1207.82 589.93L1190.92 605.45Z" fill="#FEBC78"/>
<path d="M1059.92 465.6C1059.92 465.6 1113.03 475.26 1177.87 465.14C1177.87 465.14 1187.76 512.28 1196.26 542.4C1204.77 572.52 1215.8 598.04 1215.8 598.04L1189.13 615.74C1189.13 615.74 1162 583.32 1155.79 571.13C1155.79 571.13 1118.77 577.8 1090.03 575.73C1090.03 575.73 1073.25 618.04 1069.8 623.33C1069.8 623.33 1044.74 617.81 1035.77 610.45C1035.77 610.45 1053.93 483.53 1059.91 465.59L1059.92 465.6Z" fill="#EDB83B"/>
<path d="M1110.93 515.11C1111.17 515.21 1111.4 515.29 1111.61 515.37C1111.81 515.4 1112 515.42 1112.19 515.45C1112.57 515.48 1112.91 515.52 1113.27 515.53C1113.97 515.58 1114.69 515.55 1115.37 515.48C1116.27 515.34 1117.1 515 1117.8 514.52C1118.46 513.96 1119.07 513.37 1119.49 512.6C1120.41 511.1 1120.83 509.26 1121.09 507.42C1121.27 505.57 1121.33 503.62 1121.4 501.65C1121.59 496.03 1121.78 490.4 1121.96 484.78C1122.06 481.56 1122.25 478.34 1122.43 475.13C1122.53 473.24 1122.97 471.72 1123.5 470.4C1123.81 469.61 1124.34 469.87 1124.43 470.92C1124.54 472.28 1124.61 473.69 1124.59 475.08C1124.43 483.82 1124.15 492.55 1123.71 501.29L1123.51 505.21C1123.39 506.56 1123.28 507.91 1122.96 509.27C1122.67 510.62 1122.2 511.98 1121.47 513.26C1120.72 514.53 1119.57 515.71 1118.09 516.35C1117.07 516.81 1115.93 516.98 1114.75 516.85C1114.16 516.79 1113.56 516.66 1112.94 516.43C1112.3 516.15 1111.73 516.02 1110.93 515.12V515.11Z" fill="#63605E"/>
<path d="M1187.36 506.32C1186.24 507.07 1184.63 507.32 1183.06 507.22C1182.02 507.2 1180.95 507.16 1179.89 506.99C1179.36 506.92 1178.81 506.85 1178.28 506.75L1176.68 506.35C1172.37 505.21 1168.26 503.1 1164.69 500.31C1159.57 496.29 1155.66 490.92 1152.85 485.15C1151.23 481.84 1150.07 478.34 1149.19 474.8C1148.69 472.71 1148.72 470.92 1148.99 469.37C1149.16 468.47 1149.72 468.67 1150.01 469.77C1150.42 471.21 1150.84 472.69 1151.25 474.14C1153.8 483.29 1158.44 492.11 1165.73 498.21C1170.08 501.81 1175.32 504.24 1180.83 505.37C1182.74 505.79 1184.69 506.09 1187.36 506.33V506.32Z" fill="#63605E"/>
<path d="M1091.28 468.9C1091.96 470.12 1092.06 471.8 1091.91 473.44C1091.75 475.6 1091.44 477.85 1090.8 480.05C1089.5 484.47 1087.51 488.82 1084.65 492.58C1080.61 498.01 1075 502.22 1068.83 504.91C1065.28 506.43 1061.54 507.43 1057.76 507.97C1055.53 508.29 1053.67 508.05 1052.11 507.6C1051.2 507.31 1051.49 506.79 1052.65 506.64C1054.17 506.43 1055.74 506.13 1057.29 505.87C1062.16 505.01 1066.93 503.45 1071.25 501.06C1075.55 498.66 1079.47 495.51 1082.49 491.61C1084.31 489.3 1085.84 486.76 1087.08 484.09C1088.28 481.4 1089.21 478.59 1089.94 475.72C1090.16 474.71 1090.39 473.71 1090.63 472.61C1090.84 471.51 1091.03 470.3 1091.26 468.91L1091.28 468.9Z" fill="#63605E"/>
<path d="M1087.45 534.81C1090.92 534.81 1089.86 543.43 1087.33 542.97C1084.8 542.51 1084.92 534.81 1087.45 534.81Z" fill="white"/>
<path d="M1109.47 485.26C1112.94 485.26 1111.88 493.88 1109.36 493.42C1106.83 492.96 1106.95 485.26 1109.47 485.26Z" fill="white"/>
<path d="M1063.65 522.97C1066.9 522.21 1066.18 531.36 1063.42 531.02C1060.66 530.68 1061.7 523.43 1063.65 522.97Z" fill="white"/>
<path d="M1065.43 483.99C1068.68 483.23 1067.96 492.38 1065.2 492.04C1062.44 491.7 1063.48 484.45 1065.43 483.99Z" fill="white"/>
<path d="M1068.89 555.1C1072.45 554.8 1071.35 564.64 1068.29 563.93C1065.23 563.22 1066.1 555.33 1068.89 555.1Z" fill="white"/>
<path d="M1053.02 573.38C1056.05 573.68 1054.28 581.08 1051.64 580.39C1049 579.7 1050.72 573.15 1053.02 573.38Z" fill="white"/>
<path d="M1067.79 589.13C1071.2 589.9 1068.48 597.87 1065.84 596.95C1063.2 596.03 1065.27 588.56 1067.79 589.13Z" fill="white"/>
<path d="M1049.68 599.65C1052.53 600.53 1049.91 607.58 1047.5 606.55C1045.09 605.52 1046.7 598.73 1049.68 599.65Z" fill="white"/>
<path d="M1111.54 545.04C1114.76 545.17 1114.76 554.47 1111.54 554.12C1108.32 553.78 1108.78 544.92 1111.54 545.04Z" fill="white"/>
<path d="M1143.04 549.18C1139.92 550.17 1141.43 559.18 1144.76 558.38C1148.09 557.58 1145.56 548.38 1143.04 549.18Z" fill="white"/>
<path d="M1135.39 518.54C1138.27 518.43 1137.8 525.9 1135.62 525.9C1133.44 525.9 1132.4 518.66 1135.39 518.54Z" fill="white"/>
<path d="M1157.98 519.86C1161.42 519.6 1161.43 527.68 1158.32 527.33C1155.22 526.99 1154.99 520.09 1157.98 519.86Z" fill="white"/>
<path d="M1144.19 494.97C1147.63 494.71 1147.64 502.79 1144.54 502.44C1141.44 502.1 1141.21 495.2 1144.19 494.97Z" fill="white"/>
<path d="M1174.77 523.54C1178.21 523.23 1179.25 531.24 1176.61 531.24C1173.97 531.24 1172.24 523.77 1174.77 523.54Z" fill="white"/>
<path d="M1166.6 544.75C1169.6 543.05 1171.31 551.19 1169.36 552.11C1167.41 553.03 1163.96 546.25 1166.6 544.75Z" fill="white"/>
<path d="M1093.81 509.75C1097.17 508.97 1096.52 517.26 1094.38 517.59C1092.25 517.92 1090.85 510.44 1093.81 509.75Z" fill="white"/>
<path d="M1169.71 479.14C1173.07 478.36 1172.42 486.65 1170.28 486.98C1168.15 487.31 1166.75 479.83 1169.71 479.14Z" fill="white"/>
<path d="M1184.08 552.28C1186.38 551.2 1190.06 558.14 1187.3 559.06C1184.54 559.98 1182.13 553.2 1184.08 552.28Z" fill="white"/>
<path d="M1171.37 570.79C1173.56 569.04 1176.89 575.16 1174.59 576.54C1172.29 577.92 1169.65 572.17 1171.37 570.79Z" fill="white"/>
<path d="M1189.19 573.89C1191.98 572.32 1195.17 578.26 1192.64 579.98C1190.11 581.7 1187.35 574.92 1189.19 573.89Z" fill="white"/>
<path d="M1188.91 594.13C1191.96 592.76 1193.97 598.5 1191.67 599.53C1189.37 600.56 1186.61 595.16 1188.91 594.13Z" fill="white"/>
<path d="M1178.5 467.95C1178.5 467.95 1136.02 478.47 1058.99 467.89L1087.73 324.87C1087.73 324.87 1136.71 326.02 1156.25 321.42C1156.25 321.42 1178.5 462.42 1178.5 467.94V467.95Z" fill="#5F9695"/>
<path d="M1063.48 445.02C1063.48 445.02 1098.03 449.22 1175.46 444.9L1173.97 435.36C1173.97 435.36 1125.68 440.07 1065.21 437.14L1063.49 445.02H1063.48Z" fill="#BAD2ED"/>
<path d="M1070.4 411.14C1070.4 411.14 1104.18 420.07 1170.74 414.38L1169.36 405.37C1169.36 405.37 1124.31 408.29 1072.23 401.74L1070.4 411.15V411.14Z" fill="#BAD2ED"/>
<path d="M1079.81 365C1079.81 365 1088.6 369.57 1122.12 370.17C1133.05 370.37 1150.06 369.94 1163.51 367.64L1165 377.64C1165 377.64 1118.44 383.96 1077.51 375.34L1079.81 364.99V365Z" fill="#BAD2ED"/>
<path d="M1086.47 329.13C1086.47 329.13 1103.14 349.71 1174.88 345.23L1157.98 320.4C1157.98 320.4 1118.32 325.92 1087.28 324.37L1086.48 329.14L1086.47 329.13Z" fill="#EDB83B"/>
<path d="M1086.85 326.69C1086.85 326.69 1056.5 322.81 1044.6 331.86C1044.6 331.86 1052.36 339.28 1064.17 337.38C1075.98 335.48 1086.85 326.69 1086.85 326.69Z" fill="#EDB83B"/>
<path d="M1055.63 356.52C1055.63 356.52 1067.18 354.88 1076.41 345.74C1085.64 336.6 1087.45 326.68 1087.45 326.68C1087.45 326.68 1075.68 332.12 1066.07 340.56C1059 346.77 1055.64 356.51 1055.64 356.51L1055.63 356.52Z" fill="#EDB83B"/>
<path d="M1286.97 326.95H1366.64C1374.23 326.95 1431.48 354.89 1430.79 429.73C1430.1 504.57 1376.99 521.82 1365.95 522.85C1354.91 523.88 1283.18 522.85 1283.18 522.85L1286.97 326.95Z" fill="#63605E"/>
<path d="M1336.12 511.81L1394.92 509.74L1354.57 491.81L1336.12 511.81Z" fill="white"/>
<path d="M1368.02 462.67L1417.86 484.39L1354.57 491.81L1368.02 462.67Z" fill="white"/>
<path d="M1373.02 428L1429.07 448.35L1368.02 462.67L1373.02 428Z" fill="white"/>
<path d="M1372.68 397.14L1429.76 413.52L1373.02 428L1372.68 397.14Z" fill="white"/>
<path d="M1363.71 367.82L1421.31 380.58L1372.68 397.14L1363.71 367.82Z" fill="white"/>
<path d="M1347.67 346.61L1402.86 351.61L1363.02 367.99L1347.67 346.61Z" fill="white"/>
<path d="M1310.94 327.98L1382.68 333.85L1344.22 347.99L1310.94 327.98Z" fill="white"/>
<path d="M1284.21 326.6C1318.36 325.66 1375.61 334.36 1380.09 423.39C1384.57 512.42 1318.35 524.56 1282.48 524.23C1246.61 523.89 1191.77 508.72 1192.12 430.81C1192.46 352.91 1235.23 327.95 1284.21 326.6Z" fill="#63605E"/>
<path d="M1248.77 247.49L1230.4 323.66L1233.09 324.3L1251.01 247.89L1248.77 247.49Z" fill="#4B5555"/>
<path d="M1242.96 232.849L1239.16 254.123L1256.81 257.27L1260.61 235.996L1242.96 232.849Z" fill="#4B5555"/>
<path d="M1150.51 227.16C1150.51 227.16 1118.09 162.09 1113.26 163C1108.43 163.92 1102.91 213.58 1106.82 232.9L1150.51 227.15V227.16Z" fill="#FEBC78"/>
<path d="M1224.55 206.7C1224.55 206.7 1200.64 251.77 1160.17 275.68C1119.7 299.59 1067.05 281.89 1067.05 281.89C1067.05 281.89 1058.31 244.18 1054.4 219.81C1050.49 195.44 1050.03 181.64 1052.1 179.8C1054.17 177.96 1071.41 191.76 1085.21 207.39C1099.01 223.03 1102.45 231.3 1102.45 231.3C1102.45 231.3 1122.67 220.31 1155.1 222.1C1196.72 224.4 1224.54 206.69 1224.54 206.69L1224.55 206.7Z" fill="#FEBC78"/>
<path d="M1097.39 233.6C1097.76 235.46 1071.87 246.71 1067.96 246.71C1064.05 246.71 1055.08 189.92 1056.92 189.23C1058.76 188.54 1096.7 230.16 1097.39 233.61V233.6Z" fill="#FCDFAE"/>
<path d="M1032.55 266.25C1032.55 266.25 1077.94 297.97 1140.39 282.57C1188.91 270.61 1224.54 206.69 1224.54 206.69L1226.61 207.61C1226.61 207.61 1223.16 283.49 1177.86 311.77C1122.7 346.21 1050.25 317.75 1042.66 310.39C1042.66 310.39 1059.67 311.77 1066.34 309.7C1066.34 309.7 1047.26 304.41 1034.38 290.62C1034.38 290.62 1055.3 294.3 1064.73 293.15C1064.73 293.15 1045.42 291.54 1032.54 266.25H1032.55Z" fill="#FCDFAE"/>
<path d="M1099.45 251.77C1100.51 252.5 1101.08 253.6 1101.63 254.74C1102.36 256.22 1103.17 257.7 1103.94 259.19C1104.71 260.69 1105.6 262.13 1106.63 263.4C1107.66 264.65 1108.87 265.73 1110.21 266.24C1111.16 266.61 1112.17 266.69 1113.18 266.47C1114.2 266.24 1115.21 265.77 1115.99 265.12C1117.57 263.8 1118.34 261.6 1118.54 259.3C1118.77 256.65 1118.53 253.86 1118.02 251.12C1117.72 249.51 1117.73 248.13 1117.83 246.84C1117.88 246.07 1118.46 246.09 1118.86 246.98C1119.37 248.11 1119.81 249.33 1120.1 250.56C1120.55 252.5 1120.87 254.48 1120.98 256.51C1121.06 258.53 1120.97 260.62 1120.3 262.67C1119.97 263.69 1119.49 264.69 1118.82 265.58C1118.14 266.47 1117.26 267.22 1116.3 267.76C1114.42 268.85 1112 269.27 1109.81 268.53C1107.21 267.61 1105.46 265.59 1104.11 263.6C1102.76 261.56 1101.76 259.37 1100.95 257.14C1100.39 255.57 1099.94 254.01 1099.47 251.77H1099.45Z" fill="#4B5555"/>
<path d="M1108.54 288.978C1110.75 281.487 1106.46 273.626 1098.97 271.421C1091.48 269.216 1083.62 273.502 1081.41 280.993C1079.21 288.485 1083.49 296.346 1090.99 298.551C1098.48 300.755 1106.34 296.47 1108.54 288.978Z" fill="#FFB7A2"/>
<path d="M1190.05 193.02C1190.1 192.65 1190.13 192.19 1190.21 191.91C1190.39 191.35 1190.59 190.73 1190.79 190.44C1190.87 190.32 1191.04 190.88 1191.08 191.3C1191.13 191.92 1191.14 192.67 1191.1 193.4C1190.98 195.64 1190.87 197.89 1190.75 200.15C1190.51 204.68 1190.48 209.21 1190.88 213.7C1191 215.09 1191.14 216.48 1191.33 217.86C1191.51 219.24 1191.74 220.62 1192.05 221.98C1192.13 222.36 1192.08 222.98 1191.96 223.05C1191.85 223.12 1191.52 222.75 1191.39 222.38C1190.72 220.49 1190.19 218.51 1189.88 216.46C1189.33 212.87 1189.24 209.19 1189.31 205.56C1189.38 201.36 1189.72 197.17 1190.11 193H1190.04L1190.05 193.02Z" fill="#4B5555"/>
<path d="M1199.67 187.4C1199.79 186.99 1199.91 186.48 1200.05 186.18C1200.34 185.57 1200.66 184.92 1200.92 184.62C1201.03 184.5 1201.08 185.15 1201.04 185.63C1200.97 186.33 1200.82 187.17 1200.65 187.98C1200.09 190.47 1199.57 192.98 1199.07 195.5C1198.06 200.56 1197.31 205.67 1197.01 210.79C1196.91 212.38 1196.83 213.97 1196.81 215.57C1196.77 217.16 1196.78 218.76 1196.86 220.35C1196.88 220.79 1196.72 221.48 1196.6 221.53C1196.48 221.59 1196.21 221.1 1196.15 220.67C1195.81 218.42 1195.6 216.11 1195.61 213.76C1195.63 209.64 1196.1 205.49 1196.76 201.41C1197.51 196.69 1198.56 192.03 1199.75 187.41H1199.68L1199.67 187.4Z" fill="#4B5555"/>
<path d="M1206.75 189.67C1206.88 189.29 1207 188.81 1207.14 188.54C1207.43 187.98 1207.76 187.38 1208.02 187.11C1208.13 187 1208.18 187.62 1208.12 188.06C1208.04 188.72 1207.89 189.51 1207.7 190.27C1207.11 192.6 1206.52 194.94 1205.92 197.28C1204.69 201.98 1203.55 206.71 1202.42 211.44C1201.69 214.37 1200.96 217.31 1200.23 220.24C1200.13 220.65 1199.79 221.22 1199.66 221.24C1199.53 221.25 1199.4 220.74 1199.46 220.33C1199.76 218.21 1200.06 216.06 1200.52 213.92C1201.32 210.15 1202.28 206.38 1203.25 202.63C1204.36 198.3 1205.55 193.98 1206.8 189.68H1206.73L1206.75 189.67Z" fill="#4B5555"/>
<path d="M1164.95 282.52C1165.2 282.43 1165.5 282.29 1165.71 282.27C1166.14 282.23 1166.61 282.18 1166.88 282.27C1166.99 282.3 1166.72 282.66 1166.47 282.84C1166.11 283.11 1165.64 283.39 1165.17 283.61C1163.71 284.3 1162.25 284.99 1160.76 285.63C1157.77 286.92 1154.77 288.21 1151.74 289.44C1149.86 290.2 1147.94 290.87 1146.03 291.54C1145.76 291.63 1145.29 291.6 1145.22 291.49C1145.15 291.38 1145.36 291.05 1145.6 290.92C1146.87 290.24 1148.15 289.54 1149.5 288.96C1151.87 287.93 1154.29 286.99 1156.68 286L1164.98 282.58L1164.95 282.52Z" fill="#4B5555"/>
<path d="M1169.08 288.47C1169.34 288.29 1169.63 288.05 1169.85 287.96C1170.3 287.77 1170.8 287.56 1171.11 287.54C1171.24 287.54 1171.02 287.98 1170.79 288.25C1170.46 288.65 1170.01 289.09 1169.55 289.48C1168.12 290.67 1166.69 291.87 1165.21 293.04C1162.25 295.37 1159.28 297.7 1156.27 299.98C1154.4 301.39 1152.46 302.73 1150.54 304.07C1150.27 304.26 1149.76 304.38 1149.66 304.3C1149.56 304.22 1149.72 303.81 1149.96 303.6C1151.19 302.48 1152.42 301.34 1153.75 300.29C1156.09 298.44 1158.5 296.66 1160.88 294.84L1169.12 288.54L1169.07 288.49L1169.08 288.47Z" fill="#4B5555"/>
<path d="M1174.15 292.93C1174.33 292.7 1174.52 292.39 1174.69 292.24C1175.04 291.93 1175.43 291.6 1175.71 291.49C1175.83 291.45 1175.78 291.92 1175.66 292.24C1175.49 292.71 1175.22 293.24 1174.92 293.73C1173.99 295.24 1173.01 296.75 1171.95 298.2C1169.82 301.11 1167.55 303.94 1165.1 306.61C1163.58 308.27 1161.93 309.81 1160.26 311.31C1160.02 311.52 1159.55 311.69 1159.44 311.62C1159.33 311.55 1159.43 311.14 1159.62 310.91C1160.65 309.71 1161.65 308.46 1162.73 307.26C1164.64 305.17 1166.55 303.05 1168.34 300.85C1170.41 298.31 1172.37 295.67 1174.21 292.96L1174.15 292.93Z" fill="#4B5555"/>
<path d="M1211.4 248.58C1211.4 248.21 1211.36 247.77 1211.4 247.49C1211.48 246.92 1211.54 246.29 1211.68 245.97C1211.73 245.83 1212.04 246.32 1212.15 246.74C1212.33 247.34 1212.46 248.09 1212.52 248.83C1212.66 251.09 1212.64 253.43 1211.89 255.71C1211.74 256.29 1211.43 256.83 1211.18 257.38C1210.82 257.89 1210.52 258.44 1210.02 258.86C1209.6 259.35 1209 259.63 1208.45 259.97C1207.83 260.14 1207.24 260.43 1206.57 260.45C1205.24 260.61 1203.79 260.01 1202.89 259.05C1201.98 258.09 1201.42 256.96 1201.01 255.82C1200.02 252.98 1199.84 250.05 1199.84 247.17C1199.84 246.76 1200.05 246.16 1200.18 246.12C1200.31 246.09 1200.53 246.54 1200.57 246.92C1200.76 248.91 1201.1 250.91 1201.53 252.88C1201.92 254.59 1202.45 256.33 1203.44 257.68C1203.93 258.35 1204.58 258.84 1205.31 259.06C1206.04 259.28 1206.87 259.17 1207.62 258.89C1207.85 258.85 1208.05 258.74 1208.24 258.61C1208.43 258.49 1208.64 258.39 1208.83 258.25C1209.15 257.91 1209.53 257.65 1209.77 257.22C1210.35 256.48 1210.67 255.52 1210.96 254.59C1211.45 252.66 1211.56 250.6 1211.47 248.57H1211.4V248.58Z" fill="#4B5555"/>
<path d="M1233.97 204.22C1233.97 208.82 1230.24 212.55 1225.63 212.55C1221.02 212.55 1217.3 208.82 1217.3 204.22C1217.3 199.62 1221.03 195.88 1225.63 195.88C1230.23 195.88 1233.97 199.61 1233.97 204.22Z" fill="#4B5555"/>
<path d="M1086.72 329.85L1203.16 416.62V424.44L1084.7 339.97L1086.72 329.85Z" fill="#63605E"/>
<path d="M1284.37 334.88C1315.84 334.01 1368.59 342.03 1372.72 424.07C1376.85 506.11 1315.83 517.3 1282.78 516.99C1249.73 516.68 1199.19 502.69 1199.51 430.91C1199.83 359.12 1239.24 336.13 1284.37 334.88Z" fill="#CCC6C5"/>
<path d="M1279.27 388.11L1220.64 440.08L1222.48 442.14L1280.88 389.72L1279.27 388.11Z" fill="#4B5555"/>
<path d="M1282.87 372.751L1267.59 388.031L1280.26 400.71L1295.54 385.429L1282.87 372.751Z" fill="#4B5555"/>
<path d="M1177.81 405.59C1191.28 415.13 1218.51 435.77 1225.58 440.77C1232.65 445.77 1231.27 452.5 1211.78 449.91C1192.29 447.32 1172.81 440.94 1147.46 423.53C1122.11 406.11 1122.91 388.31 1132.8 382.66C1140.04 378.52 1147.11 383.87 1177.81 405.6V405.59Z" fill="#FEBC78"/>
</g>
<g clip-path="url(#clip1_1_2)">
<path d="M953.65 416.39C953.54 416.17 953.36 415.92 953.33 415.73C953.26 415.33 953.19 414.89 953.26 414.61C953.29 414.49 953.71 414.66 953.93 414.84C954.26 415.11 954.6 415.48 954.88 415.88C955.74 417.09 956.61 418.3 957.42 419.56C959.05 422.08 960.68 424.61 962.24 427.17C963.21 428.76 964.07 430.43 964.94 432.08C965.06 432.31 965.04 432.77 964.93 432.87C964.81 432.97 964.42 432.87 964.26 432.66C963.42 431.63 962.55 430.59 961.82 429.46C960.52 427.47 959.32 425.4 958.07 423.37C956.63 421.03 955.18 418.68 953.73 416.34C953.71 416.36 953.68 416.37 953.66 416.39H953.65Z" fill="#4B5555"/>
<path d="M938.97 424.43C938.86 424.21 938.68 423.96 938.65 423.77C938.58 423.37 938.51 422.93 938.58 422.65C938.61 422.53 939.03 422.7 939.25 422.88C939.58 423.15 939.92 423.52 940.2 423.92C941.06 425.13 941.93 426.34 942.74 427.6C944.37 430.12 946 432.65 947.56 435.21C948.53 436.8 949.39 438.47 950.26 440.12C950.38 440.35 950.36 440.81 950.25 440.91C950.13 441.01 949.74 440.91 949.58 440.7C948.74 439.67 947.87 438.63 947.14 437.5C945.84 435.51 944.64 433.44 943.39 431.41C941.95 429.07 940.5 426.72 939.05 424.38C939.03 424.4 939 424.41 938.98 424.43H938.97Z" fill="#4B5555"/>
<path d="M923.04 433.71C922.93 433.49 922.75 433.24 922.72 433.05C922.65 432.65 922.58 432.21 922.65 431.93C922.68 431.81 923.1 431.98 923.32 432.16C923.65 432.43 923.99 432.8 924.27 433.2C925.13 434.41 926 435.62 926.81 436.88C928.44 439.4 930.07 441.93 931.63 444.49C932.6 446.08 933.46 447.75 934.33 449.4C934.45 449.63 934.43 450.09 934.32 450.19C934.2 450.29 933.81 450.19 933.65 449.98C932.81 448.95 931.94 447.91 931.21 446.78C929.91 444.79 928.71 442.72 927.46 440.69C926.02 438.35 924.57 436 923.12 433.66C923.1 433.68 923.07 433.69 923.05 433.71H923.04Z" fill="#4B5555"/>
<path d="M906.96 443.54C906.85 443.32 906.67 443.07 906.64 442.88C906.57 442.48 906.5 442.04 906.57 441.76C906.6 441.64 907.02 441.81 907.24 441.99C907.57 442.26 907.91 442.63 908.19 443.03C909.05 444.24 909.92 445.45 910.73 446.71C912.36 449.23 913.99 451.76 915.55 454.32C916.52 455.91 917.38 457.58 918.25 459.23C918.37 459.46 918.35 459.92 918.24 460.02C918.12 460.12 917.73 460.02 917.57 459.81C916.73 458.78 915.86 457.74 915.13 456.61C913.83 454.62 912.63 452.55 911.38 450.52C909.94 448.18 908.49 445.83 907.04 443.49C907.02 443.51 906.99 443.52 906.97 443.54H906.96Z" fill="#4B5555"/>
<path d="M892.56 454.35C892.45 454.13 892.27 453.88 892.24 453.69C892.17 453.29 892.1 452.85 892.17 452.57C892.2 452.45 892.62 452.62 892.84 452.8C893.17 453.07 893.51 453.44 893.79 453.84C894.65 455.05 895.52 456.26 896.33 457.52C897.96 460.04 899.59 462.57 901.15 465.13C902.12 466.72 902.98 468.39 903.85 470.04C903.97 470.27 903.95 470.73 903.84 470.83C903.72 470.93 903.33 470.83 903.17 470.62C902.33 469.59 901.46 468.55 900.73 467.42C899.43 465.43 898.23 463.36 896.98 461.33C895.54 458.99 894.09 456.64 892.64 454.3C892.62 454.32 892.59 454.33 892.57 454.35H892.56Z" fill="#4B5555"/>
<path d="M958.89 410.92C962.58 416.03 951.69 423.53 948.08 418.54C944.48 413.55 955.28 405.93 958.89 410.92Z" fill="#4B5555"/>
<path d="M944.2 418.95C947.89 424.06 937 431.56 933.39 426.57C929.79 421.58 940.59 413.96 944.2 418.95Z" fill="#4B5555"/>
<path d="M928.27 428.23C931.96 433.34 921.07 440.84 917.46 435.85C913.86 430.86 924.66 423.24 928.27 428.23Z" fill="#4B5555"/>
<path d="M912.2 438.07C915.89 443.18 905 450.68 901.39 445.69C897.79 440.7 908.59 433.08 912.2 438.07Z" fill="#4B5555"/>
<path d="M897.79 448.88C901.48 453.99 890.59 461.49 886.98 456.5C883.38 451.51 894.18 443.89 897.79 448.88Z" fill="#4B5555"/>
<path d="M664.76 922.97C662.54 930.17 656.72 963.98 659.5 967.03C662.28 970.08 719.9 974.23 720.46 970.91C721.01 967.59 698.29 945.14 696.91 944.03C695.52 942.92 704.11 922.42 703.28 921.03C702.45 919.64 664.77 922.97 664.77 922.97H664.76Z" fill="#FEBC78"/>
<path d="M904.72 682.18C908.05 681.35 936.86 668.05 937.42 663.89C937.97 659.73 918.58 613.46 912.48 614.85C907.1 616.07 910.36 641.36 908.32 642.28C902.22 645.05 885.88 648.38 885.88 648.38L904.72 682.18Z" fill="#FEBC78"/>
<path d="M707.43 930.17C706.04 935.16 658.39 929.34 657.83 926.84C657.28 924.35 673.9 874.75 673.35 853.97C672.8 833.19 643.42 775 643.42 775C643.42 775 706.6 686.33 717.68 684.12C728.76 681.9 765.34 661.68 808.56 652.81C851.79 643.94 894.73 644.5 894.73 644.5C894.73 644.5 909.97 680.24 910.25 685.51C910.25 685.51 829.62 699.64 808.84 714.33C788.06 729.02 739.85 773.63 736.52 777.51C733.19 781.39 737.91 831.82 733.47 861.47C729.04 891.12 707.42 930.19 707.42 930.19L707.43 930.17Z" fill="#EDB83B"/>
<path d="M684.59 858.38C688.06 858.16 686.7 864.95 684 864.6C681.3 864.25 682.51 858.51 684.59 858.38Z" fill="white"/>
<path d="M714.36 859.65C717.57 860.25 715.88 868.38 712.97 867.41C710.06 866.44 712.14 859.24 714.36 859.65Z" fill="white"/>
<path d="M698.01 871.29C700.79 871.81 699.4 878.77 696.49 878.08C693.58 877.39 695.8 870.88 698.01 871.29Z" fill="white"/>
<path d="M679.72 884.87C683.36 885.96 680.97 892.63 677.92 891.94C674.87 891.25 676.95 884.04 679.72 884.87Z" fill="white"/>
<path d="M710.9 884.32C714.62 884.71 712.15 893.6 709.51 892.63C706.88 891.66 708.26 884.04 710.9 884.32Z" fill="white"/>
<path d="M691.22 896.92C694.38 897.62 692.19 904.4 689.56 903.71C686.93 903.02 688.73 896.37 691.22 896.92Z" fill="white"/>
<path d="M673.35 911.19C676.68 911.55 674.04 919.36 671.55 917.98C669.06 916.59 669.47 910.78 673.35 911.19Z" fill="white"/>
<path d="M699.81 912.02C702.61 912.17 700.92 920.19 698.29 919.22C695.66 918.25 697.18 911.88 699.81 912.02Z" fill="white"/>
<path d="M718.79 836.1C722.26 836.27 720.18 846.21 717.82 845.52C715.46 844.83 716.02 835.96 718.79 836.1Z" fill="white"/>
<path d="M698.98 847.88C702.04 846.98 701.2 855.36 698.7 855.08C696.21 854.8 696.62 848.57 698.98 847.88Z" fill="white"/>
<path d="M682.63 832.78C685.41 832.14 687.06 841.09 683.88 840.82C680.7 840.55 680.83 833.2 682.63 832.78Z" fill="white"/>
<path d="M702.17 824.6C705.66 824.08 706.33 832.77 703.14 832.91C699.95 833.05 699.4 825.01 702.17 824.6Z" fill="white"/>
<path d="M717.82 804.38C721.45 803.88 721.15 811.72 718.65 811.72C716.15 811.72 714.77 804.79 717.82 804.38Z" fill="white"/>
<path d="M706.6 785.67C709.25 784.35 711.31 791.9 708.54 792.6C705.77 793.29 704.38 786.78 706.6 785.67Z" fill="white"/>
<path d="M715.19 767.66C718.27 766.29 721.56 774.03 718.38 775C715.19 775.97 712.7 768.77 715.19 767.66Z" fill="white"/>
<path d="M696.07 757.41C698.78 756.19 701.47 762.95 698.84 764.2C696.21 765.45 693.3 758.66 696.07 757.41Z" fill="white"/>
<path d="M761.19 716.82C762.25 719.8 753.29 722.5 753.15 719.73C753.01 716.96 760.49 714.88 761.19 716.82Z" fill="white"/>
<path d="M773.52 727.76C775.38 730.24 767.98 734.83 766.45 732.47C764.93 730.11 771.85 725.54 773.52 727.76Z" fill="white"/>
<path d="M779.89 703.1C781.25 705.67 773.24 708.64 772.27 705.87C771.3 703.1 778.64 700.74 779.89 703.1Z" fill="white"/>
<path d="M778.5 676.78C780.22 679.87 772.4 682.74 771.02 680.24C769.63 677.75 777.12 674.28 778.5 676.78Z" fill="white"/>
<path d="M799.42 707.54C801.17 710.09 793.46 713.36 791.8 711C790.14 708.64 797.9 705.32 799.42 707.54Z" fill="white"/>
<path d="M796.93 688.42C797.63 691.9 791.11 693.27 789.86 691.19C788.61 689.11 796.51 686.34 796.93 688.42Z" fill="white"/>
<path d="M834.65 661.84C836.6 664.59 827.83 667.21 826.76 664.74C825.69 662.27 833.25 659.87 834.65 661.84Z" fill="white"/>
<path d="M822.7 678.86C824.47 681.95 818.27 683.02 817.3 680.94C816.33 678.86 821.59 676.92 822.7 678.86Z" fill="white"/>
<path d="M847.97 673.27C849.12 676.61 840.74 677.91 839.74 675.86C838.74 673.81 847.24 671.16 847.97 673.27Z" fill="white"/>
<path d="M807.4 669.39C808.78 672.64 800.51 674.52 799.37 672.54C798.23 670.56 806.53 667.33 807.4 669.39Z" fill="white"/>
<path d="M865.79 658.49C866.39 661.48 859.14 660.71 858.86 658.77C858.58 656.83 865.37 656.41 865.79 658.49Z" fill="white"/>
<path d="M890.31 656.41C891.23 660.32 883.24 659.74 882.83 657.52C882.41 655.3 889.76 654.06 890.31 656.41Z" fill="white"/>
<path d="M871.35 682.83C872.67 685.87 864.69 686.41 864.04 684.68C863.4 682.95 870.55 681.01 871.35 682.83Z" fill="white"/>
<path d="M868.68 670.26C869.58 673.65 863.19 674.4 862.15 672.21C861.12 670.02 867.96 667.58 868.68 670.26Z" fill="white"/>
<path d="M889.21 678.95C890.01 682.37 883.6 682.93 882.63 680.71C881.66 678.49 888.58 676.25 889.21 678.95Z" fill="white"/>
<path d="M847.6 687.67C848.54 691.05 842.16 691.88 841.1 689.71C840.04 687.54 846.85 685 847.6 687.67Z" fill="white"/>
<path d="M822.03 694.25C822.98 696.71 815.21 698.54 814.05 697.04C812.89 695.54 821.28 692.31 822.03 694.25Z" fill="white"/>
<path d="M895.71 669.3C895.55 671.99 889.06 672.35 888.51 670.13C887.96 667.91 895.85 666.94 895.71 669.3Z" fill="white"/>
<path d="M707.43 576.61C703.53 578.23 691.64 619 693.3 620.94C694.96 622.88 724.33 627.59 727.1 628.7C729.87 629.81 760.07 595.45 760.07 595.45C760.07 595.45 710.75 575.22 707.42 576.61H707.43Z" fill="#FEBC78"/>
<path d="M699.4 670.27C699.4 670.27 700.79 627.04 702.45 607.37C704.11 587.7 708.55 575.23 708.55 575.23L592.17 541.7C592.17 541.7 570.83 563.04 569.17 568.58C569.17 568.58 606.02 609.31 610.73 622.06C615.44 634.81 623.48 697.15 623.48 697.15L699.4 670.27Z" fill="#FEBC78"/>
<path d="M632.9 661.4C632.9 661.4 632.62 620.67 621.82 588.8C611.01 556.94 592.17 541.7 592.17 541.7C592.17 541.7 571.67 553.34 563.08 575.23C563.08 575.23 593.28 615.41 595.22 622.06C595.22 622.06 588.57 648.38 588.29 650.88C588.01 653.37 620.99 669.44 620.99 669.44L632.9 661.4Z" fill="#4B5555"/>
<path d="M667.81 563.87C667.81 563.87 655.34 623.72 668.09 665.84L699.95 663.07C699.95 663.07 703.27 596.29 709.37 576.07C709.37 576.07 677.51 563.88 667.81 563.88V563.87Z" fill="#4B5555"/>
<path d="M616.83 596.84C616.83 596.84 640.94 581.6 685.27 583.26C729.6 584.92 758.7 567.74 779.76 523.69C800.82 479.63 780.31 409.81 707.72 384.32C635.12 358.83 580.26 395.68 557.54 444.17C534.82 492.66 583.39 533.1 595.22 553.62C611.85 582.44 616.83 596.85 616.83 596.85V596.84Z" fill="#DE7D3F"/>
<path d="M638.16 547.24C655.62 555.46 660.33 545.3 688.31 542.53C716.3 539.76 727.1 533.94 736.25 515.65C745.39 497.36 738.47 455.52 691.09 431.69C643.71 407.86 609.35 432.24 598.54 451.92C587.73 471.59 604.36 497.92 614.61 512.05C624.86 526.18 624.03 540.59 638.16 547.24Z" fill="#FEBC78"/>
<path d="M702.03 435.78C702.03 435.78 684.99 489.33 681.11 497.08C681.11 497.08 651.46 486.27 648.69 483.78C648.69 483.78 667.74 440.14 681.04 426.01C681.04 426.01 694.82 429.96 702.03 435.78Z" fill="#DE7D3F"/>
<path d="M681.11 497.09C682.61 500.44 673.49 510.25 657.7 504.71C641.91 499.17 646.06 484.48 649.39 483.65C652.72 482.82 678.76 491.82 681.12 497.09H681.11Z" fill="#4B5555"/>
<path d="M666.94 520.1C665.94 520.31 664.92 520.54 663.81 521.06C661.91 521.92 659.89 522.46 657.86 522.63C656.09 522.8 654.28 522.69 652.55 522.24C652.18 522.15 651.79 522.04 651.41 521.92C651.57 521.58 651.71 521.25 651.85 520.93C652.69 518.89 653.47 516.82 654.35 514.8C655.82 511.41 657.34 508.04 658.82 504.65C659.06 504.11 659.21 503.53 659.34 502.96C659.44 502.52 659.04 502.23 658.65 502.43C658 502.76 657.4 503.21 657.02 503.92C656.38 505.13 655.73 506.33 655.17 507.58C654.2 509.76 653.25 511.96 652.37 514.17C651.75 515.72 651.22 517.3 650.72 518.89C650.48 519.68 650.37 520.51 650.29 521.32C650.29 521.39 650.29 521.45 650.28 521.52C650.2 521.49 650.1 521.46 650.02 521.43L648.71 520.86L647.58 520.22C645.45 518.98 643.63 517.16 642.31 515.01C641.65 513.95 641.03 512.84 640.5 511.69C640.11 510.79 639.73 509.96 638.92 509.18C638.99 511.09 639.28 512.32 639.71 513.59C640.93 517.19 643.52 520.26 646.8 522.16C649.44 523.7 652.54 524.77 655.68 524.85C658.83 524.98 662.01 524.23 664.78 522.76C665.66 522.29 666.48 521.68 667.19 520.99C667.77 520.42 667.53 519.96 666.95 520.1H666.94Z" fill="#4B5555"/>
<path d="M626.11 490.51C626.11 491.54 625.27 492.38 624.24 492.38C623.21 492.38 622.37 491.54 622.37 490.51C622.37 489.48 623.21 488.64 624.24 488.64C625.27 488.64 626.11 489.48 626.11 490.51Z" fill="#4B5555"/>
<path d="M629.09 498.68C629.09 499.71 628.25 500.55 627.22 500.55C626.19 500.55 625.35 499.71 625.35 498.68C625.35 497.65 626.19 496.81 627.22 496.81C628.25 496.81 629.09 497.65 629.09 498.68Z" fill="#4B5555"/>
<path d="M634.56 489.4C634.56 490.43 633.72 491.27 632.69 491.27C631.66 491.27 630.82 490.43 630.82 489.4C630.82 488.37 631.66 487.53 632.69 487.53C633.72 487.53 634.56 488.37 634.56 489.4Z" fill="#4B5555"/>
<path d="M678.13 514.55C678.13 515.58 677.29 516.42 676.26 516.42C675.23 516.42 674.39 515.58 674.39 514.55C674.39 513.52 675.23 512.68 676.26 512.68C677.29 512.68 678.13 513.52 678.13 514.55Z" fill="#4B5555"/>
<path d="M681.11 522.72C681.11 523.75 680.27 524.59 679.24 524.59C678.21 524.59 677.37 523.75 677.37 522.72C677.37 521.69 678.21 520.85 679.24 520.85C680.27 520.85 681.11 521.69 681.11 522.72Z" fill="#4B5555"/>
<path d="M686.58 513.44C686.58 514.47 685.74 515.31 684.71 515.31C683.68 515.31 682.84 514.47 682.84 513.44C682.84 512.41 683.68 511.57 684.71 511.57C685.74 511.57 686.58 512.41 686.58 513.44Z" fill="#4B5555"/>
<path d="M638.99 438.21C639.48 441.55 624.58 446.11 623.75 441.95C622.92 437.79 638.3 433.5 638.99 438.21Z" fill="#4B5555"/>
<path d="M623.76 452.29C624.1 453.43 623.93 454.56 623.74 455.72C623.51 457.23 623.33 458.78 623.22 460.32C622.95 463.4 623.43 466.6 625.36 468.67C626.71 470.14 628.77 471.04 630.78 471.29C632.81 471.54 634.85 470.92 636.63 469.75C638.69 468.43 640.47 466.54 641.99 464.46C642.88 463.24 643.8 462.36 644.71 461.57C645.24 461.09 645.6 461.47 645.27 462.33C644.85 463.41 644.31 464.5 643.65 465.48C641.59 468.55 638.9 471.48 635.15 472.91C633.27 473.61 631.18 473.63 629.25 473.2C627.33 472.72 625.56 471.76 624.08 470.38C622.36 468.64 621.5 466.23 621.31 463.94C621.1 461.63 621.41 459.36 621.95 457.2C622.34 455.68 622.83 454.25 623.75 452.28L623.76 452.29Z" fill="#4B5555"/>
<path d="M717.66 493.27C718.06 494.3 717.7 495.5 717.23 496.58C716.6 498.02 715.85 499.5 714.77 500.79C713.67 502.07 712.48 503.35 710.94 504.27C709.43 505.17 707.66 505.92 705.77 505.88C703.06 505.91 700.58 504.75 698.58 503.11C696.53 501.42 695.3 498.8 695.07 496.24C694.75 493.28 695.49 490.45 696.5 487.87C697.11 486.34 698 485.29 698.92 484.52C699.47 484.08 699.78 484.49 699.48 485.28C699.09 486.31 698.73 487.4 698.36 488.45C697.19 491.73 696.62 495.37 697.79 498.44C698.93 501.47 702.23 503.53 705.42 503.83C707.35 503.93 709.26 503.16 710.88 501.95C712.51 500.74 713.9 499.15 715.11 497.44C715.94 496.25 716.79 495 717.66 493.26V493.27Z" fill="#4B5555"/>
<path d="M720.19 473.39C717.35 475.22 723.73 489.43 727.41 487.32C731.09 485.21 724.19 470.81 720.19 473.39Z" fill="#4B5555"/>
<path d="M656.59 426.57C656.59 426.57 652.85 397.06 629.16 401.36C605.47 405.65 614.61 437.24 614.61 437.24L656.59 426.57Z" fill="#FEBC78"/>
<path d="M708.73 447.42C708.73 447.42 730.53 427.18 745.95 445.67C761.37 464.16 734.1 482.53 734.1 482.53L708.74 447.42H708.73Z" fill="#FEBC78"/>
<path d="M680.42 438.8C682.67 439.92 677.93 447.84 676.37 447.11C674.81 446.38 678.55 437.86 680.42 438.8Z" fill="white"/>
<path d="M686.65 458.33C688.9 459.45 684.16 467.37 682.6 466.64C681.04 465.91 684.78 457.39 686.65 458.33Z" fill="white"/>
<path d="M689.04 435.37C691.45 436.48 687.17 445.76 685.4 444.51C683.63 443.26 687.69 434.74 689.04 435.37Z" fill="white"/>
<path d="M676.78 462.18C679.19 463.29 674.91 472.57 673.14 471.32C671.37 470.07 675.43 461.55 676.78 462.18Z" fill="white"/>
<path d="M673.04 451.99C675.45 453.1 671.17 462.38 669.4 461.13C667.63 459.88 671.69 451.36 673.04 451.99Z" fill="white"/>
<path d="M682.73 450.24C684.58 451.19 681 457.19 679.24 456.96C677.48 456.74 680.46 449.07 682.73 450.24Z" fill="white"/>
<path d="M692.01 444.28C694.45 445.18 689.96 455.16 687.73 454.21C685.5 453.26 690.35 443.67 692.01 444.28Z" fill="white"/>
<path d="M665.14 467.48C667.37 468.41 662.33 477.25 660.46 476.31C658.59 475.37 662.64 466.44 665.14 467.48Z" fill="white"/>
<path d="M672.52 475.27C674.52 476.16 669.82 485.45 668.05 484.62C666.28 483.79 670.65 474.44 672.52 475.27Z" fill="white"/>
<path d="M682.39 472.67C684.1 473.52 679.48 483.79 677.4 482.85C675.32 481.91 680.93 471.94 682.39 472.67Z" fill="white"/>
<path d="M697.87 416.67C699.95 417.87 696.21 425.92 694.13 424.46C692.05 423.01 695.9 415.52 697.87 416.67Z" fill="white"/>
<path d="M701.09 397.86C703.49 398.84 700.57 406.69 698.39 405.24C696.21 403.79 698.81 396.93 701.09 397.86Z" fill="white"/>
<path d="M676.99 388.09C679.6 388.64 676.68 397.86 674.39 396.92C672.1 395.98 675.01 387.67 676.99 388.09Z" fill="white"/>
<path d="M655.06 389.96C658.56 390.46 655.58 399.73 653.5 399C651.42 398.27 652.88 389.65 655.06 389.96Z" fill="white"/>
<path d="M664.52 407.63C666.78 408.33 664.31 417.4 661.82 416.05C659.33 414.7 661.82 406.8 664.52 407.63Z" fill="white"/>
<path d="M680.21 410.64C682.75 411.82 680.21 419.58 677.4 417.91C674.59 416.24 678.65 409.91 680.21 410.64Z" fill="white"/>
<path d="M635.42 386.32C637.6 386.56 637.29 394.94 634.59 394.53C631.89 394.11 633.55 386.11 635.42 386.32Z" fill="white"/>
<path d="M616.83 395.05C619.32 394.68 619.12 402.95 616.62 402.53C614.13 402.11 614.75 395.36 616.83 395.05Z" fill="white"/>
<path d="M598.54 410.95C595.9 412.44 599.48 418.22 601.66 417.08C603.84 415.94 600.21 410.01 598.54 410.95Z" fill="white"/>
<path d="M598.64 424.67C595.52 426.54 600.3 433.92 603 432.05C605.7 430.18 600.71 423.43 598.64 424.67Z" fill="white"/>
<path d="M581.5 422.28C579.99 423.79 585.24 430.7 587.42 429.24C589.6 427.79 583.06 420.72 581.5 422.28Z" fill="white"/>
<path d="M589.08 439.01C587.25 440.49 592.82 447.63 594.8 445.76C596.77 443.89 591.27 437.24 589.08 439.01Z" fill="white"/>
<path d="M569.65 442.12C567.59 444.18 575.47 448.35 576.82 446.59C578.17 444.82 571.11 440.67 569.65 442.12Z" fill="white"/>
<path d="M586.28 462.8C586.51 465.5 577.86 464.77 577.86 462.28C577.86 459.79 586.07 460.31 586.28 462.8Z" fill="white"/>
<path d="M587 476.83C587.14 479.22 578.17 479.22 577.96 476.93C577.75 474.64 586.9 475.06 587 476.83Z" fill="white"/>
<path d="M570.9 472.88C570.43 475.23 563 475.06 562.9 472.78C562.8 470.49 571.21 471.33 570.9 472.88Z" fill="white"/>
<path d="M574.33 486.91C575.76 489.58 566.85 491.79 566.02 489.4C565.19 487.01 573.5 485.35 574.33 486.91Z" fill="white"/>
<path d="M593.24 489.61C594.15 492.35 584.62 495.32 584.3 492.31C583.99 489.3 592.61 487.74 593.24 489.61Z" fill="white"/>
<path d="M580.67 501.56C582.06 503.87 574.33 507.17 573.4 504.78C572.46 502.39 579.74 500 580.67 501.56Z" fill="white"/>
<path d="M601.03 504.26C601.92 506.05 593.34 509.14 592.82 507.07C592.3 504.99 599.99 502.19 601.03 504.26Z" fill="white"/>
<path d="M592.51 516.73C593.51 519.88 586.48 521.51 585.76 519.33C585.03 517.15 591.79 514.45 592.51 516.73Z" fill="white"/>
<path d="M611.84 520.78C612.94 522.99 605.4 526.81 604.15 524.62C602.9 522.44 610.7 518.49 611.84 520.78Z" fill="white"/>
<path d="M608.41 540.42C609.84 543.03 601.24 545.72 600.51 544.06C599.78 542.4 607.26 538.35 608.41 540.42Z" fill="white"/>
<path d="M623.68 541.56C624.9 544.53 617.24 547.48 616.3 545.4C615.36 543.32 622.74 539.27 623.68 541.56Z" fill="white"/>
<path d="M614.85 556.11C616.6 559.02 609.45 560.79 608.72 559.12C607.99 557.46 613.29 553.51 614.85 556.11Z" fill="white"/>
<path d="M626.18 569.2C628.52 570.45 623.17 579.9 620.67 577.93C618.18 575.96 624.62 568.37 626.18 569.2Z" fill="white"/>
<path d="M633.55 554.76C635.88 555.92 631.47 563.07 629.6 561.83C627.73 560.58 631.68 553.83 633.55 554.76Z" fill="white"/>
<path d="M648.21 567.02C644.45 567.81 646.13 576.06 648.73 575.85C651.33 575.64 650.18 566.6 648.21 567.02Z" fill="white"/>
<path d="M660.05 551.85C657.13 552.41 658.39 560.47 660.78 560.06C663.17 559.64 662.75 551.33 660.05 551.85Z" fill="white"/>
<path d="M672.1 567.33C669.32 567.81 669.5 576.27 672.93 576.16C676.36 576.06 674.49 566.91 672.1 567.33Z" fill="white"/>
<path d="M680.94 551.64C678.25 552.02 679.38 560.58 681.46 560.47C683.54 560.37 683.12 551.33 680.94 551.64Z" fill="white"/>
<path d="M701.93 546.45C697.18 547.37 700.06 556.94 703.59 556.63C707.12 556.32 705.15 545.82 701.93 546.45Z" fill="white"/>
<path d="M703.48 567.64C700.51 567.77 702.03 576.89 704.83 576.37C707.64 575.85 705.77 567.54 703.48 567.64Z" fill="white"/>
<path d="M726.34 556.94C723.09 557.51 726.24 565.98 729.04 565.04C731.85 564.1 728.73 556.52 726.34 556.94Z" fill="white"/>
<path d="M727.9 539.59C724.77 540.52 728.52 549.36 731.12 548.32C733.72 547.28 730.7 538.76 727.9 539.59Z" fill="white"/>
<path d="M743.59 536.05C740.51 537.59 747.12 546.54 749.1 544.67C751.07 542.8 745.88 534.9 743.59 536.05Z" fill="white"/>
<path d="M745.05 513.09C743.44 515.57 748.79 519.84 750.76 518.08C752.73 516.31 746.4 511.01 745.05 513.09Z" fill="white"/>
<path d="M760.53 506.23C758.7 509.16 767.08 514.23 769.36 512.26C771.65 510.29 762.09 503.74 760.53 506.23Z" fill="white"/>
<path d="M752.94 482.85C754.23 485.24 748.16 489.29 746.91 486.9C745.66 484.51 752.21 481.5 752.94 482.85Z" fill="white"/>
<path d="M770.63 469.85C771.47 472.13 763.01 476.18 762.51 473.42C762.01 470.66 770.01 468.16 770.63 469.85Z" fill="white"/>
<path d="M760.01 445.97C762.67 448.06 755.65 454.18 754.19 451.89C752.74 449.6 758.55 444.82 760.01 445.97Z" fill="white"/>
<path d="M752.32 425.5C754.78 427.71 747.54 433.19 746.5 430.9C745.46 428.61 751.28 424.56 752.32 425.5Z" fill="white"/>
<path d="M736.73 425.39C738.31 427.89 730.18 433.39 728.52 431.94C726.86 430.49 735.48 423.42 736.73 425.39Z" fill="white"/>
<path d="M718.55 419.47C721.01 421.23 714.91 428.3 712.63 426.22C710.34 424.14 717.1 418.43 718.55 419.47Z" fill="white"/>
<path d="M720.11 403.68C721.66 405.74 716.06 411.99 713.77 410.23C711.48 408.46 718.86 402.02 720.11 403.68Z" fill="white"/>
<path d="M676.05 750.41C676.05 750.41 696.62 797.58 698.29 804.44C698.29 804.44 657.97 832.29 650.28 832.7L635.32 795.09L676.05 750.41Z" fill="#4B5555"/>
<path d="M694.34 722.78C694.96 723.2 728.63 752.5 731.12 752.5C733.61 752.5 753.98 686.21 751.07 670.83C751.07 670.83 731.33 677.9 711.38 685.58L685.4 715.71L694.34 722.78Z" fill="#4B5555"/>
<path d="M701.99 655.88C704.22 658.48 744.34 678.87 754.42 683.91C764.5 688.95 770.75 696.01 760.27 699.24C749.78 702.47 708.85 711.54 707.03 713.36C705.21 715.17 655.61 786.96 646.33 800.27C637.05 813.58 617.09 840.2 611.04 838.99C604.99 837.78 599.14 789.59 596.32 773.05C593.5 756.51 594.86 751.97 582.61 747.04C567.09 740.77 512.84 716.78 511.03 710.93C509.22 705.08 603.99 670.2 622.14 663.54C640.29 656.89 652.19 645.79 660.25 634.91C668.32 624.02 687.67 589.74 693.12 590.55C698.51 591.35 699.57 653.06 701.99 655.89V655.88Z" fill="#5F9695"/>
<path d="M589.58 700.81C592.43 704.13 595.76 707.81 599.34 712.03C602.88 716.24 606.69 720.78 610.51 725.32C615.5 731.31 620.57 737.41 625.7 743.58C628.26 746.68 630.83 749.77 633.37 752.96L633.85 753.57C633.99 753.74 634.21 754.14 634.3 754.39C634.5 754.96 634.59 755.5 634.64 756.03C634.75 757.09 634.77 758.13 634.75 759.16C634.72 761.22 634.58 763.27 634.44 765.31C634.15 769.42 633.78 773.52 633.66 777.61C633.61 779.65 633.59 781.7 633.8 783.69C633.89 784.69 634.07 785.66 634.35 786.55C634.61 787.44 635.16 788.19 635.62 788.31C635.68 788.39 636.47 788.01 636.98 787.57C637.55 787.13 638.11 786.62 638.64 786.09C639.72 785.03 640.76 783.89 641.77 782.73C643.8 780.41 645.73 777.99 647.65 775.55C651.47 770.66 655.16 765.65 658.81 760.61C666.1 750.51 673.21 740.26 680.26 729.97L690.69 714.63L693.29 710.79L694.6 708.87L695.27 707.9L695.48 707.62C695.61 707.49 695.74 707.32 695.88 707.24C696.14 707.04 696.33 706.94 696.54 706.83C698.11 706.06 699.57 705.64 701.07 705.15C702.56 704.68 704.06 704.25 705.55 703.83L723.46 698.95C726.43 698.12 729.4 697.27 732.32 696.32C733.78 695.85 735.22 695.35 736.62 694.79C737.31 694.51 738 694.21 738.62 693.88C738.92 693.73 739.26 693.5 739.4 693.4C739.4 693.4 739.47 693.46 739.31 693.32C739.09 693.13 738.84 692.93 738.56 692.74C738.01 692.36 737.42 692 736.82 691.64C735.61 690.94 734.36 690.27 733.1 689.62C730.57 688.33 727.99 687.09 725.41 685.88C720.23 683.46 715.01 681.11 709.79 678.75C704.57 676.37 699.35 674.03 694.2 671.4C692.91 670.72 691.64 670.06 690.36 669.2C690.04 668.98 689.72 668.76 689.36 668.41C689.2 668.27 688.95 667.95 688.83 667.71C688.71 667.47 688.63 667.26 688.56 667.06C688.29 666.26 688.16 665.54 688.02 664.81C687.51 661.91 687.24 659.06 686.96 656.19C686.31 649.38 685.83 642.58 685.13 635.82C684.77 632.45 684.4 629.06 683.74 625.8C683.57 624.99 683.39 624.18 683.14 623.44C683.02 623.07 682.88 622.71 682.73 622.44C682.64 622.27 682.67 622.33 682.61 622.3C682.75 622.14 681.92 622.79 681.45 623.36C680.92 623.96 680.42 624.61 679.93 625.29C676.07 630.77 672.8 636.78 669.53 642.72L664.73 651.72L662.36 656.24L661.17 658.5L660.55 659.64C660.5 659.72 660.42 659.87 660.3 660.03C660.15 660.15 660.03 660.28 659.89 660.41C659.66 660.54 659.44 660.68 659.24 660.78C655.44 662.49 651.85 663.59 648.38 664.76C644.92 665.89 641.6 666.9 638.43 667.85C632.07 669.74 626.26 671.36 620.82 672.8C614.37 674.5 616.23 673.44 624.72 670.7C630.16 668.91 635.71 667.08 641.29 665.24C646.83 663.35 652.52 661.52 657.79 659.31C658.11 659.16 658.48 658.99 658.7 658.85C658.85 658.77 658.75 658.82 658.78 658.8L659.04 658.34L660.13 656.27L662.3 652.08L666.7 643.71C669.69 638.15 672.7 632.6 676.1 627.23C676.96 625.89 677.84 624.56 678.83 623.26C679.33 622.61 679.84 621.97 680.47 621.35C680.62 621.19 680.8 621.04 680.97 620.89C681.15 620.74 681.34 620.6 681.72 620.39C682.38 620.01 683.22 620.04 683.8 620.51C684.08 620.73 684.34 621.08 684.51 621.35C684.65 621.58 684.74 621.79 684.83 622C685 622.42 685.14 622.83 685.26 623.23C685.5 624.04 685.68 624.83 685.84 625.62C686.16 627.2 686.4 628.78 686.61 630.35C687.44 636.64 687.93 642.93 688.48 649.2C688.75 652.34 689.02 655.47 689.35 658.59C689.52 660.15 689.7 661.7 689.93 663.23C690.05 663.99 690.18 664.75 690.34 665.47C690.42 665.83 690.51 666.19 690.62 666.47C690.64 666.64 690.8 666.69 690.7 666.83C690.85 666.76 690.84 666.92 690.98 667C692.01 667.83 693.47 668.59 694.82 669.31C696.2 670.03 697.6 670.72 699.01 671.4C701.84 672.76 704.69 674.08 707.55 675.38L724.75 683.22C727.61 684.55 730.47 685.9 733.29 687.33C734.7 688.05 736.11 688.78 737.51 689.58C738.21 689.98 738.9 690.39 739.59 690.86C739.93 691.1 740.28 691.34 740.62 691.64C740.71 691.72 740.78 691.78 740.89 691.88C741.03 692.02 741.17 692.15 741.27 692.3C741.51 692.59 741.63 692.91 741.71 693.25C741.75 693.9 741.39 694.51 740.86 694.94C740.38 695.35 740.11 695.48 739.73 695.7C739.03 696.08 738.33 696.39 737.64 696.68C736.25 697.25 734.85 697.73 733.44 698.2C730.63 699.12 727.81 699.94 724.99 700.73L708.03 705.33C705.22 706.11 702.4 706.89 699.68 707.82C699.01 708.05 698.33 708.3 697.74 708.58C697.46 708.7 697.12 708.91 697.12 708.93C697.12 708.91 696.96 709.14 696.88 709.26L696.57 709.7L694.1 713.32L684.22 727.84C676.8 738.67 669.32 749.47 661.63 760.12C657.78 765.44 653.88 770.74 649.83 775.93C647.8 778.52 645.74 781.1 643.57 783.6C642.48 784.85 641.37 786.08 640.17 787.27C639.58 787.87 638.94 788.44 638.25 788.99C637.9 789.26 637.52 789.53 637.09 789.78C636.83 789.89 636.65 790.02 636.31 790.11C635.98 790.24 635.56 790.2 635.17 790.16C634.24 789.86 633.66 789.29 633.26 788.68C632.87 788.08 632.64 787.47 632.46 786.87C632.12 785.68 631.98 784.52 631.87 783.37C631.7 781.07 631.73 778.81 631.82 776.57C632.01 772.08 632.45 767.64 632.76 763.23C632.9 761.03 633.04 758.81 632.93 756.71C632.89 756.19 632.83 755.69 632.74 755.25C632.68 755.07 632.62 754.83 632.57 754.77C632.57 754.74 632.5 754.63 632.4 754.52L632.15 754.2L630.11 751.6L621.73 741.21C616.92 735.25 612.1 729.28 606.85 722.77C604.24 719.5 601.52 716.1 598.63 712.5C595.76 708.84 592.72 705.17 589.58 700.78V700.81Z" fill="white"/>
<path d="M636.91 738.29C637.57 739.82 629.01 746.74 627.77 746.33C626.52 745.91 603.11 717.1 602.97 715.85C602.83 714.6 610.73 708.65 611.84 709.06C612.95 709.48 636.08 736.35 636.92 738.29H636.91Z" fill="#4B5555"/>
<path d="M683.74 694.51C684.6 696.1 678.48 700.88 676.81 700.33C675.15 699.78 653.53 675.12 652.84 672.62C652.15 670.13 659.49 665 660.88 665.69C662.27 666.38 682.77 692.71 683.74 694.51Z" fill="#4B5555"/>
<path d="M673.56 661.47C672.87 663.27 691.99 685.78 693.51 684.95C695.03 684.12 909.15 492.93 909.15 492.93L893.91 475.75L673.56 661.47Z" fill="#CCC6C5"/>
<path d="M945.17 462.18C944.48 462.12 924.8 499.31 921.89 500.69C918.98 502.08 903.74 495.7 897.51 488.78C891.28 481.85 891.14 467.58 891.14 467.58C891.14 467.58 923 445.97 938.24 437.24C954.08 428.17 964.15 427.13 970.66 436.13C977.19 445.16 971.91 464.39 945.17 462.18Z" fill="#CCC6C5"/>
<path d="M956.39 439.04C956.39 440.11 955.52 440.98 954.45 440.98C953.38 440.98 952.51 440.11 952.51 439.04C952.51 437.97 953.38 437.1 954.45 437.1C955.52 437.1 956.39 437.97 956.39 439.04Z" fill="#4B5555"/>
<path d="M945.45 445.55C945.45 446.62 944.58 447.49 943.51 447.49C942.44 447.49 941.57 446.62 941.57 445.55C941.57 444.48 942.44 443.61 943.51 443.61C944.58 443.61 945.45 444.48 945.45 445.55Z" fill="#4B5555"/>
<path d="M933.95 452.2C933.95 453.27 933.08 454.14 932.01 454.14C930.94 454.14 930.07 453.27 930.07 452.2C930.07 451.13 930.94 450.26 932.01 450.26C933.08 450.26 933.95 451.13 933.95 452.2Z" fill="#4B5555"/>
<path d="M910.4 468.41C910.4 469.48 909.53 470.35 908.46 470.35C907.39 470.35 906.52 469.48 906.52 468.41C906.52 467.34 907.39 466.47 908.46 466.47C909.53 466.47 910.4 467.34 910.4 468.41Z" fill="#4B5555"/>
<path d="M919.68 461.76C919.68 462.83 918.81 463.7 917.74 463.7C916.67 463.7 915.8 462.83 915.8 461.76C915.8 460.69 916.67 459.82 917.74 459.82C918.81 459.82 919.68 460.69 919.68 461.76Z" fill="#4B5555"/>
<path d="M900.56 476.03C900.56 477.1 899.69 477.97 898.62 477.97C897.55 477.97 896.68 477.1 896.68 476.03C896.68 474.96 897.55 474.09 898.62 474.09C899.69 474.09 900.56 474.96 900.56 476.03Z" fill="#4B5555"/>
<path d="M920.56 476.29C924.19 473.06 928.6 469.09 931.34 466.73C937.02 461.84 943.2 456.54 946.35 454C947.65 452.95 942.67 457.78 938.73 461.43C932.95 466.79 925.81 473.32 918.8 479.63C897.26 499.05 875.61 518.57 853.8 538.15C810.05 577.42 766.21 616.75 722.29 656.05C695.06 680.42 667.6 704.82 640.31 729.09C636.48 732.49 630.62 737.4 630.14 737.63C629.65 737.86 633.73 733.84 637.43 730.48C656.51 713.17 675.84 695.59 695.56 677.89C730.18 646.81 765.18 615.55 800.01 584.36C840.23 548.34 880.45 512.32 920.68 476.29C920.63 476.3 920.59 476.29 920.55 476.29H920.56Z" fill="#4B5555"/>
<path d="M909.56 480.64C913.12 477.5 917.43 473.64 920.12 471.34C925.68 466.59 931.74 461.43 934.83 458.97C936.1 457.96 931.23 462.66 927.38 466.2C921.72 471.42 914.73 477.77 907.87 483.91C886.78 502.8 865.58 521.79 844.22 540.83C801.37 579.02 758.44 617.28 715.43 655.51C688.76 679.21 661.87 702.94 635.14 726.54C631.39 729.85 625.65 734.61 625.17 734.83C624.69 735.05 628.68 731.13 632.31 727.86C650.99 711.02 669.92 693.92 689.24 676.7C723.15 646.47 757.42 616.06 791.53 585.73C830.92 550.7 870.31 515.66 909.71 480.62C909.66 480.62 909.62 480.62 909.58 480.62L909.56 480.64Z" fill="#4B5555"/>
<path d="M897.41 485.92C900.89 482.9 905.1 479.19 907.72 476.98C913.16 472.42 919.07 467.46 922.09 465.1C923.33 464.13 918.57 468.66 914.81 472.07C909.28 477.09 902.45 483.2 895.75 489.11C875.15 507.28 854.44 525.55 833.58 543.86C791.73 580.59 749.79 617.39 707.78 654.15C681.73 676.94 655.46 699.76 629.35 722.45C625.69 725.63 620.08 730.2 619.61 730.41C619.14 730.61 623.04 726.84 626.58 723.7C644.82 707.5 663.31 691.05 682.18 674.48C715.3 645.4 748.78 616.17 782.1 587C820.58 553.31 859.05 519.62 897.54 485.92C897.49 485.92 897.45 485.92 897.41 485.92Z" fill="#4B5555"/>
<path d="M639.16 704.52C635.73 707.45 631.57 711.07 628.98 713.21C623.61 717.64 617.78 722.46 614.79 724.75C613.56 725.69 618.26 721.28 621.97 717.96C627.43 713.07 634.17 707.13 640.78 701.38C661.11 683.71 681.55 665.95 702.14 648.14C743.45 612.42 784.83 576.65 826.3 540.9C852.01 518.74 877.94 496.56 903.71 474.5C907.32 471.41 912.86 466.97 913.32 466.77C913.78 466.58 909.94 470.25 906.45 473.31C888.44 489.07 870.2 505.07 851.58 521.17C818.89 549.44 785.85 577.87 752.97 606.23C714.99 638.98 677.02 671.75 639.04 704.51C639.09 704.51 639.13 704.51 639.17 704.51L639.16 704.52Z" fill="#4B5555"/>
<path d="M635.36 699.61C632.04 702.41 628 705.87 625.49 707.92C620.29 712.16 614.62 716.75 611.73 718.94C610.54 719.84 615.09 715.61 618.68 712.43C623.97 707.75 630.5 702.06 636.91 696.56C656.62 679.65 676.43 662.65 696.38 645.62C736.42 611.45 776.53 577.22 816.73 543.03C841.65 521.83 866.79 500.62 891.77 479.51C895.27 476.55 900.65 472.31 901.1 472.13C901.55 471.95 897.83 475.48 894.44 478.4C876.99 493.48 859.3 508.8 841.26 524.2C809.58 551.25 777.55 578.44 745.67 605.58C708.86 636.92 672.05 668.26 635.24 699.6C635.29 699.6 635.33 699.6 635.37 699.6L635.36 699.61Z" fill="#4B5555"/>
<path d="M752.74 632.58C752.74 632.58 799.2 590.82 814.72 576.99C820.58 571.77 838.1 556.26 838.1 556.26C838.1 556.26 854.85 512.88 859.28 509.83C863.71 506.78 865.1 518.42 865.1 518.42C865.1 518.42 870.38 502.52 877.29 504.57C884.77 506.79 873.22 545 858.45 579.38C841.55 618.73 802.62 628.7 752.74 632.58Z" fill="#FEBC78"/>
<path d="M647.73 424.05C645.69 417.79 640.51 406.68 629.85 408.84C619.77 410.88 620.31 425.53 621.08 432.05C629.76 427.88 643.76 424.86 647.74 424.06L647.73 424.05Z" fill="white"/>
<path d="M732.85 473.69C737.39 469.49 748.12 458.12 741.47 449.82C733.11 439.38 718.26 449.62 715.15 451.96C720.25 457.1 728.46 465.96 732.85 473.69Z" fill="white"/>
<path d="M660.18 691.72C659.86 691.47 659.52 691.21 659.18 690.96C659.1 690.9 659.02 690.84 658.94 690.77C654.29 687.26 648.58 683.64 643.15 680.79C636.1 677.1 617.71 667.77 604.15 660.56C596.48 656.48 590.33 653.46 588.72 651.59C588.43 651.29 588.47 651.04 588.49 650.86C588.34 649.83 589.06 646.86 590.08 642.89C590.77 640.2 591.35 636.99 592.26 633.86C593.81 627.61 595.21 622.04 595.21 622.04C593.44 615.99 568.26 582.15 563.76 576.14C555.59 596.25 544.33 671.34 561.13 680.51C579.42 690.48 617.65 697.41 626.52 699.63C635.26 701.81 639.31 710.92 645.09 717.05C652.52 724.91 663.71 726.04 668.22 714.46C673.27 701.51 666.21 696.3 660.18 691.72Z" fill="#FEBC78"/>
</g>
<g clip-path="url(#clip2_1_2)">
<path d="M757.23 79.82C757.04 75.95 755.74 71.54 755.24 69.78C754.37 66.75 753.39 63.77 752.34 60.82C751.82 58.74 748.48 50 748.48 50C743.39 50.43 727.49 56.08 727.49 56.08C730.35 61.98 732.91 67.72 734.78 74.02C735.33 75.85 735.87 77.68 736.34 79.52C732.48 77.87 726.31 80.88 727.07 86.11C727.5 89.05 730.35 91.64 733.34 91.7C742.44 91.86 738.23 77.87 736.93 73.15C736.22 70.59 735.43 68.07 734.56 65.57C738.97 64.05 746.33 62.38 750.07 61.57C751.15 64.6 752.19 67.64 753.12 70.7C753.6 72.26 754.05 73.83 754.47 75.39C753.91 75.17 753.28 75.03 752.54 75C749.28 74.87 746.44 77.2 746.65 80.59C746.82 83.38 749.05 86.02 751.8 86.56C756.39 87.46 757.45 83.94 757.25 79.83L757.23 79.82Z" fill="#4B5555"/>
<path d="M846.09 106.15L824.38 95.63C824.08 96.02 823.51 97.49 822.9 99.23C822.87 99.29 822.83 99.35 822.8 99.41C822 101.17 821.17 102.91 820.39 104.68C819.03 107.76 817.62 110.83 816.13 113.83C815.37 115.29 814.63 116.76 813.85 118.2C813.49 116.43 812.14 114.88 809.82 113.59C807.25 112.17 803.43 112.36 801.65 114.95C800.96 115.95 800.71 117.19 800.69 118.41C800.65 121.82 802.36 125.79 806.08 126.38C808.89 126.83 811.48 124.96 812.87 122.65C812.91 122.58 812.93 122.51 812.97 122.44C814.92 119.89 816.36 117.12 817.81 114.37C819.01 112.02 820.16 109.64 821.24 107.25C826.17 110.58 835.86 114.85 839.55 116.43C838.43 118.85 837.31 121.28 836.16 123.68C835.33 125.38 834.53 127.09 833.7 128.78C833.03 126.24 830.44 124.46 827.88 123.88C823.59 122.92 819.98 126.56 820.4 130.94C820.64 133.42 822.43 135.9 824.73 136.87C828.29 138.37 831.32 136.24 833 133.14C833.03 133.08 833.06 133 833.09 132.94C833.17 132.82 833.26 132.7 833.33 132.58C835.06 129.86 836.43 127.02 837.85 124.21C840.2 119.48 842.41 114.7 844.51 109.87C844.62 109.61 844.72 109.34 844.82 109.07C845.54 107.4 846.07 106.15 846.07 106.15H846.09Z" fill="#4B5555"/>
</g>
<g clip-path="url(#clip3_1_2)">
<path d="M1311.98 127.16C1315.3 125.05 1317.53 121.3 1319.87 118.28C1322.9 114.36 1325.6 110.23 1328.48 106.21L1336.65 95.12C1336.65 95.12 1319.58 67 1317.9 64C1318.05 64.27 1315.05 68.02 1314.73 68.49C1313.7 70.03 1312.7 71.59 1311.7 73.15C1309.34 76.86 1306.86 80.66 1303.96 83.97C1300.95 87.52 1297.79 90.97 1294.31 94.08C1294.75 92.42 1294.89 90.66 1294.75 88.99C1294.36 84.22 1291.63 79.94 1286.06 80.79C1278.41 81.96 1274.68 91.59 1279.11 97.93C1283.45 104.14 1290.82 100.25 1295.06 96.37C1300.68 91.22 1305.46 85.1 1310.07 79.05C1311.55 84.39 1316.09 98.17 1325.34 106.19C1322.01 110.97 1318.42 116.04 1315.98 119.2C1316.03 118.83 1316.08 118.47 1316.1 118.1C1316.42 113.32 1314.36 108.69 1308.71 108.7C1300.97 108.72 1295.86 117.7 1299.3 124.63C1301.29 128.64 1305.94 129.64 1309.92 128.18C1310.65 127.91 1311.32 127.57 1311.96 127.17L1311.98 127.16Z" fill="#63605E"/>
<path d="M1371.82 183.52C1368.88 176.66 1361.66 177.33 1357.46 184.6C1356.93 185.52 1356.48 186.44 1356.13 187.34C1355.24 183.36 1354.34 177.4 1354.52 169.93C1354.68 163.15 1355.02 158.39 1355.33 155.27L1355.96 150.41C1352.98 150.67 1339.61 156.27 1338.48 157.38C1337.35 158.49 1337.66 172.3 1338.78 172.15C1339.7 172.03 1348.8 169.06 1352.35 167.95C1352.19 171.09 1352.06 174.17 1352.01 176.68C1351.81 185.71 1354.95 193.42 1356.61 194.52L1356.63 194.49C1357.35 195.15 1358.37 195.61 1359.77 195.81C1365.49 196.62 1374.76 190.38 1371.82 183.52Z" fill="#63605E"/>
<path d="M1237.95 67.51C1237.95 67.51 1235.17 68.56 1229.43 76.15C1229.43 76.15 1229.43 76.18 1229.43 76.23C1227.12 78.85 1224.3 82.04 1221.24 85.48C1217.62 89.55 1212.87 94.14 1208.77 97.94C1208.97 96.89 1209.09 95.84 1209.08 94.81C1209 90.16 1205.15 86.56 1200.75 85.72C1195.33 84.69 1190.47 88.31 1188.62 93.32C1186.77 98.31 1189.21 104.25 1193.8 106.83C1199.99 110.31 1205.44 105.14 1209.64 101.07C1214.48 96.38 1219.03 91.38 1223.51 86.36C1224.63 85.11 1225.74 83.85 1226.84 82.59C1227.27 82.1 1229.8 79.86 1229.73 79.28C1230.42 85.39 1232.32 98.61 1236.05 101.41C1236.05 101.41 1244.36 93.4 1245.05 91.36C1245.05 91.36 1239.67 69.54 1237.94 67.52L1237.95 67.51Z" fill="#63605E"/>
</g>
<g clip-path="url(#clip4_1_2)">
<path d="M429.1 344.64C429.1 344.64 455.5 356.54 460.16 387.86C464.82 419.18 436.87 429.01 429.36 429.79L443.85 456.71C443.85 456.71 486.03 448.17 493.02 400.81C500.01 353.45 457.31 330.67 438.15 324.46L429.09 344.65L429.1 344.64Z" fill="#CCA88D"/>
<path d="M308.76 218.08C308.76 218.08 304.88 173.82 278.48 161.79C252.08 149.76 167.07 150.53 117.76 143.54C68.46 136.56 50.6 111.33 47.11 72.12C43.61 32.91 48.66 9.62 58.37 10C68.08 10.39 66.13 22.42 64.97 41.44C63.81 60.46 60.31 69.39 66.52 70.56C72.73 71.72 71.18 49.99 73.12 32.9C75.06 15.82 90.59 11.16 89.04 35.62C87.49 60.08 79.72 75.22 89.43 77.93C99.14 80.65 95.25 59.68 97.19 41.05C99.13 22.42 112.72 21.64 113.49 43.38C114.27 65.12 107.28 86.47 115.82 89.19C124.36 91.91 125.14 64.34 126.3 44.55C127.46 24.75 142.22 27.47 141.44 48.82C140.66 70.17 136.39 91.52 145.32 92.3C154.25 93.08 151.92 72.5 152.7 55.81C153.48 39.12 168.62 31.74 169.39 58.92C170.17 86.09 162.4 107.06 174.05 106.28C185.7 105.5 179.87 82.6 181.43 65.13C182.98 47.66 193.85 48.44 194.63 69.01C195.41 89.58 188.81 110.16 197.35 110.16C205.89 110.16 202.53 94.89 203.69 80.14C204.85 65.39 215.34 67.72 216.11 84.02C216.89 100.32 210.93 115.98 220.25 117.92C229.57 119.86 226.85 105.89 228.01 92.3C229.17 78.71 239.66 78.71 240.43 95.41C241.21 112.1 235 122.97 242.37 124.14C249.75 125.3 245.86 118.96 248.19 108.35C250.41 98.24 258.28 105.89 257.51 116.76C256.73 127.63 259.06 135.78 275.76 143.93C292.45 152.08 314.58 157.13 315.75 213.03L308.76 218.08Z" fill="#CCA88D"/>
<path d="M332.5 218.08C332.5 218.08 336.38 173.82 362.78 161.79C389.18 149.76 474.19 150.53 523.5 143.54C572.8 136.55 590.66 111.32 594.15 72.11C597.64 32.9 592.6 9.61 582.89 10C573.18 10.39 575.13 22.42 576.29 41.44C577.45 60.46 580.95 69.39 574.74 70.56C568.53 71.72 570.08 49.99 568.14 32.9C566.2 15.82 550.67 11.16 552.22 35.62C553.77 60.08 561.54 75.22 551.83 77.93C542.13 80.65 546.01 59.68 544.07 41.05C542.13 22.42 528.54 21.64 527.77 43.38C526.99 65.12 533.98 86.47 525.44 89.19C516.9 91.91 516.12 64.34 514.96 44.55C513.8 24.75 499.04 27.47 499.82 48.82C500.6 70.17 504.87 91.52 495.94 92.3C487.01 93.08 489.34 72.5 488.56 55.81C487.78 39.12 472.64 31.74 471.87 58.92C471.09 86.09 478.86 107.06 467.21 106.28C455.56 105.5 461.39 82.6 459.83 65.13C458.28 47.66 447.41 48.44 446.63 69.01C445.85 89.58 452.45 110.16 443.91 110.16C435.37 110.16 438.73 94.89 437.57 80.14C436.41 65.39 425.92 67.72 425.15 84.02C424.37 100.32 430.33 115.98 421.01 117.92C411.69 119.86 414.41 105.89 413.25 92.3C412.09 78.71 401.6 78.71 400.83 95.41C400.05 112.1 406.26 122.97 398.89 124.14C391.51 125.3 395.4 118.96 393.07 108.35C390.85 98.24 382.98 105.89 383.75 116.76C384.53 127.63 382.2 135.78 365.5 143.93C348.81 152.08 326.68 157.13 325.51 213.03L332.5 218.08Z" fill="#CCA88D"/>
<path d="M191 727.15C191 727.15 192.04 799.36 195.66 811.26L214.04 803.5C214.04 803.5 215.59 738.02 215.33 725.6L191 727.15Z" fill="#CCA88D"/>
<path d="M239.4 811C239.03 819.03 232.93 817.99 222.58 818.25C212.23 818.51 196.96 818.51 195.15 809.97C193.34 801.43 209.9 795.48 223.1 797.29C236.3 799.1 239.66 805.31 239.4 811.01V811Z" fill="#3E4848"/>
<path d="M336.95 727.15C336.95 727.15 337.99 799.36 341.61 811.26L359.99 803.5C359.99 803.5 361.54 738.02 361.28 725.6L336.95 727.15Z" fill="#CCA88D"/>
<path d="M385.35 811C384.98 819.03 378.88 817.99 368.53 818.25C358.18 818.51 342.91 818.51 341.1 809.97C339.29 801.43 355.85 795.48 369.05 797.29C382.25 799.1 385.61 805.31 385.35 811.01V811Z" fill="#3E4848"/>
<path d="M300.99 213.42C300.99 213.42 316.32 208.18 337.09 212.06C337.09 212.06 352.62 169.16 371.64 175.18C390.66 181.2 359.99 227.98 359.99 227.98C359.99 227.98 376.29 256.9 380.37 292.42C384.45 327.94 382.51 367.15 369.5 384.04C356.5 400.93 333.79 399.96 325.44 383.46C317.09 366.96 310.3 334.35 310.3 334.35C310.3 334.35 307.39 329.11 307.19 345.61C307 362.11 295.35 429.07 345.82 432.76C396.29 436.45 413.95 431.98 413.95 431.98L415.11 459.93L326.6 468.86C326.6 468.86 271.86 464.59 264.88 453.33C257.89 442.07 245.08 408.3 245.08 408.3L227.22 383.45C227.22 383.45 242.75 322.11 254.01 289.5C265.27 256.89 278.08 230.88 278.08 230.88C278.08 230.88 271.61 217.42 266.95 201.51C262.29 185.59 264.1 177.57 271.09 173.95C276.25 171.27 286.49 176.28 293.22 191.94C299.95 207.6 300.98 213.42 300.98 213.42H300.99Z" fill="#CCA88D"/>
<path d="M295.56 215.24C295.56 215.24 283.53 177.07 273.69 181.21C263.86 185.35 282.75 225.21 282.75 225.21C282.75 225.21 291.94 216.8 295.56 215.25V215.24Z" fill="white"/>
<path d="M342.53 214.2C342.53 214.2 357.93 177.32 368.67 180.81C379.41 184.3 356.12 223.38 356.12 223.38C356.12 223.38 346.03 215.75 342.53 214.19V214.2Z" fill="white"/>
<path d="M360 227.98C360 227.98 316.65 235.29 278.09 230.89C278.09 230.89 271.62 243.44 270.33 247.45C270.33 247.45 315.22 255.23 367.62 244.23C367.62 244.23 362.85 232.05 360 227.97V227.98Z" fill="#3E4848"/>
<path d="M285.66 231.67L281.91 248.88C281.91 248.88 290.71 249.72 292.78 249.79L294.33 232.13L285.66 231.68V231.67Z" fill="white"/>
<path d="M303.58 232.38L302.42 250.17C302.42 250.17 313.29 250.04 315.55 249.98L315.1 232.19C315.1 232.19 304.42 232.19 303.58 232.38Z" fill="white"/>
<path d="M324.87 231.73L325.45 249.72C325.45 249.72 335.48 249.01 337.81 248.75L335.87 230.96C335.87 230.96 325.91 231.54 324.87 231.74V231.73Z" fill="white"/>
<path d="M344.08 230.05L346.28 247.91C346.28 247.91 355.79 246.42 357.21 246.16L353.65 228.88L344.07 230.04L344.08 230.05Z" fill="white"/>
<path d="M352.82 274.28C349.62 274.39 350.3 283.4 353.6 283.01C356.9 282.62 355.74 274.18 352.82 274.28Z" fill="#4B5555"/>
<path d="M360.78 267.33C359.51 268.68 359.26 264.79 351.14 263.36C344.5 262.18 347.77 255.06 354.18 258.88C360.44 262.6 361.35 266.72 360.78 267.34V267.33Z" fill="#4B5555"/>
<path d="M324.71 278.98C327.78 278.07 329.98 286.84 326.72 287.51C323.47 288.18 321.91 279.8 324.71 278.98Z" fill="#4B5555"/>
<path d="M314.97 274.89C316.6 275.77 315.62 272 322.87 268.08C328.81 264.87 323.46 259.15 318.57 264.78C313.8 270.28 314.24 274.48 314.97 274.88V274.89Z" fill="#4B5555"/>
<path d="M333.18 360.52C333.36 360.02 333.57 359.41 333.77 359.06C334.19 358.34 334.7 357.6 335.08 357.28C335.23 357.16 335.12 357.95 334.98 358.5C334.75 359.33 334.48 360.32 334.22 361.27C333.36 364.21 332.84 367.25 332.54 370.31C332.26 373.36 332.14 376.54 332.57 379.49C333.04 382.47 334.2 385.3 335.86 387.81C337.97 390.84 340.76 393.65 344.07 395.16C344.53 395.37 345.13 395.71 345.19 395.86C345.25 395.99 344.61 396.22 344.09 396.04C341.43 395.25 339.02 393.58 337 391.54C333.46 387.92 331.19 382.94 330.96 377.8C330.69 371.96 331.42 366.1 333.26 360.52H333.18Z" fill="#4B5555"/>
<path d="M343.99 365.21C341.19 367.55 345.54 375.21 348.94 373.94C352.34 372.68 346.9 362.78 343.99 365.21Z" fill="#4B5555"/>
<path d="M363.1 365.21C365.9 367.55 361.55 375.21 358.15 373.94C354.75 372.68 360.19 362.78 363.1 365.21Z" fill="#4B5555"/>
<path d="M226.98 384.49C226.98 384.49 241.73 397.95 250.79 429.52C259.85 461.09 253.9 482.57 250.79 505.61C247.68 528.64 218.96 547.02 189.45 549.09C189.45 549.09 199.28 493.96 206.01 460.32C212.74 426.68 226.97 384.49 226.97 384.49H226.98Z" fill="#CCA88D"/>
<path d="M310.69 406.12C310.69 406.12 300.48 429.01 299.19 441.43C299.19 441.43 275.64 442.47 267.87 443.24C267.87 443.24 255.77 398.96 229.37 374.89L225.37 389.23C229.38 393.63 245.93 410.18 248.72 440.91C251.52 471.71 259.07 537.44 186.61 545.98C186.61 545.98 175.22 601.88 172.38 642.77C169.53 683.66 173.67 721.45 173.67 721.45L247.17 710.58C247.17 710.58 240.7 651.06 260.63 608.09C280.56 565.13 308.25 595.15 332.84 582.73C357.43 570.31 342.16 514.66 299.71 510.27C299.71 510.27 302.04 479.99 317.57 461.87C317.57 461.87 316.49 436.99 318.81 420.17C318.81 420.17 317.16 418.33 315.5 415.59C313.71 412.64 311.85 408.68 310.69 406.11V406.12Z" fill="#BAD2ED"/>
<path d="M167.97 710.84C166.65 713.16 166.03 730.64 168.36 734.78C170.69 738.92 192.17 738.53 210.03 736.85C227.89 735.17 246.13 733.87 247.3 730.25C248.46 726.63 248.72 708.38 247.82 705.79C246.91 703.2 228.93 708.9 205.76 710.45C182.6 712 169.01 709.03 167.97 710.84Z" fill="#BAD2ED"/>
<path d="M184.92 694.02C188.28 694.02 188.41 702.95 184.66 702.69C180.91 702.43 182.2 694.02 184.92 694.02Z" fill="white"/>
<path d="M219.18 690.33C222.67 690.18 222.29 697.9 219.18 697.32C216.07 696.74 216.95 690.43 219.18 690.33Z" fill="white"/>
<path d="M203.55 672.84C205.86 672.69 205.86 678.84 203.12 678.55C200.37 678.26 201.38 672.98 203.55 672.84Z" fill="white"/>
<path d="M228.4 660.04C230.41 660.27 231.57 668.23 228.18 667.27C224.79 666.31 226.48 659.82 228.4 660.04Z" fill="white"/>
<path d="M182.79 650.83C185.99 650.83 185.41 657.43 182.79 657.72C180.17 658.01 179.98 650.83 182.79 650.83Z" fill="white"/>
<path d="M209.67 637.44C212.46 637.8 213.07 645.3 209.67 645.01C206.27 644.72 207.44 637.15 209.67 637.44Z" fill="white"/>
<path d="M225.74 622.71C229.08 623.19 228.76 630.11 225.6 630.03C222.44 629.96 223.73 622.42 225.74 622.71Z" fill="white"/>
<path d="M190.08 615.11C192.02 615.24 192.17 622.67 189.63 622.44C187.09 622.22 187.91 614.96 190.08 615.11Z" fill="white"/>
<path d="M212.47 598.07C215.27 598.23 215.27 606.39 212.31 606.06C209.34 605.73 209.59 597.9 212.47 598.07Z" fill="white"/>
<path d="M269.58 495.81C271.88 495.94 271.88 502.65 269.44 502.38C267 502.11 267.21 495.68 269.58 495.81Z" fill="white"/>
<path d="M242.96 602.21C246.59 603.08 245.58 612.59 242.28 611.92C238.98 611.24 240.53 601.63 242.96 602.21Z" fill="white"/>
<path d="M299.56 567.93C302.02 568.52 301.34 574.97 299.1 574.51C296.86 574.05 297.92 567.54 299.56 567.93Z" fill="white"/>
<path d="M232.97 585.66C235.74 585.66 235.74 594.28 232.81 594.2C229.88 594.12 230.94 585.66 232.97 585.66Z" fill="white"/>
<path d="M284.89 508.17C287.48 508.17 287.48 516.24 284.74 516.16C282 516.08 282.99 508.17 284.89 508.17Z" fill="white"/>
<path d="M191.49 583.03C195.16 583.16 194.39 592 190.77 591.42C187.81 590.94 189.17 582.95 191.49 583.03Z" fill="white"/>
<path d="M296.69 454.53C299.69 454.41 299.59 461.66 296.61 461.4C294.17 461.19 294.8 454.6 296.69 454.53Z" fill="white"/>
<path d="M277 474.16C280 474.04 279.9 481.29 276.92 481.03C274.48 480.82 275.11 474.23 277 474.16Z" fill="white"/>
<path d="M241.02 397.67C244.19 397.54 244.09 405.2 240.94 404.93C238.37 404.71 239.02 397.75 241.02 397.67Z" fill="white"/>
<path d="M314.01 422.82C316.82 422.71 316.74 429.51 313.94 429.27C311.65 429.07 312.24 422.89 314.01 422.82Z" fill="white"/>
<path d="M214.59 568.05C217.06 567.9 216.74 575.54 214.35 575.14C211.96 574.74 211.96 568.21 214.59 568.05Z" fill="white"/>
<path d="M196.71 557.81C199.28 557.56 199.54 566.39 196.88 565.96C194.22 565.53 194.05 558.06 196.71 557.81Z" fill="white"/>
<path d="M261.74 447.48C263.97 447.2 264.2 457.18 261.89 456.7C259.58 456.21 259.43 447.77 261.74 447.48Z" fill="white"/>
<path d="M232.78 549.51C236.35 549.92 235.7 559.66 232.46 558.93C229.21 558.2 230.67 549.26 232.78 549.51Z" fill="white"/>
<path d="M281.9 455.91C285.33 456.31 284.71 465.68 281.59 464.98C278.46 464.28 279.87 455.68 281.9 455.91Z" fill="white"/>
<path d="M255.34 423.7C258.63 424.08 258.03 433.06 255.04 432.38C252.05 431.71 253.39 423.47 255.34 423.7Z" fill="white"/>
<path d="M309.58 451.16C311.87 451.42 311.46 457.68 309.37 457.21C307.28 456.74 308.22 451 309.58 451.16Z" fill="white"/>
<path d="M307.71 434.04C310.4 434.42 309.91 443.4 307.47 442.72C305.02 442.05 306.12 433.81 307.71 434.04Z" fill="white"/>
<path d="M318.98 563.76C321.86 564.09 321.34 571.97 318.72 571.38C316.09 570.79 317.28 563.57 318.98 563.76Z" fill="white"/>
<path d="M265.36 469.52C268.04 469.83 267.56 477.16 265.12 476.61C262.68 476.06 263.78 469.34 265.36 469.52Z" fill="white"/>
<path d="M292.7 474.97C295.38 475.28 294.9 482.61 292.46 482.06C290.01 481.51 291.12 474.79 292.7 474.97Z" fill="white"/>
<path d="M251.45 567.96C254.07 567.87 253.62 574.99 251.38 574.55C249.14 574.1 249.28 568.04 251.45 567.96Z" fill="white"/>
<path d="M281.96 489.05C284.54 488.96 284.09 495.97 281.89 495.53C279.68 495.09 279.83 489.13 281.96 489.05Z" fill="white"/>
<path d="M367.88 291.65C365.67 291.83 366.01 298.31 368.24 298.23C370.46 298.14 370.11 291.48 367.88 291.65Z" fill="white"/>
<path d="M364.51 301.69C366.2 301.53 367 307.73 364.87 307.47C362.74 307.2 362.65 301.87 364.51 301.69Z" fill="white"/>
<path d="M371.88 305.78C373.84 305.88 373.48 313.42 371.44 312.89C369.4 312.36 370.11 305.69 371.88 305.78Z" fill="white"/>
<path d="M365.75 312.8C368 312.91 368.24 319.11 365.93 319.29C363.62 319.47 363.98 312.71 365.75 312.8Z" fill="white"/>
<path d="M371.97 320.97C374.57 320.97 374.81 327.37 371.97 327.19C369.13 327.01 370.19 320.97 371.97 320.97Z" fill="white"/>
<path d="M365.57 325.5C367.89 325.41 368.68 333.41 366.19 333.41C363.7 333.41 363.35 325.59 365.57 325.5Z" fill="white"/>
<path d="M372.59 332.88C374.99 332.98 374.99 339.46 372.77 339.37C370.55 339.28 370.46 332.79 372.59 332.88Z" fill="white"/>
<path d="M278.09 251.86C280.41 252.79 278.58 257.49 276.63 256.91C274.69 256.33 276.63 251.28 278.09 251.86Z" fill="white"/>
<path d="M277.9 262.73C280.1 263.25 279.16 269.62 276.83 269.14C274.5 268.65 275.86 262.25 277.9 262.73Z" fill="white"/>
<path d="M269.36 270.49C271.81 271.27 270.04 278.25 267.71 277.38C265.38 276.51 266.93 269.71 269.36 270.49Z" fill="white"/>
<path d="M270.03 284.08C272.4 284.78 270.61 291.75 268.57 290.68C266.53 289.61 268.38 283.6 270.03 284.08Z" fill="white"/>
<path d="M262.08 290.77C265.12 291.02 263.44 298.44 261.01 297.66C258.58 296.88 259.75 290.58 262.08 290.77Z" fill="white"/>
<path d="M265.96 305.04C268.36 305.49 266.35 312.71 264.12 311.83C261.89 310.96 264.41 304.75 265.96 305.04Z" fill="white"/>
<path d="M258.29 311.15C260.52 311.89 259.16 320.18 256.74 319.01C254.31 317.85 256.84 310.66 258.29 311.15Z" fill="white"/>
<path d="M260.14 324.74C262.62 325.47 260.63 332.12 258.39 331.15C256.16 330.18 258.49 324.26 260.14 324.74Z" fill="white"/>
<path d="M251.21 333.86C253.9 334.49 251.21 342.11 249.17 341.04C247.13 339.97 249.56 333.47 251.21 333.86Z" fill="white"/>
<path d="M253.92 344.93C256.8 345.73 254.79 351.92 252.56 351.63C250.33 351.34 252.17 344.45 253.92 344.93Z" fill="white"/>
<path d="M246.55 351.72C248.97 352.48 247.04 359.87 244.8 358.9C242.57 357.93 244.7 351.14 246.55 351.72Z" fill="white"/>
<path d="M250.82 360.55C253.02 361.1 252.37 367.73 249.56 367.05C246.75 366.37 249.27 360.16 250.82 360.55Z" fill="white"/>
<path d="M242.86 368.03C245.72 368.75 243.44 376.09 241.11 375.5C238.78 374.92 240.92 367.54 242.86 368.03Z" fill="white"/>
<path d="M251.89 375.21C254.34 375.93 252.57 384.33 250.05 383.56C247.53 382.78 250.24 374.73 251.89 375.21Z" fill="white"/>
<path d="M431.82 368.58C431.82 368.58 420.04 416.33 441.78 439.36C463.52 462.39 487.59 472.75 466.88 560.22C466.88 560.22 410.46 555.56 403.47 585.32C396.48 615.08 453.16 618.19 459.63 615.08C459.63 615.08 475.42 680.04 451.87 728.44C428.32 776.84 375.13 786.41 319.62 772.82C264.11 759.23 240.81 725.46 240.81 677.71C240.81 629.96 261.77 584.93 276.91 570.18C276.91 570.18 323.88 603.18 337.86 571.73C349.68 545.14 316.9 523.2 292.05 515.05C292.05 515.05 298.26 463.03 337.08 437.02C375.9 411.01 393.76 414.5 404.24 367.92L431.8 368.57L431.82 368.58Z" fill="#EDB83B"/>
<path d="M307.72 817.99C311.84 819.44 331.79 756.91 343.69 727.15C355.59 697.39 360.51 682.89 360.51 679.53C360.51 676.17 335.15 670.99 334.37 673.58C333.59 676.17 298.91 814.89 307.71 817.99H307.72Z" fill="#4B5555"/>
<path d="M410.08 669.15C412.62 670.08 410.99 673.58 408.92 673.52C406.85 673.46 304.88 654.22 303.41 651.32C301.94 648.43 305.15 635.84 308.76 636.2C312.37 636.56 403.93 666.9 410.08 669.15Z" fill="#4B5555"/>
<path d="M462.39 190.23C463.07 186.35 459.19 172.76 455.01 162.67C450.84 152.58 445.3 147.72 438.71 154.81C432.11 161.89 429.78 167.52 434.05 175C438.32 182.47 449.61 190.79 449.61 190.79L462.39 190.24V190.23Z" fill="#4B5555"/>
<path d="M288.96 741.09C291.63 741.37 290.22 748.37 287.89 747.69C285.56 747.01 287.11 740.9 288.96 741.09Z" fill="white"/>
<path d="M278.48 736.53C281.89 737.02 280.13 743.13 277.61 742.26C275.09 741.39 276.45 736.24 278.48 736.53Z" fill="white"/>
<path d="M284.79 721C288.26 721.96 285.76 728.76 283.72 728.28C281.68 727.79 283.04 720.52 284.79 721Z" fill="white"/>
<path d="M272.46 720.42C275.81 720.42 274.3 727.99 271.78 727.6C269.26 727.21 270.42 720.42 272.46 720.42Z" fill="white"/>
<path d="M276.05 707.12C278.73 707.24 277.21 714.3 274.79 713.72C272.36 713.14 273.82 707.02 276.05 707.12Z" fill="white"/>
<path d="M265.67 699.17C268.32 699.42 266.93 706.35 264.6 705.58C262.27 704.8 263.63 698.98 265.67 699.17Z" fill="white"/>
<path d="M254.89 686.84C257.72 687.12 256.73 694.41 254.31 693.54C251.89 692.67 252.95 686.65 254.89 686.84Z" fill="white"/>
<path d="M254.7 698.97C257.43 699.13 256.45 706.25 254.12 705.38C251.79 704.51 253.05 698.88 254.7 698.97Z" fill="white"/>
<path d="M261.01 713.04C264.15 713.18 263.34 720.12 260.62 719.45C257.9 718.77 258.87 712.95 261.01 713.04Z" fill="white"/>
<path d="M426.9 491.12C430.11 491.76 428.45 498.75 425.86 498.11C423.27 497.46 424.31 490.6 426.9 491.12Z" fill="white"/>
<path d="M436.87 502.12C440.19 502.89 439.2 511.05 436.09 510.27C432.98 509.49 435.18 501.73 436.87 502.12Z" fill="white"/>
<path d="M427.16 509.24C430.3 509.41 428.45 519.59 425.61 518.17C422.76 516.75 424.7 509.11 427.16 509.24Z" fill="white"/>
<path d="M434.28 520.75C438.2 520.75 436.09 528.38 433.76 527.87C431.43 527.36 431.56 520.75 434.28 520.75Z" fill="white"/>
<path d="M421.47 527.35C425.23 527.35 422.25 539.25 419.4 537.57C416.55 535.89 418.49 527.35 421.47 527.35Z" fill="white"/>
<path d="M428.52 344.44L438.16 323.87L439.79 324.58C447.72 279.45 462.49 189.74 462.49 189.74L449.68 190.52C449.68 190.52 414.35 332.99 398.83 386.56C383.3 440.13 346.44 558.17 349.92 561.64C351.08 562.8 391.85 570.96 392.23 569.79C392.23 569.79 397.66 544.94 403.88 516.22C409.28 491.25 426.12 400.56 435.53 348.47C435.29 348.33 434.55 347.76 433.97 347.42C432.34 346.45 430.02 345.21 428.54 344.44H428.52Z" fill="#4B5555"/>
<path d="M346.21 640.65C344.86 646.25 343.24 653.09 342.18 657.24C339.99 665.85 337.59 675.2 336.29 679.81C335.75 681.71 337.41 673.66 338.8 667.46C340.84 658.34 343.42 647.17 345.98 636.29C353.86 602.84 361.79 569.21 369.82 535.42C385.93 467.64 402.07 399.73 418.29 331.79C428.35 289.67 438.58 247.35 448.74 205.28C450.16 199.38 452.5 190.63 452.78 190.07C453.06 189.51 451.74 196.16 450.39 201.93C443.46 231.66 436.46 261.82 429.2 292.38C416.46 346.03 403.5 400.11 390.64 454C375.79 516.24 360.95 578.48 346.1 640.74C346.14 640.69 346.17 640.67 346.2 640.64L346.21 640.65Z" fill="#3E4848"/>
<path d="M352.53 641.04C351.23 646.63 349.68 653.47 348.66 657.63C346.55 666.23 344.25 675.58 342.99 680.19C342.47 682.09 344.05 674.05 345.38 667.85C347.34 658.74 349.8 647.57 352.26 636.7C359.82 603.27 367.42 569.65 375.12 535.89C390.57 468.14 406.06 400.27 421.62 332.37C431.27 290.27 441.09 247.98 450.84 205.92C452.21 200.03 454.46 191.28 454.73 190.72C455.01 190.16 453.75 196.81 452.46 202.57C445.82 232.29 439.11 262.43 432.14 292.97C419.92 346.59 407.49 400.64 395.15 454.51C380.9 516.72 366.66 578.92 352.42 641.15C352.46 641.1 352.49 641.08 352.52 641.05L352.53 641.04Z" fill="#3E4848"/>
<path d="M357.84 641.89C356.57 647.5 355.07 654.36 354.08 658.52C352.02 667.15 349.78 676.52 348.55 681.15C348.04 683.06 349.57 674.99 350.87 668.78C352.77 659.64 355.16 648.45 357.55 637.55C364.9 604.03 372.29 570.32 379.78 536.46C394.81 468.53 409.87 400.47 425.01 332.38C434.4 290.17 443.95 247.76 453.44 205.59C454.77 199.68 456.96 190.9 457.24 190.34C457.51 189.78 456.29 196.44 455.04 202.22C448.59 232.02 442.06 262.24 435.29 292.87C423.4 346.63 411.31 400.83 399.31 454.85C385.45 517.23 371.6 579.6 357.75 642C357.79 641.95 357.82 641.93 357.85 641.89H357.84Z" fill="#3E4848"/>
<path d="M363.91 643.08C362.68 648.71 361.22 655.59 360.25 659.77C358.25 668.43 356.06 677.83 354.86 682.48C354.36 684.39 355.85 676.3 357.1 670.07C358.94 660.9 361.27 649.67 363.59 638.73C370.73 605.09 377.91 571.27 385.19 537.29C399.79 469.12 414.43 400.83 429.14 332.5C438.26 290.14 447.56 247.58 456.78 205.26C458.07 199.33 460.21 190.52 460.48 189.96C460.75 189.39 459.57 196.08 458.36 201.88C452.09 231.78 445.76 262.11 439.17 292.84C427.62 346.79 415.86 401.18 404.2 455.39C390.73 517.98 377.27 580.58 363.8 643.19C363.84 643.14 363.87 643.11 363.9 643.08H363.91Z" fill="#3E4848"/>
<path d="M443.85 326.52L433.89 347.61C433.89 347.61 406.84 334.28 399.08 332.34C399.08 332.34 409.82 326.52 414.48 325.22C414.48 325.22 407.49 314.09 406.85 310.99C406.85 310.99 439.72 324.19 443.86 326.52H443.85Z" fill="#3E4848"/>
<path d="M250.01 463.43C248.97 480.25 253.12 511.83 281.58 524.25C310.05 536.67 364.14 511.83 364.14 511.83L372.68 531.24C372.68 531.24 333.34 555.31 291.16 560.74C248.98 566.17 227.75 528.91 219.99 488.53L250.01 463.43Z" fill="#CCA88D"/>
<path d="M351.72 516.74C356.77 514.67 370.74 508.98 381.48 500.69C381.48 500.69 378.25 514.79 376.82 516.74L394.55 518.42C394.55 518.42 374.75 531.49 361.68 537.44L351.72 516.74Z" fill="#3E4848"/>
<path d="M217.81 468.33C217.87 467.5 217.98 466.49 218.09 465.88C218.36 464.62 218.73 463.26 219.06 462.61C219.19 462.35 219.21 463.57 219.18 464.47C219.12 465.82 219.06 467.44 218.99 469.02C218.79 473.9 219.06 478.8 219.6 483.69C220.08 488.61 221.13 493.45 222.24 498.25C223.52 503.02 224.96 507.75 226.76 512.35L228.44 516.64C229.03 518.06 229.69 519.44 230.31 520.85C231.5 523.69 232.95 526.4 234.35 529.13C234.74 529.89 235.14 531.14 235.06 531.29C234.98 531.44 234.3 530.71 233.87 529.98C232.77 528.1 231.67 526.2 230.55 524.29C229.55 522.32 228.56 520.32 227.6 518.28C224.42 511.06 221.91 503.46 220.2 495.7C218.21 486.75 217.27 477.52 217.88 468.31H217.8L217.81 468.33Z" fill="white"/>
</g>
<g clip-path="url(#clip5_1_2)">
<path d="M482.46 168.74C481.65 169.33 483.34 174.46 483.53 175.25C484.78 180.42 486.2 185.55 487.45 190.72C487.95 192.77 488.44 194.82 488.94 196.87C489.01 197.15 489.3 199.39 489.58 199.5C487.36 198.6 484.53 198.69 482.01 201.11C477.45 205.5 480.78 212.78 485.65 212.84C491.09 212.91 494.22 207.07 493.15 202.2C492.02 197.06 490.86 191.95 489.52 186.86C488.85 184.32 488.16 181.79 487.45 179.26C490.96 178.24 496.7 176.49 496.93 175.84C497.26 174.9 494.29 164.99 494.29 164.99C494.29 164.99 484.08 167.57 482.47 168.73L482.46 168.74Z" fill="#63605E"/>
<path d="M542.32 219.39C541.98 218.82 523.49 215.54 523.48 215.54C523.11 215.47 520.97 220.94 520.78 221.37C519.57 224.21 518.51 227.12 517.24 229.94C516.66 231.23 516.04 232.51 515.45 233.8C514.5 235.87 513.88 237.08 513.7 237.57C513.09 235.25 511.07 233.28 508.73 232.58C504.41 231.28 500.07 235.07 500.13 239.45C500.19 243.39 503.69 245.31 507.3 244.88C512.45 244.27 514.18 240.02 516.15 235.81C517.68 232.55 519.21 229.25 520.5 225.88C523.97 226.92 534.03 229.07 537.19 229.74L533.14 240.35C532.45 238.15 530.5 236.32 528.25 235.65C523.93 234.35 519.59 238.14 519.65 242.52C519.7 246.12 522.74 248.23 526.14 248.16C530.22 248.08 532.58 245.03 534.03 241.55C535.9 237.05 537.19 232.32 539.09 227.83C539.81 226.14 540.56 224.46 541.24 222.75C541.46 222.2 542.67 220.01 542.31 219.4L542.32 219.39Z" fill="#63605E"/>
<path d="M492.03 262.34C492.08 261.04 480.42 265.52 480.1 266.87C479.75 268.39 480.24 270.04 480.27 271.58C480.35 274.94 479.61 278.22 479.23 281.54C479.04 283.24 478.84 284.93 478.65 286.63C478.59 287.12 477.85 290.58 478.17 290.85C476.26 289.26 473.08 288.63 469.89 289.9C464.89 291.88 462.18 296.88 465.36 299.69C466.93 301.08 469.64 300.71 471.5 300.32C474.27 299.74 477.27 298.65 479.09 296.3C481.27 293.47 480.39 289.75 480.57 286.46C480.93 280.24 481.47 276.16 481.85 273.83C484.92 273.22 492.36 271.63 492.5 270.53C492.66 269.28 491.98 263.66 492.03 262.35V262.34Z" fill="#63605E"/>
</g>
<defs>
<clipPath id="clip0_1_2">
<rect width="530.8" height="496.28" fill="white" transform="translate(900 163)"/>
</clipPath>
<clipPath id="clip1_1_2">
<rect width="462.2" height="596.13" fill="white" transform="translate(511 376)"/>
</clipPath>
<clipPath id="clip2_1_2">
<rect width="119.09" height="87.37" fill="white" transform="translate(727 50)"/>
</clipPath>
<clipPath id="clip3_1_2">
<rect width="184.38" height="131.88" fill="white" transform="translate(1188 64)"/>
</clipPath>
<clipPath id="clip4_1_2">
<rect width="549.25" height="808.32" fill="white" transform="translate(46 10)"/>
</clipPath>
<clipPath id="clip5_1_2">
<rect width="78.38" height="135.66" fill="white" transform="translate(464 165)"/>
</clipPath>
</defs>
</svg>
