<?xml version="1.0" encoding="utf-8"?>
<!-- Generator: Adobe Illustrator 21.1.0, SVG Export Plug-In . SVG Version: 6.00 Build 0)  -->
<svg version="1.1" xmlns="http://www.w3.org/2000/svg" xmlns:xlink="http://www.w3.org/1999/xlink" x="0px" y="0px"
	 viewBox="0 0 144 72" style="enable-background:new 0 0 144 72;" xml:space="preserve">
<style type="text/css">
	.st0{fill:#FFFFFF;}
</style>
<g id="body">
	<g>
		<polygon class="st0" points="-53.1,104.3 -53.1,47.5 -53.1,44 -53.1,40.5 -53.1,37.1 -53.1,33.6 -53.1,30.2 -53.1,26.7 
			-53.1,23.2 -53.1,19.8 -53.1,16.3 -53.1,12.9 -53.1,9.4 -53.1,8.3 -53.1,5.9 -53.1,4.8 -79.3,4.8 -79.3,8.3 -79.3,54 -74.7,54 
			-74.7,9.4 -71.4,9.4 -71.4,12.9 -71.4,16.3 -71.4,19.8 -71.4,23.2 -71.4,26.7 -71.4,30.2 -71.4,33.6 -71.4,37.1 -71.4,40.5 
			-71.4,44 -71.4,47.5 -71.4,104.3 -80.6,104.3 -80.6,107.7 -71.4,107.7 -66.9,107.7 -66.9,47.5 -57.6,47.5 -57.6,107.7 
			-53.1,107.7 -43.9,107.7 -43.9,104.3 		"/>
		<polygon class="st0" points="-57.6,-4.2 -57.6,-7.7 -57.6,-11.2 -57.6,-14.6 -57.6,-18.1 -66.9,-18.1 -66.9,-14.6 -66.9,-11.2 
			-66.9,-7.7 -66.9,-4.2 -66.9,-0.8 -57.6,-0.8 		"/>
	</g>
	<g>
		<polygon class="st0" points="68.2,-29.8 68.2,-86.6 68.2,-90.1 68.2,-93.5 68.2,-97 68.2,-100.4 68.2,-103.9 68.2,-107.4 
			68.2,-110.8 68.2,-114.3 68.2,-117.7 68.2,-121.2 68.2,-124.7 68.2,-125.8 68.2,-128.1 68.2,-129.2 42,-129.2 42,-125.8 42,-80 
			46.6,-80 46.6,-124.7 49.9,-124.7 49.9,-121.2 49.9,-117.7 49.9,-114.3 49.9,-110.8 49.9,-107.4 49.9,-103.9 49.9,-100.4 
			49.9,-97 49.9,-93.5 49.9,-90.1 49.9,-86.6 49.9,-29.8 40.7,-29.8 40.7,-26.4 49.9,-26.4 54.4,-26.4 54.4,-86.6 63.7,-86.6 
			63.7,-26.4 68.2,-26.4 77.4,-26.4 77.4,-29.8 		"/>
		<polygon class="st0" points="63.7,-138.3 63.7,-141.8 63.7,-145.2 63.7,-148.7 63.7,-152.1 54.4,-152.1 54.4,-148.7 54.4,-145.2 
			54.4,-141.8 54.4,-138.3 54.4,-134.8 63.7,-134.8 		"/>
	</g>
</g>
<g id="arm">
	<polygon class="st0" points="-21.1,-31.7 -21.1,-13.3 -23.3,-13.3 -23.3,-31.7 -26.8,-31.7 -26.8,-13.3 -29.1,-13.3 -29.1,-31.7 
		-32.6,-31.7 -32.6,-13.3 -32.6,-9.9 -29.1,-9.9 -26.8,-9.9 -26.8,4.8 -53.1,4.8 -53.1,8.3 -26.8,8.3 -26.8,26.6 -23.3,26.6 
		-23.3,8.3 -22.2,8.3 -22.2,4.8 -23.3,4.8 -23.3,-9.9 -21.1,-9.9 -17.7,-9.9 -17.7,-13.3 -17.7,-31.7 	"/>
	<polygon class="st0" points="158.3,-109.7 158.3,-91.3 156.1,-91.3 156.1,-109.7 152.6,-109.7 152.6,-91.3 150.3,-91.3 
		150.3,-109.7 146.8,-109.7 146.8,-91.3 146.8,-87.9 150.3,-87.9 152.6,-87.9 152.6,-73.2 126.3,-73.2 126.3,-69.7 152.6,-69.7 
		152.6,-51.4 156.1,-51.4 156.1,-69.7 157.2,-69.7 157.2,-73.2 156.1,-73.2 156.1,-87.9 158.3,-87.9 161.7,-87.9 161.7,-91.3 
		161.7,-109.7 	"/>
	<g>
		<path class="st0" d="M135.9,41.7v-4.6H134v-1.9v-1.5h-28.7v-2.8h-2.8h-2.8v-2.8h-5.6l0-7.6h-1.9v-1.9H72v-1.9H46.3v1.9h-1.9v3.8
			h1.9v1.9v1.9h1.9l0,7.6H20.8h-1.9v1.9v1.9h1.9v7.6h1.9V47v1.9h17.9V47h1.9v-5.7h7.6v3.8h3.8V47h1.9v1.9h19.9h18.4v-1.5h1.9v-5.7
			h7.6v3.8h32.4h1.9v-1.9v-1.9H135.9z M66.3,31.8v1.9h-0.9h-7.6h-7.6v-7.6v-3.8h3.8h3.8h3.8h2.8v1.9v1.9h0.9V28v1.9h0.9V31.8z
			 M94.1,33.7h-2.2h-3.8h-7.6h-7.6h-4.7v-1.9v-1.9h-0.9V28v-1.9h-0.9v-1.9v-1.9h2.8h3.8h3.8h3.8h3.8h3.8v3.8h3.8v3.8h2.2V33.7z"/>
		<polygon class="st0" points="50.2,48.9 48.3,48.9 48.3,47 46.4,47 44.5,47 44.5,48.9 42.6,48.9 42.6,50.8 40.7,50.8 40.7,52.7 
			40.7,54.6 42.6,54.6 42.6,56.5 44.5,56.5 44.5,58.4 46.4,58.4 48.3,58.4 48.3,56.5 50.2,56.5 50.2,54.6 52.1,54.6 52.1,52.7 
			52.1,50.8 50.2,50.8 		"/>
		<polygon class="st0" points="103.5,48.9 101.6,48.9 101.6,47 99.7,47 97.8,47 97.8,48.9 95.9,48.9 95.9,50.8 94.1,50.8 94.1,52.7 
			94.1,54.6 95.9,54.6 95.9,56.5 97.8,56.5 97.8,58.4 99.7,58.4 101.6,58.4 101.6,56.5 103.5,56.5 103.5,54.6 105.4,54.6 
			105.4,52.7 105.4,50.8 103.5,50.8 		"/>
	</g>
</g>
</svg>
