<?xml version="1.0" encoding="utf-8"?>
<!-- Generator: Adobe Illustrator 21.1.0, SVG Export Plug-In . SVG Version: 6.00 Build 0)  -->
<svg version="1.1" id="Layer_1" xmlns="http://www.w3.org/2000/svg" xmlns:xlink="http://www.w3.org/1999/xlink" x="0px" y="0px"
	 viewBox="0 0 144 72" style="enable-background:new 0 0 144 72;" xml:space="preserve">
<style type="text/css">
	.st0{fill:#FFFFFF;}
</style>
<rect x="1" y="44.8" width="3.9" height="3.9"/>
<rect x="5" y="48.7" width="3.9" height="3.9"/>
<rect x="8.9" y="48.7" width="3.9" height="3.9"/>
<rect x="12.8" y="52.7" width="3.9" height="3.9"/>
<rect x="12.8" y="56.6" width="3.9" height="3.9"/>
<rect x="16.8" y="56.6" width="3.9" height="3.9"/>
<rect x="20.7" y="56.6" width="3.9" height="3.9"/>
<rect x="24.7" y="56.6" width="3.9" height="3.9"/>
<rect x="24.7" y="60.5" width="3.9" height="3.9"/>
<rect x="28.6" y="60.5" width="3.9" height="3.9"/>
<rect x="32.5" y="60.5" width="3.9" height="3.9"/>
<rect x="36.5" y="60.5" width="3.9" height="3.9"/>
<rect x="40.4" y="60.5" width="3.9" height="3.9"/>
<rect x="40.4" y="64.5" width="3.9" height="3.9"/>
<rect x="44.3" y="64.5" width="3.9" height="3.9"/>
<rect x="48.3" y="64.5" width="3.9" height="3.9"/>
<rect x="52.2" y="64.5" width="3.9" height="3.9"/>
<rect x="56.2" y="64.5" width="3.9" height="3.9"/>
<rect x="60.1" y="64.5" width="3.9" height="3.9"/>
<rect x="64" y="64.5" width="3.9" height="3.9"/>
<rect x="68" y="64.5" width="3.9" height="3.9"/>
<rect x="138.8" y="44.8" transform="matrix(-1 -4.481094e-11 4.481094e-11 -1 281.6226 93.4881)" width="3.9" height="3.9"/>
<rect x="134.9" y="48.7" transform="matrix(-1 -4.481094e-11 4.481094e-11 -1 273.7476 101.3631)" width="3.9" height="3.9"/>
<rect x="131" y="48.7" transform="matrix(-1 -4.481094e-11 4.481094e-11 -1 265.8726 101.3631)" width="3.9" height="3.9"/>
<rect x="127" y="52.7" transform="matrix(-1 -4.481094e-11 4.481094e-11 -1 257.9976 109.2381)" width="3.9" height="3.9"/>
<rect x="127" y="56.6" transform="matrix(-1 -4.527280e-11 4.527280e-11 -1 257.9976 117.1131)" width="3.9" height="3.9"/>
<rect x="123.1" y="56.6" transform="matrix(-1 -4.434865e-11 4.434865e-11 -1 250.1226 117.1131)" width="3.9" height="3.9"/>
<rect x="119.2" y="56.6" transform="matrix(-1 -4.527280e-11 4.527280e-11 -1 242.2476 117.1131)" width="3.9" height="3.9"/>
<rect x="115.2" y="56.6" transform="matrix(-1 -4.481094e-11 4.481094e-11 -1 234.3726 117.1131)" width="3.9" height="3.9"/>
<rect x="115.2" y="60.5" transform="matrix(-1 -4.527280e-11 4.527280e-11 -1 234.3726 124.9881)" width="3.9" height="3.9"/>
<rect x="111.3" y="60.5" transform="matrix(-1 -4.481094e-11 4.481094e-11 -1 226.4976 124.9881)" width="3.9" height="3.9"/>
<rect x="107.3" y="60.5" transform="matrix(-1 -4.527280e-11 4.527280e-11 -1 218.6226 124.9881)" width="3.9" height="3.9"/>
<rect x="103.4" y="60.5" transform="matrix(-1 -4.481094e-11 4.481094e-11 -1 210.7476 124.9881)" width="3.9" height="3.9"/>
<rect x="99.5" y="60.5" transform="matrix(-1 -4.481094e-11 4.481094e-11 -1 202.8726 124.9881)" width="3.9" height="3.9"/>
<rect x="99.5" y="64.5" transform="matrix(-1 -4.481094e-11 4.481094e-11 -1 202.8726 132.8631)" width="3.9" height="3.9"/>
<rect x="95.5" y="64.5" transform="matrix(-1 -4.481094e-11 4.481094e-11 -1 194.9976 132.8631)" width="3.9" height="3.9"/>
<rect x="91.6" y="64.5" transform="matrix(-1 -4.481094e-11 4.481094e-11 -1 187.1226 132.8631)" width="3.9" height="3.9"/>
<rect x="87.7" y="64.5" transform="matrix(-1 -4.481094e-11 4.481094e-11 -1 179.2476 132.8631)" width="3.9" height="3.9"/>
<rect x="83.7" y="64.5" transform="matrix(-1 -4.527280e-11 4.527280e-11 -1 171.3726 132.8631)" width="3.9" height="3.9"/>
<rect x="79.8" y="64.5" transform="matrix(-1 -4.481094e-11 4.481094e-11 -1 163.4976 132.8631)" width="3.9" height="3.9"/>
<rect x="75.8" y="64.5" transform="matrix(-1 -4.481094e-11 4.481094e-11 -1 155.6226 132.8631)" width="3.9" height="3.9"/>
<rect x="71.9" y="64.5" transform="matrix(-1 -4.481094e-11 4.481094e-11 -1 147.7476 132.8631)" width="3.9" height="3.9"/>
<rect x="134.9" y="40.8" transform="matrix(-1 -1.224647e-16 1.224647e-16 -1 273.7476 85.6131)" width="3.9" height="3.9"/>
<rect x="131" y="40.8" transform="matrix(-1 -1.224647e-16 1.224647e-16 -1 265.8726 85.6131)" width="3.9" height="3.9"/>
<rect x="127" y="36.9" transform="matrix(-1 -1.224647e-16 1.224647e-16 -1 257.9976 77.7381)" width="3.9" height="3.9"/>
<rect x="123.1" y="33" transform="matrix(-1 -1.224647e-16 1.224647e-16 -1 250.1226 69.8631)" width="3.9" height="3.9"/>
<rect x="119.2" y="33" transform="matrix(-1 -1.224647e-16 1.224647e-16 -1 242.2476 69.8631)" width="3.9" height="3.9"/>
<rect x="115.2" y="33" transform="matrix(-1 -1.224647e-16 1.224647e-16 -1 234.3726 69.8631)" width="3.9" height="3.9"/>
<rect x="111.3" y="29" transform="matrix(-1 -1.224647e-16 1.224647e-16 -1 226.4976 61.9881)" width="3.9" height="3.9"/>
<rect x="107.3" y="29" transform="matrix(-1 -1.224647e-16 1.224647e-16 -1 218.6226 61.9881)" width="3.9" height="3.9"/>
<rect x="103.4" y="29" transform="matrix(-1 -1.224647e-16 1.224647e-16 -1 210.7476 61.9881)" width="3.9" height="3.9"/>
<rect x="99.5" y="25.1" transform="matrix(-1 -1.224647e-16 1.224647e-16 -1 202.8726 54.1131)" width="3.9" height="3.9"/>
<rect x="99.5" y="29" transform="matrix(-1 -1.224647e-16 1.224647e-16 -1 202.8726 61.9881)" width="3.9" height="3.9"/>
<rect x="91.6" y="13.3" transform="matrix(-1 -1.224647e-16 1.224647e-16 -1 187.1226 30.4881)" width="3.9" height="3.9"/>
<rect x="91.6" y="17.2" transform="matrix(-1 -1.224647e-16 1.224647e-16 -1 187.1226 38.3631)" width="3.9" height="3.9"/>
<rect x="87.7" y="9.3" transform="matrix(-1 -1.224647e-16 1.224647e-16 -1 179.2476 22.6131)" width="3.9" height="3.9"/>
<rect x="83.7" y="9.3" transform="matrix(-1 -1.224647e-16 1.224647e-16 -1 171.3726 22.6131)" width="3.9" height="3.9"/>
<rect x="79.8" y="5.4" transform="matrix(-1 -1.224647e-16 1.224647e-16 -1 163.4976 14.7381)" width="3.9" height="3.9"/>
<rect x="75.8" y="5.4" transform="matrix(-1 -1.224647e-16 1.224647e-16 -1 155.6226 14.7381)" width="3.9" height="3.9"/>
<rect x="71.9" y="5.4" transform="matrix(-1 -1.224647e-16 1.224647e-16 -1 147.7476 14.7381)" width="3.9" height="3.9"/>
<rect x="75.8" y="17.2" transform="matrix(-1 -1.224647e-16 1.224647e-16 -1 155.6226 38.3631)" width="3.9" height="3.9"/>
<rect x="83.7" y="17.2" transform="matrix(-1 -1.224647e-16 1.224647e-16 -1 171.3726 38.3631)" width="3.9" height="3.9"/>
<rect x="83.7" y="21.2" transform="matrix(-1 -1.224647e-16 1.224647e-16 -1 171.3726 46.2381)" width="3.9" height="3.9"/>
<rect x="79.8" y="17.2" transform="matrix(-1 -1.224647e-16 1.224647e-16 -1 163.4976 38.3631)" width="3.9" height="3.9"/>
<rect x="68" y="5.4" transform="matrix(-1 -1.224647e-16 1.224647e-16 -1 139.8726 14.7381)" width="3.9" height="3.9"/>
<rect x="5" y="40.8" width="3.9" height="3.9"/>
<rect x="8.9" y="40.8" width="3.9" height="3.9"/>
<rect x="12.8" y="36.9" width="3.9" height="3.9"/>
<rect x="16.8" y="33" width="3.9" height="3.9"/>
<rect x="20.7" y="33" width="3.9" height="3.9"/>
<rect x="24.7" y="33" width="3.9" height="3.9"/>
<rect x="28.6" y="29" width="3.9" height="3.9"/>
<rect x="32.5" y="29" width="3.9" height="3.9"/>
<rect x="36.5" y="29" width="3.9" height="3.9"/>
<rect x="48.3" y="13.3" width="3.9" height="3.9"/>
<rect x="52.2" y="9.3" width="3.9" height="3.9"/>
<rect x="48.3" y="17.2" width="3.9" height="3.9"/>
<rect x="56.2" y="9.3" width="3.9" height="3.9"/>
<rect x="60.1" y="5.4" width="3.9" height="3.9"/>
<rect x="64" y="5.4" width="3.9" height="3.9"/>
<rect x="103.4" y="44.8" transform="matrix(-1.836970e-16 1 -1 -1.836970e-16 152.1178 -58.6298)" width="3.9" height="3.9"/>
<rect x="103.4" y="40.8" transform="matrix(-1.836970e-16 1 -1 -1.836970e-16 148.1803 -62.5673)" width="3.9" height="3.9"/>
<rect x="103.4" y="36.9" transform="matrix(-1.836970e-16 1 -1 -1.836970e-16 144.2428 -66.5048)" width="3.9" height="3.9"/>
<rect x="95.5" y="48.7" transform="matrix(-1 -1.224647e-16 1.224647e-16 -1 194.9976 101.3631)" width="3.9" height="3.9"/>
<rect x="99.5" y="44.8" transform="matrix(-1 -1.224647e-16 1.224647e-16 -1 202.8726 93.4881)" width="3.9" height="3.9"/>
<rect x="91.6" y="48.7" transform="matrix(-1 -1.224647e-16 1.224647e-16 -1 187.1226 101.3631)" width="3.9" height="3.9"/>
<rect x="87.7" y="48.7" transform="matrix(-1 -1.224647e-16 1.224647e-16 -1 179.2476 101.3631)" width="3.9" height="3.9"/>
<rect x="83.7" y="48.7" transform="matrix(-1 -1.224647e-16 1.224647e-16 -1 171.3726 101.3631)" width="3.9" height="3.9"/>
<rect x="79.8" y="48.7" transform="matrix(-1 -1.224647e-16 1.224647e-16 -1 163.4976 101.3631)" width="3.9" height="3.9"/>
<rect x="75.8" y="48.7" transform="matrix(-1 -1.224647e-16 1.224647e-16 -1 155.6226 101.3631)" width="3.9" height="3.9"/>
<rect x="71.9" y="48.7" transform="matrix(-1 -1.224647e-16 1.224647e-16 -1 147.7476 101.3631)" width="3.9" height="3.9"/>
<rect x="36.5" y="44.8" width="3.9" height="3.9"/>
<rect x="36.5" y="40.8" width="3.9" height="3.9"/>
<rect x="40.4" y="33" width="3.9" height="3.9"/>
<rect x="40.4" y="29" width="3.9" height="3.9"/>
<rect x="40.4" y="25.1" width="3.9" height="3.9"/>
<rect x="44.3" y="21.2" width="3.9" height="3.9"/>
<rect x="99.5" y="33" width="3.9" height="3.9"/>
<rect x="95.5" y="21.2" width="3.9" height="3.9"/>
<rect x="36.5" y="36.9" width="3.9" height="3.9"/>
<rect x="44.3" y="48.7" width="3.9" height="3.9"/>
<rect x="40.4" y="44.8" width="3.9" height="3.9"/>
<rect x="48.3" y="48.7" width="3.9" height="3.9"/>
<rect x="52.2" y="48.7" width="3.9" height="3.9"/>
<rect x="56.2" y="48.7" width="3.9" height="3.9"/>
<rect x="60.1" y="48.7" width="3.9" height="3.9"/>
<rect x="64" y="48.7" width="3.9" height="3.9"/>
<rect x="68" y="48.7" width="3.9" height="3.9"/>
<polygon class="st0" points="131,44.8 131,40.8 127,40.8 127,36.9 115.2,36.9 115.2,33 103.4,33 103.4,36.9 107.3,36.9 107.3,40.8 
	107.3,44.8 107.3,48.7 99.5,48.7 99.5,52.7 44.3,52.7 44.3,48.7 36.5,48.7 36.5,44.8 36.5,40.8 36.5,36.9 40.4,36.9 40.4,33 
	28.6,33 28.6,36.9 16.8,36.9 16.8,40.8 12.8,40.8 12.8,44.8 5,44.8 5,48.7 12.8,48.7 12.8,52.7 16.8,52.7 16.8,56.6 28.6,56.6 
	28.6,60.5 44.3,60.5 44.3,64.5 99.5,64.5 99.5,60.5 115.2,60.5 115.2,56.6 127,56.6 127,52.7 131,52.7 131,48.7 138.8,48.7 
	138.8,44.8 "/>
<polygon class="st0" points="99.5,36.9 99.5,33 99.5,29 99.5,25.1 95.5,25.1 95.5,21.2 91.6,21.2 91.6,17.7 91.6,17.2 91.6,13.3 
	83.7,13.3 83.7,9.3 60.1,9.3 60.1,13.3 52.2,13.3 52.2,17.2 52.2,17.7 52.2,21.2 48.3,21.2 48.3,25.1 44.3,25.1 44.3,29 44.3,33 
	44.3,36.9 40.4,36.9 40.4,40.8 40.4,44.8 44.3,44.8 44.3,48.7 99.5,48.7 99.5,44.8 103.4,44.8 103.4,40.8 103.4,36.9 "/>
</svg>
