<svg xmlns="http://www.w3.org/2000/svg" viewBox="0 0 472.8 454.39">
  <defs>
    <style>
      .cls-1 {
        isolation: isolate;
      }

      .cls-2 {
        fill: #febc23;
      }

      .cls-3 {
        mix-blend-mode: soft-light;
      }

      .cls-4 {
        fill: #fff;
      }

      .cls-5 {
        fill: #2d2932;
      }

      .cls-6 {
        font-size: 36px;
      }

      .cls-6, .cls-7 {
        fill: #231f20;
        font-family: ChunkFivePrint, ChunkFive Print;
      }

      .cls-7 {
        font-size: 24px;
      }

      .cls-8 {
        letter-spacing: -0.06em;
      }

      .cls-9 {
        letter-spacing: -0.04em;
      }
    </style>
  </defs>
  <g class="cls-1">
    <g id="Layer_2" data-name="Layer 2">
      <g id="Layer_7" data-name="Layer 7">
        <rect class="cls-2" x="43.85" width="422" height="421"/>
      </g>
      <g id="white_gears" data-name="white gears">
        <g class="cls-3">
          <path class="cls-4" d="M137.05,18.59l4.77-7.8L135.3,4.27l-7.81,4.79a24.93,24.93,0,0,0-5.61-2.32L120.26,0H110l-1.63,6.74a25.05,25.05,0,0,0-5.6,2.32L95,4.27l-6.52,6.52,4.77,7.8a25,25,0,0,0-2.35,5.63L82,26.35v9.23l8.83,2.12a25.25,25.25,0,0,0,2.35,5.7l-4.73,7.74L95,57.66l7.71-4.72a25.45,25.45,0,0,0,5.74,2.38l2.11,8.78h9.22l2.11-8.78a25.45,25.45,0,0,0,5.74-2.38l7.71,4.72,6.52-6.52-4.74-7.74a25.28,25.28,0,0,0,2.36-5.7l8.83-2.12V26.35l-8.87-2.13A25,25,0,0,0,137.05,18.59ZM115.13,41.72A10.7,10.7,0,1,1,125.83,31,10.7,10.7,0,0,1,115.13,41.72Z"/>
          <path class="cls-4" d="M185.22,0l-.09,4.81L192,6.58,195.2.49a19.33,19.33,0,0,0,4-.49Z"/>
          <polygon class="cls-4" points="200.07 0 204.7 4.79 210.77 1.22 210.4 0 200.07 0"/>
          <g>
            <polygon class="cls-4" points="69.17 0 68.81 2.74 74.7 4.98 78.1 0 69.17 0"/>
            <polygon class="cls-4" points="97.06 0 100.33 4.24 106.08 1.67 105.77 0 97.06 0"/>
            <path class="cls-4" d="M79.47,0c.75.15,1.51.29,2.29.39l1.48,6.16h6.29L91,.39c.77-.1,1.51-.24,2.26-.39Z"/>
          </g>
          <g>
            <path class="cls-4" d="M171.14,7.24A15.76,15.76,0,1,0,186.9,23,15.76,15.76,0,0,0,171.14,7.24Zm0,30.36A14.6,14.6,0,1,1,185.74,23,14.6,14.6,0,0,1,171.14,37.6Z"/>
            <path class="cls-4" d="M176.65,23a5.51,5.51,0,1,0-5.51,5.51A5.51,5.51,0,0,0,176.65,23Zm-5.51,3.31A3.31,3.31,0,1,1,174.45,23,3.31,3.31,0,0,1,171.14,26.31Z"/>
            <path class="cls-4" d="M194,24.77v-3.5l-3.41-.82a19.34,19.34,0,0,0-.65-3.06l2.77-2.13-1.43-3.2-3.43.65a18.61,18.61,0,0,0-1.14-1.65l1.82-3-2.47-2.47-3,1.82a19.12,19.12,0,0,0-2.63-1.71l.45-3.45L177.64,1l-2,2.87c-.65-.15-1.31-.27-2-.36L172.89.15h-3.5l-.81,3.38a19.24,19.24,0,0,0-3.07.66l-2.13-2.76-3.2,1.44.65,3.42a18.61,18.61,0,0,0-1.65,1.14l-3-1.82-2.47,2.47,1.82,3a20.71,20.71,0,0,0-1.7,2.63l-3.46-.45-1.25,3.28,2.89,2c-.15.64-.27,1.3-.36,2l-3.4.82v3.5l3.41.82a19.21,19.21,0,0,0,.65,3.05l-2.78,2.14L151,34l3.45-.65c.35.56.72,1.1,1.12,1.63l-1.83,3,2.47,2.47,3-1.84a19.29,19.29,0,0,0,2.6,1.69l-.45,3.49L164.64,45l2-2.91a17.72,17.72,0,0,0,1.93.35l.83,3.44h3.5l.83-3.44a19,19,0,0,0,3-.64l2.15,2.79,3.2-1.43-.65-3.47a18,18,0,0,0,1.62-1.12l3,1.84L188.55,38l-1.83-3a20.49,20.49,0,0,0,1.7-2.61l3.48.45,1.24-3.28-2.89-2a18.08,18.08,0,0,0,.35-1.95ZM188.53,23A17.39,17.39,0,1,1,171.14,5.61,17.4,17.4,0,0,1,188.53,23Z"/>
            <path class="cls-4" d="M171.14,9.28a13.71,13.71,0,0,0-12,7.09l6.26,2.68a7,7,0,0,1,12.4,1.82l5.92-3.36A13.71,13.71,0,0,0,171.14,9.28Z"/>
            <path class="cls-4" d="M171.87,29.94V36.7a13.72,13.72,0,0,0,13-13.7,13.5,13.5,0,0,0-.4-3.27l-6.35,3.6A7,7,0,0,1,171.87,29.94Z"/>
            <path class="cls-4" d="M164.16,23a6.69,6.69,0,0,1,.26-1.86l-6.23-2.67a13.71,13.71,0,0,0,11.38,18.15V29.8A7,7,0,0,1,164.16,23Z"/>
          </g>
          <polygon class="cls-4" points="132.68 0 134.44 1.76 137.32 0 132.68 0"/>
          <polygon class="cls-4" points="159.21 0 162.09 1.76 163.85 0 159.21 0"/>
          <path class="cls-4" d="M138.28,0l-.66,3.91,4.16,1.78,2.56-3.45.66.14,1,4.17h4.52l1-4.17.28,0,2.48,3.5,4.2-1.69L157.88,0Z"/>
          <path class="cls-4" d="M71.2,29.81V25.29l-4-1c0-.14,0-.27-.08-.41l3.37-2.39-1.69-4.2-4,.6c-.15-.25-.31-.49-.47-.73l2.12-3.47-3.19-3.2-3.45,2.11-.4-.28.67-4L55.88,6.6l-2.4,3.22c-.29-.07-.59-.13-.89-.18l-.94-3.91H47.13l-.94,3.91-.51.09L43.85,7.14V47.22l1.61-2.17.66.13,1,4.18h4.52l1-4.18.27,0,2.49,3.5L59.61,47,59,42.72c.2-.12.39-.25.58-.38l3.65,2.23,3.19-3.2L64.2,37.76l.19-.27,4.17.71L70.34,34,67,31.54c.06-.25.11-.5.16-.75Zm-21.81,1.4a3.79,3.79,0,1,1,3.79-3.79A3.79,3.79,0,0,1,49.39,31.21Z"/>
          <path class="cls-4" d="M253.18,36.25v-6l-5.36-1.29c0-.19-.06-.37-.1-.55l4.49-3.19L250,19.57l-5.39.79q-.3-.49-.63-1l2.84-4.64-4.27-4.28-4.6,2.82-.55-.37.91-5.32-5.56-2.37-3.2,4.3c-.4-.09-.79-.17-1.2-.24l-1.25-5.22h-6L219.76,9.3c-.22,0-.45.07-.67.12L216,5.06l-5.61,2.25.78,5.33q-.51.31-1,.66l-4.6-2.82-4.28,4.28,2.85,4.64c-.12.16-.24.34-.35.51L198.42,19l-2.37,5.56,4.42,3.28q-.12.54-.21,1.08l-5.37,1.29v6l5.43,1.3c0,.17.07.33.1.5l-4.55,3.23,2.25,5.61,5.59-.82c.18.27.35.54.54.8l-3,4.83L205.57,56l4.86-3,.33.22-.95,5.63,5.56,2.38,3.42-4.61c.29.07.59.13.89.18L221,62.37h6l1.34-5.58.37-.07,3.32,4.68,5.61-2.25-.83-5.65c.26-.17.52-.33.77-.51l4.87,3,4.27-4.27-3-4.83.26-.36,5.57,1L252,41.9l-4.49-3.34c.08-.33.15-.67.21-1ZM224,38.11a5.06,5.06,0,1,1,5.06-5.06A5.06,5.06,0,0,1,224,38.11Z"/>
          <path class="cls-4" d="M331.68,48.93V39.71l-8.87-2.13a24.79,24.79,0,0,0-2.35-5.64l4.78-7.79-6.52-6.52-7.82,4.78a25.5,25.5,0,0,0-5.6-2.31l-2.15-8.92h-9.22l-2.14,8.92a25.3,25.3,0,0,0-5.6,2.31l-7.82-4.78-6.52,6.52,4.77,7.79a25.25,25.25,0,0,0-2.35,5.64l-8.86,2.13v9.22l8.83,2.12a24.69,24.69,0,0,0,2.35,5.71l-4.74,7.73L278.37,71l7.71-4.72a25,25,0,0,0,5.74,2.38l2.11,8.79h9.22l2.12-8.79A24.92,24.92,0,0,0,311,66.29L318.72,71l6.52-6.52-4.74-7.73a25.14,25.14,0,0,0,2.35-5.71Zm-33.14,6.15a10.7,10.7,0,1,1,10.7-10.7A10.7,10.7,0,0,1,298.54,55.08Z"/>
          <path class="cls-4" d="M384.41,0a8.19,8.19,0,0,1-8.16,2.5A8.18,8.18,0,0,1,372.17,0h-13l-4.5,4.35,3.57,6.07,6.61-2a19.48,19.48,0,0,0,3.79,2.87l-.12,6.9,6.82,1.77,3.24-6.1a19,19,0,0,0,4.71-.66l4.8,5,6.07-3.57-2-6.63A19.46,19.46,0,0,0,395,4.18l6.94.12L403.05,0Z"/>
          <g>
            <path class="cls-4" d="M285.19,0A26.11,26.11,0,0,1,269.8,5a26.11,26.11,0,0,1-15.39-5h-3.34A28.2,28.2,0,0,0,269.8,7.09,28.2,28.2,0,0,0,288.53,0Z"/>
            <path class="cls-4" d="M298,0h-5.25A31.15,31.15,0,0,1,269.8,10,31.15,31.15,0,0,1,246.88,0h-5.25l.18.25L238.5,5.64,243,10.09l5.4-3.31a35.27,35.27,0,0,0,4.67,3l-.8,6.28,5.88,2.24,3.58-5.23c1.14.26,2.3.48,3.48.63l1.48,6.17H273l1.48-6.17a33.82,33.82,0,0,0,5.45-1.16l3.87,5L289.49,15,288.33,8.8a34.29,34.29,0,0,0,2.91-2l5.4,3.31,4.46-4.45L297.79.25Z"/>
            <path class="cls-4" d="M271.11,0V3.38A24.59,24.59,0,0,0,282.32,0Z"/>
            <path class="cls-4" d="M257.34,0A24.5,24.5,0,0,0,267,3.25V0Z"/>
          </g>
          <g>
            <path class="cls-4" d="M465.85,15.2a18.29,18.29,0,0,1-7.66,3.13A18.46,18.46,0,0,1,437,3.08,17.81,17.81,0,0,1,436.8,0h-1.47a19.67,19.67,0,0,0,.24,3.32,19.92,19.92,0,0,0,22.86,16.46A19.73,19.73,0,0,0,465.85,17Z"/>
            <path class="cls-4" d="M459.39,0a4.19,4.19,0,0,1-3.49,4.25A4.19,4.19,0,0,1,451.1.79a5.32,5.32,0,0,1-.05-.79h-2.78a7.47,7.47,0,0,0,.09,1.24,7,7,0,0,0,8,5.75,6.94,6.94,0,0,0,5.83-7Z"/>
            <path class="cls-4" d="M465.85,19.35a21.94,21.94,0,0,1-7.09,2.46A22,22,0,0,1,433.54,3.65,22.72,22.72,0,0,1,433.25,0h-2.83c0,.3,0,.59,0,.89l-4.08,1.72L427.06,7l4.42.33A23.76,23.76,0,0,0,432.91,11l-3,3.24,2.44,3.7,4.17-1.51a24.64,24.64,0,0,0,1.74,1.8l-1.68,4.11,3.59,2.59L443.51,22a24.44,24.44,0,0,0,3.59,1.58l.15,4.45,4.34.89,1.89-4c.82.05,1.65.07,2.49,0L457.69,29l4.37-.72.34-4.44a24.4,24.4,0,0,0,3.45-1.34Z"/>
            <path class="cls-4" d="M465.85,0H464a8.82,8.82,0,0,1-6.49,8.63l1.37,8.43a17.25,17.25,0,0,0,6.93-3.25Z"/>
            <path class="cls-4" d="M446.53,1.54a8,8,0,0,1-.1-1.54h-8.54a17.8,17.8,0,0,0,.23,2.9A17.35,17.35,0,0,0,456,17.44l-1.39-8.52A8.81,8.81,0,0,1,446.53,1.54Z"/>
          </g>
          <g>
            <path class="cls-4" d="M354.56,20.59a15.76,15.76,0,1,0,15.76,15.76A15.77,15.77,0,0,0,354.56,20.59Zm0,30.36a14.6,14.6,0,1,1,14.59-14.6A14.6,14.6,0,0,1,354.56,51Z"/>
            <path class="cls-4" d="M360.06,36.35a5.51,5.51,0,1,0-5.5,5.51A5.51,5.51,0,0,0,360.06,36.35Zm-5.5,3.31a3.31,3.31,0,1,1,3.3-3.31A3.31,3.31,0,0,1,354.56,39.66Z"/>
            <path class="cls-4" d="M377.43,38.13V34.62L374,33.8a19.43,19.43,0,0,0-.64-3l2.77-2.14-1.44-3.19-3.43.64a19,19,0,0,0-1.13-1.64l1.82-3L369.49,19l-3,1.82a20.79,20.79,0,0,0-2.63-1.71l.44-3.45-3.27-1.25-2,2.88a18,18,0,0,0-2-.36l-.81-3.39h-3.5L352,16.89a18.4,18.4,0,0,0-3.07.65l-2.13-2.75-3.19,1.43.64,3.42c-.57.35-1.12.74-1.65,1.14l-3-1.82-2.48,2.48,1.83,3A19,19,0,0,0,337.26,27l-3.46-.44-1.24,3.27,2.88,2a18.08,18.08,0,0,0-.35,1.95l-3.41.82v3.51l3.41.82a20.26,20.26,0,0,0,.65,3L333,44.14l1.43,3.19,3.46-.65A16.78,16.78,0,0,0,339,48.31l-1.84,3,2.48,2.48,3-1.84a19.74,19.74,0,0,0,2.61,1.69l-.45,3.49,3.27,1.25,2-2.91c.64.14,1.28.26,1.94.35l.83,3.43h3.5l.82-3.43a19.09,19.09,0,0,0,3-.65L362.32,58l3.2-1.43-.65-3.46c.56-.35,1.1-.72,1.62-1.12l3,1.84L372,51.31l-1.84-3a19.81,19.81,0,0,0,1.7-2.61l3.48.45,1.25-3.27-2.9-2q.22-1,.36-1.95ZM372,36.35A17.39,17.39,0,1,1,354.56,19,17.39,17.39,0,0,1,372,36.35Z"/>
            <path class="cls-4" d="M354.56,22.64a13.69,13.69,0,0,0-12,7.09l6.25,2.67a7,7,0,0,1,12.4,1.82l5.93-3.36A13.72,13.72,0,0,0,354.56,22.64Z"/>
            <path class="cls-4" d="M355.28,43.29v6.76a13.71,13.71,0,0,0,13-13.7,14.14,14.14,0,0,0-.39-3.27l-6.36,3.6A7,7,0,0,1,355.28,43.29Z"/>
            <path class="cls-4" d="M347.58,36.35a7.14,7.14,0,0,1,.25-1.86l-6.22-2.67A13.72,13.72,0,0,0,353,50V43.15A7,7,0,0,1,347.58,36.35Z"/>
          </g>
          <path class="cls-4" d="M353.5.35V0H334.87a3.8,3.8,0,0,1-3.19,1.75A3.77,3.77,0,0,1,328.5,0H309.87V.35l4.06,1c0,.12.05.25.07.37l-3.4,2.42,1.68,4.2,4.19-.62c.13.21.26.41.4.6l-2.21,3.62,3.19,3.2,3.65-2.23.25.16L321,17.27,325.19,19l2.57-3.44.66.13,1,4.18h4.52l1-4.18.27-.05,2.49,3.5,4.2-1.68-.63-4.24.58-.37,3.65,2.23,3.2-3.2L346.49,8.3l.19-.26,4.17.7,1.78-4.16-3.36-2.5c.06-.24.11-.5.16-.75Z"/>
          <path class="cls-4" d="M436.6,49.6v-6l-5.37-1.29-.09-.55,4.48-3.19-2.25-5.61-5.38.79-.63-1,2.84-4.64-4.28-4.27-4.6,2.81-.54-.37.9-5.31-5.56-2.38-3.2,4.31c-.39-.1-.79-.18-1.19-.25l-1.26-5.21h-6l-1.25,5.21-.68.13-3.1-4.37-5.61,2.25.79,5.33c-.34.21-.67.44-1,.66L389,23.84l-4.27,4.27,2.84,4.64-.34.51-5.37-.91-2.38,5.56,4.42,3.29-.21,1.07-5.36,1.29v6l5.43,1.31.09.49-4.55,3.23,2.25,5.61,5.6-.82q.25.4.54.81l-3,4.82L389,69.33l4.87-3,.33.22-1,5.63,5.56,2.37,3.43-4.6.88.18,1.34,5.58h6l1.35-5.58.36-.07,3.33,4.67,5.6-2.25-.83-5.65.78-.5,4.86,3,4.28-4.28-3-4.82c.08-.13.17-.24.25-.36l5.58.94,2.37-5.56L431,51.91c.08-.33.15-.66.22-1Zm-29.15,1.87a5.07,5.07,0,1,1,5.07-5.06A5.07,5.07,0,0,1,407.45,51.47Z"/>
        </g>
      </g>
      <g id="wrnch">
        <g>
          <path class="cls-5" d="M390.51,305.85l9.21,18.48-1.92,8.75-15.66,7.8L374,337.14l-10.16-20.39s-2.85-2.6-3.44-1.22a42.09,42.09,0,0,0-3,8l13.41,26.92c2,4.07,17.93,7.12,25.81,3.19,9.11-4.54,17.81-17.66,15.19-22.93l-12.27-24.64c-2.5-1.65-5.38-2.46-8.11-3.63C389.69,301.73,390.51,305.85,390.51,305.85Z"/>
          <polygon class="cls-5" points="441.48 421 402.97 343.69 386.74 351.77 421.23 421 441.48 421"/>
        </g>
      </g>
      <g id="screwdriver">
        <g>
          <rect class="cls-5" x="76.4" y="338.16" width="73.42" height="10.49" transform="translate(-246.32 304.26) rotate(-65.55)"/>
          <polygon class="cls-5" points="132.94 312.45 123.39 308.11 121.47 299.67 135.87 277.5 147.8 282.93 140.57 308.35 132.94 312.45"/>
          <rect class="cls-5" x="95.12" y="363.15" width="4.92" height="28.85" transform="translate(-286.52 310.14) rotate(-65.55)"/>
          <polygon class="cls-5" points="93.68 421 104.25 397.74 77.99 385.8 61.99 421 93.68 421"/>
          <rect class="cls-5" x="88.34" y="372.62" width="10.98" height="26.39" transform="translate(-296.23 311.57) rotate(-65.55)"/>
        </g>
      </g>
      <g id="gear_22" data-name="gear 22">
        <path class="cls-5" d="M123.08,223.54V212.32l-10.79-2.59a30.22,30.22,0,0,0-2.86-6.85l5.81-9.48-7.93-7.94-9.51,5.82A30.5,30.5,0,0,0,91,188.47l-2.6-10.85H77.16l-2.61,10.85a30.7,30.7,0,0,0-6.82,2.81l-9.5-5.82-7.94,7.94,5.81,9.48a30.22,30.22,0,0,0-2.86,6.85L43.85,212v11.89l9.34,2.25a30.67,30.67,0,0,0,2.87,6.94l-5.77,9.4,7.94,7.94,9.38-5.75a30.24,30.24,0,0,0,7,2.9l2.57,10.69H88.38l2.56-10.69a30.24,30.24,0,0,0,7-2.9l9.39,5.75,7.93-7.94-5.76-9.4a30.64,30.64,0,0,0,2.86-6.94ZM82.77,231a13,13,0,1,1,13-13A13,13,0,0,1,82.77,231Z"/>
      </g>
      <g id="gear_23" data-name="gear 23">
        <path class="cls-5" d="M170.08,100.46V89.24l-10.79-2.59a30.27,30.27,0,0,0-2.85-6.86l5.8-9.48-7.93-7.93L144.8,68.2A30.53,30.53,0,0,0,138,65.38l-2.6-10.85H124.16l-2.61,10.85a30.46,30.46,0,0,0-6.81,2.82l-9.51-5.82L97.3,70.31l5.8,9.48a30.76,30.76,0,0,0-2.86,6.86L89.45,89.24v11.22L100.2,103a30.19,30.19,0,0,0,2.86,6.94l-5.76,9.41,7.93,7.93,9.38-5.75a30.71,30.71,0,0,0,7,2.91l2.57,10.68h11.22L138,124.48a31.09,31.09,0,0,0,7-2.91l9.38,5.75,7.93-7.93L156.48,110a30.46,30.46,0,0,0,2.86-6.94Zm-40.31,7.48a13,13,0,1,1,13-13A13,13,0,0,1,129.77,107.94Z"/>
      </g>
      <g id="gear_24" data-name="gear 24">
        <path class="cls-5" d="M208.55,169.25l2.15-8.3-7.48-4a23.46,23.46,0,0,0-.8-5.62l6.11-5.9-4.35-7.38L196,140.54a23.18,23.18,0,0,0-4.5-3.39l.15-8.52-8.3-2.15-4,7.52a23,23,0,0,0-5.58.78l-5.92-6.13L160.48,133l2.48,8.12a23.57,23.57,0,0,0-3.43,4.53l-8.47-.15-2.15,8.3,7.45,4a23.43,23.43,0,0,0,.78,5.68l-6.06,5.85,4.35,7.39,8-2.45a23,23,0,0,0,4.61,3.48l-.15,8.4,8.3,2.15,4-7.41a23.15,23.15,0,0,0,5.71-.81l5.84,6,7.39-4.35-2.46-8.06a23.67,23.67,0,0,0,3.45-4.59Zm-31.26-2.19a9.95,9.95,0,1,1,12.13-7.14A9.95,9.95,0,0,1,177.29,167.06Z"/>
      </g>
      <g id="gear_26" data-name="gear 26">
        <g>
          <path class="cls-5" d="M204,72.34a24.23,24.23,0,1,0,27.81,20A24.23,24.23,0,0,0,204,72.34Zm7.5,46.06A22.44,22.44,0,1,1,230,92.65,22.43,22.43,0,0,1,211.47,118.4Z"/>
          <path class="cls-5" d="M216.23,94.89a8.47,8.47,0,1,0-7,9.72A8.49,8.49,0,0,0,216.23,94.89Zm-7.55,6.38a5.09,5.09,0,1,1,4.21-5.83A5.07,5.07,0,0,1,208.68,101.27Z"/>
          <path class="cls-5" d="M243,93.29,242.15,88l-5.37-.4A30.58,30.58,0,0,0,235,83.1l3.67-3.93-3-4.49L230.7,76.5a29.6,29.6,0,0,0-2.13-2.21l2-5-4.37-3.15-4.06,3.5a30,30,0,0,0-4.41-2l-.18-5.34L212.3,61.3,210,66.14c-1-.07-2-.09-3.08-.06l-2.07-4.94-5.32.87-.4,5.34a29.65,29.65,0,0,0-4.49,1.75l-3.91-3.66-4.5,3,1.83,5a29.94,29.94,0,0,0-2.22,2.14l-5-2-3.14,4.37,3.5,4.07a29.94,29.94,0,0,0-1.94,4.41l-5.36.18-1.08,5.27,4.87,2.29q-.1,1.52-.06,3.06l-5,2.08.86,5.32,5.38.4a30.34,30.34,0,0,0,1.74,4.46L177,113.4l3,4.5,5.08-1.84c.67.76,1.38,1.49,2.11,2.18l-2,5,4.37,3.15,4.1-3.53a31,31,0,0,0,4.37,1.92l.18,5.41,5.28,1.08,2.3-4.91q1.5.1,3,.06l2.09,5,5.32-.86.4-5.41a30.18,30.18,0,0,0,4.45-1.73l3.95,3.7,4.5-3-1.84-5.09q1.14-1,2.19-2.1l5,2,3.15-4.37-3.53-4.1a31,31,0,0,0,1.93-4.37l5.39-.18,1.08-5.28L238,98.43c.07-1,.09-2,.06-3.05ZM234.25,92a26.73,26.73,0,1,1-30.68-22.09A26.72,26.72,0,0,1,234.25,92Z"/>
          <path class="cls-5" d="M204.48,75.44A21.08,21.08,0,0,0,188,89.16l10.16,2.52a10.74,10.74,0,0,1,19.27-.3l8.16-6.56A21.08,21.08,0,0,0,204.48,75.44Z"/>
          <path class="cls-5" d="M210.69,106.6l1.66,10.26A21.09,21.09,0,0,0,227.27,88l-8.75,7A10.72,10.72,0,0,1,210.69,106.6Z"/>
          <path class="cls-5" d="M197.28,98a10.81,10.81,0,0,1-.08-2.89l-10.1-2.51a21.09,21.09,0,0,0,21.75,24.74L207.16,107A10.73,10.73,0,0,1,197.28,98Z"/>
        </g>
      </g>
      <g id="gear_side" data-name="gear side">
        <g>
          <path class="cls-5" d="M45.6,100.35A31.42,31.42,0,1,0,77,131.77,31.42,31.42,0,0,0,45.6,100.35Zm0,60.52a29.1,29.1,0,1,1,29.1-29.1A29.1,29.1,0,0,1,45.6,160.87Z"/>
          <path class="cls-5" d="M56.58,131.77a11,11,0,1,0-11,11A11,11,0,0,0,56.58,131.77Zm-11,6.6a6.6,6.6,0,1,1,6.59-6.6A6.59,6.59,0,0,1,45.6,138.37Z"/>
          <path class="cls-5" d="M91.2,135.31v-7l-6.79-1.64a38.52,38.52,0,0,0-1.29-6.09l5.51-4.26L85.78,110l-6.84,1.29A39.67,39.67,0,0,0,76.68,108L80.31,102,75.37,97.1l-5.93,3.63a39.9,39.9,0,0,0-5.24-3.41l.89-6.87L58.56,88l-3.91,5.73A36.48,36.48,0,0,0,50.71,93l-1.62-6.75h-7L40.49,93a38.79,38.79,0,0,0-6.13,1.3l-4.23-5.49-6.38,2.86L25,98.46a39.19,39.19,0,0,0-3.29,2.27L15.82,97.1,10.89,102,14.52,108a40.4,40.4,0,0,0-3.4,5.23l-6.89-.88-2.49,6.52,5.76,3.94a38.81,38.81,0,0,0-.71,3.9L0,128.33v7l6.8,1.63A39.57,39.57,0,0,0,8.1,143l-5.53,4.27,2.85,6.37,6.89-1.29a38.06,38.06,0,0,0,2.24,3.24l-3.66,6,4.93,4.94,6-3.67a39.87,39.87,0,0,0,5.2,3.37l-.9,7,6.52,2.48,4-5.8c1.27.3,2.55.53,3.86.71l1.65,6.84h7l1.65-6.84a38.8,38.8,0,0,0,6-1.29l4.29,5.56L67.44,172l-1.29-6.89c1.12-.7,2.2-1.44,3.24-2.24l6,3.67,4.94-4.94-3.66-6a38.92,38.92,0,0,0,3.38-5.2l6.94.9,2.49-6.53-5.78-3.95c.3-1.27.54-2.57.72-3.89Zm-10.94-3.54A34.67,34.67,0,1,1,45.6,97.11,34.66,34.66,0,0,1,80.26,131.77Z"/>
          <path class="cls-5" d="M45.6,104.43a27.34,27.34,0,0,0-23.94,14.13l12.47,5.34a13.91,13.91,0,0,1,24.72,3.63l11.81-6.7A27.35,27.35,0,0,0,45.6,104.43Z"/>
          <path class="cls-5" d="M47.05,145.61v13.47a27.34,27.34,0,0,0,25.89-27.31,27,27,0,0,0-.79-6.52l-12.66,7.18A13.92,13.92,0,0,1,47.05,145.61Z"/>
          <path class="cls-5" d="M31.69,131.77a14.19,14.19,0,0,1,.5-3.71l-12.4-5.31a27.32,27.32,0,0,0,22.68,36.19V145.33A13.92,13.92,0,0,1,31.69,131.77Z"/>
        </g>
      </g>
      <g id="gear">
        <path class="cls-5" d="M149.62,164.45V159l-4.89-1.18c0-.16,0-.33-.09-.5l4.09-2.9-2-5.11-4.9.72c-.19-.3-.38-.59-.58-.88l2.59-4.22L139.9,141l-4.19,2.56-.49-.34.81-4.83L131,136.21l-2.92,3.92c-.36-.08-.72-.16-1.09-.22l-1.14-4.75h-5.5l-1.14,4.75-.62.11-2.82-4-5.11,2,.71,4.85q-.45.28-.9.6L106.26,141l-3.89,3.89L105,149.1l-.31.47-4.89-.83-2.17,5.06,4,3c-.07.32-.14.64-.19,1L96.54,159v5.5l4.95,1.19c0,.15.05.3.08.45L97.43,169l2,5.11,5.09-.75c.16.25.32.49.49.73l-2.69,4.4,3.89,3.89,4.43-2.72.3.2-.87,5.13,5.06,2.16L118.3,183l.81.16,1.22,5.09h5.5l1.22-5.09c.11,0,.23,0,.34-.06l3,4.26,5.11-2-.76-5.15c.24-.15.48-.3.71-.46l4.43,2.72,3.89-3.89-2.69-4.4.23-.33,5.07.86,2.16-5.06-4.08-3c.07-.3.13-.6.19-.91Zm-26.54,1.7a4.61,4.61,0,1,1,4.61-4.61A4.61,4.61,0,0,1,123.08,166.15Z"/>
      </g>
      <g id="gear_17" data-name="gear 17">
        <path class="cls-5" d="M250.71,224.36V217l-6.52-1.57-.12-.67,5.46-3.88-2.74-6.82-6.55,1c-.25-.39-.5-.79-.77-1.17l3.46-5.64-5.2-5.2-5.6,3.42-.66-.45,1.1-6.46-6.76-2.89-3.9,5.23c-.48-.11-1-.21-1.45-.3l-1.53-6.34-18.36-2,9.49,8.34-.83.16-3.77-5.32-6.82,2.74,1,6.49c-.41.26-.81.53-1.21.8L192.79,193l-5.2,5.2,3.46,5.64c-.15.21-.28.41-.42.63l-6.53-1.11-2.89,6.76,5.37,4c-.09.43-.18.86-.25,1.3L179.8,217v7.35l6.61,1.59c0,.2.07.4.11.6L181,230.48l2.73,6.83,6.81-1c.21.34.43.66.66,1l-3.6,5.88,5.2,5.2,5.92-3.63.4.27L198,251.85l6.76,2.88,4.17-5.59c.35.07.71.15,1.07.21l1.63,6.79h7.35l1.63-6.79.45-.08,4,5.69,6.83-2.74-1-6.88c.32-.19.64-.4.95-.61l5.92,3.63,5.2-5.2-3.6-5.88.31-.43,6.78,1.15,2.89-6.76-5.46-4.07c.09-.4.18-.81.26-1.22Zm-35.45,2.27a6.16,6.16,0,1,1,6.16-6.16A6.16,6.16,0,0,1,215.26,226.63Z"/>
      </g>
      <g id="gear_18" data-name="gear 18">
        <path class="cls-5" d="M346.21,239.79V228.57L335.42,226a30,30,0,0,0-2.86-6.86l5.81-9.48-7.93-7.93-9.51,5.82a30.53,30.53,0,0,0-6.82-2.82l-2.6-10.84H300.29l-2.61,10.84a30.73,30.73,0,0,0-6.82,2.82l-9.5-5.82-7.94,7.93,5.81,9.48a30.49,30.49,0,0,0-2.86,6.86l-10.79,2.59v11.22l10.75,2.58a30,30,0,0,0,2.86,6.94l-5.77,9.41,7.94,7.93,9.38-5.74a30.24,30.24,0,0,0,7,2.9l2.57,10.68h11.22l2.56-10.68a30.24,30.24,0,0,0,7-2.9l9.39,5.74,7.93-7.93-5.76-9.41a30.46,30.46,0,0,0,2.86-6.94Zm-40.31,7.48a13,13,0,1,1,13-13A13,13,0,0,1,305.9,247.27Z"/>
      </g>
      <g id="gear_19" data-name="gear 19">
        <path class="cls-5" d="M393.21,116.7V105.48l-10.78-2.59A31,31,0,0,0,379.57,96l5.8-9.48-7.93-7.93-9.51,5.82a30.53,30.53,0,0,0-6.82-2.82l-2.6-10.84H347.29l-2.61,10.85a30,30,0,0,0-6.81,2.81l-9.51-5.82-7.93,7.93,5.8,9.48a31,31,0,0,0-2.86,6.86l-10.78,2.59V116.7l10.74,2.58a30.72,30.72,0,0,0,2.86,7l-5.76,9.4,7.93,7.94,9.38-5.75a30.61,30.61,0,0,0,7,2.9l2.57,10.69h11.22l2.57-10.69a30.61,30.61,0,0,0,7-2.9l9.38,5.75,7.93-7.94-5.76-9.4a30.72,30.72,0,0,0,2.86-7Zm-40.31,7.48a13,13,0,1,1,13-13A13,13,0,0,1,352.9,124.18Z"/>
      </g>
      <g id="gear_20" data-name="gear 20">
        <path class="cls-5" d="M431.68,185.49l2.15-8.29-7.48-4a23.46,23.46,0,0,0-.8-5.62l6.11-5.9-4.35-7.39-8.15,2.49a22.79,22.79,0,0,0-4.5-3.39l.15-8.53-8.3-2.15-4,7.53a23.11,23.11,0,0,0-5.58.78L391,144.9l-7.39,4.35,2.48,8.12a23.27,23.27,0,0,0-3.43,4.53l-8.47-.15-2.15,8.3,7.45,4a23.51,23.51,0,0,0,.78,5.69l-6.06,5.85,4.35,7.39,8-2.45a23.35,23.35,0,0,0,4.61,3.48l-.15,8.4,8.3,2.15,3.95-7.42a23.14,23.14,0,0,0,5.71-.8l5.84,6,7.39-4.34-2.46-8.07a23.3,23.3,0,0,0,3.45-4.58Zm-31.25-2.19a9.94,9.94,0,1,1,12.12-7.13A9.94,9.94,0,0,1,400.43,183.3Z"/>
      </g>
      <g id="gear_21" data-name="gear 21">
        <g>
          <path class="cls-5" d="M270.93,120a34.46,34.46,0,1,0,34.46,34.46A34.46,34.46,0,0,0,270.93,120Zm0,66.38a31.92,31.92,0,1,1,31.91-31.92A31.92,31.92,0,0,1,270.93,186.34Z"/>
          <path class="cls-5" d="M283,154.42a12,12,0,1,0-12,12.05A12,12,0,0,0,283,154.42Zm-12,7.23a7.23,7.23,0,1,1,7.23-7.23A7.23,7.23,0,0,1,270.93,161.65Z"/>
          <path class="cls-5" d="M320.94,158.3v-7.66l-7.45-1.79a41.05,41.05,0,0,0-1.41-6.68l6.05-4.67-3.13-7-7.5,1.41c-.77-1.25-1.6-2.44-2.48-3.6l4-6.51-5.41-5.41-6.51,4a42.29,42.29,0,0,0-5.75-3.74l1-7.55-7.15-2.72-4.3,6.28a43.65,43.65,0,0,0-4.31-.79l-1.78-7.4H267.1l-1.78,7.4a42.54,42.54,0,0,0-6.71,1.43l-4.65-6-7,3.13,1.41,7.49a42.8,42.8,0,0,0-3.61,2.49l-6.5-4-5.41,5.41,4,6.51a44.35,44.35,0,0,0-3.72,5.74l-7.57-1-2.72,7.16,6.31,4.32a43,43,0,0,0-.78,4.28l-7.44,1.79v7.66l7.46,1.79a41.91,41.91,0,0,0,1.42,6.66l-6.07,4.69,3.13,7,7.55-1.42c.76,1.23,1.59,2.41,2.46,3.55l-4,6.56,5.41,5.42,6.57-4a42.94,42.94,0,0,0,5.69,3.69l-1,7.64,7.16,2.72,4.35-6.36c1.39.32,2.8.58,4.24.77l1.8,7.5h7.66l1.8-7.5a42.65,42.65,0,0,0,6.63-1.41l4.71,6.1,7-3.13L293.47,191c1.22-.76,2.41-1.58,3.55-2.45l6.57,4,5.41-5.42-4-6.56a43.14,43.14,0,0,0,3.72-5.69l7.61,1,2.72-7.15-6.33-4.33a42.84,42.84,0,0,0,.78-4.27Zm-12-3.88a38,38,0,1,1-38-38A38,38,0,0,1,309,154.42Z"/>
          <path class="cls-5" d="M270.93,124.43a30,30,0,0,0-26.26,15.5l13.68,5.86a15.26,15.26,0,0,1,27.11,4l13-7.35A30,30,0,0,0,270.93,124.43Z"/>
          <path class="cls-5" d="M272.52,169.59v14.78a30,30,0,0,0,27.54-37.1l-13.89,7.88A15.26,15.26,0,0,1,272.52,169.59Z"/>
          <path class="cls-5" d="M255.67,154.42a15.21,15.21,0,0,1,.56-4.07l-13.61-5.83a30,30,0,0,0,24.87,39.69V169.29A15.26,15.26,0,0,1,255.67,154.42Z"/>
        </g>
      </g>
      <g id="gear_13_copy" data-name="gear 13 copy">
        <path class="cls-5" d="M472.8,238V231.1l-6.14-1.47c0-.22-.07-.43-.11-.64l5.13-3.64-2.57-6.42-6.16.91c-.23-.37-.47-.74-.72-1.1l3.25-5.31-4.89-4.89-5.26,3.23-.62-.43,1-6.08-6.36-2.71-3.66,4.92c-.45-.11-.9-.2-1.36-.28l-1.44-6H436l-1.43,6-.77.14-3.55-5-6.41,2.57.89,6.1c-.38.24-.76.49-1.13.76l-5.27-3.23-4.88,4.89,3.25,5.31c-.14.19-.26.39-.39.59l-6.14-1.05-2.72,6.36,5.05,3.76c-.09.4-.16.81-.24,1.23l-6.13,1.47V238l6.21,1.49c0,.19.07.38.11.56l-5.21,3.7,2.57,6.42,6.4-.94c.2.31.41.61.62.92l-3.38,5.52,4.88,4.88,5.57-3.4.38.25-1.09,6.44,6.35,2.71,3.92-5.26,1,.2,1.53,6.38h6.91l1.54-6.38.42-.08,3.8,5.35,6.41-2.57-.95-6.47c.3-.18.59-.37.89-.57l5.56,3.4,4.89-4.88-3.38-5.52c.09-.14.19-.28.29-.41l6.37,1.08,2.71-6.36-5.13-3.82c.09-.38.17-.76.25-1.15Zm-33.33,2.13a5.79,5.79,0,1,1,5.79-5.79A5.79,5.79,0,0,1,439.47,240.14Z"/>
      </g>
      <g id="gear_14" data-name="gear 14">
        <g>
          <path class="cls-5" d="M374,205.32a19.17,19.17,0,1,0,19.17,19.17A19.18,19.18,0,0,0,374,205.32Zm0,36.93a17.76,17.76,0,1,1,17.76-17.76A17.76,17.76,0,0,1,374,242.25Z"/>
          <path class="cls-5" d="M380.74,224.49a6.7,6.7,0,1,0-6.7,6.7A6.7,6.7,0,0,0,380.74,224.49Zm-6.7,4a4,4,0,1,1,4-4A4,4,0,0,1,374,228.51Z"/>
          <path class="cls-5" d="M401.87,226.65v-4.26l-4.15-1a24.08,24.08,0,0,0-.78-3.72l3.36-2.6-1.74-3.89-4.17.79a23,23,0,0,0-1.39-2l2.22-3.62-3-3-3.62,2.22a23.45,23.45,0,0,0-3.2-2.09l.54-4.19-4-1.52-2.39,3.5a21.56,21.56,0,0,0-2.4-.44l-1-4.12h-4.26l-1,4.12a24.35,24.35,0,0,0-3.74.79l-2.58-3.35L360.71,200l.78,4.16a23,23,0,0,0-2,1.39l-3.62-2.22-3,3,2.22,3.62a23.22,23.22,0,0,0-2.07,3.19l-4.21-.54-1.52,4,3.52,2.41a23.23,23.23,0,0,0-.44,2.38l-4.14,1v4.26l4.15,1a24,24,0,0,0,.79,3.71L347.78,234l1.74,3.89,4.2-.79a22.33,22.33,0,0,0,1.37,2l-2.24,3.66,3,3,3.65-2.24a23.57,23.57,0,0,0,3.17,2.06l-.55,4.24,4,1.52,2.42-3.54c.77.18,1.55.32,2.35.43l1,4.17h4.26l1-4.17a24.65,24.65,0,0,0,3.69-.78l2.62,3.39,3.89-1.75-.79-4.21a22.22,22.22,0,0,0,2-1.36l3.66,2.24,3-3L393,239a23.28,23.28,0,0,0,2.06-3.17l4.24.55,1.51-4L397.28,230c.18-.78.33-1.57.44-2.38Zm-6.68-2.16A21.16,21.16,0,1,1,374,203.33,21.16,21.16,0,0,1,395.19,224.49Z"/>
          <path class="cls-5" d="M374,207.8a16.67,16.67,0,0,0-14.61,8.63l7.61,3.26a8.48,8.48,0,0,1,15.08,2.21l7.21-4.09A16.68,16.68,0,0,0,374,207.8Z"/>
          <path class="cls-5" d="M374.92,232.93v8.22a16.69,16.69,0,0,0,15.81-16.66,16.31,16.31,0,0,0-.49-4l-7.72,4.38A8.5,8.5,0,0,1,374.92,232.93Z"/>
          <path class="cls-5" d="M365.55,224.49a8.46,8.46,0,0,1,.31-2.27L358.28,219a16.71,16.71,0,0,0,13.85,22.09v-8.31A8.49,8.49,0,0,1,365.55,224.49Z"/>
        </g>
      </g>
      <g id="gear_15" data-name="gear 15">
        <g>
          <path class="cls-5" d="M427.1,88.58a24.24,24.24,0,1,0,27.81,20A24.23,24.23,0,0,0,427.1,88.58Zm7.5,46.07a22.44,22.44,0,1,1,18.55-25.76A22.44,22.44,0,0,1,434.6,134.65Z"/>
          <path class="cls-5" d="M439.36,111.14a8.47,8.47,0,1,0-7,9.72A8.48,8.48,0,0,0,439.36,111.14Zm-7.55,6.38a5.09,5.09,0,1,1,4.21-5.84A5.08,5.08,0,0,1,431.81,117.52Z"/>
          <path class="cls-5" d="M464.91,122.24l.94-4.56v-.78l-4.74-2.22c.07-1,.09-2,.06-3.05l4.68-2v-2l-.57-3.48-5.37-.4a31,31,0,0,0-1.74-4.48l3.68-3.92-3-4.5-5.05,1.83a29.73,29.73,0,0,0-2.13-2.22l2-5-4.37-3.15-4.07,3.5a30,30,0,0,0-4.41-2l-.18-5.35-5.27-1.08-2.28,4.85a26.26,26.26,0,0,0-3.08-.06L428,77.39l-5.32.86-.39,5.34a30.43,30.43,0,0,0-4.5,1.75l-3.91-3.65-4.5,3,1.83,5A29.94,29.94,0,0,0,409,91.83l-5-2-3.14,4.37,3.5,4.07a30.29,30.29,0,0,0-1.94,4.4l-5.36.18L396,108.1l4.87,2.28q-.11,1.52-.06,3.06l-5,2.09.86,5.31,5.38.4a30.9,30.9,0,0,0,1.74,4.47l-3.68,3.93,3,4.5,5.09-1.84a29,29,0,0,0,2.1,2.19l-2,5,4.37,3.15,4.1-3.54a29.85,29.85,0,0,0,4.37,1.92l.18,5.41,5.28,1.08,2.3-4.9a27.77,27.77,0,0,0,3,0l2.1,5,5.31-.87.4-5.41a30.14,30.14,0,0,0,4.45-1.72l3.95,3.7,4.5-3-1.84-5.09q1.14-1,2.19-2.1l5,2.05,3.15-4.37-3.53-4.1a31.65,31.65,0,0,0,1.93-4.38Zm-29.62,16.65a26.74,26.74,0,1,1,22.1-30.69A26.74,26.74,0,0,1,435.29,138.89Z"/>
          <path class="cls-5" d="M427.61,91.68a21.11,21.11,0,0,0-16.48,13.73l10.16,2.52a10.73,10.73,0,0,1,19.27-.3l8.16-6.57A21.1,21.1,0,0,0,427.61,91.68Z"/>
          <path class="cls-5" d="M433.82,122.85l1.67,10.26a21.1,21.1,0,0,0,14.91-28.87l-8.75,7A10.73,10.73,0,0,1,433.82,122.85Z"/>
          <path class="cls-5" d="M420.41,114.22a10.81,10.81,0,0,1-.08-2.89l-10.1-2.5A21.09,21.09,0,0,0,432,133.57l-1.69-10.37A10.72,10.72,0,0,1,420.41,114.22Z"/>
        </g>
      </g>
      <g id="Layer_5" data-name="Layer 5">
        <text class="cls-6" transform="translate(72.36 41.57)">Interactive Media II</text>
      </g>
      <g id="Layer_6" data-name="Layer 6">
        <text class="cls-7" transform="translate(152.11 372.33)">Makin&apos; <tspan class="cls-8" x="90.29" y="0">W</tspan><tspan x="113.21" y="0">ebsites</tspan><tspan x="-34.27" y="28.8">and Makin&apos; &apos;Em Move!</tspan></text>
      </g>
      <g id="spring_text" data-name="spring text">
        <text class="cls-7" transform="translate(180.96 321.3)">Spring 2022<tspan x="23.41" y="28.8">DES342 </tspan><tspan class="cls-9" x="-16.68" y="57.6">T</tspan><tspan x="-0.82" y="57.6">uesand Thurs</tspan><tspan x="-32.58" y="86.4">9-11:50 OR 3 - 5:50</tspan></text>
      </g>
    </g>
  </g>
</svg>
