<svg xmlns="http://www.w3.org/2000/svg" viewBox="0 0 733.76 478.26"><defs><style>.cls-1{fill:#15283a;}.cls-2{fill:#fff;}</style></defs><g id="Layer_2" data-name="Layer 2"><g id="whale"><path class="cls-1" d="M189.2,440.25c20.11,4.19,40.18,8.58,60.58,11.07q35.8,4.38,71.67,8.17c14.59,1.58,29.12,4,43.86,3.89,9.5-.09,18.46,2.18,27.28,5.65,6.53,2.57,12.7,6,19.26,8.43,2.56,1,5.23,1.41,7.3-.73s1.73-5,.56-7.65a26.35,26.35,0,0,0-1.21-2.44c-1.09-2-4.6-3.54-3.57-5.3.8-1.37,4.51-1,6.94-1.45.12,0,.25,0,.38,0,21.48-2.09,42.87-4.76,64.09-8.82,17.27-3.31,33.84-8.74,48.89-17.67a103.63,103.63,0,0,0,35.71-34.59c10-16.12,18.09-32.89,23.32-51.14,3.56-12.4,3.36-25.18,5-37.76,1.89-14.65-.26-29.34.18-44,.35-11.63-.58-23.29,1-34.88,1-7.68,2.52-15.22,8-21.19a100.12,100.12,0,0,1,10.2-10.19c15.39-12.54,27.93-27.69,40.42-43,8.55-10.45,15.52-22.09,24.81-32,6-6.41,11.38-13.48,19.21-18a51.06,51.06,0,0,1,22-7.24,12.05,12.05,0,0,0,7.93-3.76,2.4,2.4,0,0,0,.62-2.84c-.4-.86-1.19-.85-2-.83-9,.15-17.86-1.42-26.78-2.18a104.22,104.22,0,0,0-43,5c-13.1,4.44-26.46,7.67-40.51,6.5a76.87,76.87,0,0,0-19.81.71c-6.51,1.15-12.83,2.93-16.47,9.16-1.45,2.48-2.25,2.31-4.06.31-7.3-8.07-15.81-14.24-26.89-16.08-2.95-.49-5.87-1.08-8.81-1.64a73.39,73.39,0,0,0-24-.65c-14.06,1.93-27.55,6.59-41.68,8.16-10.38,1.16-20.71,1.66-30.94-1.19a118.33,118.33,0,0,0-11.74-2.76c-4-.69-6.37,2.44-5,6.29a17.81,17.81,0,0,0,3.85,5.81c5.36,6,10.61,12.15,16.19,18,10.83,11.26,23.24,20.7,35.6,30.15,7.93,6.08,15.94,12.2,22.52,19.67,7.66,8.71,15.93,16.91,21.69,27.34,4.54,8.2,9.26,16.1,11.52,25.32,2.51,10.2,2.1,20.1-2.08,29.74-7.76,17.91-23.05,26.31-40.81,30.48-18.39,4.32-37.24,5.23-56.15,5.26-20.67,0-40.82-4.05-61.16-6.65-10.94-1.4-21.48-5-32.45-6.48-10.3-1.36-20.61-2.74-30.75-5.06-18.22-4.16-36.65-7.64-54.35-13.74-15.49-5.34-31.3-9.53-46.83-14.72-18.7-6.25-37.55-12.17-56.24-18.47-12.42-4.17-24.65-9-36.92-13.54-10.38-3.87-21.18-6.28-31.85-9.06-12.33-3.22-24.75-5.87-39.05-5.74A41.44,41.44,0,0,0,41,203.82c-7.37,2.25-15.19,3.9-20.41,10.48A72.7,72.7,0,0,0,12,228.21c-5,10.45-8,21.63-10.47,32.93a71.32,71.32,0,0,0-.63,26.34c1.4,8.85,2.58,17.74,3.74,26.63.78,6.05,1.27,12.14,2,18.19.57,4.57,1.45,9.32,5.62,12,5.36,3.4,10.83,6.92,16.74,9.08,12.69,4.61,25.41,9.19,38.21,13.5,14.14,4.76,28.75,8.34,42.42,14.33,11.37,5,23.12,8.52,35,12,15,4.38,30.23,7.49,45.38,11.09,8.09,1.92,16.31,3.4,24,6.72,1.28.55,3,1.08,2.91,2.78-.07,2.07-2.06,1.59-3.31,1.87-7.36,1.67-14.51-.28-21.6-1.66-14.81-2.9-28.86-8.62-43.6-11.81a189.49,189.49,0,0,1-27.58-8.38Q94.7,383.7,68.4,374.05c-11-4-22.48-6.4-33.07-11.51a26.13,26.13,0,0,0-7-2.35c-5.55-.95-9.13,2.36-8.64,8,.34,4,2.55,6.81,5.62,8.93,4.8,3.32,9.83,6.3,14.66,9.58A203.56,203.56,0,0,0,72.4,404.38c23.36,10.27,47.78,17.61,72.14,25C159.21,433.84,174.2,437.12,189.2,440.25Z"/><path class="cls-2" d="M652.47,123.45a16.25,16.25,0,0,0-6,3.27c-7.91,6.52-13.92,14.66-19.73,22.95-9.3,13.3-16.9,27.7-26.77,40.62-.62.8-1.93,2-.68,2.91.81.58,2.21-.31,3-1.2a14,14,0,0,0,1.05-1.65,66.68,66.68,0,0,1,6.14-8.52c11.23-12.39,22.8-24.45,34.46-36.45a80.79,80.79,0,0,0,11.24-13.89,7.8,7.8,0,0,0,1.32-5.55C656.22,124.12,655.3,123.11,652.47,123.45Z"/><path class="cls-2" d="M521.47,140.63c11.52,16.47,24.79,31.72,34.85,49.22a3.25,3.25,0,0,0,.75.9c.59.48,1.26,1.13,2,.66s.4-1.37,0-2c-2.82-4.67-4.6-9.85-7.55-14.48-7.38-11.61-14.45-23.39-19.48-36.28A49.79,49.79,0,0,0,523,123.3a6.52,6.52,0,0,0-5.91-2.3c-2,.23-3,1.32-2.82,4.15A45.1,45.1,0,0,0,521.47,140.63Z"/><path class="cls-2" d="M588,190.29c.39,1.12.89,2.36,2.35,2.14s1.22-1.48,1.34-2.49c.17-1.54.29-3.1.47-4.64,1.89-16.21,8.39-31,14.68-45.75,1.12-2.63,2.31-5.19,1.73-8.22-.28-1.46-.4-2.79-2-3.51-1.77-.81-3,.07-4.19,1.14a29.7,29.7,0,0,0-7.3,10.46c-5.43,12.67-8.51,25.84-8.29,39.71C586.64,182.9,586.67,186.66,588,190.29Z"/><path class="cls-2" d="M498.15,153c5.9,6.68,13.38,11.48,20.23,17.05,10,8.1,20.26,15.94,26.45,27.67.36.69.73,1.52,1.67,1.19a1.79,1.79,0,0,0,.94-2c-.15-2.38-1.8-4-3.16-5.7-6.27-7.95-12.71-15.77-18.89-23.8a189,189,0,0,0-20.87-23.11c-1.85-1.73-3.92-3-6.24-2.79-4.28,0-5.3,1.45-3.95,5.18A19.36,19.36,0,0,0,498.15,153Z"/><path class="cls-2" d="M565.14,185.47c.37.87,1,1.73,2,1.37,1.46-.51.76-1.59.46-2.58-2.61-8.69-5.16-17.4-7.8-26.08-2.28-7.54-5.11-14.91-6.73-22.67a19.1,19.1,0,0,0-3.91-8.38,4.86,4.86,0,0,0-4.4-2.16c-1.2,0-1.95,1.11-2.56,2.54-2,4.64-.2,8.9,1.28,13.18C549,156.45,558.61,170.21,565.14,185.47Z"/><path class="cls-2" d="M563.58,229.27c-4-.83-9.56,2.09-9,9.87a27.87,27.87,0,0,0,1.55,8c2.13,7.41,5.85,14.14,9,21.12a35.83,35.83,0,0,0,8.54,12c.71.64,1.67,1.61,2.71.67.75-.68.44-1.69,0-2.52-2.15-3.77-2.23-8-2.39-12.12-.2-5.07-.31-10.14-.66-15.2-.32-4.78-.47-9.66-2.64-14.08C569,233.8,567.7,230.11,563.58,229.27Z"/><path class="cls-2" d="M261.42,397c5.74,0,10.11-4.08,9.95-9.2-.12-3.83-4.35-7.61-8.43-7.52-5.23.11-9.34,4.69-9.3,10.39C253.66,394.41,256.86,397,261.42,397Z"/><path class="cls-2" d="M574.89,181.17a42.66,42.66,0,0,0,1.7,5.16c.27.71.8,1.48,1.74,1.08a1.38,1.38,0,0,0,.64-2,27.88,27.88,0,0,1-1.69-7.16c-1.39-9.06-.23-18.14-.33-26.31-.14-5.67.27-10.5-1.65-15.09-1-2.51-2.2-5.06-5.35-4.75-3.5.35-4,3.36-4.17,6.13a34,34,0,0,0,1.09,10.43Q570.82,164.94,574.89,181.17Z"/><path class="cls-2" d="M281.64,403.23a15.19,15.19,0,0,0-7.91,1.66c-8.7,4.49-17.57,6-27,2.3-.93-.37-2.34-.72-2.82.3-.67,1.45.87,2,1.86,2.43a83,83,0,0,0,26.66,6.45,19.44,19.44,0,0,0,11.39-3.45,5.59,5.59,0,0,0,2.57-6C285.94,404.45,284.13,403.37,281.64,403.23Zm.65,8.31a19.64,19.64,0,0,1-9.62,2.74c-3.33-.42-6.66-.83-10-1.29a5.85,5.85,0,0,1-1.4-.6c.25-.27.45-.71.74-.78,6-1.38,11.34-4.89,17.43-6,1.74-.33,3.83-.31,4.66,1.78C284.83,409.16,284,410.59,282.29,411.54Z"/><path class="cls-2" d="M440.61,345.34c-2.14-.13-3.26,1.09-4,3a13.45,13.45,0,0,0-.95,7.6c1.35,8-.64,14.64-7.83,19.14-.8.5-1.65,1.09-1,2.12a1.74,1.74,0,0,0,2.14.39c9-3.29,17-10.27,16.79-22.19a22.3,22.3,0,0,0-1.16-6.87A4.26,4.26,0,0,0,440.61,345.34Zm-1.49,21.26c-.35.36-.67.88-1.22.57-.15-.07-.06-.71,0-1.05a28.28,28.28,0,0,0,0-12.35,2.29,2.29,0,0,1,0-.78c.37-1.7.05-4.15,2.29-4.41,2.45-.27,2.43,2.22,2.87,3.9a13.56,13.56,0,0,1,.22,2.29C443.22,359.2,442.28,363.29,439.12,366.6Z"/><path class="cls-2" d="M277.43,422.4a13.25,13.25,0,0,0-6.17-.54c-9.43,1.34-18-1.2-26.18-5.6-1-.54-2.22-1.51-3-.1s.62,2.11,1.46,2.84a68.71,68.71,0,0,0,19.85,12.09c2.64,1.05,5.16,2.57,7.93,2.07a14,14,0,0,0,7-1.74,5.18,5.18,0,0,0,2.85-5.52C280.91,423.67,279.19,423,277.43,422.4Zm-.59,7A20.21,20.21,0,0,1,270.2,431c-4.34-.5-8.44-2.45-12.4-4.61-1.93-1.06-4.53-1.2-5.56-3.66,2,.37,4,.69,6,1.11,4,.85,8,.43,12,.31,2.06-.06,4.14-.28,6.15.41,1.08.36,2.43.6,2.6,2S278.12,428.87,276.84,429.42Z"/><path class="cls-2" d="M583,241.73c.28,1,.16,2.75,1.79,2.54s1.15-1.81,1.11-2.9A51.22,51.22,0,0,1,590,220.12a38.61,38.61,0,0,0,2.9-10.62c-.6-2-1.11-4.32-3.42-5.18s-3.86,1-5.08,2.67a19.53,19.53,0,0,0-2.89,6.34C578.76,223,580.45,232.38,583,241.73Z"/><path class="cls-2" d="M172,332.81c1-1.55,1.91-3.25,1-5.11-1-2.07-3-2.2-5.26-2.22-.29,0-.81.06-1.31.15a19.31,19.31,0,0,0-2.29.45c-11.08,3.21-17.41,11.67-23,20.89-.51.83-.65,1.85.27,2.43s1.71-.1,2.44-.68a73.66,73.66,0,0,1,23.64-12.4A8.24,8.24,0,0,0,172,332.81Z"/><path class="cls-2" d="M583,322.89a11.53,11.53,0,0,0-4.68,2.7c-6.81,6.88-13.21,14-13.91,24.37-.06,1-1,2.15.43,2.7s1.83-.69,2.22-1.62c2.47-5.82,6.66-10.07,11.91-13.44a48.35,48.35,0,0,0,6.37-5.09,8.35,8.35,0,0,0,2.54-5.88C588,323.19,586.3,321.81,583,322.89Z"/><path class="cls-2" d="M588.92,253.66c-3.1,0-4.55,2.27-5.16,5-1.45,6.31-2,12.77-2.56,18.48.16,2.15.24,3.58.4,5a1.51,1.51,0,0,0,1.44,1.54,1.3,1.3,0,0,0,1.4-1.06c1.4-5.27,5.28-9.18,7.56-14,1.48-3.06,2.57-6.16,1.67-9.71C593,256.19,592.14,253.7,588.92,253.66Z"/><path class="cls-2" d="M21.47,254.62a1.35,1.35,0,0,0,1.43-1.08c2-6.94,7.23-11.89,11.08-17.68a9.52,9.52,0,0,0,1.93-5.38c0-3.73-1.95-5.46-5.59-4.9-5,.76-7.13,4.37-8.65,8.49s-1.8,8.61-1.91,13.05c.15,1.94.28,3.88.46,5.81C20.28,253.73,20.52,254.5,21.47,254.62Z"/><path class="cls-2" d="M571.06,208.37c-1.2-3.82-3.29-7-7.15-8.77a4.76,4.76,0,0,0-5.13.52c-1.67,1.21-1.94,3-1.52,4.9a18.81,18.81,0,0,0,4.78,8.79,69.77,69.77,0,0,1,8.12,9.94c.4.61.6,1.57,1.64,1.33s1.26-1.24,1.33-2.15,0-1.8,0-2.71A45.7,45.7,0,0,0,571.06,208.37Z"/><path class="cls-2" d="M388.23,369.41a10.14,10.14,0,0,0-2.48,3.45,22,22,0,0,0-2,9.85A24.22,24.22,0,0,0,386.38,394c.44.94.8,2.12,2.13,1.81a2.31,2.31,0,0,0,1.79-2.26c.35-3.87,2.24-7.15,4.1-10.44a15.5,15.5,0,0,0,2-10.89C395.32,366.82,392.36,365.82,388.23,369.41Z"/><path class="cls-2" d="M32.32,255.12c-2.14-.08-4.32,2.49-4.88,5.77a5,5,0,0,0-.07.77c-.32,6.66,2.38,12.38,5.52,18,.32.57.75,1.17,1.5,1s.83-.94.9-1.54c.66-5.39,1.28-10.78,1.83-15.52,0-1.2,0-1.72,0-2.23C36.8,257.89,34.76,255.22,32.32,255.12Z"/><path class="cls-2" d="M154,368.17c-.29-1-.48-2.19-1.84-2.12s-1.58,1.18-2,2.13c-1.73,4.2-.33,10.9,3,14.09a7.57,7.57,0,0,0,5.66,2,3.06,3.06,0,0,0,3-2.15,4.42,4.42,0,0,0-1.3-4.95C157.8,374.56,155.12,372,154,368.17Z"/><path class="cls-2" d="M141.42,366.82c.05-.64.09-1.37-.55-1.73-.82-.48-1.48,0-2.07.55-3.13,2.78-4.17,6.45-4.46,10.36,0,.6,0,1.12.14,1.63.48,2.58,4.23,5.9,6.29,5.57,1.76-.26,2.62-3.41,1.92-6.78C142,373.25,141.18,370.1,141.42,366.82Z"/><path class="cls-2" d="M581.05,345.76l-.93.15c-3,.57-10.33,8.28-10.53,11.26-.12,1.92,1.22,1.65,2.34,1.17,3.2-1.36,6.4-2.76,9.53-4.28a7.09,7.09,0,0,0,2.35-2c1.16-1.48.91-3.19.32-4.8C583.66,346,582.56,345.64,581.05,345.76Z"/><path class="cls-2" d="M155.13,281.42c-.79,1.35.63,2,1.66,2.55,7.7,3.82,15.59,7,24.77,7.15l1.54.07c1.11,0,2.32-.11,2.3-1.45,0-1.53-1.45-1.12-2.4-1.13-9-.06-17.35-2.6-25.29-6.7C156.92,281.49,155.93,280.05,155.13,281.42Z"/><path class="cls-2" d="M391.86,447.44a40.76,40.76,0,0,1-21.05,2.33c-.64-.11-1.42-.21-1.6.6-.22,1,.7,1.39,1.4,1.51,2.66.48,5.36.82,6.81,1,5.32-.13,9.19-1.31,13.11-2.17a7.19,7.19,0,0,0,2.36-1.29,1.35,1.35,0,0,0,.64-1.68C393.18,447,392.49,447.21,391.86,447.44Z"/><path class="cls-2" d="M180.72,298.48c.06-2-2.21-1.21-3.44-1.27-6.41-.32-12.65-1.2-18.34-4.51-.73-.43-2-1.59-2.6-.11-.52,1.23,1,1.62,1.8,2.13,5.8,3.67,12.37,4.44,19.14,5C178.44,299.5,180.67,300.28,180.72,298.48Z"/><path class="cls-2" d="M88.62,314.27c.42-.51,1.12-1.55.49-2.07-1-.84-1.54.48-2.07,1-2.92,3-6,5.6-10.17,6.83-3.89,1.16-7.71,2.28-11.79,1.16-.59-.16-1.41-.29-1.6.52s.52,1.11,1.16,1.26c1.63.4,3.28.73,4.91,1.09,3.78-.08,7-2,10.44-3C83.79,320,86.22,317.13,88.62,314.27Z"/><path class="cls-2" d="M259.15,372.43a1.52,1.52,0,0,0,2.41-.06c2-3,5.32-5.49,4.78-9.76-.4-5.36-3.94-9.82-8-10-.49,0-1.31,0-1.43.25-.37.77.34,1.1.94,1.34a9.37,9.37,0,0,1,5.51,4.64c2.31,4.91,0,8.47-3.31,11.73C259.52,371.13,258.58,371.65,259.15,372.43Z"/><path class="cls-2" d="M376.12,403.82c-2.21-.38-4.44,2.77-4.26,5.57.16,2.36,1.47,3.46,3.79,3.42,3.09-.1,5.31-2.13,5-4.78C380.27,405.53,378.35,404.2,376.12,403.82Zm0,6.69c-1.36.28-1.85-.59-1.72-1.78.11-1,.39-2.14,1.77-2a2.19,2.19,0,0,1,2,1.9C378.17,410.07,377.07,410.31,376.11,410.51Z"/><path class="cls-2" d="M174.26,307.56c0-1.51-1.88-.51-2.87-.87-1.46-.52-3-.8-4.46-1.31-3.42-1.21-6.82-2.49-10.23-3.75-.62-.23-1.33-.47-1.75.19-.55.9.11,1.52.83,1.83,2.63,1.11,5.28,2.16,7.94,3.18,2.42.92,4.7,2.25,7.67,2.35C172.21,308.64,174.28,309.13,174.26,307.56Z"/><path class="cls-2" d="M167.65,273.76c-.75-.52-1.58-1.35-2.27-.21-.57,1,.33,1.68,1.05,2.23,4.07,3.11,8.86,4.11,13.79,4.66,1.2.21,2.2-.16,2.26-1.44s-1.19-1.08-2-1.16C175.89,277.38,171.5,276.42,167.65,273.76Z"/><path class="cls-2" d="M62.78,381.79c-2.18.09-3.28,2-3.61,4.52-.29,2.13,1.94,4.26,4.48,4.35,2.72.09,4-1.72,4.38-4S66,381.88,62.78,381.79Zm.8,6.61c-1.26,0-2.33-.44-2.26-1.95A2.26,2.26,0,0,1,63.68,384c1.43,0,1.82,1.19,2.11,2.37A2,2,0,0,1,63.58,388.4Z"/><path class="cls-2" d="M273.3,368.57c1,.47,1.76-.1,2.18-1a17.37,17.37,0,0,0,1.37-5.88c.12-3.42-3.17-8.27-6.42-9.19-.63-.17-1.41-.43-1.79.2s.29,1.07.85,1.42c4.94,3.1,5.54,7.47,3.61,12.54C272.82,367.37,272.29,368.1,273.3,368.57Z"/><path class="cls-2" d="M310.26,321.28c2-.69,3.72-1.73,3.52-4.26a3.62,3.62,0,0,0-4.07-3.68c-2.18.17-4.38,1.06-4.08,4C305.9,320.08,307.86,320.87,310.26,321.28Zm-.52-5.83c1.11-.17,1.64.59,1.74,1.55.13,1.28-.75,1.77-1.82,2-1,0-1.79-.46-1.79-1.53A2,2,0,0,1,309.74,315.45Z"/><path class="cls-2" d="M374.93,443.69c2.77-.26,5.75-.19,7.92-2.39.55-.55,1.92-1,1.16-2.07-.58-.82-1.38.09-2.06.33-3.05,1.08-6.1,2.14-9.42,2-1.16-.08-2.32-.15-3.48-.25-.81-.07-1.65-.16-1.65,1,0,.81.74,1,1.37,1.07A36.58,36.58,0,0,0,374.93,443.69Z"/><path class="cls-2" d="M631,169.68a3.84,3.84,0,0,0-3.88,4,3.05,3.05,0,0,0,3.53,3.2,4.13,4.13,0,0,0,4-3.91C634.34,170.78,633.15,169.54,631,169.68Zm-.31,4.92a.87.87,0,0,1-.89-1,1.65,1.65,0,0,1,1.6-1.32c.54,0,.82.47.88,1A1.48,1.48,0,0,1,630.73,174.6Z"/><path class="cls-2" d="M524.13,109.83c2.29-.42,4.1-1.61,4.23-4.31a3.85,3.85,0,0,0-4.06-3.39c-1.77,0-4.17,2.88-3.86,4.65C520.78,108.77,521.9,110.24,524.13,109.83Zm-1.69-3.63c.14-1.12.68-1.94,1.92-2a1.41,1.41,0,0,1,1.61,1.33c.12,1.59-1.1,1.9-2.24,2.09S522.34,107.09,522.44,106.2Z"/><path class="cls-2" d="M591.17,128.3c2.57-.12,3.28-2.11,3.68-4.2-.33-2-1.38-3.07-3.43-2.94a3.87,3.87,0,0,0-3.87,4C587.45,127.47,589.18,128.39,591.17,128.3Zm.46-4.82c.79-.06,1,.54,1,1.35a1.64,1.64,0,0,1-1.67,1.56,1,1,0,0,1-1.06-1.24A1.81,1.81,0,0,1,591.63,123.48Z"/><path class="cls-2" d="M91.76,395c-2.1-.23-3.81.13-4.08,2.51-.21,1.84,2.28,4,4.52,3.92,2-.06,3.7-1,3.74-3.14C96,395.63,94,395,91.76,395Zm-.14,4.43c-.94-.07-1.8-.41-1.67-1.56s1-1,1.72-.87,1.79.13,2,1.25C93.38,399.37,92.53,399.54,91.62,399.47Z"/><path class="cls-2" d="M623.83,135.31c2-.5,4.14-1.34,4-4.09-.07-2.22-1.73-3.11-3.77-2.92-2.43.21-3.66,2-3.82,4.17C620.14,134.51,621.59,135.4,623.83,135.31Zm.42-4.59c.72-.12,1.2.33,1.24,1.25-.17,1-1.06,1.26-1.94,1.41a.88.88,0,0,1-1-.91C622.48,131.32,623.31,130.87,624.25,130.72Z"/><path class="cls-2" d="M574.93,200.2c0,2.26,1.61,2.66,3.46,2.83a3.82,3.82,0,0,0,4-3.79c.19-2.34-1.45-3.11-3.42-3.29S574.92,198,574.93,200.2Zm5.05-.09a1.82,1.82,0,0,1-1.72.87c-.73,0-1.13-.47-1.09-1.24.05-1.16.85-1.52,1.8-1.51C579.62,198.23,580.23,198.53,580,200.11Z"/><path class="cls-2" d="M125,407.68c-2.24-.11-3,1.16-3,3.13.07,2.66,1.9,3.08,3.38,3.07,2.84.1,4.41-1,4.24-3.1C129.46,408.24,127.23,407.78,125,407.68Zm.78,4.22c-.66,0-1.29-.09-1.5-.8s.36-1.09,1-1.16,1.3,0,1.5.76S126.41,411.73,125.8,411.9Z"/><path class="cls-2" d="M682.47,100c-2.38,0-3.51,1.71-3.73,3.75-.26,2.36,1.64,2.56,3.39,2.69a3.45,3.45,0,0,0,4-3.37C686.32,100.83,684.4,100,682.47,100Zm-.22,4.26c-.49,0-1.07-.07-1.13-.76a1.17,1.17,0,0,1,1.1-1.33,1,1,0,0,1,1.14.84C683.5,103.88,682.91,104.18,682.25,104.26Z"/><path class="cls-2" d="M222.91,432.31c-2.14.1-3.68.77-3.63,2.89s1.76,3.22,3.68,3.05c1.6-.14,4-.16,3.83-2.74C226.62,433.21,224.69,432.53,222.91,432.31Zm.3,3.76a1,1,0,0,1-1.35-.42c-.21-.48-.05-1,.7-1,.49.05,1,0,1.28.61S223.55,436,223.21,436.07Z"/><path class="cls-2" d="M561.27,123.17c2.49-.06,4-1.52,3.84-3.82a3.56,3.56,0,0,0-3.33-3.19c-1.73-.18-4,2.69-3.75,4.67S559.45,123.4,561.27,123.17Zm-.95-3.13c.21-.7.44-1.45,1.33-1.65a1.76,1.76,0,0,1,1.06,1.42c.09,1-.61,1.31-1.4,1.37S560.08,120.85,560.32,120Z"/><path class="cls-2" d="M667.86,109.34c-1.57.06-4.69,3.37-4.45,4.64a2.54,2.54,0,0,0,3.17,2.11c2-.25,3.64-1.09,3.66-3.31A3.53,3.53,0,0,0,667.86,109.34Zm-.16,4a4,4,0,0,1-1,.68c-.63-.23-.78-.54-.53-.89s.67-.8,1.24-.64A.53.53,0,0,1,667.7,113.33Z"/><path class="cls-2" d="M454.93,118c1.76-.19,3.46-.59,3.28-2.63s-.67-4.18-3-4.44c-2.13-.25-3.26,1.4-3.37,3.46S452.8,117.79,454.93,118Zm-.19-4.55c.63.06,1,.75,1.06,1.41a1,1,0,0,1-.85,1.06,1.12,1.12,0,0,1-1.18-1.18C453.72,114,454,113.33,454.74,113.41Z"/><path class="cls-2" d="M607.39,156.66c.15,1.9,1.51,2.55,3.2,2.73,1.91-.55,3.48-1.46,3.3-3.72-.17-2.06-1.53-2.89-3.52-2.73C608.08,153.12,607.22,154.55,607.39,156.66Zm3.31-1.3c.21.13.68.26.77.51.25.79-.28,1.17-1,1.33-.51.13-.71-.22-.73-.64A1.07,1.07,0,0,1,610.7,155.36Z"/><path class="cls-2" d="M613.66,121.62a4.21,4.21,0,0,0,3.88-4.17c.09-1.6-1.18-2.12-2.78-2.57-1.55.87-3.3,1.87-3.57,4C611,120.43,612,121.86,613.66,121.62Zm0-3.18c.11-.31.53-.51.85-.71a7.24,7.24,0,0,1,.76.79,10,10,0,0,1-1,.5C613.74,119.21,613.53,118.79,613.65,118.44Z"/><path class="cls-2" d="M501.62,132.93a3,3,0,0,0,3.17-3.18,2.79,2.79,0,0,0-3.15-3.06,3.58,3.58,0,0,0-3.76,3.61C497.72,132.18,499,133,501.62,132.93Zm-.11-3.92c.68.05,1.2.42,1.13,1.17s-.68.94-1.26,1c-.78,0-1.26-.37-1.14-1.13A1.16,1.16,0,0,1,501.51,129Z"/><path class="cls-2" d="M156.07,416.94c-2-.09-3.33.94-3.31,2.88,0,2.43,2.28,2.59,3.92,2.75s3.23-.76,3.14-2.61C159.73,417.83,158.07,417,156.07,416.94Zm-.22,3.63c-.38,0-.78-.18-.64-.63a1.15,1.15,0,0,1,.7-.68A.84.84,0,0,1,157,420C156.83,420.65,156.31,420.59,155.85,420.57Z"/><path class="cls-2" d="M486.69,115.55c2.23-.27,4-.68,4-3.11,0-2.26-1.9-3-3.42-2.92a3.3,3.3,0,0,0-3.21,3.67A2.32,2.32,0,0,0,486.69,115.55Zm.61-3.58c.52,0,1.1.28.95.84-.09.36-.69.6-.92.78-.66-.07-1-.25-1-.7A.93.93,0,0,1,487.3,112Z"/><path class="cls-2" d="M251.31,437c-1.75.26-3.65,1.1-3.44,3.46.17,1.92,1.87,2.62,3.38,2.6,2,0,2.82-1.57,2.87-3.5A2.47,2.47,0,0,0,251.31,437Zm-.27,3.68c-.13.07-.41-.14-.63-.23l.29-.63.65.24C251.25,440.27,251.21,440.59,251,440.67Z"/><path class="cls-2" d="M650.52,113c2-.32,3.54-1.13,3.52-3.38,0-2-1.6-2.2-3-2.13a3.44,3.44,0,0,0-3.53,3.36C647.45,112.59,649.09,113,650.52,113Zm.31-2.89c.18,0,.34.27.51.41l-.59.4c-.22-.09-.6-.17-.61-.28C650.1,110.21,650.48,110.09,650.83,110.14Z"/><path class="cls-2" d="M632.35,112.87a3.12,3.12,0,0,0,3.43-3.08c-.32-1.6-1.28-2.79-3.09-2.7s-2.72,1.41-2.86,3.12S630.54,112.88,632.35,112.87Zm.35-3.17c.41-.2.71,0,.85.9a5.4,5.4,0,0,1-.7.41.52.52,0,0,1-.76-.54A1.21,1.21,0,0,1,632.7,109.7Z"/><path class="cls-2" d="M192.21,425.6c-1.73-.05-3.55.42-3.56,2.65,0,2,1.42,2.87,3.32,3.05,2.17.2,3-1.08,3.32-2.77C195.27,426.32,193.84,425.64,192.21,425.6Zm.63,3.18c-.06.21-.59.28-.81.38-.64-.12-1.13-.3-.86-.92.09-.22.58-.39.88-.37C192.55,427.9,193,428.22,192.84,428.78Z"/><path class="cls-2" d="M479,134.55a3.25,3.25,0,0,0,3.21-3.07c-.2-1.91-1.22-3.17-2.95-3-1.89.18-2.71,1.76-2.8,3.6S477.25,134.73,479,134.55Zm.26-3.35c.36-.18.66,0,1,.78a4.09,4.09,0,0,1-.72.32c-.45.12-.66-.2-.65-.58A.79.79,0,0,1,479.3,131.2Z"/><path class="cls-2" d="M554.07,219.31c-2.39.1-3.19,1.93-3.35,4a2.16,2.16,0,0,0,2.75,2.37c1.85-.31,3.83-.91,3.93-3.26A2.92,2.92,0,0,0,554.07,219.31Zm.11,4.61a1,1,0,0,1-1.41-.88,1.4,1.4,0,0,1,1.37-1.86c.74-.08,1.13.45,1.36,1.09A1.61,1.61,0,0,1,554.18,223.92Z"/><path class="cls-2" d="M551.44,110.65c1.55-.16,3.54-.34,3.52-2.73,0-1.86-1.21-2.72-3.11-3.15-1.48.5-3.06,1.25-3.1,3.22A2.44,2.44,0,0,0,551.44,110.65Zm.54-3.79c.54,0,.81.47.8,1a1.19,1.19,0,0,1-1.37.93,1,1,0,0,1-.55-.77A1.1,1.1,0,0,1,552,106.86Z"/><path class="cls-2" d="M172.34,266.62c-.54,1.9,2.4,2.45,4,3.26a12.08,12.08,0,0,0,2.39.65c1.1-.4,2.61.1,2.72-1.26.14-1.59-1.46-.94-2.31-1.23a8.13,8.13,0,0,0-2.58-.7C175,267.35,172.79,265.06,172.34,266.62Z"/><path class="cls-2" d="M87.05,328.19a10.89,10.89,0,0,0,5.56-2.76c.72-.66,1.27-1.55.63-2.36-.94-1.21-1.49.15-2.08.62a10.08,10.08,0,0,1-4.72,2.48c-.72.12-1.75.17-1.57,1.21S86,328.14,87.05,328.19Z"/><path class="cls-2" d="M156.89,312.39c-.45-.41-1.09-1-1.67-.3s-.09,1.49.52,2a11.54,11.54,0,0,0,6.79,2.74c.77-.16,2.05.12,2.15-1s-1.28-1-2.05-1.18C160.6,314.11,158.54,313.86,156.89,312.39Z"/><path class="cls-2" d="M283.42,354.94c-.73-.25-1.05.6-.81.77,1.68,1.2.13,4.09,2.38,4.7.85.22.79-1.06.71-1.81C285.58,357,285.16,355.53,283.42,354.94Z"/></g><g id="words"><path class="cls-2" d="M567.86,324c1.17.78,2-.2,2.68-.86,3.55-3.29,6.08-7.41,8.88-11.3,1.59-2.19.1-3-1.93-3.17-1.52-.16-3.33.6-4.54-.54-4.51-4.21-9.9-8-9-15.37.09-.77.33-1.66-.45-2.12a1.92,1.92,0,0,0-2.45.6c-2.07,2.2-4,1.56-5.6-.42-4.42-5.51-10.26-10.07-11.8-17.53a1.64,1.64,0,0,0-1.15-1.43,1.58,1.58,0,0,0-1.81,1.13,18.24,18.24,0,0,1-5.74,7.22c-.77.58-1.32,1.31-.86,2.34a1.52,1.52,0,0,0,1.93.91c2.19-.74,2.74.8,3.26,2.3a77.71,77.71,0,0,1,4.23,19.75c.25,3.12-.43,3.55-3.28,2-4.82-2.56-9.52-5.33-14.29-8-1.44-.8-2.77-1.5-1.39-3.49a1.36,1.36,0,0,0-.58-2c-.8-.36-1.11.49-1.43,1-1.54,2.3-3.71,3.06-6.38,3-1,0-2.71-.43-2.75,1.21s1.59,1.59,2.68,1.42c3.1-.5,4.74,1.34,6.42,3.47a92.72,92.72,0,0,1,10.3,16c4,8.08,6.8,16.59,7.21,25.69.23,5.22-1.33,9.71-5.91,12.83a3.51,3.51,0,0,1-4.32.21c-1.56-1.07-1.38-2.7-.87-4.23a5.86,5.86,0,0,1,1.3-1.9c.66-.75,2-1.39,1.19-2.52-.92-1.3-2.15-.24-3.12.24-2.71,1.35-3.94,5-3,8.48.93,3.24,2.86,4.52,6.47,4.16a9.16,9.16,0,0,0,5.9-2.72c4.75-5.07,8.25-10.47,6.75-18.09a135.45,135.45,0,0,0-6.13-22.51c-.44-1.15-1.83-2.54-1-3.51,1-1.17,2.72,0,4,.46s3.62-.18,3.53,2.61c-.09,2.64,1.45,3.39,3.78,1.86,2.06-1.34,3.92-3,5.88-4.48,1.11-.85,1.07-2.16,0-2.53-3-1-2.2-3.38-2.25-5.48a10,10,0,0,1,0-1.55c.11-1-.57-2.35.42-2.86s1.81.74,2.57,1.34c2.73,2.2,5.21,4.75,8.11,6.7,3.42,2.29,5.11,5,4,9.15C567.16,322.32,566.92,323.33,567.86,324Z"/><path class="cls-2" d="M37.65,299.24c6.5-7.21,11.36-15.49,15.85-24,.75-1.43,1.49-2.21,3.21-2.15a35.31,35.31,0,0,0,5.43-.37c1.67-.19,2.53.25,2.15,2.09-.31,1.52-.55,3.07-.86,4.59-1.9,9.42-4.62,18.66-5.93,28.22-.57,4.18.13,5.41,4.15,6.51,1.49.41,3.08.43,4.62.69,2.82.51,4-.94,4.48-3.5,2.58-12.86,5.38-25.68,7.77-38.57.72-3.88,1.45-7.24,5.5-9,1.54-.65,3.36-2.36,2.34-3.8-.8-1.13-2,1.28-3.3,1.78-.71.28-1.44,1.16-2.07.71s-.11-1.43.06-2.19c1.15-4.93,2.1-9.9,3.14-14.85s1.33-10.91,8.77-10.85a1.07,1.07,0,0,0,.36-.14c1-.46,2-1,1.4-2.3s-1.51-.39-2.3-.11a26.32,26.32,0,0,1-11.14.9c-7.44-.74-13.3-5-19.63-8.19-5.73-2.88-11.28-3.58-17-.32a5.75,5.75,0,0,0-3,5.85c.13,2.69,1.68,4.57,3.79,6,.76.52,1.92.85,2.4-.12s-.76-1.09-1.39-1.48a5.17,5.17,0,0,1-2.49-5.32c.24-2.33,2-3.26,3.87-3.9a13.43,13.43,0,0,1,10.62.39c2.91,1.44,5.69,3.15,8.65,4.47,2.14,1,2.07,2.12,1.28,4-3.05,7.18-6.06,14.37-8.91,21.62-1.52,3.88-3.21,7.66-5,11.41-1.19,2.5-2.76,2.91-4.92,1.59C44,265.61,39,262,39.58,254.49a2.48,2.48,0,0,0-2-2.89c-1.73-.34-2.64.71-3.13,2.24-.78,2.45-.08,4.59,1.3,6.63,3.39,5,8.18,8.29,13.4,11,2.11,1.08,2.29,2,1.14,3.8a163.68,163.68,0,0,1-11.12,15.5A37.91,37.91,0,0,1,28.67,300a9.31,9.31,0,0,1-9.68-.09c-3-1.82-3.22-5.15-3-8.34a51.92,51.92,0,0,1,.81-5.39c.36-2.1.91-4.29-1.91-5.12-2.22-.65-4.76,1.25-5.39,3.9a13.82,13.82,0,0,0,0,5.73,25,25,0,0,0,.82,7c1.41,5.13,7.73,10,12.48,9.39A23.65,23.65,0,0,0,37.65,299.24Zm19.56-30.9c4.93-10.27,9.07-20.88,13.45-31.39.46-1.13.77-3.5,2.47-2.83s.35,2.54-.1,3.77c-3.25,8.8-4.44,18.12-6.89,27.12-1.33,4.87-1.7,5.43-6.79,5.6C58,270.55,55.88,271.13,57.21,268.34Z"/><path class="cls-2" d="M310.39,359.37c5.54.58,10.91,2.4,17.45,2.12,7.83-.56,13.18-5,15.27-13.61.7-2.89,1.05-5.88,1.54-8.83.75-4.5,0-8.54-3.65-11.68-.84-.75-1.17-1.32-.05-2.09,5.78-4,6.13-10.16,6.58-16.3.39-5.22-2.31-8.68-6.56-11a35.35,35.35,0,0,0-12.44-4.34c-1-.13-2.43-.75-3,0-.88,1.2.8,1.49,1.43,2.11.85.84.39,1.67.18,2.54-1.26,5.3-2.53,10.61-3.75,15.92-.82,3.56-2.13,6.62-6,7.85-2.24.7-2.49,2.17-.72,3.71a5.71,5.71,0,0,1,1.95,6c-1.68,7.61-3.41,15.21-5.12,22.82-.32,1.49-.66,2.86-2.75,2.26-1-.28-1.9,0-1.94,1.19C308.77,359,309.61,359.28,310.39,359.37Zm17.09-35.87c1.58-6.25,3-12.55,4.43-18.84a19.61,19.61,0,0,1,.64-3c.6-1.35-.34-3.81,1.36-4s3.63,1.14,5,2.64,1.45,3.54,1.53,5.66a65.21,65.21,0,0,1-1.48,12.86c-1.17,5.19-3.68,7.12-8.93,7.46C327.84,326.41,326.85,326,327.48,323.5Zm-7.68,32.56c.46-3.37,1.58-6.56,2.34-9.84q1.58-6.83,3.33-13.63c.39-1.5.22-3.88,2.68-3.52s5.38.64,6.21,3.74a26.25,26.25,0,0,1,.43,4.64,36.25,36.25,0,0,1-3,13.64c-1.91,4.54-5.74,6.11-10,7.1C320.13,358.58,319.53,357.94,319.8,356.06Z"/><path class="cls-2" d="M238.53,286.66c-3.61,14.76-7.79,29.37-12.31,43.88-.54,1.72-.92,3.23-3.23,3a1.57,1.57,0,0,0-1.85,1.57,1.65,1.65,0,0,0,1.58,1.88,38.6,38.6,0,0,1,7.21,1.63,2.45,2.45,0,0,0,2.51-.69c1-1,0-1.63-.62-2.21a2.18,2.18,0,0,1-.32-2.53,200.87,200.87,0,0,0,7.11-26.32c.28-1.45.82-2.34,2.63-1.86,2.76.74,5.57,1.3,8.38,1.84,2.21.43,2.84,1.33,2.25,3.74-2.07,8.58-5.36,16.83-6.84,25.56-.28,1.62-.92,2.59-2.83,2.25a1.59,1.59,0,0,0-1.69,1.35c-.24.9.5,1.38,1.08,1.89,1.81,1.6,4.29.8,6.1,1.74,2.56.15,3.62-1.16,2.4-3.13-1-1.52-.33-2.7,0-4,4.51-18,11-35.46,14.54-53.71.17-.86.13-1.94,1.11-2.34s3-.26,2.53-2.15c-.41-1.61-2.27-1.48-3.59-1.87-.74-.22-1.58-.16-2.28-.45-3.18-1.33-4.65-1.17-2.55,2.63a2.74,2.74,0,0,1-.17,1.84c-2.35,7.3-3.92,14.81-5.78,22.23-.3,1.19-.56,2.22-2.31,1.79-3-.76-6.08-1.33-9.14-1.92-2-.39-2.32-1.39-1.8-3.33,1.72-6.54,3.24-13.13,4.83-19.7.41-1.72.4-3.48,2.34-4.62,1.58-.94.82-2.13-.53-3-2-1.27-4.28-.94-6.39-1.52-.8-.22-1.53-.39-2,.48a1.31,1.31,0,0,0,.54,2,1.9,1.9,0,0,1,1.09,2.22C239.81,278.72,239.48,282.76,238.53,286.66Z"/><path class="cls-2" d="M331.29,429.62c2.81-12.4,4.76-25,7.34-37.4.73-3.56,1.22-7.2,2.29-10.65,1.26-4.08,1.47-4-2.93-4.06-3.9,0-3.87,0-2.73,3.92a4.38,4.38,0,0,1-.17,1.88c-1.24,6.63-2.4,13.28-3.76,19.89s-1.46,6.3-8.44,6.13c-3.76-.09-3.59-1.75-3-4.24,1.77-8.12,3.57-16.23,5.33-24.34a2.61,2.61,0,0,1,1.06-2c2.79-1.71,1.05-2.68-.71-3.2s-3.73-.9-5.3.18.24,2.3.3,3.48a3.41,3.41,0,0,1-.19,1.14c-1.54,4.85-1.87,9.93-2.88,14.88-2.86,14-5.29,28.05-7.79,42.1-.63,3.56,0,7.61-3.2,10.48a1.2,1.2,0,0,0,.51,1.95c2.41,1,5,1.66,7.51.77,1-.37,2.52-2.26.61-2.78-3.09-.83-2.16-2.76-2-4.52.66-9.5,3.29-18.65,5-28,.24-1.31,0-3.18,2.16-3,2.92.24,6-.08,8.6,1.63.22.15.07,1,0,1.46-1.27,9.78-2.44,19.59-4.59,29.23-.36,1.6-.67,3.22-2.07,4.5s-.73,2.46,1.07,3a7.25,7.25,0,0,0,3,.21c4.24-.42,4.23-.37,2.8-4.28a2.8,2.8,0,0,1,0-1.52C330.36,441,330,435.17,331.29,429.62Z"/><path class="cls-2" d="M423.84,392.24c-2-5.52-5.74-9-11.37-10-6.31-1.1-11.66.73-15.64,6.27s-6.35,11.81-8.93,18c-4.45,10.82-5.91,21.77-2,33,2.44,7.09,7.48,11.64,14.9,12.62,6.14.8,10.7-2.76,14-7.58,8.22-12.1,11.63-25.63,11.11-40.17A37.51,37.51,0,0,0,423.84,392.24ZM411.45,389c3,2.6,4.27,5.79,4.26,10.78-.62,11-.69,21.52-4.95,31.47a86.9,86.9,0,0,1-6.22,11.67c-.82,1.33-1.68,2.81-3.54,2.62a4.66,4.66,0,0,1-4-3.29,41.31,41.31,0,0,1-2.69-21.39,158.18,158.18,0,0,1,5.37-22.74,21.94,21.94,0,0,1,5.33-9C407.27,386.79,409.25,387.07,411.45,389Z"/><path class="cls-2" d="M95.66,253.19a8.05,8.05,0,0,0,10.38-.54,4.17,4.17,0,0,0,1.65-4.12c-.38-1.9-1.7-2.83-3.36-3.44-.71-.27-1.66-.68-2.07.19s.62,1.19,1.21,1.64c2.44,1.85,2.36,3.24-.23,4.92a5,5,0,0,1-5.16.35c-3.48-1.66-4.07-5.49-1-9.21,5.75-7,11.6-8.69,20.42-6.59,5.74,1.36,5.68,1.61,4.38,7.35-.29,1.26-.5,2.55-.89,3.78-6.46,20.31-12.42,40.75-16.16,61.77-.76,4.29-2.06,7.78-7,8.55-.9.14-1.88.6-1.85,1.7,0,1.29,1.09,1.62,2.18,1.79a63.9,63.9,0,0,1,19,5.35c1.13.56,2.23.95,3.17-.14s-.26-1.87-.75-2.68a8.66,8.66,0,0,0-1.45-1.84,5.1,5.1,0,0,1-1.22-6.63,14.12,14.12,0,0,0,.87-3c4.83-20.75,11.71-41,16.35-61.76.78-3.52.88-3.35,3.71-1.11,5.13,4,10.44,7.75,18.6,7.17a12.16,12.16,0,0,0,8.69-3c1-.81,2.77-1.35,1.82-2.89-1.13-1.84-2.13.09-3.14.63-.45.24-.8.68-1.27.88-4.9,2.17-9.92,3.25-14.95.6a52.43,52.43,0,0,1-10.54-7.23,58.58,58.58,0,0,0-16.57-10.81c-9.64-3.95-21.22-.32-26.2,8.47C92.17,247.24,92.62,250.69,95.66,253.19Z"/><path class="cls-2" d="M356.58,333.61c2.28,1.95,2.49,4.33,2.4,7-.19,5.3-1.12,10.56-.87,15.92s2,8.92,5.91,10.45c5.62,2.23,11.77,1.31,15.05-2.71,4.22-5.14,7.84-10.64,9.1-17.41.58-3.11.7-6.57,3.94-8.53a1,1,0,0,0,.38-1.37c-2.09-4.69,0-9.5-.4-14.24,0-1.82,0-3.64-.13-5.46-.45-7-5.7-12.57-13.06-14-4.21-.82-9.67,3-12.35,8.92A83,83,0,0,0,361.3,326c-.52,2-1.45,3.57-3.75,3.94C354.56,330.4,354.82,332.09,356.58,333.61Zm17.94-22.74c2.49-3.2,5.31-2.83,7.28.66,3.59,6.38,2.55,13.13,1.48,19.76-1.33,8.36-4.47,16.23-8.11,23.85a22.24,22.24,0,0,1-3.53,5.1c-2.24,2.5-4.41,1.87-5.28-1.37a2.82,2.82,0,0,1-.12-.77c-.07-2.19-.12-4.39-.17-6.6-.46-12.86,2.51-25.17,6.54-37.27A11.36,11.36,0,0,1,374.52,310.87Z"/><path class="cls-2" d="M300.52,414.1c2.05-11.5,4.13-23,6.14-34.5.66-3.74,3.29-2,5.2-1.86,2.77.19,1.16,1.87.81,3s-.9,2.41,1.06,2.37c1.56,0,3.79-4.07,3.63-6.28s-2-2.7-3.64-2.63a53,53,0,0,1-7.77-.33c-6.31-.73-12.62-1.54-17.76-2.18-8.5-.13-14.39,4.7-15.05,12-.59,6.59,2,10.77,7.74,11.43,5.13.59,9.27-4.83,7.23-9.21-.49-1.06-1.06-2.37-2.53-1.78s-.58,1.62-.31,2.62c.74,2.72-.69,5.29-3,5.77-3.15.64-6.24-1.93-6.7-5.58a10.94,10.94,0,0,1,10.71-12.24c4.19-.12,8.23,1.08,12.36,1.49,2.8.28,3.76,1.2,3,4.23-1.27,4.75-2.06,9.63-3,14.47-2.76,14.79-5.52,29.58-8.14,44.4-.47,2.63-1.59,3.94-4.27,4-1,0-2.23.07-2.23,1.55,0,1.11.88,1.52,1.81,1.71,3.68.75,7.36,1.54,11.06,2.15,1.25.2,2.83.19,3.32-1.35.56-1.76-1.12-2.26-2.22-2.65-2.4-.85-2.53-2.33-2.1-4.56C297.5,431.49,299,422.79,300.52,414.1Z"/><path class="cls-2" d="M497.12,431c-.74-1.67.49-4.88-2-4.85-2.23,0-2.54,3.18-3.38,5.14a16.2,16.2,0,0,0-.5,1.88,2.17,2.17,0,0,1-1.89,1.71c-2.55.41-5.1.82-7.65,1.25s-3.59-.55-3.42-3.18c.36-5.31.51-10.62.8-15.93.05-1-.34-2.48,1-2.59s1.37,1.36,1.39,2.36c0,1.63.69,3,2.25,3.19,1.77.24,2.41-1.34,2.76-2.74,1.09-4.44.95-9,.94-13.51a2.33,2.33,0,0,0-2.13-2.4,2.6,2.6,0,0,0-2.82,1.64,11.51,11.51,0,0,0-.63,1.82c-.24.83,0,2.09-1.25,2.1s-1-1.3-1.07-2.1c-.13-2.45-.14-4.91-.19-7.37h.2c0-2.32-.13-4.66-.14-7,0-.82-.4-2,.94-2.17a26.17,26.17,0,0,1,6.14-.57c1.66.16,1.45,2.23,2.08,3.45s1.61,2.51,3.17,2.57c1.72.07,2.35-1.43,3-2.72,1.58-3.28.21-6.64.18-10,0-2.59-1.51-3-3.66-2.33a37.15,37.15,0,0,1-7.54,1.88c-3.49.38-7,.72-10.43,1.15-2.43.31-3.9,1.17-2.7,4.1,1,2.54,1,5.29,1,8.05-.18,16.47-.26,32.94-.42,49.41,0,1.44,0,2.81,1.82,2.71,8-.46,16.13-.84,23.53-4.48,2.45-1.21,3.7-3.17,2.16-6.09C497.91,434,497.75,432.36,497.12,431Z"/><path class="cls-2" d="M204.2,369.93c.52-1.86-.47-3-2.13-3.6s-2-1.38-1.84-3.17c1-11.53-6.42-19.84-18.13-20.44A19.72,19.72,0,0,0,163,353.63c-.89,1.8-1.76,2.84-4,2.89s-3,1.71-1.24,3.38a3.62,3.62,0,0,1,1.13,3.8,21.55,21.55,0,0,0,.56,8.49c2.32,11.23,16.76,17.44,26.51,11.3,3.76-2.36,7.25-5.08,9.52-9,1.23-2.12,2.71-3.31,5.33-2.8C202.2,372,203.72,371.68,204.2,369.93ZM194,364.54c-3.13.6-3.6,2-1.75,4.54a1.87,1.87,0,0,1,.33,2.06c-1.93,5.36-8.28,9.9-14.13,10-4.27,0-7.8-1.2-10.26-5.06A30.74,30.74,0,0,1,163.46,366c-.27-1.26-.76-2.7,1.75-2.9,3-.24,3.77-2.28,1.57-4.34-1.77-1.68-1.09-2.72-.11-4.27,6.4-10.18,21.1-7.83,26.79-.44,1.9,2.47,2.32,5.43,2.52,8.44C196.07,363.92,195.41,364.26,194,364.54Z"/><path class="cls-2" d="M465.17,385.54c-1.32-1.09-2.59-.45-3.52.38-1.48,1.35-2.45,1.06-4-.07-3.9-2.9-8-2.37-12.05-.07-3.07,1.74-4.95,4.51-6.65,7.47-6.55,11.43-7.79,24.09-8.6,37.09a51.77,51.77,0,0,1,.6,5.59c.06,9.78,9.51,16.37,19.33,14.63,10.56-1.87,15.28-14,13.12-20.24-.39-1.14-.8-2.43-2.14-2.49s-1.34,1.4-1.7,2.29c-1.47,3.62-2.86,7.27-5.57,10.21-4.9,5.33-10.15,5-14.3-.8a13.24,13.24,0,0,1-2.43-6.1,56.47,56.47,0,0,1,2.83-26.85c1.68-4.48,2.92-9.24,6.32-12.85,1.66-1.77,3.69-3.06,6.22-1.64,2.37,1.33,1.49,3.14.72,5.06a3.41,3.41,0,0,0,1.19,4.19c1.29,1,2.56.16,3.59-.54,4.17-2.83,6.52-7,7.94-11.68A3.24,3.24,0,0,0,465.17,385.54Z"/><path class="cls-2" d="M194.79,329.14c2.54,1,5.11,1.85,7.69,2.68a1.67,1.67,0,0,0,2-.87,1.43,1.43,0,0,0-.69-2.25,2.53,2.53,0,0,1-1.3-3.58c2.34-6.1,2.94-12.63,4.72-18.87.37-1.29.59-2.33,2.31-2.62,2.66-.46,3-2.46,1.61-4.32-1.16-1.5-1-2.8-.68-4.34,1.29-6.1,3.28-12,4.47-18.15,1.23-6.35,1.43-6.28,7.75-5.15,2.86.51,5.94.64,4.23,5a1.65,1.65,0,0,0,.81,2.32,2,2,0,0,0,2.26-1.16c1.47-2.45,2.89-4.94,4.16-7.49.95-1.92.2-2.88-2-3a62.27,62.27,0,0,1-25.88-6.26,42.46,42.46,0,0,0-6.23-2c-1.7,0-3.1.26-3.49,1.34-1.11,3-2,6.16-2.76,9.28a1.83,1.83,0,0,0,1.09,2.26c1,.37,1.75-.26,2.36-1,1.25-1.48,2.5-3,3.69-4.49s2.4-1.59,4-.55a20.55,20.55,0,0,0,4.26,1.87c2.11.72,2.68,1.92,2.11,4.14-1.85,7.16-3.49,14.38-5.26,21.56-.4,1.62-.79,3.25-2.9,3.73-1.88.43-2.26,2-1.08,3.25,1.92,2,1.21,4.05.7,6.18-1.31,5.42-2.64,10.84-3.95,16.26-.42,1.7-.79,3.37-3.24,2.85a1.67,1.67,0,0,0-2.15,1.21A1.93,1.93,0,0,0,194.79,329.14Z"/><path class="cls-2" d="M468.34,344c-2.41-1.82-2.77-4.24-2.54-6.94.12-1.42.32-2.83.44-4.27.66-8.09.66-8.05,8.84-9.24,1.64-.23,2.75-.2,3.26,1.65.27,1,.66,2.2,2,2s1.6-1.52,1.86-2.66c1-4.36.87-8.78,1-13.2.06-3-1.19-3.33-3.62-2.31a30,30,0,0,1-10.28,1.9,122.84,122.84,0,0,1-23.32-1.07c-3-.43-4.49-.49-4.16,3.46.28,3.27-.88,6.66-1.3,10-.12,1.06-1.33,2.39,0,3.17,1.1.65,2.18-.39,3.1-1.1.61-.47,1.16-1,1.77-1.52.89-.69,9.67-.14,10.34.66s.5,2,.42,3a73.32,73.32,0,0,0-.65,7.37c0,3.08-.22,5.64-3.81,6.72-1.63.48-2.48,2.14-.34,3,3,1.13,3.15,3.5,3.51,5.93a65.74,65.74,0,0,1,.29,13.23c-.15,3.16-.85,6.2-3.73,8.21-.85.6-1.68,1.46-1.16,2.63s1.64,1.21,2.68,1.21c2.21,0,4.42-.08,6.62-.14v-.34c1.69,0,3.38,0,5.06-.13,1.17-.09,2.78,1,3.4-.8.48-1.37-.9-2.07-1.74-2.76a8.73,8.73,0,0,1-3.12-6.85,48.48,48.48,0,0,1,1.31-13.54c.43-1.78,1-3.63,3.17-4C470.54,346.67,470.13,345.34,468.34,344Z"/><path class="cls-2" d="M395.65,323.58c1.57.7,2.47-1,3.45-2a18.41,18.41,0,0,0,1.44-1.83,2.56,2.56,0,0,1,3.26-1.1c5.15,1.38,5.19,1.24,5,6.68-.07,2.21-.14,4.4-.14,6.61s-.51,4-2.72,5.16c-1.95,1-1.89,2.31-.06,3.49,1.52,1,1.77,2.46,1.8,4.17-2.8,7.56,1.06,17.56-8.74,22.64-2,1-1,3,1,3.06,4.71,0,9.28,1.1,13.93,1.45a2.35,2.35,0,0,0,2.38-.94c.83-1.16-.16-1.67-.77-2.22-2.44-2.18-2.5-4.88-2-7.83s.43-6.29,1.29-9.24.33-7,3-9c4.24-3.13-1.63-5.14-.36-8.19s1-6.88,1.55-10.35c.25-1.63-.37-4.24,2.31-4.16,2.86.07,6.23-1.81,8.45,1.88,1.48,2.46,3.32,2.26,4.32-.48a69.91,69.91,0,0,0,2.07-8.3c.71-3-.58-3.94-3.53-3.72a77.85,77.85,0,0,1-21.32-1.28c-3.94-.8-7.91-1.5-11.88-2.17-1.4-.23-3.58-.38-3,1.66,1.15,4.33-.76,8.18-1.1,12.24C395.21,321.1,393.83,322.79,395.65,323.58Z"/><path class="cls-2" d="M350.45,383.35c.11-.74,0-1.89.87-2a21,21,0,0,1,8.42.87c1.77.51.24,2.49.36,3.8s.15,2.58,1.83,2.05,3-8.13,1.8-9.3a2,2,0,0,0-1.82-.45c-4,.59-7.76-.3-11.55-1.13-1.8-.39-2.72.09-3,1.92-1.31,7.92-3,15.81-3.9,23.78Q341.12,423,337,442.84c-2,9.63-1.65,10.18,8.37,9.93,1.69,0,3.38,0,5.06-.13s3-1.13,2.64-2.67a25.62,25.62,0,0,1-.56-6.15,1.48,1.48,0,0,0-1.38-1.59c-.92-.1-1.42.53-1.61,1.35-.29,1.27-.42,2.58-.81,3.81-1.06,3.31-3.75,2.08-5.9,1.88-2.45-.22-1.37-2.18-1.11-3.33,2.11-9.27,2.76-18.75,4-28.13.2-1.44-.19-3.32,2.31-3.23,2.28.09,2.34,1.52,2.28,3.22,0,.9.14,2.08,1.38,1.84,1-.19,2.58-.39,2.24-2.07-.59-2.93.49-5.65.83-8.46.14-1.15.45-2.67-1-3s-1.66,1.3-1.85,2.41c-.29,1.71-.32,3.36-3,2.89s-2.1-2.16-1.87-3.8Q348.71,395.5,350.45,383.35Z"/><path class="cls-2" d="M556.24,374.24c-2.12-2.75-4.4-5.46-5.9-8.67-.8-1.7-1.41-3.27,0-5,.68-.83,1.33-2.14.12-3.14s-2.52-.52-3.56.36c-3.07,2.58-6.07,5.26-9.1,7.9-.69.6-1.51,1.25-1.07,2.27a2,2,0,0,0,2.65,1.06c3.76-1.77,5,.8,6.42,3.36,1.26,2.27,2.72,4.42,4,6.65.3.51,1.09,1,.61,1.63s-1.2,0-1.78-.16c-6.6-2-12.32-6.08-19-8-.92-.27-1.78-1.45-2.77-.37a2.84,2.84,0,0,0-.39,3.59c2.24,3.8,4.6,7.53,6.7,11.39,4.08,7.46,11.4,13.94,7.45,23.92a1.69,1.69,0,0,0,.46,2.14,2.64,2.64,0,0,0,2.92-.52c3-2.3,6-4.55,8.79-7,1.38-1.2,2.13-3.57,0-4.13-4-1.06-4.81-4.34-6.36-7.2-.43-.8-2.05-1.47-1-2.51.82-.81,1.92.32,2.79.73a28.25,28.25,0,0,0,12,2.93c2.94.29,3.48-2.59,5.09-4.08,1.32-1.24.36-2.53-.4-3.82A123.75,123.75,0,0,0,556.24,374.24Z"/><path class="cls-2" d="M264.65,347.81c4.28,1.06,8.59,2,12.9,2.94,1.33.28,3,0,3.18-1.51.26-1.82,1.59-3.92-.05-5.56-1.31-1.33-2.94-1-2.87,1.1.09,2.65-1.35,2.31-2.95,2-1.79-.31-3.56-.74-5.34-1.07a2,2,0,0,1-1.78-2.53c1.85-8.1,3.81-16.17,5.74-24.25a1.39,1.39,0,0,1,.46-.62c.94-.79,1.08-2.53,2.78-2.4s1.94,1.36,2.13,2.74a1.75,1.75,0,0,0,1.55,1.53,1.54,1.54,0,0,0,1.78-1.18c.62-2.91,1.16-5.84,1.59-8.79a1.67,1.67,0,0,0-1.49-2c-1-.14-1.4.58-1.5,1.4-.27,2.38-1.72,2.09-3.41,1.68-2.34-.57-1.32-2.15-1.05-3.4,1.08-4.94,2.26-9.87,3.37-14.81,2.05-9.08,2-9.05,11.06-6.69,1.83.48,2.88,1.15,2.13,3.06-.14,1-.54,2,.25,2.72a1.29,1.29,0,0,0,1.76-.13c2-1.57,1.87-3.87,1.76-6-.1-2-1.82-1.87-3.2-2.1-3.84-.63-7.78-.74-11.46-2.16s-4.12-1.21-5,2.6c-2.81,12.11-5,24.37-8.42,36.36-2.05,7.24-3.95,14.52-6,21.77C262,344.85,261.61,347.05,264.65,347.81Z"/><path class="cls-2" d="M121.45,346.22c-5.46-3.56-11.56-4.53-17.91-4.17-6.74.4-13.48.92-20.21,1.52-1.9.17-3.49.54-3.93-2.07a1.87,1.87,0,0,0-2.16-1.3c-.59.14-.79.95-.82,1.64,0,1.08.56,2.64-1.29,2.65s-1-1.7-1.27-2.68-.37-1.85-1.54-1.89-1.43,1-1.38,1.9c.16,2.88-1.36,3.52-3.88,3.25a34,34,0,0,0-4.28.07c-12,0-22.81-3.22-32.08-11.07-1.58-1.33-2.8-2.72-2.43-4.95a4.44,4.44,0,0,1,5.33-3.33c2.21.5,3.18,1.72,1.9,3.95-.45.79-.46,1.75.37,2,1.29.35,2.23-.49,2.69-1.7.87-2.24-1.1-5.7-3.66-6.47-3.13-1-6.74.27-8.24,2.81A6.84,6.84,0,0,0,27.77,335a47.27,47.27,0,0,0,15.38,9.7c7.86,2.92,16,3.41,24.19,3.15,2.19-.07,4.27-.22,4.27,2.92,0,.83.49,1.55,1.47,1.37s1.11-1,1.11-1.79c0-1.1-.57-2.45,1.26-2.72s1.7,1.23,2.21,2.19c.43.79.8,1.82,1.93,1.56,1.38-.32,1.33-1.38.94-2.47-.66-1.86.73-1.89,1.88-2,9-1.14,18-2.31,27.15-1.64a19.66,19.66,0,0,1,11.18,4.14c2,1.63,3.25,3.94,2.06,6.56-1,2.12-2.73,3.63-5.28,3.1s-5-1.84-5.16-5c-.07-1.15,0-2.16-1.37-2.24-1.89-.1-1.51,1.5-1.57,2.51-.23,4,6.41,8.62,10.51,7.35,3.17-1,5.65-2.82,5.88-6.46A9.32,9.32,0,0,0,121.45,346.22Z"/><path class="cls-2" d="M226.61,373.78c-1.56-.61-1.92.83-2.35,1.89-1,2.41-2.87,1.11-4.36,1-1.85-.16-1.55-1.51-1.43-2.92.33-3.93,2.23-7.45,2.81-11.31.14-.95.57-1.88,1.8-1.38,4.86,2,10.16,2.08,15.09,3.72,1.71.56,1.89,1.52,1.46,3-.15,1.1-.85,2.38.6,3.09,1.26.6,2.39-.3,3.19-1,2-1.72,3.62-4.14,3.33-6.68s-3.18-1.54-4.94-1.94c-8.31-1.88-16.94-2.5-24.69-6.54-.93-.49-2.06-1.66-3-.12-.77,1.24,0,2.32,1,3.05s1.86,1.51,1.45,3.17c-2.72,10.94-4.33,22.16-8.53,32.73-.84,2.1-1.83,3.5-4.27,2.67-1.2-.41-2.06-.25-2.54.94s.35,1.89,1.41,2.27a69.67,69.67,0,0,0,10.91,2.83c1.1.2,2.22,0,2.63-1.13s-.42-1.95-1.55-2.19c-2.75-.59-2.59-2.14-1.82-4.35,1.41-4,2.55-8.16,3.74-12.27.39-1.33.3-3.19,2.47-2.51,1.62.51,4.32-.26,4.09,2.94-.07,1-.44,2.17,1.38,2,1.44-.11,2-.74,2.14-2.15.19-1.93.58-3.84.92-5.76C227.72,375.64,228,374.31,226.61,373.78Z"/><path class="cls-2" d="M534.71,415.67a12.62,12.62,0,0,1-4.41-4.85c-5.57-9.41-10.82-18.95-13.64-29.65-.48-1.82-.9-3.45.12-5.22.58-1,1.15-2.2,0-3.2s-2.31-.1-3.15.55c-3,2.35-6.58,3-10.18,3.35-1.75.19-3.3.56-3.36,2.43s1.73,2.05,3.12,2.24c1.63.2,2.58.83,2.77,2.6,1,9.3,2.21,18.58,1.44,28,.11,4.41.13,8.82.34,13.22.12,2.59,0,4.81-2.66,6.3-1.75,1-1.58,3-.84,4.56.9,1.89,2.68,1.47,4.08.78a96.57,96.57,0,0,0,8.84-4.92c1.64-1,2.28-3.23.44-4.17-3.1-1.57-2.18-4.06-2.31-6.37-.16-3,2.19-3.95,4.29-4s3.31,1.7,2.95,4.11a7.48,7.48,0,0,0,.08,2.71c.47,2.08,2.07,3,3.8,2a61.41,61.41,0,0,0,8.59-6C536.55,418.86,537,417,534.71,415.67ZM514,397.84c0-.32,0-.82.6-.76.06,0,.21.06.25.15a68,68,0,0,1,3.85,7.92c.6,1.78-1.57,2.41-2.63,3.44-.63.62-1.53.85-1.62-.35C514.18,404.78,514.1,401.31,514,397.84Z"/><path class="cls-2" d="M479.92,339.47c.18.92,1.17.81,1.9,1,5.76,1.8,7.69,4.27,8.18,10.38.22,2.58.28,5.19.67,7.75,1.24,8,7.08,13.56,13.8,13.38,5.5-.16,11-4.73,12.46-10.61a83.75,83.75,0,0,0,1.35-8.84c.81-6.21-.1-12.83,5-17.92,1.23-1.23,1.2-3.05-1.2-3.36-2-.26-2.59-1.6-2.83-3.2q-.59-4.05-.94-8.11a29.58,29.58,0,0,0-6-15c-3.88-5.23-10-6.54-13.83-3a27.29,27.29,0,0,0-8.69,14.45c-.83,3.92-1.55,7.89-2.46,11.8s-2.43,7.41-6,9.65C480.71,338.31,479.73,338.51,479.92,339.47Zm23.53-31.88c2.71-.16,3.56,2.42,4.24,4.45,2,6,2.35,12.24,2.36,18.47a93.38,93.38,0,0,1-3.19,25.42c-.28,1-.55,2-.91,3-.5,1.36-1.05,3-2.65,3s-1.72-1.7-2.33-2.79c-3.19-5.71-2.92-12-3-18.23-.23-9.6-.38-19.21,2.27-28.58C500.76,310.41,500.82,307.74,503.45,307.59Z"/></g><g id="bottomsplash"><path class="cls-1" d="M575.56,438.82c13.29-.9,24-4.47,32.81-12.38,4.82-4.29,8-9.58,8-16.22,0-9.64-5.73-14.68-14-12.75-3.33.77-5.22,3.09-7.24,5.51-8.33,10.08-12.88,23.17-24.84,30.43-2.56,1.55-1.38,4.27,1.51,5.1A12,12,0,0,0,575.56,438.82Z"/></g><g id="tailsplash"><path class="cls-1" d="M595.38,26.57c-9.51,14.23-13,30.39-13.66,47.25-.11,2.83-.93,5.66,0,8.51.37,1.08.93,2.07,2,2.13,1.43.08,1.29-1.28,1.42-2.25a8.43,8.43,0,0,1,.33-2.28c4.41-9.56,10.18-18.2,19-24.11,7.34-4.88,15.15-9,22.7-13.59a73.59,73.59,0,0,0,16.2-12.67c4.91-5.31,8-11.73,4.56-18.84-3.11-6.43-8.23-11-16.14-10.71-1,0-2.08,0-3.11.09a11.32,11.32,0,0,0-2.26.56C612.81,5.32,603.16,14.94,595.38,26.57Z"/><path class="cls-1" d="M657.36,67.25c-.65.91-1.2,1.78-.17,2.72s1.94.19,2.66-.54A19.92,19.92,0,0,1,663,66.59c11.84-7.73,24.67-12.55,38.88-13.3,4.28-.22,8.54.72,13.42.13a53.93,53.93,0,0,0,7.57-.22c7.6-1.17,11.17-7.83,7.8-14.38a10.73,10.73,0,0,0-8-5.67c-8.81-1.7-17.43-.49-25.73,2.36-11.69,4-20.62,12.37-29.85,20.14C663.24,58.93,660.26,63.07,657.36,67.25Z"/><path class="cls-1" d="M620.76,60.35a18.67,18.67,0,0,0-2.85,6.8c-.23.87-.42,1.94.68,2.35.93.36,1.26-.63,1.71-1.22a31,31,0,0,1,9.17-7.68A113.65,113.65,0,0,1,655,50.28c4.34-1.25,8.83-2.37,12.42-5.33,2.93-2.4,5.76-5,5.42-9.3-.68-7.92-3-10.61-12.46-9.21a16.24,16.24,0,0,0-6.59,2.26C640.72,37.13,630.12,48.11,620.76,60.35Z"/></g><g id="spout"><path class="cls-1" d="M194.23,145.54c1.23.28,2.18-.72,2.57-1.92.89-2.7,2.88-4.59,4.73-6.59,5.74-6.17,11.74-12.12,17.25-18.49A43.24,43.24,0,0,0,229.46,91.7c.12-3.63-3.22-6.21-7.67-4.85a16.8,16.8,0,0,0-6.45,3.5c-6.73,6.11-12.1,13.14-15.23,21.77-3.61,10-4.92,20.4-6.45,30.8C193.52,143.83,192.75,145.22,194.23,145.54Z"/><path class="cls-1" d="M210.39,144.87c-11.77,8.68-20.82,19.77-28.1,32.37-.6,1-1.3,2-.32,3.16,1.15,1.37,2.19.19,3.05-.34,6.71-4.18,13.9-7.46,20.83-11.24,6-3.29,12.13-6.45,17.11-11.29,3-2.89,6-5.76,7.38-9.83a6.7,6.7,0,0,0-6.33-8.48C219.42,140.42,214.52,141.83,210.39,144.87Z"/><path class="cls-1" d="M169.88,110.23c-4.91-2-9.74.3-11.58,5.25a15,15,0,0,0,.87,12.76c1,1.84,2.2,3.54,3.07,5.42,4.79,10.35,13.32,19.09,13.5,31.43,0,.76.14,1.74,1,1.86,1.11.15,1.63-.85,1.8-1.7,1.63-8.1,5.22-15.86,4.14-24.34.69-8.9-1.8-17-6-24.6A13.22,13.22,0,0,0,169.88,110.23Z"/><path class="cls-1" d="M214.9,191.66a12,12,0,0,0,2.76-5.54c-.27-5.66-4.39-8.71-9.7-7.5a22.82,22.82,0,0,0-5.08,1.93c-9.42,4.6-15.51,12.88-22.41,20.25-4.14,4.45-6.4,10-8.75,15.54-.43,1-.74,2,.44,2.76a1.36,1.36,0,0,0,2-.53c5.11-7.73,13.35-10.75,21.3-14.34C202.54,201,209.75,198,214.9,191.66Z"/><path class="cls-1" d="M167.15,189.89c0-1.39,0-2.43-.09-3.46-1.06-9.65-2.63-19.06-11-25.65-2.8-2.23-5.6-4.16-9.14-2.21-3.73,2.07-6.9,4.81-6.79,9.62.14,5.85,1.48,11.27,5.93,15.56,2.43,2.34,4.52,5,6.85,7.44,4.84,5.08,8.58,10.75,9.69,17.83.16.94.21,2,1.34,2a1.85,1.85,0,0,0,1.8-2.14C165.61,202.41,167.85,196.08,167.15,189.89Z"/></g></g></svg>