<svg id="Layer_1" data-name="Layer 1" xmlns="http://www.w3.org/2000/svg" width="765.97" height="562.35" viewBox="0 0 765.97 562.35"><title>ball</title><path d="M373.12,242c-7.28-5.72-18.62-4.15-24.23,3.35-4.76,6.37-4.34,13,1.35,20.84,0.6,2.09,1.59,3.46,3.9,2.37-2.21-7.68,1.28-13.76,5.65-19.6h0c-1.14-1.45-1.53-2.94.17-4.21a4.17,4.17,0,0,1,5.24-.06c1.85,1.26,1.3,2.69.31,4.15,4.38,5.23,7.41,11,7,18.08a2.51,2.51,0,0,0,.95.55h0c0.55-.6,1.13-1.17,1.64-1.8C381,258.36,380.12,247.53,373.12,242Z" fill="#3c4289"/><path d="M372.51,267c0.42-7.1-2.62-12.85-7-18.08a6.74,6.74,0,0,1-5.72.12h0c-4.37,5.84-7.86,11.92-5.65,19.6,0,0.08,0,.17.06,0.25,4.2,2.92,8.64,3.87,13.51,1.7,1.81-.8,3.7-1.43,5.55-2.13l0.2-.91h0A2.51,2.51,0,0,1,372.51,267Z" fill="#61679e"/><path d="M365.51,248.88c1-1.47,1.53-2.89-.31-4.15a4.17,4.17,0,0,0-5.24.06c-1.7,1.27-1.31,2.76-.17,4.21h0A6.74,6.74,0,0,0,365.51,248.88Z" fill="#f1f5f5"/></svg>