<svg id="Layer_1" data-name="Layer 1" xmlns="http://www.w3.org/2000/svg" width="765.97" height="562.35" viewBox="0 0 765.97 562.35"><title>balloons</title><path d="M341.63,404.13c-4.47-2.22-8.7-1-12.36,2.26h0c0,5.49-.14,11-0.05,16.47,0.12,7.45,3.91,9.82,10.83,6.91a1,1,0,0,1,1.4.22h0c3.78-3.93,6.27-8.46,6.5-14C348.17,410.81,346.36,406.48,341.63,404.13Z" fill="#e86564"/><path d="M288.88,476.33a14.92,14.92,0,0,1,8.92-4,28.43,28.43,0,0,0,7.16-1.93c17.8-7.07,21.63-19.39,20.31-33.65h0l0.49-1.33c6.46,8.82.91,25.37-11.2,32.83a98.8,98.8,0,0,1-9.29,4.48l-10.95,2.38-5.69,1.5Z" fill="#362517"/><path d="M340.05,429.77c-6.92,2.91-10.71.54-10.83-6.91-0.09-5.49,0-11,.05-16.47h0a14.32,14.32,0,0,0-5.32,8.4A26.52,26.52,0,0,0,325,430c0.33,1,1.53,2.18.72,3-4.59,4.62-.07,4.07,2.53,4.64h0l0.27-.93a1.24,1.24,0,0,1,1.36-1.19c5,0.59,8.35-2.32,11.57-5.48h0A1,1,0,0,0,340.05,429.77Z" fill="#8a3436"/><path d="M528.12,262.91c-0.75-4.17-2.28-7.7-6.63-8.79-4.76-1.2-8.2,1.51-10.62,5.13-4.58,6.85-5.59,14.22-2.19,22,0.43,1,1.79,1.9.55,3.22-1.59,1.69-1.58,1.71.7,2.64,0.79-.2,1.47-0.9,2.39-0.52h0C523.25,283.1,529.92,273,528.12,262.91Z" fill="#e3a425"/><path d="M509.93,287.09c-4.54,4.62-6,10.54-6.65,16.65-0.92,9.05-5.33,15.47-13.42,19.51a48.06,48.06,0,0,0-11.66,8.14c-4.59,4.36-8,9.45-9.16,16a2.63,2.63,0,0,0,1-.38c3.88-11.48,12.52-18.3,22.74-23.8,6.74-3.63,10.53-9.43,11.57-17.21,0.95-7.11,1.93-14.38,8-19.47h0C511.41,286.18,510.72,286.89,509.93,287.09Z" fill="#301d10"/><path d="M468.86,280.57c-1.33-8.69-8.91-13.35-15.38-9.54-6,3.52-10,13.61-8.17,20.57,4.08,7.19,17.84,6.67,22.24-1.33,0.39-.7.89-1.34,1.34-2h0A22.6,22.6,0,0,0,468.86,280.57Zm-14.14-.51c-2.06.07-2.54-2-2.54-3.59a3.51,3.51,0,0,1,3.82-3.83c2.14,0.05,2.5,1.71,2.53,3.85A3.66,3.66,0,0,1,454.72,280.07Z" fill="#62679e"/><path d="M445.3,291.61a12.34,12.34,0,0,0,4.86,10.93c1.06,0.88,2.33,1.64,2,3.19-0.75,3.84,1.16,3.37,3.53,2.3h0l0.58-1h0a2.65,2.65,0,0,1,1.64-2.13c7.85-2.75,10.32-9.06,11-16.59h0c-0.45.67-1,1.31-1.34,2C463.14,298.27,449.38,298.79,445.3,291.61Z" fill="#3b4285"/><path d="M455.72,308c1.07,9.62-4.55,14.84-12.4,18.32-8.56,3.79-14.19,10.12-17.59,18.72-1.84,4.64-3.39,9.44-6.34,13.58-5.57,8.74-13.56,12.62-24.65,11.48,3.59,2.42,6.7,1.82,9.68,1.16,6.94-1.53,12.1-5.72,16.19-11.37,1.3-2.66,2.92-5.21,3.84-8,4-12.13,11-21.16,23.25-26.41,7.92-3.4,10.34-10.4,8.59-18.51h0l-0.58,1h0Z" fill="#2c1e13"/><path d="M456,272.65a3.51,3.51,0,0,0-3.82,3.83c0,1.55.47,3.65,2.54,3.59a3.66,3.66,0,0,0,3.81-3.57C458.51,274.36,458.15,272.7,456,272.65Z" fill="#c2dde0"/><path d="M265.4,211.38c2.68,6.59,8.23,9.69,15.61,8.69,2.92-6.06,1.76-12.44,1.46-18.76a49.4,49.4,0,0,0-2.57-5.49c-3.93-6.33-10.66-7.65-16.64-3.4C262.62,198.89,263,205.45,265.4,211.38ZM270,196.25a2.25,2.25,0,0,1,1.88-1.34,4.44,4.44,0,0,1,4,3.51c0.54,2,2,4,.16,6a1.94,1.94,0,0,1-2.23.39C271.25,204,268.84,198.56,270,196.25Z" fill="#1fa26c"/><path d="M281,220.07c-7.37,1-12.93-2.1-15.61-8.69-2.41-5.93-2.78-12.48-2.14-19-2.88,1.58-3.81,4.51-5,7.25-1.55,11,4.4,21,15.67,26.35,1-1.07,2.08-1.77,3.18-.07,1.45-1.87,3.25-3.5,3.94-5.87h0Z" fill="#327455"/><path d="M273.89,226c-1.14,4.8-4.34,7.66-8.78,9.36-9.42,3.58-15.32,10.42-18.43,19.87-0.55,1.67-1.26,3.29-1.87,4.95-3,8.16-9,13-17.23,15.29-2.88.79-5.8,1.48-8.59,2.51-8.51,3.17-15.86,12.75-15.53,20.37a10.41,10.41,0,0,0,.87-1.61c3.3-10.76,10.62-17,21.52-19.35A30.54,30.54,0,0,0,237,272.72c6.51-4.47,9.09-11.28,11.49-18.24s6.56-12.44,13.1-16c4.14-2.23,8.28-4.22,11.94-7.51,1.83-1.64,3.65-2.38,3.49-5.08h0C276,224.24,274.92,224.94,273.89,226Z" fill="#2d1c11"/><path d="M273.77,204.86a1.94,1.94,0,0,0,2.23-.39c1.87-2,.38-4-0.16-6a4.44,4.44,0,0,0-4-3.51,2.25,2.25,0,0,0-1.88,1.34C268.84,198.56,271.25,204,273.77,204.86Z" fill="#60c4b4"/></svg>