<svg id="Layer_1" data-name="Layer 1" xmlns="http://www.w3.org/2000/svg" width="765.97" height="562.35" viewBox="0 0 765.97 562.35"><title>boat2</title><path d="M326.66,225.41c-1.06,0-.51,9.08-0.52,9.83,0,3.55-.16,7.09-0.36,10.63-0.09,1.61,2.41,1.6,2.5,0,0.25-4.36.39-8.71,0.37-13.08,0-2.79.58-6.66-.6-9.24a1.24,1.24,0,0,0-1.08-.62h-0.31c-1.61-.07-1.61,2.43,0,2.5h0Z" fill="#75676c"/><path d="M339.75,225.62L340,247.1a1.25,1.25,0,0,0,2.5,0l-0.29-21.48a1.25,1.25,0,0,0-2.5,0h0Z" fill="#75676c"/><path d="M354.22,225.42q-0.11,11,.31,21.89c0.06,1.6,2.56,1.61,2.5,0q-0.42-10.94-.31-21.89a1.25,1.25,0,0,0-2.5,0h0Z" fill="#75676c"/><path d="M365.85,224.39L366.09,251a1.25,1.25,0,0,0,2.5,0l-0.24-26.64a1.25,1.25,0,0,0-2.5,0h0Z" fill="#75676c"/><path d="M381.29,224q0.54,12.8.76,25.61a1.25,1.25,0,0,0,2.5,0q-0.22-12.81-.76-25.61c-0.07-1.6-2.57-1.61-2.5,0h0Z" fill="#75676c"/><path d="M392.47,225.21v23.33a1.25,1.25,0,0,0,2.5,0V225.21a1.25,1.25,0,0,0-2.5,0h0Z" fill="#75676c"/><path d="M327.45,239.33q36,0.54,72.06,1.33a1.25,1.25,0,0,0,0-2.5q-36-.8-72.06-1.33a1.25,1.25,0,0,0,0,2.5h0Z" fill="#75676c"/><path d="M315.63,218.75a24.79,24.79,0,0,0-.71,5.79,2.29,2.29,0,0,0,.2,1.14,1.88,1.88,0,0,0,.87.71,7.45,7.45,0,0,0,9.18-2.53,8.66,8.66,0,0,0,6.18,3.94,8.4,8.4,0,0,0,6.83-2.45,0.89,0.89,0,0,1,1.57.11A7.53,7.53,0,0,0,351,223.79a1.7,1.7,0,0,1,.73-0.8,1.53,1.53,0,0,1,1.42.63,11,11,0,0,0,6.67,3.22,7.16,7.16,0,0,0,6.5-3.12,7.23,7.23,0,0,0,6.82,3.86,10.88,10.88,0,0,0,7.17-3.7,1.13,1.13,0,0,1,1.14-.54,1.28,1.28,0,0,1,.48.51c1.36,2,3.85,2.73,6.15,3.16a8.88,8.88,0,0,0,4.58,0,3.8,3.8,0,0,0,2.63-3.62c0.64,1.57,1.91,3.16,3.5,3a3.24,3.24,0,0,0,2.5-2.44,10.55,10.55,0,0,0,.19-3.8,1.39,1.39,0,0,0-.33-1,1.15,1.15,0,0,0-.69-0.21c-3.4-.26-6.79.35-10.18,0.71-7.88.82-15.82,0.26-23.73-.18q-25.42-1.39-50.89-1v0.25Z" fill="#08528e"/><path d="M360.82,245.74h0.09V245.6Z" fill="none"/><path d="M400.19,258h0c1.67-1.27,3.22-.36,4.79.25h0l8,0.48-0.32-6.38c-20.53-2-41.14-2.84-61.72-4.08-15.16-.91-30.29-2.48-45.5-2.51h0c2.15,2.27,3.5,5.34,6.6,6.67L400.19,258h0Z" fill="#fafaf8"/><path d="M319.22,260.44c3.64-4.87,6-2.09,9.07,1,5.71,5.68,12.56,4.85,18.33-1,2.59-2.6,4.1-3.44,7.16-.08,6.14,6.75,11.93,6.78,18.7-.75,1.85-2.05,3-2.11,4.73-.18,2,2.2,3.78,4.65,6.61,5.83,6.11,2.55,11.86,0,16.38-7.26h0L312,252.44c0.86,3.54,3.93,5.46,6,8.12A2.28,2.28,0,0,0,319.22,260.44Z" fill="#7f3835"/><path d="M422.37,264.44c-3.16.82-6.35,2.36-9.16-.79-3.66.81-6.15-1.23-8.6-3.46-1.08-1,0-1.34.36-1.93h0c-1.57-.61-3.12-1.52-4.79-0.25h0c-4.52,7.21-10.27,9.81-16.38,7.26-2.82-1.18-4.64-3.63-6.61-5.83-1.73-1.93-2.88-1.87-4.73.18-6.77,7.52-12.55,7.49-18.7.75-3.06-3.36-4.57-2.52-7.16.08-5.77,5.81-12.62,6.65-18.33,1-3.09-3.08-5.43-5.85-9.07-1a2.28,2.28,0,0,1-1.19.12c0.94,2.87-1.39,2.79-3,3.06a23.42,23.42,0,0,1-8.54-.49c4.51,4.65,10,4.26,15.17-1,1.5-1.53,2.2-1.93,3.77-.2,6.78,7.48,15.47,7.44,22.13,1,1.74-1.69,3.51-1.89,5.2.1,8.9,5.92,13.18,5.78,20.89-1.06,1.73-1.54,2.39-.8,3.47.52,2.8,3.44,6,6.07,10.84,6.15,5.26,0.08,8.82-2.9,12.29-6.22,0.71-.68,1.15-2.72,2.62-0.74,1.84,2.49,4.86,3.35,7.14,5.23,4.34,0.66,8.68,1.76,13,.06,1.45-1.7,4.51-1.75,5-4.68C425.48,261.71,424.28,263.95,422.37,264.44Z" fill="#1f8c7b"/><path d="M351,248.28c20.58,1.24,41.19,2,61.72,4.08l2.09-.19a2.22,2.22,0,0,1,.22-0.73h0l-0.18-2.22-4.67-.28-1.94-.11h0c-5.63.06-11.33,0.86-16.77-1.42h0c-0.87.72-1.68,0.05-2.51-.1a47,47,0,0,1-10-.17h0l-1.76,0h0c-5.53,1-10.76-1.33-16.2-1.41h-0.09l-2.43-.12h0l-7.18-.11h0l-1.63-.09c-4.14.89-8-.55-11.95-1.37h0l-2,0-12.13-.22h0l-1.64-.11h0c-5.45.86-10.61-2.12-16.06-1.19-1.22.21-3.08-.74-3.42,1.14-0.43,2.41,1.76,1.78,3.07,2.08h0C320.66,245.8,335.79,247.37,351,248.28Z" fill="#ea9555"/><path d="M369,220.48c10.37,0,20.76-.43,31.13.3h0.1c0.91-.27,2.12-0.52,1.75-1.76-0.48-1.59-2-1-3.16-1q-21.21-.07-42.41,0-19.17,0-38.33,0c-1,0-2.47-.39-2.85.92s1,1.36,1.82,1.76h0.12C334.49,220.58,351.77,220.42,369,220.48Z" fill="#f9f8fc"/><path d="M410.14,248.94c-0.36-6.71.21-13.45-.83-20.14-0.22-1.42-.69-3.59,2.2-2.88,0.2-2.21-3.95-.66-3-3.25,0.92-2.43,3.26-1,4.92-1.15,2.11-.23,3.26-0.86,3.06-3.16-0.1-1.2,0-2.41,0-3.61h0c-3.75,1.54-7,1.1-9.07-3-1.14,1.77-.7,3.29-0.76,4.72-0.4,10.82,1.5,21.54,1.49,32.34h0Z" fill="#667372"/><path d="M416.53,218.36c0.19,2.3-1,2.92-3.06,3.16-1.66.18-4-1.28-4.92,1.15-1,2.59,3.17,1,3,3.25,4,1.17,11.15-2.17,14.35-3.7,2.83-1.35.65-5.1-1.27-8-1.7-2.59-4.65-1.23-7-.06-0.36.18-.69,0.42-1,0.64h0C416.52,216,416.43,217.17,416.53,218.36Z" fill="#e5383b"/><path d="M405,258.27c-0.37.59-1.45,0.94-.36,1.93,2.46,2.23,4.94,4.27,8.6,3.46L413,258.74h0l-8-.48h0Z" fill="#843739"/><path d="M414.76,252.17h25.75v-0.73H415A2.22,2.22,0,0,0,414.76,252.17Z" fill="#5cc4ba"/></svg>