<svg id="Layer_1" data-name="Layer 1" xmlns="http://www.w3.org/2000/svg" width="765.97" height="562.35" viewBox="0 0 765.97 562.35"><title>boat1</title><path d="M335.32,238.78v20a1.25,1.25,0,0,0,2.5,0v-20a1.25,1.25,0,0,0-2.5,0h0Z" fill="#75676c"/><path d="M345.95,239.6q-0.17,9.11.17,18.22c0.06,1.6,2.56,1.61,2.5,0q-0.34-9.11-.17-18.22a1.25,1.25,0,0,0-2.5,0h0Z" fill="#75676c"/><path d="M356.63,239.05l0.05,20a1.25,1.25,0,0,0,2.5,0l-0.05-20a1.25,1.25,0,0,0-2.5,0h0Z" fill="#75676c"/><path d="M371.07,238.65v19.44a1.25,1.25,0,0,0,2.5,0V238.65a1.25,1.25,0,0,0-2.5,0h0Z" fill="#75676c"/><path d="M381.74,238.91q0.45,9.11.33,18.22a1.25,1.25,0,0,0,2.5,0q0.12-9.12-.33-18.22c-0.08-1.6-2.58-1.61-2.5,0h0Z" fill="#75676c"/><path d="M393.72,238.1L394,256.86a1.25,1.25,0,0,0,2.5,0l-0.33-18.76a1.25,1.25,0,0,0-2.5,0h0Z" fill="#75676c"/><path d="M336.85,254.21q36.66-.08,73.29-1.5c1.6-.06,1.61-2.56,0-2.5q-36.63,1.42-73.29,1.5a1.25,1.25,0,0,0,0,2.5h0Z" fill="#75676c"/><path d="M326.37,233.67a24.79,24.79,0,0,0-.71,5.79,2.29,2.29,0,0,0,.2,1.14,1.88,1.88,0,0,0,.87.71,7.45,7.45,0,0,0,9.18-2.53,8.66,8.66,0,0,0,6.18,3.94,8.4,8.4,0,0,0,6.83-2.45,0.89,0.89,0,0,1,1.57.11,7.53,7.53,0,0,0,11.25-1.66,1.7,1.7,0,0,1,.73-0.8,1.53,1.53,0,0,1,1.42.63,11,11,0,0,0,6.67,3.22,7.16,7.16,0,0,0,6.5-3.12,7.23,7.23,0,0,0,6.82,3.86,10.88,10.88,0,0,0,7.17-3.7,1.13,1.13,0,0,1,1.14-.54,1.28,1.28,0,0,1,.48.51c1.36,2,3.85,2.73,6.15,3.16a8.88,8.88,0,0,0,4.58,0,3.8,3.8,0,0,0,2.63-3.62c0.64,1.57,1.91,3.16,3.5,3a3.24,3.24,0,0,0,2.5-2.44,10.55,10.55,0,0,0,.19-3.8,1.39,1.39,0,0,0-.33-1,1.15,1.15,0,0,0-.69-0.21c-3.4-.26-6.79.35-10.18,0.71-7.88.82-15.82,0.26-23.73-.18q-25.42-1.39-50.89-1v0.25Z" fill="#08528e"/><path d="M394.83,255.73a11.53,11.53,0,0,0-5.45-1.7A16.39,16.39,0,0,1,394.83,255.73Z" fill="none"/><path d="M354.58,255a6.87,6.87,0,0,1,4.75-.79A5.81,5.81,0,0,0,354.58,255Z" fill="none"/><path d="M368.71,254.32a11.17,11.17,0,0,1,4.49-.16A9.77,9.77,0,0,0,368.71,254.32Z" fill="none"/><path d="M339.79,266.9c1.14-1.28,2-1.58,3.32-.32,8.65,8.16,13.65,5.85,20.33.51,2.39-1.91,3.26-1.52,5.07.51,5.68,6.35,12.56,6.56,18.68,1,2-1.85,3.47-3.49,6.21.23,5,6.79,9.1,5.9,14.7-1.05,2-2.53,2.59-2.19,4.38-.27a21.43,21.43,0,0,0,5.83,4.83c3.49,1.79,6.61,1.77,9.82-.32h0L428,264.27l-67.61-.66c-6.9-.16-13.8.17-20.7-0.17l-12.56-.14,7.18,7.35C336.89,270.54,338.3,268.58,339.79,266.9Z" fill="#883335"/><path d="M360.37,263.61L428,264.27l0.17-5C408.09,259.16,388,259,368,259c-15,0-30.09.07-45.13,0.11l4.26,4.19h0l12.56,0.14C346.56,263.78,353.47,263.45,360.37,263.61Z" fill="#f7fafb"/><path d="M428.15,259.23a1.9,1.9,0,0,0,1.12-.33,1.64,1.64,0,0,0-.33-2.48,4.75,4.75,0,0,0-2.8-.58H404.72c-10,0-20.21-.11-30.29-0.32-6.7-.13-13.3-0.94-20-0.67-7.12.29-14.22,1.11-21.35,1-4.08,0-8.17-.38-12.25-0.29a4.72,4.72,0,0,0-2.27.45,1.71,1.71,0,0,0-.88,2c0.36,0.93,1.6,1.08,2.6,1.08q30.44,0,60.88-.06c15.54,0,31.08.1,46.62,0.19h0.39Z" fill="#df9c62"/><path d="M428.15,272h0c-3.21,2.08-6.34,2.11-9.82.32a21.43,21.43,0,0,1-5.83-4.83c-1.79-1.93-2.34-2.26-4.38.27-5.6,7-9.72,7.84-14.7,1.05-2.73-3.72-4.18-2.09-6.21-.23-6.12,5.59-13,5.38-18.68-1-1.81-2-2.68-2.42-5.07-.51-6.68,5.34-11.68,7.65-20.33-.51-1.33-1.26-2.18-1-3.32.32-1.49,1.67-2.9,3.64-5.5,3.74-4.8,3.16-8.82.7-13.4-2.72,4,6.38,9.6,8.81,15.42,4.78,5.45-3.78,8.61-1.61,12.61,1,5.88,0.65,11.38,0,15.73-4.59,1-1.12,1.7-.48,2.62.41,7.59,7.35,13.56,7.55,21.69.79,0.88-.73,1.53-1.74,2.44-0.07,3.92,7.15,12.59,6.84,17.42.44,1.18-1.56,2.33-2.15,3.86-.3,4.12,5,9.42,5.92,15.41,4.29,3.29-1.69,6.71-3.23,8.25-6.89C433.11,268.43,431.36,271.5,428.15,272Z" fill="#208c79"/><path d="M410,235.47c1-.33,2.47-0.26,2.32-1.72s-1.61-1.34-2.6-1.37c-3.79-.1-7.58-0.06-11.37-0.05-20.85,0-41.7,0-62.54.17-3.89,0-8-.8-11.82.92,0.59,1.83,2,1.62,3.08,2h0c17.07-.07,34.15-0.18,51.22-0.19C388.88,235.27,399.45,235.4,410,235.47Z" fill="#e2ecf2"/><path d="M423.38,233.34c-3-.11-1.61,2.95-1.87,4.71h0c4.36,0.68,8-3.08,12.51-1.93,0.87,0.22,1.22-.78,1.39-1.65,1.25-6.19-1.2-8.67-7.52-7.61C428.07,230.17,428.86,233.55,423.38,233.34Z" fill="#e63540"/><path d="M421.61,255.77h0q-0.05-8.86-.1-17.73h0c0.26-1.76-1.13-4.82,1.87-4.71,5.49,0.21,4.69-3.17,4.51-6.48-1.68.75-3.45,2.25-5.25,1.18-4.86-2.87-3.6,1.09-3.41,3.1,0.78,8.21.38,16.43,0.44,24.64h1.93Z" fill="#75676c"/></svg>