<svg id="Layer_1" data-name="Layer 1" xmlns="http://www.w3.org/2000/svg" xmlns:xlink="http://www.w3.org/1999/xlink" width="765.97" height="562.35" viewBox="0 0 765.97 562.35"><defs><clipPath id="clip-path"><rect x="374.57" y="288.69" width="41.12" height="11.59" fill="none"/></clipPath></defs><title>bus3</title><path d="M359.45,287.76q49.21-.07,98.42-0.1h0c0.22-3.24.67-6.49,0.62-9.73-0.09-5.42-2.11-7.26-7.49-7.32-7.32-.08-14.64-0.12-22-0.18-0.26-.17-0.52-0.32-0.79-0.45a1.52,1.52,0,0,1-.67.54c-1.6.75-4.59-.1-6.32-0.11l-8.81,0-17.63,0-34.74-.07h0c-9.48,0-19,0-28.43,0-5.78.05-8.14,2.58-7.8,8.35,0.18,3.07.28,6.21,1.54,9.12,7.33,0,14.65.07,22-.08,2.15,0,2.83.6,2.86,2.69,0,3.11.39,6.22,0.61,9.33h1.58c0-1.49,0-3-.12-4.47C351.79,287.8,351.78,287.77,359.45,287.76Z" fill="#564838"/><path d="M457.87,287.65q-49.21,0-98.42.1c-7.67,0-7.66,0-7.16,7.52,0.1,1.49.08,3,.12,4.47l4,0,0.22-.07c0.32-4.88,6.32-8.13,10.84-6.7a10.08,10.08,0,0,1,6.36,7.71,3.68,3.68,0,0,0,.49.22l44.12-.61a2.47,2.47,0,0,0,.43-0.27,7.69,7.69,0,0,1,5.39-7,8.31,8.31,0,0,1,7.59,1.3,8.17,8.17,0,0,1,3,5.05,2.15,2.15,0,0,0,.32.06c6.49,0.7,13,.15,19.5.3,1.23,0,2.33-.5,2.2-1.82-0.36-3.54,1.24-6.84,1.06-10.34h0Z" fill="#fcfaf7"/><path d="M394.82,270.35l17.63,0,8.81,0c1.73,0,4.72.86,6.32,0.11a1.52,1.52,0,0,0,.67-0.54l0.05-.08c0.54-1.11-1.47-2.78-2.23-4.35a6.82,6.82,0,0,0-1.69-2.59c-1.79-1.38-4.66-.64-6.73-0.64H369.48c-5,0-9.07,0-11.21,5.34-0.7,1.75,0,2.63,1.8,2.63h0Z" fill="#fcf7eb"/><path d="M347.36,287.72c-7.32.16-14.65,0.07-22,.08,0.14,2.28.23,4.56,0.44,6.84,0.36,3.89,2.35,5.49,6.43,5.27,6.18-.34,12.39-0.14,18.58-0.17h0c-0.22-3.11-.57-6.22-0.61-9.33C350.19,288.31,349.51,287.67,347.36,287.72Zm-16.24,9.14a1.52,1.52,0,0,1-1.84-1.61c0-1.28.54-2.06,1.93-2a1.63,1.63,0,0,1,1.67,1.84A1.61,1.61,0,0,1,331.11,296.85Z" fill="#fcfcf9"/><path d="M367.42,293c-4.51-1.42-10.52,1.83-10.84,6.7a6.3,6.3,0,0,0,0,1.06,9,9,0,0,0,8.12,7.93,7.21,7.21,0,0,0,4.27-1.1,12.24,12.24,0,0,0,4-3.45,4.9,4.9,0,0,0,.84-2.82c0-.2,0-0.4,0-0.61A10.08,10.08,0,0,0,367.42,293Zm-2.1,11.58a3.76,3.76,0,0,1-4.24-3.86c-0.14-2.51,1.67-3.71,3.84-3.7s3.65,1.46,3.84,3.94C368.64,303.09,367.48,304.5,365.32,304.6Z" fill="#524532"/><path d="M431.8,294.4a8.31,8.31,0,0,0-7.59-1.3,7.69,7.69,0,0,0-5.39,7,7.85,7.85,0,0,0,1.8,5.33,8.37,8.37,0,0,0,5.34,3.35,7.38,7.38,0,0,0,4.48-1,11.66,11.66,0,0,0,2.22-1.63,6.79,6.79,0,0,0,1.67-2.38,7.72,7.72,0,0,0,.47-4.31A8.17,8.17,0,0,0,431.8,294.4Zm-2.52,9.43c-3.36,2.74-8.34-1.93-5.76-5.41a3.63,3.63,0,0,1,4.25-1.25,4.5,4.5,0,0,1,2.81,3.65A3.39,3.39,0,0,1,429.28,303.83Z" fill="#504330"/><path d="M331.2,293.26c-1.39-.08-1.94.7-1.93,2a1.52,1.52,0,0,0,1.84,1.61,1.61,1.61,0,0,0,1.76-1.74A1.63,1.63,0,0,0,331.2,293.26Z" fill="#df7836"/><path d="M364.92,297c-2.18,0-4,1.19-3.84,3.7a3.76,3.76,0,0,0,4.24,3.86c2.16-.1,3.32-1.51,3.44-3.62C368.57,298.5,367.16,297.05,364.92,297Z" fill="#f3ecd7"/><path d="M427.77,297.17a3.63,3.63,0,0,0-4.25,1.25c-2.58,3.49,2.4,8.15,5.76,5.41a3.39,3.39,0,0,0,1.3-3A4.5,4.5,0,0,0,427.77,297.17Z" fill="#f0e8d1"/><line x1="418.39" y1="300.33" x2="374.27" y2="300.95" fill="none" stroke="#fcfaf7" stroke-linecap="round" stroke-linejoin="round" stroke-width="0"/><g clip-path="url(#clip-path)"><path d="M376.85,291.08a0.9,0.9,0,0,0-.24,0c-0.78-.14-1.52.86-0.76,1.43,1.36,1,1.4,2.79,1.63,4.35l0.74,5.21a0.93,0.93,0,0,0,1.41.63,0.84,0.84,0,0,0,.54-0.11c3-1.76,3.83-5.54,3.39-8.83C383.07,290.07,379.75,290.91,376.85,291.08Zm2.91,9.78c-0.26-2-.51-3.94-0.86-5.89a7.57,7.57,0,0,0-.74-2.31,7.34,7.34,0,0,1,1.64,0,1.68,1.68,0,0,1,2.07,1.29,12.23,12.23,0,0,1,.07,1.25C382,297.35,381.54,299.53,379.76,300.86Z" fill="#ef3d3c"/><path d="M384.23,292.85a43.92,43.92,0,0,1,.05,6.6c-0.07,1.09,1.63,1,1.7-.09a43.92,43.92,0,0,0-.05-6.6A0.85,0.85,0,0,0,384.23,292.85Z" fill="#ef3d3c"/><path d="M389,291.31a2.4,2.4,0,0,0-1.73,2.1,2.32,2.32,0,0,0,.92,2.64,7.57,7.57,0,0,1,1.38.41c0.51,0.55-.54,3-0.71,1.27a0.85,0.85,0,0,0-1.7.09c0.11,1.08.45,2.27,1.66,2.52s2-.84,2.32-1.86,0.51-2.39-.13-3.18a2.17,2.17,0,0,0-1.33-.62c-0.53-.17-0.83.24-0.74-0.9,0-.56.72-1.28,1.22-0.43a0.85,0.85,0,0,0,1.43-.94A2.59,2.59,0,0,0,389,291.31Z" fill="#ef3d3c"/><path d="M395.81,290.32c-1.57.08-2.33,0.57-2.46,2.13a38.21,38.21,0,0,0,.19,7.5c0.12,1.08,1.83,1,1.7-.09a41.58,41.58,0,0,1-.29-4.56A9.82,9.82,0,0,1,395,293c0.29-1.15,1.64-1.65,2-.18s-0.19,3.12-.08,4.53a6.94,6.94,0,0,0,1,3.14,0.85,0.85,0,0,0,1.43-.94C397.69,296.76,400.84,290.08,395.81,290.32Z" fill="#ef3d3c"/><path d="M406.28,299.35a0.85,0.85,0,0,0-1.51-.78,3,3,0,0,1-1.24.31c-0.4-.15-0.74-1.43-0.93-2.13a4.81,4.81,0,0,0,2.11-1.21,0.86,0.86,0,0,0-.06-1.2,0.87,0.87,0,0,0-1.2.06,3.07,3.07,0,0,1-1.41.75,9.78,9.78,0,0,1-.83-3.41c0.79,0,1.62.12,2.4,0.17,1.09,0.08,1-1.62-.09-1.7-1.28-.1-3.57-0.83-4,0.93a7.21,7.21,0,0,0,.4,2.64,36.18,36.18,0,0,0,1.15,3.78c0.41,1.16.78,2.85,2.24,3A3.22,3.22,0,0,0,406.28,299.35Z" fill="#ef3d3c"/><path d="M414,289.91c-1.76-2.12-3.42.52-3.64,2.23,0,0.3-.06.6-0.08,0.91a6.43,6.43,0,0,1-2.95-3.11c-0.44-1-2.06-.47-1.62.54a7.76,7.76,0,0,0,4.49,4.29c0,1.11.07,2.22,0.18,3.32,0.18,1.82.78,3.78-1.93,4.38a13.57,13.57,0,0,1-2.89-.12c-1.1,0-1,1.68.09,1.7,3,0.06,6.21.34,6.6-3.47a39.77,39.77,0,0,0-.34-5.59h0C414.11,294.87,415.37,291.6,414,289.91Zm-1.56,1.95q1-.65-0.34.58a2.14,2.14,0,0,1-.11.31A0.65,0.65,0,0,1,412.41,291.86Z" fill="#ef3d3c"/></g></svg>