<svg id="Layer_1" data-name="Layer 1" xmlns="http://www.w3.org/2000/svg" width="765.97" height="562.35" viewBox="0 0 765.97 562.35"><title>goofy</title><path d="M304.41,199.14c2.92-.29,4.16.88,3.94,3.73h0l0.64-1.47c0-1.64-.74-3.45,2-4.07,3.42-.79,4.68-3.44,3.32-6.53s-4.06-4-7.13-2.49c-2,1-3.44,1.52-5.48-.4s-5.78-.94-7.3,1.72-0.55,4.85,2.11,5.9c2.21,0.87,1.26,2.29,1.18,3.64C299.9,199.17,302.18,199.35,304.41,199.14Z" fill="#7e9d4e"/><path d="M308.06,205.59c1-1,.53-3.22.19-4.43-0.49-1.78-2.18-2.18-3.85-2a37,37,0,0,1-4.67.08c-0.57,0-1.59-.39-2.09,0-1.12.84-1.23,2.87-1.4,4.13a2.1,2.1,0,0,0,0,.9c0.59,1.9,4.79,1.64,6.27,1.63,1.21,0,2.42-.05,3.63-0.09a5.23,5.23,0,0,0,1.76-.07A0.59,0.59,0,0,0,308.06,205.59Z" fill="#2e202d"/><path d="M297.56,249.95l0.21-.12c1.95-1.06,4.43-.82,6.18-2.28a23.66,23.66,0,0,0,6.07-8c1.15-2.4,2.71-6.87,1.53-9.51l-0.29-.63a1.88,1.88,0,0,1-.83.76c-0.84-1.66-1.63-3.35-2.51-5a13.68,13.68,0,0,0-5.11-5.66,15.2,15.2,0,0,0-7.09-1.63c-3.44.11-3.76,4.66-5.14,7.21a16.59,16.59,0,0,1-8.7,7.43,16.94,16.94,0,0,1-6,1.13c-2.06,0-4.13-.7-6.19-0.32a5,5,0,0,0-3.37,3c-1.34,2.83-2.07,7.85-.83,10.82a6.22,6.22,0,0,0,3.63,3.43c2.06,0.72,3.61-.22,5.59-0.32s3.59,1.33,5.55,1.4a4.83,4.83,0,0,0,3.75-1.9,12.68,12.68,0,0,0,2-3.86,1.29,1.29,0,0,0,.08-1,6.86,6.86,0,0,1-.44-0.65c-0.22-.67.78-1,1.46-1.12a5.08,5.08,0,0,0,3.3-2.7,12.66,12.66,0,0,0,1.17-4.22,5.23,5.23,0,0,1-.7,6.4,9.89,9.89,0,0,1-3.46,1.92c-1.77.68,2.37,4,3.1,4.55,1.57,1.08,3.67,2.07,5.61,1.48A7.11,7.11,0,0,0,297.56,249.95Zm-4.3-19c0-2.2,1.29-3.59,3.61-3.49a3.74,3.74,0,0,1,3.76,3.29c-0.21,2.43-1.34,3.93-3.55,4A3.42,3.42,0,0,1,293.26,231Z" fill="#fdfeff"/><path d="M269,234.09h0a9.66,9.66,0,0,0-1.8-7.95c-1.87-1-3.91-2.64-5.59,0-1.51,2.37-.16,4.41,1.63,6a33.17,33.17,0,0,0,4,2.64h0Z" fill="#28222c"/><path d="M329.81,298.7c0.27,0.17.54,0.31,0.81,0.47,0.14-.15.27-0.3,0.4-0.45a15.16,15.16,0,0,0,1.11-1.71c2.05-3.87,1.64-5.07-2.4-6.85-1.86-.82-3.74-1.6-5.65-2.32-0.94-.35-2.43-0.54-1.72-2.11,0.6-1.34,1.38-2.79,3.37-2,1.14,0.44,2.24,1,3.42,1.33a13,13,0,0,0,11.93-2.28c1.1-.83,2.25-2,1.49-3.43s-2.39-1-3.62-.42c-2.25,1-4.49,1.95-7,1.4l-0.29,0a4.89,4.89,0,0,0-.25,1.25c-3.42.39-5.22-2-6.82-4.31s-2.5-2.43-4.48-.31c-4.54,4.86-10.38,5.61-16.64,4.37h0l-1.3.36c-0.06,2.88-3.37,4.92-2.05,8.22,0.66,1.65.16,3.44,0,5.21-0.36,4.45-.34,9,2.92,12.62,0.7,4.38,4.35.76,6.11,2.25a0.94,0.94,0,0,1,.45.09c0.15-1,.65-1.41,1.63-0.88h0l4.18-1.63c2.31-1.85.73-4.52,1.29-6.89,1.3,0.2,2.47.71,3.68,0.32L322.6,302c2.83,2.94,3.53,2.84,6.61-1a3.55,3.55,0,0,1,.23-0.39l-0.91-.53A1.36,1.36,0,0,1,329.81,298.7Z" fill="#218a7d"/><path d="M309.55,310c1.6,7.74,5.25,10.94,13.36,11.72,3.67-.41,6.66-2.48,9.43-4.55,2.51-1.87,3.33-1,4.38,1.23a17.54,17.54,0,0,0,5.83,6.68c1.15,0.83,2.61,2.14,3.94.58s0-2.9-1-3.91c-2.65-2.71-5.51-5.21-8.18-7.9-1.6-1.62-2.8-1.33-4.51,0-3,2.26-5.74,5-9.86,5.18a4.08,4.08,0,0,1-3.36-.08c-2.65-2.57-5.13-5.29-7.58-8l-0.84-1.76h0C310.2,308.61,309.7,309,309.55,310Z" fill="#125c59"/><path d="M311.57,271.77c0.11-.12.23-0.24,0.34-0.34,0.2-1.19-.43-2.34-0.92-3.47-2.8-6.5-2.38-7.65,4.06-10.74,5.26-2.52,11.93-3,17.21-.22a4.19,4.19,0,0,1,2.15,2.4,5.66,5.66,0,0,1-.3,3.25,9.1,9.1,0,0,0-.66,3.23,2.58,2.58,0,0,0,1.84,2.47c1.21,0.23,2.29-.76,3.08-1.71s1.67-2,2.9-2.12c1.8-.11,3,2,4.83,2.2a2.45,2.45,0,0,0,2.47-3.56c-0.26-.51-0.7-0.91-1-1.39a1.55,1.55,0,0,1-.17-1.62,3.09,3.09,0,0,1,1.28-.82,2.76,2.76,0,0,0-.7-5.11c-1.32-.3-2.63.38-3.94,0.68-3.3.75-6.61-.9-9.6-2.47a15,15,0,0,0-8.28-2.13c-3.25.3-6.51,0.7-9.75,1.11-2.78.36-5,1.91-7.19,3.56-2.65,2-3.85,1.4-5.06-1.37-0.65-1.48-1-3.32-2.43-4.28a3.66,3.66,0,0,0-1-.45l-3.24,1a3.69,3.69,0,0,0-.93.91,1.37,1.37,0,0,0-.23.7c-0.09,2.95-1.37,3.21-4.09,2.64a34.42,34.42,0,0,0-11.5-.21,22,22,0,0,0-7.52,1.85c-2.46,1.29-4.6,3.49-6.84,5.15a3.86,3.86,0,0,1-1.78.88c-1.45.16-2.52-1.23-3.62-2.2a14.73,14.73,0,0,0-3-1.88,4.17,4.17,0,0,0-1.56-.56,1.42,1.42,0,0,0-1.41.69,1.53,1.53,0,0,0,.61,1.76,10.28,10.28,0,0,0,1.8.89,5.29,5.29,0,0,1,2.38,2.39l-4.59.39a4.53,4.53,0,0,0-2.15.55,1.56,1.56,0,0,0-.65,1.93c0.48,0.85,1.72.73,2.68,0.51a11.85,11.85,0,0,1,6.08-.31,6.26,6.26,0,0,1,3.62,2.88,5.1,5.1,0,0,0,1.44,2.05,1.88,1.88,0,0,0,2.67-1.07c0.29-1.11-.51-2.18-0.75-3.3-0.92-4.14,5.16-5.53,7.95-6.39,4.59-1.43,9.42-2.19,14.18-1.1,5,1.15,5.94,2.31,6.37,7.4a19.13,19.13,0,0,0,.49,4.28,8.53,8.53,0,0,1,1.11,1A30.49,30.49,0,0,0,311.57,271.77Z" fill="#291e2b"/><path d="M303.4,281.27c-1.48-1.73-2.65-4.2-4.53-5-2.46-1.07-3.45,2.23-5.25,3.39-4.63,3-9,2.57-12.36-1.81-1.54-2-2.28-1.51-3.66,0-0.77.85-2.07,2.48-3.38,2.31-1-.13-0.92-0.83-2-0.69-2,.25-3.52,2.13-5.49,2.07-1.76-.05-3-1.79-4.68-2.32,0.1,0,.63,1.57.76,1.78a5.55,5.55,0,0,0,1.43,1.53,12.07,12.07,0,0,0,4,1.45c0.9,0.23,1.93,0,2.87.16,1.37,0.29,2.72.72,4.07,1.1,4.78,1.37,11.28,5,15.63.74,3.18-3.09,6.46-5.55,11.24-4.34h0Z" fill="#218d7d"/><path d="M308.67,216.28a1.65,1.65,0,0,0,1.06.37c3.21-1.74,4.19-4.44,3.21-8.76-0.59-2.91-3.35-1.15-4.8-2.22-3.88-.26-7.89,1-11.63-1a3.45,3.45,0,0,1-2.16.85c-1.15,0-2.5-.33-3.56.3-2.89,1.71-2.34,5.82-.58,8.13,1,1.3,2.38,1.36,3.9,1.4C299,215.52,303.89,214.87,308.67,216.28Z" fill="#7e9d51"/><path d="M307.9,225.22c0.88,1.64,1.68,3.32,2.51,5a1.88,1.88,0,0,0,.83-0.76,2.74,2.74,0,0,0,.21-0.41c0.49-1.23.78-2.87,2.44-2.52,3,0.63,5.34,3,6.73,5.61,1,1.93,1.28,4.15,1.9,6.23a7.45,7.45,0,0,0,3,4.45c2.6,1.54,7.73.28,8.85-2.76,0.54-1.47-.52-2.82-1-4.11-3.46-9-11.64-12.2-20.61-15.83A21.22,21.22,0,0,1,328,223.65c2.36,1.58,4.75,3.12,7.25,4.47a4.14,4.14,0,0,0,5.26-.59c1.52-1.52,1.58-3.41,1.06-5.32a7.73,7.73,0,0,0-3.84-4.52,22.78,22.78,0,0,0-8.5-2.92,58.83,58.83,0,0,0-8.74-.59c-2.52,0-5.16,0-7.49,1-0.92.43-2.19,1.39-3.22,1.42a1.65,1.65,0,0,1-1.06-.37c-4.78-1.41-9.69-.75-14.54-0.9l0.15,2.53,0,0.61C300.6,217.42,304.83,219.49,307.9,225.22Z" fill="#2e1f2d"/><path d="M300.63,230.79a3.74,3.74,0,0,0-3.76-3.29c-2.32-.1-3.57,1.29-3.61,3.49a3.42,3.42,0,0,0,3.83,3.79C299.29,234.71,300.43,233.22,300.63,230.79Z" fill="#2d232a"/><path d="M291.66,236.16c-0.83,3-1,6.05-4.24,6.95-0.83.23-2,.26-1.88,1.62l0.8,0.15,0.38,0.07,0.11,0C292,243,293.32,240.91,291.66,236.16Z" fill="#3d3d3d"/><path d="M277.61,277.84c1.38-1.51,2.12-2,3.66,0,3.32,4.38,7.72,4.82,12.36,1.81,1.79-1.17,2.79-4.46,5.25-3.39,1.88,0.82,3,3.28,4.53,5h0c6.26,1.25,12.1.49,16.64-4.37,2-2.12,3-1.92,4.48.31s3.4,4.69,6.82,4.31a4.89,4.89,0,0,1,.25-1.25c0.76-2.35,2.84-4.52.81-7.22-4.38-.64-9.23,1-13-2.67-2.63-.38-5.31-1-7.5,1-0.11.11-.23,0.22-0.34,0.34a30.49,30.49,0,0,1-13.29-.08,8.53,8.53,0,0,0-1.11-1,1.35,1.35,0,0,0-.52-0.19c-6.83-.83-13.73-1.36-20.45.29-4.16,1-5,3.77-3.23,8.2l0.14,0.36C275.43,281.31,276.49,279.06,277.61,277.84Z" fill="#e3c036"/><path d="M365.76,298.84a51,51,0,0,0-10.7-5.84c-2.14-.92-3.17-0.15-4.33,1.52-5.56,8-11.85,9.43-20.11,4.65-0.27-.16-0.53-0.3-0.81-0.47a1.36,1.36,0,0,0-1.28,1.4l0.91,0.53c9.31,5.46,15.44,4.46,22.16-3.83,1.5-1.85,2.06-1.23,3.3,0a23.21,23.21,0,0,0,8.82,5.69c1.18,0.4,2.83,1,3.6-.67C368,300.4,366.7,299.54,365.76,298.84Z" fill="#105b52"/></svg>