<svg id="Layer_1" data-name="Layer 1" xmlns="http://www.w3.org/2000/svg" width="765.97" height="562.35" viewBox="0 0 765.97 562.35"><title>leftcloud</title><path d="M443.37,363.12c-9.47-5.27-19.52-7.48-29.2-2-5.13,2.89-9.9,4.65-15.5,4.06-9.29-1-14.15-3-15.88-12.31-0.75-4-3.62-5.76-7-7.41-4.32-2.11-8.11-.42-11.88,1.11-3,1.23-5.78,2.28-9.3,1.76-6.13-.9-11,1.66-14.32,7.07s-7.46,10-11.51,14.79c6.49,0.87,11.19,5.3,16.48,8.47,4.4,2.63,7.41.41,10-2.39,1.75-1.93,2.89-2,4.68-.59,2.12,1.65,1.33,3.23,0,4.84s-3,3.5-.28,5.38c3.45,2.35,8.28,2.37,9.49,0,0.79-1.58,1.26-3.56-1.25-4.25s-2.54-2.18-1.65-4c3-6.21,6.28-7.85,11.67-2.74a20.54,20.54,0,0,1,5,7.24,8,8,0,0,0,5.88,5.15,18,18,0,0,1,8.07,3.68,16.49,16.49,0,0,0,12,3.84h0c3.64,0.63,6.79-1.59,10.3-1.74a70.32,70.32,0,0,0,18.63-3.4c6-1.93,10.68-5.33,11.77-12C450.51,371.6,449.27,366.4,443.37,363.12Z" fill="#fff"/><path d="M396.82,390.85a18,18,0,0,0-8.07-3.68,8,8,0,0,1-5.88-5.15,20.54,20.54,0,0,0-5-7.24c-5.39-5.11-8.67-3.47-11.67,2.74-0.9,1.86-.79,3.37,1.65,4s2,2.67,1.25,4.25c-1.21,2.41-6,2.39-9.49,0-2.76-1.88-1.18-3.66.28-5.38s2.15-3.19,0-4.84c-1.79-1.4-2.93-1.34-4.68.59-2.55,2.8-5.56,5-10,2.39-5.29-3.17-10-7.6-16.48-8.47-4.73,2.29-9.79,2-14.72,1.37a26.44,26.44,0,0,0-15.2,2.85c-2.76,1.33-4.91,4.25-8.3,3.93-9.63-.9-19,2.66-28.61,1.58a2.79,2.79,0,0,0-1.61.09c-6.07,3.76-13,4.79-19.78,6.13-1,.2-2.78.53-2.3,2.16,0.37,1.26,1.89,1.35,3.15,1.38,10.23,0.25,20.44.46,30.68,1.33,10,0.84,20.14.31,29.86,2.69a113.74,113.74,0,0,0,25.23,3.49c3.4,0.06,7,.12,10.23,1.89,10.31,5.63,21.28,8.34,33.08,7a48.57,48.57,0,0,0,12.88-2.92c7.66-3.13,15-7.5,23.7-7a1.73,1.73,0,0,0,1.78-1.39h0A16.49,16.49,0,0,1,396.82,390.85Z" fill="#f6ead1"/><path d="M647,295.49c-8.27-3.53-16.91-2.94-25.42-1.14-5.55,1.17-9.48,5.46-13.94,8.66-2.77,2-5.34,2.47-8,0l-3.29-3c-2.66.78-4.08-2.35-6.73-2-2.3.29-4.86-.38-3.89,3.52,0.26,1.07-.59,2.37-0.59,3.56,0,3-1.8,3.7-4,2.53-3.12-1.68-5.25-1-7.44,1.54-2.64,3.06-5.72,3-9,.74C562,308,559,307.14,555.91,309a1.49,1.49,0,0,1-.7.38c-5.29-2.22-9.14,4.07-14.58,2.34-2-.63-2.51,3.08-5,4-4.94,1.89-9.76,4.65-11.1,10.71a7.77,7.77,0,0,0,.17,4.36h0c36.25,0,72.52,1.18,108.71-1.77,5.38-.44,11-2.27,13.42-8.24A78.37,78.37,0,0,1,651,311.7C654.24,305.89,652.32,297.77,647,295.49Z" fill="#fff"/><path d="M524.5,326.45c1.34-6.06,6.16-8.82,11.1-10.71,2.51-1,3-4.66,5-4,5.45,1.73,9.3-4.56,14.58-2.34a1.49,1.49,0,0,0,.7-0.38c3.14-1.86,6.07-1,8.75.89,3.28,2.28,6.36,2.32,9-.74,2.2-2.54,4.32-3.22,7.44-1.54,2.18,1.17,4,.52,4-2.53,0-1.19.86-2.49,0.59-3.56-1-3.9,1.59-3.23,3.89-3.52,2.65-.33,4.07,2.8,6.73,2-4.12-4.66-7.38-5.53-12.76-3.85-2.34.73-4.43,1.22-5.23-2.69-1.61-7.84-4.83-9.71-12.75-10.08-6.81-.32-12.49,2.56-18.5,4.93-3.79,1.49-5.91,3.71-6,7.68a8,8,0,0,1-3,6c-5.05,4.52-10.61,5.81-17.18,3.45-3.43-1.23-7.42-1.58-10.69.15-5,2.64-10.05,5.31-14.43,9.06-4.12,3.52-8.72,5.91-14.47,5-1.9-.31-3.69.41-5.54,1-4.58,1.38-7.58,5.65-12.53,6.4a22.3,22.3,0,0,0-8.69,3.38c24,0.52,47.07.82,70.17,0.48h0A7.77,7.77,0,0,1,524.5,326.45Z" fill="#f6ead1"/><path d="M679.83,196.12c-4.17-9.75-9.57-17.84-23.55-16.84-3.54.25-5.82-1.86-8.09-3.9a53.5,53.5,0,0,1-4.52-5.18c-3.59,1.89-6.87,4-8.81,7.86-3.37,6.74-7.17,8.09-14.41,6.35-3.25-.78-6.58-0.53-9.09-3.56-1.4-1.69-2.78.05-3.23,1.49a6.78,6.78,0,0,0,.57,5.49c1.36,2.44,1.52,4.71-1.91,5.67-1.95.55-1.89,2.63-2.73,3.67-3.23,4-3.19,9.42-6,13.07-3.15,4.13-8.77,3.71-13.71,2.77-6.35-1.21-8.36-.3-11,5.46h0c3,1.9,6-.2,9.09-0.19,22.94,0.14,45.88,0,68.82-.13a16.13,16.13,0,0,0,5.53-1c5.53-2,10.86-4.73,17.17-3.86,3.33,0.46,7.14-3.71,7.36-7.27A21.09,21.09,0,0,0,679.83,196.12Z" fill="#fff"/><path d="M584.39,213c4.93,0.94,10.55,1.37,13.71-2.77,2.78-3.64,2.74-9.08,6-13.07,0.85-1,.79-3.13,2.73-3.67,3.42-1,3.27-3.23,1.91-5.67a6.78,6.78,0,0,1-.57-5.49c0.45-1.44,1.83-3.18,3.23-1.49,2.51,3,5.84,2.78,9.09,3.56,7.25,1.74,11,.39,14.41-6.35,1.93-3.88,5.22-6,8.81-7.86,0.79-4-2-6.84-4.31-8.57-7.65-5.82-17.75-4.63-24.7,2a98.41,98.41,0,0,1-7.4,7c-4.09,3.18-5.55,7.47-5.81,12.3s-7.57,12.52-12.49,12.29c-4.44-.21-9.13-0.43-13.21-2-4.91-1.85-9.55-1.23-13.15,1.32s-10.06,1.12-10.85,7.64c-0.17,1.36-1.82,1.43-3,1.69-3.52.76-6.56,2.08-8.42,5.55-1.43,2.67-4.16,3.35-7,4.17-4.27,1.23-9.25.62-12.72,4.86h52.83C576,212.72,578,211.81,584.39,213Z" fill="#f6ead2"/><path d="M455.16,237c-2.12-6.83-6.89-11.73-12.94-15.41-2.7,0-3.48,1.3-3,4,0.92,5,.26,10.14.66,15.22,0.31,3.93-4.27,6.1-7.9,7.79-3.19,1.49-5.87,0-7.64-2.14-2.56-3.08-5.47-3.94-9.22-3.65-3.49.27-5.64-1.74-6.39-5-0.58-2.51-2-3.56-4.36-3-3.55.84-7.37-2.08-10.88,1-0.64.56-3-.77-4.5-1.22h0L386,238c0,2.19-1.27,4.05-3.07,4.34-6.66,1.06-8.15,7.65-12.44,11.21-1.56,1.29-1,3.82-.63,5.84a9.56,9.56,0,0,1-1.39,7.71,11.86,11.86,0,0,0-2.12,8.42,13.28,13.28,0,0,1-2.41,8.82c-3.38,4.83-6.46,5.9-11.81,3.79-1.76-.69-3.66-2.75-5.18,0-1.66,3-.72,7.1,1.62,8.68,1.2,0.82,2.74,1.31,3.06,3,19.95,0,39.9,0,59.85.21a21.36,21.36,0,0,0,9.39-2.11,14.61,14.61,0,0,1,5.75-1.26c5.2-.31,13.76-8.9,14.05-14.11a5.05,5.05,0,0,0-.09-2.42c-1.58-3,0-5.23,1.82-7.22s2.82-3.73,1.15-6.42c-1.24-2-.56-4,1.65-5.09a50.29,50.29,0,0,1,5-2.63c1.67-.61,3.64-1.13,4.43-3.21A28.07,28.07,0,0,0,455.16,237Z" fill="#fff"/><path d="M348.54,296.86c-2.34-1.59-3.28-5.66-1.62-8.68,1.52-2.76,3.42-.7,5.18,0,5.35,2.1,8.43,1,11.81-3.79a13.28,13.28,0,0,0,2.41-8.82,11.86,11.86,0,0,1,2.12-8.42,9.56,9.56,0,0,0,1.39-7.71c-0.4-2-.93-4.55.63-5.84,4.29-3.56,5.78-10.14,12.44-11.21,1.81-.29,3.08-2.15,3.07-4.34-3.32,3.17-6.6,4-10.63.83-4.47-3.5-8.89-3.13-13.76.28-5.38,3.77-11.44,7.81-11.25,14.35,0.25,8.76-6.52,11.5-10.71,16.52-0.45.55-1.81,0.53-2.72,0.47-8.07-.54-13.76,2.52-16.82,10.34-0.82,2.09-2.3,4.38-5.31,4.38-4.59,0-8.09,2.3-11.63,5-2.47,1.91-5,4.36-8.32,4.69-3.67.36-6.43,2.24-10,5H351.6C351.28,298.17,349.75,297.68,348.54,296.86Z" fill="#f6ead1"/><path d="M393.51,235.74c3.51-3.11,7.33-.19,10.88-1,2.39-.56,3.78.49,4.36,3,0.75,3.27,2.9,5.28,6.39,5,3.75-.29,6.66.57,9.22,3.65,1.77,2.13,4.45,3.63,7.64,2.14,3.63-1.69,8.21-3.86,7.9-7.79-0.39-5.09.26-10.21-.66-15.22-0.49-2.66.29-3.92,3-4-2.34-3.11-6.18-4.91-7.63-8.79a1.92,1.92,0,0,0-1.67-1c-9-2.22-17.79-3.58-26.42,1.71a41.55,41.55,0,0,0-17.48,21h0C390.55,235,392.87,236.31,393.51,235.74Z" fill="#f6ead1"/><path d="M376.26,152.14c2.29-2.24,3.73-4.59,2.4-7.93a2.8,2.8,0,0,1,.53-2.71c3.14-3.95,7.71-6.6,9.55-11.81,0.77-2.19,5.71-1.55,7.37.55,2.56,3.25,3.65,3.18,5.84-.37,0.28-.46.55-0.94,0.83-1.4,2.09-3.39,4.29-6.4,8.85-3.33a4.4,4.4,0,0,0,2,.11h0c-2.59-1.49-3.18-3.71-3.39-6.67-0.48-6.76-6.83-13.85-14-12.68-5.21.85-10.33,2.12-14.8,5.87-4.74,4-8.64,7.92-9.1,14.4-0.33,4.76-5.26,6.61-6.88,10.72-1.37,3.46-4.36,3.55-7.49,1.78-6.45-3.66-11.56-1.81-14.71,4.92-0.84,1.81-1.38,4.31-4.11,4.5-5,.34-7.64,4.32-11.38,7,15.67,1.44,31.22,1.14,46.76,1A4.59,4.59,0,0,1,376.26,152.14Z" fill="#f6ead0"/><path d="M423.35,130.31c-2.39-3.74-6.72-2.95-9.71-5.06h0a4.4,4.4,0,0,1-2-.11c-4.56-3.07-6.76-.06-8.85,3.33-0.28.46-.55,0.94-0.83,1.4-2.18,3.55-3.28,3.62-5.84.37-1.66-2.1-6.6-2.74-7.37-.55-1.83,5.21-6.41,7.86-9.55,11.81a2.8,2.8,0,0,0-.53,2.71c1.33,3.34-.11,5.69-2.4,7.93a4.59,4.59,0,0,0-1.73,4c12.32,0.74,24.55.33,36.45-3.34,2.89-.89,6-1.51,7.82-4.58,1.62-2.8,3.56-5.41,5.32-8.13S425.13,133.1,423.35,130.31Z" fill="#fff"/><path d="M277.53,448.29a17.86,17.86,0,0,0-7.3-7.95c-6.4-3.72-12.61-1.36-18.47,1.35-3.46,1.6-6.13,2.56-9.59-.16-4.78-3.75-10.71-2.72-14.7,1.91,0.21,1.7,1.76,2.09,2.91,2.45,3.72,1.15,5.3,3.6,5.56,7.36a25,25,0,0,0,1.39,5h0a126.51,126.51,0,0,0,33.64-.16C276.66,457.25,279.49,452.49,277.53,448.29Z" fill="#fcfdfb"/><path d="M235.93,453.25c-0.26-3.77-1.83-6.22-5.56-7.36-1.14-.35-2.69-0.75-2.91-2.45-3.34,1.61-6.83,2.93-9.89,5.08-2.56,1.79-5,1.69-8,.55-3.43-1.33-7.66-1.81-10.68,0-4.33,2.58-8.26,5.89-13.05,8.11,17.19,2.44,34.33,1.88,51.48,1.11h0A25,25,0,0,1,235.93,453.25Z" fill="#f5ebd2"/><path d="M195.05,347.41a5.61,5.61,0,0,1-.3-2.39,6.86,6.86,0,0,0-3.82-7.4,9.52,9.52,0,0,1-5.12-6.89c-0.86-4-4.51-5.59-7.22-8-2.21-3.6-4.58-3-7.42-.59-1.46,1.23-3.3.71-4.83-.57-1.87-1.56-3.86-3-5.73-4.52a4,4,0,0,0-4.56-.55c-1.92,1.24.5,2.12,0.87,3.2,1.44,4.24.16,7.73-3,10.54a35.36,35.36,0,0,0-7.72,8.77c-1.77,3.06-5,3.61-7.58,1-3.39-3.48-6.07-1.51-8.06.83a63.73,63.73,0,0,1-10.43,9.58,36.93,36.93,0,0,1-12,6.07c-3.39.93-4.43,2.49-4.59,5.47h0c27.79-1,55.66,1.79,83.41-1.53h0C195.3,359.07,197.48,355.57,195.05,347.41Z" fill="#fff"/><path d="M108.06,356.5a36.93,36.93,0,0,0,12-6.07,63.73,63.73,0,0,0,10.43-9.58c2-2.34,4.67-4.3,8.06-.83,2.55,2.61,5.81,2.06,7.58-1a35.36,35.36,0,0,1,7.72-8.77c3.2-2.81,4.48-6.3,3-10.54-0.37-1.08-2.79-2-.87-3.2a4,4,0,0,1,4.56.55c1.87,1.55,3.86,3,5.73,4.52,1.53,1.28,3.37,1.8,4.83.57,2.84-2.4,5.21-3,7.42.59,0.75-5-2-8.06-5.67-10.84-8.25-6.19-17-4-25.43-1.19-8.09,2.71-15,7.1-18.06,16-0.86,2.55-3.09,4.91-7.07,2.95-3.61-1.78-7.48-.11-9.76,3.55-1.7,2.72-4.07,3.14-6.69,2.38-7.49-2.19-10.85-.66-13.42,6.81-2,5.89-6.57,9-11.89,11.25-4.4,1.86-8.91,3.45-13.36,5.19A3.46,3.46,0,0,0,64.78,362h38.69C103.64,359,104.67,357.43,108.06,356.5Z" fill="#f6ead2"/><path d="M103.48,362c1.55,1.24,3.38.75,5.1,0.76,18.56,0.14,37.12.1,55.68,0.44,5.41,0.1,10.78-.23,16.16-0.47,2.3-.1,4.91.16,6.48-2.26h0C159.14,363.76,131.28,360.94,103.48,362Z" fill="#f6ead2"/></svg>