<svg id="Layer_1" data-name="Layer 1" xmlns="http://www.w3.org/2000/svg" width="323.57" height="237.56" viewBox="0 0 323.57 237.56"><title>lightning</title><path d="M173.73,79.09l13.92-.21q0.53-.32.58,0.3l-14.67,27.23c5.76-.36,10.61-2.5,16.14-3.34-2.09,5.62-5.59,10.08-8.36,14.91-3.78,6.58-7.9,13-11.84,19.46-0.6,1-1.84,2.14-.92,3.24,0.79,0.94,2.31.42,3.51,0.25,3.73-.53,7.45-1.09,12.49-1.84L154.24,175.8l-0.78-.46c1.4-2.75,2.78-5.51,4.19-8.25,2.54-5,5-9.93,7.65-14.85,1.28-2.41.54-3.25-2-2.94-3.46.42-6.91,0.9-11.41,1.5l18.53-33.43c-4.93.09-9,2-13.23,2.71-2,.35-2.67.08-1.72-1.94Z" fill="#e3a425"/></svg>