<svg id="Layer_1" data-name="Layer 1" xmlns="http://www.w3.org/2000/svg" width="765.97" height="562.35" viewBox="0 0 765.97 562.35"><title>icon</title><path d="M318.41,274.52h0l4.86-4.61h0c-3.29-3.7-5-7.8-2.73-12.65,1.53-3.27,4-5.36,7.81-5.65s6.18,1.47,8,4.5c0.62,1.05,1.25,2.09,1.88,3.14,1.73-1.08,3.8-1.65,5.08-3.41-0.59-1.22-1.27-2.4-1.77-3.65-2.86-7.22.59-13,8.32-14.11,3.5-.49,5.59,1.61,7.44,4a35.51,35.51,0,0,1,2.41,4.21c1.72,1,2.7-.61,4-1.13-0.5-1.4-1.09-2.77-1.49-4.2-1.9-6.77.71-12.08,7-14.33,6.12-2.19,11.12.21,14,6.71,0.47,1.06.42,2.47,1.87,2.9,1.55-2.3,5-1.35,6.48-3.8h0l-7-18.18h0c-3.43.31-6.33,2.13-9.41,3.38a238.5,238.5,0,0,0-38.56,19.85,219,219,0,0,0-19.13,13.35c-3.85,3.09-8.23,5.69-11.18,9.83h0Z" fill="#fcfcf9"/><path d="M279.48,320.23c1.53-1.93,3.17-3.8,3.94-6.22h0c-5.84-4-7.23-6.75-5.81-11.51,2.75-9.28,10.1-11.28,17.58-4.79,1.41-.8,2.1-2.25,3.06-3.45h0c-5.88-6-6.68-9.88-3-14.92s8-5.36,12.33-1c1,0.95,1.82,2,2.73,3,2.5-1.35,3.88-4.11,6.55-5.25-3.15-5.45-8-9.52-11.8-14.43a3.2,3.2,0,0,0-.72.37c-14.45,12.93-26.94,27.49-35.82,44.81-2.73,5.32-6.48,10.73-4.62,17.42C269.4,316.87,273.44,315.83,279.48,320.23Z" fill="#fcfdfa"/><path d="M393.21,232.58c2.14-1.3,5-1.13,6.72-3.33C397,221,401,214.79,408.69,215.8c4.76,0.62,6.51,4.24,7.92,8.15a3,3,0,0,0,3.63-1.43,16.7,16.7,0,0,1-.63-2.33c-0.67-5.31,1.09-8.61,5.1-9.67s8.12,1.17,10.14,5.47c0.45,1,.87,1.92,1.31,2.88l5.73-1.53c-4.48-11.25-2.89-14,8.95-15.69a2.63,2.63,0,0,0-1.89-1.33c-9-3.14-21.65,1.53-30.61,3.59a241.94,241.94,0,0,0-26.11,7.57c-5.85,2.06-6.13,2.1-3.95,7.92C388.71,220.56,393.55,232.38,393.21,232.58Z" fill="#fcfcfa"/><path d="M446.45,218.86c-17.36,4-34.55,9.81-50.65,15.84a1.32,1.32,0,0,0-1,2c1.88,5.75,1.49,6.86,7.61,5.3l14.42-3.65q19.4-4.91,38.82-9.69a21.77,21.77,0,0,0,5.5-1.88c4.66-2.6,8.37-6.6,13.23-9,0.23-.11,2.72-1.14,2.72-1.16l-0.2-2.52A204.81,204.81,0,0,0,446.45,218.86Z" fill="#faf1d9"/><path d="M441.88,217.35c6.47-1.59,13-2.81,19.55-4.16a96.14,96.14,0,0,1,13.88-2.29h0a233.83,233.83,0,0,0-24.49-9.24h0C439,203.33,437.41,206.11,441.88,217.35Z" fill="#544938"/><path d="M279.48,320.23c-6-4.4-10.08-3.36-15.62,4q-0.11,11.14-.22,22.29l0.4,8C267.46,342.29,273.9,331.45,279.48,320.23Z" fill="#564638"/><path d="M441.88,217.35l-5.73,1.53c-5.33,1.09-10.25,4-15.92,3.64h0a3,3,0,0,1-3.63,1.43c-5.35,2.43-10.76,4.63-16.67,5.3h0c-1.7,2.19-4.58,2-6.72,3.33l1.1,2.94h0a22.37,22.37,0,0,1,2.16-1.07A390.88,390.88,0,0,1,446.6,219.5c10-2.26,20-4.67,30.3-5.43h0c1.72-2.18.18-2.73-1.58-3.17h0a96.14,96.14,0,0,0-13.88,2.29C454.92,214.54,448.36,215.76,441.88,217.35Z" fill="#e03440"/><path d="M394.32,235.52h0l-1.1-2.94L386.27,214h0a1.28,1.28,0,0,0-1.72.25h0l7,18.18h0l1,3.4h0l2.81,7.17-0.26.12,0.18,0.12a1.82,1.82,0,0,0,1.36-.16,1.79,1.79,0,0,0,.35-0.27Z" fill="#514538"/><path d="M318.41,274.52h0l-12.13-13.81h0a1.12,1.12,0,0,0-1.25.92h0c3.81,4.91,8.65,9,11.8,14.43C317.86,276.07,318.69,275.86,318.41,274.52Z" fill="#3b312b"/><path d="M326.34,271.53c19.11-14.79,40.62-25.15,62.83-34.23,1.12-.46,2.24-0.95,3.35-1.43h0l-1-3.4h0c-1.47,2.44-4.92,1.5-6.48,3.8-7.5,2.08-14.3,5.84-21.38,8.93h0c-1.29.52-2.26,2.14-4,1.13-2.94,3.66-7.56,4.64-11.35,6.94-1.58,1-2.84,2.81-5.06,2.58h0c-1.27,1.76-3.35,2.33-5.08,3.41l-14.93,10.65h0l-4.86,4.61h0c0.28,1.34-.54,1.56-1.59,1.54-2.67,1.14-4,3.9-6.55,5.25l-12,12.95h0c-1,1.2-1.65,2.65-3.06,3.45L283.42,314h0c-0.77,2.42-2.41,4.28-3.94,6.22-5.58,11.22-12,22.06-15.44,34.26h0l-0.29,1.06c1.41,2.66,2.71,1.08,4-.12,0.11-.19.22-0.39,0.32-0.58a3,3,0,0,1-.94-0.17c5.66-17.46,14.6-33.19,25.31-48A191.49,191.49,0,0,1,316,280.32c2.35-2.23,3.75-2.49,5.45.34a29.3,29.3,0,0,0,2.24,2.88c-0.07.2-.15,0.39-0.23,0.57a2.82,2.82,0,0,0,.33.08,1.72,1.72,0,0,0,1.84-1.23,3.19,3.19,0,0,0,0-.37l-0.33.14C319.66,276.6,319.7,276.66,326.34,271.53Z" fill="#de3440"/><path d="M383.19,233.37c-2.87-6.5-7.87-8.9-14-6.71-6.31,2.26-8.92,7.56-7,14.33,0.4,1.43,1,2.8,1.49,4.2h0c7.08-3.08,13.88-6.84,21.38-8.93C383.61,235.84,383.65,234.43,383.19,233.37Z" fill="#574837"/><path d="M349.84,238.08c-7.73,1.08-11.18,6.88-8.32,14.11,0.5,1.25,1.17,2.44,1.77,3.65h0c2.22,0.23,3.49-1.63,5.06-2.58,3.79-2.3,8.4-3.27,11.35-6.94a35.51,35.51,0,0,0-2.41-4.21C355.43,239.7,353.34,237.6,349.84,238.08Z" fill="#554837"/><path d="M328.35,251.61c-3.83.29-6.28,2.38-7.81,5.65-2.27,4.85-.56,8.94,2.73,12.65h0l14.93-10.65c-0.63-1-1.26-2.09-1.88-3.14C334.53,253.08,332.09,251.33,328.35,251.61Z" fill="#544938"/><path d="M277.61,302.5c-1.41,4.77,0,7.52,5.81,11.51h0l11.77-16.3C287.71,291.22,280.36,293.22,277.61,302.5Z" fill="#544938"/><path d="M295.21,279.34c-3.63,5-2.83,8.94,3,14.92h0l12-12.95c-0.91-1-1.77-2.06-2.73-3C303.17,274,298.8,274.37,295.21,279.34Z" fill="#584838"/><path d="M416.6,223.95c-1.41-3.91-3.16-7.53-7.92-8.15-7.69-1-11.69,5.16-8.76,13.45h0C405.84,228.58,411.26,226.38,416.6,223.95Z" fill="#564838"/><path d="M436.15,218.88c-0.44-1-.86-1.93-1.31-2.88-2-4.31-6.14-6.52-10.14-5.47s-5.78,4.36-5.1,9.67a16.7,16.7,0,0,0,.63,2.33h0C425.91,222.92,430.82,220,436.15,218.88Z" fill="#544938"/><path d="M392.52,235.87h0c-1.12.48-2.23,1-3.35,1.43-22.21,9.08-43.73,19.43-62.83,34.23-6.63,5.13-6.68,5.08-1.05,11.2l0.33-.14a3.57,3.57,0,0,0,1.09-.54c14.69-12.89,31.58-22.21,49.22-30.31,6.36-2.92,12.76-5.72,19.15-8.57l0.26-.12Z" fill="#faf1de"/><path d="M321.41,280.65c-1.7-2.83-3.1-2.56-5.45-.34a191.49,191.49,0,0,0-23.51,26.39c-10.72,14.78-19.66,30.51-25.31,48a3,3,0,0,0,.94.17c1.81,0,3.1-1.69,4.83-1.89,2.39-2.87,6-4.39,8.19-7.5,6.11-8.7,9.83-18.73,15-27.94,5.5-9.73,12.94-18.34,20.33-26.66,2.16-2.43,5.55-3.63,7-6.75,0.08-.18.16-0.37,0.23-0.57A29.3,29.3,0,0,1,321.41,280.65Z" fill="#f9faf7"/></svg>