<?xml version="1.0" encoding="utf-8"?>
<!-- Generator: Adobe Illustrator 23.0.1, SVG Export Plug-In . SVG Version: 6.00 Build 0)  -->
<svg version="1.1" id="Layer_1" xmlns="http://www.w3.org/2000/svg" xmlns:xlink="http://www.w3.org/1999/xlink" x="0px" y="0px"
	 viewBox="0 0 309 400" style="enable-background:new 0 0 309 400;" xml:space="preserve">
<style type="text/css">
	.st0{fill:none;stroke:#D1D3D4;stroke-width:4.5;stroke-linecap:round;stroke-miterlimit:10;}
	.st1{fill:#545554;}
	.st2{fill:#414042;}
</style>
<path class="st0" d="M261.1,72.9L261.1,72.9c-5.8,0-10.4-4.7-10.4-10.4V14.1c0-5.8,4.7-10.4,10.4-10.4l0,0c5.8,0,10.4,4.7,10.4,10.4
	v48.4C271.5,68.3,266.9,72.9,261.1,72.9z"/>
<rect x="4.5" y="24.5" class="st1" width="300" height="373.9"/>
<g>
	<path class="st2" d="M273.9,36.1v28.7c0,6.2-5,11.2-11.2,11.2c-6.2,0-11.2-5-11.2-11.2V24.5h4.5v40.3c0,3.7,3,6.8,6.7,6.8
		c3.7,0,6.8-3,6.8-6.8V36.1c0-1.2,1-2.2,2.2-2.2C272.9,33.8,273.9,34.8,273.9,36.1z"/>
</g>
<path class="st0" d="M268.6,36.1v28.7c0,5-4,9-9,9h0c-5,0-9-4-9-9V23.4"/>
</svg>
