<?xml version="1.0" encoding="utf-8"?>
<!-- Generator: Adobe Illustrator 23.0.1, SVG Export Plug-In . SVG Version: 6.00 Build 0)  -->
<svg version="1.1" id="Layer_1" xmlns="http://www.w3.org/2000/svg" xmlns:xlink="http://www.w3.org/1999/xlink" x="0px" y="0px"
	 viewBox="0 0 900 476.65" style="enable-background:new 0 0 900 476.65;" xml:space="preserve">
<style type="text/css">
	.st0{fill:#F1F1F1;}
	.st1{fill:#FCF4EA;}
	.st2{fill:#439B8E;}
	.st3{fill:#438376;}
	.st4{fill:#6EB6A1;}
</style>
<path class="st0" d="M2.39,473.58c0.29,0.29,0.59,0.59,0.88,0.88C2.97,474.17,2.68,473.87,2.39,473.58z"/>
<path class="st1" d="M894.54,474.46c0.29-0.29,0.59-0.59,0.88-0.88C895.13,473.87,894.83,474.17,894.54,474.46z"/>
<path class="st2" d="M896.79,437.88c0-127.97,0-244.94,0-372.91H3.76c0,139.87,0,268.74,0,408.61c0.29,0.29,0.59,0.59,0.88,0.88
	c284.85,0,569.69,0,854.54,0C870.96,462.97,884.78,449.52,896.79,437.88z"/>
<polygon class="st3" points="859.18,474.46 851.48,439.34 883.3,441.73 "/>
<polygon class="st4" points="859.18,474.46 859.93,435.49 896.79,437.88 "/>
</svg>
