<svg id="Layer_1" data-name="Layer 1" xmlns="http://www.w3.org/2000/svg" xmlns:xlink="http://www.w3.org/1999/xlink" viewBox="0 0 122.48 140.22"><defs><style>.cls-1,.cls-2{fill:none;}.cls-2{stroke:#aaa;stroke-width:0.3px;}.cls-3{fill:#e4bebe;}.cls-4{fill:url(#Hatching);}</style><pattern id="Hatching" data-name="Hatching" width="72" height="72" patternUnits="userSpaceOnUse" viewBox="0 0 72 72"><rect class="cls-1" width="72" height="72"/><rect class="cls-1" width="72" height="72"/><line class="cls-2" x1="66.76" y1="-0.96" x2="67.87" y2="2"/><line class="cls-2" x1="61.92" y1="-1.09" x2="61.3" y2="2.18"/><line class="cls-2" x1="46.71" y1="-1.95" x2="46.82" y2="1.05"/><line class="cls-2" x1="31.01" y1="-0.35" x2="29.59" y2="1.7"/><line class="cls-2" x1="14.74" y1="-0.48" x2="16.07" y2="1.47"/><line class="cls-2" x1="3.68" y1="-1.82" x2="2.02" y2="0.5"/><line class="cls-2" x1="54.27" y1="-2.13" x2="56.27" y2="0.87"/><line class="cls-2" x1="73.55" y1="47.89" x2="70.55" y2="47.89"/><line class="cls-2" x1="72.55" y1="32.14" x2="70.55" y2="30.64"/><line class="cls-2" x1="4.55" y1="61.14" x2="1.8" y2="59.14"/><line class="cls-2" x1="3.05" y1="4.89" x2="0.8" y2="3.14"/><line class="cls-2" x1="72.05" y1="64.89" x2="68.8" y2="64.14"/><line class="cls-2" x1="70.8" y1="53.14" x2="68.3" y2="51.39"/><line class="cls-2" x1="73.55" y1="47.89" x2="70.55" y2="47.89"/><line class="cls-2" x1="70.3" y1="40.39" x2="67.55" y2="42.14"/><line class="cls-2" x1="72.55" y1="32.14" x2="70.55" y2="30.64"/><line class="cls-2" x1="70.05" y1="20.14" x2="67.3" y2="22.39"/><line class="cls-2" x1="72.05" y1="9.14" x2="67.8" y2="9.89"/><line class="cls-2" x1="62.3" y1="10.89" x2="60.05" y2="9.14"/><line class="cls-2" x1="70.55" y1="26.89" x2="67.55" y2="26.89"/><line class="cls-2" x1="56.8" y1="54.39" x2="54.9" y2="57.22"/><line class="cls-2" x1="26.8" y1="55.89" x2="25.14" y2="58.45"/><line class="cls-2" x1="41.84" y1="60.33" x2="43.69" y2="63.02"/><line class="cls-2" x1="66.76" y1="-0.96" x2="67.87" y2="2"/><line class="cls-2" x1="61.92" y1="-1.09" x2="61.3" y2="2.18"/><line class="cls-2" x1="55.8" y1="23.89" x2="53.9" y2="26.72"/><line class="cls-2" x1="47.45" y1="52.33" x2="45.8" y2="54.89"/><line class="cls-2" x1="46.71" y1="-1.95" x2="46.82" y2="1.05"/><line class="cls-2" x1="39.34" y1="1.58" x2="41.19" y2="4.27"/><line class="cls-2" x1="31.01" y1="-0.35" x2="29.59" y2="1.7"/><line class="cls-2" x1="49.11" y1="31.1" x2="51.46" y2="33.76"/><line class="cls-2" x1="14.74" y1="-0.48" x2="16.07" y2="1.47"/><line class="cls-2" x1="8.04" y1="1.02" x2="8.95" y2="5.24"/><line class="cls-2" x1="3.68" y1="-1.82" x2="2.02" y2="0.5"/><line class="cls-2" x1="25.84" y1="1.85" x2="25.95" y2="4.84"/><line class="cls-2" x1="6.05" y1="66.64" x2="9.55" y2="65.14"/><line class="cls-2" x1="3.3" y1="51.14" x2="3.55" y2="54.39"/><line class="cls-2" x1="6.8" y1="28.14" x2="8.3" y2="24.39"/><line class="cls-2" x1="4.05" y1="33.64" x2="6.3" y2="37.39"/><line class="cls-2" x1="28.05" y1="67.39" x2="25.8" y2="64.89"/><line class="cls-2" x1="32.3" y1="67.39" x2="35.55" y2="64.64"/><line class="cls-2" x1="49.05" y1="67.39" x2="52.3" y2="65.39"/><line class="cls-2" x1="51.3" y1="61.39" x2="49.3" y2="58.14"/><line class="cls-2" x1="58.3" y1="62.64" x2="63.3" y2="64.89"/><line class="cls-2" x1="65.8" y1="59.14" x2="63.3" y2="57.39"/><line class="cls-2" x1="17.55" y1="67.14" x2="17.55" y2="64.14"/><line class="cls-2" x1="14.55" y1="62.14" x2="11.3" y2="61.64"/><line class="cls-2" x1="18.8" y1="57.64" x2="19.3" y2="54.39"/><line class="cls-2" x1="19.8" y1="62.14" x2="23.3" y2="62.89"/><line class="cls-2" x1="8.05" y1="50.39" x2="10.8" y2="52.39"/><line class="cls-2" x1="6.3" y1="7.89" x2="6.55" y2="11.89"/><line class="cls-2" x1="6.05" y1="16.14" x2="8.3" y2="18.64"/><line class="cls-2" x1="20.05" y1="6.14" x2="17.55" y2="9.64"/><line class="cls-2" x1="28.55" y1="43.39" x2="26.05" y2="41.64"/><line class="cls-2" x1="56.55" y1="38.14" x2="53.8" y2="39.64"/><line class="cls-2" x1="25.55" y1="31.89" x2="21.8" y2="32.64"/><line class="cls-2" x1="30.3" y1="22.39" x2="28.3" y2="20.89"/><line class="cls-2" x1="27.8" y1="10.39" x2="25.05" y2="12.64"/><line class="cls-2" x1="31.05" y1="6.14" x2="29.05" y2="7.39"/><line class="cls-2" x1="28.3" y1="17.14" x2="25.3" y2="17.14"/><line class="cls-2" x1="38.55" y1="52.89" x2="36.05" y2="51.14"/><line class="cls-2" x1="41.3" y1="47.64" x2="38.3" y2="47.64"/><line class="cls-2" x1="38.05" y1="40.14" x2="35.3" y2="41.89"/><line class="cls-2" x1="37.3" y1="29.39" x2="36.55" y2="26.89"/><line class="cls-2" x1="37.8" y1="19.89" x2="35.05" y2="22.14"/><line class="cls-2" x1="38.3" y1="11.89" x2="36.3" y2="13.14"/><line class="cls-2" x1="61.77" y1="27.37" x2="58.77" y2="27.37"/><line class="cls-2" x1="21.05" y1="28.89" x2="23.55" y2="27.14"/><line class="cls-2" x1="25.8" y1="51.39" x2="28.8" y2="51.39"/><line class="cls-2" x1="13.55" y1="37.14" x2="16.05" y2="35.39"/><line class="cls-2" x1="10.8" y1="31.89" x2="13.8" y2="31.89"/><line class="cls-2" x1="14.05" y1="24.39" x2="16.8" y2="26.14"/><line class="cls-2" x1="46.05" y1="38.89" x2="48.43" y2="40.45"/><line class="cls-2" x1="46.38" y1="46.42" x2="48.77" y2="44.6"/><line class="cls-2" x1="53.52" y1="50.41" x2="53.3" y2="47.39"/><line class="cls-2" x1="44.13" y1="6.33" x2="47.18" y2="6.2"/><line class="cls-2" x1="45.13" y1="12.17" x2="47.52" y2="10.35"/><line class="cls-2" x1="52.27" y1="16.16" x2="53.39" y2="13.1"/><line class="cls-2" x1="47.05" y1="28.39" x2="44.55" y2="26.64"/><line class="cls-2" x1="46.8" y1="20.89" x2="43.55" y2="21.89"/><line class="cls-2" x1="55.8" y1="5.39" x2="53.05" y2="7.14"/><line class="cls-2" x1="63.3" y1="30.89" x2="60.55" y2="32.64"/><line class="cls-2" x1="61.05" y1="19.89" x2="59.05" y2="18.39"/><line class="cls-2" x1="18.38" y1="42.33" x2="21.43" y2="42.2"/><line class="cls-2" x1="19.38" y1="48.17" x2="21.77" y2="46.35"/><line class="cls-2" x1="56.55" y1="43.39" x2="59.27" y2="42.85"/><line class="cls-2" x1="13.8" y1="16.14" x2="14.3" y2="12.89"/><line class="cls-2" x1="15.8" y1="18.14" x2="19.3" y2="18.89"/><line class="cls-2" x1="31.55" y1="59.14" x2="35.55" y2="58.39"/><line class="cls-2" x1="32.27" y1="38.37" x2="32.77" y2="34.87"/><line class="cls-2" x1="63.3" y1="48.89" x2="60.8" y2="50.14"/><line class="cls-2" x1="8.8" y1="58.39" x2="12.05" y2="55.64"/><line class="cls-2" x1="3.55" y1="42.39" x2="1.05" y2="40.64"/><line class="cls-2" x1="14.55" y1="47.89" x2="12.55" y2="46.39"/><line class="cls-2" x1="40.09" y1="67.08" x2="41.94" y2="69.77"/><line class="cls-2" x1="63.34" y1="36.83" x2="65.19" y2="39.52"/><line class="cls-2" x1="32.59" y1="45.58" x2="33.3" y2="48.39"/><line class="cls-2" x1="19.09" y1="13.08" x2="19.8" y2="15.89"/><line class="cls-2" x1="30.55" y1="29.14" x2="28.55" y2="27.64"/><line class="cls-2" x1="1.55" y1="47.89" x2="-1.45" y2="47.89"/><line class="cls-2" x1="0.55" y1="32.14" x2="-1.45" y2="30.64"/><line class="cls-2" x1="66.76" y1="71.04" x2="67.87" y2="74"/><line class="cls-2" x1="61.92" y1="70.91" x2="61.3" y2="74.18"/><line class="cls-2" x1="46.71" y1="70.05" x2="46.82" y2="73.05"/><line class="cls-2" x1="31.01" y1="71.65" x2="29.59" y2="73.7"/><line class="cls-2" x1="14.74" y1="71.52" x2="16.07" y2="73.47"/><line class="cls-2" x1="3.68" y1="70.18" x2="2.02" y2="72.5"/><line class="cls-2" x1="4.05" y1="19.89" x2="0.3" y2="20.64"/><line class="cls-2" x1="67.16" y1="14.55" x2="65.27" y2="17.37"/><line class="cls-2" x1="22.77" y1="35.87" x2="23.45" y2="38.66"/><line class="cls-2" x1="43.55" y1="34.89" x2="41.55" y2="33.39"/><line class="cls-2" x1="54.27" y1="69.87" x2="56.27" y2="72.87"/><line class="cls-2" x1="54.27" y1="-2.13" x2="56.27" y2="0.87"/><line class="cls-2" x1="0.05" y1="64.89" x2="-3.2" y2="64.14"/><line class="cls-2" x1="1.55" y1="47.89" x2="-1.45" y2="47.89"/><line class="cls-2" x1="0.55" y1="32.14" x2="-1.45" y2="30.64"/><line class="cls-2" x1="0.05" y1="9.14" x2="-4.2" y2="9.89"/><line class="cls-2" x1="66.76" y1="71.04" x2="67.87" y2="74"/><line class="cls-2" x1="61.92" y1="70.91" x2="61.3" y2="74.18"/><line class="cls-2" x1="46.71" y1="70.05" x2="46.82" y2="73.05"/><line class="cls-2" x1="31.01" y1="71.65" x2="29.59" y2="73.7"/><line class="cls-2" x1="14.74" y1="71.52" x2="16.07" y2="73.47"/><line class="cls-2" x1="3.68" y1="70.18" x2="2.02" y2="72.5"/><line class="cls-2" x1="54.27" y1="69.87" x2="56.27" y2="72.87"/></pattern></defs><title>water_logo</title><path class="cls-3" d="M53.63,17.67C51.13,14,48.76,11,47,7.67c-.6-1.16,0-3.34.81-4.64.35-.58,3-.67,3.65,0,3.89,3.63,7.41,7.64,11.28,11.29A6.28,6.28,0,0,0,67,15.73c2.61-.14,5.17-1,7.78-1.34a5.81,5.81,0,0,1,3.32.36c5.29,2.86,10.87,5.37,15.59,9,3.76,2.89,6.56,7.1,9.54,10.92,8.11,10.43,9.68,22.88,12.2,35.41,1.33,6.62-2.32,10.52-3.13,15.74s-2.45,11.05-5.48,15.37c-2.33,3.32-7.14,5.42-11.27,6.86-6.45,2.26-7.22,6.28-4.58,10.89,3.34,5.83,1.19,12.67-4.1,15.05-2.82,1.27-3.92.5-4.4-2.53-.89-5.62-2.06-11.21-3.36-16.75a5.16,5.16,0,0,0-2.47-3.06c-4-1.9-8-4.06-12.19-5-3.68-.83-7.71-.17-12.45-.17,1.58,3.09,3,5.16,3.7,7.46.62,2.09.41,4.42.57,6.64-1.64-.12-3.29-.16-4.92-.37-9.08-1.17-15.7-7.24-23-11.86A66.44,66.44,0,0,1,14.67,97.12c-2.78-3.08-3.12-8.43-6-11.35C4.43,81.41,4.09,75.45,4,71.09c-.08-8.16.31-17.15,7.45-23.73C17,42.31,21.77,36.52,27,31.18c6.18-6.33,14.38-8.95,22.41-11.87C50.56,18.85,51.76,18.38,53.63,17.67ZM49.72,43.38c-2.51,1.16-4.42,1.51-5.51,2.65C39,51.4,33.67,56.67,29.19,62.6a16.33,16.33,0,0,0-2.06,15.9c1.55,3.87,5.28,6.85,7.92,10.32,5.15,6.75,10.28,5.17,16.55,3a117.22,117.22,0,0,0,16-7.3c1.28-.69,2.24-3.11,2.25-4.74,0-2.2-1.09-4.39-1.63-6.61-1.5-6.2-3.59-8.12-7.72-6.88-8.67,2.6-17.33,5.27-26,7.83a7.51,7.51,0,0,1-2.69-.29,9.72,9.72,0,0,1,1.06-2.58c1.53-2,3.71-3.56,4.75-5.72,2.24-4.68,6.11-7.45,10.31-9.89a117.6,117.6,0,0,1,10.53-5.28c3.06-1.39,3.7-3.28,2-6.13l-11.59,4.6c-.22-.36-.44-.72-.65-1.08C48.55,46.66,48.91,45.65,49.72,43.38ZM81.4,78.77c1.79-3.22,3.51-5.29,4.14-7.65,1.68-6.4,2.81-12.7.6-19.51-2.62-8-5-10.64-12-10.33-3.5.15-4,2-2.25,4.17a20.88,20.88,0,0,0,6.53,5.6c3.06,1.6,3.48,3.28,1.54,5.79-1,1.36-2.16,3.07-3.63,3.64-3.13,1.22-3.24,3.37-2.12,5.64C76.12,70,78.45,73.63,81.4,78.77ZM39.6,35l1,1.65L48,31.33l-1.18-1.64Q43.2,32.32,39.6,35Zm.81-7.41.48,1.35L46.19,26l-.82-1.45Zm8.68.81.52,1.3,5.06-2-.48-1.13Zm-16.3,4.53,1.35,1.31,2.22-2.5-1.43-1.35Zm5-2.81c.22.09.49.31.64.25s.21-.4.31-.62c-.22-.1-.49-.31-.64-.25S37.92,29.85,37.82,30.07Z"/><path class="cls-4" d="M53.63,17.67C51.13,14,48.76,11,47,7.67c-.6-1.16,0-3.34.81-4.64.35-.58,3-.67,3.65,0,3.89,3.63,7.41,7.64,11.28,11.29A6.28,6.28,0,0,0,67,15.73c2.61-.14,5.17-1,7.78-1.34a5.81,5.81,0,0,1,3.32.36c5.29,2.86,10.87,5.37,15.59,9,3.76,2.89,6.56,7.1,9.54,10.92,8.11,10.43,9.68,22.88,12.2,35.41,1.33,6.62-2.32,10.52-3.13,15.74s-2.45,11.05-5.48,15.37c-2.33,3.32-7.14,5.42-11.27,6.86-6.45,2.26-7.22,6.28-4.58,10.89,3.34,5.83,1.19,12.67-4.1,15.05-2.82,1.27-3.92.5-4.4-2.53-.89-5.62-2.06-11.21-3.36-16.75a5.16,5.16,0,0,0-2.47-3.06c-4-1.9-8-4.06-12.19-5-3.68-.83-7.71-.17-12.45-.17,1.58,3.09,3,5.16,3.7,7.46.62,2.09.41,4.42.57,6.64-1.64-.12-3.29-.16-4.92-.37-9.08-1.17-15.7-7.24-23-11.86A66.44,66.44,0,0,1,14.67,97.12c-2.78-3.08-3.12-8.43-6-11.35C4.43,81.41,4.09,75.45,4,71.09c-.08-8.16.31-17.15,7.45-23.73C17,42.31,21.77,36.52,27,31.18c6.18-6.33,14.38-8.95,22.41-11.87C50.56,18.85,51.76,18.38,53.63,17.67ZM49.72,43.38c-2.51,1.16-4.42,1.51-5.51,2.65C39,51.4,33.67,56.67,29.19,62.6a16.33,16.33,0,0,0-2.06,15.9c1.55,3.87,5.28,6.85,7.92,10.32,5.15,6.75,10.28,5.17,16.55,3a117.22,117.22,0,0,0,16-7.3c1.28-.69,2.24-3.11,2.25-4.74,0-2.2-1.09-4.39-1.63-6.61-1.5-6.2-3.59-8.12-7.72-6.88-8.67,2.6-17.33,5.27-26,7.83a7.51,7.51,0,0,1-2.69-.29,9.72,9.72,0,0,1,1.06-2.58c1.53-2,3.71-3.56,4.75-5.72,2.24-4.68,6.11-7.45,10.31-9.89a117.6,117.6,0,0,1,10.53-5.28c3.06-1.39,3.7-3.28,2-6.13l-11.59,4.6c-.22-.36-.44-.72-.65-1.08C48.55,46.66,48.91,45.65,49.72,43.38ZM81.4,78.77c1.79-3.22,3.51-5.29,4.14-7.65,1.68-6.4,2.81-12.7.6-19.51-2.62-8-5-10.64-12-10.33-3.5.15-4,2-2.25,4.17a20.88,20.88,0,0,0,6.53,5.6c3.06,1.6,3.48,3.28,1.54,5.79-1,1.36-2.16,3.07-3.63,3.64-3.13,1.22-3.24,3.37-2.12,5.64C76.12,70,78.45,73.63,81.4,78.77ZM39.6,35l1,1.65L48,31.33l-1.18-1.64Q43.2,32.32,39.6,35Zm.81-7.41.48,1.35L46.19,26l-.82-1.45Zm8.68.81.52,1.3,5.06-2-.48-1.13Zm-16.3,4.53,1.35,1.31,2.22-2.5-1.43-1.35Zm5-2.81c.22.09.49.31.64.25s.21-.4.31-.62c-.22-.1-.49-.31-.64-.25S37.92,29.85,37.82,30.07Z"/></svg>