<?xml version="1.0" encoding="UTF-8"?>
<svg id="Layer_2" data-name="Layer 2" xmlns="http://www.w3.org/2000/svg" viewBox="0 0 743.39 568.03">
  <defs>
    <style>
      .cls-1 {
        fill: #fff;
      }

      .cls-2 {
        fill: #ff3f0b;
      }

      .cls-3 {
        fill: #ff891c;
      }
    </style>
  </defs>
  <g id="pumpkin" data-name="Layer 1">
    <polygon class="cls-3" points="621.7 395.49 462.48 568.03 233.45 516.42 163.63 292.26 322.85 119.72 551.88 171.33 621.7 395.49"/>
  </g>
  <g id="eyes">
    <polygon class="cls-1" points="385.41 210 402.41 255.83 371.22 293.46 323.04 285.27 306.04 239.45 337.22 201.82 385.41 210"/>
    <polygon class="cls-1" points="512.83 241.19 529.83 287.01 498.64 324.64 450.46 316.46 433.46 270.63 464.64 233 512.83 241.19"/>
  </g>
  <g id="text">
    <g>
      <path class="cls-2" d="M27.79,23.18V.72h23.69V50.47H27.79v-16.78h-4.18v16.78H0V.72H23.62V23.18h4.18Z"/>
      <path class="cls-2" d="M82.44,50.47l-.43-7.7h-4.39l-.43,7.7h-22.68c.48-7.87,1.46-15.95,2.95-24.23,1.49-8.28,2.86-14.6,4.1-18.97l1.8-6.55h34.13c.53,1.73,1.2,4.13,2.02,7.2,.82,3.07,2.02,8.96,3.6,17.68s2.66,17,3.24,24.88h-23.9Zm-3.74-25.56l-.58,11.23h3.38l-.5-11.23h-2.3Z"/>
      <path class="cls-2" d="M109.44,50.47V.72h26.14c8.59,0,14.9,1.4,18.94,4.21,4.03,2.81,6.05,7.67,6.05,14.58,0,5.52-1.54,9.65-4.61,12.38-2.64,2.35-6.91,3.82-12.82,4.39-2.5,.24-5.47,.36-8.93,.36v13.82h-24.77Zm24.77-21.38h2.09c.58,0,1.06-.19,1.44-.58s.58-.89,.58-1.51v-3.31c0-.62-.19-1.12-.58-1.48-.38-.36-.86-.54-1.44-.54h-2.09v7.42Z"/>
      <path class="cls-2" d="M163.73,50.47V.72h26.14c8.59,0,14.9,1.4,18.94,4.21,4.03,2.81,6.05,7.67,6.05,14.58,0,5.52-1.54,9.65-4.61,12.38-2.64,2.35-6.91,3.82-12.82,4.39-2.5,.24-5.47,.36-8.93,.36v13.82h-24.77Zm24.77-21.38h2.09c.58,0,1.06-.19,1.44-.58s.58-.89,.58-1.51v-3.31c0-.62-.19-1.12-.58-1.48-.38-.36-.86-.54-1.44-.54h-2.09v7.42Z"/>
      <path class="cls-2" d="M258.05,50.47h-27v-11.74c-1.34-.58-2.28-.98-2.81-1.22-.53-.24-1.38-.74-2.56-1.51-1.18-.77-2.05-1.56-2.63-2.38-1.58-2.16-2.59-4.82-3.02-7.99l-3.1-24.91h25.49l1.8,24.62h1.58l1.51-24.62h24.84l-3.1,24.91c-.43,3.17-1.44,5.83-3.02,7.99-.58,.82-1.45,1.61-2.63,2.38-1.18,.77-2.03,1.27-2.56,1.51-.53,.24-1.46,.65-2.81,1.22v11.74Z"/>
      <path class="cls-2" d="M323.64,23.18V.72h23.69V50.47h-23.69v-16.78h-4.18v16.78h-23.62V.72h23.62V23.18h4.18Z"/>
      <path class="cls-2" d="M378.28,50.47l-.43-7.7h-4.39l-.43,7.7h-22.68c.48-7.87,1.46-15.95,2.95-24.23s2.86-14.6,4.11-18.97l1.8-6.55h34.13c.53,1.73,1.2,4.13,2.02,7.2,.81,3.07,2.02,8.96,3.6,17.68,1.58,8.71,2.66,17,3.24,24.88h-23.9Zm-3.74-25.56l-.58,11.23h3.38l-.5-11.23h-2.3Z"/>
      <path class="cls-2" d="M405.28,.72h24.77V31.97h7.34v18.5h-32.11V.72Z"/>
      <path class="cls-2" d="M441.5,.72h24.77V31.97h7.34v18.5h-32.11V.72Z"/>
      <path class="cls-2" d="M501.47,0h5.98c8.64,0,14.93,2.04,18.86,6.12,3.93,4.08,5.9,10.49,5.9,19.22s-1.98,15.23-5.94,19.48-10.24,6.37-18.83,6.37h-5.98c-8.59,0-14.88-2.12-18.86-6.37-3.99-4.25-5.98-10.74-5.98-19.48s1.98-15.14,5.94-19.22c3.96-4.08,10.26-6.12,18.9-6.12Zm.94,23.69v8.35c0,.62,.18,1.13,.54,1.51,.36,.38,.84,.58,1.44,.58s1.1-.19,1.51-.58c.41-.38,.61-.89,.61-1.51v-8.35c0-.58-.2-1.06-.61-1.44-.41-.38-.91-.58-1.51-.58s-1.08,.19-1.44,.58c-.36,.38-.54,.86-.54,1.44Z"/>
      <path class="cls-2" d="M594.5,50.47h-25.63l-1.15-13.68h-1.51l-1.08,13.68h-25.27l-7.06-49.75h21.96l1.87,23.62h1.51l1.73-22.39h14.54l1.94,22.39h1.58l1.8-23.62h21.67l-6.91,49.75Z"/>
      <path class="cls-2" d="M604.51,.72h40.32V21.67h-15.55v2.88h15.55v4.54h-15.55v2.88h16.2v18.5h-40.97V.72Z"/>
      <path class="cls-2" d="M649.58,.72h40.32V21.67h-15.55v2.88h15.55v4.54h-15.55v2.88h16.2v18.5h-40.97V.72Z"/>
      <path class="cls-2" d="M694.65,.72h22.03l4.54,14.83V.72h22.18V50.47h-22.18l-3.82-14.54v14.54h-22.75V.72Z"/>
    </g>
  </g>
</svg>