<svg xmlns="http://www.w3.org/2000/svg" viewBox="0 0 387.93 48"><defs><style>.cls-1{fill:#231f20;}</style></defs><title>text</title><g id="Layer_2" data-name="Layer 2"><g id="text"><path class="cls-1" d="M4.56,9.22V20.31h9.55v4.41H4.56V38.4H0V4.8H18V9.22Z"/><path class="cls-1" d="M21.94,0h4.51V38.4H21.94Z"/><path class="cls-1" d="M32.11,26.4a12.24,12.24,0,1,1,24.48,0,12.24,12.24,0,1,1-24.48,0Zm19.83,0a7.51,7.51,0,0,0-7.59-7.82,7.6,7.6,0,0,0-7.63,7.82,7.66,7.66,0,0,0,7.63,7.93C49,34.28,51.94,30.63,51.94,26.35Z"/><path class="cls-1" d="M97.54,14.4,85.3,38.5H81.94l-4.37-8.83L73.25,38.5H69.84L57.65,14.4h4.8L71.66,33l3.7-7.49L69.79,14.4H74.4l3.17,6.91,3.22-6.91h4.6l-5.61,11L83.57,33,92.74,14.4Z"/><path class="cls-1" d="M121.58,28.23H103.25c.72,3.79,3.69,6.19,7.82,6.19A13.38,13.38,0,0,0,119,31.83v4.56a13.78,13.78,0,0,1-8.16,2.4c-7.63,0-12.24-5.67-12.24-12.39s4.7-12.33,11.76-12.33C117.84,14.07,122.11,20.64,121.58,28.23Zm-18.29-3.75h13.54c-.67-3.5-3.12-5.9-6.57-5.9A7,7,0,0,0,103.29,24.48Z"/><path class="cls-1" d="M138.58,13.92v5.33c-3.41-.58-6.92,1.25-6.92,6.43l0-.19V38.4H127.1v-24h4.51v4.13A8.08,8.08,0,0,1,138.58,13.92Z"/><path class="cls-1" d="M140.73,35l2.84-3.37a8.72,8.72,0,0,0,5.8,2.79c2,0,3.51-1.06,3.51-2.64,0-4.66-11.47-2.93-11.43-11.09,0-3.65,3-6.67,7.73-6.67a10.4,10.4,0,0,1,7.68,3.41l-2.64,3.31a8.12,8.12,0,0,0-5-2.35c-1.82,0-3.12,1-3.12,2.4-.05,4.32,11.47,2.73,11.47,11.09,0,3.93-3.36,6.91-8.35,6.91A12.3,12.3,0,0,1,140.73,35Z"/><path class="cls-1" d="M201.6,14.4v24h-4.51V34.56a10,10,0,0,1-8.21,4.18c-6.67,0-11.23-5.43-11.23-12.34s4.56-12.33,11.23-12.33a10,10,0,0,1,8.21,4.17V14.4Zm-4.51,12a7.65,7.65,0,0,0-7.44-7.92c-4.32,0-7.35,3.55-7.35,7.92s3,8,7.35,8S197.09,30.63,197.09,26.4Z"/><path class="cls-1" d="M220.22,13.92v5.33c-3.41-.58-6.91,1.25-6.91,6.43l-.05-.19V38.4h-4.51v-24h4.51v4.13A8.07,8.07,0,0,1,220.22,13.92Z"/><path class="cls-1" d="M245,28.23H226.7c.72,3.79,3.7,6.19,7.83,6.19a13.43,13.43,0,0,0,7.92-2.59v4.56a13.83,13.83,0,0,1-8.16,2.4c-7.64,0-12.25-5.67-12.25-12.39s4.71-12.33,11.77-12.33C241.29,14.07,245.57,20.64,245,28.23Zm-18.29-3.75h13.54c-.68-3.5-3.12-5.9-6.58-5.9A7,7,0,0,0,226.75,24.48Z"/><path class="cls-1" d="M290.64,26.4c0,6.91-4.56,12.34-11.23,12.34a10,10,0,0,1-8.21-4.18V48h-4.52V14.4h4.52v3.84a10,10,0,0,1,8.21-4.17C286.08,14.07,290.64,19.49,290.64,26.4Zm-4.66,0c0-4.41-3-8-7.34-8s-7.44,3.75-7.44,8a7.64,7.64,0,0,0,7.44,7.92C283,34.32,286,30.77,286,26.4Z"/><path class="cls-1" d="M307.77,13.92v5.33c-3.41-.58-6.91,1.25-6.91,6.43l-.05-.19V38.4H296.3v-24h4.51v4.13A8.08,8.08,0,0,1,307.77,13.92Z"/><path class="cls-1" d="M332.59,28.23H314.25c.72,3.79,3.7,6.19,7.83,6.19A13.4,13.4,0,0,0,330,31.83v4.56a13.83,13.83,0,0,1-8.16,2.4c-7.64,0-12.24-5.67-12.24-12.39s4.7-12.33,11.76-12.33C328.84,14.07,333.12,20.64,332.59,28.23ZM314.3,24.48h13.54c-.67-3.5-3.12-5.9-6.58-5.9A7,7,0,0,0,314.3,24.48Z"/><path class="cls-1" d="M347.71,18.72h-4.95V38.4h-4.51V18.72h-3.07V14.4h3.07V8h4.51V14.4h4.95Z"/><path class="cls-1" d="M362.4,18.72h-4.95V38.4h-4.51V18.72h-3.07V14.4h3.07V8h4.51V14.4h4.95Z"/><path class="cls-1" d="M387.93,14.4,373.87,48h-4.61l4.22-9.79-10-23.81h4.9l7.34,18.72L383,14.4Z"/></g></g></svg>