<?xml version="1.0" encoding="UTF-8"?>
<svg id="Layer_2" data-name="Layer 2" xmlns="http://www.w3.org/2000/svg" viewBox="0 0 34.11 300.33">
  <defs>
    <style>
      .cls-1 {
        fill: #fcee21;
      }
    </style>
  </defs>
  <g id="arrow">
    <g>
      <path d="m23.79,299.33c-.86,0-1.83-.09-2.85-.18-1.16-.11-2.47-.23-3.87-.24h-.23c-1.3,0-2.52.1-3.6.19-.93.08-1.81.15-2.61.15-6.84,0-9.62-6.53-9.62-72.17C1,156.92,13.41,41.25,17.05,8.81c3.64,32.44,16.05,148.11,16.05,218.27,0,33.84-.64,51.63-2.21,61.43-1.61,10.02-4.06,10.82-7.11,10.82h0Z"/>
      <path class="cls-1" d="m17.05,17.89c4.49,41.09,15.05,144.51,15.05,209.19,0,33.78-.64,51.53-2.2,61.28-1.6,9.98-3.9,9.98-6.12,9.98-.82,0-1.76-.09-2.76-.18-1.18-.11-2.51-.23-3.95-.24h-.23c-1.34,0-2.58.1-3.68.19-.91.07-1.77.14-2.53.14-2.26,0-4.59,0-6.26-9.83-1.66-9.78-2.36-28.12-2.36-61.33C2,162.4,12.56,58.98,17.05,17.89m0-17.89S0,144.26,0,227.08c0,66.89,2.84,73.17,10.62,73.17,1.8,0,3.86-.33,6.21-.33.07,0,.14,0,.22,0,2.59.02,4.82.42,6.73.42,7.83,0,10.32-6.68,10.32-73.26C34.11,144.26,17.05,0,17.05,0h0Z"/>
    </g>
  </g>
</svg>